<?xml version="1.0" encoding="UTF-8"?>
<svg id="Ebene_1" xmlns="http://www.w3.org/2000/svg" xmlns:xlink="http://www.w3.org/1999/xlink" version="1.1" viewBox="0 0 2200 892.8">
  <!-- Generator: Adobe Illustrator 29.4.0, SVG Export Plug-In . SVG Version: 2.1.0 Build 152)  -->
  <defs>
    <style>
      .st0, .st1, .st2, .st3 {
        fill: none;
      }

      .st4 {
        fill: #377e8b;
      }

      .st5 {
        fill: #fff;
        font-size: 32px;
      }

      .st5, .st6, .st7, .st8 {
        font-family: HelveticaNeue, 'Helvetica Neue';
      }

      .st9 {
        isolation: isolate;
        opacity: .2;
      }

      .st10 {
        fill: #f17356;
      }

      .st10, .st11, .st12, .st13, .st14, .st15, .st16, .st17, .st18, .st19, .st20, .st21, .st22, .st23, .st24, .st25, .st26 {
        opacity: 0;
      }

      .st11 {
        fill: #13a139;
      }

      .st12 {
        fill: #fabee6;
      }

      .st13 {
        fill: #478bb7;
      }

      .st6 {
        font-size: 26px;
      }

      .st14 {
        fill: #fbaa7f;
      }

      .st7 {
        font-size: 30px;
      }

      .st27 {
        fill: #e4f2f4;
      }

      .st28 {
        clip-path: url(#clippath-17);
      }

      .st29 {
        clip-path: url(#clippath-19);
      }

      .st30 {
        clip-path: url(#clippath-11);
      }

      .st31 {
        clip-path: url(#clippath-16);
      }

      .st32 {
        clip-path: url(#clippath-18);
      }

      .st33 {
        clip-path: url(#clippath-10);
      }

      .st34 {
        clip-path: url(#clippath-15);
      }

      .st35 {
        clip-path: url(#clippath-13);
      }

      .st36 {
        clip-path: url(#clippath-14);
      }

      .st37 {
        clip-path: url(#clippath-12);
      }

      .st38 {
        clip-path: url(#clippath-31);
      }

      .st39 {
        clip-path: url(#clippath-32);
      }

      .st40 {
        clip-path: url(#clippath-33);
      }

      .st41 {
        clip-path: url(#clippath-34);
      }

      .st42 {
        clip-path: url(#clippath-35);
      }

      .st43 {
        clip-path: url(#clippath-30);
      }

      .st44 {
        clip-path: url(#clippath-36);
      }

      .st45 {
        clip-path: url(#clippath-37);
      }

      .st46 {
        clip-path: url(#clippath-27);
      }

      .st47 {
        clip-path: url(#clippath-29);
      }

      .st48 {
        clip-path: url(#clippath-26);
      }

      .st49 {
        clip-path: url(#clippath-28);
      }

      .st50 {
        clip-path: url(#clippath-20);
      }

      .st51 {
        clip-path: url(#clippath-21);
      }

      .st52 {
        clip-path: url(#clippath-22);
      }

      .st53 {
        clip-path: url(#clippath-23);
      }

      .st54 {
        clip-path: url(#clippath-24);
      }

      .st55 {
        clip-path: url(#clippath-25);
      }

      .st15 {
        fill: #2ad4e3;
      }

      .st56 {
        clip-path: url(#clippath-1);
      }

      .st57 {
        clip-path: url(#clippath-3);
      }

      .st58 {
        clip-path: url(#clippath-4);
      }

      .st59 {
        clip-path: url(#clippath-2);
      }

      .st60 {
        clip-path: url(#clippath-7);
      }

      .st61 {
        clip-path: url(#clippath-6);
      }

      .st62 {
        clip-path: url(#clippath-9);
      }

      .st63 {
        clip-path: url(#clippath-8);
      }

      .st64 {
        clip-path: url(#clippath-5);
      }

      .st65 {
        fill: #387e8a;
      }

      .st16 {
        fill: #1d7897;
      }

      .st17 {
        fill: #5899d4;
      }

      .st18 {
        fill: #a682f8;
      }

      .st19 {
        fill: #e0bfa0;
      }

      .st20 {
        fill: #09bfd4;
      }

      .st8 {
        font-size: 48px;
      }

      .st21 {
        fill: #a13ab3;
      }

      .st66 {
        letter-spacing: 0em;
      }

      .st67 {
        letter-spacing: 0em;
      }

      .st22 {
        fill: #51543b;
      }

      .st23 {
        fill: #d86f01;
      }

      .st68 {
        fill: #4cacbc;
      }

      .st24 {
        fill: #ecdfd4;
      }

      .st1, .st2, .st3 {
        stroke: #000;
      }

      .st69 {
        clip-path: url(#clippath);
      }

      .st26 {
        fill: #14a63f;
      }

      .st2 {
        stroke-miterlimit: 10;
        stroke-width: 4px;
      }

      .st3 {
        stroke-width: 4px;
      }
    </style>
    <clipPath id="clippath">
      <rect class="st0" x="-132.1" y="-57.7" width="2200" height="1080"/>
    </clipPath>
    <clipPath id="clippath-1">
      <rect class="st0" x="150.4" y="64.8" width="1730" height="57"/>
    </clipPath>
    <clipPath id="clippath-2">
      <rect class="st0" x="151.4" y="65.8" width="246" height="55"/>
    </clipPath>
    <clipPath id="clippath-3">
      <rect class="st0" x="398.4" y="65.8" width="246" height="55"/>
    </clipPath>
    <clipPath id="clippath-4">
      <rect class="st0" x="645.4" y="65.8" width="246" height="55"/>
    </clipPath>
    <clipPath id="clippath-5">
      <rect class="st0" x="892.4" y="65.8" width="246" height="55"/>
    </clipPath>
    <clipPath id="clippath-6">
      <rect class="st0" x="1139.4" y="65.8" width="246" height="55"/>
    </clipPath>
    <clipPath id="clippath-7">
      <rect class="st0" x="1386.4" y="65.8" width="246" height="55"/>
    </clipPath>
    <clipPath id="clippath-8">
      <rect class="st0" x="1633.4" y="65.8" width="246" height="55"/>
    </clipPath>
    <clipPath id="clippath-9">
      <rect class="st0" x="150.4" y="64.8" width="1730" height="57"/>
    </clipPath>
    <clipPath id="clippath-10">
      <rect class="st0" x="-132.1" y="-57.7" width="2200" height="1080"/>
    </clipPath>
    <clipPath id="clippath-11">
      <rect class="st0" x="391.4" y="240.8" width="1243.4" height="57"/>
    </clipPath>
    <clipPath id="clippath-12">
      <rect class="st0" x="392.4" y="241.8" width="123.2" height="55"/>
    </clipPath>
    <clipPath id="clippath-13">
      <rect class="st0" x="516.6" y="241.8" width="123.2" height="55"/>
    </clipPath>
    <clipPath id="clippath-14">
      <rect class="st0" x="640.9" y="241.8" width="123.2" height="55"/>
    </clipPath>
    <clipPath id="clippath-15">
      <rect class="st0" x="391.4" y="240.8" width="1243.4" height="57"/>
    </clipPath>
    <clipPath id="clippath-16">
      <rect class="st0" x="1510.6" y="241.8" width="123.2" height="55"/>
    </clipPath>
    <clipPath id="clippath-17">
      <rect class="st0" x="391.4" y="240.8" width="1243.4" height="57"/>
    </clipPath>
    <clipPath id="clippath-18">
      <rect class="st0" x="-132.1" y="-57.7" width="2200" height="1080"/>
    </clipPath>
    <clipPath id="clippath-19">
      <rect class="st0" x="392.2" y="121.3" width="1243.7" height="122.3"/>
    </clipPath>
    <clipPath id="clippath-20">
      <rect class="st0" x="389.9" y="119.3" width="1678" height="307"/>
    </clipPath>
    <clipPath id="clippath-21">
      <rect class="st0" x="771.4" y="416.8" width="352.1" height="57"/>
    </clipPath>
    <clipPath id="clippath-22">
      <rect class="st0" x="772.4" y="417.8" width="350.1" height="55"/>
    </clipPath>
    <clipPath id="clippath-23">
      <rect class="st0" x="771.4" y="416.8" width="352.1" height="57"/>
    </clipPath>
    <clipPath id="clippath-24">
      <rect class="st0" x="-132.1" y="-57.7" width="2200" height="1080"/>
    </clipPath>
    <clipPath id="clippath-25">
      <rect class="st0" x="280.4" y="608.8" width="1243.4" height="57"/>
    </clipPath>
    <clipPath id="clippath-26">
      <rect class="st0" x="281.4" y="609.8" width="87.7" height="55"/>
    </clipPath>
    <clipPath id="clippath-27">
      <rect class="st0" x="370.2" y="609.8" width="87.7" height="55"/>
    </clipPath>
    <clipPath id="clippath-28">
      <rect class="st0" x="458.9" y="609.8" width="87.7" height="55"/>
    </clipPath>
    <clipPath id="clippath-29">
      <rect class="st0" x="280.4" y="608.8" width="1243.4" height="57"/>
    </clipPath>
    <clipPath id="clippath-30">
      <rect class="st0" x="1435.1" y="609.8" width="87.7" height="55"/>
    </clipPath>
    <clipPath id="clippath-31">
      <rect class="st0" x="280.4" y="608.8" width="1243.4" height="57"/>
    </clipPath>
    <clipPath id="clippath-32">
      <rect class="st0" x="-132.1" y="-57.7" width="2200" height="1080"/>
    </clipPath>
    <clipPath id="clippath-33">
      <rect class="st0" x="603.4" y="778.8" width="599.7" height="57"/>
    </clipPath>
    <clipPath id="clippath-34">
      <rect class="st0" x="604.4" y="779.8" width="153.1" height="55"/>
    </clipPath>
    <clipPath id="clippath-35">
      <rect class="st0" x="758.5" y="779.8" width="443.6" height="55"/>
    </clipPath>
    <clipPath id="clippath-36">
      <rect class="st0" x="603.4" y="778.8" width="599.7" height="57"/>
    </clipPath>
    <clipPath id="clippath-37">
      <rect class="st0" x="-132.1" y="-57.7" width="2200" height="1080"/>
    </clipPath>
  </defs>
  <g class="st69">
    <polygon class="st27" points="773.7 473.4 282.4 606 1524.7 611.1 1123.5 471.7 773.7 473.4"/>
    <polygon class="st27" points="893.8 297.1 774.8 417.1 1124.4 417.2 1010.7 296.9 893.8 297.1"/>
  </g>
  <g class="st56">
    <rect class="st65" x="150.9" y="65.3" width="247" height="56"/>
    <rect class="st68" x="397.9" y="65.3" width="247" height="56"/>
    <rect class="st65" x="644.9" y="65.3" width="247" height="56"/>
    <rect class="st68" x="891.9" y="65.3" width="247" height="56"/>
    <rect class="st65" x="1138.9" y="65.3" width="247" height="56"/>
    <rect class="st68" x="1385.9" y="65.3" width="247" height="56"/>
    <rect class="st65" x="1632.9" y="65.3" width="247" height="56"/>
  </g>
  <g class="st59">
    <rect class="st25" x="155.4" y="74.8" width="238" height="38"/>
    <text class="st5" transform="translate(200.6 105.1)"><tspan x="0" y="0">Frame n-3</tspan></text>
  </g>
  <g class="st57">
    <rect class="st25" x="402.4" y="74.8" width="238" height="38"/>
    <text class="st5" transform="translate(447.6 105.1)"><tspan x="0" y="0">Frame n-2</tspan></text>
  </g>
  <g class="st58">
    <rect class="st25" x="649.4" y="74.8" width="238" height="38"/>
    <text class="st5" transform="translate(694.6 105.1)"><tspan x="0" y="0">Frame n-1</tspan></text>
  </g>
  <g class="st64">
    <rect class="st25" x="896.4" y="74.8" width="238" height="38"/>
    <text class="st5" transform="translate(956.7 105.1)"><tspan x="0" y="0">Frame n</tspan></text>
  </g>
  <g class="st61">
    <rect class="st25" x="1143.4" y="74.8" width="238" height="38"/>
    <text class="st5" transform="translate(1185.2 105.1)"><tspan x="0" y="0">Frame n+1</tspan></text>
  </g>
  <g class="st60">
    <rect class="st25" x="1390.4" y="74.8" width="238" height="38"/>
    <text class="st5" transform="translate(1432.2 105.1)"><tspan x="0" y="0">Frame n+2</tspan></text>
  </g>
  <g class="st63">
    <rect class="st25" x="1637.4" y="74.8" width="238" height="38"/>
    <text class="st5" transform="translate(1679.2 105.1)"><tspan x="0" y="0">Frame n+3</tspan></text>
  </g>
  <g class="st62">
    <line class="st1" x1="397.9" y1="64.8" x2="397.9" y2="121.8"/>
    <line class="st1" x1="644.9" y1="64.8" x2="644.9" y2="121.8"/>
    <line class="st1" x1="891.9" y1="64.8" x2="891.9" y2="121.8"/>
    <line class="st1" x1="1138.9" y1="64.8" x2="1138.9" y2="121.8"/>
    <line class="st1" x1="1385.9" y1="64.8" x2="1385.9" y2="121.8"/>
    <line class="st1" x1="1632.9" y1="64.8" x2="1632.9" y2="121.8"/>
    <line class="st1" x1="150.9" y1="64.8" x2="150.9" y2="121.8"/>
    <line class="st1" x1="1879.9" y1="64.8" x2="1879.9" y2="121.8"/>
    <line class="st1" x1="150.4" y1="65.3" x2="1880.4" y2="65.3"/>
    <line class="st1" x1="150.4" y1="121.3" x2="1880.4" y2="121.3"/>
  </g>
  <g class="st33">
    <polyline class="st3" points="893.7 53 895.7 53 1135.9 53 1137.9 53"/>
    <line class="st2" x1="1138.1" y1="61.4" x2="1138.1" y2="44.6"/>
    <line class="st2" x1="893.5" y1="44.6" x2="893.5" y2="61.4"/>
    <text class="st7" transform="translate(971.3 34.6)"><tspan x="0" y="0">10 ms</tspan></text>
  </g>
  <g class="st30">
    <rect class="st68" x="391.9" y="241.3" width="124.2" height="56"/>
    <rect class="st65" x="516.1" y="241.3" width="124.2" height="56"/>
    <rect class="st68" x="640.4" y="241.3" width="124.2" height="56"/>
    <rect class="st65" x="764.6" y="241.3" width="124.2" height="56"/>
    <rect class="st68" x="888.9" y="241.3" width="124.2" height="56"/>
    <rect class="st65" x="1013.1" y="241.3" width="124.2" height="56"/>
    <rect class="st68" x="1137.4" y="241.3" width="124.2" height="56"/>
    <rect class="st65" x="1261.6" y="241.3" width="124.2" height="56"/>
    <rect class="st68" x="1385.9" y="241.3" width="124.2" height="56"/>
    <rect class="st65" x="1510.1" y="241.3" width="124.2" height="56"/>
  </g>
  <g class="st37">
    <rect class="st25" x="396.4" y="250.8" width="115.2" height="38"/>
    <text class="st5" transform="translate(445.1 281.1)"><tspan x="0" y="0">0</tspan></text>
  </g>
  <g class="st35">
    <rect class="st25" x="520.6" y="250.8" width="115.2" height="38"/>
    <text class="st5" transform="translate(569.4 281.1)"><tspan x="0" y="0">1</tspan></text>
  </g>
  <g class="st36">
    <rect class="st25" x="644.9" y="250.8" width="115.2" height="38"/>
    <text class="st5" transform="translate(693.6 281.1)"><tspan x="0" y="0">2</tspan></text>
  </g>
  <g class="st34">
    <rect class="st19" x="764.6" y="241.3" width="124.2" height="56"/>
    <rect class="st20" x="888.9" y="241.3" width="124.2" height="56"/>
    <rect class="st24" x="1013.1" y="241.3" width="124.2" height="56"/>
    <rect class="st12" x="1137.4" y="241.3" width="124.2" height="56"/>
    <rect class="st14" x="1261.6" y="241.3" width="124.2" height="56"/>
    <rect class="st15" x="1385.9" y="241.3" width="124.2" height="56"/>
  </g>
  <g class="st31">
    <rect class="st25" x="1514.6" y="250.8" width="115.2" height="38"/>
    <text class="st5" transform="translate(1563.3 281.1)"><tspan x="0" y="0">9</tspan></text>
  </g>
  <g class="st28">
    <line class="st1" x1="516.1" y1="240.8" x2="516.1" y2="297.8"/>
    <line class="st1" x1="640.4" y1="240.8" x2="640.4" y2="297.8"/>
    <line class="st1" x1="764.6" y1="240.8" x2="764.6" y2="297.8"/>
    <line class="st1" x1="888.9" y1="240.8" x2="888.9" y2="297.8"/>
    <line class="st1" x1="1013.1" y1="240.8" x2="1013.1" y2="297.8"/>
    <line class="st1" x1="1137.4" y1="240.8" x2="1137.4" y2="297.8"/>
    <line class="st1" x1="1261.6" y1="240.8" x2="1261.6" y2="297.8"/>
    <line class="st1" x1="1385.9" y1="240.8" x2="1385.9" y2="297.8"/>
    <line class="st1" x1="1510.1" y1="240.8" x2="1510.1" y2="297.8"/>
    <line class="st1" x1="391.9" y1="240.8" x2="391.9" y2="297.8"/>
    <line class="st1" x1="1634.3" y1="240.8" x2="1634.3" y2="297.8"/>
    <line class="st1" x1="391.4" y1="241.3" x2="1634.8" y2="241.3"/>
    <line class="st1" x1="391.4" y1="297.3" x2="1634.8" y2="297.3"/>
  </g>
  <g class="st32">
    <g class="st9">
      <g class="st29">
        <g class="st50">
          <polygon class="st68" points="892.7 121.3 392.2 243.6 1635.9 241.5 1139.3 122.1 892.7 121.3"/>
        </g>
      </g>
    </g>
    <text class="st6" transform="translate(1131.5 333.2)"><tspan x="0" y="0">10 Subframes (f</tspan><tspan class="st67" x="184" y="0">r</tspan><tspan x="192.2" y="0">om 0 to 9)</tspan></text>
    <polyline class="st3" points="888 311.8 890 311.8 1004.1 311.8 1006.1 311.8"/>
    <line class="st2" x1="1006.3" y1="320.2" x2="1006.3" y2="303.4"/>
    <line class="st2" x1="887.8" y1="303.4" x2="887.8" y2="320.2"/>
    <text class="st7" transform="translate(910.8 338.2)"><tspan x="0" y="0">1 ms</tspan></text>
  </g>
  <g class="st51">
    <rect class="st4" x="771.9" y="417.3" width="351.1" height="56"/>
  </g>
  <g class="st52">
    <rect class="st25" x="776.4" y="426.8" width="342.1" height="38"/>
    <text class="st5" transform="translate(906 457.1)"><tspan x="0" y="0">Slot 0</tspan></text>
  </g>
  <g class="st53">
    <line class="st1" x1="771.9" y1="416.8" x2="771.9" y2="473.8"/>
    <line class="st1" x1="1123" y1="416.8" x2="1123" y2="473.8"/>
    <line class="st1" x1="771.4" y1="417.3" x2="1123.5" y2="417.3"/>
    <line class="st1" x1="771.4" y1="473.3" x2="1123.5" y2="473.3"/>
  </g>
  <g class="st54">
    <polyline class="st3" points="771 486.3 773 486.3 1121.1 486.3 1123.1 486.3"/>
    <line class="st2" x1="1123.4" y1="494.7" x2="1123.4" y2="477.9"/>
    <line class="st2" x1="770.7" y1="477.9" x2="770.7" y2="494.7"/>
    <text class="st7" transform="translate(916.3 527.1)"><tspan x="0" y="0">1 ms</tspan></text>
    <text class="st8" transform="translate(1903 111)"><tspan x="0" y="0">Frames</tspan></text>
    <text class="st8" transform="translate(1648.6 287.3)"><tspan x="0" y="0">Subframes</tspan></text>
    <text class="st8" transform="translate(1139.4 463.1)"><tspan x="0" y="0">Slots</tspan></text>
  </g>
  <g class="st55">
    <rect class="st68" x="280.9" y="609.3" width="88.7" height="56"/>
    <rect class="st65" x="369.7" y="609.3" width="88.7" height="56"/>
    <rect class="st68" x="458.4" y="609.3" width="88.7" height="56"/>
    <rect class="st65" x="547.1" y="609.3" width="88.7" height="56"/>
    <rect class="st68" x="635.9" y="609.3" width="88.7" height="56"/>
    <rect class="st65" x="724.6" y="609.3" width="88.7" height="56"/>
    <rect class="st68" x="813.4" y="609.3" width="88.7" height="56"/>
    <rect class="st65" x="902.1" y="609.3" width="88.7" height="56"/>
    <rect class="st68" x="990.9" y="609.3" width="88.7" height="56"/>
    <rect class="st65" x="1079.6" y="609.3" width="88.7" height="56"/>
    <rect class="st68" x="1168.4" y="609.3" width="88.7" height="56"/>
    <rect class="st65" x="1257.1" y="609.3" width="88.7" height="56"/>
    <rect class="st68" x="1345.8" y="609.3" width="88.7" height="56"/>
    <rect class="st65" x="1434.6" y="609.3" width="88.7" height="56"/>
  </g>
  <g class="st48">
    <rect class="st25" x="285.4" y="618.8" width="79.7" height="38"/>
    <text class="st5" transform="translate(316.4 649.1)"><tspan x="0" y="0">0</tspan></text>
  </g>
  <g class="st46">
    <rect class="st25" x="374.2" y="618.8" width="79.7" height="38"/>
    <text class="st5" transform="translate(405.1 649.1)"><tspan x="0" y="0">1</tspan></text>
  </g>
  <g class="st49">
    <rect class="st25" x="462.9" y="618.8" width="79.7" height="38"/>
    <text class="st5" transform="translate(493.9 649.1)"><tspan x="0" y="0">2</tspan></text>
  </g>
  <g class="st47">
    <rect class="st26" x="547.1" y="609.3" width="88.7" height="56"/>
    <rect class="st21" x="635.9" y="609.3" width="88.7" height="56"/>
    <rect class="st22" x="724.6" y="609.3" width="88.7" height="56"/>
    <rect class="st11" x="813.4" y="609.3" width="88.7" height="56"/>
    <rect class="st18" x="902.1" y="609.3" width="88.7" height="56"/>
    <rect class="st13" x="990.9" y="609.3" width="88.7" height="56"/>
    <rect class="st16" x="1079.6" y="609.3" width="88.7" height="56"/>
    <rect class="st10" x="1168.4" y="609.3" width="88.7" height="56"/>
    <rect class="st23" x="1257.1" y="609.3" width="88.7" height="56"/>
    <rect class="st17" x="1345.8" y="609.3" width="88.7" height="56"/>
  </g>
  <g class="st43">
    <rect class="st25" x="1439.1" y="618.8" width="79.7" height="38"/>
    <text class="st5" transform="translate(1461.2 649.1)"><tspan x="0" y="0">13</tspan></text>
  </g>
  <g class="st38">
    <line class="st1" x1="369.7" y1="608.8" x2="369.7" y2="665.8"/>
    <line class="st1" x1="458.4" y1="608.8" x2="458.4" y2="665.8"/>
    <line class="st1" x1="547.1" y1="608.8" x2="547.1" y2="665.8"/>
    <line class="st1" x1="635.9" y1="608.8" x2="635.9" y2="665.8"/>
    <line class="st1" x1="724.6" y1="608.8" x2="724.6" y2="665.8"/>
    <line class="st1" x1="813.4" y1="608.8" x2="813.4" y2="665.8"/>
    <line class="st1" x1="902.1" y1="608.8" x2="902.1" y2="665.8"/>
    <line class="st1" x1="990.9" y1="608.8" x2="990.9" y2="665.8"/>
    <line class="st1" x1="1079.6" y1="608.8" x2="1079.6" y2="665.8"/>
    <line class="st1" x1="1168.4" y1="608.8" x2="1168.4" y2="665.8"/>
    <line class="st1" x1="1257.1" y1="608.8" x2="1257.1" y2="665.8"/>
    <line class="st1" x1="1345.8" y1="608.8" x2="1345.8" y2="665.8"/>
    <line class="st1" x1="1434.6" y1="608.8" x2="1434.6" y2="665.8"/>
    <line class="st1" x1="280.9" y1="608.8" x2="280.9" y2="665.8"/>
    <line class="st1" x1="1523.3" y1="608.8" x2="1523.3" y2="665.8"/>
    <line class="st1" x1="280.4" y1="609.3" x2="1523.8" y2="609.3"/>
    <line class="st1" x1="280.4" y1="665.3" x2="1523.8" y2="665.3"/>
  </g>
  <g class="st39">
    <text class="st8" transform="translate(1537.9 654.6)"><tspan x="0" y="0">OFDM Symbols</tspan></text>
    <text class="st6" transform="translate(1126.2 704.2)"><tspan x="0" y="0">Each Slot consists of 14 OFDM Symbols</tspan></text>
    <text class="st6" transform="translate(1312 432.5)"><tspan x="0" y="0">Number of slots depends on subcarrier </tspan></text>
    <text class="st6" transform="translate(1312 461.4)"><tspan x="0" y="0">spacing.</tspan></text>
  </g>
  <g class="st40">
    <rect class="st68" x="603.9" y="779.3" width="154.1" height="56"/>
    <rect class="st65" x="758" y="779.3" width="444.6" height="56"/>
  </g>
  <g class="st41">
    <rect class="st25" x="608.4" y="788.8" width="145.1" height="38"/>
    <text class="st5" transform="translate(659 819.1)"><tspan x="0" y="0">CP</tspan></text>
  </g>
  <g class="st42">
    <rect class="st25" x="762.5" y="788.8" width="435.6" height="38"/>
    <text class="st5" transform="translate(933.7 819.1)"><tspan x="0" y="0">OFDM</tspan></text>
  </g>
  <g class="st44">
    <line class="st1" x1="758" y1="778.8" x2="758" y2="835.8"/>
    <line class="st1" x1="603.9" y1="778.8" x2="603.9" y2="835.8"/>
    <line class="st1" x1="1202.6" y1="778.8" x2="1202.6" y2="835.8"/>
    <line class="st1" x1="603.4" y1="779.3" x2="1203.1" y2="779.3"/>
    <line class="st1" x1="603.4" y1="835.3" x2="1203.1" y2="835.3"/>
  </g>
  <g class="st45">
    <polygon class="st27" points="1200.4 780.6 606.6 780.2 906.6 663.5 994.4 663.8 1200.4 780.6"/>
    <text class="st7" transform="translate(579.8 865.7)"><tspan x="0" y="0">Cyclic P</tspan><tspan class="st66" x="110" y="0">r</tspan><tspan x="119.4" y="0">e</tspan></text>
    <text class="st7" transform="translate(715.4 865.7)"><tspan x="0" y="0">ﬁ</tspan></text>
    <text class="st7" transform="translate(730.9 865.7)"><tspan x="0" y="0">x</tspan></text>
    <text class="st7" transform="translate(781.5 871.9)"><tspan x="0" y="0">OFDM Symbol (The actual data to be transmitted)</tspan></text>
  </g>
</svg>