<?xml version="1.0" encoding="UTF-8"?>
<svg id="Ebene_1" xmlns="http://www.w3.org/2000/svg" xmlns:xlink="http://www.w3.org/1999/xlink" version="1.1" viewBox="0 0 1388.8 814.4">
  <!-- Generator: Adobe Illustrator 29.4.0, SVG Export Plug-In . SVG Version: 2.1.0 Build 152)  -->
  <defs>
    <style>
      .st0, .st1 {
        fill: none;
      }

      .st2 {
        font-family: HelveticaNeue, 'Helvetica Neue';
        font-size: 20px;
      }

      .st3 {
        fill: #0076ba;
      }

      .st4 {
        clip-path: url(#clippath-17);
      }

      .st5 {
        clip-path: url(#clippath-19);
      }

      .st6 {
        clip-path: url(#clippath-11);
      }

      .st7 {
        clip-path: url(#clippath-16);
      }

      .st8 {
        clip-path: url(#clippath-18);
      }

      .st9 {
        clip-path: url(#clippath-10);
      }

      .st10 {
        clip-path: url(#clippath-15);
      }

      .st11 {
        clip-path: url(#clippath-13);
      }

      .st12 {
        clip-path: url(#clippath-14);
      }

      .st13 {
        clip-path: url(#clippath-12);
      }

      .st14 {
        clip-path: url(#clippath-60);
      }

      .st15 {
        clip-path: url(#clippath-50);
      }

      .st16 {
        clip-path: url(#clippath-55);
      }

      .st17 {
        clip-path: url(#clippath-52);
      }

      .st18 {
        clip-path: url(#clippath-57);
      }

      .st19 {
        clip-path: url(#clippath-54);
      }

      .st20 {
        clip-path: url(#clippath-56);
      }

      .st21 {
        clip-path: url(#clippath-53);
      }

      .st22 {
        clip-path: url(#clippath-51);
      }

      .st23 {
        clip-path: url(#clippath-58);
      }

      .st24 {
        clip-path: url(#clippath-59);
      }

      .st25 {
        clip-path: url(#clippath-31);
      }

      .st26 {
        clip-path: url(#clippath-32);
      }

      .st27 {
        clip-path: url(#clippath-33);
      }

      .st28 {
        clip-path: url(#clippath-34);
      }

      .st29 {
        clip-path: url(#clippath-35);
      }

      .st30 {
        clip-path: url(#clippath-39);
      }

      .st31 {
        clip-path: url(#clippath-30);
      }

      .st32 {
        clip-path: url(#clippath-36);
      }

      .st33 {
        clip-path: url(#clippath-37);
      }

      .st34 {
        clip-path: url(#clippath-38);
      }

      .st35 {
        clip-path: url(#clippath-27);
      }

      .st36 {
        clip-path: url(#clippath-29);
      }

      .st37 {
        clip-path: url(#clippath-26);
      }

      .st38 {
        clip-path: url(#clippath-28);
      }

      .st39 {
        clip-path: url(#clippath-20);
      }

      .st40 {
        clip-path: url(#clippath-21);
      }

      .st41 {
        clip-path: url(#clippath-22);
      }

      .st42 {
        clip-path: url(#clippath-23);
      }

      .st43 {
        clip-path: url(#clippath-24);
      }

      .st44 {
        clip-path: url(#clippath-25);
      }

      .st45 {
        clip-path: url(#clippath-41);
      }

      .st46 {
        clip-path: url(#clippath-42);
      }

      .st47 {
        clip-path: url(#clippath-43);
      }

      .st48 {
        clip-path: url(#clippath-44);
      }

      .st49 {
        clip-path: url(#clippath-45);
      }

      .st50 {
        clip-path: url(#clippath-49);
      }

      .st51 {
        clip-path: url(#clippath-40);
      }

      .st52 {
        clip-path: url(#clippath-46);
      }

      .st53 {
        clip-path: url(#clippath-47);
      }

      .st54 {
        clip-path: url(#clippath-48);
      }

      .st55 {
        clip-path: url(#clippath-1);
      }

      .st56 {
        clip-path: url(#clippath-3);
      }

      .st57 {
        clip-path: url(#clippath-4);
      }

      .st58 {
        clip-path: url(#clippath-2);
      }

      .st59 {
        clip-path: url(#clippath-7);
      }

      .st60 {
        clip-path: url(#clippath-6);
      }

      .st61 {
        clip-path: url(#clippath-9);
      }

      .st62 {
        clip-path: url(#clippath-8);
      }

      .st63 {
        clip-path: url(#clippath-5);
      }

      .st64 {
        fill: #fff;
      }

      .st1 {
        stroke: #000;
        stroke-dasharray: 0 9;
        stroke-dashoffset: .5px;
        stroke-linecap: round;
        stroke-width: 3px;
      }

      .st65 {
        fill: #00a1a3;
      }
    </style>
    <clipPath id="clippath-1">
      <rect class="st0" x="323" y="106.5" width="73.3" height="56" transform="translate(56.2 369.8) rotate(-58.3)"/>
    </clipPath>
    <clipPath id="clippath-2">
      <rect class="st0" x="-267.8" width="2200" height="1080"/>
    </clipPath>
    <clipPath id="clippath-3">
      <rect class="st0" x="313.9" y="135" width="37.6" height="9.1" transform="translate(39.1 349.2) rotate(-58.3)"/>
    </clipPath>
    <clipPath id="clippath-4">
      <rect class="st0" x="-267.8" width="2200" height="1080"/>
    </clipPath>
    <clipPath id="clippath-5">
      <rect class="st0" x="-267.8" width="2200" height="1080"/>
    </clipPath>
    <clipPath id="clippath-6">
      <rect class="st0" x="989" y="93.9" width="73.3" height="56" transform="translate(354.3 906.8) rotate(-56.2)"/>
    </clipPath>
    <clipPath id="clippath-7">
      <rect class="st0" x="-267.8" width="2200" height="1080"/>
    </clipPath>
    <clipPath id="clippath-8">
      <rect class="st0" x="1034" y="113.3" width="37.6" height="9.1" transform="translate(369.7 927.6) rotate(-56.2)"/>
    </clipPath>
    <clipPath id="clippath-9">
      <rect class="st0" x="-267.8" width="2200" height="1080"/>
    </clipPath>
    <clipPath id="clippath-10">
      <rect class="st0" x="-267.8" width="2200" height="1080"/>
    </clipPath>
    <clipPath id="clippath-11">
      <rect class="st0" x="330.7" y="340.4" width="73.3" height="56" transform="translate(-139.1 487.3) rotate(-58.3)"/>
    </clipPath>
    <clipPath id="clippath-12">
      <rect class="st0" x="-267.8" width="2200" height="1080"/>
    </clipPath>
    <clipPath id="clippath-13">
      <rect class="st0" x="321.6" y="368.8" width="37.6" height="9.1" transform="translate(-156.1 466.7) rotate(-58.3)"/>
    </clipPath>
    <clipPath id="clippath-14">
      <rect class="st0" x="-267.8" width="2200" height="1080"/>
    </clipPath>
    <clipPath id="clippath-15">
      <rect class="st0" x="-267.8" width="2200" height="1080"/>
    </clipPath>
    <clipPath id="clippath-16">
      <rect class="st0" x="994.3" y="278" width="73.3" height="56" transform="translate(203.6 993) rotate(-56.2)"/>
    </clipPath>
    <clipPath id="clippath-17">
      <rect class="st0" x="-267.8" width="2200" height="1080"/>
    </clipPath>
    <clipPath id="clippath-18">
      <rect class="st0" x="1039.3" y="297.5" width="37.6" height="9.1" transform="translate(218.9 1013.8) rotate(-56.2)"/>
    </clipPath>
    <clipPath id="clippath-19">
      <rect class="st0" x="-267.8" width="2200" height="1080"/>
    </clipPath>
    <clipPath id="clippath-20">
      <rect class="st0" x="-267.8" width="2200" height="1080"/>
    </clipPath>
    <clipPath id="clippath-21">
      <rect class="st0" x="994.3" y="358" width="73.3" height="56" transform="translate(137.1 1028.5) rotate(-56.2)"/>
    </clipPath>
    <clipPath id="clippath-22">
      <rect class="st0" x="-267.8" width="2200" height="1080"/>
    </clipPath>
    <clipPath id="clippath-23">
      <rect class="st0" x="1039.3" y="377.4" width="37.6" height="9.1" transform="translate(152.5 1049.3) rotate(-56.2)"/>
    </clipPath>
    <clipPath id="clippath-24">
      <rect class="st0" x="-267.8" width="2200" height="1080"/>
    </clipPath>
    <clipPath id="clippath-25">
      <rect class="st0" x="-267.8" width="2200" height="1080"/>
    </clipPath>
    <clipPath id="clippath-26">
      <rect class="st0" x="331.1" y="538.4" width="73.3" height="56" transform="translate(-307.5 581.6) rotate(-58.3)"/>
    </clipPath>
    <clipPath id="clippath-27">
      <rect class="st0" x="-267.8" width="2200" height="1080"/>
    </clipPath>
    <clipPath id="clippath-28">
      <rect class="st0" x="321.9" y="566.9" width="37.6" height="9.1" transform="translate(-324.5 561) rotate(-58.3)"/>
    </clipPath>
    <clipPath id="clippath-29">
      <rect class="st0" x="-267.8" width="2200" height="1080"/>
    </clipPath>
    <clipPath id="clippath-30">
      <rect class="st0" x="-267.8" width="2200" height="1080"/>
    </clipPath>
    <clipPath id="clippath-31">
      <rect class="st0" x="994.3" y="503.1" width="73.3" height="56" transform="translate(16.4 1093) rotate(-56.2)"/>
    </clipPath>
    <clipPath id="clippath-32">
      <rect class="st0" x="-267.8" width="2200" height="1080"/>
    </clipPath>
    <clipPath id="clippath-33">
      <rect class="st0" x="1039.3" y="522.5" width="37.6" height="9.1" transform="translate(31.8 1113.8) rotate(-56.2)"/>
    </clipPath>
    <clipPath id="clippath-34">
      <rect class="st0" x="-267.8" width="2200" height="1080"/>
    </clipPath>
    <clipPath id="clippath-35">
      <rect class="st0" x="-267.8" width="2200" height="1080"/>
    </clipPath>
    <clipPath id="clippath-36">
      <rect class="st0" x="330.7" y="461.7" width="73.3" height="56" transform="translate(-242.3 544.9) rotate(-58.3)"/>
    </clipPath>
    <clipPath id="clippath-37">
      <rect class="st0" x="-267.8" width="2200" height="1080"/>
    </clipPath>
    <clipPath id="clippath-38">
      <rect class="st0" x="321.6" y="490.1" width="37.6" height="9.1" transform="translate(-259.3 524.3) rotate(-58.3)"/>
    </clipPath>
    <clipPath id="clippath-39">
      <rect class="st0" x="-267.8" width="2200" height="1080"/>
    </clipPath>
    <clipPath id="clippath-40">
      <rect class="st0" x="-267.8" width="2200" height="1080"/>
    </clipPath>
    <clipPath id="clippath-41">
      <rect class="st0" x="331.1" y="729.7" width="73.3" height="56" transform="translate(-470.2 672.4) rotate(-58.3)"/>
    </clipPath>
    <clipPath id="clippath-42">
      <rect class="st0" x="-267.8" width="2200" height="1080"/>
    </clipPath>
    <clipPath id="clippath-43">
      <rect class="st0" x="321.9" y="758.1" width="37.6" height="9.1" transform="translate(-487.2 651.8) rotate(-58.3)"/>
    </clipPath>
    <clipPath id="clippath-44">
      <rect class="st0" x="-267.8" width="2200" height="1080"/>
    </clipPath>
    <clipPath id="clippath-45">
      <rect class="st0" x="-267.8" width="2200" height="1080"/>
    </clipPath>
    <clipPath id="clippath-46">
      <rect class="st0" x="330.7" y="652.9" width="73.3" height="56" transform="translate(-405 635.6) rotate(-58.3)"/>
    </clipPath>
    <clipPath id="clippath-47">
      <rect class="st0" x="-267.8" width="2200" height="1080"/>
    </clipPath>
    <clipPath id="clippath-48">
      <rect class="st0" x="321.6" y="681.4" width="37.6" height="9.1" transform="translate(-422.1 615) rotate(-58.3)"/>
    </clipPath>
    <clipPath id="clippath-49">
      <rect class="st0" x="-267.8" width="2200" height="1080"/>
    </clipPath>
    <clipPath id="clippath-50">
      <rect class="st0" x="-267.8" width="2200" height="1080"/>
    </clipPath>
    <clipPath id="clippath-51">
      <rect class="st0" x="992.2" y="660.4" width="73.3" height="56" transform="translate(-115.2 1161.1) rotate(-56.2)"/>
    </clipPath>
    <clipPath id="clippath-52">
      <rect class="st0" x="-267.8" width="2200" height="1080"/>
    </clipPath>
    <clipPath id="clippath-53">
      <rect class="st0" x="1037.2" y="679.8" width="37.6" height="9.1" transform="translate(-99.9 1181.9) rotate(-56.2)"/>
    </clipPath>
    <clipPath id="clippath-54">
      <rect class="st0" x="-267.8" width="2200" height="1080"/>
    </clipPath>
    <clipPath id="clippath-55">
      <rect class="st0" x="-267.8" width="2200" height="1080"/>
    </clipPath>
    <clipPath id="clippath-56">
      <rect class="st0" x="992.2" y="740.3" width="73.3" height="56" transform="translate(-181.7 1196.6) rotate(-56.2)"/>
    </clipPath>
    <clipPath id="clippath-57">
      <rect class="st0" x="-267.8" width="2200" height="1080"/>
    </clipPath>
    <clipPath id="clippath-58">
      <rect class="st0" x="1037.2" y="759.8" width="37.6" height="9.1" transform="translate(-166.4 1217.4) rotate(-56.2)"/>
    </clipPath>
    <clipPath id="clippath-59">
      <rect class="st0" x="-267.8" width="2200" height="1080"/>
    </clipPath>
    <clipPath id="clippath-60">
      <rect class="st0" x="-267.8" width="2200" height="1080"/>
    </clipPath>
  </defs>
  <g class="st55">
    <g class="st58">
      <path class="st65" d="M385.1,127v1.2s-26.9,19.3-26.9,19.3v-13.4c.1,0,26.9-7.1,26.9-7.1ZM358.6,102.9l26.5,19.7v2.1s-26.8,7.1-26.8,7.1l.3-28.9ZM358.7,92.1s-17.1,8.8-17.8,32.2l-2.1-1.3-18.2,29.4,5.4,3.4,15.1-24.5c2.4,19.6,16.8,27.4,16.8,27.4v-8.4c0,0,28.6-20.5,28.6-20.5l8.5-1.3v-5.8s-8.3-1.4-8.3-1.4l-28.3-21v-8.1Z"/>
    </g>
  </g>
  <g class="st56">
    <g class="st57">
      <rect class="st64" x="314.9" y="136" width="35.6" height="7.1" transform="translate(39.1 349.2) rotate(-58.3)"/>
    </g>
  </g>
  <g class="st63">
    <text class="st2" transform="translate(663.8 118.3)"><tspan x="0" y="0">SISO</tspan></text>
    <text class="st2" transform="translate(566.9 139.9)"><tspan x="0" y="0">Single Input, Single Output</tspan></text>
    <path class="st3" d="M297.5,208.8l3.3,12.9-14.1-7.3,10.8-5.6ZM272.5,208.8l10.8,5.6-14.1,7.3,3.3-12.9ZM273.4,207.5h23.1l-11.5,6-11.5-6ZM285,197.4l11,8.6h-22.1l11-8.6ZM292.9,191.2l3.4,13-10-7.8,6.7-5.2ZM277,191.2l6.7,5.2-10,7.8,3.3-13ZM278.4,190.3h13.1l-6.5,5.1-6.5-5.1ZM285,180.2l6.6,8.5h-13.1l6.6-8.5ZM288.8,175.2l2.9,11.2-5.8-7.5,2.9-3.7ZM281.1,175.2l2.9,3.7-5.8,7.5,2.9-11.2ZM282.2,174.1h5.5l-2.8,3.6-2.8-3.6ZM285,160.1l3.2,12.4h-6.4l3.2-12.4ZM285,145.1c-2.3,0-4.2,1.9-4.2,4.2s.7,2.6,1.7,3.4l-18.3,71.2h4.3l16.4-8.5,16.4,8.5h4.3l-18.3-71.2c1-.8,1.7-2,1.7-3.4,0-2.3-1.9-4.2-4.2-4.2ZM285,133.3c-8.8,0-15.9,7.1-15.9,15.9s2.8,10.3,6.9,13.1l.9-3.4c-2.8-2.3-4.5-5.8-4.5-9.7,0-7,5.7-12.6,12.6-12.6s12.6,5.7,12.6,12.6c0,3.9-1.8,7.4-4.5,9.7l.9,3.4c4.2-2.9,6.9-7.7,6.9-13.1,0-8.8-7.1-15.9-15.9-15.9ZM285,121.5c-15.3,0-27.8,12.5-27.8,27.8s6.4,20.5,15.7,25l.8-3.2c-7.9-4.1-13.3-12.3-13.3-21.8,0-13.5,11-24.5,24.5-24.5s24.5,11,24.5,24.5-5.4,17.7-13.3,21.8l.8,3.2c9.3-4.5,15.7-14,15.7-25,0-15.3-12.5-27.8-27.8-27.8ZM285,109.4c-21.9,0-39.7,17.8-39.7,39.7s9.8,30.4,24.7,36.6l.7-3c-13.6-5.7-22.1-18.9-22.1-33.6s16.3-36.4,36.4-36.4c20.1,0,36.4,16.3,36.4,36.4s-8.6,28-22.2,33.7l.7,3c14.9-6.2,24.8-20.6,24.8-36.7s-17.8-39.7-39.7-39.7Z"/>
    <path class="st3" d="M1074.5,140.7h50.4v89.4h-50.4v-89.4ZM1095.2,131.9h9c.8,0,1.4.6,1.4,1.4s-.6,1.4-1.4,1.4h-9c-.8,0-1.4-.6-1.4-1.4s.6-1.4,1.4-1.4ZM1076.1,124.4c-3.1,0-5.6,2.5-5.6,5.6v109c0,3.1,2.5,5.6,5.6,5.6h47.2c3.1,0,5.6-2.5,5.6-5.6v-109c0-3.1-2.5-5.6-5.6-5.6h-47.2Z"/>
  </g>
  <g class="st60">
    <g class="st59">
      <path class="st65" d="M1000,128.5v-1.2c0,0,27.6-18.3,27.6-18.3l-.6,13.4-27,6.1ZM1025.6,153.5l-25.8-20.6v-2.1c0,0,27.1-6.1,27.1-6.1l-1.3,28.9ZM1025.1,164.3s17.4-8.2,18.9-31.5l2,1.3,19.2-28.7-5.3-3.6-16,23.9c-1.7-19.7-15.8-28-15.8-28l-.4,8.4-29.3,19.5-8.5,1-.3,5.8,8.2,1.7,27.5,22-.4,8.1Z"/>
    </g>
  </g>
  <g class="st62">
    <g class="st61">
      <rect class="st64" x="1035" y="114.3" width="35.6" height="7.1" transform="translate(369.7 927.6) rotate(-56.2)"/>
    </g>
  </g>
  <g class="st9">
    <polyline class="st1" points="436 121.6 502.1 121.6 503.6 121.6"/>
    <polygon points="502.1 128.2 515.3 121.6 502.1 115 502.1 128.2"/>
    <polyline class="st1" points="860.7 121.6 926.9 121.6 928.4 121.6"/>
    <polygon points="926.9 128.2 940.1 121.6 926.9 115 926.9 128.2"/>
  </g>
  <g class="st6">
    <g class="st13">
      <path class="st65" d="M392.8,360.8v1.2s-26.9,19.3-26.9,19.3v-13.4c.1,0,26.9-7.1,26.9-7.1ZM366.3,336.7l26.5,19.7v2.1s-26.8,7.1-26.8,7.1l.3-28.9ZM366.4,325.9s-17.1,8.8-17.8,32.2l-2.1-1.3-18.2,29.4,5.4,3.4,15.1-24.5c2.4,19.6,16.8,27.4,16.8,27.4v-8.4c0,0,28.6-20.5,28.6-20.5l8.5-1.3v-5.8s-8.3-1.4-8.3-1.4l-28.3-21v-8.1Z"/>
    </g>
  </g>
  <g class="st11">
    <g class="st12">
      <rect class="st64" x="322.6" y="369.8" width="35.6" height="7.1" transform="translate(-156.1 466.7) rotate(-58.3)"/>
    </g>
  </g>
  <g class="st10">
    <text class="st2" transform="translate(667 347.4)"><tspan x="0" y="0">SIMO</tspan></text>
    <text class="st2" transform="translate(564.6 369)"><tspan x="0" y="0">Single Input, Multiple Output</tspan></text>
    <path class="st3" d="M302.7,392.9l3.3,12.9-14.1-7.3,10.8-5.6ZM277.8,392.9l10.8,5.6-14.1,7.3,3.3-12.9ZM278.7,391.7h23.1l-11.5,6-11.5-6ZM290.2,381.5l11,8.6h-22.1l11-8.6ZM298.2,375.3l3.4,13-10-7.8,6.7-5.2ZM282.3,375.3l6.7,5.2-10,7.8,3.3-13ZM283.7,374.4h13.1l-6.5,5.1-6.5-5.1ZM290.2,364.4l6.6,8.5h-13.1l6.6-8.5ZM294.1,359.4l2.9,11.2-5.8-7.5,2.9-3.7ZM286.4,359.4l2.9,3.7-5.8,7.5,2.9-11.2ZM287.5,358.2h5.5l-2.8,3.6-2.8-3.6ZM290.2,344.3l3.2,12.4h-6.4l3.2-12.4ZM290.2,329.2c-2.3,0-4.2,1.9-4.2,4.2s.7,2.6,1.7,3.4l-18.3,71.2h4.3l16.4-8.5,16.4,8.5h4.3l-18.3-71.2c1-.8,1.7-2,1.7-3.4,0-2.3-1.9-4.2-4.2-4.2ZM290.2,317.5c-8.8,0-15.9,7.1-15.9,15.9s2.8,10.3,6.9,13.1l.9-3.4c-2.8-2.3-4.5-5.8-4.5-9.7,0-7,5.7-12.6,12.6-12.6s12.6,5.7,12.6,12.6c0,3.9-1.8,7.4-4.5,9.7l.9,3.4c4.2-2.9,6.9-7.7,6.9-13.1,0-8.8-7.1-15.9-15.9-15.9ZM290.2,305.6c-15.3,0-27.8,12.5-27.8,27.8s6.4,20.5,15.7,25l.8-3.2c-7.9-4.1-13.3-12.3-13.3-21.8,0-13.5,11-24.5,24.5-24.5s24.5,11,24.5,24.5-5.4,17.7-13.3,21.8l.8,3.2c9.3-4.5,15.7-14,15.7-25,0-15.3-12.5-27.8-27.8-27.8ZM290.3,293.6c-21.9,0-39.7,17.8-39.7,39.7s9.8,30.4,24.7,36.6l.7-3c-13.6-5.7-22.1-18.9-22.1-33.6s16.3-36.4,36.4-36.4,36.4,16.3,36.4,36.4-8.6,28-22.2,33.7l.7,3c14.9-6.2,24.8-20.6,24.8-36.7s-17.8-39.7-39.7-39.7Z"/>
    <path class="st3" d="M1079.8,324.8h50.4v89.4h-50.4v-89.4ZM1100.5,316h9c.8,0,1.4.6,1.4,1.4s-.6,1.4-1.4,1.4h-9c-.8,0-1.4-.6-1.4-1.4s.6-1.4,1.4-1.4ZM1081.4,308.5c-3.1,0-5.6,2.5-5.6,5.6v109c0,3.1,2.5,5.6,5.6,5.6h47.2c3.1,0,5.6-2.5,5.6-5.6v-109c0-3.1-2.5-5.6-5.6-5.6h-47.2Z"/>
  </g>
  <g class="st7">
    <g class="st4">
      <path class="st65" d="M1005.2,312.6v-1.2c0,0,27.6-18.3,27.6-18.3l-.6,13.4-27,6.1ZM1030.8,337.7l-25.8-20.6v-2.1c0,0,27.1-6.1,27.1-6.1l-1.3,28.9ZM1030.3,348.5s17.4-8.2,18.9-31.5l2,1.3,19.2-28.7-5.3-3.6-16,23.9c-1.7-19.7-15.8-28-15.8-28l-.4,8.4-29.3,19.5-8.5,1-.3,5.8,8.2,1.7,27.5,22-.4,8.1Z"/>
    </g>
  </g>
  <g class="st8">
    <g class="st5">
      <rect class="st64" x="1040.3" y="298.5" width="35.6" height="7.1" transform="translate(219 1013.8) rotate(-56.2)"/>
    </g>
  </g>
  <g class="st39">
    <polyline class="st1" points="443.7 355.5 509.8 355.5 511.3 355.5"/>
    <polygon points="509.8 362.1 523 355.5 509.8 348.9 509.8 362.1"/>
    <polyline class="st1" points="866 305.8 932.1 305.8 933.6 305.8"/>
    <polygon points="932.1 312.4 945.3 305.8 932.1 299.2 932.1 312.4"/>
  </g>
  <g class="st40">
    <g class="st41">
      <path class="st65" d="M1005.2,392.6v-1.2c0,0,27.6-18.3,27.6-18.3l-.6,13.4-27,6.1ZM1030.8,417.6l-25.8-20.6v-2.1c0,0,27.1-6.1,27.1-6.1l-1.3,28.9ZM1030.3,428.5s17.4-8.2,18.9-31.5l2,1.3,19.2-28.7-5.3-3.6-16,23.9c-1.7-19.7-15.8-28-15.8-28l-.4,8.4-29.3,19.5-8.5,1-.3,5.8,8.2,1.7,27.5,22-.4,8.1Z"/>
    </g>
  </g>
  <g class="st42">
    <g class="st43">
      <rect class="st64" x="1040.3" y="378.4" width="35.6" height="7.1" transform="translate(152.5 1049.3) rotate(-56.2)"/>
    </g>
  </g>
  <g class="st44">
    <polyline class="st1" points="866 385.8 932.1 385.8 933.6 385.8"/>
    <polygon points="932.1 392.4 945.3 385.8 932.1 379.2 932.1 392.4"/>
  </g>
  <g class="st37">
    <g class="st35">
      <path class="st65" d="M393.2,558.9v1.2s-26.9,19.3-26.9,19.3v-13.4c.1,0,26.9-7.1,26.9-7.1ZM366.7,534.8l26.5,19.7v2.1s-26.8,7.1-26.8,7.1l.3-28.9ZM366.8,524s-17.1,8.8-17.8,32.2l-2.1-1.3-18.2,29.4,5.4,3.4,15.1-24.5c2.4,19.6,16.8,27.4,16.8,27.4v-8.4c0,0,28.6-20.5,28.6-20.5l8.5-1.3v-5.8s-8.3-1.4-8.3-1.4l-28.3-21v-8.1Z"/>
    </g>
  </g>
  <g class="st38">
    <g class="st36">
      <rect class="st64" x="322.9" y="567.9" width="35.6" height="7.1" transform="translate(-324.5 561) rotate(-58.3)"/>
    </g>
  </g>
  <g class="st31">
    <text class="st2" transform="translate(667 531.5)"><tspan x="0" y="0">MISO</tspan></text>
    <text class="st2" transform="translate(564.6 553.2)"><tspan x="0" y="0">Multiple Input, Single Output</tspan></text>
    <path class="st3" d="M302.7,577.1l3.3,12.9-14.1-7.3,10.8-5.6ZM277.8,577.1l10.8,5.6-14.1,7.3,3.3-12.9ZM278.7,575.8h23.1l-11.5,6-11.5-6ZM290.2,565.6l11,8.6h-22.1l11-8.6ZM298.2,559.4l3.4,13-10-7.8,6.7-5.2ZM282.3,559.4l6.7,5.2-10,7.8,3.3-13ZM283.7,558.6h13.1l-6.5,5.1-6.5-5.1ZM290.2,548.5l6.6,8.5h-13.1l6.6-8.5ZM294.1,543.5l2.9,11.2-5.8-7.5,2.9-3.7ZM286.4,543.5l2.9,3.7-5.8,7.5,2.9-11.2ZM287.5,542.4h5.5l-2.8,3.6-2.8-3.6ZM290.2,528.4l3.2,12.4h-6.4l3.2-12.4ZM290.2,513.3c-2.3,0-4.2,1.9-4.2,4.2s.7,2.6,1.7,3.4l-18.3,71.2h4.3l16.4-8.5,16.4,8.5h4.3l-18.3-71.2c1-.8,1.7-2,1.7-3.4,0-2.3-1.9-4.2-4.2-4.2ZM290.2,501.6c-8.8,0-15.9,7.1-15.9,15.9s2.8,10.3,6.9,13.1l.9-3.4c-2.8-2.3-4.5-5.8-4.5-9.7,0-7,5.7-12.6,12.6-12.6s12.6,5.7,12.6,12.6c0,3.9-1.8,7.4-4.5,9.7l.9,3.4c4.2-2.9,6.9-7.7,6.9-13.1,0-8.8-7.1-15.9-15.9-15.9ZM290.2,489.7c-15.3,0-27.8,12.5-27.8,27.8s6.4,20.5,15.7,25l.8-3.2c-7.9-4.1-13.3-12.3-13.3-21.8,0-13.5,11-24.5,24.5-24.5s24.5,11,24.5,24.5-5.4,17.7-13.3,21.8l.8,3.2c9.3-4.5,15.7-14,15.7-25,0-15.3-12.5-27.8-27.8-27.8ZM290.3,477.7c-21.9,0-39.7,17.8-39.7,39.7s9.8,30.4,24.7,36.6l.7-3c-13.6-5.7-22.1-18.9-22.1-33.6s16.3-36.4,36.4-36.4,36.4,16.3,36.4,36.4-8.6,28-22.2,33.7l.7,3c14.9-6.2,24.8-20.6,24.8-36.7s-17.8-39.7-39.7-39.7Z"/>
    <path class="st3" d="M1079.8,508.9h50.4v89.4h-50.4v-89.4ZM1100.5,500.2h9c.8,0,1.4.6,1.4,1.4s-.6,1.4-1.4,1.4h-9c-.8,0-1.4-.6-1.4-1.4s.6-1.4,1.4-1.4ZM1081.4,492.6c-3.1,0-5.6,2.5-5.6,5.6v109c0,3.1,2.5,5.6,5.6,5.6h47.2c3.1,0,5.6-2.5,5.6-5.6v-109c0-3.1-2.5-5.6-5.6-5.6h-47.2Z"/>
    <polyline class="st1" points="443.7 561.7 509.8 561.7 511.3 561.7"/>
    <polygon points="509.8 568.3 523 561.7 509.8 555.1 509.8 568.3"/>
  </g>
  <g class="st25">
    <g class="st26">
      <path class="st65" d="M1005.2,537.7v-1.2c0,0,27.6-18.3,27.6-18.3l-.6,13.4-27,6.1ZM1030.8,562.8l-25.8-20.6v-2.1c0,0,27.1-6.1,27.1-6.1l-1.3,28.9ZM1030.3,573.6s17.4-8.2,18.9-31.5l2,1.3,19.2-28.7-5.3-3.6-16,23.9c-1.7-19.7-15.8-28-15.8-28l-.4,8.4-29.3,19.5-8.5,1-.3,5.8,8.2,1.7,27.5,22-.4,8.1Z"/>
    </g>
  </g>
  <g class="st27">
    <g class="st28">
      <rect class="st64" x="1040.3" y="523.5" width="35.6" height="7.1" transform="translate(31.8 1113.8) rotate(-56.2)"/>
    </g>
  </g>
  <g class="st29">
    <polyline class="st1" points="877.2 534.9 943.4 534.9 944.9 534.9"/>
    <polygon points="943.4 541.5 956.6 534.9 943.4 528.3 943.4 541.5"/>
  </g>
  <g class="st32">
    <g class="st33">
      <path class="st65" d="M392.8,482.1v1.2s-26.9,19.3-26.9,19.3v-13.4c.1,0,26.9-7.1,26.9-7.1ZM366.3,458l26.5,19.7v2.1s-26.8,7.1-26.8,7.1l.3-28.9ZM366.4,447.2s-17.1,8.8-17.8,32.2l-2.1-1.3-18.2,29.4,5.4,3.4,15.1-24.5c2.4,19.6,16.8,27.4,16.8,27.4v-8.4c0,0,28.6-20.5,28.6-20.5l8.5-1.3v-5.8s-8.3-1.4-8.3-1.4l-28.3-21v-8.1Z"/>
    </g>
  </g>
  <g class="st34">
    <g class="st30">
      <rect class="st64" x="322.6" y="491.1" width="35.6" height="7.1" transform="translate(-259.3 524.3) rotate(-58.3)"/>
    </g>
  </g>
  <g class="st51">
    <polyline class="st1" points="443.7 480.4 509.8 480.4 511.3 480.4"/>
    <polygon points="509.8 487 523 480.4 509.8 473.8 509.8 487"/>
  </g>
  <g class="st45">
    <g class="st46">
      <path class="st65" d="M393.2,750.2v1.2s-26.9,19.3-26.9,19.3v-13.4c.1,0,26.9-7.1,26.9-7.1ZM366.7,726.1l26.5,19.7v2.1s-26.8,7.1-26.8,7.1l.3-28.9ZM366.8,715.3s-17.1,8.8-17.8,32.2l-2.1-1.3-18.2,29.4,5.4,3.4,15.1-24.5c2.4,19.6,16.8,27.4,16.8,27.4v-8.4c0,0,28.6-20.5,28.6-20.5l8.5-1.3v-5.8s-8.3-1.4-8.3-1.4l-28.3-21v-8.1Z"/>
    </g>
  </g>
  <g class="st47">
    <g class="st48">
      <rect class="st64" x="322.9" y="759.1" width="35.6" height="7.1" transform="translate(-487.2 651.8) rotate(-58.3)"/>
    </g>
  </g>
  <g class="st49">
    <text class="st2" transform="translate(664.8 715.6)"><tspan x="0" y="0">MIMO</tspan></text>
    <text class="st2" transform="translate(556.8 737.3)"><tspan x="0" y="0">Multiple Input, Multiple Output</tspan></text>
    <path class="st3" d="M302.7,768.3l3.3,12.9-14.1-7.3,10.8-5.6ZM277.8,768.3l10.8,5.6-14.1,7.3,3.3-12.9ZM278.7,767.1h23.1l-11.5,6-11.5-6ZM290.2,756.9l11,8.6h-22.1l11-8.6ZM298.2,750.7l3.4,13-10-7.8,6.7-5.2ZM282.3,750.7l6.7,5.2-10,7.8,3.3-13ZM283.7,749.8h13.1l-6.5,5.1-6.5-5.1ZM290.2,739.8l6.6,8.5h-13.1l6.6-8.5ZM294.1,734.8l2.9,11.2-5.8-7.5,2.9-3.7ZM286.4,734.8l2.9,3.7-5.8,7.5,2.9-11.2ZM287.5,733.6h5.5l-2.8,3.6-2.8-3.6ZM290.2,719.7l3.2,12.4h-6.4l3.2-12.4ZM290.2,704.6c-2.3,0-4.2,1.9-4.2,4.2s.7,2.6,1.7,3.4l-18.3,71.2h4.3l16.4-8.5,16.4,8.5h4.3l-18.3-71.2c1-.8,1.7-2,1.7-3.4,0-2.3-1.9-4.2-4.2-4.2ZM290.2,692.9c-8.8,0-15.9,7.1-15.9,15.9s2.8,10.3,6.9,13.1l.9-3.4c-2.8-2.3-4.5-5.8-4.5-9.7,0-7,5.7-12.6,12.6-12.6s12.6,5.7,12.6,12.6c0,3.9-1.8,7.4-4.5,9.7l.9,3.4c4.2-2.9,6.9-7.7,6.9-13.1,0-8.8-7.1-15.9-15.9-15.9ZM290.2,681c-15.3,0-27.8,12.5-27.8,27.8s6.4,20.5,15.7,25l.8-3.2c-7.9-4.1-13.3-12.3-13.3-21.8,0-13.5,11-24.5,24.5-24.5s24.5,11,24.5,24.5-5.4,17.7-13.3,21.8l.8,3.2c9.3-4.5,15.7-14,15.7-25,0-15.3-12.5-27.8-27.8-27.8ZM290.3,669c-21.9,0-39.7,17.8-39.7,39.7s9.8,30.4,24.7,36.6l.7-3c-13.6-5.7-22.1-18.9-22.1-33.6s16.3-36.4,36.4-36.4,36.4,16.3,36.4,36.4-8.6,28-22.2,33.7l.7,3c14.9-6.2,24.8-20.6,24.8-36.7s-17.8-39.7-39.7-39.7Z"/>
    <path class="st3" d="M1079.8,700.2h50.4v89.4h-50.4v-89.4ZM1100.5,691.4h9c.8,0,1.4.6,1.4,1.4s-.6,1.4-1.4,1.4h-9c-.8,0-1.4-.6-1.4-1.4s.6-1.4,1.4-1.4ZM1081.4,683.9c-3.1,0-5.6,2.5-5.6,5.6v109c0,3.1,2.5,5.6,5.6,5.6h47.2c3.1,0,5.6-2.5,5.6-5.6v-109c0-3.1-2.5-5.6-5.6-5.6h-47.2Z"/>
    <polyline class="st1" points="443.7 753 509.8 753 511.3 753"/>
    <polygon points="509.8 759.6 523 753 509.8 746.4 509.8 759.6"/>
  </g>
  <g class="st52">
    <g class="st53">
      <path class="st65" d="M392.8,673.4v1.2s-26.9,19.3-26.9,19.3v-13.4c.1,0,26.9-7.1,26.9-7.1ZM366.3,649.3l26.5,19.7v2.1s-26.8,7.1-26.8,7.1l.3-28.9ZM366.4,638.5s-17.1,8.8-17.8,32.2l-2.1-1.3-18.2,29.4,5.4,3.4,15.1-24.5c2.4,19.6,16.8,27.4,16.8,27.4v-8.4c0,0,28.6-20.5,28.6-20.5l8.5-1.3v-5.8s-8.3-1.4-8.3-1.4l-28.3-21v-8.1Z"/>
    </g>
  </g>
  <g class="st54">
    <g class="st50">
      <rect class="st64" x="322.6" y="682.4" width="35.6" height="7.1" transform="translate(-422.1 615) rotate(-58.3)"/>
    </g>
  </g>
  <g class="st15">
    <polyline class="st1" points="443.7 671.6 509.8 671.6 511.3 671.6"/>
    <polygon points="509.8 678.2 523 671.6 509.8 665 509.8 678.2"/>
  </g>
  <g class="st22">
    <g class="st17">
      <path class="st65" d="M1003.1,695v-1.2c0,0,27.6-18.3,27.6-18.3l-.6,13.4-27,6.1ZM1028.7,720l-25.8-20.6v-2.1c0,0,27.1-6.1,27.1-6.1l-1.3,28.9ZM1028.2,730.8s17.4-8.2,18.9-31.5l2,1.3,19.2-28.7-5.3-3.6-16,23.9c-1.7-19.7-15.8-28-15.8-28l-.4,8.4-29.3,19.5-8.5,1-.3,5.8,8.2,1.7,27.5,22-.4,8.1Z"/>
    </g>
  </g>
  <g class="st21">
    <g class="st19">
      <rect class="st64" x="1038.2" y="680.8" width="35.6" height="7.1" transform="translate(-99.8 1181.9) rotate(-56.2)"/>
    </g>
  </g>
  <g class="st16">
    <polyline class="st1" points="863.9 688.1 930 688.1 931.5 688.1"/>
    <polygon points="930 694.7 943.2 688.1 930 681.5 930 694.7"/>
  </g>
  <g class="st20">
    <g class="st18">
      <path class="st65" d="M1003.1,775v-1.2c0,0,27.6-18.3,27.6-18.3l-.6,13.4-27,6.1ZM1028.7,800l-25.8-20.6v-2.1c0,0,27.1-6.1,27.1-6.1l-1.3,28.9ZM1028.2,810.8s17.4-8.2,18.9-31.5l2,1.3,19.2-28.7-5.3-3.5-16,23.9c-1.7-19.7-15.8-28-15.8-28l-.4,8.4-29.3,19.5-8.5,1-.3,5.8,8.2,1.7,27.5,22-.4,8.1Z"/>
    </g>
  </g>
  <g class="st23">
    <g class="st24">
      <rect class="st64" x="1038.2" y="760.8" width="35.6" height="7.1" transform="translate(-166.3 1217.5) rotate(-56.2)"/>
    </g>
  </g>
  <g class="st14">
    <polyline class="st1" points="863.9 768.1 930 768.1 931.5 768.1"/>
    <polygon points="930 774.7 943.2 768.1 930 761.5 930 774.7"/>
  </g>
</svg>