<?xml version="1.0" encoding="UTF-8"?>
<svg id="Ebene_1" xmlns="http://www.w3.org/2000/svg" xmlns:xlink="http://www.w3.org/1999/xlink" version="1.1" viewBox="0 0 2477 1080">
  <!-- Generator: Adobe Illustrator 29.4.0, SVG Export Plug-In . SVG Version: 2.1.0 Build 152)  -->
  <defs>
    <style>
      .st0, .st1, .st2, .st3, .st4, .st5, .st6, .st7, .st8, .st9, .st10, .st11, .st12 {
        fill: none;
      }

      .st13 {
        font-size: 22px;
      }

      .st13, .st14, .st15 {
        font-family: STIXGeneral-Regular, STIXGeneral;
      }

      .st14, .st16 {
        font-size: 29.8px;
      }

      .st1, .st2 {
        stroke-width: 2px;
      }

      .st1, .st3, .st6, .st7, .st8, .st9, .st10, .st11, .st12 {
        stroke: #000;
      }

      .st16, .st17, .st18 {
        font-family: STIXGeneral-Italic, STIXGeneral;
        font-style: italic;
      }

      .st2, .st4, .st5 {
        stroke: #66ebff;
      }

      .st19 {
        font-size: 30px;
      }

      .st19, .st20, .st21 {
        font-family: HelveticaNeue, 'Helvetica Neue';
      }

      .st17 {
        font-size: 31px;
      }

      .st3 {
        stroke-width: 1.1px;
      }

      .st22 {
        clip-path: url(#clippath-1);
      }

      .st23 {
        clip-path: url(#clippath-3);
      }

      .st24 {
        clip-path: url(#clippath-2);
      }

      .st25 {
        fill: #fff;
      }

      .st4, .st8 {
        stroke-width: 3px;
      }

      .st5 {
        stroke-width: 5px;
      }

      .st20 {
        font-size: 48px;
      }

      .st21 {
        font-size: 40px;
      }

      .st6, .st7, .st8 {
        stroke-linecap: round;
      }

      .st6, .st7, .st9, .st10 {
        stroke-miterlimit: 10;
      }

      .st6, .st9 {
        stroke-width: 3.3px;
      }

      .st7, .st10 {
        stroke-width: 3px;
      }

      .st8 {
        stroke-dasharray: 0 9;
        stroke-dashoffset: .5px;
      }

      .st18, .st15 {
        font-size: 42px;
      }

      .st26 {
        letter-spacing: 0em;
      }

      .st27 {
        clip-path: url(#clippath);
      }

      .st11 {
        stroke-width: 4px;
      }

      .st12 {
        stroke-width: 6px;
      }
    </style>
    <clipPath id="clippath">
      <rect class="st0" x="-162.5" width="2200" height="1080"/>
    </clipPath>
    <clipPath id="clippath-1">
      <rect class="st0" x="568.5" y="596.8" width="50.4" height="103.3"/>
    </clipPath>
    <clipPath id="clippath-2">
      <rect class="st0" x="846.9" y="579.9" width="47.9" height="114.3"/>
    </clipPath>
    <clipPath id="clippath-3">
      <rect class="st0" x="-162.5" width="2200" height="1080"/>
    </clipPath>
  </defs>
  <g class="st27">
    <line class="st8" x1="623.6" y1="585.9" x2="1107.2" y2="102.3"/>
    <path class="st4" d="M645.3,568.8c17.5,8,37.3,9.4,56.8,5,19.7-4.5,40-15.4,55.2-34.5,16.4-20.7,19.1-48.3,8.8-71.5-10.4-29.7-6-58.9,11.9-77.9,17.2-18.3,44.7-25,74.2-18.2,28.2,10.2,57.1,3.1,74.8-17.2,17.3-19.8,20.8-48.8,7.8-75.1-12.7-26.7-7.9-56.3,10.9-75.6,17.6-18.2,44.8-24.2,70.9-14.7,25.6,15.6,58,6.6,72.5-18.7,10-17.5,7.4-38.6,9-59.9"/>
    <path d="M1224,120.3l3.3,12.9-14.1-7.3,10.8-5.6ZM1199,120.3l10.8,5.6-14.1,7.3,3.3-12.9ZM1200,119.1h23.1l-11.5,6-11.5-6ZM1211.5,108.9l11,8.6h-22.1l11-8.6ZM1219.5,102.7l3.4,13-10-7.8,6.7-5.2ZM1203.6,102.7l6.7,5.2-10,7.8,3.3-13ZM1205,101.8h13.1l-6.5,5.1-6.5-5.1ZM1211.5,91.8l6.6,8.5h-13.1l6.6-8.5ZM1215.4,86.7l2.9,11.2-5.8-7.5,2.9-3.7ZM1207.7,86.7l2.9,3.7-5.8,7.5,2.9-11.2ZM1208.8,85.6h5.5l-2.8,3.6-2.8-3.6ZM1211.5,71.7l3.2,12.4h-6.4l3.2-12.4ZM1211.5,56.6c-2.3,0-4.2,1.9-4.2,4.2s.7,2.6,1.7,3.4l-18.3,71.2h4.3l16.4-8.5,16.4,8.5h4.3l-18.3-71.2c1-.8,1.7-2,1.7-3.4,0-2.3-1.9-4.2-4.2-4.2ZM1211.5,44.9c-8.8,0-15.9,7.1-15.9,15.9s2.8,10.3,6.9,13.1l.9-3.4c-2.8-2.3-4.5-5.8-4.5-9.7,0-7,5.7-12.6,12.6-12.6s12.6,5.7,12.6,12.6c0,3.9-1.8,7.4-4.5,9.7l.9,3.4c4.2-2.9,6.9-7.7,6.9-13.1,0-8.8-7.1-15.9-15.9-15.9ZM1211.5,33c-15.3,0-27.8,12.5-27.8,27.8s6.4,20.5,15.7,25l.8-3.2c-7.9-4.1-13.3-12.3-13.3-21.8,0-13.5,11-24.5,24.5-24.5s24.5,11,24.5,24.5-5.4,17.7-13.3,21.8l.8,3.2c9.3-4.5,15.7-14,15.7-25s-12.5-27.8-27.8-27.8ZM1211.6,21c-21.9,0-39.7,17.8-39.7,39.7s9.8,30.4,24.7,36.6l.7-3c-13.6-5.7-22.1-18.9-22.1-33.6s16.3-36.4,36.4-36.4,36.4,16.3,36.4,36.4-8.6,28-22.2,33.7l.7,3c14.9-6.2,24.8-20.6,24.8-36.7s-17.8-39.7-39.7-39.7Z"/>
    <line class="st8" x1="854.6" y1="545.9" x2="1207.2" y2="193.3"/>
    <path class="st4" d="M860.2,544.4c-3.9-24.3,1.4-46.9,15.8-62.5,17.1-18.5,44.8-25.4,74.2-18.2,28.2,10.2,57.1,3.1,74.8-17.2,17.3-19.8,20.8-48.8,7.8-75.1-12.7-26.7-7.9-56.3,10.9-75.6,17.6-18.2,44.8-24.2,70.9-14.7,25.6,15.6,58,6.6,72.5-18.7,10-17.5,7.4-38.6,9-59.9"/>
    <polyline class="st1" points="640.6 596.5 641.6 596.4 850.1 564.7 851.1 564.5"/>
    <polygon points="850.9 569.4 859.6 563.2 849.4 559.9 850.9 569.4"/>
    <polygon points="640.9 591.6 632.1 597.8 642.3 601.1 640.9 591.6"/>
    <text class="st15" transform="translate(700.6 623.4)"><tspan x="0" y="0">Δ</tspan></text>
    <text class="st18" transform="translate(730.9 623.4)"><tspan x="0" y="0">d</tspan></text>
  </g>
  <g class="st22">
    <path class="st7" d="M588.6,608.3c1.3,0,8.1.2,13.6,5.7,5.5,5.6,5.5,12.6,5.5,13.8"/>
    <path class="st7" d="M588.6,598.3c1.8,0,12.8,0,21.2,9.1,7.8,8.4,7.7,18.5,7.6,20.4"/>
    <line class="st10" x1="587.8" y1="633.6" x2="587.8" y2="690.7"/>
    <path class="st10" d="M595.5,625.8c0,4.3-3.5,7.8-7.8,7.8s-7.8-3.5-7.8-7.8,3.5-7.8,7.8-7.8,7.8,3.5,7.8,7.8Z"/>
    <path class="st7" d="M601.7,698.6h-28.4c-1.8,0-3.3-1.5-3.3-3.3s1.5-3.3,3.3-3.3h28.4c1.8,0,3.3,1.5,3.3,3.3s-1.5,3.3-3.3,3.3Z"/>
  </g>
  <g class="st24">
    <path class="st6" d="M858.1,603c.7-1.2,4.6-7.7,13-9.8,8.4-2.2,15,1.7,16.2,2.4"/>
    <path class="st6" d="M848.6,597.5c1-1.7,7.1-12.2,20.3-15.2,12.3-2.8,21.8,2.9,23.7,4"/>
    <line class="st9" x1="874.1" y1="620.8" x2="874.1" y2="683.8"/>
    <path class="st9" d="M882.7,612.2c0,4.7-3.8,8.6-8.6,8.6s-8.6-3.8-8.6-8.6,3.8-8.6,8.6-8.6,8.6,3.8,8.6,8.6Z"/>
    <path class="st6" d="M889.5,692.6h-31.4c-2,0-3.7-1.6-3.7-3.7s1.6-3.7,3.7-3.7h31.4c2,0,3.7,1.6,3.7,3.7s-1.6,3.7-3.7,3.7Z"/>
  </g>
  <g class="st23">
    <text class="st19" transform="translate(1163 174.4)"><tspan x="0" y="0">Sender</tspan></text>
    <text class="st18" transform="translate(1055 382.5)"><tspan x="0" y="0">d</tspan></text>
    <text class="st16" transform="translate(1074.5 393)"><tspan x="0" y="0">a</tspan></text>
    <text class="st16" transform="translate(1089.4 393)"><tspan x="0" y="0">n</tspan></text>
    <text class="st16" transform="translate(1104.4 393)"><tspan x="0" y="0">t</tspan></text>
    <text class="st14" transform="translate(1113.1 393)"><tspan x="0" y="0">2</tspan></text>
    <text class="st18" transform="translate(812 303.5)"><tspan x="0" y="0">d</tspan></text>
    <text class="st16" transform="translate(831.5 314)"><tspan x="0" y="0">a</tspan></text>
    <text class="st16" transform="translate(846.4 314)"><tspan x="0" y="0">n</tspan></text>
    <text class="st16" transform="translate(861.4 314)"><tspan x="0" y="0">t</tspan></text>
    <text class="st14" transform="translate(869.6 314)"><tspan x="0" y="0">1</tspan></text>
    <text class="st17" transform="translate(847.2 713.2)"><tspan x="0" y="0">a</tspan></text>
    <text class="st17" transform="translate(863.1 713.2)"><tspan x="0" y="0">n</tspan></text>
    <text class="st17" transform="translate(878.6 713.2)"><tspan x="0" y="0">t</tspan></text>
    <text class="st13" transform="translate(886.1 721)"><tspan x="0" y="0">2</tspan></text>
    <text class="st17" transform="translate(568.8 721.2)"><tspan x="0" y="0">a</tspan></text>
    <text class="st17" transform="translate(584.6 721.2)"><tspan x="0" y="0">n</tspan></text>
    <text class="st17" transform="translate(600.1 721.2)"><tspan x="0" y="0">t</tspan></text>
    <text class="st13" transform="translate(607.6 729)"><tspan x="0" y="0">1</tspan></text>
    <path class="st3" d="M980.3,732.9h640.6c21.9,0,35.1,0,43.8,3.7,12.6,4.6,22.6,14.6,27.2,27.2,3.7,8.8,3.7,21.9,3.7,43.8v176.3c0,21.9,0,35.1-3.7,43.8-4.6,12.6-14.6,22.6-27.2,27.2-8.8,3.7-21.9,3.7-43.8,3.7h-640.6c-21.9,0-35.1,0-43.8-3.7-12.6-4.6-22.6-14.6-27.2-27.2-3.7-8.8-3.7-21.9-3.7-43.8v-176.3c0-21.9,0-35.1,3.7-43.8,4.6-12.6,14.6-22.6,27.2-27.2,8.8-3.7,21.9-3.7,43.8-3.7Z"/>
    <polyline class="st1" points="589.3 736.5 589.3 1001.7 1097.6 1001.7"/>
    <polyline class="st1" points="870.7 729.4 870.7 852.4 1099.8 852.4"/>
    <line class="st11" x1="1100.2" y1="881.4" x2="1100.2" y2="820.8"/>
    <path class="st4" d="M1590.9,995.7c-2,5.4-4.8,10.4-8.4,14.7-11.6,13.9-30.1,20.7-49.2,18.1-20.5-2.7-37.6-18.8-46.5-41.1-12-27.6-31.4-43.7-52-43.1-19.8.6-38.2,16.6-49.6,43.1-8.8,27.9-28.2,44.6-49.4,44.3-20.7-.3-39.6-17-48.2-44.3-9-27.3-28.9-43.4-50.1-42.3-19.9,1-37.7,17.2-45.9,43.1-4.3,29.5-26.6,47.7-49.1,41.6-15.5-4.2-26.6-20.2-39.9-33.3"/>
    <path class="st4" d="M1594.7,854.3c-3.1-6.6-7.3-12.5-12.2-17.6-12.5-12.7-30.2-20.1-49.2-18.1-20.7,2.1-38,18.3-46.5,41.1-12,27.6-31.4,43.7-52,43.1-19.8-.6-38.2-16.6-49.6-43.1-8.8-27.9-28.2-44.6-49.4-44.3-20.7.3-39.6,17-48.2,44.3-9,27.3-28.9,43.4-50.1,42.3-19.9-1-37.7-17.2-45.9-43.1-4.3-29.5-26.6-47.7-49.1-41.6-15.5,4.2-26.6,20.2-39.9,33.3"/>
    <line class="st11" x1="1100.2" y1="1031.4" x2="1100.2" y2="970.8"/>
    <line class="st11" x1="1602" y1="1027.2" x2="1602" y2="966.6"/>
    <line class="st11" x1="1602" y1="881.4" x2="1602" y2="820.8"/>
    <text class="st17" transform="translate(1039.4 834.2)"><tspan x="0" y="0">s</tspan></text>
    <text class="st17" transform="translate(1051.5 834.2)"><tspan x="0" y="0">i</tspan></text>
    <text class="st17" transform="translate(1060.1 834.2)"><tspan x="0" y="0">g</tspan></text>
    <text class="st13" transform="translate(1074.5 841.9)"><tspan x="0" y="0">2</tspan></text>
    <text class="st17" transform="translate(1039.4 975.9)"><tspan x="0" y="0">s</tspan></text>
    <text class="st17" transform="translate(1051.5 975.9)"><tspan x="0" y="0">i</tspan></text>
    <text class="st17" transform="translate(1060.1 975.9)"><tspan x="0" y="0">g</tspan></text>
    <text class="st13" transform="translate(1074.5 983.7)"><tspan x="0" y="0">1</tspan></text>
    <polyline class="st11" points="1600 850.4 1648.3 850.4 1648.3 873.8"/>
    <polyline class="st11" points="1603.1 998.7 1651.4 998.7 1651.4 975.3"/>
    <text class="st20" transform="translate(1634.7 934.5)"><tspan x="0" y="0">+</tspan></text>
    <line class="st8" x1="1087.8" y1="851.1" x2="1600.3" y2="851.1"/>
    <line class="st8" x1="1092.5" y1="996.9" x2="1605" y2="996.9"/>
    <line class="st8" x1="1709.1" y1="916.9" x2="1904.2" y2="916.9"/>
    <line class="st2" x1="1740.2" y1="916.9" x2="1873" y2="916.9"/>
    <text class="st21" transform="translate(677.2 115.8)"><tspan x="0" y="0">1.</tspan></text>
    <text class="st21" transform="translate(747.2 115.8)"><tspan x="0" y="0">Senario</tspan></text>
    <line class="st12" x1="1205.9" y1="584" x2="1465.2" y2="584"/>
    <line class="st1" x1="1333.2" y1="586.3" x2="1481.3" y2="351.3"/>
    <path class="st25" d="M1344.1,575.3c4.7,4.7,4.7,12.4,0,17.1-4.7,4.7-12.4,4.7-17.1,0-4.7-4.7-4.7-12.4,0-17.1,4.7-4.7,12.4-4.7,17.1,0Z"/>
    <path class="st5" d="M1344.1,575.3c4.7,4.7,4.7,12.4,0,17.1-4.7,4.7-12.4,4.7-17.1,0-4.7-4.7-4.7-12.4,0-17.1,4.7-4.7,12.4-4.7,17.1,0Z"/>
    <text class="st21" transform="translate(1212.1 646)"><tspan x="0" y="0">Beam Patte</tspan><tspan class="st26" x="209.7" y="0">r</tspan><tspan x="223.7" y="0">n</tspan></text>
  </g>
</svg>