<?xml version="1.0" encoding="UTF-8"?>
<svg id="Isolationsmodus" xmlns="http://www.w3.org/2000/svg" version="1.1" viewBox="0 0 1022.2 184">
  <!-- Generator: Adobe Illustrator 29.4.0, SVG Export Plug-In . SVG Version: 2.1.0 Build 152)  -->
  <defs>
    <style>
      .st0 {
        stroke-dasharray: 3.7 2.9 1.5 3.7 2.9 1.5;
      }

      .st0, .st1 {
        fill: none;
        stroke: #020203;
        stroke-width: .7px;
      }

      .st2 {
        fill: #88847e;
      }

      .st3 {
        fill: #4493c3;
      }

      .st4 {
        fill: #fff;
      }
    </style>
  </defs>
  <rect class="st4" width="1050.8" height="184"/>
  <rect class="st3" x="390.7" y="12" width="242.3" height="159.9"/>
  <rect class="st0" x="390.7" y="12" width="242.3" height="159.9"/>
  <rect class="st2" x="419.8" y="55.7" width="179.3" height="33.9"/>
  <rect class="st1" x="419.8" y="55.7" width="179.3" height="33.9"/>
  <rect class="st2" x="419.8" y="89.6" width="179.3" height="33.9"/>
  <rect class="st1" x="419.8" y="89.6" width="179.3" height="33.9"/>
  <rect class="st2" x="419.8" y="123.5" width="179.3" height="33.9"/>
  <rect class="st1" x="419.8" y="123.5" width="179.3" height="33.9"/>
  <path class="st4" d="M533.3,38.1c0,3.1,2.1,4.8,4.5,4.8s6.1-3.3,6.7-6.1l2.3-9.3c.4-1.6,1.8-1.7,2.6-1.7,0,0,.4,0,.4-.5s-.1-.3-.3-.3c-.8,0-1.6,0-2.4,0s-1.7,0-2.4,0-.5,0-.5.5.2.3.5.3c1.3,0,1.5.6,1.5,1.1s0,.4-.1.6l-2.3,9.1c-.8,3.3-3.5,5.6-5.9,5.6s-2.7-.9-2.7-3.2.1-1.4.3-1.9l2.5-10.2c.2-.8.4-1,2-1s.8,0,.8-.5-.2-.3-.4-.3c-1,0-2,0-3,0s-2.1,0-3.1,0-.5,0-.5.5.2.3.7.3c.8,0,1.5,0,1.5.4s0,.1-.1.5l-2.4,9.8c-.2.8-.2,1.4-.2,1.6ZM515.2,41.3c0-.2,0-.4.1-.6l3.5-14.1c.2-.9.4-.9,1.2-.9h2.5c2.1,0,4.1,1.1,4.1,4.5s-.7,6.3-2.9,8.8c-1.2,1.4-3.1,2.5-5.1,2.5h-2.6c-.8,0-.8,0-.8-.3ZM510.6,42c0,.3.2.3.6.3h7.8c4.8,0,9.7-5.4,9.7-11.1s-2.1-6.2-5.3-6.2h-7.9c-.4,0-.7,0-.7.5s.2.3.7.3c.8,0,1.5,0,1.5.4s0,.1-.1.5l-3.4,13.8c-.2.9-.4,1.1-2.1,1.1s-.7,0-.7.5ZM502.1,37.2c0,.3.3.4.6.4h5.1c.1,0,.3,0,.4,0,.3-.2.4-1,.4-1,0-.3-.3-.4-.6-.4h-5.1c-.1,0-.2,0-.3,0-.3.1-.4,1-.4,1ZM486.4,37.1c0-1.2.4-4.7,2.1-7.8,1.3-2.4,3.7-4.2,5.9-4.2s3.8,1.5,3.8,4.9-.9,5.6-2.3,7.9c-1.7,2.8-3.9,4.3-5.8,4.3s-3.7-2.1-3.7-5.1ZM484.1,36.3c0,3.8,2.4,6.6,5.9,6.6,5.1,0,10.4-5.7,10.4-11.9s-2.6-6.6-5.8-6.6c-5.2,0-10.5,6-10.5,11.9Z"/>
  <path class="st4" d="M525.9,72.4c0,5.3,4.1,9.3,8.9,9.3s6.6-3.5,6.6-6.5,0-.4-.3-.4-.3.2-.3.4c-.2,3.6-2.9,5.7-5.7,5.7s-6.5-.9-6.5-8.4,5-8.5,6.5-8.5c2.8,0,5,2.3,5.5,6,0,.4,0,.4.4.4s.4,0,.4-.6v-6c0-.4,0-.6-.3-.6s-.2,0-.4.3l-1.3,1.9c-.9-.9-2.2-2.2-4.7-2.2-4.8,0-8.9,4-8.9,9.2ZM512,74.5l2.8-8.3,2.9,8.3h-5.7ZM506.9,81.1c.6,0,1.7,0,2.6,0s2.1,0,2.9,0v-.8c-1.3,0-1.9-.6-1.9-1.3s0-.3,0-.4l1.2-3.3h6.3l1.3,3.9c0,.1,0,.3,0,.4,0,.8-1.4.8-2.1.8v.8c.9,0,2.7,0,3.7,0s2.3,0,3.3,0v-.8h-.5c-1.5,0-1.9-.2-2.2-1l-5.5-15.9c-.1-.3-.2-.5-.6-.5s-.5.2-.6.5l-5.3,15.2c-.5,1.3-1.5,1.7-2.8,1.7v.8ZM483.7,81.1c.9,0,2.1,0,3,0s2.1,0,3,0v-.8c-2.6,0-2.6-1.2-2.6-1.9v-13.7h0l6.1,15.8c.1.3.3.6.5.6s.4-.2.5-.5l6.3-16.1h0v14.6c0,.9,0,1.2-2,1.2h-.6v.8c.9,0,2.7,0,3.7,0s2.7,0,3.6,0v-.8h-.6c-2,0-2-.3-2-1.2v-13.4c0-.9,0-1.2,2-1.2h.6v-.8h-4.3c-.7,0-.7,0-.8.5l-5.6,14.3-5.5-14.2c-.2-.6-.3-.6-.9-.6h-4.3v.8h.6c2,0,2,.3,2,1.2v12.7c0,.7,0,1.9-2.6,1.9v.8Z"/>
  <path class="st4" d="M521.3,107.1c0,5.3,4.1,9.3,8.9,9.3s6.6-3.5,6.6-6.5,0-.4-.3-.4-.3.2-.3.4c-.2,3.6-2.9,5.7-5.7,5.7s-6.5-.9-6.5-8.4,5-8.5,6.5-8.5c2.8,0,5,2.3,5.5,6,0,.4,0,.4.4.4s.4,0,.4-.6v-6c0-.4,0-.6-.3-.6s-.2,0-.4.3l-1.3,1.9c-.9-.9-2.2-2.2-4.7-2.2-4.8,0-8.9,4-8.9,9.2ZM504.8,115.8h13.3l.7-6.6h-.6c-.3,2.6-.6,5.8-5.1,5.8h-2.1c-1.2,0-1.2-.2-1.2-1v-13.6c0-.9,0-1.2,2.4-1.2h.8v-.8c-.9,0-3.2,0-4.3,0s-3,0-3.9,0v.8h.6c2,0,2,.3,2,1.2v13.4c0,.9,0,1.2-2,1.2h-.6v.8ZM490.9,106.8v-6.6c0-.6,0-.9.6-1,.3,0,1,0,1.5,0,2.3,0,5.1.1,5.1,3.8s-.6,3.8-4.4,3.8h-2.8ZM486.1,115.8c.9,0,2.7,0,3.7,0s2.8,0,3.7,0v-.8h-.6c-2,0-2-.3-2-1.2v-6.4h2.9c.4,0,1.5,0,2.4.9,1,.9,1,1.7,1,3.4s0,2.7,1,3.6c1,.9,2.4,1.1,3.2,1.1,2,0,2.4-2.1,2.4-2.8s0-.4-.3-.4-.3.2-.3.4c-.2,1.8-1,2.3-1.7,2.3-1.2,0-1.5-1.3-1.8-3.7l-.3-2c-.5-1.6-1.7-2.5-3.1-3,2.5-.6,4.5-2.2,4.5-4.1s-2.9-4.6-6.6-4.6h-8v.8h.6c2,0,2,.3,2,1.2v13.4c0,.9,0,1.2-2,1.2h-.6v.8Z"/>
  <path class="st4" d="M559.6,148.9c.9,0,2.2,0,2.9,0s2,0,2.8,0v-.8c-1.7,0-2,0-2-1.1v-4.7c0-2.6,1.8-4.1,3.4-4.1s1.9,1.4,1.9,2.8v5.9c0,1.1-.3,1.1-2,1.1v.8c.9,0,2.2,0,2.9,0s2,0,2.8,0v-.8c-1.3,0-2,0-2-.8v-4.9c0-2.2,0-3-.8-3.9-.4-.4-1.2-.9-2.7-.9-2.1,0-3.3,1.5-3.7,2.4h0v-8.9l-3.7.3v.8c1.8,0,2,.2,2,1.4v13.2c0,1.1-.3,1.1-2,1.1v.8ZM549.5,141.4c0-.7,0-1.5.4-2.1.2-.3.8-1,1.8-1,2.2,0,2.2,2.5,2.2,3.1s0,1.5-.4,2.1c-.2.3-.8,1-1.8,1-2.2,0-2.2-2.5-2.2-3.1ZM548.1,150.9c0-1.2,1-2.1,2.1-2.2h1.5c2.2,0,5,0,5,2.2s-1.8,2.6-4.3,2.6-4.3-1.3-4.3-2.6ZM546.8,150.9c0,1.8,2.5,3.2,5.6,3.2s5.6-1.3,5.6-3.3-.4-2.2-1.7-2.9c-1.3-.7-2.8-.7-4.4-.7s-1.7,0-1.9,0c-.8-.1-1.3-.9-1.3-1.7s0-.7.4-1.2c1,.7,2,.8,2.5.8,2.4,0,4.1-1.8,4.1-3.7s-.4-1.9-1-2.5c.9-.9,1.8-1,2.3-1s.2,0,.3,0c-.3.1-.4.4-.4.7,0,.4.3.7.7.7s.7-.2.7-.8-.3-1.2-1.3-1.2-1.6.2-2.7,1.2c-1.1-.8-2.1-.9-2.7-.9-2.4,0-4.1,1.8-4.1,3.7s.6,2.1,1.2,2.6c-.3.4-.8,1.2-.8,2.1s.3,1.8,1.1,2.3c-1.5.4-2.3,1.5-2.3,2.5ZM539.9,148.9c.8,0,2.2,0,2.8,0,.9,0,1.8,0,2.6,0v-.8c-1.7,0-1.8-.1-1.8-1.1v-9.3l-3.6.3v.8c1.7,0,1.9.2,1.9,1.4v6.8c0,1.1-.3,1.1-2,1.1v.8ZM541,133.2c0,.7.6,1.3,1.3,1.3s1.3-.5,1.3-1.3-.6-1.3-1.3-1.3-1.3.7-1.3,1.3ZM525.8,148.9c.9,0,2.2,0,2.9,0s2,0,2.8,0v-.8c-1.7,0-2,0-2-1.1v-4.7c0-2.6,1.8-4.1,3.4-4.1s1.9,1.4,1.9,2.8v5.9c0,1.1-.3,1.1-2,1.1v.8c.9,0,2.2,0,2.9,0s2,0,2.8,0v-.8c-1.3,0-2,0-2-.8v-4.9c0-2.2,0-3-.8-3.9-.4-.4-1.2-.9-2.7-.9-2.1,0-3.3,1.5-3.7,2.4h0v-8.9l-3.7.3v.8c1.8,0,2,.2,2,1.4v13.2c0,1.1-.3,1.1-2,1.1v.8ZM516.7,144.2h6.8v-1.5h-6.8v1.5ZM497.7,132.3h.5c1.7,0,1.9.3,2.3.9l5.3,8.7v5c0,.9,0,1.2-2,1.2h-.6v.8c.9,0,2.7,0,3.7,0s2.8,0,3.7,0v-.8h-.6c-2,0-2-.3-2-1.2v-4.9l4.9-8c.9-1.6,2.4-1.7,3.3-1.7v-.8c-.8,0-1.8,0-2.5,0s-2.3,0-2.9,0v.8c1,0,1.4.5,1.4,1s-.2.6-.3.8l-4.2,6.8-4.6-7.5c-.2-.3-.2-.3-.2-.4,0-.5.6-.6,1.8-.6v-.8c-.9,0-2.8,0-3.8,0s-2.2,0-3.3,0v.8ZM479.1,148.9c.9,0,2.8,0,3.7,0s2.9,0,3.8,0v-.8h-.6c-2,0-2-.3-2-1.2v-6.7h7.6v6.7c0,.9,0,1.2-2,1.2h-.6v.8c.9,0,2.8,0,3.7,0s2.9,0,3.8,0v-.8h-.6c-2,0-2-.3-2-1.2v-13.4c0-.9,0-1.2,2-1.2h.6v-.8c-.9,0-2.8,0-3.7,0s-2.9,0-3.8,0v.8h.6c2,0,2,.3,2,1.2v6h-7.6v-6c0-.9,0-1.2,2-1.2h.6v-.8c-.9,0-2.8,0-3.7,0s-2.9,0-3.8,0v.8h.6c2,0,2,.3,2,1.2v13.4c0,.9,0,1.2-2,1.2h-.6v.8ZM466.7,140.2v-6.9c0-.8,0-1,1.2-1h2.3c4,0,4,2.7,4,3.9s0,3.9-4,3.9h-3.5ZM461.9,148.9c.9,0,2.8,0,3.7,0s2.9,0,3.8,0v-.8h-.6c-2,0-2-.3-2-1.2v-6.1h4.3c3.1,0,5.8-2.1,5.8-4.6s-2.5-4.7-6-4.7h-9v.8h.6c2,0,2,.3,2,1.2v13.4c0,.9,0,1.2-2,1.2h-.6v.8Z"/>
</svg>