<?xml version="1.0" encoding="UTF-8"?>
<svg id="Ebene_1" data-name="Ebene 1" xmlns="http://www.w3.org/2000/svg" xmlns:xlink="http://www.w3.org/1999/xlink" viewBox="0 0 1920 1080">
  <defs>
    <style>
      .cls-1, .cls-2, .cls-3, .cls-4 {
        fill: none;
      }

      .cls-2 {
        stroke-width: 2px;
      }

      .cls-2, .cls-3, .cls-4 {
        stroke: #000;
      }

      .cls-5 {
        font-size: 15px;
      }

      .cls-5, .cls-6 {
        font-family: HelveticaNeue, 'Helvetica Neue';
      }

      .cls-6 {
        font-size: 30px;
      }

      .cls-7 {
        clip-path: url(#clippath-17);
      }

      .cls-8 {
        clip-path: url(#clippath-19);
      }

      .cls-9 {
        clip-path: url(#clippath-11);
      }

      .cls-10 {
        clip-path: url(#clippath-16);
      }

      .cls-11 {
        clip-path: url(#clippath-18);
      }

      .cls-12 {
        clip-path: url(#clippath-10);
      }

      .cls-13 {
        clip-path: url(#clippath-15);
      }

      .cls-14 {
        clip-path: url(#clippath-13);
      }

      .cls-15 {
        clip-path: url(#clippath-14);
      }

      .cls-16 {
        clip-path: url(#clippath-12);
      }

      .cls-17 {
        clip-path: url(#clippath-31);
      }

      .cls-18 {
        clip-path: url(#clippath-32);
      }

      .cls-19 {
        clip-path: url(#clippath-33);
      }

      .cls-20 {
        clip-path: url(#clippath-34);
      }

      .cls-21 {
        clip-path: url(#clippath-30);
      }

      .cls-22 {
        clip-path: url(#clippath-27);
      }

      .cls-23 {
        clip-path: url(#clippath-29);
      }

      .cls-24 {
        clip-path: url(#clippath-26);
      }

      .cls-25 {
        clip-path: url(#clippath-28);
      }

      .cls-26 {
        clip-path: url(#clippath-20);
      }

      .cls-27 {
        clip-path: url(#clippath-21);
      }

      .cls-28 {
        clip-path: url(#clippath-22);
      }

      .cls-29 {
        clip-path: url(#clippath-23);
      }

      .cls-30 {
        clip-path: url(#clippath-24);
      }

      .cls-31 {
        clip-path: url(#clippath-25);
      }

      .cls-32 {
        fill: #52b8c8;
      }

      .cls-33 {
        clip-path: url(#clippath-1);
      }

      .cls-34 {
        clip-path: url(#clippath-3);
      }

      .cls-35 {
        clip-path: url(#clippath-4);
      }

      .cls-36 {
        clip-path: url(#clippath-2);
      }

      .cls-37 {
        clip-path: url(#clippath-7);
      }

      .cls-38 {
        clip-path: url(#clippath-6);
      }

      .cls-39 {
        clip-path: url(#clippath-9);
      }

      .cls-40 {
        clip-path: url(#clippath-8);
      }

      .cls-41 {
        clip-path: url(#clippath-5);
      }

      .cls-42 {
        letter-spacing: 0em;
      }

      .cls-43 {
        fill: #fff;
        font-family: HelveticaNeue-Medium, 'Helvetica Neue';
        font-size: 20px;
        font-weight: 500;
      }

      .cls-44 {
        letter-spacing: 0em;
      }

      .cls-45 {
        letter-spacing: -.09em;
      }

      .cls-46 {
        letter-spacing: -.09em;
      }

      .cls-47 {
        letter-spacing: -.02em;
      }

      .cls-48 {
        letter-spacing: -.02em;
      }

      .cls-49 {
        letter-spacing: -.02em;
      }

      .cls-50 {
        letter-spacing: -.02em;
      }

      .cls-51 {
        letter-spacing: -.02em;
      }

      .cls-52 {
        letter-spacing: -.05em;
      }

      .cls-53 {
        clip-path: url(#clippath);
      }

      .cls-4 {
        stroke-width: 4px;
      }
    </style>
    <clipPath id="clippath">
      <rect class="cls-1" width="1920" height="1080"/>
    </clipPath>
    <clipPath id="clippath-1">
      <rect class="cls-1" x="483.8" y="204.43" width="295.13" height="85.96"/>
    </clipPath>
    <clipPath id="clippath-2">
      <rect class="cls-1" width="1920" height="1080"/>
    </clipPath>
    <clipPath id="clippath-3">
      <rect class="cls-1" x="801.23" y="27.98" width="145" height="145"/>
    </clipPath>
    <clipPath id="clippath-4">
      <rect class="cls-1" width="1920" height="1080"/>
    </clipPath>
    <clipPath id="clippath-5">
      <rect class="cls-1" x="563.36" y="7.14" width="145" height="145"/>
    </clipPath>
    <clipPath id="clippath-6">
      <rect class="cls-1" width="1920" height="1080"/>
    </clipPath>
    <clipPath id="clippath-7">
      <rect class="cls-1" x="184.74" y="32.7" width="184.87" height="183.28"/>
    </clipPath>
    <clipPath id="clippath-8">
      <rect class="cls-1" width="1920" height="1080"/>
    </clipPath>
    <clipPath id="clippath-9">
      <rect class="cls-1" x="501.82" y="669.25" width="270.66" height="85.96"/>
    </clipPath>
    <clipPath id="clippath-10">
      <rect class="cls-1" width="1920" height="1080"/>
    </clipPath>
    <clipPath id="clippath-11">
      <rect class="cls-1" x="1023.88" y="524.54" width="146.54" height="145"/>
    </clipPath>
    <clipPath id="clippath-12">
      <rect class="cls-1" width="1920" height="1080"/>
    </clipPath>
    <clipPath id="clippath-13">
      <rect class="cls-1" x="1282.44" y="380" width="145" height="145"/>
    </clipPath>
    <clipPath id="clippath-14">
      <rect class="cls-1" width="1920" height="1080"/>
    </clipPath>
    <clipPath id="clippath-15">
      <rect class="cls-1" x="874.64" y="528.3" width="98.08" height="98.08"/>
    </clipPath>
    <clipPath id="clippath-16">
      <rect class="cls-1" width="1920" height="1080"/>
    </clipPath>
    <clipPath id="clippath-17">
      <rect class="cls-1" x="1016.71" y="393.22" width="98.08" height="98.08"/>
    </clipPath>
    <clipPath id="clippath-18">
      <rect class="cls-1" width="1920" height="1080"/>
    </clipPath>
    <clipPath id="clippath-19">
      <rect class="cls-1" x="1219.61" y="644.38" width="270.66" height="118.44"/>
    </clipPath>
    <clipPath id="clippath-20">
      <rect class="cls-1" width="1920" height="1080"/>
    </clipPath>
    <clipPath id="clippath-21">
      <rect class="cls-1" x="139.41" y="445.12" width="184.73" height="183.28"/>
    </clipPath>
    <clipPath id="clippath-22">
      <rect class="cls-1" width="1920" height="1080"/>
    </clipPath>
    <clipPath id="clippath-23">
      <rect class="cls-1" x="384.31" y="438.9" width="146.52" height="145"/>
    </clipPath>
    <clipPath id="clippath-24">
      <rect class="cls-1" width="1920" height="1080"/>
    </clipPath>
    <clipPath id="clippath-25">
      <rect class="cls-1" x="149.84" y="722.93" width="146.56" height="145"/>
    </clipPath>
    <clipPath id="clippath-26">
      <rect class="cls-1" width="1920" height="1080"/>
    </clipPath>
    <clipPath id="clippath-27">
      <rect class="cls-1" x="355.09" y="811.57" width="145" height="145"/>
    </clipPath>
    <clipPath id="clippath-28">
      <rect class="cls-1" width="1920" height="1080"/>
    </clipPath>
    <clipPath id="clippath-29">
      <rect class="cls-1" x="1219.61" y="894" width="270.66" height="118.44"/>
    </clipPath>
    <clipPath id="clippath-30">
      <rect class="cls-1" width="1920" height="1080"/>
    </clipPath>
    <clipPath id="clippath-31">
      <rect class="cls-1" x="950.86" y="871.95" width="161.71" height="161.71"/>
    </clipPath>
    <clipPath id="clippath-32">
      <rect class="cls-1" width="1920" height="1080"/>
    </clipPath>
    <clipPath id="clippath-33">
      <rect class="cls-1" x="1587.66" y="773.43" width="163.28" height="161.71"/>
    </clipPath>
    <clipPath id="clippath-34">
      <rect class="cls-1" width="1920" height="1080"/>
    </clipPath>
  </defs>
  <g class="cls-53">
    <line class="cls-2" x1="1674.91" y1="856.72" x2="1483.47" y2="897.94"/>
    <line class="cls-2" x1="1224.46" y1="951.88" x2="1062.75" y2="951.88"/>
    <line class="cls-2" x1="605.15" y1="673.95" x2="461.56" y2="530.36"/>
    <line class="cls-2" x1="507.65" y1="748.66" x2="418.56" y2="875.57"/>
    <line class="cls-2" x1="505.65" y1="673.83" x2="264.03" y2="544.74"/>
    <line class="cls-2" x1="507.28" y1="703.33" x2="244.56" y2="766.36"/>
    <line class="cls-2" x1="1081.49" y1="619.71" x2="1068.07" y2="436.57"/>
    <line class="cls-2" x1="1071.49" y1="609.71" x2="914.94" y2="584.37"/>
    <line class="cls-2" x1="774.33" y1="210.06" x2="850.56" y2="133.83"/>
    <line class="cls-2" x1="635.86" y1="210.77" x2="635.86" y2="133.12"/>
    <rect class="cls-3" x="488.04" y="208.67" width="286.66" height="76.64"/>
  </g>
  <g class="cls-33">
    <text class="cls-6" transform="translate(529.43 241.94)"><tspan x="0" y="0">O-RAN SC RIC </tspan></text>
    <text class="cls-6" transform="translate(493.04 274.42)"><tspan x="0" y="0">(Nea</tspan><tspan class="cls-52" x="61.65" y="0">r</tspan><tspan class="cls-42" x="69.99" y="0">-Real-time RIC)</tspan></text>
  </g>
  <g class="cls-36">
    <circle class="cls-32" cx="873.73" cy="100.48" r="72.5"/>
  </g>
  <g class="cls-34">
    <text class="cls-43" transform="translate(810.92 95.84)"><tspan x="0" y="0">O</tspan><tspan class="cls-49" x="15.2" y="0">r</tspan><tspan class="cls-44" x="21.9" y="0">chestration </tspan></text>
    <text class="cls-43" transform="translate(823.53 120.84)"><tspan x="0" y="0">of the RAN</tspan></text>
  </g>
  <g class="cls-35">
    <circle class="cls-32" cx="635.86" cy="79.64" r="72.5"/>
  </g>
  <g class="cls-41">
    <text class="cls-43" transform="translate(575.65 74.55)"><tspan x="0" y="0">Allows to run </tspan></text>
    <text class="cls-43" transform="translate(606.41 99.55)"><tspan x="0" y="0">xApps</tspan></text>
  </g>
  <g class="cls-38">
    <line class="cls-2" x1="490.72" y1="210.31" x2="334.18" y2="145.58"/>
    <path class="cls-32" d="M341.99,59.54c35.79,35.79,35.79,93.81,0,129.6-35.79,35.79-93.81,35.79-129.6,0-35.79-35.79-35.79-93.81,0-129.6,35.79-35.79,93.81-35.79,129.6,0Z"/>
  </g>
  <g class="cls-37">
    <text class="cls-43" transform="translate(198.45 107.01)"><tspan x="0" y="0">Optimization and </tspan></text>
    <text class="cls-43" transform="translate(224.18 132.01)"><tspan x="0" y="0">Intelligence </tspan></text>
    <text class="cls-43" transform="translate(229.19 157.01)"><tspan x="0" y="0">th</tspan><tspan class="cls-51" x="18.14" y="0">r</tspan><tspan x="24.84" y="0">ough AI</tspan></text>
  </g>
  <g class="cls-40">
    <text class="cls-5" transform="translate(790 252.08)"><tspan x="0" y="0">https://github.com/srsran/oran-sc-ric/</tspan></text>
    <rect class="cls-3" x="506.05" y="673.48" width="262.19" height="76.64"/>
  </g>
  <g class="cls-39">
    <text class="cls-6" transform="translate(534.94 706.75)"><tspan x="0" y="0">srsRAN P</tspan><tspan class="cls-47" x="129.42" y="0">r</tspan><tspan x="138.87" y="0">oject</tspan></text>
    <text class="cls-6" transform="translate(512.72 739.24)"><tspan x="0" y="0">(5G Co</tspan><tspan class="cls-47" x="94.44" y="0">r</tspan><tspan x="103.89" y="0">e Network)</tspan></text>
  </g>
  <g class="cls-12">
    <text class="cls-5" transform="translate(1501.81 708.28)"><tspan x="0" y="0">https://github.com/srsran/srsRAN_P</tspan><tspan class="cls-48" x="243.63" y="0">r</tspan><tspan x="248.37" y="0">oject</tspan></text>
    <line class="cls-2" x1="1224.46" y1="666.69" x2="1067.91" y2="601.96"/>
    <circle class="cls-32" cx="1097.15" cy="597.04" r="72.5"/>
  </g>
  <g class="cls-9">
    <text class="cls-43" transform="translate(1042.33 604.46)"><tspan x="0" y="0">Central Unit</tspan></text>
  </g>
  <g class="cls-16">
    <line class="cls-2" x1="1354.94" y1="650.28" x2="1354.94" y2="467"/>
    <circle class="cls-32" cx="1354.94" cy="452.5" r="72.5"/>
  </g>
  <g class="cls-14">
    <text class="cls-43" transform="translate(1301.6 447.45)"><tspan x="0" y="0">Distribution </tspan></text>
    <text class="cls-43" transform="translate(1336.24 472.45)"><tspan x="0" y="0">Unit</tspan></text>
  </g>
  <g class="cls-15">
    <circle class="cls-32" cx="923.68" cy="577.34" r="49.04"/>
  </g>
  <g class="cls-13">
    <text class="cls-43" transform="translate(902.18 572.8)"><tspan x="0" y="0">User </tspan></text>
    <text class="cls-43" transform="translate(897.73 597.8)"><tspan x="0" y="0">Plane</tspan></text>
  </g>
  <g class="cls-10">
    <path class="cls-32" d="M1100.42,407.58c19.15,19.15,19.15,50.2,0,69.35-19.15,19.15-50.2,19.15-69.35,0-19.15-19.15-19.15-50.2,0-69.35,19.15-19.15,50.2-19.15,69.35,0Z"/>
  </g>
  <g class="cls-7">
    <text class="cls-43" transform="translate(1031.84 437.35)"><tspan x="0" y="0">Cont</tspan><tspan class="cls-50" x="44.44" y="0">r</tspan><tspan x="51.14" y="0">ol </tspan></text>
    <text class="cls-43" transform="translate(1039.8 462.35)"><tspan x="0" y="0">Plane</tspan></text>
  </g>
  <g class="cls-11">
    <rect class="cls-3" x="1223.85" y="648.62" width="262.19" height="109.13"/>
  </g>
  <g class="cls-8">
    <text class="cls-6" transform="translate(1252.73 681.89)"><tspan x="0" y="0">srsRAN P</tspan><tspan class="cls-47" x="129.42" y="0">r</tspan><tspan x="138.87" y="0">oject</tspan></text>
    <text class="cls-6" transform="translate(1295.78 714.38)"><tspan x="0" y="0">(gNodeB </tspan></text>
    <text class="cls-6" transform="translate(1239.94 746.86)"><tspan x="0" y="0">5G-Base Station)</tspan></text>
  </g>
  <g class="cls-26">
    <circle class="cls-32" cx="231.79" cy="536.76" r="91.64"/>
  </g>
  <g class="cls-27">
    <text class="cls-43" transform="translate(177.85 518.71)"><tspan x="0" y="0">Access and </tspan></text>
    <text class="cls-43" transform="translate(195.09 543.71)"><tspan x="0" y="0">Mobility </tspan></text>
    <text class="cls-43" transform="translate(171.2 568.71)"><tspan x="0" y="0">Management</tspan></text>
  </g>
  <g class="cls-28">
    <circle class="cls-32" cx="457.57" cy="511.4" r="72.5"/>
  </g>
  <g class="cls-29">
    <text class="cls-43" transform="translate(421.07 493.71)"><tspan x="0" y="0">Session </tspan></text>
    <text class="cls-43" transform="translate(397 518.71)"><tspan x="0" y="0">Management </tspan></text>
    <text class="cls-43" transform="translate(417.19 543.71)"><tspan x="0" y="0">Function</tspan></text>
  </g>
  <g class="cls-30">
    <circle class="cls-32" cx="223.12" cy="795.43" r="72.5"/>
  </g>
  <g class="cls-31">
    <text class="cls-43" transform="translate(194.95 777.94)"><tspan x="0" y="0">Policy </tspan></text>
    <text class="cls-43" transform="translate(189.22 802.94)"><tspan x="0" y="0">Cont</tspan><tspan class="cls-50" x="44.44" y="0">r</tspan><tspan x="51.14" y="0">ol </tspan></text>
    <text class="cls-43" transform="translate(182.74 827.94)"><tspan x="0" y="0">Function</tspan></text>
  </g>
  <g class="cls-24">
    <circle class="cls-32" cx="427.59" cy="884.07" r="72.5"/>
  </g>
  <g class="cls-22">
    <text class="cls-43" transform="translate(377.38 878.99)"><tspan x="0" y="0">User Plane </tspan></text>
    <text class="cls-43" transform="translate(387.21 903.99)"><tspan x="0" y="0">Funciton</tspan></text>
  </g>
  <g class="cls-25">
    <polyline class="cls-4" points="1268.65 646.53 1268.65 336.61 615.36 336.61 615.36 283.21"/>
    <text class="cls-6" transform="translate(651.5 323.59)"><tspan x="0" y="0">E2</tspan></text>
    <text class="cls-5" transform="translate(515.26 774.14)"><tspan x="0" y="0">https://github.com/srsran/srsRAN_P</tspan><tspan class="cls-48" x="243.63" y="0">r</tspan><tspan x="248.37" y="0">oject</tspan></text>
    <line class="cls-4" x1="770.36" y1="716.04" x2="1223.66" y2="716.04"/>
    <text class="cls-6" transform="translate(794.44 702.98)"><tspan x="0" y="0">NG-C/NG-U</tspan></text>
    <rect class="cls-3" x="1223.85" y="898.24" width="262.19" height="109.13"/>
  </g>
  <g class="cls-23">
    <text class="cls-6" transform="translate(1276.9 931.51)"><tspan x="0" y="0">srsRAN_4G</tspan></text>
    <text class="cls-6" transform="translate(1331.06 963.99)"><tspan x="0" y="0">(UE </tspan></text>
    <text class="cls-6" transform="translate(1242.97 996.48)"><tspan x="0" y="0">User Equipment)</tspan></text>
  </g>
  <g class="cls-21">
    <text class="cls-5" transform="translate(1233.73 1038.59)"><tspan x="0" y="0">https://github.com/srsran/srsran_4g</tspan></text>
    <line class="cls-4" x1="1350.51" y1="758.45" x2="1350.51" y2="897.54"/>
    <path class="cls-32" d="M1088.9,895.63c31.58,31.58,31.58,82.77,0,114.35-31.58,31.58-82.77,31.58-114.35,0-31.58-31.58-31.58-82.77,0-114.35,31.58-31.58,82.77-31.58,114.35,0Z"/>
  </g>
  <g class="cls-17">
    <text class="cls-43" transform="translate(990.58 947.93)"><tspan x="0" y="0">Softwa</tspan><tspan class="cls-49" x="64.46" y="0">r</tspan><tspan class="cls-44" x="71.16" y="0">e </tspan></text>
    <text class="cls-43" transform="translate(976.13 972.93)"><tspan x="0" y="0">De</tspan></text>
    <text class="cls-43" transform="translate(1001.69 972.93)"><tspan x="0" y="0">ﬁ</tspan></text>
    <text class="cls-43" transform="translate(1012.81 972.93)"><tspan x="0" y="0">ned </tspan><tspan class="cls-46" x="40.38" y="0">L</tspan><tspan x="50.04" y="0">TE</tspan></text>
  </g>
  <g class="cls-18">
    <path class="cls-32" d="M1726.48,797.12c31.58,31.58,31.58,82.77,0,114.35-31.58,31.58-82.77,31.58-114.35,0-31.58-31.58-31.58-82.77,0-114.35,31.58-31.58,82.77-31.58,114.35,0Z"/>
  </g>
  <g class="cls-19">
    <text class="cls-43" transform="translate(1635.57 836.83)"><tspan class="cls-45" x="0" y="0">L</tspan><tspan x="9.66" y="0">TE/5G </tspan></text>
    <text class="cls-43" transform="translate(1602.4 861.83)"><tspan x="0" y="0">P</tspan><tspan class="cls-51" x="13.34" y="0">r</tspan><tspan x="20.04" y="0">otocol stack </tspan></text>
    <text class="cls-43" transform="translate(1629.27 886.83)"><tspan x="0" y="0">behavior</tspan></text>
  </g>
  <g class="cls-20">
    <text class="cls-6" transform="translate(989.6 797.23)"><tspan x="0" y="0">Uu (RF/NR-</tspan><tspan class="cls-45" x="156.09" y="0">L</tspan><tspan x="170.04" y="0">TE p</tspan><tspan class="cls-50" x="231.72" y="0">r</tspan><tspan x="241.2" y="0">otocols)</tspan></text>
  </g>
</svg>