<?xml version="1.0" encoding="UTF-8"?>
<svg id="Ebene_1" xmlns="http://www.w3.org/2000/svg" xmlns:xlink="http://www.w3.org/1999/xlink" version="1.1" viewBox="0 0 770 617.4">
  <!-- Generator: Adobe Illustrator 29.4.0, SVG Export Plug-In . SVG Version: 2.1.0 Build 152)  -->
  <defs>
    <style>
      .st0, .st1, .st2 {
        fill: none;
      }

      .st1 {
        stroke: #66aab9;
        stroke-width: 3px;
      }

      .st3 {
        font-size: 29.7px;
      }

      .st3, .st4 {
        font-family: HelveticaNeue, 'Helvetica Neue';
      }

      .st4 {
        font-size: 18.6px;
      }

      .st5 {
        clip-path: url(#clippath-17);
      }

      .st6 {
        clip-path: url(#clippath-19);
      }

      .st7 {
        clip-path: url(#clippath-11);
      }

      .st8 {
        clip-path: url(#clippath-16);
      }

      .st9 {
        clip-path: url(#clippath-18);
      }

      .st10 {
        clip-path: url(#clippath-10);
      }

      .st11 {
        clip-path: url(#clippath-15);
      }

      .st12 {
        clip-path: url(#clippath-13);
      }

      .st13 {
        clip-path: url(#clippath-14);
      }

      .st14 {
        clip-path: url(#clippath-12);
      }

      .st15 {
        clip-path: url(#clippath-27);
      }

      .st16 {
        clip-path: url(#clippath-26);
      }

      .st17 {
        clip-path: url(#clippath-28);
      }

      .st18 {
        clip-path: url(#clippath-20);
      }

      .st19 {
        clip-path: url(#clippath-21);
      }

      .st20 {
        clip-path: url(#clippath-22);
      }

      .st21 {
        clip-path: url(#clippath-23);
      }

      .st22 {
        clip-path: url(#clippath-24);
      }

      .st23 {
        clip-path: url(#clippath-25);
      }

      .st24 {
        clip-path: url(#clippath-1);
      }

      .st25 {
        clip-path: url(#clippath-3);
      }

      .st26 {
        clip-path: url(#clippath-4);
      }

      .st27 {
        clip-path: url(#clippath-2);
      }

      .st28 {
        clip-path: url(#clippath-7);
      }

      .st29 {
        clip-path: url(#clippath-6);
      }

      .st30 {
        clip-path: url(#clippath-9);
      }

      .st31 {
        clip-path: url(#clippath-8);
      }

      .st32 {
        clip-path: url(#clippath-5);
      }

      .st33 {
        letter-spacing: 0em;
      }

      .st34 {
        fill: #646565;
      }

      .st35 {
        fill: #fff;
        font-family: HelveticaNeue-Medium, 'Helvetica Neue';
        font-size: 12.4px;
        font-weight: 500;
      }

      .st36 {
        letter-spacing: 0em;
      }

      .st37 {
        letter-spacing: -.1em;
      }

      .st38 {
        letter-spacing: -.1em;
      }

      .st39 {
        letter-spacing: 0em;
      }

      .st40 {
        letter-spacing: 0em;
      }

      .st41 {
        letter-spacing: 0em;
      }

      .st42 {
        letter-spacing: 0em;
      }

      .st43 {
        letter-spacing: 0em;
      }

      .st44 {
        fill: #66aab9;
      }

      .st45 {
        clip-path: url(#clippath);
      }

      .st2 {
        stroke: #000;
        stroke-width: 4px;
      }
    </style>
    <clipPath id="clippath">
      <rect class="st0" x="-141.6" width="1187.9" height="668.2"/>
    </clipPath>
    <clipPath id="clippath-1">
      <rect class="st0" x="269.8" y="40.6" width="282.1" height="39.4"/>
    </clipPath>
    <clipPath id="clippath-2">
      <rect class="st0" x="-141.6" width="1187.9" height="668.2"/>
    </clipPath>
    <clipPath id="clippath-3">
      <rect class="st0" x="334.5" y="144.4" width="152.3" height="43.4"/>
    </clipPath>
    <clipPath id="clippath-4">
      <rect class="st0" x="-141.6" width="1187.9" height="668.2"/>
    </clipPath>
    <clipPath id="clippath-5">
      <rect class="st0" x="199" y="262.6" width="75.4" height="39.4"/>
    </clipPath>
    <clipPath id="clippath-6">
      <rect class="st0" x="-141.6" width="1187.9" height="668.2"/>
    </clipPath>
    <clipPath id="clippath-7">
      <rect class="st0" x="290.5" y="262.6" width="75.4" height="39.4"/>
    </clipPath>
    <clipPath id="clippath-8">
      <rect class="st0" x="-141.6" width="1187.9" height="668.2"/>
    </clipPath>
    <clipPath id="clippath-9">
      <rect class="st0" x="547.3" y="265.1" width="75.2" height="34.5"/>
    </clipPath>
    <clipPath id="clippath-10">
      <rect class="st0" x="-141.6" width="1187.9" height="668.2"/>
    </clipPath>
    <clipPath id="clippath-11">
      <rect class="st0" x="198.5" y="307.9" width="424.6" height="34.5"/>
    </clipPath>
    <clipPath id="clippath-12">
      <rect class="st0" x="-141.6" width="1187.9" height="668.2"/>
    </clipPath>
    <clipPath id="clippath-13">
      <rect class="st0" x="198.1" y="350.7" width="105.7" height="61.9"/>
    </clipPath>
    <clipPath id="clippath-14">
      <rect class="st0" x="-141.6" width="1187.9" height="668.2"/>
    </clipPath>
    <clipPath id="clippath-15">
      <rect class="st0" x="305.2" y="350.7" width="105.6" height="61.9"/>
    </clipPath>
    <clipPath id="clippath-16">
      <rect class="st0" x="-141.6" width="1187.9" height="668.2"/>
    </clipPath>
    <clipPath id="clippath-17">
      <rect class="st0" x="412.1" y="350.7" width="105.7" height="61.9"/>
    </clipPath>
    <clipPath id="clippath-18">
      <rect class="st0" x="-141.6" width="1187.9" height="668.2"/>
    </clipPath>
    <clipPath id="clippath-19">
      <rect class="st0" x="519.2" y="348.2" width="105.6" height="61.9"/>
    </clipPath>
    <clipPath id="clippath-20">
      <rect class="st0" x="-141.6" width="1187.9" height="668.2"/>
    </clipPath>
    <clipPath id="clippath-21">
      <rect class="st0" x="198.4" y="420.9" width="214" height="39.4"/>
    </clipPath>
    <clipPath id="clippath-22">
      <rect class="st0" x="-141.6" width="1187.9" height="668.2"/>
    </clipPath>
    <clipPath id="clippath-23">
      <rect class="st0" x="198.4" y="468.6" width="214" height="39.4"/>
    </clipPath>
    <clipPath id="clippath-24">
      <rect class="st0" x="-141.6" width="1187.9" height="668.2"/>
    </clipPath>
    <clipPath id="clippath-25">
      <rect class="st0" x="450.1" y="466.6" width="152.3" height="43.4"/>
    </clipPath>
    <clipPath id="clippath-26">
      <rect class="st0" x="-141.6" width="1187.9" height="668.2"/>
    </clipPath>
    <clipPath id="clippath-27">
      <rect class="st0" x="208.3" y="556.4" width="404.8" height="43.4"/>
    </clipPath>
    <clipPath id="clippath-28">
      <rect class="st0" x="-141.6" width="1187.9" height="668.2"/>
    </clipPath>
  </defs>
  <g class="st45">
    <path class="st1" d="M270.4,136.1h280.6c26.5,0,42.4,0,53,4.4,15.3,5.6,27.3,17.6,32.9,32.9,4.4,10.6,4.4,26.5,4.4,53v224.7c0,26.5,0,42.4-4.4,53-5.6,15.3-17.6,27.3-32.9,32.9-10.6,4.4-26.5,4.4-53,4.4h-280.6c-26.5,0-42.4,0-53-4.4-15.3-5.6-27.3-17.6-32.9-32.9-4.4-10.6-4.4-26.5-4.4-53v-224.7c0-26.5,0-42.4,4.4-53,5.6-15.3,17.6-27.3,32.9-32.9,10.6-4.4,26.5-4.4,53-4.4Z"/>
    <path class="st44" d="M284.9,40.6h251.6c4.2,0,6.7,0,8.3.7,2.4.9,4.3,2.8,5.2,5.2.7,1.7.7,4.2.7,8.3v11c0,4.2,0,6.7-.7,8.3-.9,2.4-2.8,4.3-5.2,5.2-1.7.7-4.2.7-8.3.7h-251.6c-4.2,0-6.7,0-8.3-.7-2.4-.9-4.3-2.8-5.2-5.2-.7-1.7-.7-4.2-.7-8.3v-11c0-4.2,0-6.7.7-8.3.9-2.4,2.8-4.3,5.2-5.2,1.7-.7,4.2-.7,8.3-.7Z"/>
  </g>
  <g class="st24">
    <text class="st35" transform="translate(376.5 65.1)"><tspan x="0" y="0">Non-</tspan><tspan class="st39" x="28.2" y="0">R</tspan><tspan x="36.7" y="0">T RIC</tspan></text>
  </g>
  <g class="st27">
    <path class="st1" d="M267.8,8.1h285.8c16.6,0,26.5,0,33.2,2.5,10.1,3.7,18,11.6,21.7,21.7,2,4.3,2.5,15.1,2.5,22.9s-.5,18.5-2.5,22.9c-3.7,10.1-11.6,18-21.7,21.7-6.6,2.5-16.6,2.5-33.2,2.5h-285.8c-16.6,0-26.5,0-33.2-2.5-10.1-3.7-18-11.6-21.7-21.7-2-4.3-2.5-15.1-2.5-22.9s.5-18.5,2.5-22.9c3.7-10.1,11.6-18,21.7-21.7,6.6-2.5,16.6-2.5,33.2-2.5Z"/>
    <text class="st4" transform="translate(389.2 30.6)"><tspan x="0" y="0">SMO</tspan></text>
    <path class="st34" d="M349.9,144.4h121.6c4.2,0,6.7,0,8.3.7,2.4.9,4.3,2.8,5.2,5.2.7,1.7.7,4.2.7,8.3v15c0,4.2,0,6.7-.7,8.3-.9,2.4-2.8,4.3-5.2,5.2-1.7.7-4.2.7-8.3.7h-121.6c-4.2,0-6.7,0-8.3-.7-2.4-.9-4.3-2.8-5.2-5.2-.7-1.7-.7-4.2-.7-8.3v-15c0-4.2,0-6.7.7-8.3.9-2.4,2.8-4.3,5.2-5.2,1.7-.7,4.2-.7,8.3-.7Z"/>
  </g>
  <g class="st25">
    <text class="st35" transform="translate(368.1 170.8)"><tspan x="0" y="0">A1 </tspan><tspan class="st37" x="18.6" y="0">T</tspan><tspan x="24.5" y="0">ermination</tspan></text>
  </g>
  <g class="st26">
    <path class="st44" d="M214.1,262.6h44.9c4.2,0,6.7,0,8.3.7,2.4.9,4.3,2.8,5.2,5.2.7,1.7.7,4.2.7,8.3v11c0,4.2,0,6.7-.7,8.3-.9,2.4-2.8,4.3-5.2,5.2-1.7.7-4.2.7-8.3.7h-44.9c-4.2,0-6.7,0-8.3-.7-2.4-.9-4.3-2.8-5.2-5.2-.7-1.7-.7-4.2-.7-8.3v-11c0-4.2,0-6.7.7-8.3.9-2.4,2.8-4.3,5.2-5.2,1.7-.7,4.2-.7,8.3-.7Z"/>
  </g>
  <g class="st32">
    <text class="st35" transform="translate(218.3 287.1)"><tspan x="0" y="0">xApp1</tspan></text>
  </g>
  <g class="st29">
    <path class="st44" d="M305.6,262.6h44.9c4.2,0,6.7,0,8.3.7,2.4.9,4.3,2.8,5.2,5.2.7,1.7.7,4.2.7,8.3v11c0,4.2,0,6.7-.7,8.3-.9,2.4-2.8,4.3-5.2,5.2-1.7.7-4.2.7-8.3.7h-44.9c-4.2,0-6.7,0-8.3-.7-2.4-.9-4.3-2.8-5.2-5.2-.7-1.7-.7-4.2-.7-8.3v-11c0-4.2,0-6.7.7-8.3.9-2.4,2.8-4.3,5.2-5.2,1.7-.7,4.2-.7,8.3-.7Z"/>
  </g>
  <g class="st28">
    <text class="st35" transform="translate(309.8 287.1)"><tspan x="0" y="0">xApp2</tspan></text>
  </g>
  <g class="st31">
    <path class="st44" d="M562.3,265.1h44.9c4.2,0,6.7,0,8.3.7,2.4.9,4.3,2.8,5.2,5.2.7,1.7.7,4.2.7,8.3v6.1c0,4.2,0,6.7-.7,8.3-.9,2.4-2.8,4.3-5.2,5.2-1.7.7-4.2.7-8.3.7h-44.9c-4.2,0-6.7,0-8.3-.7-2.4-.9-4.3-2.8-5.2-5.2-.7-1.7-.7-4.2-.7-8.3v-6.1c0-4.2,0-6.7.7-8.3.9-2.4,2.8-4.3,5.2-5.2,1.7-.7,4.2-.7,8.3-.7Z"/>
  </g>
  <g class="st30">
    <text class="st35" transform="translate(566.5 287.1)"><tspan x="0" y="0">xApp2</tspan></text>
  </g>
  <g class="st10">
    <text class="st3" transform="translate(441.3 293.2)"><tspan x="0" y="0">…</tspan></text>
    <path class="st44" d="M213.5,307.9h394.3c4.2,0,6.7,0,8.3.7,2.4.9,4.3,2.8,5.2,5.2.7,1.7.7,4.2.7,8.3v6.1c0,4.2,0,6.7-.7,8.3-.9,2.4-2.8,4.3-5.2,5.2-1.7.7-4.2.7-8.3.7H213.5c-4.2,0-6.7,0-8.3-.7-2.4-.9-4.3-2.8-5.2-5.2-.7-1.7-.7-4.2-.7-8.3v-6.1c0-4.2,0-6.7.7-8.3.9-2.4,2.8-4.3,5.2-5.2,1.7-.7,4.2-.7,8.3-.7Z"/>
  </g>
  <g class="st7">
    <text class="st35" transform="translate(339.6 329.9)"><tspan x="0" y="0">Messaging Infrastructu</tspan><tspan class="st42" x="131.6" y="0">r</tspan><tspan class="st33" x="135.7" y="0">e</tspan></text>
  </g>
  <g class="st14">
    <path class="st44" d="M213.5,350.7h75c4.2,0,6.7,0,8.3.7,2.4.9,4.3,2.8,5.2,5.2.7,1.7.7,4.2.7,8.3v33.5c0,4.2,0,6.7-.7,8.3-.9,2.4-2.8,4.3-5.2,5.2-1.7.7-4.2.7-8.3.7h-75c-4.2,0-6.7,0-8.3-.7-2.4-.9-4.3-2.8-5.2-5.2-.7-1.7-.7-4.2-.7-8.3v-33.5c0-4.2,0-6.7.7-8.3.9-2.4,2.8-4.3,5.2-5.2,1.7-.7,4.2-.7,8.3-.7Z"/>
  </g>
  <g class="st12">
    <text class="st35" transform="translate(228.9 378.6)"><tspan x="0" y="0">Con</tspan></text>
    <text class="st35" transform="translate(252.2 378.6)"><tspan x="0" y="0">ﬂ</tspan></text>
    <text class="st35" transform="translate(259.1 378.6)"><tspan x="0" y="0" xml:space="preserve">ict  </tspan></text>
    <text class="st35" transform="translate(222.6 394)"><tspan x="0" y="0">Mitigation</tspan></text>
  </g>
  <g class="st13">
    <path class="st44" d="M320.5,350.7h75c4.2,0,6.7,0,8.3.7,2.4.9,4.3,2.8,5.2,5.2.7,1.7.7,4.2.7,8.3v33.5c0,4.2,0,6.7-.7,8.3-.9,2.4-2.8,4.3-5.2,5.2-1.7.7-4.2.7-8.3.7h-75c-4.2,0-6.7,0-8.3-.7-2.4-.9-4.3-2.8-5.2-5.2-.7-1.7-.7-4.2-.7-8.3v-33.5c0-4.2,0-6.7.7-8.3.9-2.4,2.8-4.3,5.2-5.2,1.7-.7,4.2-.7,8.3-.7Z"/>
  </g>
  <g class="st11">
    <text class="st35" transform="translate(343 370.8)"><tspan x="0" y="0" xml:space="preserve">Xapp  </tspan></text>
    <text class="st35" transform="translate(321.8 386.3)"><tspan x="0" y="0">Subscription </tspan></text>
    <text class="st35" transform="translate(320.5 401.8)"><tspan x="0" y="0">Management</tspan></text>
  </g>
  <g class="st8">
    <path class="st44" d="M427.5,350.7h75c4.2,0,6.7,0,8.3.7,2.4.9,4.3,2.8,5.2,5.2.7,1.7.7,4.2.7,8.3v33.5c0,4.2,0,6.7-.7,8.3-.9,2.4-2.8,4.3-5.2,5.2-1.7.7-4.2.7-8.3.7h-75c-4.2,0-6.7,0-8.3-.7-2.4-.9-4.3-2.8-5.2-5.2-.7-1.7-.7-4.2-.7-8.3v-33.5c0-4.2,0-6.7.7-8.3.9-2.4,2.8-4.3,5.2-5.2,1.7-.7,4.2-.7,8.3-.7Z"/>
  </g>
  <g class="st5">
    <text class="st35" transform="translate(427.5 378.6)"><tspan x="0" y="0">Management </tspan></text>
    <text class="st35" transform="translate(440.6 394)"><tspan x="0" y="0">Services</tspan></text>
  </g>
  <g class="st9">
    <path class="st44" d="M534.5,348.2h75c4.2,0,6.7,0,8.3.7,2.4.9,4.3,2.8,5.2,5.2.7,1.7.7,4.2.7,8.3v33.5c0,4.2,0,6.7-.7,8.3-.9,2.4-2.8,4.3-5.2,5.2-1.7.7-4.2.7-8.3.7h-75c-4.2,0-6.7,0-8.3-.7-2.4-.9-4.3-2.8-5.2-5.2-.7-1.7-.7-4.2-.7-8.3v-33.5c0-4.2,0-6.7.7-8.3.9-2.4,2.8-4.3,5.2-5.2,1.7-.7,4.2-.7,8.3-.7Z"/>
  </g>
  <g class="st6">
    <text class="st35" transform="translate(548.6 383.9)"><tspan x="0" y="0">Security</tspan></text>
  </g>
  <g class="st18">
    <path class="st44" d="M213.5,420.9h183.5c4.2,0,6.7,0,8.3.7,2.4.9,4.3,2.8,5.2,5.2.7,1.7.7,4.2.7,8.3v11c0,4.2,0,6.7-.7,8.3-.9,2.4-2.8,4.3-5.2,5.2-1.7.7-4.2.7-8.3.7h-183.5c-4.2,0-6.7,0-8.3-.7-2.4-.9-4.3-2.8-5.2-5.2-.7-1.7-.7-4.2-.7-8.3v-11c0-4.2,0-6.7.7-8.3.9-2.4,2.8-4.3,5.2-5.2,1.7-.7,4.2-.7,8.3-.7Z"/>
  </g>
  <g class="st19">
    <text class="st35" transform="translate(252.4 445.4)"><tspan x="0" y="0">Sha</tspan><tspan class="st41" x="22" y="0">r</tspan><tspan class="st36" x="26.1" y="0">ed Data Layer</tspan></text>
  </g>
  <g class="st20">
    <path class="st44" d="M213.5,468.6h183.5c4.2,0,6.7,0,8.3.7,2.4.9,4.3,2.8,5.2,5.2.7,1.7.7,4.2.7,8.3v11c0,4.2,0,6.7-.7,8.3-.9,2.4-2.8,4.3-5.2,5.2-1.7.7-4.2.7-8.3.7h-183.5c-4.2,0-6.7,0-8.3-.7-2.4-.9-4.3-2.8-5.2-5.2-.7-1.7-.7-4.2-.7-8.3v-11c0-4.2,0-6.7.7-8.3.9-2.4,2.8-4.3,5.2-5.2,1.7-.7,4.2-.7,8.3-.7Z"/>
  </g>
  <g class="st21">
    <text class="st35" transform="translate(278.1 493.1)"><tspan x="0" y="0">Database</tspan></text>
  </g>
  <g class="st22">
    <path class="st34" d="M465.4,466.6h121.6c4.2,0,6.7,0,8.3.7,2.4.9,4.3,2.8,5.2,5.2.7,1.7.7,4.2.7,8.3v15c0,4.2,0,6.7-.7,8.3-.9,2.4-2.8,4.3-5.2,5.2-1.7.7-4.2.7-8.3.7h-121.6c-4.2,0-6.7,0-8.3-.7-2.4-.9-4.3-2.8-5.2-5.2-.7-1.7-.7-4.2-.7-8.3v-15c0-4.2,0-6.7.7-8.3.9-2.4,2.8-4.3,5.2-5.2,1.7-.7,4.2-.7,8.3-.7Z"/>
  </g>
  <g class="st23">
    <text class="st35" transform="translate(483.7 492.9)"><tspan x="0" y="0">A2 </tspan><tspan class="st38" x="18.6" y="0">T</tspan><tspan x="24.5" y="0">ermination</tspan></text>
  </g>
  <g class="st16">
    <polyline class="st2" points="410.7 136.3 410.7 135.1 410.7 94 410.7 92.8"/>
    <polygon points="415.9 94 410.7 83.6 405.5 94 415.9 94"/>
    <polygon points="405.5 135.1 410.7 145.5 415.9 135.1 405.5 135.1"/>
    <path class="st34" d="M223.6,556.4h374.1c4.2,0,6.7,0,8.3.7,2.4.9,4.3,2.8,5.2,5.2.7,1.7.7,4.2.7,8.3v15c0,4.2,0,6.7-.7,8.3-.9,2.4-2.8,4.3-5.2,5.2-1.7.7-4.2.7-8.3.7H223.6c-4.2,0-6.7,0-8.3-.7-2.4-.9-4.3-2.8-5.2-5.2-.7-1.7-.7-4.2-.7-8.3v-15c0-4.2,0-6.7.7-8.3.9-2.4,2.8-4.3,5.2-5.2,1.7-.7,4.2-.7,8.3-.7Z"/>
  </g>
  <g class="st15">
    <text class="st35" transform="translate(379.6 582.7)"><tspan x="0" y="0">E2 Node(s)</tspan></text>
  </g>
  <g class="st17">
    <polyline class="st2" points="526.2 547.3 526.2 546.1 526.2 520.3 526.2 519.1"/>
    <polygon points="531.4 520.3 526.2 509.9 521 520.3 531.4 520.3"/>
    <polygon points="521 546.1 526.2 556.4 531.4 546.1 521 546.1"/>
    <text class="st4" transform="translate(520.8 173)"><tspan x="0" y="0">nea</tspan><tspan class="st43" x="30.3" y="0">r</tspan><tspan x="35.4" y="0">-</tspan><tspan class="st40" x="42.6" y="0">R</tspan><tspan x="55" y="0">T RIC</tspan></text>
  </g>
</svg>