<?xml version="1.0" encoding="UTF-8"?>
<svg id="Ebene_1" xmlns="http://www.w3.org/2000/svg" xmlns:xlink="http://www.w3.org/1999/xlink" version="1.1" viewBox="0 0 1007.4 603.1">
  <!-- Generator: Adobe Illustrator 29.4.0, SVG Export Plug-In . SVG Version: 2.1.0 Build 152)  -->
  <defs>
    <style>
      .st0, .st1, .st2 {
        fill: none;
      }

      .st1 {
        stroke: #66aab9;
        stroke-width: 3px;
      }

      .st3, .st4, .st5, .st6 {
        isolation: isolate;
      }

      .st7 {
        clip-path: url(#clippath-17);
      }

      .st8 {
        clip-path: url(#clippath-19);
      }

      .st9 {
        clip-path: url(#clippath-11);
      }

      .st10 {
        clip-path: url(#clippath-16);
      }

      .st11 {
        clip-path: url(#clippath-18);
      }

      .st12 {
        clip-path: url(#clippath-10);
      }

      .st13 {
        clip-path: url(#clippath-15);
      }

      .st14 {
        clip-path: url(#clippath-13);
      }

      .st15 {
        clip-path: url(#clippath-14);
      }

      .st16 {
        clip-path: url(#clippath-12);
      }

      .st17 {
        clip-path: url(#clippath-27);
      }

      .st18 {
        clip-path: url(#clippath-26);
      }

      .st19 {
        clip-path: url(#clippath-28);
      }

      .st20 {
        clip-path: url(#clippath-20);
      }

      .st21 {
        clip-path: url(#clippath-21);
      }

      .st22 {
        clip-path: url(#clippath-22);
      }

      .st23 {
        clip-path: url(#clippath-23);
      }

      .st24 {
        clip-path: url(#clippath-24);
      }

      .st25 {
        clip-path: url(#clippath-25);
      }

      .st26 {
        clip-path: url(#clippath-1);
      }

      .st27 {
        clip-path: url(#clippath-3);
      }

      .st28 {
        clip-path: url(#clippath-4);
      }

      .st29 {
        clip-path: url(#clippath-2);
      }

      .st30 {
        clip-path: url(#clippath-7);
      }

      .st31 {
        clip-path: url(#clippath-6);
      }

      .st32 {
        clip-path: url(#clippath-9);
      }

      .st33 {
        clip-path: url(#clippath-8);
      }

      .st34 {
        clip-path: url(#clippath-5);
      }

      .st35 {
        fill: #646565;
      }

      .st4 {
        fill: #fff;
        font-family: HelveticaNeue-Medium, 'Helvetica Neue';
        font-size: 12.4px;
        font-weight: 500;
      }

      .st5 {
        font-size: 18.6px;
      }

      .st5, .st6 {
        font-family: HelveticaNeue, 'Helvetica Neue';
      }

      .st36 {
        fill: #66aab9;
      }

      .st6 {
        font-size: 29.7px;
      }

      .st37 {
        clip-path: url(#clippath);
      }

      .st2 {
        stroke: #000;
        stroke-width: 4px;
      }
    </style>
    <clipPath id="clippath">
      <rect class="st0" x="-48.3" y="-2.5" width="1187.9" height="668.2"/>
    </clipPath>
    <clipPath id="clippath-1">
      <rect class="st0" x="363.1" y="38.2" width="282.1" height="39.4"/>
    </clipPath>
    <clipPath id="clippath-2">
      <rect class="st0" x="-48.3" y="-2.5" width="1187.9" height="668.2"/>
    </clipPath>
    <clipPath id="clippath-3">
      <rect class="st0" x="427.8" y="141.9" width="152.3" height="43.4"/>
    </clipPath>
    <clipPath id="clippath-4">
      <rect class="st0" x="-48.3" y="-2.5" width="1187.9" height="668.2"/>
    </clipPath>
    <clipPath id="clippath-5">
      <rect class="st0" x="292.3" y="260.1" width="75.4" height="39.4"/>
    </clipPath>
    <clipPath id="clippath-6">
      <rect class="st0" x="-48.3" y="-2.5" width="1187.9" height="668.2"/>
    </clipPath>
    <clipPath id="clippath-7">
      <rect class="st0" x="383.8" y="260.1" width="75.4" height="39.4"/>
    </clipPath>
    <clipPath id="clippath-8">
      <rect class="st0" x="-48.3" y="-2.5" width="1187.9" height="668.2"/>
    </clipPath>
    <clipPath id="clippath-9">
      <rect class="st0" x="640.6" y="262.6" width="75.2" height="34.5"/>
    </clipPath>
    <clipPath id="clippath-10">
      <rect class="st0" x="-48.3" y="-2.5" width="1187.9" height="668.2"/>
    </clipPath>
    <clipPath id="clippath-11">
      <rect class="st0" x="291.8" y="305.4" width="424.6" height="34.5"/>
    </clipPath>
    <clipPath id="clippath-12">
      <rect class="st0" x="-48.3" y="-2.5" width="1187.9" height="668.2"/>
    </clipPath>
    <clipPath id="clippath-13">
      <rect class="st0" x="291.4" y="348.2" width="105.7" height="61.9"/>
    </clipPath>
    <clipPath id="clippath-14">
      <rect class="st0" x="-48.3" y="-2.5" width="1187.9" height="668.2"/>
    </clipPath>
    <clipPath id="clippath-15">
      <rect class="st0" x="398.5" y="348.2" width="105.6" height="61.9"/>
    </clipPath>
    <clipPath id="clippath-16">
      <rect class="st0" x="-48.3" y="-2.5" width="1187.9" height="668.2"/>
    </clipPath>
    <clipPath id="clippath-17">
      <rect class="st0" x="505.5" y="348.2" width="105.7" height="61.9"/>
    </clipPath>
    <clipPath id="clippath-18">
      <rect class="st0" x="-48.3" y="-2.5" width="1187.9" height="668.2"/>
    </clipPath>
    <clipPath id="clippath-19">
      <rect class="st0" x="612.5" y="345.8" width="105.6" height="61.9"/>
    </clipPath>
    <clipPath id="clippath-20">
      <rect class="st0" x="-48.3" y="-2.5" width="1187.9" height="668.2"/>
    </clipPath>
    <clipPath id="clippath-21">
      <rect class="st0" x="291.7" y="418.4" width="214" height="39.4"/>
    </clipPath>
    <clipPath id="clippath-22">
      <rect class="st0" x="-48.3" y="-2.5" width="1187.9" height="668.2"/>
    </clipPath>
    <clipPath id="clippath-23">
      <rect class="st0" x="291.7" y="466.1" width="214" height="39.4"/>
    </clipPath>
    <clipPath id="clippath-24">
      <rect class="st0" x="-48.3" y="-2.5" width="1187.9" height="668.2"/>
    </clipPath>
    <clipPath id="clippath-25">
      <rect class="st0" x="543.4" y="464.1" width="152.3" height="43.4"/>
    </clipPath>
    <clipPath id="clippath-26">
      <rect class="st0" x="-48.3" y="-2.5" width="1187.9" height="668.2"/>
    </clipPath>
    <clipPath id="clippath-27">
      <rect class="st0" x="301.6" y="553.9" width="404.8" height="43.4"/>
    </clipPath>
    <clipPath id="clippath-28">
      <rect class="st0" x="-48.3" y="-2.5" width="1187.9" height="668.2"/>
    </clipPath>
  </defs>
  <g class="st37">
    <g>
      <path class="st1" d="M363.7,133.6h280.6c26.5,0,42.4,0,53,4.4,15.3,5.6,27.3,17.6,32.9,32.9,4.4,10.6,4.4,26.5,4.4,53v224.8c0,26.5,0,42.4-4.4,53-5.6,15.3-17.6,27.3-32.9,32.9-10.6,4.4-26.5,4.4-53,4.4h-280.6c-26.5,0-42.4,0-53-4.4-15.3-5.6-27.3-17.6-32.9-32.9-4.4-10.6-4.4-26.5-4.4-53v-224.7c0-26.5,0-42.4,4.4-53,5.6-15.3,17.6-27.3,32.9-32.9,10.6-4.4,26.5-4.4,53-4.4h0Z"/>
      <path class="st36" d="M378.2,38.2h251.6c4.2,0,6.7,0,8.3.7,2.4.9,4.3,2.8,5.2,5.2.7,1.7.7,4.2.7,8.3v11c0,4.2,0,6.7-.7,8.3-.9,2.4-2.8,4.3-5.2,5.2-1.7.7-4.2.7-8.3.7h-251.6c-4.2,0-6.7,0-8.3-.7-2.4-.9-4.3-2.8-5.2-5.2-.7-1.7-.7-4.2-.7-8.3v-11c0-4.2,0-6.7.7-8.3.9-2.4,2.8-4.3,5.2-5.2,1.7-.7,4.2-.7,8.3-.7h0Z"/>
    </g>
  </g>
  <g class="st26">
    <g class="st3">
      <text class="st4" transform="translate(469.8 62.7)"><tspan x="0" y="0">Non-</tspan></text>
      <text class="st4" transform="translate(498 62.7)"><tspan x="0" y="0">R</tspan></text>
      <text class="st4" transform="translate(506.5 62.7)"><tspan x="0" y="0">T RIC</tspan></text>
    </g>
  </g>
  <g class="st29">
    <g>
      <path class="st1" d="M361.1,5.7h285.8c16.6,0,26.5,0,33.2,2.5,10.1,3.7,18,11.6,21.7,21.7,2,4.3,2.5,15.1,2.5,22.9s-.5,18.5-2.5,22.9c-3.7,10.1-11.6,18-21.7,21.7-6.6,2.5-16.6,2.5-33.2,2.5h-285.8c-16.6,0-26.5,0-33.2-2.5-10.1-3.7-18-11.6-21.7-21.7-2-4.3-2.5-15.1-2.5-22.9s.5-18.5,2.5-22.9c3.7-10.1,11.6-18,21.7-21.7,6.6-2.5,16.6-2.5,33.2-2.5Z"/>
      <g class="st3">
        <text class="st5" transform="translate(482.5 28.2)"><tspan x="0" y="0">SMO</tspan></text>
      </g>
      <path class="st35" d="M443.2,141.9h121.6c4.2,0,6.7,0,8.3.7,2.4.9,4.3,2.8,5.2,5.2.7,1.7.7,4.2.7,8.3v15c0,4.2,0,6.7-.7,8.3-.9,2.4-2.8,4.3-5.2,5.2-1.7.7-4.2.7-8.3.7h-121.6c-4.2,0-6.7,0-8.3-.7-2.4-.9-4.3-2.8-5.2-5.2-.7-1.7-.7-4.2-.7-8.3v-15c0-4.2,0-6.7.7-8.3.9-2.4,2.8-4.3,5.2-5.2,1.7-.7,4.2-.7,8.3-.7Z"/>
    </g>
  </g>
  <g class="st27">
    <g class="st3">
      <text class="st4" transform="translate(461.4 168.3)"><tspan x="0" y="0">A1 </tspan></text>
      <text class="st4" transform="translate(480 168.3)"><tspan x="0" y="0">T</tspan></text>
      <text class="st4" transform="translate(485.9 168.3)"><tspan x="0" y="0">ermination</tspan></text>
    </g>
  </g>
  <g class="st28">
    <path class="st36" d="M307.4,260.1h44.9c4.2,0,6.7,0,8.3.7,2.4.9,4.3,2.8,5.2,5.2.7,1.7.7,4.2.7,8.3v11c0,4.2,0,6.7-.7,8.3-.9,2.4-2.8,4.3-5.2,5.2-1.7.7-4.2.7-8.3.7h-44.9c-4.2,0-6.7,0-8.3-.7-2.4-.9-4.3-2.8-5.2-5.2-.7-1.7-.7-4.2-.7-8.3v-11c0-4.2,0-6.7.7-8.3.9-2.4,2.8-4.3,5.2-5.2,1.7-.7,4.2-.7,8.3-.7Z"/>
  </g>
  <g class="st34">
    <g class="st3">
      <text class="st4" transform="translate(311.6 284.6)"><tspan x="0" y="0">xApp1</tspan></text>
    </g>
  </g>
  <g class="st31">
    <path class="st36" d="M398.9,260.1h44.9c4.2,0,6.7,0,8.3.7,2.4.9,4.3,2.8,5.2,5.2.7,1.7.7,4.2.7,8.3v11c0,4.2,0,6.7-.7,8.3-.9,2.4-2.8,4.3-5.2,5.2-1.7.7-4.2.7-8.3.7h-44.9c-4.2,0-6.7,0-8.3-.7-2.4-.9-4.3-2.8-5.2-5.2-.7-1.7-.7-4.2-.7-8.3v-11c0-4.2,0-6.7.7-8.3.9-2.4,2.8-4.3,5.2-5.2,1.7-.7,4.2-.7,8.3-.7Z"/>
  </g>
  <g class="st30">
    <g class="st3">
      <text class="st4" transform="translate(403.1 284.6)"><tspan x="0" y="0">xApp2</tspan></text>
    </g>
  </g>
  <g class="st33">
    <path class="st36" d="M655.6,262.6h44.9c4.2,0,6.7,0,8.3.7,2.4.9,4.3,2.8,5.2,5.2.7,1.7.7,4.2.7,8.3v6.1c0,4.2,0,6.7-.7,8.3-.9,2.4-2.8,4.3-5.2,5.2-1.7.7-4.2.7-8.3.7h-44.9c-4.2,0-6.7,0-8.3-.7-2.4-.9-4.3-2.8-5.2-5.2-.7-1.7-.7-4.2-.7-8.3v-6.1c0-4.2,0-6.7.7-8.3.9-2.4,2.8-4.3,5.2-5.2,1.7-.7,4.2-.7,8.3-.7Z"/>
  </g>
  <g class="st32">
    <g class="st3">
      <text class="st4" transform="translate(659.8 284.6)"><tspan x="0" y="0">xApp2</tspan></text>
    </g>
  </g>
  <g class="st12">
    <g>
      <g class="st3">
        <text class="st6" transform="translate(534.6 290.7)"><tspan x="0" y="0">…</tspan></text>
      </g>
      <path class="st36" d="M306.8,305.4h394.3c4.2,0,6.7,0,8.3.7,2.4.9,4.3,2.8,5.2,5.2.7,1.7.7,4.2.7,8.3v6.1c0,4.2,0,6.7-.7,8.3-.9,2.4-2.8,4.3-5.2,5.2-1.7.7-4.2.7-8.3.7h-394.3c-4.2,0-6.7,0-8.3-.7-2.4-.9-4.3-2.8-5.2-5.2-.7-1.7-.7-4.2-.7-8.3v-6.1c0-4.2,0-6.7.7-8.3.9-2.4,2.8-4.3,5.2-5.2,1.7-.7,4.2-.7,8.3-.7Z"/>
    </g>
  </g>
  <g class="st9">
    <g class="st3">
      <text class="st4" transform="translate(432.9 327.4)"><tspan x="0" y="0">Messaging Infrastructu</tspan></text>
      <text class="st4" transform="translate(564.5 327.4)"><tspan x="0" y="0">r</tspan></text>
      <text class="st4" transform="translate(568.6 327.4)"><tspan x="0" y="0">e</tspan></text>
    </g>
  </g>
  <g class="st16">
    <path class="st36" d="M306.8,348.2h75c4.2,0,6.7,0,8.3.7,2.4.9,4.3,2.8,5.2,5.2.7,1.7.7,4.2.7,8.3v33.5c0,4.2,0,6.7-.7,8.3-.9,2.4-2.8,4.3-5.2,5.2-1.7.7-4.2.7-8.3.7h-75c-4.2,0-6.7,0-8.3-.7-2.4-.9-4.3-2.8-5.2-5.2-.7-1.7-.7-4.2-.7-8.3v-33.5c0-4.2,0-6.7.7-8.3.9-2.4,2.8-4.3,5.2-5.2,1.7-.7,4.2-.7,8.3-.7Z"/>
  </g>
  <g class="st14">
    <g>
      <g class="st3">
        <text class="st4" transform="translate(322.2 376.1)"><tspan x="0" y="0">Con</tspan></text>
      </g>
      <g class="st3">
        <text class="st4" transform="translate(345.5 376.1)"><tspan x="0" y="0">ﬂ</tspan></text>
      </g>
      <g class="st3">
        <text class="st4" transform="translate(352.4 376.1)"><tspan x="0" y="0" xml:space="preserve">ict  </tspan></text>
      </g>
      <g class="st3">
        <text class="st4" transform="translate(315.9 391.6)"><tspan x="0" y="0">Mitigation</tspan></text>
      </g>
    </g>
  </g>
  <g class="st15">
    <path class="st36" d="M413.8,348.2h75c4.2,0,6.7,0,8.3.7,2.4.9,4.3,2.8,5.2,5.2.7,1.7.7,4.2.7,8.3v33.5c0,4.2,0,6.7-.7,8.3-.9,2.4-2.8,4.3-5.2,5.2-1.7.7-4.2.7-8.3.7h-75c-4.2,0-6.7,0-8.3-.7-2.4-.9-4.3-2.8-5.2-5.2-.7-1.7-.7-4.2-.7-8.3v-33.5c0-4.2,0-6.7.7-8.3.9-2.4,2.8-4.3,5.2-5.2,1.7-.7,4.2-.7,8.3-.7Z"/>
  </g>
  <g class="st13">
    <g>
      <g class="st3">
        <text class="st4" transform="translate(436.3 368.4)"><tspan x="0" y="0" xml:space="preserve">Xapp  </tspan></text>
      </g>
      <g class="st3">
        <text class="st4" transform="translate(415.1 383.8)"><tspan x="0" y="0">Subscription</tspan></text>
      </g>
      <g class="st3">
        <text class="st4" transform="translate(413.8 399.3)"><tspan x="0" y="0">Management</tspan></text>
      </g>
    </g>
  </g>
  <g class="st10">
    <path class="st36" d="M520.8,348.2h75c4.2,0,6.7,0,8.3.7,2.4.9,4.3,2.8,5.2,5.2.7,1.7.7,4.2.7,8.3v33.5c0,4.2,0,6.7-.7,8.3-.9,2.4-2.8,4.3-5.2,5.2-1.7.7-4.2.7-8.3.7h-75c-4.2,0-6.7,0-8.3-.7-2.4-.9-4.3-2.8-5.2-5.2-.7-1.7-.7-4.2-.7-8.3v-33.5c0-4.2,0-6.7.7-8.3.9-2.4,2.8-4.3,5.2-5.2,1.7-.7,4.2-.7,8.3-.7Z"/>
  </g>
  <g class="st7">
    <g>
      <g class="st3">
        <text class="st4" transform="translate(520.8 376.1)"><tspan x="0" y="0">Management</tspan></text>
      </g>
      <g class="st3">
        <text class="st4" transform="translate(533.9 391.6)"><tspan x="0" y="0">Services</tspan></text>
      </g>
    </g>
  </g>
  <g class="st11">
    <path class="st36" d="M627.8,345.8h75c4.2,0,6.7,0,8.3.7,2.4.9,4.3,2.8,5.2,5.2.7,1.7.7,4.2.7,8.3v33.5c0,4.2,0,6.7-.7,8.3-.9,2.4-2.8,4.3-5.2,5.2-1.7.7-4.2.7-8.3.7h-75c-4.2,0-6.7,0-8.3-.7-2.4-.9-4.3-2.8-5.2-5.2-.7-1.7-.7-4.2-.7-8.3v-33.5c0-4.2,0-6.7.7-8.3.9-2.4,2.8-4.3,5.2-5.2,1.7-.7,4.2-.7,8.3-.7Z"/>
  </g>
  <g class="st8">
    <g class="st3">
      <text class="st4" transform="translate(641.9 381.4)"><tspan x="0" y="0">Security</tspan></text>
    </g>
  </g>
  <g class="st20">
    <path class="st36" d="M306.8,418.4h183.5c4.2,0,6.7,0,8.3.7,2.4.9,4.3,2.8,5.2,5.2.7,1.7.7,4.2.7,8.3v11c0,4.2,0,6.7-.7,8.3-.9,2.4-2.8,4.3-5.2,5.2-1.7.7-4.2.7-8.3.7h-183.5c-4.2,0-6.7,0-8.3-.7-2.4-.9-4.3-2.8-5.2-5.2-.7-1.7-.7-4.2-.7-8.3v-11c0-4.2,0-6.7.7-8.3.9-2.4,2.8-4.3,5.2-5.2,1.7-.7,4.2-.7,8.3-.7Z"/>
  </g>
  <g class="st21">
    <g class="st3">
      <text class="st4" transform="translate(345.7 442.9)"><tspan x="0" y="0">Sha</tspan></text>
      <text class="st4" transform="translate(367.7 442.9)"><tspan x="0" y="0">r</tspan></text>
      <text class="st4" transform="translate(371.8 442.9)"><tspan x="0" y="0">ed Data Layer</tspan></text>
    </g>
  </g>
  <g class="st22">
    <path class="st36" d="M306.8,466.1h183.5c4.2,0,6.7,0,8.3.7,2.4.9,4.3,2.8,5.2,5.2.7,1.7.7,4.2.7,8.3v11c0,4.2,0,6.7-.7,8.3-.9,2.4-2.8,4.3-5.2,5.2-1.7.7-4.2.7-8.3.7h-183.5c-4.2,0-6.7,0-8.3-.7-2.4-.9-4.3-2.8-5.2-5.2-.7-1.7-.7-4.2-.7-8.3v-11c0-4.2,0-6.7.7-8.3.9-2.4,2.8-4.3,5.2-5.2,1.7-.7,4.2-.7,8.3-.7Z"/>
  </g>
  <g class="st23">
    <g class="st3">
      <text class="st4" transform="translate(371.4 490.6)"><tspan x="0" y="0">Database</tspan></text>
    </g>
  </g>
  <g class="st24">
    <path class="st35" d="M558.7,464.1h121.6c4.2,0,6.7,0,8.4.7,2.4.9,4.3,2.8,5.2,5.2.7,1.7.7,4.2.7,8.3v15c0,4.2,0,6.7-.7,8.3-.9,2.4-2.8,4.3-5.2,5.2-1.7.7-4.2.7-8.3.7h-121.7c-4.2,0-6.7,0-8.3-.7-2.4-.9-4.3-2.8-5.2-5.2-.7-1.7-.7-4.2-.7-8.3v-15c0-4.2,0-6.7.7-8.3.9-2.4,2.8-4.3,5.2-5.2,1.7-.7,4.2-.7,8.3-.7Z"/>
  </g>
  <g class="st25">
    <g class="st3">
      <text class="st4" transform="translate(577 490.4)"><tspan x="0" y="0">E2 </tspan></text>
      <text class="st4" transform="translate(595.1 490.4)"><tspan x="0" y="0">T</tspan></text>
      <text class="st4" transform="translate(601.1 490.4)"><tspan x="0" y="0">ermination</tspan></text>
    </g>
  </g>
  <g class="st18">
    <g>
      <polyline class="st2" points="504 133.8 504 132.6 504 91.5 504 90.3"/>
      <polygon points="509.2 91.5 504 81.1 498.8 91.5 509.2 91.5"/>
      <polygon points="498.8 132.6 504 143 509.2 132.6 498.8 132.6"/>
      <path class="st35" d="M316.9,553.9h374.1c4.2,0,6.7,0,8.3.7,2.4.9,4.3,2.8,5.2,5.2.7,1.7.7,4.2.7,8.3v15c0,4.2,0,6.7-.7,8.3-.9,2.4-2.8,4.3-5.2,5.2-1.7.7-4.2.7-8.3.7h-374.1c-4.2,0-6.7,0-8.3-.7-2.4-.9-4.3-2.8-5.2-5.2-.7-1.7-.7-4.2-.7-8.3v-15c0-4.2,0-6.7.7-8.3.9-2.4,2.8-4.3,5.2-5.2,1.7-.7,4.2-.7,8.3-.7Z"/>
    </g>
  </g>
  <g class="st17">
    <g class="st3">
      <text class="st4" transform="translate(472.9 580.3)"><tspan x="0" y="0">E2 Node(s)</tspan></text>
    </g>
  </g>
  <g class="st19">
    <g>
      <polyline class="st2" points="619.5 544.8 619.5 543.6 619.5 517.8 619.5 516.6"/>
      <polygon points="624.7 517.8 619.5 507.4 614.3 517.8 624.7 517.8"/>
      <polygon points="614.3 543.6 619.5 554 624.7 543.6 614.3 543.6"/>
      <g class="st3">
        <text class="st5" transform="translate(614.1 170.6)"><tspan x="0" y="0">nea</tspan></text>
        <text class="st5" transform="translate(644.4 170.6)"><tspan x="0" y="0">r</tspan></text>
        <text class="st5" transform="translate(649.5 170.6)"><tspan x="0" y="0">-</tspan></text>
        <text class="st5" transform="translate(656.7 170.6)"><tspan x="0" y="0">R</tspan></text>
        <text class="st5" transform="translate(669.1 170.6)"><tspan x="0" y="0">T RIC</tspan></text>
      </g>
    </g>
  </g>
</svg>