<?xml version="1.0" encoding="UTF-8"?>
<svg id="Ebene_1" xmlns="http://www.w3.org/2000/svg" xmlns:xlink="http://www.w3.org/1999/xlink" version="1.1" viewBox="0 0 4005.1 1413.4">
  <!-- Generator: Adobe Illustrator 29.4.0, SVG Export Plug-In . SVG Version: 2.1.0 Build 152)  -->
  <defs>
    <style>
      .st0, .st1, .st2, .st3, .st4, .st5, .st6, .st7, .st8, .st9 {
        fill: none;
      }

      .st1 {
        stroke-dasharray: 12.2 9.8 4.9 12.2 9.8 4.9;
      }

      .st1, .st2 {
        stroke-width: 2.4px;
      }

      .st1, .st2, .st3, .st9 {
        stroke: #020203;
      }

      .st10, .st4, .st6, .st11, .st7, .st8, .st12 {
        stroke: #000;
      }

      .st10, .st5, .st8 {
        stroke-width: 3px;
      }

      .st3, .st9 {
        stroke-width: 2.4px;
      }

      .st4 {
        stroke-width: 2.4px;
      }

      .st13 {
        fill: #89847e;
      }

      .st14, .st12 {
        fill: #4493c3;
      }

      .st15 {
        clip-path: url(#clippath-17);
      }

      .st16 {
        clip-path: url(#clippath-19);
      }

      .st17 {
        clip-path: url(#clippath-11);
      }

      .st18 {
        clip-path: url(#clippath-16);
      }

      .st19 {
        clip-path: url(#clippath-18);
      }

      .st20 {
        clip-path: url(#clippath-10);
      }

      .st21 {
        clip-path: url(#clippath-15);
      }

      .st22 {
        clip-path: url(#clippath-13);
      }

      .st23 {
        clip-path: url(#clippath-14);
      }

      .st24 {
        clip-path: url(#clippath-12);
      }

      .st25 {
        clip-path: url(#clippath-31);
      }

      .st26 {
        clip-path: url(#clippath-32);
      }

      .st27 {
        clip-path: url(#clippath-33);
      }

      .st28 {
        clip-path: url(#clippath-34);
      }

      .st29 {
        clip-path: url(#clippath-35);
      }

      .st30 {
        clip-path: url(#clippath-30);
      }

      .st31 {
        clip-path: url(#clippath-36);
      }

      .st32 {
        clip-path: url(#clippath-37);
      }

      .st33 {
        clip-path: url(#clippath-38);
      }

      .st34 {
        clip-path: url(#clippath-27);
      }

      .st35 {
        clip-path: url(#clippath-29);
      }

      .st36 {
        clip-path: url(#clippath-26);
      }

      .st37 {
        clip-path: url(#clippath-28);
      }

      .st38 {
        clip-path: url(#clippath-20);
      }

      .st39 {
        clip-path: url(#clippath-21);
      }

      .st40 {
        clip-path: url(#clippath-22);
      }

      .st41 {
        clip-path: url(#clippath-23);
      }

      .st42 {
        clip-path: url(#clippath-24);
      }

      .st43 {
        clip-path: url(#clippath-25);
      }

      .st44 {
        clip-path: url(#clippath-1);
      }

      .st45 {
        clip-path: url(#clippath-3);
      }

      .st46 {
        clip-path: url(#clippath-4);
      }

      .st47 {
        clip-path: url(#clippath-2);
      }

      .st48 {
        clip-path: url(#clippath-7);
      }

      .st49 {
        clip-path: url(#clippath-6);
      }

      .st50 {
        clip-path: url(#clippath-9);
      }

      .st51 {
        clip-path: url(#clippath-8);
      }

      .st52 {
        clip-path: url(#clippath-5);
      }

      .st5 {
        stroke: #2aa0da;
      }

      .st53, .st54 {
        fill: #fff;
      }

      .st6, .st54, .st11, .st12 {
        stroke-miterlimit: 10;
      }

      .st55 {
        fill: #c5c3ba;
      }

      .st54 {
        stroke: #fff;
      }

      .st7 {
        stroke-width: 3.2px;
      }

      .st9 {
        stroke-dasharray: 12.2 9.8 4.9 12.2 9.8 4.9;
      }
    </style>
    <clipPath id="clippath-1">
      <rect class="st6" x="2238" y="28.4" width="1370.6" height="519.9"/>
    </clipPath>
    <clipPath id="clippath-2">
      <rect class="st0" x="389.4" y="809" width="687.1" height="387.8"/>
    </clipPath>
    <clipPath id="clippath-3">
      <rect class="st0" x="389.4" y="809" width="687.1" height="387.8"/>
    </clipPath>
    <clipPath id="clippath-4">
      <rect class="st0" x="389.4" y="809" width="687.1" height="387.8"/>
    </clipPath>
    <clipPath id="clippath-5">
      <rect class="st0" x="389.4" y="809" width="687.1" height="387.8"/>
    </clipPath>
    <clipPath id="clippath-6">
      <rect class="st0" x="311.7" y="630.5" width="1562" height="711.4"/>
    </clipPath>
    <clipPath id="clippath-7">
      <rect class="st0" x="822.1" y="678.6" width="619.2" height="100"/>
    </clipPath>
    <clipPath id="clippath-8">
      <rect class="st0" x="1108.7" y="809" width="687.1" height="387.8"/>
    </clipPath>
    <clipPath id="clippath-9">
      <rect class="st0" x="1108.7" y="809" width="687.1" height="387.8"/>
    </clipPath>
    <clipPath id="clippath-10">
      <rect class="st0" x="1108.7" y="809" width="687.1" height="387.8"/>
    </clipPath>
    <clipPath id="clippath-11">
      <rect class="st0" x="1108.7" y="809" width="687.1" height="387.8"/>
    </clipPath>
    <clipPath id="clippath-12">
      <rect class="st0" x="522.6" y="1225.8" width="420.8" height="100"/>
    </clipPath>
    <clipPath id="clippath-13">
      <rect class="st0" x="1280.7" y="1225.8" width="343.1" height="100"/>
    </clipPath>
    <clipPath id="clippath-14">
      <rect class="st0" x="1962.8" y="630.5" width="834.4" height="711.4"/>
    </clipPath>
    <clipPath id="clippath-15">
      <rect class="st0" x="2042.5" y="678.6" width="675" height="100"/>
    </clipPath>
    <clipPath id="clippath-16">
      <rect class="st0" x="269.8" y="608.4" width="2564.1" height="780.4"/>
    </clipPath>
    <clipPath id="clippath-17">
      <rect class="st0" x="2011.4" y="790" width="687" height="455.7"/>
    </clipPath>
    <clipPath id="clippath-18">
      <rect class="st0" x="2011.4" y="790" width="687" height="455.7"/>
    </clipPath>
    <clipPath id="clippath-19">
      <rect class="st0" x="2011.4" y="790" width="687" height="455.7"/>
    </clipPath>
    <clipPath id="clippath-20">
      <rect class="st0" x="2011.4" y="790" width="687" height="455.7"/>
    </clipPath>
    <clipPath id="clippath-21">
      <rect class="st0" x="2975.5" y="820.6" width="687" height="394.5"/>
    </clipPath>
    <clipPath id="clippath-22">
      <rect class="st0" x="2975.5" y="820.6" width="687" height="394.5"/>
    </clipPath>
    <clipPath id="clippath-23">
      <rect class="st0" x="2975.5" y="820.6" width="687" height="394.5"/>
    </clipPath>
    <clipPath id="clippath-24">
      <rect class="st0" x="2975.5" y="820.6" width="687" height="394.5"/>
    </clipPath>
    <clipPath id="clippath-25">
      <rect class="st11" x="1466" y="549.8" width="13.9" height="265.5"/>
    </clipPath>
    <clipPath id="clippath-26">
      <rect class="st11" x="-1509.1" y="-1502.7" width="5343.1" height="3005.5"/>
    </clipPath>
    <clipPath id="clippath-27">
      <rect class="st0" x="2901.7" y="630.5" width="834.4" height="711.4"/>
    </clipPath>
    <clipPath id="clippath-28">
      <rect class="st0" x="2981.5" y="678.6" width="675" height="100"/>
    </clipPath>
    <clipPath id="clippath-29">
      <rect class="st6" x="734.2" y="547.7" width="13.9" height="265.5"/>
    </clipPath>
    <clipPath id="clippath-30">
      <rect class="st6" x="-1509.1" y="-1502.7" width="5343.1" height="3005.5"/>
    </clipPath>
    <clipPath id="clippath-31">
      <rect x="2022.9" y="547.8" width="13.9" height="245.1"/>
    </clipPath>
    <clipPath id="clippath-32">
      <rect x="-1509.1" y="-1502.7" width="5343.1" height="3005.5"/>
    </clipPath>
    <clipPath id="clippath-33">
      <rect class="st11" x="737.8" y="543.5" width="1296.8" height="13.9"/>
    </clipPath>
    <clipPath id="clippath-34">
      <rect class="st11" x="1608.1" y="263.8" width="13.9" height="291"/>
    </clipPath>
    <clipPath id="clippath-35">
      <rect class="st11" x="-1509.1" y="-1502.7" width="5343.1" height="3005.5"/>
    </clipPath>
    <clipPath id="clippath-36">
      <rect class="st6" x="2687.2" y="991.6" width="296.6" height="13.9"/>
    </clipPath>
    <clipPath id="clippath-37">
      <rect class="st11" x="1608.1" y="263.8" width="629.9" height="13.9"/>
    </clipPath>
    <clipPath id="clippath-38">
      <rect class="st11" x="-444" y="-2853.4" width="6506.2" height="5343.1"/>
    </clipPath>
  </defs>
  <g>
    <g class="st44">
      <rect class="st7" x="2242.5" y="32.9" width="1361.7" height="511"/>
      <rect class="st4" x="2242.5" y="32.9" width="1361.7" height="511"/>
      <rect class="st12" x="2362.6" y="202" width="315.6" height="108.9"/>
      <rect class="st4" x="2362.6" y="202" width="315.6" height="108.9"/>
      <rect class="st12" x="2777.6" y="202" width="315.6" height="108.9"/>
      <rect class="st4" x="2777.6" y="202" width="315.6" height="108.9"/>
      <rect class="st12" x="3184.6" y="202" width="315.6" height="108.9"/>
      <rect class="st4" x="3184.6" y="202" width="315.6" height="108.9"/>
      <rect class="st12" x="2362.6" y="361.7" width="571.2" height="108.9"/>
      <rect class="st4" x="2362.6" y="361.7" width="571.2" height="108.9"/>
      <rect class="st12" x="3007.3" y="361.7" width="499.6" height="108.9"/>
      <rect class="st4" x="3007.3" y="361.7" width="499.6" height="108.9"/>
      <path class="st11" d="M3190.6,111c0,14.3,11.2,25.1,24,25.1s18-9.6,18-17.6,0-1.2-.9-1.2-.8.4-.8,1.1c-.6,9.9-7.9,15.5-15.4,15.5s-17.7-2.3-17.7-22.9,13.4-22.9,17.6-22.9c7.5,0,13.6,6.3,15,16.3.1,1,.1,1.2,1.1,1.2s1.1-.2,1.1-1.7v-16.3c0-1.2,0-1.7-.8-1.7s-.6,0-1.1.8l-3.4,5.1c-2.5-2.5-6.1-5.9-12.7-5.9-12.9,0-24,11-24,25M3163.8,134.6c2.4-.2,7.9-.2,10.5-.2s8.1,0,10.5.2v-2.1h-1.8c-5.4,0-5.6-.8-5.6-3.2v-36.3c0-2.5.2-3.2,5.6-3.2h1.8v-2.1c-2.4.2-7.9.2-10.5.2s-8.1,0-10.5-.2v2.1h1.8c5.4,0,5.7.8,5.7,3.2v36.3c0,2.5-.2,3.2-5.7,3.2h-1.8v2.1ZM3126.6,110.3v-17.9c0-1.6,0-2.4,1.5-2.6.7-.1,2.7-.1,4.1-.1,6.2,0,13.9.3,13.9,10.3s-1.7,10.3-11.9,10.3h-7.6ZM3113.6,134.6c2.5-.2,7.4-.2,10.1-.2s7.6,0,10.1.2v-2.1h-1.7c-5.3,0-5.4-.8-5.4-3.2v-17.4h7.9c1.1,0,4,0,6.4,2.3,2.6,2.5,2.6,4.6,2.6,9.2s0,7.2,2.8,9.9c2.8,2.5,6.6,2.9,8.7,2.9,5.4,0,6.5-5.7,6.5-7.6s0-1.2-.9-1.2-.8.6-.8,1.1c-.4,4.9-2.8,6.1-4.5,6.1-3.4,0-3.9-3.5-4.9-9.9l-.9-5.5c-1.2-4.4-4.6-6.7-8.4-8,6.7-1.7,12.1-5.9,12.1-11.2s-7.9-12.4-18-12.4h-21.6v2.1h1.7c5.3,0,5.4.8,5.4,3.2v36.3c0,2.5-.1,3.2-5.4,3.2h-1.7v2.1ZM3065.3,117.2c.4-10.3,6.2-12,8.5-12,7.1,0,7.8,9.3,7.8,12h-16.3ZM3059.6,119.4c0,9.2,7.2,15.9,15.2,15.9s11.5-7.6,11.5-9-.6-.8-.9-.8c-.6,0-.8.4-.9,1-2.4,7.1-8.6,7.1-9.3,7.1-3.4,0-6.2-2.1-7.8-4.6-2.1-3.3-2.1-7.9-2.1-10.3h19.2c1.5,0,1.7,0,1.7-1.4,0-6.8-3.7-13.5-12.3-13.5s-14.3,7.1-14.3,15.7M3002.4,134.6c2.4,0,5.9-.2,7.8-.2s5.4.1,7.7.2v-2.1c-4.6,0-5.4,0-5.4-3.1v-12.7c0-7.2,4.9-11,9.3-11s5.1,3.7,5.1,7.6v16.1c0,3.1-.8,3.1-5.4,3.1v2.1c2.4,0,5.9-.2,7.8-.2s5.4.1,7.7.2v-2.1c-4.6,0-5.4,0-5.4-3.1v-12.7c0-7.2,4.9-11,9.3-11s5.1,3.7,5.1,7.6v16.1c0,3.1-.8,3.1-5.4,3.1v2.1c2.4,0,5.9-.2,7.8-.2s5.4.1,7.7.2v-2.1c-3.6,0-5.3,0-5.4-2.1v-13.2c0-5.9,0-8.1-2.1-10.5-1-1.2-3.2-2.5-7.2-2.5-5.8,0-8.8,4.1-10,6.8-1-6-6.1-6.8-9.2-6.8-5,0-8.3,3-10.2,7.2v-7.2l-9.7.8v2.1c4.8,0,5.4.5,5.4,3.9v18.5c0,3.1-.8,3.1-5.4,3.1v2.1ZM2983.4,134.6c2.2,0,5.9-.2,7.6-.2,2.4,0,4.8.1,7.2.2v-2.1c-4.6,0-4.8-.3-4.8-3v-25.3l-9.7.8v2.1c4.5,0,5.1.4,5.1,3.8v18.5c0,3.1-.7,3.1-5.4,3.1v2.1ZM2986.3,92.1c0,1.9,1.5,3.7,3.7,3.7s3.6-1.4,3.6-3.7-1.7-3.6-3.6-3.6-3.7,1.9-3.7,3.6M2955.7,107h5.9v19c0,8.5,6.4,9.3,8.9,9.3,4.9,0,6.8-4.9,6.8-9.3v-3.9h-1.7v3.8c0,5.1-2.1,7.7-4.6,7.7-4.6,0-4.6-6.3-4.6-7.4v-19.2h9.9v-2.1h-9.9v-12.7h-1.7c0,5.7-2.1,13-8.9,13.3v1.5ZM2932.2,121.8h18.3v-4.1h-18.3v4.1ZM2914.7,134.6c2.3,0,5.9-.2,7.6-.2s5.1.1,7.7.2v-2.1c-4.6,0-5.4,0-5.4-3.1v-42.6l-9.9.8v2.1c4.8,0,5.4.5,5.4,3.9v35.8c0,3.1-.8,3.1-5.4,3.1v2.1ZM2886.1,128c0-3.8,2.9-9.5,14.3-9.9v6.9c0,6.5-5,8.9-8.1,8.9s-6.2-2.4-6.2-5.9M2880.8,128c0,5.6,6.7,7.3,11,7.3s7.7-2.8,9-6c.3,2.8,2.1,5.6,5.4,5.6s5.6-1,5.6-6.5v-3.9h-1.7v3.9c0,4-1.7,4.4-2.5,4.4-2.3,0-2.6-3.1-2.6-3.4v-13.8c0-2.9,0-5.6-2.5-8.1-2.7-2.7-6.1-3.8-9.4-3.8-5.7,0-10.4,3.2-10.4,7.8s1.4,3.2,3.2,3.2,3.2-1.4,3.2-3.2-.3-3.1-3.5-3.2c1.9-2.4,5.2-3.2,7.4-3.2,3.4,0,7.3,2.7,7.3,8.8v2.5c-3.5.2-8.3.4-12.7,2.5-5.2,2.3-6.9,5.9-6.9,9M2855.1,117.2c.4-10.3,6.2-12,8.5-12,7.1,0,7.8,9.3,7.8,12h-16.3ZM2849.3,119.4c0,9.2,7.2,15.9,15.2,15.9s11.5-7.6,11.5-9-.6-.8-.9-.8c-.6,0-.8.4-.9,1-2.4,7.1-8.6,7.1-9.3,7.1-3.4,0-6.2-2.1-7.8-4.6-2.1-3.3-2.1-7.9-2.1-10.3h19.2c1.5,0,1.7,0,1.7-1.4,0-6.8-3.7-13.5-12.3-13.5s-14.3,7.1-14.3,15.7M2822.3,134.6c2.7,0,5.9-.2,7.9-.2,2.8,0,6,0,8.8.2v-2.1h-1.4c-5.1,0-5.2-.8-5.2-3.2v-10.6c0-6.8,2.9-12.9,8.1-12.9s.6,0,.8,0c-.2,0-1.6.9-1.6,2.7s1.4,3,3,3,3-.8,3-3-2.1-4.2-5.1-4.2c-5,0-7.5,4.6-8.5,7.6v-7.6l-9.6.8v2.1c4.8,0,5.4.5,5.4,3.9v18.5c0,3.1-.8,3.1-5.4,3.1v2.1ZM2798.1,121.8h18.3v-4.1h-18.3v4.1ZM2772.4,134.6c2.7,0,5.9-.2,7.9-.2,2.8,0,6,0,8.8.2v-2.1h-1.4c-5.1,0-5.2-.8-5.2-3.2v-10.6c0-6.8,2.9-12.9,8.1-12.9s.6,0,.8,0c-.2,0-1.6.9-1.6,2.7s1.4,3,3,3,3-.8,3-3-2.1-4.2-5.1-4.2c-5,0-7.5,4.6-8.5,7.6v-7.6l-9.6.8v2.1c4.8,0,5.4.5,5.4,3.9v18.5c0,3.1-.8,3.1-5.4,3.1v2.1ZM2744.3,128c0-3.8,2.9-9.5,14.3-9.9v6.9c0,6.5-5,8.9-8.1,8.9s-6.2-2.4-6.2-5.9M2739,128c0,5.6,6.7,7.3,11,7.3s7.7-2.8,9-6c.3,2.8,2.1,5.6,5.4,5.6s5.7-1,5.7-6.5v-3.9h-1.7v3.9c0,4-1.7,4.4-2.5,4.4-2.3,0-2.5-3.1-2.5-3.4v-13.8c0-2.9,0-5.6-2.5-8.1-2.7-2.7-6.1-3.8-9.4-3.8-5.7,0-10.4,3.2-10.4,7.8s1.4,3.2,3.2,3.2,3.2-1.4,3.2-3.2-.3-3.1-3.5-3.2c1.9-2.4,5.2-3.2,7.4-3.2,3.4,0,7.3,2.7,7.3,8.8v2.5c-3.5.2-8.3.4-12.7,2.5-5.2,2.3-6.9,5.9-6.9,9M2713.2,117.2c.4-10.3,6.2-12,8.5-12,7.1,0,7.8,9.3,7.8,12h-16.3ZM2707.4,119.4c0,9.2,7.2,15.9,15.2,15.9s11.5-7.6,11.5-9-.5-.8-.9-.8c-.6,0-.8.4-.9,1-2.4,7.1-8.6,7.1-9.3,7.1-3.4,0-6.2-2.1-7.8-4.6-2.1-3.3-2.1-7.9-2.1-10.3h19.2c1.5,0,1.7,0,1.7-1.4,0-6.8-3.7-13.5-12.3-13.5s-14.3,7.1-14.3,15.7M2656.1,134.6c2.4,0,5.8-.2,8.1-.2s5.6.1,8.1.2v-2.1c-7.1,0-7.1-3.2-7.1-5.1v-35.8c.3.3.4.4.7.8l28.1,41.3c.6.8.7.9,1.2.9,1,0,1-.5,1-1.8v-38c0-1.9,0-5.1,7.1-5.1v-2.1c-2.4,0-5.8.2-8.1.2s-5.7-.1-8.1-.2v2.1c7.1,0,7.1,3.2,7.1,5.1v29.4l-24.3-35.8c-.6-.8-.7-.9-2-.9h-11.7v2.1h2c1,0,2.4,0,3.4.1,1.6.2,1.7.3,1.7,1.6v36c0,1.9,0,5.1-7.1,5.1v2.1Z"/>
      <path class="st54" d="M2565.7,260c1.5-9,9.1-18.2,14.9-18.2s2.7,1.5,2.7,4.8c0,5.7-2.8,14.1-6.5,19.4-1.4,2-3.7,3.1-6.5,3.1s-3.9-.5-5.8-1.6l1.3-7.4ZM2568.1,272.4c3.9,0,12-5.1,15-9.6,2.9-4.3,5.3-12,5.3-17.3s-1.6-7.8-4.1-7.8-6.7,1.8-10.3,5.1c-2.9,2.5-4.3,4.3-6.8,8.4l1.7-8.4c.2-1.2.3-2.3.3-3.1,0-1.3-.6-2.1-1.5-2.1-1.5,0-4.1,1.5-9.4,5.2l-2,1.4.5,1.4,2.2-1.5c2-1.3,2.7-1.6,3.4-1.6s1.2.6,1.2,1.6-.1,2-.3,2.7l-4.1,24.1c-.7,4.2-2,10.6-3.4,16.9l-.6,2.6.5.4c1.5-.5,2.9-.8,5.1-1.2l3-18.4c1.5.5,3,1,4.3,1M2530.7,260c1.6-9,9.1-18.2,14.9-18.2s2.7,1.5,2.7,4.8c0,5.7-2.8,14.1-6.5,19.4-1.4,2-3.7,3.1-6.5,3.1s-3.9-.5-5.8-1.6l1.3-7.4ZM2533,272.4c3.9,0,12-5.1,15-9.6,2.9-4.3,5.3-12,5.3-17.3s-1.6-7.8-4.1-7.8-6.7,1.8-10.3,5.1c-2.9,2.5-4.3,4.3-6.8,8.4l1.7-8.4c.2-1.2.4-2.3.4-3.1,0-1.3-.6-2.1-1.5-2.1-1.5,0-4.1,1.5-9.4,5.2l-2,1.4.5,1.4,2.3-1.5c2-1.3,2.7-1.6,3.4-1.6s1.2.6,1.2,1.6-.1,2-.3,2.7l-4.1,24.1c-.7,4.2-2,10.6-3.4,16.9l-.6,2.6.5.4c1.5-.5,2.9-.8,5.1-1.2l2.9-18.4c1.5.5,3,1,4.3,1M2502.7,229.4l2.6,20.2h-15.2l12.6-20.2ZM2507.7,267.7c0,1.1-1.1,1.8-3,1.9l-3.1.2v2q7.2-.2,8.6-.2t8.6.2v-2l-1.8-.2c-3.3-.5-3.4-.5-3.9-3.7l-6.1-43.9h-3.2l-26.2,41.7c-2.5,3.9-3.8,5.1-6.2,5.6l-1.4.3v2.1q6.5-.2,7.9-.2c1.3,0,1.5,0,7.5.2v-2l-3.7-.2c-1.1,0-2.2-.7-2.2-1.3s.5-1.5,1.8-3.9l7.2-12.3h17.3l1.8,13.2v.2c0,.1.3,1.2.3,2.2M2433.4,271.5c1.1.6,2.2.8,3,.8,2.3,0,5.1-2,7.2-5.3l5.3-8.2.8,4.8c.9,6,2.5,8.7,5.1,8.7s3.8-1.2,6-3.2l3.4-3.1-.6-1.3c-2.5,2.1-4.3,3.2-5.4,3.2s-2-.7-2.7-2.1c-.6-1.3-1.4-3.9-1.8-6l-1.3-7.1,2.5-3.4c3.3-4.6,5.2-6.2,7.4-6.2s2,.6,2.3,1.6l1-.3,1.1-6c-.8-.5-1.5-.7-2.1-.7-2.8,0-5.6,2.5-10,9l-2.6,3.9-.4-3.4c-.8-7-2.7-9.5-6.9-9.5s-3.4.6-4,1.5l-4.1,5.8,1.2.7c2.1-2.4,3.5-3.4,4.8-3.4,2.3,0,3.9,2.9,5.1,9.8l.8,4.4-2.8,4.4c-3,4.7-5.4,7-7.4,7s-1.8-.3-2-.6l-.8-2-1.4.2c0,2.5-.6,4.3-.8,6.1"/>
      <path class="st54" d="M2613.3,290.8v-1.5l-2.6-.2c-2.7-.1-3.2-.7-3.2-3.2v-29.7l-11.8,5,.3,2.5,7.4-3.3v25.5c0,2.6-.5,3.1-3.2,3.2l-2.8.2v1.5q7.6-.1,8.1-.1c1.5,0,6.9.1,7.7.1"/>
      <path class="st54" d="M2985.7,264.3c1.5-9,9.1-18.2,14.9-18.2s2.7,1.5,2.7,4.8c0,5.7-2.8,14.1-6.5,19.4-1.4,2-3.7,3.1-6.5,3.1s-3.9-.5-5.8-1.6l1.3-7.5ZM2988.1,276.7c3.9,0,12-5.1,15-9.6,2.9-4.3,5.3-12,5.3-17.3s-1.6-7.8-4.1-7.8-6.7,1.8-10.3,5.1c-2.9,2.5-4.3,4.3-6.8,8.4l1.7-8.4c.2-1.2.3-2.3.3-3.1,0-1.3-.6-2.1-1.5-2.1-1.5,0-4.1,1.5-9.4,5.2l-2,1.4.5,1.4,2.3-1.5c2-1.3,2.7-1.6,3.4-1.6s1.2.6,1.2,1.6-.1,2-.3,2.7l-4.1,24.1c-.7,4.2-2,10.6-3.4,16.9l-.6,2.6.5.4c1.5-.5,2.9-.8,5.1-1.2l3-18.4c1.5.5,3,1,4.3,1M2950.7,264.3c1.6-9,9.1-18.2,14.9-18.2s2.7,1.5,2.7,4.8c0,5.7-2.8,14.1-6.5,19.4-1.4,2-3.7,3.1-6.5,3.1s-3.9-.5-5.8-1.6l1.3-7.5ZM2953,276.7c3.9,0,12-5.1,15-9.6,2.9-4.3,5.3-12,5.3-17.3s-1.6-7.8-4.1-7.8-6.7,1.8-10.3,5.1c-2.9,2.5-4.3,4.3-6.8,8.4l1.7-8.4c.2-1.2.3-2.3.3-3.1,0-1.3-.6-2.1-1.5-2.1-1.5,0-4.1,1.5-9.4,5.2l-2,1.4.5,1.4,2.3-1.5c2-1.3,2.7-1.6,3.4-1.6s1.2.6,1.2,1.6-.1,2-.3,2.7l-4.1,24.1c-.7,4.2-2,10.6-3.4,16.9l-.6,2.6.5.4c1.5-.5,2.9-.8,5.1-1.2l2.9-18.4c1.5.5,3,1,4.3,1M2922.7,233.7l2.6,20.2h-15.2l12.6-20.2ZM2927.7,272.1c0,1.1-1.1,1.8-3,1.9l-3.1.2v2q7.2-.2,8.6-.2t8.6.2v-2l-1.8-.2c-3.3-.5-3.4-.5-3.9-3.7l-6.1-43.9h-3.2l-26.2,41.7c-2.5,3.9-3.8,5.1-6.2,5.6l-1.4.3v2.1q6.5-.2,7.9-.2c1.3,0,1.5,0,7.5.2v-2l-3.7-.2c-1.1,0-2.2-.7-2.2-1.3s.5-1.5,1.8-3.9l7.2-12.3h17.3l1.8,13.2v.2c0,.1.3,1.2.3,2.2M2853.4,275.9c1.1.6,2.2.8,3,.8,2.3,0,5.1-2,7.2-5.3l5.3-8.2.8,4.8c.9,6,2.5,8.7,5.1,8.7s3.8-1.2,6-3.2l3.4-3.1-.6-1.3c-2.5,2.1-4.3,3.2-5.4,3.2s-2-.7-2.7-2.1c-.6-1.3-1.4-3.9-1.8-6l-1.3-7.1,2.5-3.4c3.3-4.6,5.2-6.2,7.4-6.2s2,.6,2.3,1.6l1-.3,1.1-6c-.8-.5-1.5-.7-2.1-.7-2.8,0-5.6,2.5-10,9l-2.6,3.9-.4-3.4c-.8-7-2.7-9.5-6.9-9.5s-3.4.6-4,1.5l-4.1,5.8,1.2.7c2.1-2.4,3.5-3.4,4.9-3.4,2.3,0,3.9,2.9,5.1,9.8l.8,4.4-2.8,4.4c-3,4.7-5.4,7-7.4,7s-1.8-.3-2-.6l-.8-2-1.4.2c0,2.5-.6,4.3-.8,6.1"/>
      <path class="st54" d="M3013.5,293.8v1.3c9.2,0,9.2-.1,11-.1s1.8.1,11.3.1v-4.2c-5.7.2-7.9,0-17,.2l9-9.5c4.8-5.1,6.2-7.8,6.2-11.5,0-5.7-3.8-9.2-10.1-9.2s-6,1-8.4,3.4l-.8,6.7h1.4l.6-2.3c.8-2.9,2.6-4.1,5.9-4.1s6.9,2.7,6.9,6.8-2.1,7.3-7.6,13.2l-8.4,8.9Z"/>
      <path class="st54" d="M3392.6,264.3c1.5-9,9.1-18.2,14.9-18.2s2.7,1.5,2.7,4.8c0,5.7-2.8,14.1-6.5,19.4-1.4,2-3.7,3.1-6.5,3.1s-3.9-.5-5.8-1.6l1.3-7.5ZM3394.9,276.7c3.9,0,12-5.1,15-9.6,2.9-4.3,5.3-12,5.3-17.3s-1.6-7.8-4.1-7.8-6.7,1.8-10.3,5.1c-2.9,2.5-4.3,4.3-6.8,8.4l1.7-8.4c.2-1.2.4-2.3.4-3.1,0-1.3-.6-2.1-1.5-2.1-1.5,0-4.2,1.5-9.4,5.2l-2,1.4.5,1.4,2.2-1.5c2-1.3,2.7-1.6,3.4-1.6s1.2.6,1.2,1.6-.1,2-.3,2.7l-4.1,24.1c-.7,4.2-2,10.6-3.4,16.9l-.6,2.6.5.4c1.5-.5,2.9-.8,5.1-1.2l3-18.4c1.5.5,3,1,4.3,1M3357.5,264.3c1.5-9,9.1-18.2,14.9-18.2s2.7,1.5,2.7,4.8c0,5.7-2.8,14.1-6.5,19.4-1.4,2-3.7,3.1-6.5,3.1s-3.9-.5-5.8-1.6l1.3-7.5ZM3359.8,276.7c3.9,0,12-5.1,15-9.6,2.9-4.3,5.3-12,5.3-17.3s-1.6-7.8-4.1-7.8-6.7,1.8-10.3,5.1c-2.9,2.5-4.3,4.3-6.8,8.4l1.7-8.4c.2-1.2.3-2.3.3-3.1,0-1.3-.6-2.1-1.5-2.1-1.5,0-4.1,1.5-9.4,5.2l-2,1.4.5,1.4,2.3-1.5c2-1.3,2.7-1.6,3.4-1.6s1.2.6,1.2,1.6-.1,2-.3,2.7l-4.1,24.1c-.7,4.2-2,10.6-3.4,16.9l-.6,2.6.5.4c1.5-.5,2.9-.8,5.1-1.2l3-18.4c1.5.5,3,1,4.3,1M3329.6,233.7l2.6,20.2h-15.2l12.6-20.2ZM3334.5,272.1c0,1.1-1.1,1.8-3,1.9l-3.1.2v2q7.2-.2,8.6-.2t8.6.2v-2l-1.8-.2c-3.3-.5-3.4-.5-3.9-3.7l-6.1-43.9h-3.2l-26.2,41.7c-2.5,3.9-3.8,5.1-6.2,5.6l-1.4.3v2.1q6.5-.2,7.9-.2c1.3,0,1.5,0,7.5.2v-2l-3.7-.2c-1.1,0-2.2-.7-2.2-1.3s.5-1.5,1.8-3.9l7.2-12.3h17.3l1.8,13.2v.2c0,.1.3,1.2.3,2.2M3260.3,275.9c1.1.6,2.2.8,3,.8,2.3,0,5.1-2,7.2-5.3l5.3-8.2.8,4.8c.9,6,2.5,8.7,5.1,8.7s3.8-1.2,6-3.2l3.4-3.1-.6-1.3c-2.5,2.1-4.3,3.2-5.4,3.2s-2-.7-2.7-2.1c-.6-1.3-1.4-3.9-1.8-6l-1.3-7.1,2.5-3.4c3.3-4.6,5.2-6.2,7.4-6.2s2,.6,2.3,1.6l1-.3,1.1-6c-.8-.5-1.5-.7-2.1-.7-2.8,0-5.6,2.5-10,9l-2.6,3.9-.4-3.4c-.8-7-2.7-9.5-6.9-9.5s-3.4.6-4,1.5l-4.1,5.8,1.2.7c2.1-2.4,3.5-3.4,4.8-3.4,2.3,0,3.9,2.9,5.1,9.8l.8,4.4-2.8,4.4c-3,4.7-5.4,7-7.4,7s-1.8-.3-2-.6l-.8-2-1.4.2c0,2.5-.6,4.3-.8,6.1"/>
      <path class="st54" d="M3442.3,283.9c0-6-5.3-7-7.6-7.4,3.9-3.1,5.4-5.3,5.4-8.2,0-4.4-3.6-7.3-9.1-7.3s-5.6.9-7.9,3.3l-1.4,6.1h1.5l.9-2.8c.5-1.7,3.6-3.3,6.2-3.3s5.8,2.6,5.8,5.7-2.9,6.8-6.4,6.8-.9,0-1.6,0h-.7c0,0-.6,2.6-.6,2.6l.3.3c1.9-.8,2.8-1.1,4.1-1.1,4.1,0,6.4,2.6,6.4,7.1s-3,8.3-7.6,8.3-4.3-.7-5.7-2.1c-1.2-1.1-1.8-2.2-2.8-4.9l-1.3.5c1,3,1.4,4.8,1.7,7.2,2.6.9,4.8,1.3,6.6,1.3,6,0,13.7-5.3,13.7-12"/>
      <path class="st54" d="M2832.3,410.6l.5,1.4,2.2-1.5c2.6-1.6,2.8-1.8,3.3-1.8.8,0,1.3.7,1.3,1.8,0,3.6-2.9,17.1-5.8,27.2l.5.8c1.8-.5,3.4-.9,4.9-1.2,1.3-8.9,2.8-13.4,6-18.3,3.8-5.9,9.1-10.3,12.2-10.3s1.2.6,1.2,1.7-.2,2.7-.8,5l-3.7,14.9c-.6,2.6-.9,4.2-.9,5.3,0,1.8.8,2.8,2.1,2.8s4.4-1.5,11.2-6.6l-.7-1.3-1.8,1.2c-2,1.3-3.6,2.1-4.3,2.1s-.9-.6-.9-1.4,0-1.1.1-1.4l4.6-19.4c.5-2,.8-4,.8-5.2s-.8-2.5-2.2-2.5c-2.9,0-7.8,2.7-11.9,6.5-2.7,2.5-4.6,4.8-8.3,10l2.7-11.3c.3-1.3.4-2.1.4-2.9,0-1.5-.6-2.3-1.6-2.3s-4.2,1.5-9.3,5.2l-2,1.4ZM2816.5,406.6c4.3,0,6.6,3.2,6.6,9.1s-2.2,14.2-5.3,17.9c-1.3,1.5-3.1,2.3-5.3,2.3-4.1,0-6.5-3.2-6.5-8.7,0-7.9,2.7-16.6,6.2-19.4.9-.8,2.5-1.2,4.2-1.2M2800.7,427.1c0,7.4,3.2,11.5,9,11.5s8.1-1.8,11.2-4.8c4.4-4.1,7.4-12.2,7.4-19.3s-3.5-10.6-9.3-10.6-18.3,7-18.3,23.2M2796.1,387.8c-2,0-4.1,2.3-4.1,4.7s1.1,2.9,2.7,2.9,3.9-2,3.9-4.7-1.1-2.9-2.5-2.9M2782.4,410.6l.5,1.4,2.3-1.5c2.6-1.6,2.8-1.8,3.3-1.8s1.3.7,1.3,1.6-.3,2.1-.6,3.1l-4.6,16.9c-.6,2.2-.9,4.1-.9,5.4s.8,2.7,2.1,2.7,4.4-1.5,11.2-6.6l-.7-1.3-1.8,1.2c-2,1.3-3.7,2.1-4.3,2.1s-.9-.7-.9-1.4.1-1.3.5-2.8l5.4-21.4c.3-1.2.4-2,.4-2.5,0-1.2-.6-1.8-1.8-1.8s-4.2,1.5-9.4,5.2l-2,1.4ZM2765.5,410.4l-3.9,19.9c0,.6-.9,3.2-.9,5.3s.8,2.8,2.1,2.8c2.5,0,4.9-1.4,10.4-5.8l2.2-1.8-.7-1.3-3.2,2.2c-2,1.4-3.4,2.1-4.2,2.1s-1-.6-1-1.4c0-1.8,1-7.5,3-17.7l.9-4.4h7.5l.8-3.5c-2.7.3-5.1.4-7.7.4,1.1-6.6,1.9-10,3.2-13.8l-.8-1.1c-1.4.8-3.3,1.7-5.5,2.5l-1.8,11.9c-3.1,1.5-4.9,2.3-6.2,2.6v.9c-.1,0,5.8,0,5.8,0ZM2748,408.7c-1.5,7.7-2.9,11.3-5.3,15-4,5.9-8.3,10-10.5,10s-1.3-.9-1.3-2.8c0-4.5,2-12.7,4.4-18.3,1.7-3.9,3.3-5.1,6.7-5.1s2.9.3,6,1.3M2744.6,423.5l-2,8.9c-.3,1.2-.4,2.5-.4,3.6s.6,2.5,1.7,2.5c1.6,0,4.5-1.8,10.3-6.6l-.5-1.5c-1.7,1.4-3.7,3.3-5.3,3.3s-1.1-.6-1.1-1.6,0-.6,0-.8l6.5-26.6-.7-.6-2.3,1.3c-2.9-1.1-4.1-1.3-6-1.3s-3.4.4-5.3,1.3c-4.4,2.2-6.7,4.3-8.4,7.7-3.1,6.3-5.3,14.7-5.3,20.2s1.1,5.5,2.4,5.5c2.6,0,8.2-3.7,16.4-15.1M2688.3,410.6l.5,1.4,2.3-1.5c2.6-1.6,2.8-1.8,3.3-1.8.8,0,1.3.7,1.3,1.8,0,3.6-2.9,17.1-5.8,27.2l.5.8c1.8-.5,3.4-.9,4.9-1.2,1.3-8.9,2.8-13.4,6-18.3,3.8-5.9,9.1-10.3,12.2-10.3s1.2.6,1.2,1.7-.2,2.7-.8,5l-3.7,14.9c-.6,2.6-.9,4.2-.9,5.3,0,1.8.8,2.8,2.1,2.8s4.4-1.5,11.2-6.6l-.7-1.3-1.8,1.2c-2,1.3-3.6,2.1-4.3,2.1s-.9-.6-.9-1.4,0-1.1.1-1.4l4.6-19.4c.5-2,.8-4,.8-5.2s-.8-2.5-2.2-2.5c-2.9,0-7.8,2.7-11.9,6.5-2.7,2.5-4.6,4.8-8.3,10l2.7-11.3c.3-1.3.4-2.1.4-2.9,0-1.5-.6-2.3-1.6-2.3s-4.2,1.5-9.4,5.2l-2,1.4ZM2683.1,387.8c-2,0-4.1,2.3-4.1,4.7s1.1,2.9,2.7,2.9,3.9-2,3.9-4.7-1.1-2.9-2.5-2.9M2669.5,410.6l.5,1.4,2.2-1.5c2.6-1.6,2.8-1.8,3.3-1.8.7,0,1.3.7,1.3,1.6s-.3,2.1-.6,3.1l-4.6,16.9c-.6,2.2-.9,4.1-.9,5.4s.8,2.7,2.1,2.7,4.3-1.5,11.2-6.6l-.7-1.3-1.8,1.2c-2,1.3-3.7,2.1-4.3,2.1s-.9-.7-.9-1.4.1-1.3.5-2.8l5.4-21.4c.3-1.2.4-2,.4-2.5,0-1.2-.6-1.8-1.8-1.8s-4.2,1.5-9.4,5.2l-2,1.4ZM2663.8,430.6l-1.8,1.2c-2,1.3-3.6,2.1-4.3,2.1s-.9-.6-.9-1.4.1-1.3.5-2.8l5.3-20.9c.3-1.2.5-2.3.5-2.9,0-1.2-.7-2-1.8-2-2,0-4.7,1.3-9,4.3-4.4,3.2-6.9,5.6-10.3,10.5l2.1-9.6c.3-1.4.5-2.5.5-3,0-1.3-.7-2.2-1.8-2.2-2.1,0-5.3,1.5-9.2,4.5-3.1,2.4-4.5,3.9-9.1,10l2.3-9.3c.3-1.1.4-2.2.4-3,0-1.3-.6-2.2-1.6-2.2-1.5,0-4.1,1.5-9.3,5.2l-2,1.4.5,1.4c2.6-1.6,5.1-3.2,5.6-3.2.8,0,1.3.7,1.3,1.8,0,3.6-2.9,17.1-5.8,27.2l.2.8,4.8-1.1,1.5-7.2c1.7-7.8,3.6-11.9,7.5-16.2,2.9-3.2,6.1-5.3,8.1-5.3s.8.6.8,1.5c0,2.5-1.5,10.5-4.4,22.8l-1.1,4.7.4.8,4.8-1.1,1.5-7.5c1.1-5.7,3.5-11,6.6-14.4,3.9-4.3,7.4-6.8,9.6-6.8s.9.6.9,1.8c0,1.7-.2,2.7-1.8,8.8-2.8,11.2-3.9,12.6-3.9,16.4s.8,2.8,2.1,2.8,4.4-1.5,11.2-6.6l-.7-1.3ZM2611.1,412.2c.2-2.7.6-4.9,1.1-7.8-.8-.4-1.1-.4-1.4-.4-2.2,0-4.4,1.7-6.9,5.3-2.7,3.9-5.5,8.1-6.6,10.6l2.3-10.7c.3-1.2.4-2.1.4-3,0-1.4-.6-2.3-1.6-2.3s-4.2,1.5-9.4,5.2l-2,1.4.5,1.4,2.3-1.5c2-1.3,2.7-1.6,3.4-1.6s1.2.6,1.2,1.5c0,4.1-3,18.6-5.8,27.6l.7.5c1.1-.3,2.2-.6,3.8-.9h.9c0-.1,1.8-8.6,1.8-8.6,1.3-5.8,2.9-9.6,6-13.6,2.4-3.1,4.3-4.6,5.8-4.6s1.8.3,2.5,1.3h1ZM2565.9,418.6c1.2-4.8,2.6-7.9,4.6-9.7,1.3-1.1,3.4-2,5.1-2s3.4,1.4,3.4,3.7-2.5,6.4-6.1,8.2c-2,1-4.5,1.8-7.7,2.5l.6-2.6ZM2581,430l-1.7,1.2c-3.7,2.7-7.1,4.1-9.6,4.1s-5.3-2.6-5.3-6.8.2-3.7.6-5.7c1.2-.3,8.9-2.4,10.6-3.2,6-2.6,8.7-5.8,8.7-10.2s-2.4-5.5-5.9-5.5c-4.8-1-12.5,4.2-15.1,9.4-2.1,3.5-4.2,11.9-4.2,16.6s3.1,8.7,8.2,8.7,7.9-2,14.4-7.2l-.6-1.3ZM2542.5,392.4h5.1c5.5,0,8,.3,8.2,1.2.2.6.3,1.9.3,2.6l-.3,4.5h2l1.9-11.5h-6.4c-6.2.1-11,.2-13.4.2s-7.1,0-13.1-.1h-6.7c0,0-1.3,11.4-1.3,11.4h2l1.1-4.2c.3-1.5.8-2.7,1.3-3.2.4-.5,3.1-.9,5.7-.9h7.9l-6,36.6c-1.1,6.4-1.3,6.6-4.1,6.8l-3.6.2-.3,2h4c2.8-.1,4.9-.2,6-.2s3.5,0,6.3.1h3.1c0,0,.2-1.9.2-1.9l-4.1-.2c-1.8,0-2.5-.6-2.5-2.1s0-1.1.3-2.5l6.6-38.9ZM2463.6,436.2v1.8c13.1,0,13.1-.2,15.7-.2s2.5.2,16.1.2v-6c-8.1.3-11.3,0-24.3.3l12.8-13.6c6.8-7.2,8.9-11.1,8.9-16.4,0-8.1-5.5-13.1-14.4-13.1s-8.5,1.4-11.9,4.9l-1.2,9.6h2l.9-3.2c1.1-4.1,3.7-5.8,8.4-5.8s9.9,3.8,9.9,9.8-3,10.5-10.9,18.9l-11.9,12.7ZM2435.2,414.4h8.2l9.3.3,1.3-3.2-.3-.5c-5.7.3-9.9.4-15.4.4h-2.6l3.3-19c2.3,0,8.1-.3,9.6-.3,4.4,0,7.2.6,7.3,1.7l.6,6.3h1.7c.2-4.5.7-8,1.5-10.7-1.5-.1-3.6-.2-4.9-.2s-1,0-2.7,0h-8.4c-.6.1-12.9,0-13.6,0h-3.2c0,0-.2,1.9-.2,1.9h3.8c1.7.2,2.5.8,2.5,2s-.3,3.2-.6,5.3l-6.1,35.4c-.3,1.3-1.1,1.8-4.2,2.2l-.3,1.8h2.9c2.2-.1,6.5-.2,7.9-.2l15.8.2c1,0,2.7,0,5.1-.1h2.3c0,0,.3-2.6.3-2.6.1-1.4.5-3.5,1.1-7l.4-1.8h-1.9l-1.1,4.2c-.7,2.5-1.3,3.4-2.9,3.7-1.4.3-6.5.6-10.3.6s-4.8,0-9.6-.5l3.5-20.2Z"/>
      <path class="st54" d="M3356.4,418.6c1.2-4.8,2.6-7.9,4.6-9.7,1.3-1.1,3.4-2,5.1-2s3.4,1.4,3.4,3.7-2.5,6.4-6.1,8.2c-2,1-4.5,1.8-7.7,2.5l.6-2.6ZM3371.5,430l-1.7,1.2c-3.7,2.7-7.1,4.1-9.6,4.1s-5.3-2.6-5.3-6.8.2-3.7.6-5.7c1.2-.3,8.9-2.4,10.6-3.2,6-2.6,8.7-5.8,8.7-10.2s-2.4-5.5-5.9-5.5c-4.8-1-12.5,4.2-15.1,9.4-2.1,3.5-4.2,11.9-4.2,16.6s3.1,8.7,8.2,8.7,7.9-2,14.4-7.2l-.6-1.3ZM3323.4,427.4c-.4,3.6-.8,6-1.6,9.3,2.7,1.3,5.1,1.9,7.5,1.9s6.7-1.3,10.3-4.1c3.6-2.8,5.1-5.4,5.1-8.9s-2.3-5.8-7.4-6.8l-3-.6c-4.2-.8-5.5-2-5.5-4.8s3.2-6.6,7.2-6.6,5.6,1.3,6.7,3.2v3.9h1.6c.3-2.5.6-4.4,1.3-7.9-2.7-1.3-4.7-1.9-7-1.9-3.7,0-7.9,2.1-11.3,5.5-1.8,1.9-2.6,3.7-2.6,6.2,0,3.9,2.2,6.2,6.8,7.1l4.4.8c3.1.6,4.2,1.8,4.2,4.6,0,4.6-3.2,7.7-8.2,7.7s-4.6-.8-6.6-2.5v-5.9h-1.8ZM3312.5,408.7c-1.5,7.7-2.9,11.3-5.3,15-4,5.9-8.3,10-10.5,10s-1.3-.9-1.3-2.8c0-4.5,2-12.7,4.4-18.3,1.7-3.9,3.3-5.1,6.7-5.1s2.9.3,6,1.3M3309.1,423.5l-2,8.9c-.3,1.2-.4,2.5-.4,3.6s.6,2.5,1.7,2.5c1.6,0,4.5-1.8,10.3-6.6l-.5-1.5c-1.7,1.4-3.7,3.3-5.3,3.3s-1.1-.6-1.1-1.6,0-.6,0-.8l6.5-26.6-.7-.6-2.3,1.3c-2.9-1.1-4.1-1.3-6-1.3s-3.4.4-5.3,1.3c-4.3,2.2-6.7,4.3-8.4,7.7-3.1,6.3-5.3,14.7-5.3,20.2s1.1,5.5,2.4,5.5c2.6,0,8.2-3.7,16.4-15.1M3280.3,408c1.8,0,2.7,1.6,2.7,5.1s-1.5,10.5-3.6,15.1c-2.3,4.8-5.1,7.1-8.9,7.1s-5-1.6-5-4.6,1.1-12.3,6.8-18.3c2.3-2.4,6-4.4,8-4.4M3274.1,387.1l-.8-.8c-3.7,1.8-6.2,2.5-11.2,3l-.3,1.5h3.4c1.7,0,2.4.5,2.4,1.7s0,1.3-.1,1.7l-7.1,38.7c0,.2,0,.5,0,.7,0,2.7,3.4,5.1,7.2,5.1s6.2-1.3,9.2-3.5c6.8-4.8,11.4-14.4,11.4-23.7s-.6-5.4-1.5-6.5c-.5-.6-1.4-1-2.5-1-1.7,0-3.8.6-5.8,1.5-3.6,1.9-5.9,4-10.3,9.6l6-28ZM3248.9,408.7c-1.5,7.7-2.9,11.3-5.3,15-4,5.9-8.3,10-10.5,10s-1.3-.9-1.3-2.8c0-4.5,2-12.7,4.4-18.3,1.7-3.9,3.3-5.1,6.7-5.1s2.9.3,6,1.3M3245.5,423.5l-2,8.9c-.3,1.2-.4,2.5-.4,3.6s.6,2.5,1.7,2.5c1.6,0,4.5-1.8,10.3-6.6l-.5-1.5c-1.7,1.4-3.7,3.3-5.3,3.3s-1.1-.6-1.1-1.6,0-.6,0-.8l6.5-26.6-.7-.6-2.3,1.3c-2.9-1.1-4.1-1.3-6-1.3s-3.4.4-5.3,1.3c-4.4,2.2-6.7,4.3-8.4,7.7-3.1,6.3-5.3,14.7-5.3,20.2s1.1,5.5,2.4,5.5c2.6,0,8.2-3.7,16.4-15.1M3211.9,410.4l-3.9,19.9c0,.6-.9,3.2-.9,5.3s.8,2.8,2.1,2.8c2.5,0,4.9-1.4,10.4-5.8l2.2-1.8-.7-1.3-3.2,2.2c-2,1.4-3.4,2.1-4.2,2.1s-1-.6-1-1.4c0-1.8,1-7.5,3-17.7l.9-4.4h7.5l.8-3.5c-2.7.3-5.1.4-7.7.4,1.1-6.6,1.9-10,3.2-13.8l-.8-1.1c-1.4.8-3.3,1.7-5.5,2.5l-1.8,11.9c-3.1,1.5-4.9,2.3-6.2,2.6v.9c-.1,0,5.8,0,5.8,0ZM3194.4,408.7c-1.5,7.7-2.9,11.3-5.3,15-4,5.9-8.3,10-10.5,10s-1.3-.9-1.3-2.8c0-4.5,2-12.7,4.4-18.3,1.7-3.9,3.3-5.1,6.7-5.1s2.9.3,6,1.3M3191.1,423.5l-2,8.9c-.3,1.2-.4,2.5-.4,3.6s.6,2.5,1.7,2.5c1.6,0,4.5-1.8,10.3-6.6l-.5-1.5c-1.7,1.4-3.7,3.3-5.3,3.3s-1-.6-1-1.6,0-.6,0-.8l6.5-26.6-.7-.6-2.3,1.3c-2.9-1.1-4.1-1.3-6-1.3s-3.4.4-5.3,1.3c-4.4,2.2-6.7,4.3-8.4,7.7-3.1,6.3-5.3,14.7-5.3,20.2s1.1,5.5,2.4,5.5c2.6,0,8.2-3.7,16.4-15.1M3144.4,391.8c12.8,0,18.6,5.3,18.6,16.9s-7,26.3-22.5,26.3-6.5-.4-11.3-1.1c0-.8,0-1.3.3-2.6l6.7-39.2c1.6,0,5.7-.3,8.2-.3M3139.6,438c5.1,0,8.5-.8,12.2-2.6,11-5.6,17.7-16.2,17.7-27.9s-2.1-11.8-6.4-14.8c-3.2-2.3-9.2-3.6-15.9-3.5l-14.3.2h-.7c-.6,0-.8,0-7.9-.2l-.2,2h3.7c1.7.2,2.5.8,2.5,2s-.3,3.2-.6,5.3l-6.1,35.4c-.3,1.7-2.1,1.8-3.7,2.2l-.3,1.8,6.5-.2h3.9c2.5,0,7.4.2,9.8.2"/>
    </g>
    <rect class="st6" x="2238" y="28.4" width="1370.6" height="519.9"/>
  </g>
  <g class="st47">
    <rect class="st14" x="392.8" y="812.4" width="680.3" height="381"/>
  </g>
  <g class="st45">
    <rect class="st1" x="392.8" y="812.4" width="680.3" height="381"/>
  </g>
  <g class="st46">
    <rect class="st13" x="474.5" y="934.8" width="503.4" height="95.2"/>
    <rect class="st2" x="474.5" y="934.8" width="503.4" height="95.2"/>
    <rect class="st13" x="474.5" y="1030.1" width="503.4" height="95.2"/>
    <rect class="st2" x="474.5" y="1030.1" width="503.4" height="95.2"/>
  </g>
  <g class="st52">
    <path class="st53" d="M860.3,866.2l4.9-19.6c.6-2.6,1.1-2.6,3.5-2.6h6.1c5,0,8.6,1.9,8.6,6.4s-1.1,8.4-3.8,11.6c-2.5,2.8-6.1,4.1-10.4,4.1h-9ZM842.1,889.8c0,.9.8.9,1,.9,2.7,0,5.6-.2,8.4-.2s5.8.2,8.6.2,1.4,0,1.4-1.3-.5-.9-1.9-.9c-4.1,0-4.1-.6-4.1-1.2s0-.4.3-1.4l4.4-17.7h11.1c9,0,18.6-7.3,18.6-15.6s-4.9-10.6-12.6-10.6h-21.4c-1.1,0-1.9,0-1.9,1.4s.6.9,1.9.9c2.2,0,4.1,0,4.1,1.2s0,.4-.3,1.4l-9.6,38.8c-.6,2.4-1,3-5.9,3s-1.9,0-1.9,1.4M797.2,873.1c0,11.7,7.6,19.1,17.5,19.1s21.7-15.3,21.7-18.7-.7-.7-1.1-.7-.9,0-1.1.6c-3.6,12.1-12.6,16.6-18.5,16.6s-12.3-4-12.3-14.1,1.8-15.6,7.5-23.5c4.9-6.6,11.4-9.9,16.9-9.9s10.1,6.9,10.1,13.1-.4,4.1-.4,4.4c0,.7.7.7,1.1.7.8,0,1,0,1.3-1.3l4.4-17.4c0-.3.1-.7.1-1s0-.7-.8-.7-.5,0-1.1.8l-4.5,5.3c-3.1-4.9-7.2-6.1-10.8-6.1-14.7,0-30.1,16.1-30.1,32.8M767.1,876.3c0,.9.7,1,1.6,1h14.3c.4,0,.8,0,1.1-.2.8-.4,1-2.7,1-2.8,0-.9-.8-1-1.6-1h-14.2c-.4,0-.6,0-.9.1-.9.4-1.2,2.9-1.2,2.9M722.3,878.8c0,8.6,6,13.4,12.7,13.4s17-9.3,18.9-17.1l6.5-26.1c1.1-4.6,5.1-4.8,7.2-4.9.2,0,1.1,0,1.1-1.3s-.3-.9-.9-.9c-2.1,0-4.5.2-6.7.2s-4.6-.2-6.9-.2-1.3,0-1.3,1.4.6.9,1.3.9c3.7.1,4.3,1.6,4.3,3.1s-.1,1.1-.3,1.7l-6.4,25.4c-2.3,9.2-9.9,15.7-16.6,15.7s-7.6-2.4-7.6-8.9.4-3.9.7-5.4l7.1-28.7c.6-2.3,1.1-2.9,5.6-2.9s2.1,0,2.1-1.3-.5-.9-1-.9c-2.7,0-5.6.2-8.4.2s-5.8-.2-8.6-.2-1.4,0-1.4,1.4.6.9,1.9.9c2.2,0,4.1,0,4.1,1.2s0,.4-.3,1.4l-6.9,27.6c-.6,2.3-.6,3.9-.6,4.6M667.5,873.1c0,11.7,7.6,19.1,17.5,19.1,13.9,0,21.7-15.3,21.7-18.7s-.7-.7-1.1-.7-.9,0-1.1.6c-3.6,12.1-12.6,16.6-18.5,16.6s-12.3-4-12.3-14.1,1.8-15.6,7.5-23.5c4.9-6.6,11.4-9.9,16.9-9.9s10.1,6.9,10.1,13.1-.4,4.1-.4,4.4c0,.7.7.7,1.1.7.8,0,1,0,1.3-1.3l4.4-17.4c0-.3.1-.7.1-1s0-.7-.8-.7-.5,0-1.1.8l-4.5,5.3c-3.1-4.9-7.2-6.1-10.8-6.1-14.7,0-30.1,16.1-30.1,32.8M637.4,876.3c0,.9.7,1,1.6,1h14.3c.4,0,.8,0,1.1-.2.8-.4,1-2.7,1-2.8,0-.9-.8-1-1.6-1h-14.2c-.4,0-.6,0-.9.1-.9.4-1.2,2.9-1.2,2.9M593.5,876c0-3.3,1-13.3,6-22,3.8-6.7,10.3-11.9,16.5-11.9s10.7,4.3,10.7,13.9-2.6,15.8-6.4,22.3c-4.6,7.9-11,12.1-16.4,12.1s-10.5-5.9-10.5-14.4M587.1,873.8c0,10.8,6.7,18.4,16.4,18.4,14.3,0,29.3-16.1,29.3-33.3s-7.3-18.6-16.3-18.6c-14.6,0-29.4,16.9-29.4,33.5"/>
    <path class="st53" d="M758.5,981.8c0,14.8,11.6,26,24.9,26s18.6-9.9,18.6-18.2,0-1.2-.9-1.2-.8.4-.9,1.1c-.6,10.2-8.2,16.1-16,16.1s-18.4-2.4-18.4-23.7,13.9-23.8,18.3-23.8c7.8,0,14.1,6.5,15.6,16.9.1,1,.1,1.2,1.1,1.2s1.1-.2,1.1-1.7v-16.9c0-1.2,0-1.7-.8-1.7s-.6,0-1.1.9l-3.6,5.3c-2.6-2.6-6.3-6.1-13.1-6.1-13.4,0-24.9,11.4-24.9,25.9M719.9,981.1v-18.5c0-1.6,0-2.5,1.6-2.7.7-.1,2.8-.1,4.2-.1,6.4,0,14.4.3,14.4,10.6s-1.7,10.7-12.3,10.7h-7.9ZM706.4,1006.3c2.6-.2,7.6-.2,10.4-.2s7.9,0,10.4.2v-2.2h-1.7c-5.5,0-5.6-.8-5.6-3.4v-18.1h8.2c1.1,0,4.1,0,6.6,2.4,2.7,2.6,2.7,4.8,2.7,9.6s0,7.5,2.9,10.2c2.9,2.6,6.9,3,9,3,5.6,0,6.8-5.9,6.8-7.9s0-1.2-.9-1.2-.8.6-.9,1.1c-.4,5.1-2.9,6.4-4.7,6.4-3.5,0-4.1-3.6-5.1-10.3l-.9-5.7c-1.3-4.6-4.8-6.9-8.7-8.3,6.9-1.7,12.5-6.1,12.5-11.6s-8.1-12.9-18.6-12.9h-22.4v2.2h1.7c5.5,0,5.6.8,5.6,3.4v37.6c0,2.6-.1,3.4-5.6,3.4h-1.7v2.2ZM667.4,981.1v-18.5c0-1.6,0-2.5,1.6-2.7.7-.1,2.8-.1,4.2-.1,6.4,0,14.4.3,14.4,10.6s-1.7,10.7-12.3,10.7h-7.9ZM653.9,1006.3c2.6-.2,7.6-.2,10.4-.2s7.9,0,10.4.2v-2.2h-1.7c-5.5,0-5.6-.8-5.6-3.4v-18.1h8.2c1.1,0,4.1,0,6.6,2.4,2.7,2.6,2.7,4.8,2.7,9.6s0,7.5,2.9,10.2c2.9,2.6,6.9,3,9,3,5.6,0,6.8-5.9,6.8-7.9s0-1.2-.9-1.2-.8.6-.9,1.1c-.4,5.1-2.9,6.4-4.7,6.4-3.5,0-4.1-3.6-5.1-10.3l-.9-5.7c-1.3-4.6-4.8-6.9-8.7-8.3,6.9-1.7,12.5-6.1,12.5-11.6s-8.1-12.9-18.6-12.9h-22.4v2.2h1.7c5.5,0,5.6.8,5.6,3.4v37.6c0,2.6-.1,3.4-5.6,3.4h-1.7v2.2Z"/>
    <path class="st53" d="M808.4,1077.1v-19.3c0-2.4.1-2.9,3.5-2.9h6.4c11.4,0,11.4,7.6,11.4,11.1s0,11.1-11.4,11.1h-9.9ZM794.9,1101.5c2.5-.2,7.8-.2,10.5-.2s8.1,0,10.6.2v-2.2h-1.7c-5.5,0-5.6-.8-5.6-3.4v-17h12.1c8.6,0,16.3-5.8,16.3-12.9s-7.1-13.3-16.9-13.3h-25.2v2.2h1.7c5.5,0,5.6.8,5.6,3.4v37.6c0,2.6-.1,3.4-5.6,3.4h-1.7v2.2ZM744.8,1077.1c0,14.8,11.6,26,24.9,26s18.6-9.9,18.6-18.2,0-1.2-.9-1.2-.8.4-.9,1.1c-.6,10.2-8.2,16.1-16,16.1s-18.4-2.4-18.4-23.7,13.9-23.8,18.3-23.8c7.8,0,14.1,6.5,15.6,16.9.1,1,.1,1.2,1.1,1.2s1.1-.2,1.1-1.7v-16.9c0-1.2,0-1.7-.8-1.7s-.6,0-1.1.9l-3.6,5.3c-2.6-2.6-6.3-6.1-13.1-6.1-13.4,0-24.9,11.4-24.9,25.9M702.3,1096.4v-38.6c0-2.4.1-2.9,3.5-2.9h7.1c4.4,0,9.4,1.6,13,6.6,3.1,4.2,3.7,10.4,3.7,15.9,0,7.9-1.4,12.2-3.9,15.7-1.4,1.9-5.5,6.1-12.7,6.1h-7.2c-3.4,0-3.5-.5-3.5-2.9M688.8,1101.5h26.1c12,0,21.9-10.6,21.9-24s-9.6-24.8-21.9-24.8h-26.1v2.2h1.7c5.5,0,5.6.8,5.6,3.4v37.6c0,2.6-.1,3.4-5.6,3.4h-1.7v2.2ZM653.7,1077.1v-19.3c0-2.4.1-2.9,3.5-2.9h6.4c11.4,0,11.4,7.6,11.4,11.1s0,11.1-11.4,11.1h-9.9ZM640.2,1101.5c2.5-.2,7.8-.2,10.5-.2s8.1,0,10.6.2v-2.2h-1.7c-5.5,0-5.6-.8-5.6-3.4v-17h12.1c8.6,0,16.3-5.8,16.3-12.9s-7.1-13.3-16.9-13.3h-25.2v2.2h1.7c5.5,0,5.6.8,5.6,3.4v37.6c0,2.6-.1,3.4-5.6,3.4h-1.7v2.2Z"/>
  </g>
  <g class="st49">
    <rect class="st5" x="318.6" y="637.5" width="1548" height="697.5"/>
  </g>
  <g class="st48">
    <g>
      <path d="M858.9,749.2c-3.6,0-6.8-.8-9.5-2.5s-4.8-4-6.2-7.1c-1.5-3-2.2-6.6-2.2-10.7h0c0-4.1.7-7.7,2.2-10.7,1.5-3,3.5-5.4,6.2-7,2.7-1.7,5.8-2.5,9.5-2.5s5.2.5,7.4,1.5c2.2,1,4.1,2.5,5.6,4.3,1.5,1.8,2.5,4,3,6.5v.3c0,0-4.9,0-4.9,0l-.2-.6c-.5-1.6-1.3-2.9-2.3-4.1-1-1.1-2.2-2-3.7-2.6-1.4-.6-3.1-.9-4.9-.9s-4.9.6-6.8,1.9c-1.9,1.3-3.4,3.1-4.5,5.5-1.1,2.3-1.6,5.1-1.6,8.3h0c0,3.2.5,6,1.6,8.3,1.1,2.4,2.6,4.2,4.5,5.5,1.9,1.3,4.2,2,6.8,2s3.5-.3,4.9-.9c1.4-.6,2.7-1.5,3.7-2.6,1-1.2,1.8-2.6,2.4-4.3v-.2h5v.3c-.5,2.5-1.5,4.7-3,6.5-1.5,1.9-3.3,3.3-5.6,4.3-2.2,1-4.7,1.5-7.4,1.5Z"/>
      <path d="M890.5,749.1c-2.6,0-4.9-.6-6.9-1.8-2-1.2-3.5-2.9-4.6-5.1s-1.6-4.8-1.6-7.8h0c0-3.1.5-5.7,1.6-7.8,1.1-2.2,2.6-3.9,4.6-5.1,2-1.2,4.2-1.8,6.8-1.8s4.9.6,6.9,1.8c2,1.2,3.5,2.9,4.6,5.1,1.1,2.2,1.6,4.8,1.6,7.8h0c0,3.1-.5,5.7-1.6,7.9s-2.6,3.9-4.6,5.1c-2,1.2-4.2,1.8-6.8,1.8ZM890.5,744.9c1.7,0,3.1-.4,4.3-1.2,1.2-.8,2.2-2,2.9-3.6.7-1.6,1-3.5,1-5.7h0c0-2.3-.3-4.1-1-5.7-.7-1.6-1.6-2.7-2.9-3.6-1.2-.8-2.7-1.2-4.4-1.2s-3.1.4-4.3,1.2c-1.2.8-2.2,2-2.9,3.6-.7,1.5-1,3.4-1,5.6h0c0,2.3.3,4.2,1,5.7.7,1.6,1.7,2.8,2.9,3.6,1.2.8,2.7,1.2,4.4,1.2Z"/>
      <path d="M907.1,748.5v-28.3h4.7v4h.1c.8-1.3,1.9-2.4,3.3-3.3s3.2-1.3,5.4-1.3c3.1,0,5.5.9,7.2,2.8,1.7,1.9,2.6,4.4,2.6,7.7v18.3h-4.7v-17.5c0-2.3-.5-4.1-1.6-5.3-1.1-1.2-2.7-1.8-4.9-1.8s-2.8.3-3.9,1c-1.1.7-2,1.6-2.6,2.8-.6,1.2-.9,2.6-.9,4.2v16.6h-4.7Z"/>
      <path d="M944.3,749.1c-2.6,0-4.5-.6-5.8-1.8-1.3-1.2-1.9-3.2-1.9-5.9v-17.1h-4.1v-3.9h4.1v-7.6h4.9v7.6h5.4v3.9h-5.4v17.1c0,1.5.3,2.5,1,3.1.7.5,1.6.8,2.9.8s.6,0,.8,0c.3,0,.5,0,.7,0v3.8c-.3,0-.7,0-1.1.1-.5,0-.9,0-1.4,0Z"/>
      <path d="M950.7,748.5v-28.3h4.7v4.8h.1c.5-1.6,1.3-2.9,2.4-3.9,1.2-1,2.5-1.4,4.1-1.4s.8,0,1.1,0c.3,0,.6,0,.8.1v4.6c-.2,0-.5-.1-1-.2-.5,0-1,0-1.6,0-1.2,0-2.3.3-3.2.8-.9.5-1.6,1.3-2.1,2.4-.5,1-.7,2.3-.7,3.7v17.4h-4.7Z"/>
      <path d="M977.4,749.1c-2.6,0-4.9-.6-6.9-1.8-2-1.2-3.5-2.9-4.6-5.1s-1.6-4.8-1.6-7.8h0c0-3.1.5-5.7,1.6-7.8,1.1-2.2,2.6-3.9,4.6-5.1,2-1.2,4.2-1.8,6.8-1.8s4.9.6,6.9,1.8c2,1.2,3.5,2.9,4.6,5.1,1.1,2.2,1.6,4.8,1.6,7.8h0c0,3.1-.5,5.7-1.6,7.9s-2.6,3.9-4.6,5.1c-2,1.2-4.2,1.8-6.8,1.8ZM977.4,744.9c1.7,0,3.1-.4,4.3-1.2,1.2-.8,2.2-2,2.9-3.6.7-1.6,1-3.5,1-5.7h0c0-2.3-.3-4.1-1-5.7-.7-1.6-1.6-2.7-2.9-3.6-1.2-.8-2.7-1.2-4.4-1.2s-3.1.4-4.3,1.2c-1.2.8-2.2,2-2.9,3.6-.7,1.5-1,3.4-1,5.6h0c0,2.3.3,4.2,1,5.7.7,1.6,1.7,2.8,2.9,3.6,1.2.8,2.7,1.2,4.4,1.2Z"/>
      <path d="M994.2,748.5v-39.2h4.7v39.2h-4.7Z"/>
      <path d="M1030.7,749.2c-3.2,0-6-.6-8.4-1.8-2.3-1.2-4.1-2.9-5.4-5.1-1.2-2.2-1.9-4.7-1.9-7.5v-25.5h4.9v25.1c0,2,.4,3.8,1.3,5.3.8,1.5,2.1,2.7,3.7,3.6,1.6.9,3.5,1.3,5.8,1.3s4.2-.4,5.8-1.3c1.6-.9,2.8-2.1,3.6-3.6.8-1.5,1.2-3.3,1.2-5.3v-25.1h4.9v25.5c0,2.8-.6,5.3-1.9,7.5-1.2,2.2-3,3.9-5.3,5.1-2.3,1.2-5.1,1.8-8.3,1.8Z"/>
      <path d="M1051.9,748.5v-28.3h4.7v4h.1c.8-1.3,1.9-2.4,3.3-3.3s3.2-1.3,5.4-1.3c3.1,0,5.5.9,7.2,2.8,1.7,1.9,2.6,4.4,2.6,7.7v18.3h-4.7v-17.5c0-2.3-.5-4.1-1.6-5.3-1.1-1.2-2.7-1.8-4.9-1.8s-2.8.3-3.9,1c-1.1.7-2,1.6-2.6,2.8-.6,1.2-.9,2.6-.9,4.2v16.6h-4.7Z"/>
      <path d="M1082.6,715.5c-.8,0-1.5-.3-2.1-.9-.6-.6-.9-1.3-.9-2.1s.3-1.5.9-2.1c.6-.6,1.3-.9,2.1-.9s1.5.3,2.1.9c.6.6.9,1.3.9,2.1s-.3,1.5-.9,2.1-1.3.9-2.1.9ZM1080.3,748.5v-28.3h4.7v28.3h-4.7Z"/>
      <path d="M1099.4,749.1c-2.6,0-4.5-.6-5.8-1.8-1.3-1.2-1.9-3.2-1.9-5.9v-17.1h-4.1v-3.9h4.1v-7.6h4.9v7.6h5.4v3.9h-5.4v17.1c0,1.5.3,2.5,1,3.1.7.5,1.6.8,2.9.8s.6,0,.8,0c.3,0,.5,0,.7,0v3.8c-.3,0-.7,0-1.1.1-.5,0-.9,0-1.4,0Z"/>
      <path d="M1125.8,758.1c-1.8-2.2-3.2-4.6-4.4-7.2-1.1-2.5-2-5.2-2.5-8.1-.6-2.9-.8-5.9-.8-9.1s.3-6.3.8-9.1,1.4-5.5,2.5-8.1c1.1-2.5,2.6-4.9,4.3-7.2h4c-1,1.1-1.9,2.6-2.7,4.4-.8,1.8-1.6,3.8-2.2,6-.6,2.2-1.1,4.5-1.5,6.9-.3,2.4-.5,4.7-.5,7s.2,4.6.5,7c.3,2.4.8,4.7,1.5,6.9s1.4,4.2,2.2,6c.8,1.8,1.7,3.3,2.7,4.4h-4Z"/>
      <path d="M1150,749.2c-3.7,0-6.9-.8-9.6-2.5-2.7-1.6-4.8-4-6.3-7-1.5-3-2.2-6.6-2.2-10.8h0c0-4.2.7-7.8,2.2-10.8s3.6-5.3,6.3-7,5.9-2.5,9.6-2.5,6.9.8,9.6,2.5c2.7,1.6,4.8,4,6.3,7,1.5,3,2.2,6.6,2.2,10.7h0c0,4.2-.7,7.8-2.2,10.8-1.5,3-3.5,5.4-6.2,7-2.7,1.6-5.9,2.5-9.6,2.5ZM1150,744.7c2.7,0,5-.6,7-1.9,1.9-1.3,3.4-3.1,4.5-5.5,1.1-2.4,1.6-5.1,1.6-8.3h0c0-3.3-.5-6-1.6-8.4-1.1-2.4-2.6-4.2-4.5-5.4-2-1.3-4.3-1.9-6.9-1.9s-5,.6-6.9,1.9-3.5,3.1-4.6,5.4c-1.1,2.3-1.6,5.1-1.6,8.4h0c0,3.3.5,6,1.6,8.4,1.1,2.4,2.6,4.2,4.5,5.5,2,1.3,4.3,1.9,7,1.9Z"/>
      <path d="M1172.4,734.8v-4.4h17.4v4.4h-17.4Z"/>
      <path d="M1212,749.2c-3.6,0-6.8-.8-9.5-2.5s-4.8-4-6.2-7.1c-1.5-3-2.2-6.6-2.2-10.7h0c0-4.1.7-7.7,2.2-10.7,1.5-3,3.5-5.4,6.2-7,2.7-1.7,5.8-2.5,9.5-2.5s5.2.5,7.4,1.5c2.2,1,4.1,2.5,5.6,4.3,1.5,1.8,2.5,4,3,6.5v.3c0,0-4.9,0-4.9,0l-.2-.6c-.5-1.6-1.3-2.9-2.3-4.1-1-1.1-2.2-2-3.7-2.6-1.4-.6-3.1-.9-4.9-.9s-4.9.6-6.8,1.9c-1.9,1.3-3.4,3.1-4.5,5.5-1.1,2.3-1.6,5.1-1.6,8.3h0c0,3.2.5,6,1.6,8.3s2.6,4.2,4.5,5.5c1.9,1.3,4.2,2,6.8,2s3.5-.3,4.9-.9,2.7-1.5,3.7-2.6c1-1.2,1.8-2.6,2.4-4.3v-.2h5v.3c-.5,2.5-1.5,4.7-3,6.5-1.5,1.9-3.3,3.3-5.6,4.3-2.2,1-4.7,1.5-7.4,1.5Z"/>
      <path d="M1248.1,749.2c-3.2,0-6-.6-8.4-1.8-2.3-1.2-4.1-2.9-5.4-5.1-1.2-2.2-1.9-4.7-1.9-7.5v-25.5h4.9v25.1c0,2,.4,3.8,1.3,5.3.8,1.5,2.1,2.7,3.7,3.6,1.6.9,3.5,1.3,5.8,1.3s4.2-.4,5.8-1.3c1.6-.9,2.8-2.1,3.6-3.6.8-1.5,1.2-3.3,1.2-5.3v-25.1h4.9v25.5c0,2.8-.6,5.3-1.9,7.5-1.2,2.2-3,3.9-5.3,5.1-2.3,1.2-5.1,1.8-8.3,1.8Z"/>
      <path d="M1271.3,758.1h-4c1-1.1,1.9-2.6,2.7-4.4.8-1.8,1.6-3.8,2.2-6.1s1.1-4.5,1.5-6.9c.3-2.4.5-4.7.5-7s-.2-4.6-.5-7c-.3-2.4-.8-4.7-1.5-6.9-.6-2.2-1.4-4.2-2.2-6-.8-1.8-1.7-3.3-2.7-4.4h4c1.8,2.2,3.2,4.6,4.4,7.2,1.1,2.5,2,5.2,2.5,8.1.6,2.9.8,5.9.8,9.1s-.3,6.3-.8,9.1c-.6,2.9-1.4,5.6-2.5,8.1-1.1,2.5-2.6,4.9-4.4,7.1Z"/>
    </g>
  </g>
  <g class="st51">
    <rect class="st14" x="1112.1" y="812.4" width="680.3" height="381"/>
  </g>
  <g class="st50">
    <rect class="st1" x="1112.1" y="812.4" width="680.3" height="381"/>
  </g>
  <g class="st20">
    <rect class="st13" x="1193.8" y="934.8" width="503.4" height="95.2"/>
    <rect class="st2" x="1193.8" y="934.8" width="503.4" height="95.2"/>
    <rect class="st13" x="1193.8" y="1030.1" width="503.4" height="95.2"/>
    <rect class="st2" x="1193.8" y="1030.1" width="503.4" height="95.2"/>
  </g>
  <g class="st17">
    <path class="st53" d="M1581.6,866.2l4.9-19.6c.6-2.6,1.1-2.6,3.5-2.6h6.1c5,0,8.6,1.9,8.6,6.4s-1.1,8.4-3.8,11.6c-2.5,2.8-6.1,4.1-10.3,4.1h-9ZM1563.3,889.8c0,.9.8.9,1,.9,2.7,0,5.6-.2,8.4-.2s5.8.2,8.6.2,1.4,0,1.4-1.3-.5-.9-1.9-.9c-4.1,0-4.1-.6-4.1-1.2s0-.4.3-1.4l4.4-17.7h11.1c9,0,18.6-7.3,18.6-15.6s-4.9-10.6-12.6-10.6h-21.4c-1.1,0-1.9,0-1.9,1.4s.6.9,1.9.9c2.2,0,4.1,0,4.1,1.2s0,.4-.3,1.4l-9.6,38.8c-.6,2.4-1,3-5.9,3s-1.9,0-1.9,1.4M1520.2,878.8c0,8.6,6,13.4,12.7,13.4s17-9.3,18.9-17.1l6.5-26.1c1.1-4.6,5.1-4.8,7.2-4.9.2,0,1.1,0,1.1-1.3s-.3-.9-.9-.9c-2.1,0-4.5.2-6.7.2s-4.6-.2-6.9-.2-1.3,0-1.3,1.4.6.9,1.3.9c3.7.1,4.3,1.6,4.3,3.1s-.1,1.1-.3,1.7l-6.4,25.4c-2.3,9.2-9.9,15.7-16.6,15.7s-7.6-2.4-7.6-8.9.4-3.9.7-5.4l7.1-28.7c.6-2.3,1.1-2.9,5.6-2.9s2.1,0,2.1-1.3-.5-.9-1-.9c-2.7,0-5.6.2-8.4.2s-5.8-.2-8.6-.2-1.4,0-1.4,1.4.6.9,1.9.9c2.2,0,4.1,0,4.1,1.2s0,.4-.3,1.4l-6.9,27.6c-.6,2.3-.6,3.9-.6,4.6M1486.3,876.3c0,.9.7,1,1.6,1h14.3c.4,0,.8,0,1.1-.2.8-.4,1-2.7,1-2.8,0-.9-.8-1-1.6-1h-14.2c-.4,0-.6,0-.9.1-.9.4-1.2,2.9-1.2,2.9M1441.5,878.8c0,8.6,6,13.4,12.7,13.4s17-9.3,18.9-17.1l6.5-26.1c1.1-4.6,5.1-4.8,7.2-4.9.2,0,1.1,0,1.1-1.3s-.3-.9-.9-.9c-2.1,0-4.5.2-6.7.2s-4.6-.2-6.9-.2-1.3,0-1.3,1.4.6.9,1.3.9c3.7.1,4.3,1.6,4.3,3.1s-.1,1.1-.3,1.7l-6.4,25.4c-2.3,9.2-9.9,15.7-16.6,15.7s-7.6-2.4-7.6-8.9.4-3.9.7-5.4l7.1-28.7c.6-2.3,1.1-2.9,5.6-2.9s2.1,0,2.1-1.3-.5-.9-1-.9c-2.7,0-5.6.2-8.4.2s-5.8-.2-8.6-.2-1.4,0-1.4,1.4.6.9,1.9.9c2.2,0,4.1,0,4.1,1.2s0,.4-.3,1.4l-6.9,27.6c-.6,2.3-.6,3.9-.6,4.6M1386.8,873.1c0,11.7,7.6,19.1,17.5,19.1,13.9,0,21.7-15.3,21.7-18.7s-.7-.7-1.1-.7-.9,0-1.1.6c-3.6,12.1-12.6,16.6-18.5,16.6s-12.3-4-12.3-14.1,1.8-15.6,7.5-23.5c4.9-6.6,11.4-9.9,16.9-9.9s10.1,6.9,10.1,13.1-.4,4.1-.4,4.4c0,.7.7.7,1.1.7.8,0,1,0,1.3-1.3l4.3-17.4c0-.3.2-.7.2-1s0-.7-.8-.7-.5,0-1.1.8l-4.5,5.3c-3.1-4.9-7.2-6.1-10.8-6.1-14.7,0-30.1,16.1-30.1,32.8M1356.6,876.3c0,.9.7,1,1.6,1h14.3c.4,0,.8,0,1.1-.2.8-.4,1-2.7,1-2.8,0-.9-.8-1-1.6-1h-14.2c-.4,0-.6,0-.9.1-.9.4-1.2,2.9-1.2,2.9M1312.7,876c0-3.3,1-13.3,6-22,3.8-6.7,10.3-11.9,16.5-11.9s10.7,4.3,10.7,13.9-2.6,15.8-6.4,22.3c-4.6,7.9-11,12.1-16.4,12.1s-10.5-5.9-10.5-14.4M1306.3,873.8c0,10.8,6.7,18.4,16.4,18.4,14.3,0,29.3-16.1,29.3-33.3s-7.3-18.6-16.3-18.6c-14.6,0-29.4,16.9-29.4,33.5"/>
    <path class="st53" d="M1518.7,981.8v-19.3c0-2.4.1-2.9,3.5-2.9h6.4c11.4,0,11.4,7.6,11.4,11.1s0,11.1-11.4,11.1h-9.9ZM1505.2,1006.3c2.5-.2,7.8-.2,10.5-.2s8.1,0,10.6.2v-2.2h-1.7c-5.5,0-5.6-.8-5.6-3.4v-17h12.1c8.6,0,16.3-5.8,16.3-12.9s-7.1-13.3-16.9-13.3h-25.2v2.2h1.7c5.5,0,5.6.8,5.6,3.4v37.6c0,2.6-.1,3.4-5.6,3.4h-1.7v2.2ZM1465.8,987.8l8-23.2,8.1,23.2h-16.1ZM1451.4,1006.3c1.6,0,4.7-.2,7.3-.2s5.9.1,8.2.2v-2.2c-3.6,0-5.4-1.8-5.4-3.6s0-.9.1-1.1l3.3-9.4h17.6l3.8,10.9c0,.3.2.7.2,1,0,2.1-4,2.1-5.9,2.1v2.2c2.6-.2,7.6-.2,10.3-.2s6.4,0,9.4.2v-2.2h-1.3c-4.3,0-5.3-.5-6.1-2.9l-15.4-44.6c-.4-.9-.5-1.4-1.6-1.4s-1.4.4-1.7,1.4l-14.8,42.7c-1.3,3.6-4.1,4.7-8,4.8v2.2ZM1412.6,1001.2v-38.6c0-2.4.1-2.9,3.5-2.9h7.1c4.4,0,9.4,1.6,13,6.6,3.1,4.2,3.7,10.4,3.7,15.9,0,7.9-1.4,12.2-3.9,15.7-1.4,1.9-5.5,6.1-12.7,6.1h-7.2c-3.4,0-3.5-.5-3.5-2.9M1399.1,1006.3h26.1c12,0,21.8-10.6,21.8-24s-9.6-24.8-21.8-24.8h-26.1v2.2h1.7c5.5,0,5.6.8,5.6,3.4v37.6c0,2.6-.1,3.4-5.6,3.4h-1.7v2.2ZM1361,1006.1c0,1.2,0,1.7.8,1.7s.6-.1,1.1-.9c0,0,.2-.3,2.6-4.1,2.2,2.4,6.8,5,13.1,5s14.1-7,14.1-14.9-4.7-13-10.7-14.4l-9.1-2.2c-4.4-1.1-7.2-4.9-7.2-9.1s3.9-9.4,9.4-9.4c11.9,0,13.5,11.7,13.9,14.9,0,.4,0,.9.9.9s.9-.4.9-1.7v-14.4c0-1.2,0-1.7-.8-1.7s-.6,0-1.1.9l-2.5,4.1c-2.1-2.1-5.1-5-11.4-5s-13.9,6.3-13.9,13.9,3.8,11.1,9.4,13.1c.8.3,4.4,1.1,9.4,2.4,1.9.5,4.1,1,6.1,3.6,1.5,1.9,2.2,4.2,2.2,6.6,0,5.1-3.6,10.2-9.6,10.2s-7.5-.4-11.3-3.9c-4.1-3.9-4.4-8.4-4.4-11,0-.7-.6-.7-.9-.7-.9,0-.9.5-.9,1.8v14.3Z"/>
    <path class="st53" d="M1527.6,1077.1v-19.3c0-2.4.1-2.9,3.5-2.9h6.4c11.4,0,11.4,7.6,11.4,11.1s0,11.1-11.4,11.1h-9.9ZM1514.1,1101.5c2.5-.2,7.8-.2,10.5-.2s8.1,0,10.6.2v-2.2h-1.7c-5.5,0-5.6-.8-5.6-3.4v-17h12.1c8.6,0,16.3-5.8,16.3-12.9s-7.1-13.3-16.9-13.3h-25.2v2.2h1.7c5.5,0,5.6.8,5.6,3.4v37.6c0,2.6-.1,3.4-5.6,3.4h-1.7v2.2ZM1464,1077.1c0,14.8,11.6,26,24.9,26s18.6-9.9,18.6-18.2,0-1.2-.9-1.2-.8.4-.9,1.1c-.6,10.2-8.2,16.1-16,16.1s-18.4-2.4-18.4-23.7,13.9-23.8,18.3-23.8c7.8,0,14.1,6.5,15.6,16.9.1,1,.1,1.2,1.1,1.2s1.1-.2,1.1-1.7v-16.9c0-1.2,0-1.7-.8-1.7s-.6,0-1.1.9l-3.6,5.3c-2.6-2.6-6.3-6.1-13.1-6.1-13.4,0-24.9,11.4-24.9,25.9M1421.5,1096.4v-38.6c0-2.4.1-2.9,3.5-2.9h7.1c4.4,0,9.4,1.6,13,6.6,3.1,4.2,3.7,10.4,3.7,15.9,0,7.9-1.3,12.2-3.9,15.7-1.4,1.9-5.5,6.1-12.7,6.1h-7.2c-3.4,0-3.5-.5-3.5-2.9M1408,1101.5h26.1c12,0,21.9-10.6,21.9-24s-9.6-24.8-21.9-24.8h-26.1v2.2h1.7c5.5,0,5.6.8,5.6,3.4v37.6c0,2.6-.1,3.4-5.6,3.4h-1.7v2.2ZM1373,1077.1v-19.3c0-2.4.1-2.9,3.5-2.9h6.4c11.4,0,11.4,7.6,11.4,11.1s0,11.1-11.4,11.1h-9.9ZM1359.5,1101.5c2.5-.2,7.8-.2,10.5-.2s8.1,0,10.6.2v-2.2h-1.7c-5.5,0-5.6-.8-5.6-3.4v-17h12.1c8.6,0,16.3-5.8,16.3-12.9s-7.1-13.3-16.9-13.3h-25.2v2.2h1.7c5.5,0,5.6.8,5.6,3.4v37.6c0,2.6-.1,3.4-5.6,3.4h-1.7v2.2Z"/>
  </g>
  <g class="st24">
    <g>
      <path class="st53" d="M559.4,1296.4c-3.6,0-6.8-.8-9.5-2.5s-4.8-4-6.2-7.1c-1.5-3-2.2-6.6-2.2-10.7h0c0-4.1.7-7.7,2.2-10.7,1.5-3,3.5-5.4,6.2-7,2.7-1.7,5.8-2.5,9.5-2.5s5.2.5,7.4,1.5c2.2,1,4.1,2.5,5.6,4.3,1.5,1.8,2.5,4,3,6.5v.3c0,0-4.9,0-4.9,0l-.2-.6c-.5-1.6-1.3-2.9-2.3-4.1-1-1.1-2.2-2-3.7-2.6-1.4-.6-3.1-.9-4.9-.9s-4.9.6-6.8,1.9c-1.9,1.3-3.4,3.1-4.5,5.5-1.1,2.3-1.6,5.1-1.6,8.3h0c0,3.2.5,6,1.6,8.3,1.1,2.4,2.6,4.2,4.5,5.5,1.9,1.3,4.2,2,6.8,2s3.5-.3,4.9-.9c1.4-.6,2.7-1.5,3.7-2.6,1-1.2,1.8-2.6,2.4-4.3v-.2h5v.3c-.5,2.5-1.5,4.7-3,6.5-1.5,1.9-3.3,3.3-5.6,4.3-2.2,1-4.7,1.5-7.4,1.5Z"/>
      <path class="st53" d="M590.9,1296.3c-2.6,0-4.9-.6-6.9-1.8-2-1.2-3.5-2.9-4.6-5.1s-1.6-4.8-1.6-7.8h0c0-3.1.5-5.7,1.6-7.8,1.1-2.2,2.6-3.9,4.6-5.1,2-1.2,4.2-1.8,6.8-1.8s4.9.6,6.9,1.8c2,1.2,3.5,2.9,4.6,5.1,1.1,2.2,1.6,4.8,1.6,7.8h0c0,3.1-.5,5.7-1.6,7.9s-2.6,3.9-4.6,5.1c-2,1.2-4.2,1.8-6.8,1.8ZM590.9,1292.1c1.7,0,3.1-.4,4.3-1.2,1.2-.8,2.2-2,2.9-3.6.7-1.6,1-3.5,1-5.7h0c0-2.3-.3-4.1-1-5.7-.7-1.6-1.6-2.7-2.9-3.6-1.2-.8-2.7-1.2-4.4-1.2s-3.1.4-4.3,1.2c-1.2.8-2.2,2-2.9,3.6-.7,1.5-1,3.4-1,5.6h0c0,2.3.3,4.2,1,5.7.7,1.6,1.7,2.8,2.9,3.6,1.2.8,2.7,1.2,4.4,1.2Z"/>
      <path class="st53" d="M607.5,1295.8v-28.3h4.7v4h.1c.8-1.3,1.9-2.4,3.3-3.3s3.2-1.3,5.4-1.3c3.1,0,5.5.9,7.2,2.8,1.7,1.9,2.6,4.4,2.6,7.7v18.3h-4.7v-17.5c0-2.3-.5-4.1-1.6-5.3-1.1-1.2-2.7-1.8-4.9-1.8s-2.8.3-3.9,1c-1.1.7-2,1.6-2.6,2.8-.6,1.2-.9,2.6-.9,4.2v16.6h-4.7Z"/>
      <path class="st53" d="M644.8,1296.3c-2.6,0-4.5-.6-5.8-1.8-1.3-1.2-1.9-3.2-1.9-5.9v-17.1h-4.1v-3.9h4.1v-7.6h4.9v7.6h5.4v3.9h-5.4v17.1c0,1.5.3,2.5,1,3.1.7.5,1.6.8,2.9.8s.6,0,.8,0c.3,0,.5,0,.7,0v3.8c-.3,0-.7,0-1.1.1-.5,0-.9,0-1.4,0Z"/>
      <path class="st53" d="M651.1,1295.8v-28.3h4.7v4.8h.1c.5-1.6,1.3-2.9,2.4-3.9,1.2-1,2.5-1.4,4.1-1.4s.8,0,1.1,0c.3,0,.6,0,.8.1v4.6c-.2,0-.5-.1-1-.2-.5,0-1,0-1.6,0-1.2,0-2.3.3-3.2.8-.9.5-1.6,1.3-2.1,2.4-.5,1-.7,2.3-.7,3.7v17.4h-4.7Z"/>
      <path class="st53" d="M677.8,1296.3c-2.6,0-4.9-.6-6.9-1.8-2-1.2-3.5-2.9-4.6-5.1s-1.6-4.8-1.6-7.8h0c0-3.1.5-5.7,1.6-7.8,1.1-2.2,2.6-3.9,4.6-5.1,2-1.2,4.2-1.8,6.8-1.8s4.9.6,6.9,1.8c2,1.2,3.5,2.9,4.6,5.1,1.1,2.2,1.6,4.8,1.6,7.8h0c0,3.1-.5,5.7-1.6,7.9s-2.6,3.9-4.6,5.1c-2,1.2-4.2,1.8-6.8,1.8ZM677.8,1292.1c1.7,0,3.1-.4,4.3-1.2,1.2-.8,2.2-2,2.9-3.6.7-1.6,1-3.5,1-5.7h0c0-2.3-.3-4.1-1-5.7-.7-1.6-1.6-2.7-2.9-3.6-1.2-.8-2.7-1.2-4.4-1.2s-3.1.4-4.3,1.2c-1.2.8-2.2,2-2.9,3.6-.7,1.5-1,3.4-1,5.6h0c0,2.3.3,4.2,1,5.7.7,1.6,1.7,2.8,2.9,3.6,1.2.8,2.7,1.2,4.4,1.2Z"/>
      <path class="st53" d="M694.6,1295.8v-39.2h4.7v39.2h-4.7Z"/>
      <path class="st53" d="M715.6,1295.8v-39.2h4.9v39.2h-4.9ZM718,1281.8v-4.3h10.3c2.8,0,5-.7,6.5-2.2,1.5-1.5,2.3-3.5,2.3-6h0c0-2.6-.8-4.7-2.3-6.1-1.5-1.4-3.7-2.2-6.5-2.2h-10.3v-4.3h11.5c2.5,0,4.6.5,6.5,1.6,1.9,1.1,3.4,2.5,4.4,4.4,1.1,1.9,1.6,4.1,1.6,6.5h0c0,2.5-.5,4.7-1.6,6.6s-2.6,3.4-4.4,4.5c-1.9,1.1-4.1,1.6-6.5,1.6h-11.5Z"/>
      <path class="st53" d="M746,1295.8v-39.2h4.7v39.2h-4.7Z"/>
      <path class="st53" d="M764.2,1296.3c-1.9,0-3.5-.4-4.9-1.1-1.4-.7-2.5-1.7-3.3-3-.8-1.3-1.2-2.8-1.2-4.5h0c0-1.7.4-3.1,1.2-4.2s2-2.1,3.5-2.8c1.5-.7,3.4-1.1,5.5-1.2l10.5-.6v3.7l-9.9.6c-1.9.1-3.3.6-4.4,1.4-1,.8-1.6,1.9-1.6,3.2h0c0,1.4.5,2.5,1.5,3.3,1,.8,2.4,1.2,4.1,1.2s2.8-.3,4-.9c1.2-.6,2.1-1.5,2.8-2.6.7-1.1,1-2.3,1-3.7v-8.3c0-1.7-.5-3.1-1.6-4.1-1.1-1-2.6-1.5-4.6-1.5s-3.3.4-4.4,1.2-1.8,1.8-2.1,3.1v.2h-4.6v-.3c.2-1.6.7-3,1.6-4.2.9-1.3,2.2-2.3,3.8-3,1.6-.8,3.5-1.1,5.7-1.1s4.2.4,5.8,1.1c1.6.8,2.9,1.8,3.8,3.2s1.3,3,1.3,4.9v19.5h-4.7v-4.6h-.1c-.5,1-1.3,1.9-2.2,2.7-.9.8-1.9,1.4-3.1,1.8-1.1.4-2.3.6-3.6.6Z"/>
      <path class="st53" d="M782.7,1295.8v-28.3h4.7v4h.1c.8-1.3,1.9-2.4,3.3-3.3s3.2-1.3,5.4-1.3c3.1,0,5.5.9,7.2,2.8,1.7,1.9,2.6,4.4,2.6,7.7v18.3h-4.7v-17.5c0-2.3-.5-4.1-1.6-5.3-1.1-1.2-2.7-1.8-4.9-1.8s-2.8.3-3.9,1c-1.1.7-2,1.6-2.6,2.8-.6,1.2-.9,2.6-.9,4.2v16.6h-4.7Z"/>
      <path class="st53" d="M822.3,1296.3c-2.7,0-5-.6-7-1.8-1.9-1.2-3.4-2.9-4.5-5.1-1-2.2-1.6-4.8-1.6-7.7h0c0-2.9.5-5.5,1.6-7.7,1.1-2.2,2.5-3.9,4.4-5.2s4.1-1.9,6.7-1.9,4.8.6,6.6,1.8c1.9,1.2,3.3,2.8,4.3,5,1,2.1,1.5,4.6,1.5,7.4v1.7h-22.8v-3.7h20.4l-2.4,3.4v-1.8c0-2.2-.3-4-1-5.4-.7-1.4-1.6-2.5-2.7-3.2-1.2-.7-2.5-1-4-1s-2.9.4-4,1.1c-1.2.7-2.1,1.8-2.8,3.3s-1,3.2-1,5.3v1.8c0,2,.3,3.7,1,5.1.7,1.4,1.6,2.5,2.9,3.2s2.7,1.1,4.4,1.1,2.3-.2,3.2-.5c.9-.4,1.7-.9,2.4-1.5.6-.6,1.1-1.4,1.4-2.2v-.2h4.7v.3c-.3,1.2-.7,2.2-1.4,3.3-.7,1-1.5,1.9-2.5,2.7-1,.8-2.2,1.4-3.5,1.8-1.3.4-2.8.6-4.3.6Z"/>
    </g>
  </g>
  <g class="st22">
    <g>
      <path class="st53" d="M1316.7,1296.4c-3.2,0-6-.6-8.4-1.8-2.3-1.2-4.1-2.9-5.4-5.1-1.2-2.2-1.9-4.7-1.9-7.5v-25.5h4.9v25.1c0,2,.4,3.8,1.3,5.3.8,1.5,2.1,2.7,3.7,3.6,1.6.9,3.5,1.3,5.8,1.3s4.2-.4,5.8-1.3c1.6-.9,2.8-2.1,3.6-3.6.8-1.5,1.2-3.3,1.2-5.3v-25.1h4.9v25.5c0,2.8-.6,5.3-1.9,7.5-1.2,2.2-3,3.9-5.3,5.1-2.3,1.2-5.1,1.8-8.3,1.8Z"/>
      <path class="st53" d="M1347.8,1296.3c-2.2,0-4.1-.4-5.7-1.1-1.6-.7-2.9-1.7-3.8-3-.9-1.3-1.5-2.7-1.7-4.4v-.2s4.7,0,4.7,0v.3c.3,1.4,1,2.5,2.1,3.3,1.1.8,2.6,1.2,4.5,1.2s2.4-.2,3.3-.5c.9-.3,1.6-.8,2.1-1.4s.7-1.4.7-2.2h0c0-1-.3-1.9-.9-2.5s-1.7-1.1-3.3-1.5l-4.5-1.1c-1.8-.4-3.2-1-4.4-1.7-1.2-.7-2-1.6-2.6-2.6s-.9-2.2-.9-3.6h0c0-1.7.4-3.1,1.3-4.3.9-1.2,2.1-2.2,3.7-2.9s3.4-1.1,5.4-1.1,3.9.4,5.4,1.1c1.5.7,2.7,1.7,3.6,3,.9,1.3,1.4,2.7,1.5,4.3v.4s-4.5,0-4.5,0v-.2c-.2-1.4-.8-2.5-1.8-3.3-1-.8-2.4-1.2-4.2-1.2s-2.1.2-3,.5c-.8.3-1.5.8-1.9,1.5-.4.6-.7,1.4-.7,2.2h0c0,.7.1,1.2.4,1.8.3.5.8,1,1.4,1.3s1.5.7,2.5,1l4.5,1.1c2.9.7,4.9,1.6,6,2.8,1.2,1.2,1.7,2.8,1.7,4.8h0c0,1.7-.5,3.1-1.4,4.4-1,1.3-2.3,2.3-3.9,3-1.7.7-3.5,1.1-5.6,1.1Z"/>
      <path class="st53" d="M1374.1,1296.3c-2.7,0-5-.6-7-1.8-1.9-1.2-3.4-2.9-4.5-5.1-1-2.2-1.6-4.8-1.6-7.7h0c0-2.9.5-5.5,1.6-7.7,1.1-2.2,2.5-3.9,4.4-5.2s4.1-1.9,6.7-1.9,4.8.6,6.6,1.8c1.9,1.2,3.3,2.8,4.3,5s1.5,4.6,1.5,7.4v1.7h-22.8v-3.7h20.4l-2.4,3.4v-1.8c0-2.2-.3-4-1-5.4-.7-1.4-1.6-2.5-2.7-3.2s-2.5-1-4-1-2.9.4-4,1.1c-1.2.7-2.1,1.8-2.8,3.3-.7,1.4-1,3.2-1,5.3v1.8c0,2,.3,3.7,1,5.1.7,1.4,1.6,2.5,2.9,3.2,1.2.8,2.7,1.1,4.4,1.1s2.3-.2,3.2-.5c.9-.4,1.7-.9,2.4-1.5.6-.6,1.1-1.4,1.4-2.2v-.2h4.7v.3c-.3,1.2-.7,2.2-1.4,3.3-.7,1-1.5,1.9-2.5,2.7-1,.8-2.2,1.4-3.5,1.8-1.3.4-2.8.6-4.3.6Z"/>
      <path class="st53" d="M1389.8,1295.8v-28.3h4.7v4.8h.1c.5-1.6,1.3-2.9,2.4-3.9,1.2-1,2.5-1.4,4.1-1.4s.8,0,1.1,0c.3,0,.6,0,.8.1v4.6c-.2,0-.5-.1-1-.2-.5,0-1,0-1.6,0-1.2,0-2.3.3-3.2.8-.9.5-1.6,1.3-2.1,2.4-.5,1-.7,2.3-.7,3.7v17.4h-4.7Z"/>
      <path class="st53" d="M1416.6,1295.8v-39.2h4.9v39.2h-4.9ZM1419.1,1281.8v-4.3h10.3c2.8,0,5-.7,6.5-2.2,1.5-1.5,2.3-3.5,2.3-6h0c0-2.6-.8-4.7-2.3-6.1-1.5-1.4-3.7-2.2-6.5-2.2h-10.3v-4.3h11.5c2.5,0,4.6.5,6.5,1.6,1.9,1.1,3.4,2.5,4.4,4.4,1.1,1.9,1.6,4.1,1.6,6.5h0c0,2.5-.5,4.7-1.6,6.6-1.1,1.9-2.6,3.4-4.4,4.5-1.9,1.1-4.1,1.6-6.5,1.6h-11.5Z"/>
      <path class="st53" d="M1447.1,1295.8v-39.2h4.7v39.2h-4.7Z"/>
      <path class="st53" d="M1465.2,1296.3c-1.9,0-3.5-.4-4.9-1.1-1.4-.7-2.5-1.7-3.3-3-.8-1.3-1.2-2.8-1.2-4.5h0c0-1.7.4-3.1,1.2-4.2.8-1.2,2-2.1,3.5-2.8s3.4-1.1,5.5-1.2l10.5-.6v3.7l-9.9.6c-1.9.1-3.3.6-4.4,1.4s-1.6,1.9-1.6,3.2h0c0,1.4.5,2.5,1.5,3.3,1,.8,2.4,1.2,4.1,1.2s2.8-.3,4-.9c1.2-.6,2.1-1.5,2.8-2.6.7-1.1,1-2.3,1-3.7v-8.3c0-1.7-.5-3.1-1.6-4.1s-2.6-1.5-4.6-1.5-3.3.4-4.4,1.2-1.8,1.8-2.1,3.1v.2h-4.6v-.3c.2-1.6.7-3,1.6-4.2.9-1.3,2.2-2.3,3.8-3s3.5-1.1,5.7-1.1,4.2.4,5.8,1.1c1.6.8,2.9,1.8,3.8,3.2.9,1.4,1.3,3,1.3,4.9v19.5h-4.7v-4.6h-.1c-.5,1-1.3,1.9-2.2,2.7-.9.8-1.9,1.4-3.1,1.8-1.1.4-2.3.6-3.6.6Z"/>
      <path class="st53" d="M1483.7,1295.8v-28.3h4.7v4h.1c.8-1.3,1.9-2.4,3.3-3.3s3.2-1.3,5.4-1.3c3.1,0,5.5.9,7.2,2.8s2.6,4.4,2.6,7.7v18.3h-4.7v-17.5c0-2.3-.5-4.1-1.6-5.3-1.1-1.2-2.7-1.8-4.9-1.8s-2.8.3-3.9,1c-1.1.7-2,1.6-2.6,2.8-.6,1.2-.9,2.6-.9,4.2v16.6h-4.7Z"/>
      <path class="st53" d="M1523.4,1296.3c-2.7,0-5-.6-7-1.8-1.9-1.2-3.4-2.9-4.5-5.1-1-2.2-1.6-4.8-1.6-7.7h0c0-2.9.5-5.5,1.6-7.7,1.1-2.2,2.5-3.9,4.4-5.2s4.1-1.9,6.7-1.9,4.8.6,6.6,1.8c1.9,1.2,3.3,2.8,4.3,5s1.5,4.6,1.5,7.4v1.7h-22.8v-3.7h20.4l-2.4,3.4v-1.8c0-2.2-.3-4-1-5.4-.7-1.4-1.6-2.5-2.7-3.2s-2.5-1-4-1-2.9.4-4,1.1c-1.2.7-2.1,1.8-2.8,3.3-.7,1.4-1,3.2-1,5.3v1.8c0,2,.3,3.7,1,5.1.7,1.4,1.6,2.5,2.9,3.2,1.2.8,2.7,1.1,4.4,1.1s2.3-.2,3.2-.5c.9-.4,1.7-.9,2.4-1.5.6-.6,1.1-1.4,1.4-2.2v-.2h4.7v.3c-.3,1.2-.7,2.2-1.4,3.3-.7,1-1.5,1.9-2.5,2.7-1,.8-2.2,1.4-3.5,1.8-1.3.4-2.8.6-4.3.6Z"/>
    </g>
  </g>
  <g class="st23">
    <rect class="st5" x="1969.7" y="637.5" width="820.5" height="697.5"/>
  </g>
  <g class="st21">
    <g>
      <path d="M2062.9,748.5v-39.2h13.2c3.9,0,7.2.8,9.9,2.3,2.8,1.5,4.9,3.8,6.3,6.7,1.5,2.9,2.2,6.4,2.2,10.5h0c0,4.2-.7,7.7-2.2,10.6-1.5,2.9-3.6,5.2-6.3,6.7-2.8,1.5-6.1,2.3-10,2.3h-13.2ZM2067.8,744.1h8c3,0,5.5-.6,7.5-1.8,2.1-1.2,3.6-2.9,4.7-5.2,1.1-2.3,1.6-5,1.6-8.2h0c0-3.3-.5-6.1-1.6-8.3-1.1-2.3-2.6-4-4.7-5.1-2.1-1.2-4.6-1.8-7.5-1.8h-8v30.4Z"/>
      <path d="M2101.4,715.5c-.8,0-1.5-.3-2.1-.9s-.9-1.3-.9-2.1.3-1.5.9-2.1c.6-.6,1.3-.9,2.1-.9s1.5.3,2.1.9c.6.6.9,1.3.9,2.1s-.3,1.5-.9,2.1c-.6.6-1.3.9-2.1.9ZM2099,748.5v-28.3h4.7v28.3h-4.7Z"/>
      <path d="M2119,749.1c-2.2,0-4.1-.4-5.7-1.1-1.6-.7-2.9-1.7-3.8-3-.9-1.3-1.5-2.7-1.7-4.4v-.2s4.7,0,4.7,0v.3c.3,1.4,1,2.5,2.1,3.3,1.1.8,2.6,1.2,4.5,1.2s2.4-.2,3.3-.5c.9-.3,1.6-.8,2.1-1.4s.7-1.4.7-2.2h0c0-1-.3-1.9-.9-2.5s-1.7-1.1-3.3-1.5l-4.5-1.1c-1.8-.4-3.2-1-4.4-1.7-1.2-.7-2-1.6-2.6-2.6s-.9-2.2-.9-3.6h0c0-1.7.4-3.1,1.3-4.3.9-1.2,2.1-2.2,3.7-2.9s3.4-1.1,5.4-1.1,3.9.4,5.4,1.1c1.5.7,2.7,1.7,3.6,3,.9,1.3,1.4,2.7,1.5,4.3v.4s-4.5,0-4.5,0v-.2c-.2-1.4-.8-2.5-1.8-3.3-1-.8-2.4-1.2-4.2-1.2s-2.1.2-3,.5c-.8.3-1.5.8-1.9,1.5-.4.6-.7,1.4-.7,2.2h0c0,.7.1,1.2.4,1.8.3.5.8,1,1.4,1.3s1.5.7,2.5,1l4.5,1.1c2.9.7,4.9,1.6,6,2.8,1.2,1.2,1.7,2.8,1.7,4.8h0c0,1.7-.5,3.1-1.4,4.4-1,1.3-2.3,2.3-3.9,3-1.7.7-3.5,1.1-5.6,1.1Z"/>
      <path d="M2142.7,749.1c-2.6,0-4.5-.6-5.8-1.8-1.3-1.2-1.9-3.2-1.9-5.9v-17.1h-4.1v-3.9h4.1v-7.6h4.9v7.6h5.4v3.9h-5.4v17.1c0,1.5.3,2.5,1,3.1.7.5,1.6.8,2.9.8s.6,0,.8,0c.3,0,.5,0,.7,0v3.8c-.3,0-.7,0-1.1.1-.5,0-.9,0-1.4,0Z"/>
      <path d="M2149,748.5v-28.3h4.7v4.8h.1c.5-1.6,1.3-2.9,2.4-3.9,1.2-1,2.5-1.4,4.1-1.4s.8,0,1.1,0c.3,0,.6,0,.8.1v4.6c-.2,0-.5-.1-1-.2-.5,0-1,0-1.6,0-1.2,0-2.3.3-3.2.8-.9.5-1.6,1.3-2.1,2.4-.5,1-.7,2.3-.7,3.7v17.4h-4.7Z"/>
      <path d="M2167.6,715.5c-.8,0-1.5-.3-2.1-.9s-.9-1.3-.9-2.1.3-1.5.9-2.1c.6-.6,1.3-.9,2.1-.9s1.5.3,2.1.9c.6.6.9,1.3.9,2.1s-.3,1.5-.9,2.1c-.6.6-1.3.9-2.1.9ZM2165.2,748.5v-28.3h4.7v28.3h-4.7Z"/>
      <path d="M2189.2,749.1c-1.3,0-2.6-.2-3.7-.7-1.1-.4-2.2-1-3-1.8-.9-.8-1.6-1.7-2.2-2.8h-.1v4.8h-4.7v-39.2h4.7v15.7h.1c.6-1.1,1.3-2,2.2-2.8.9-.8,1.9-1.4,3.1-1.8,1.2-.4,2.4-.6,3.7-.6,2.4,0,4.5.6,6.2,1.8,1.8,1.2,3.2,2.9,4.2,5.1,1,2.2,1.5,4.8,1.5,7.7h0c0,3-.5,5.6-1.5,7.8-1,2.2-2.4,3.9-4.2,5.1s-3.9,1.8-6.3,1.8ZM2188.3,744.9c1.7,0,3.1-.4,4.3-1.3,1.2-.8,2.1-2.1,2.8-3.6s1-3.4,1-5.6h0c0-2.2-.3-4-1-5.6-.7-1.6-1.6-2.8-2.8-3.6-1.2-.9-2.7-1.3-4.3-1.3s-3,.4-4.2,1.3c-1.2.9-2.2,2.1-2.9,3.7-.7,1.6-1.1,3.4-1.1,5.5h0c0,2.1.3,4,1,5.5.7,1.6,1.7,2.8,2.9,3.7,1.2.9,2.6,1.3,4.2,1.3Z"/>
      <path d="M2214.4,749.1c-2.1,0-3.8-.4-5.3-1.3-1.5-.9-2.6-2.1-3.3-3.6-.8-1.6-1.2-3.4-1.2-5.6v-18.3h4.7v17.5c0,2.3.5,4.1,1.6,5.3,1.1,1.2,2.7,1.8,4.9,1.8s2.1-.2,3-.6c.9-.4,1.7-.9,2.3-1.6s1.2-1.5,1.5-2.5c.3-1,.5-2.1.5-3.3v-16.6h4.7v28.3h-4.7v-4h-.1c-.5.9-1.2,1.6-2,2.3-.8.7-1.8,1.2-2.9,1.6-1.1.4-2.4.6-3.8.6Z"/>
      <path d="M2242.1,749.1c-2.6,0-4.5-.6-5.8-1.8-1.3-1.2-1.9-3.2-1.9-5.9v-17.1h-4.1v-3.9h4.1v-7.6h4.9v7.6h5.4v3.9h-5.4v17.1c0,1.5.3,2.5,1,3.1.7.5,1.6.8,2.9.8s.6,0,.8,0c.3,0,.5,0,.7,0v3.8c-.3,0-.7,0-1.1.1-.5,0-.9,0-1.4,0Z"/>
      <path d="M2251.1,715.5c-.8,0-1.5-.3-2.1-.9s-.9-1.3-.9-2.1.3-1.5.9-2.1c.6-.6,1.3-.9,2.1-.9s1.5.3,2.1.9c.6.6.9,1.3.9,2.1s-.3,1.5-.9,2.1c-.6.6-1.3.9-2.1.9ZM2248.7,748.5v-28.3h4.7v28.3h-4.7Z"/>
      <path d="M2270.4,749.1c-2.6,0-4.9-.6-6.9-1.8-2-1.2-3.5-2.9-4.6-5.1-1.1-2.2-1.6-4.8-1.6-7.8h0c0-3.1.5-5.7,1.6-7.8,1.1-2.2,2.6-3.9,4.6-5.1,2-1.2,4.2-1.8,6.8-1.8s4.9.6,6.9,1.8c2,1.2,3.5,2.9,4.6,5.1,1.1,2.2,1.6,4.8,1.6,7.8h0c0,3.1-.5,5.7-1.6,7.9-1.1,2.2-2.6,3.9-4.6,5.1-2,1.2-4.2,1.8-6.8,1.8ZM2270.4,744.9c1.7,0,3.1-.4,4.3-1.2,1.2-.8,2.2-2,2.9-3.6.7-1.6,1-3.5,1-5.7h0c0-2.3-.3-4.1-1-5.7-.7-1.6-1.6-2.7-2.9-3.6-1.2-.8-2.7-1.2-4.4-1.2s-3.1.4-4.3,1.2c-1.2.8-2.2,2-2.9,3.6s-1,3.4-1,5.6h0c0,2.3.3,4.2,1,5.7.7,1.6,1.7,2.8,2.9,3.6s2.7,1.2,4.4,1.2Z"/>
      <path d="M2287,748.5v-28.3h4.7v4h.1c.8-1.3,1.9-2.4,3.3-3.3s3.2-1.3,5.4-1.3c3.1,0,5.5.9,7.2,2.8s2.6,4.4,2.6,7.7v18.3h-4.7v-17.5c0-2.3-.5-4.1-1.6-5.3-1.1-1.2-2.7-1.8-4.9-1.8s-2.8.3-3.9,1c-1.1.7-2,1.6-2.6,2.8-.6,1.2-.9,2.6-.9,4.2v16.6h-4.7Z"/>
      <path d="M2341.6,749.2c-3.2,0-6-.6-8.4-1.8-2.3-1.2-4.1-2.9-5.4-5.1-1.2-2.2-1.9-4.7-1.9-7.5v-25.5h4.9v25.1c0,2,.4,3.8,1.3,5.3.8,1.5,2.1,2.7,3.7,3.6,1.6.9,3.5,1.3,5.8,1.3s4.2-.4,5.8-1.3c1.6-.9,2.8-2.1,3.6-3.6.8-1.5,1.2-3.3,1.2-5.3v-25.1h4.9v25.5c0,2.8-.6,5.3-1.9,7.5-1.2,2.2-3,3.9-5.3,5.1-2.3,1.2-5.1,1.8-8.3,1.8Z"/>
      <path d="M2362.8,748.5v-28.3h4.7v4h.1c.8-1.3,1.9-2.4,3.3-3.3s3.2-1.3,5.4-1.3c3.1,0,5.5.9,7.2,2.8s2.6,4.4,2.6,7.7v18.3h-4.7v-17.5c0-2.3-.5-4.1-1.6-5.3-1.1-1.2-2.7-1.8-4.9-1.8s-2.8.3-3.9,1c-1.1.7-2,1.6-2.6,2.8-.6,1.2-.9,2.6-.9,4.2v16.6h-4.7Z"/>
      <path d="M2393.6,715.5c-.8,0-1.5-.3-2.1-.9s-.9-1.3-.9-2.1.3-1.5.9-2.1c.6-.6,1.3-.9,2.1-.9s1.5.3,2.1.9c.6.6.9,1.3.9,2.1s-.3,1.5-.9,2.1c-.6.6-1.3.9-2.1.9ZM2391.2,748.5v-28.3h4.7v28.3h-4.7Z"/>
      <path d="M2410.3,749.1c-2.6,0-4.5-.6-5.8-1.8-1.3-1.2-1.9-3.2-1.9-5.9v-17.1h-4.1v-3.9h4.1v-7.6h4.9v7.6h5.4v3.9h-5.4v17.1c0,1.5.3,2.5,1,3.1.7.5,1.6.8,2.9.8s.6,0,.8,0c.3,0,.5,0,.7,0v3.8c-.3,0-.7,0-1.1.1-.5,0-.9,0-1.4,0Z"/>
      <path d="M2436.7,758.1c-1.8-2.2-3.2-4.6-4.4-7.2-1.1-2.5-2-5.2-2.5-8.1-.6-2.9-.8-5.9-.8-9.1s.3-6.3.8-9.1,1.4-5.5,2.5-8.1,2.6-4.9,4.3-7.2h4c-1,1.1-1.9,2.6-2.7,4.4-.8,1.8-1.6,3.8-2.2,6-.6,2.2-1.1,4.5-1.5,6.9-.3,2.4-.5,4.7-.5,7s.2,4.6.5,7c.3,2.4.8,4.7,1.5,6.9s1.4,4.2,2.2,6c.8,1.8,1.7,3.3,2.7,4.4h-4Z"/>
      <path d="M2460.9,749.2c-3.7,0-6.9-.8-9.6-2.5-2.7-1.6-4.8-4-6.3-7-1.5-3-2.2-6.6-2.2-10.8h0c0-4.2.7-7.8,2.2-10.8,1.5-3,3.6-5.3,6.3-7,2.7-1.6,5.9-2.5,9.6-2.5s6.9.8,9.6,2.5c2.7,1.6,4.8,4,6.3,7,1.5,3,2.2,6.6,2.2,10.7h0c0,4.2-.7,7.8-2.2,10.8-1.5,3-3.5,5.4-6.2,7-2.7,1.6-5.9,2.5-9.6,2.5ZM2460.9,744.7c2.7,0,5-.6,7-1.9,1.9-1.3,3.4-3.1,4.5-5.5,1.1-2.4,1.6-5.1,1.6-8.3h0c0-3.3-.5-6-1.6-8.4-1.1-2.4-2.6-4.2-4.5-5.4-2-1.3-4.3-1.9-6.9-1.9s-5,.6-6.9,1.9-3.5,3.1-4.6,5.4c-1.1,2.3-1.6,5.1-1.6,8.4h0c0,3.3.5,6,1.6,8.4,1.1,2.4,2.6,4.2,4.5,5.5,2,1.3,4.3,1.9,7,1.9Z"/>
      <path d="M2483.2,734.8v-4.4h17.4v4.4h-17.4Z"/>
      <path d="M2506.4,748.5v-39.2h13.2c3.9,0,7.2.8,9.9,2.3,2.8,1.5,4.9,3.8,6.3,6.7,1.5,2.9,2.2,6.4,2.2,10.5h0c0,4.2-.7,7.7-2.2,10.6-1.5,2.9-3.6,5.2-6.3,6.7-2.8,1.5-6.1,2.3-10,2.3h-13.2ZM2511.3,744.1h8c3,0,5.5-.6,7.5-1.8,2.1-1.2,3.6-2.9,4.7-5.2,1.1-2.3,1.6-5,1.6-8.2h0c0-3.3-.5-6.1-1.6-8.3-1.1-2.3-2.6-4-4.7-5.1-2.1-1.2-4.6-1.8-7.5-1.8h-8v30.4Z"/>
      <path d="M2558.6,749.2c-3.2,0-6-.6-8.4-1.8-2.3-1.2-4.1-2.9-5.4-5.1-1.2-2.2-1.9-4.7-1.9-7.5v-25.5h4.9v25.1c0,2,.4,3.8,1.3,5.3.8,1.5,2.1,2.7,3.7,3.6,1.6.9,3.5,1.3,5.8,1.3s4.2-.4,5.8-1.3c1.6-.9,2.8-2.1,3.6-3.6.8-1.5,1.2-3.3,1.2-5.3v-25.1h4.9v25.5c0,2.8-.6,5.3-1.9,7.5-1.2,2.2-3,3.9-5.3,5.1-2.3,1.2-5.1,1.8-8.3,1.8Z"/>
      <path d="M2581.8,758.1h-4c1-1.1,1.9-2.6,2.7-4.4.8-1.8,1.6-3.8,2.2-6.1s1.1-4.5,1.5-6.9c.3-2.4.5-4.7.5-7s-.2-4.6-.5-7c-.3-2.4-.8-4.7-1.5-6.9-.6-2.2-1.4-4.2-2.2-6-.8-1.8-1.7-3.3-2.7-4.4h4c1.8,2.2,3.2,4.6,4.4,7.2,1.1,2.5,2,5.2,2.5,8.1.6,2.9.8,5.9.8,9.1s-.3,6.3-.8,9.1c-.6,2.9-1.4,5.6-2.5,8.1-1.1,2.5-2.6,4.9-4.4,7.1Z"/>
    </g>
  </g>
  <g class="st18">
    <rect class="st5" x="276.7" y="615.3" width="2550.2" height="766.4"/>
  </g>
  <g class="st15">
    <rect class="st14" x="2014.8" y="793.4" width="680.2" height="448.9"/>
  </g>
  <g class="st19">
    <rect class="st9" x="2014.8" y="793.4" width="680.2" height="448.9"/>
  </g>
  <g class="st16">
    <rect class="st13" x="2096.4" y="915.9" width="503.3" height="95.2"/>
    <rect class="st3" x="2096.4" y="915.9" width="503.3" height="95.2"/>
    <rect class="st13" x="2096.4" y="1011.1" width="503.3" height="95.2"/>
    <rect class="st3" x="2096.4" y="1011.1" width="503.3" height="95.2"/>
    <rect class="st13" x="2096.4" y="1106.3" width="503.3" height="95.2"/>
    <rect class="st3" x="2096.4" y="1106.3" width="503.3" height="95.2"/>
  </g>
  <g class="st38">
    <path class="st53" d="M2415.1,866.5c0,8.6,6,13.4,12.7,13.4s17-9.3,18.9-17.1l6.5-26.1c1.1-4.6,5.1-4.8,7.2-4.9.2,0,1.1,0,1.1-1.3s-.3-.9-.9-.9c-2.1,0-4.5.2-6.7.2s-4.6-.2-6.9-.2-1.3,0-1.3,1.4.6.9,1.3.9c3.7.1,4.3,1.6,4.3,3.1s-.1,1.1-.3,1.7l-6.4,25.4c-2.3,9.2-9.8,15.7-16.6,15.7s-7.6-2.4-7.6-8.9.4-3.9.7-5.4l7.1-28.7c.6-2.3,1.1-2.9,5.6-2.9s2.1,0,2.1-1.3-.5-.9-1-.9c-2.7,0-5.6.2-8.4.2s-5.8-.2-8.6-.2-1.3,0-1.3,1.4.6.9,1.9.9c2.2,0,4.1,0,4.1,1.2s0,.4-.3,1.4l-6.9,27.6c-.6,2.3-.6,3.9-.6,4.6M2364.2,875.5c0-.4.2-1.1.3-1.6l9.9-39.5c.6-2.5,1.1-2.6,3.5-2.6h6.9c5.8,0,11.4,3.2,11.4,12.6s-2.1,17.6-8.1,24.7c-3.5,4.1-8.6,7.1-14.3,7.1h-7.3c-2.2,0-2.2-.2-2.2-.7M2351.2,877.5c0,.9.6.9,1.8.9h21.9c13.5,0,27.1-15.2,27.1-31.3s-5.8-17.5-15-17.5h-22.3c-1.1,0-1.9,0-1.9,1.4s.6.9,1.9.9c2.2,0,4.1,0,4.1,1.2s0,.4-.3,1.4l-9.6,38.8c-.6,2.4-1,3-5.9,3s-1.9,0-1.9,1.4M2327.3,864c0,.9.7,1,1.6,1h14.3c.4,0,.8,0,1.1-.2.8-.4,1-2.7,1-2.8,0-.9-.8-1-1.6-1h-14.2c-.4,0-.6,0-.9.1-.9.4-1.2,2.9-1.2,2.9M2283.4,863.8c0-3.3,1-13.3,6-22,3.8-6.7,10.3-11.9,16.5-11.9s10.7,4.3,10.7,13.9-2.6,15.8-6.4,22.3c-4.6,7.9-11,12.1-16.3,12.1s-10.5-5.9-10.5-14.4M2277,861.5c0,10.8,6.7,18.4,16.4,18.4,14.3,0,29.3-16.1,29.3-33.3s-7.3-18.6-16.3-18.6c-14.6,0-29.4,16.9-29.4,33.5"/>
    <path class="st53" d="M2394.2,962.8c0,14.8,11.6,26,24.9,26s18.6-9.9,18.6-18.2,0-1.2-.9-1.2-.8.4-.9,1.1c-.6,10.2-8.2,16.1-16,16.1s-18.3-2.4-18.3-23.7,13.9-23.8,18.3-23.8c7.8,0,14.1,6.5,15.6,16.9.1,1,.1,1.2,1.1,1.2s1.1-.2,1.1-1.7v-16.9c0-1.2,0-1.7-.8-1.7s-.6,0-1.1.9l-3.6,5.3c-2.6-2.6-6.3-6.1-13.1-6.1-13.4,0-24.9,11.4-24.9,25.9M2355.3,968.7l8-23.2,8.1,23.2h-16.1ZM2341,987.2c1.6,0,4.7-.2,7.3-.2s5.9.1,8.2.2v-2.2c-3.6,0-5.4-1.8-5.4-3.6s0-.9.1-1.1l3.3-9.4h17.6l3.8,10.9c0,.3.2.7.2,1,0,2.1-4,2.1-5.9,2.1v2.2c2.6-.2,7.6-.2,10.3-.2s6.3,0,9.3.2v-2.2h-1.3c-4.3,0-5.3-.5-6.1-2.9l-15.4-44.6c-.4-.9-.5-1.4-1.6-1.4s-1.4.4-1.7,1.4l-14.8,42.7c-1.3,3.6-4.1,4.7-8,4.8v2.2ZM2275.9,987.2c2.5,0,6-.2,8.4-.2s5.8.1,8.3.2v-2.2c-7.3,0-7.3-3.4-7.3-5.3v-38.5h0l17.2,44.4c.4.9.7,1.6,1.4,1.6s1-.6,1.3-1.4l17.6-45.2h0v41c0,2.6-.1,3.4-5.6,3.4h-1.7v2.2c2.6-.2,7.5-.2,10.3-.2s7.6,0,10.2.2v-2.2h-1.7c-5.5,0-5.6-.8-5.6-3.4v-37.6c0-2.6.1-3.4,5.6-3.4h1.7v-2.2h-12.1c-1.9,0-1.9,0-2.3,1.4l-15.6,40.2-15.5-40c-.6-1.6-.9-1.6-2.5-1.6h-12.1v2.2h1.7c5.5,0,5.6.8,5.6,3.4v35.7c0,1.9,0,5.3-7.4,5.3v2.2Z"/>
    <path class="st53" d="M2381.3,1060.3c0,14.8,11.6,26,24.9,26s18.6-9.9,18.6-18.2,0-1.2-.9-1.2-.8.4-.9,1.1c-.6,10.2-8.2,16.1-16,16.1s-18.4-2.4-18.4-23.7,13.9-23.8,18.3-23.8c7.8,0,14.1,6.5,15.6,16.9.1,1,.1,1.2,1.1,1.2s1.1-.2,1.1-1.7v-16.9c0-1.2,0-1.7-.8-1.7s-.6,0-1.1.9l-3.6,5.3c-2.6-2.6-6.3-6.1-13.1-6.1-13.3,0-24.9,11.4-24.9,25.9M2335,1084.8h37.2l2-18.4h-1.8c-.8,7.3-1.8,16.2-14.4,16.2h-5.9c-3.4,0-3.5-.5-3.5-2.9v-38.1c0-2.4,0-3.4,6.8-3.4h2.4v-2.2c-2.6.2-9.1.2-12,.2s-8.4,0-10.9-.2v2.2h1.7c5.5,0,5.6.8,5.6,3.4v37.6c0,2.6-.1,3.4-5.6,3.4h-1.7v2.2ZM2296.1,1059.6v-18.5c0-1.6,0-2.5,1.6-2.7.7-.1,2.8-.1,4.2-.1,6.4,0,14.4.3,14.4,10.6s-1.7,10.7-12.3,10.7h-7.9ZM2282.6,1084.8c2.6-.2,7.6-.2,10.4-.2s7.9,0,10.4.2v-2.2h-1.7c-5.5,0-5.6-.8-5.6-3.4v-18.1h8.2c1.1,0,4.1,0,6.6,2.4,2.7,2.6,2.7,4.8,2.7,9.6s0,7.5,2.9,10.2c2.9,2.6,6.9,3,9,3,5.6,0,6.8-5.9,6.8-7.9s0-1.2-.9-1.2-.8.6-.9,1.1c-.4,5.1-2.9,6.4-4.7,6.4-3.5,0-4.1-3.6-5.1-10.3l-.9-5.7c-1.3-4.6-4.8-6.9-8.7-8.3,6.9-1.7,12.5-6.1,12.5-11.6s-8.1-12.9-18.6-12.9h-22.4v2.2h1.7c5.5,0,5.6.8,5.6,3.4v37.6c0,2.6-.1,3.4-5.6,3.4h-1.7v2.2Z"/>
    <path class="st53" d="M2488.9,1177.7c2.5,0,6.1-.2,8.1-.2s5.6.1,8,.2v-2.2c-4.8,0-5.6,0-5.6-3.2v-13.1c0-7.4,5.1-11.4,9.6-11.4s5.3,3.9,5.3,7.9v16.6c0,3.2-.8,3.2-5.6,3.2v2.2c2.5,0,6.1-.2,8.1-.2s5.6.1,8,.2v-2.2c-3.7,0-5.5,0-5.6-2.1v-13.6c0-6.1,0-8.4-2.2-10.9-1-1.2-3.4-2.6-7.5-2.6-6,0-9.1,4.3-10.3,6.9h0v-24.9l-10.3.8v2.2c5,0,5.6.5,5.6,4v37.1c0,3.2-.8,3.2-5.6,3.2v2.2ZM2460.6,1156.6c0-1.9,0-4.2,1.1-6,.6-.9,2.2-2.9,5.1-2.9,6.2,0,6.2,7.1,6.2,8.8s0,4.2-1.1,6c-.6.9-2.2,2.9-5.1,2.9-6.2,0-6.2-7.1-6.2-8.8M2456.6,1183.3c0-3.3,2.7-5.9,5.9-6.1h4.2c6.1,0,14.1,0,14.1,6.1s-5.1,7.4-12.1,7.4-12.1-3.6-12.1-7.4M2452.9,1183.3c0,5.1,7.1,9.1,15.8,9.1s15.9-3.6,15.9-9.2-1-6.1-4.6-8.1c-3.8-2-7.9-2-12.3-2s-4.9,0-5.4,0c-2.3-.3-3.8-2.5-3.8-4.8s0-1.9,1.2-3.4c2.8,2,5.7,2.2,7.1,2.2,6.6,0,11.6-4.9,11.6-10.4s-1.1-5.3-2.9-6.9c2.6-2.4,5.1-2.8,6.4-2.8s.5,0,.7,0c-.8.3-1.1,1.1-1.1,1.9s.9,2.1,2.1,2.1,2.1-.5,2.1-2.1-.9-3.5-3.6-3.5-4.6.4-7.6,3.4c-3-2.4-6-2.6-7.6-2.6-6.6,0-11.6,4.9-11.6,10.4s1.6,5.9,3.4,7.4c-.9,1.1-2.2,3.4-2.2,5.9s.9,4.9,3.1,6.4c-4.3,1.2-6.6,4.3-6.6,7.1M2433.5,1177.7c2.3,0,6.1-.2,7.9-.2,2.5,0,5,.1,7.4.2v-2.2c-4.7,0-5-.4-5-3.1v-26.2l-10,.8v2.2c4.6,0,5.3.4,5.3,3.9v19.2c0,3.2-.8,3.2-5.6,3.2v2.2ZM2436.5,1133.7c0,1.9,1.6,3.8,3.8,3.8s3.8-1.5,3.8-3.8-1.8-3.8-3.8-3.8-3.8,1.9-3.8,3.8M2393.8,1177.7c2.5,0,6.1-.2,8.1-.2s5.6.1,8,.2v-2.2c-4.8,0-5.6,0-5.6-3.2v-13.1c0-7.4,5.1-11.4,9.6-11.4s5.3,3.9,5.3,7.9v16.6c0,3.2-.8,3.2-5.6,3.2v2.2c2.5,0,6.1-.2,8.1-.2s5.6.1,8,.2v-2.2c-3.7,0-5.5,0-5.6-2.1v-13.6c0-6.1,0-8.4-2.2-10.9-1-1.2-3.4-2.6-7.5-2.6-6,0-9.1,4.3-10.3,6.9h0v-24.9l-10.3.8v2.2c5,0,5.6.5,5.6,4v37.1c0,3.2-.8,3.2-5.6,3.2v2.2ZM2368.4,1164.4h19v-4.2h-19v4.2ZM2315,1131.1h1.3c4.9,0,5.4.8,6.6,2.6l15,24.4v13.9c0,2.6-.1,3.4-5.6,3.4h-1.7v2.2c2.6-.2,7.6-.2,10.4-.2s7.9,0,10.4.2v-2.2h-1.6c-5.5,0-5.7-.7-5.7-3.5v-13.8l13.8-22.4c2.6-4.4,6.9-4.6,9.1-4.6v-2.2c-2.2.1-5.1.2-7,.2s-6.4-.1-8.2-.2v2.2c2.9,0,4.1,1.4,4.1,2.8s-.4,1.7-.7,2.1l-11.8,19.1-12.9-21.1c-.5-.7-.5-.9-.5-1.2,0-1.5,1.8-1.8,5-1.8v-2.2c-2.6.2-7.8.2-10.6.2s-6.3,0-9.3-.2v2.2ZM2263,1177.7c2.5-.2,7.8-.2,10.5-.2s8.1,0,10.6.2v-2.2h-1.7c-5.5,0-5.6-.8-5.6-3.4v-18.7h21.4v18.7c0,2.6-.1,3.4-5.6,3.4h-1.7v2.2c2.5-.2,7.8-.2,10.5-.2s8.1,0,10.6.2v-2.2h-1.7c-5.5,0-5.6-.8-5.6-3.4v-37.6c0-2.6.1-3.4,5.6-3.4h1.7v-2.2c-2.5.2-7.8.2-10.5.2s-8.1,0-10.6-.2v2.2h1.7c5.5,0,5.6.8,5.6,3.4v16.7h-21.4v-16.7c0-2.6.1-3.4,5.6-3.4h1.7v-2.2c-2.5.2-7.8.2-10.5.2s-8.1,0-10.6-.2v2.2h1.7c5.5,0,5.6.8,5.6,3.4v37.6c0,2.6-.1,3.4-5.6,3.4h-1.7v2.2ZM2228,1153.2v-19.3c0-2.4.1-2.9,3.5-2.9h6.4c11.4,0,11.4,7.6,11.4,11.1s0,11.1-11.4,11.1h-9.9ZM2214.5,1177.7c2.5-.2,7.8-.2,10.5-.2s8.1,0,10.6.2v-2.2h-1.7c-5.5,0-5.6-.8-5.6-3.4v-17h12.1c8.6,0,16.3-5.8,16.3-12.9s-7.1-13.3-16.9-13.3h-25.2v2.2h1.7c5.5,0,5.6.8,5.6,3.4v37.6c0,2.6-.1,3.4-5.6,3.4h-1.7v2.2Z"/>
  </g>
  <g class="st39">
    <rect class="st14" x="2978.9" y="824" width="680.2" height="387.7"/>
  </g>
  <g class="st40">
    <rect class="st9" x="2978.9" y="824" width="680.2" height="387.7"/>
  </g>
  <g class="st41">
    <rect class="st55" x="3060.5" y="946.5" width="503.3" height="95.2"/>
    <rect class="st3" x="3060.5" y="946.5" width="503.3" height="95.2"/>
    <rect class="st55" x="3060.5" y="1041.7" width="503.3" height="95.2"/>
    <rect class="st3" x="3060.5" y="1041.7" width="503.3" height="95.2"/>
  </g>
  <g class="st42">
    <path class="st53" d="M3375.5,897.2c0,8.6,6,13.4,12.7,13.4s17-9.3,18.9-17.1l6.5-26.1c1.1-4.6,5.1-4.8,7.2-4.9.2,0,1.1,0,1.1-1.3s-.3-.9-.9-.9c-2.1,0-4.5.2-6.7.2s-4.6-.2-6.9-.2-1.3,0-1.3,1.4.6.9,1.3.9c3.7.1,4.3,1.6,4.3,3.1s-.1,1.1-.3,1.7l-6.4,25.4c-2.3,9.2-9.8,15.7-16.6,15.7s-7.6-2.4-7.6-8.9.4-3.9.7-5.4l7.1-28.7c.6-2.3,1.1-2.9,5.6-2.9s2.1,0,2.1-1.3-.5-.9-1-.9c-2.7,0-5.6.2-8.4.2s-5.8-.2-8.6-.2-1.4,0-1.4,1.4.6.9,1.9.9c2.2,0,4.1,0,4.1,1.2s0,.4-.3,1.4l-6.9,27.6c-.6,2.3-.6,3.9-.6,4.6M3333.8,883.8l4.6-18.8c.5-2.1,1.1-2.3,1.6-2.4.5-.1,2.8-.1,4.1-.1,4.6,0,11.6,0,11.6,6.7s-.3,7.1-4.1,10.9c-2.1,2.1-5.7,3.7-10.6,3.7h-7.2ZM3315.3,908.2c0,.9.8.9,1,.9,2.7,0,5.6-.2,8.3-.2s5.7.2,8.5.2,1.4,0,1.4-1.3-.5-.9-1.9-.9c-4.1,0-4.1-.6-4.1-1.2s0-.4.3-1.4l4.6-18.8h7.7c3,0,6.7,1.1,6.7,6.3s-.2,1.6-1.2,5.6c-.8,3.4-1.1,4.4-1.1,5.7,0,5.3,4.3,7.6,8.9,7.6s8.1-7.6,8.1-8.1-.1-.9-1.1-.9-1,.4-1.2,1.2c-1.2,4-3.4,6.3-5.6,6.3s-2.4-1.9-2.4-4.2.2-3.6.4-5.4c.2-1.6.6-4.8.6-6.3,0-4-2.5-7-6.1-8.3,10.1-2.6,15-8.8,15-14s-5.4-10.6-14.3-10.6h-18.9c-1.1,0-1.9,0-1.9,1.4s.6.9,1.9.9c2.2,0,4.1,0,4.1,1.2s0,.4-.3,1.4l-9.6,38.8c-.6,2.4-1,3-5.9,3s-1.9,0-1.9,1.4M3291.4,894.7c0,.9.7,1,1.6,1h14.3c.4,0,.8,0,1.1-.2.8-.4,1-2.7,1-2.8,0-.9-.8-1-1.6-1h-14.2c-.4,0-.6,0-.9.1-.9.4-1.2,2.9-1.2,2.9M3247.6,894.4c0-3.3,1-13.3,6-22,3.8-6.7,10.3-11.9,16.5-11.9s10.7,4.3,10.7,13.9-2.6,15.8-6.4,22.3c-4.6,7.9-11,12.1-16.4,12.1s-10.5-5.9-10.5-14.4M3241.1,892.2c0,10.8,6.7,18.4,16.4,18.4,14.3,0,29.3-16.1,29.3-33.3s-7.3-18.6-16.3-18.6c-14.6,0-29.4,16.9-29.4,33.5"/>
    <path class="st53" d="M3417.2,989.3c3.6,0,4.4.2,5.3,2.5l9,25.3c.4,1,.6,1.6,1.5,1.6s1.1-.4,1.4-1.4l7.2-20.2,7.3,20.3c.3.8.5,1.4,1.4,1.4s1.1-.6,1.4-1.4l8.3-23.4c1.3-3.6,3.5-4.5,6-4.6v-2.2c-1.6.1-3.6.2-5.2.2s-5.3-.1-6.6-.2v2.2c2.6,0,4.1,1.4,4.1,3.4s0,.6-.4,1.5l-6.5,18.3-7.1-19.9c-.3-.9-.4-1-.4-1.4,0-1.9,2.8-1.9,4.2-1.9v-2.2c-2.1,0-5.7.2-7.4.2s-4.2,0-6.4-.2v2.2c2.6,0,3.8.1,4.5,1.1.4.4,1.1,2.6,1.6,3.9l-6.1,17.3-6.8-19.1c-.4-.9-.4-1-.4-1.3,0-1.9,2.8-1.9,4.2-1.9v-2.2c-2.1,0-6.1.2-7.8.2s-4.1,0-6.6-.2v2.2ZM3390.1,1002c0-2.8,0-6.6,1.7-9.8,1.9-3.3,5.3-4.8,8.1-4.8s6.2,1.6,8.1,4.6c1.9,3.1,1.9,7.2,1.9,9.9s0,6.4-1.6,9.6c-1.6,3.2-4.7,5.3-8.3,5.3s-6.2-1.5-8.1-4.8c-1.8-3.1-1.8-7.5-1.8-10.1M3384.2,1002.6c0,9.2,7.4,16.1,15.8,16.1s15.9-7,15.9-16.1-7.1-16.7-15.8-16.7-15.9,7.8-15.9,16.7M3364.8,1017.8c2.4,0,6.1-.2,7.9-.2s5.3.1,7.9.2v-2.2c-4.8,0-5.6,0-5.6-3.2v-44.1l-10.3.8v2.2c5,0,5.6.5,5.6,4v37.1c0,3.2-.8,3.2-5.6,3.2v2.2ZM3339.3,1004.6h19v-4.2h-19v4.2ZM3285.9,971.3h1.3c4.9,0,5.4.8,6.6,2.6l15,24.4v13.9c0,2.6-.1,3.4-5.6,3.4h-1.7v2.2c2.6-.2,7.6-.2,10.4-.2s7.9,0,10.4.2v-2.2h-1.6c-5.5,0-5.7-.7-5.7-3.5v-13.8l13.8-22.4c2.6-4.4,6.9-4.6,9.1-4.6v-2.2c-2.2.1-5.1.2-7,.2s-6.4-.1-8.2-.2v2.2c2.9,0,4.1,1.4,4.1,2.8s-.4,1.7-.7,2.1l-11.8,19.1-12.9-21.1c-.5-.7-.5-.9-.5-1.2,0-1.5,1.8-1.8,5-1.8v-2.2c-2.6.2-7.8.2-10.6.2s-6.3,0-9.3-.2v2.2ZM3233.9,1017.8c2.5-.2,7.8-.2,10.5-.2s8.1,0,10.6.2v-2.2h-1.7c-5.5,0-5.6-.8-5.6-3.4v-18.7h21.4v18.7c0,2.6-.1,3.4-5.6,3.4h-1.7v2.2c2.5-.2,7.8-.2,10.5-.2s8.1,0,10.6.2v-2.2h-1.7c-5.5,0-5.6-.8-5.6-3.4v-37.6c0-2.6.1-3.4,5.6-3.4h1.7v-2.2c-2.5.2-7.8.2-10.5.2s-8.1,0-10.6-.2v2.2h1.7c5.5,0,5.6.8,5.6,3.4v16.7h-21.4v-16.7c0-2.6.1-3.4,5.6-3.4h1.7v-2.2c-2.5.2-7.8.2-10.5.2s-8.1,0-10.6-.2v2.2h1.7c5.5,0,5.6.8,5.6,3.4v37.6c0,2.6-.1,3.4-5.6,3.4h-1.7v2.2ZM3198.9,993.4v-19.3c0-2.4.1-2.9,3.5-2.9h6.4c11.3,0,11.3,7.6,11.3,11.1s0,11.1-11.3,11.1h-9.9ZM3185.4,1017.8c2.5-.2,7.8-.2,10.5-.2s8.1,0,10.6.2v-2.2h-1.7c-5.5,0-5.6-.8-5.6-3.4v-17h12.1c8.6,0,16.3-5.8,16.3-12.9s-7.1-13.3-16.9-13.3h-25.2v2.2h1.7c5.5,0,5.6.8,5.6,3.4v37.6c0,2.6-.1,3.4-5.6,3.4h-1.7v2.2Z"/>
    <path class="st53" d="M3333.1,1113.1c2.5-.2,8.1-.2,10.9-.2s9.4,0,12,.2v-2.2h-2.4c-6.8,0-6.8-.9-6.8-3.4v-17.6h6.1c6.8,0,7.6,2.3,7.6,8.3h1.8v-18.9h-1.8c0,6-.7,8.3-7.6,8.3h-6.1v-18.1c0-2.4.2-2.9,3.5-2.9h8.6c10.7,0,12.5,4,13.6,13.9h1.8l-2-16.1h-39.2v2.2h1.7c5.5,0,5.6.8,5.6,3.4v37.4c0,2.6-.1,3.4-5.6,3.4h-1.7v2.2ZM3294.1,1087.9v-18.5c0-1.6,0-2.5,1.6-2.7.7-.1,2.8-.1,4.2-.1,6.4,0,14.4.3,14.4,10.6s-1.7,10.7-12.3,10.7h-7.9ZM3280.6,1113.1c2.6-.2,7.6-.2,10.4-.2s7.9,0,10.4.2v-2.2h-1.7c-5.5,0-5.6-.8-5.6-3.4v-18.1h8.2c1.1,0,4.1,0,6.6,2.4,2.7,2.6,2.7,4.8,2.7,9.6s0,7.5,2.9,10.2c2.9,2.6,6.9,3,9,3,5.6,0,6.8-5.9,6.8-7.9s0-1.2-.9-1.2-.8.6-.9,1.1c-.4,5.1-2.9,6.4-4.7,6.4-3.5,0-4.1-3.6-5.1-10.3l-.9-5.7c-1.3-4.6-4.8-6.9-8.7-8.3,6.9-1.7,12.5-6.1,12.5-11.6s-8.1-12.8-18.6-12.8h-22.4v2.2h1.7c5.5,0,5.6.8,5.6,3.4v37.6c0,2.6-.2,3.4-5.6,3.4h-1.7v2.2Z"/>
  </g>
  <g>
    <rect x="1466" y="549.8" width="13.9" height="265.5"/>
    <g class="st43">
      <g>
        <rect x="-1509.1" y="-1502.7" width="5343.1" height="3005.5"/>
        <g class="st36">
          <line class="st10" x1="1473" y1="812.5" x2="1473" y2="552.5"/>
        </g>
        <rect class="st6" x="-1509.1" y="-1502.7" width="5343.1" height="3005.5"/>
      </g>
    </g>
    <rect class="st6" x="1466" y="549.8" width="13.9" height="265.5"/>
  </g>
  <g class="st34">
    <rect class="st5" x="2908.7" y="637.5" width="820.5" height="697.5"/>
  </g>
  <g class="st37">
    <g>
      <path d="M3101.6,748.5v-39.2h14.7c2.5,0,4.7.5,6.6,1.5,1.9,1,3.3,2.3,4.4,4.1,1,1.7,1.5,3.8,1.5,6.2h0c0,2.8-.7,5.1-2.1,7.1-1.4,2-3.3,3.4-5.8,4.1l9.1,16.3h-5.7l-8.4-15.5h-9.4v15.5h-4.9ZM3106.5,728.7h9.4c2.5,0,4.5-.7,5.8-2,1.4-1.3,2.1-3.2,2.1-5.6h0c0-2.4-.7-4.2-2.2-5.5-1.4-1.3-3.4-2-5.9-2h-9.2v15Z"/>
      <path d="M3141.1,749.1c-1.9,0-3.5-.4-4.9-1.1-1.4-.7-2.5-1.7-3.3-3-.8-1.3-1.2-2.8-1.2-4.5h0c0-1.7.4-3.1,1.2-4.2.8-1.2,2-2.1,3.5-2.8s3.4-1.1,5.5-1.2l10.5-.6v3.7l-9.9.6c-1.9.1-3.3.6-4.4,1.4s-1.6,1.9-1.6,3.2h0c0,1.4.5,2.5,1.5,3.3,1,.8,2.4,1.2,4.1,1.2s2.8-.3,4-.9c1.2-.6,2.1-1.5,2.8-2.6.7-1.1,1-2.3,1-3.7v-8.3c0-1.7-.5-3.1-1.6-4.1s-2.6-1.5-4.6-1.5-3.3.4-4.4,1.2-1.8,1.8-2.1,3.1v.2h-4.6v-.3c.2-1.6.7-3,1.6-4.2.9-1.3,2.2-2.3,3.8-3s3.5-1.1,5.7-1.1,4.2.4,5.8,1.1c1.6.8,2.9,1.8,3.8,3.2.9,1.4,1.3,3,1.3,4.9v19.5h-4.7v-4.6h-.1c-.5,1-1.3,1.9-2.2,2.7-.9.8-1.9,1.4-3.1,1.8-1.1.4-2.3.6-3.6.6Z"/>
      <path d="M3170.2,749.1c-2.4,0-4.5-.6-6.3-1.8s-3.2-2.9-4.2-5.1c-1-2.2-1.5-4.8-1.5-7.8h0c0-3,.5-5.6,1.5-7.8,1-2.2,2.4-3.9,4.2-5.1,1.8-1.2,3.9-1.8,6.2-1.8s2.6.2,3.7.6c1.1.4,2.2,1,3.1,1.8s1.6,1.7,2.2,2.8h.1v-15.7h4.7v39.2h-4.7v-4.8h-.1c-.6,1.1-1.3,2.1-2.2,2.8s-1.9,1.4-3,1.8c-1.1.4-2.4.7-3.7.7ZM3171.1,744.9c1.6,0,3-.4,4.2-1.3,1.2-.9,2.2-2.1,2.9-3.7.7-1.6,1-3.4,1-5.5h0c0-2.1-.4-4-1.1-5.5-.7-1.6-1.7-2.8-2.9-3.7-1.2-.9-2.6-1.3-4.2-1.3s-3.1.4-4.3,1.3-2.1,2.1-2.8,3.6c-.7,1.6-1,3.4-1,5.6h0c0,2.2.3,4,1,5.6s1.6,2.8,2.8,3.6,2.7,1.3,4.3,1.3Z"/>
      <path d="M3191.8,715.5c-.8,0-1.5-.3-2.1-.9s-.9-1.3-.9-2.1.3-1.5.9-2.1c.6-.6,1.3-.9,2.1-.9s1.5.3,2.1.9c.6.6.9,1.3.9,2.1s-.3,1.5-.9,2.1c-.6.6-1.3.9-2.1.9ZM3189.5,748.5v-28.3h4.7v28.3h-4.7Z"/>
      <path d="M3211.1,749.1c-2.6,0-4.9-.6-6.9-1.8-2-1.2-3.5-2.9-4.6-5.1-1.1-2.2-1.6-4.8-1.6-7.8h0c0-3.1.5-5.7,1.6-7.8,1.1-2.2,2.6-3.9,4.6-5.1,2-1.2,4.2-1.8,6.8-1.8s4.9.6,6.9,1.8c2,1.2,3.5,2.9,4.6,5.1,1.1,2.2,1.6,4.8,1.6,7.8h0c0,3.1-.5,5.7-1.6,7.9-1.1,2.2-2.6,3.9-4.6,5.1-2,1.2-4.2,1.8-6.8,1.8ZM3211.1,744.9c1.7,0,3.1-.4,4.3-1.2,1.2-.8,2.2-2,2.9-3.6.7-1.6,1-3.5,1-5.7h0c0-2.3-.3-4.1-1-5.7-.7-1.6-1.6-2.7-2.9-3.6-1.2-.8-2.7-1.2-4.4-1.2s-3.1.4-4.3,1.2c-1.2.8-2.2,2-2.9,3.6s-1,3.4-1,5.6h0c0,2.3.3,4.2,1,5.7.7,1.6,1.7,2.8,2.9,3.6s2.7,1.2,4.4,1.2Z"/>
      <path d="M3254.3,749.2c-3.2,0-6-.6-8.4-1.8-2.3-1.2-4.1-2.9-5.4-5.1-1.2-2.2-1.9-4.7-1.9-7.5v-25.5h4.9v25.1c0,2,.4,3.8,1.3,5.3.8,1.5,2.1,2.7,3.7,3.6,1.6.9,3.5,1.3,5.8,1.3s4.2-.4,5.8-1.3c1.6-.9,2.8-2.1,3.6-3.6.8-1.5,1.2-3.3,1.2-5.3v-25.1h4.9v25.5c0,2.8-.6,5.3-1.9,7.5-1.2,2.2-3,3.9-5.3,5.1-2.3,1.2-5.1,1.8-8.3,1.8Z"/>
      <path d="M3275.6,748.5v-28.3h4.7v4h.1c.8-1.3,1.9-2.4,3.3-3.3s3.2-1.3,5.4-1.3c3.1,0,5.5.9,7.2,2.8s2.6,4.4,2.6,7.7v18.3h-4.7v-17.5c0-2.3-.5-4.1-1.6-5.3-1.1-1.2-2.7-1.8-4.9-1.8s-2.8.3-3.9,1c-1.1.7-2,1.6-2.6,2.8-.6,1.2-.9,2.6-.9,4.2v16.6h-4.7Z"/>
      <path d="M3306.3,715.5c-.8,0-1.5-.3-2.1-.9s-.9-1.3-.9-2.1.3-1.5.9-2.1c.6-.6,1.3-.9,2.1-.9s1.5.3,2.1.9c.6.6.9,1.3.9,2.1s-.3,1.5-.9,2.1c-.6.6-1.3.9-2.1.9ZM3304,748.5v-28.3h4.7v28.3h-4.7Z"/>
      <path d="M3323.1,749.1c-2.6,0-4.5-.6-5.8-1.8-1.3-1.2-1.9-3.2-1.9-5.9v-17.1h-4.1v-3.9h4.1v-7.6h4.9v7.6h5.4v3.9h-5.4v17.1c0,1.5.3,2.5,1,3.1.7.5,1.6.8,2.9.8s.6,0,.8,0c.3,0,.5,0,.7,0v3.8c-.3,0-.7,0-1.1.1-.5,0-.9,0-1.4,0Z"/>
      <path d="M3349.5,758.1c-1.8-2.2-3.2-4.6-4.4-7.2-1.1-2.5-2-5.2-2.5-8.1-.6-2.9-.8-5.9-.8-9.1s.3-6.3.8-9.1,1.4-5.5,2.5-8.1,2.6-4.9,4.3-7.2h4c-1,1.1-1.9,2.6-2.7,4.4-.8,1.8-1.6,3.8-2.2,6-.6,2.2-1.1,4.5-1.5,6.9-.3,2.4-.5,4.7-.5,7s.2,4.6.5,7c.3,2.4.8,4.7,1.5,6.9s1.4,4.2,2.2,6c.8,1.8,1.7,3.3,2.7,4.4h-4Z"/>
      <path d="M3373.8,749.2c-3.7,0-6.9-.8-9.6-2.5-2.7-1.6-4.8-4-6.3-7-1.5-3-2.2-6.6-2.2-10.8h0c0-4.2.7-7.8,2.2-10.8,1.5-3,3.6-5.3,6.3-7,2.7-1.6,5.9-2.5,9.6-2.5s6.9.8,9.6,2.5c2.7,1.6,4.8,4,6.3,7,1.5,3,2.2,6.6,2.2,10.7h0c0,4.2-.7,7.8-2.2,10.8-1.5,3-3.5,5.4-6.2,7-2.7,1.6-5.9,2.5-9.6,2.5ZM3373.8,744.7c2.7,0,5-.6,7-1.9,1.9-1.3,3.4-3.1,4.5-5.5,1.1-2.4,1.6-5.1,1.6-8.3h0c0-3.3-.5-6-1.6-8.4-1.1-2.4-2.6-4.2-4.5-5.4-2-1.3-4.3-1.9-6.9-1.9s-5,.6-6.9,1.9-3.5,3.1-4.6,5.4c-1.1,2.3-1.6,5.1-1.6,8.4h0c0,3.3.5,6,1.6,8.4,1.1,2.4,2.6,4.2,4.5,5.5,2,1.3,4.3,1.9,7,1.9Z"/>
      <path d="M3396.1,734.8v-4.4h17.4v4.4h-17.4Z"/>
      <path d="M3419.3,748.5v-39.2h14.7c2.5,0,4.7.5,6.6,1.5,1.9,1,3.3,2.3,4.4,4.1,1,1.7,1.5,3.8,1.5,6.2h0c0,2.8-.7,5.1-2.1,7.1-1.4,2-3.3,3.4-5.8,4.1l9.1,16.3h-5.7l-8.4-15.5h-9.4v15.5h-4.9ZM3424.2,728.7h9.4c2.5,0,4.5-.7,5.8-2,1.4-1.3,2.1-3.2,2.1-5.6h0c0-2.4-.7-4.2-2.2-5.5-1.4-1.3-3.4-2-5.9-2h-9.2v15Z"/>
      <path d="M3467,749.2c-3.2,0-6-.6-8.4-1.8-2.3-1.2-4.1-2.9-5.4-5.1-1.2-2.2-1.9-4.7-1.9-7.5v-25.5h4.9v25.1c0,2,.4,3.8,1.3,5.3.8,1.5,2.1,2.7,3.7,3.6,1.6.9,3.5,1.3,5.8,1.3s4.2-.4,5.8-1.3c1.6-.9,2.8-2.1,3.6-3.6.8-1.5,1.2-3.3,1.2-5.3v-25.1h4.9v25.5c0,2.8-.6,5.3-1.9,7.5-1.2,2.2-3,3.9-5.3,5.1-2.3,1.2-5.1,1.8-8.3,1.8Z"/>
      <path d="M3490.3,758.1h-4c1-1.1,1.9-2.6,2.7-4.4.8-1.8,1.6-3.8,2.2-6.1s1.1-4.5,1.5-6.9c.3-2.4.5-4.7.5-7s-.2-4.6-.5-7c-.3-2.4-.8-4.7-1.5-6.9-.6-2.2-1.4-4.2-2.2-6-.8-1.8-1.7-3.3-2.7-4.4h4c1.8,2.2,3.2,4.6,4.4,7.2,1.1,2.5,2,5.2,2.5,8.1.6,2.9.8,5.9.8,9.1s-.3,6.3-.8,9.1c-.6,2.9-1.4,5.6-2.5,8.1-1.1,2.5-2.6,4.9-4.4,7.1Z"/>
    </g>
  </g>
  <g>
    <g class="st35">
      <g>
        <g class="st30">
          <line class="st8" x1="741.2" y1="810.5" x2="741.2" y2="550.5"/>
        </g>
        <rect class="st6" x="-1509.1" y="-1502.7" width="5343.1" height="3005.5"/>
      </g>
    </g>
    <rect class="st6" x="734.2" y="547.7" width="13.9" height="265.5"/>
  </g>
  <g>
    <rect x="2022.9" y="547.8" width="13.9" height="245.1"/>
    <g class="st25">
      <g>
        <rect x="-1509.1" y="-1502.7" width="5343.1" height="3005.5"/>
        <g class="st26">
          <line x1="2029.9" y1="790.1" x2="2029.9" y2="550.6"/>
        </g>
      </g>
    </g>
  </g>
  <g>
    <rect x="737.8" y="543.5" width="1296.8" height="13.9"/>
    <g class="st27">
      <line class="st10" x1="740.6" y1="550.5" x2="2031.8" y2="550.5"/>
    </g>
    <rect class="st6" x="737.8" y="543.5" width="1296.8" height="13.9"/>
  </g>
  <g>
    <rect x="1608.1" y="263.8" width="13.9" height="291"/>
    <g class="st28">
      <g>
        <rect x="-1509.1" y="-1502.7" width="5343.1" height="3005.5"/>
        <g class="st29">
          <line class="st10" x1="1615.1" y1="552" x2="1615.1" y2="266.6"/>
        </g>
        <rect class="st6" x="-1509.1" y="-1502.7" width="5343.1" height="3005.5"/>
      </g>
    </g>
    <rect class="st6" x="1608.1" y="263.8" width="13.9" height="291"/>
  </g>
  <g>
    <g class="st31">
      <line class="st8" x1="2690" y1="998.5" x2="2981" y2="998.5"/>
    </g>
    <rect class="st6" x="2687.2" y="991.6" width="296.6" height="13.9"/>
  </g>
  <g>
    <rect x="1608.1" y="263.8" width="629.9" height="13.9"/>
    <g class="st32">
      <g>
        <rect x="-444" y="-2853.4" width="6506.2" height="5343.1"/>
        <g class="st33">
          <line class="st10" x1="1614.2" y1="270.8" x2="2232" y2="270.8"/>
        </g>
        <rect class="st6" x="-444" y="-2853.4" width="6506.2" height="5343.1"/>
      </g>
    </g>
    <rect class="st6" x="1608.1" y="263.8" width="629.9" height="13.9"/>
  </g>
</svg>