<?xml version="1.0" encoding="UTF-8"?>
<svg id="Ebene_1" xmlns="http://www.w3.org/2000/svg" xmlns:xlink="http://www.w3.org/1999/xlink" version="1.1" viewBox="0 0 914.6 392.7">
  <!-- Generator: Adobe Illustrator 29.4.0, SVG Export Plug-In . SVG Version: 2.1.0 Build 152)  -->
  <defs>
    <style>
      .st0, .st1, .st2, .st3, .st4 {
        fill: none;
      }

      .st1 {
        stroke: #2d3580;
        stroke-linecap: round;
        stroke-width: 1.5px;
      }

      .st1, .st2, .st5, .st6, .st7, .st4 {
        stroke-linejoin: round;
      }

      .st8 {
        isolation: isolate;
        opacity: .8;
        stroke: #ccc;
      }

      .st8, .st9 {
        fill: #fff;
      }

      .st2 {
        stroke: #b0b0b0;
      }

      .st2, .st7, .st3 {
        stroke-width: .8px;
      }

      .st2, .st3 {
        stroke-linecap: square;
      }

      .st5 {
        fill: #54beca;
        stroke: #54beca;
      }

      .st10, .st6 {
        fill: blue;
      }

      .st11 {
        clip-path: url(#clippath-11);
      }

      .st12 {
        clip-path: url(#clippath-16);
      }

      .st13 {
        clip-path: url(#clippath-10);
      }

      .st14 {
        clip-path: url(#clippath-15);
      }

      .st15 {
        clip-path: url(#clippath-13);
      }

      .st16 {
        clip-path: url(#clippath-14);
      }

      .st17 {
        clip-path: url(#clippath-12);
      }

      .st18 {
        clip-path: url(#clippath-1);
      }

      .st19 {
        clip-path: url(#clippath-3);
      }

      .st20 {
        clip-path: url(#clippath-4);
      }

      .st21 {
        clip-path: url(#clippath-2);
      }

      .st22 {
        clip-path: url(#clippath-7);
      }

      .st23 {
        clip-path: url(#clippath-6);
      }

      .st24 {
        clip-path: url(#clippath-9);
      }

      .st25 {
        clip-path: url(#clippath-8);
      }

      .st26 {
        clip-path: url(#clippath-5);
      }

      .st6 {
        stroke: blue;
      }

      .st7, .st3, .st4 {
        stroke: #000;
      }

      .st4 {
        stroke-dasharray: 3.7 1.6;
      }

      .st27 {
        clip-path: url(#clippath);
      }
    </style>
    <clipPath id="clippath">
      <rect class="st0" x="296.4" y="12.5" width="332.6" height="332.6"/>
    </clipPath>
    <clipPath id="clippath-1">
      <rect class="st0" x="296.4" y="12.5" width="332.6" height="332.6"/>
    </clipPath>
    <clipPath id="clippath-2">
      <rect class="st0" x="296.4" y="12.5" width="332.6" height="332.6"/>
    </clipPath>
    <clipPath id="clippath-3">
      <rect class="st0" x="296.4" y="12.5" width="332.6" height="332.6"/>
    </clipPath>
    <clipPath id="clippath-4">
      <rect class="st0" x="296.4" y="12.5" width="332.6" height="332.6"/>
    </clipPath>
    <clipPath id="clippath-5">
      <rect class="st0" x="296.4" y="12.5" width="332.6" height="332.6"/>
    </clipPath>
    <clipPath id="clippath-6">
      <rect class="st0" x="296.4" y="12.5" width="332.6" height="332.6"/>
    </clipPath>
    <clipPath id="clippath-7">
      <rect class="st0" x="296.4" y="12.5" width="332.6" height="332.6"/>
    </clipPath>
    <clipPath id="clippath-8">
      <rect class="st0" x="296.4" y="12.5" width="332.6" height="332.6"/>
    </clipPath>
    <clipPath id="clippath-9">
      <rect class="st0" x="296.4" y="12.5" width="332.6" height="332.6"/>
    </clipPath>
    <clipPath id="clippath-10">
      <rect class="st0" x="296.4" y="12.5" width="332.6" height="332.6"/>
    </clipPath>
    <clipPath id="clippath-11">
      <rect class="st0" x="296.4" y="12.5" width="332.6" height="332.6"/>
    </clipPath>
    <clipPath id="clippath-12">
      <rect class="st0" x="296.4" y="12.5" width="332.6" height="332.6"/>
    </clipPath>
    <clipPath id="clippath-13">
      <rect class="st0" x="296.4" y="12.5" width="332.6" height="332.6"/>
    </clipPath>
    <clipPath id="clippath-14">
      <rect class="st0" x="296.4" y="12.5" width="332.6" height="332.6"/>
    </clipPath>
    <clipPath id="clippath-15">
      <rect class="st0" x="296.4" y="12.5" width="332.6" height="332.6"/>
    </clipPath>
    <clipPath id="clippath-16">
      <rect class="st0" x="296.4" y="12.5" width="332.6" height="332.6"/>
    </clipPath>
  </defs>
  <g id="figure_1">
    <g id="patch_1">
      <path class="st9" d="M241.3,392.7h432V-39.3H241.3v432Z"/>
    </g>
    <g id="axes_1">
      <g id="patch_2">
        <path class="st9" d="M296.4,345.2h332.6V12.5h-332.6v332.6Z"/>
      </g>
      <g id="PathCollection_1">
        <g class="st27">
          <g>
            <path id="m60667e214a" class="st5" d="M541.1,106.6c1.6,0,3.2-.6,4.3-1.8,1.1-1.1,1.8-2.7,1.8-4.3s-.6-3.2-1.8-4.3c-1.1-1.1-2.7-1.8-4.3-1.8s-3.2.6-4.3,1.8c-1.1,1.1-1.8,2.7-1.8,4.3s.6,3.2,1.8,4.3c1.1,1.1,2.7,1.8,4.3,1.8Z"/>
            <path id="m60667e214a1" data-name="m60667e214a" class="st5" d="M384.3,106.6c1.6,0,3.2-.6,4.3-1.8,1.1-1.1,1.8-2.7,1.8-4.3s-.6-3.2-1.8-4.3c-1.1-1.1-2.7-1.8-4.3-1.8s-3.2.6-4.3,1.8c-1.1,1.1-1.8,2.7-1.8,4.3s.6,3.2,1.8,4.3c1.1,1.1,2.7,1.8,4.3,1.8Z"/>
            <path id="m60667e214a2" data-name="m60667e214a" class="st5" d="M384.3,263.4c1.6,0,3.2-.6,4.3-1.8,1.1-1.1,1.8-2.7,1.8-4.3s-.6-3.2-1.8-4.3c-1.1-1.1-2.7-1.8-4.3-1.8s-3.2.6-4.3,1.8c-1.1,1.1-1.8,2.7-1.8,4.3s.6,3.2,1.8,4.3c1.1,1.1,2.7,1.8,4.3,1.8Z"/>
            <path id="m60667e214a3" data-name="m60667e214a" class="st5" d="M541.1,263.4c1.6,0,3.2-.6,4.3-1.8,1.1-1.1,1.8-2.7,1.8-4.3s-.6-3.2-1.8-4.3c-1.1-1.1-2.7-1.8-4.3-1.8s-3.2.6-4.3,1.8c-1.1,1.1-1.8,2.7-1.8,4.3s.6,3.2,1.8,4.3c1.1,1.1,2.7,1.8,4.3,1.8Z"/>
          </g>
        </g>
      </g>
      <g id="PathCollection_2">
        <g class="st18">
          <path id="m2a8211d852" class="st6" d="M462.7,182.4c.9,0,1.8-.4,2.5-1s1-1.6,1-2.5-.4-1.8-1-2.5-1.6-1-2.5-1-1.8.4-2.5,1-1,1.6-1,2.5.4,1.8,1,2.5,1.6,1,2.5,1Z"/>
        </g>
      </g>
      <g id="matplotlib.axis_1">
        <g id="xtick_1">
          <g id="line2d_1">
            <g class="st21">
              <path class="st2" d="M296.4,345.2V12.5"/>
            </g>
          </g>
          <g id="line2d_2">
            <path id="m007368cd55" class="st7" d="M296.4,345.2v3.5"/>
          </g>
          <g id="text_1">
            <g>
              <path id="DejaVuSans-2212" d="M285.3,356.2h6.3v.8h-6.3v-.8Z"/>
              <path id="DejaVuSans-31" d="M293.9,358.9h1.6v-5.6l-1.8.4v-.9l1.7-.4h1v6.5h1.6v.8h-4.2v-.8Z"/>
              <path id="DejaVuSans-2e" d="M300.1,358.5h1v1.2h-1v-1.2Z"/>
              <path id="DejaVuSans-35" d="M303.2,352.5h3.9v.8h-3v1.8c.1,0,.3,0,.4-.1.1,0,.3,0,.4,0,.8,0,1.5.2,1.9.7.5.4.7,1,.7,1.8s-.2,1.4-.7,1.8c-.5.4-1.2.7-2.1.7s-.6,0-.9,0c-.3,0-.6-.1-1-.2v-1c.3.2.6.3.9.4s.6.1,1,.1c.6,0,1-.1,1.3-.4.3-.3.5-.7.5-1.2s-.2-.9-.5-1.2c-.3-.3-.8-.4-1.3-.4s-.5,0-.8,0c-.3,0-.5.1-.8.3v-3.7Z"/>
            </g>
          </g>
        </g>
        <g id="xtick_2">
          <g id="line2d_3">
            <g class="st19">
              <path class="st2" d="M351.8,345.2V12.5"/>
            </g>
          </g>
          <g id="line2d_4">
            <path id="m007368cd551" data-name="m007368cd55" class="st7" d="M351.8,345.2v3.5"/>
          </g>
          <g id="text_2">
            <g>
              <path id="DejaVuSans-22121" data-name="DejaVuSans-2212" d="M340.7,356.2h6.3v.8h-6.3v-.8Z"/>
              <path id="DejaVuSans-311" data-name="DejaVuSans-31" d="M349.3,358.9h1.6v-5.6l-1.8.4v-.9l1.7-.4h1v6.5h1.6v.8h-4.2v-.8Z"/>
              <path id="DejaVuSans-2e1" data-name="DejaVuSans-2e" d="M355.5,358.5h1v1.2h-1v-1.2Z"/>
              <path id="DejaVuSans-30" d="M360.8,353.1c-.5,0-.9.3-1.1.8-.3.5-.4,1.3-.4,2.3s.1,1.7.4,2.2c.3.5.6.8,1.1.8s.9-.3,1.2-.8c.3-.5.4-1.2.4-2.2s-.1-1.8-.4-2.3c-.3-.5-.6-.8-1.2-.8ZM360.8,352.3c.8,0,1.4.3,1.9,1,.4.6.6,1.6.6,2.8s-.2,2.2-.6,2.8c-.4.6-1.1,1-1.9,1s-1.4-.3-1.9-1c-.4-.6-.6-1.6-.6-2.8s.2-2.2.6-2.8c.4-.6,1.1-1,1.9-1Z"/>
            </g>
          </g>
        </g>
        <g id="xtick_3">
          <g id="line2d_5">
            <g class="st20">
              <path class="st2" d="M407.3,345.2V12.5"/>
            </g>
          </g>
          <g id="line2d_6">
            <path id="m007368cd552" data-name="m007368cd55" class="st7" d="M407.3,345.2v3.5"/>
          </g>
          <g id="text_3">
            <g>
              <path id="DejaVuSans-22122" data-name="DejaVuSans-2212" d="M396.2,356.2h6.3v.8h-6.3v-.8Z"/>
              <path id="DejaVuSans-301" data-name="DejaVuSans-30" d="M406.7,353.1c-.5,0-.9.3-1.1.8-.3.5-.4,1.3-.4,2.3s.1,1.7.4,2.2c.3.5.6.8,1.1.8s.9-.3,1.2-.8c.3-.5.4-1.2.4-2.2s-.1-1.8-.4-2.3c-.3-.5-.6-.8-1.2-.8ZM406.7,352.3c.8,0,1.4.3,1.9,1,.4.6.6,1.6.6,2.8s-.2,2.2-.6,2.8c-.4.6-1.1,1-1.9,1s-1.4-.3-1.9-1c-.4-.6-.6-1.6-.6-2.8s.2-2.2.6-2.8c.4-.6,1.1-1,1.9-1Z"/>
              <path id="DejaVuSans-2e2" data-name="DejaVuSans-2e" d="M410.9,358.5h1v1.2h-1v-1.2Z"/>
              <path id="DejaVuSans-351" data-name="DejaVuSans-35" d="M414.1,352.5h3.9v.8h-3v1.8c.1,0,.3,0,.4-.1.1,0,.3,0,.4,0,.8,0,1.5.2,1.9.7.5.4.7,1,.7,1.8s-.2,1.4-.7,1.8c-.5.4-1.2.7-2.1.7s-.6,0-.9,0c-.3,0-.6-.1-1-.2v-1c.3.2.6.3.9.4s.6.1,1,.1c.6,0,1-.1,1.3-.4.3-.3.5-.7.5-1.2s-.2-.9-.5-1.2c-.3-.3-.8-.4-1.3-.4s-.5,0-.8,0c-.3,0-.5.1-.8.3v-3.7Z"/>
            </g>
          </g>
        </g>
        <g id="xtick_4">
          <g id="line2d_7">
            <g class="st26">
              <path class="st2" d="M462.7,345.2V12.5"/>
            </g>
          </g>
          <g id="line2d_8">
            <path id="m007368cd553" data-name="m007368cd55" class="st7" d="M462.7,345.2v3.5"/>
          </g>
          <g id="text_4">
            <g>
              <path id="DejaVuSans-302" data-name="DejaVuSans-30" d="M457.9,353.1c-.5,0-.9.3-1.1.8-.3.5-.4,1.3-.4,2.3s.1,1.7.4,2.2c.3.5.6.8,1.1.8s.9-.3,1.2-.8c.3-.5.4-1.2.4-2.2s-.1-1.8-.4-2.3c-.3-.5-.6-.8-1.2-.8ZM457.9,352.3c.8,0,1.4.3,1.9,1,.4.6.6,1.6.6,2.8s-.2,2.2-.6,2.8c-.4.6-1.1,1-1.9,1s-1.4-.3-1.9-1c-.4-.6-.6-1.6-.6-2.8s.2-2.2.6-2.8c.4-.6,1.1-1,1.9-1Z"/>
              <path id="DejaVuSans-2e3" data-name="DejaVuSans-2e" d="M462.2,358.5h1v1.2h-1v-1.2Z"/>
              <path id="DejaVuSans-303" data-name="DejaVuSans-30" d="M467.5,353.1c-.5,0-.9.3-1.1.8-.3.5-.4,1.3-.4,2.3s.1,1.7.4,2.2c.3.5.6.8,1.1.8s.9-.3,1.2-.8c.3-.5.4-1.2.4-2.2s-.1-1.8-.4-2.3c-.3-.5-.6-.8-1.2-.8ZM467.5,352.3c.8,0,1.4.3,1.9,1,.4.6.6,1.6.6,2.8s-.2,2.2-.6,2.8c-.4.6-1.1,1-1.9,1s-1.4-.3-1.9-1c-.4-.6-.6-1.6-.6-2.8s.2-2.2.6-2.8c.4-.6,1.1-1,1.9-1Z"/>
            </g>
          </g>
        </g>
        <g id="xtick_5">
          <g id="line2d_9">
            <g class="st23">
              <path class="st2" d="M518.1,345.2V12.5"/>
            </g>
          </g>
          <g id="line2d_10">
            <path id="m007368cd554" data-name="m007368cd55" class="st7" d="M518.1,345.2v3.5"/>
          </g>
          <g id="text_5">
            <g>
              <path id="DejaVuSans-304" data-name="DejaVuSans-30" d="M513.4,353.1c-.5,0-.9.3-1.1.8-.3.5-.4,1.3-.4,2.3s.1,1.7.4,2.2c.3.5.6.8,1.1.8s.9-.3,1.2-.8c.3-.5.4-1.2.4-2.2s-.1-1.8-.4-2.3c-.3-.5-.6-.8-1.2-.8ZM513.4,352.3c.8,0,1.4.3,1.9,1,.4.6.6,1.6.6,2.8s-.2,2.2-.6,2.8c-.4.6-1.1,1-1.9,1s-1.4-.3-1.9-1c-.4-.6-.6-1.6-.6-2.8s.2-2.2.6-2.8c.4-.6,1.1-1,1.9-1Z"/>
              <path id="DejaVuSans-2e4" data-name="DejaVuSans-2e" d="M517.6,358.5h1v1.2h-1v-1.2Z"/>
              <path id="DejaVuSans-352" data-name="DejaVuSans-35" d="M520.8,352.5h3.9v.8h-3v1.8c.1,0,.3,0,.4-.1.1,0,.3,0,.4,0,.8,0,1.5.2,1.9.7.5.4.7,1,.7,1.8s-.2,1.4-.7,1.8c-.5.4-1.2.7-2.1.7s-.6,0-.9,0c-.3,0-.6-.1-1-.2v-1c.3.2.6.3.9.4s.6.1,1,.1c.6,0,1-.1,1.3-.4.3-.3.5-.7.5-1.2s-.2-.9-.5-1.2c-.3-.3-.8-.4-1.3-.4s-.5,0-.8,0c-.3,0-.5.1-.8.3v-3.7Z"/>
            </g>
          </g>
        </g>
        <g id="xtick_6">
          <g id="line2d_11">
            <g class="st22">
              <path class="st2" d="M573.6,345.2V12.5"/>
            </g>
          </g>
          <g id="line2d_12">
            <path id="m007368cd555" data-name="m007368cd55" class="st7" d="M573.6,345.2v3.5"/>
          </g>
          <g id="text_6">
            <g>
              <path id="DejaVuSans-312" data-name="DejaVuSans-31" d="M566.9,358.9h1.6v-5.6l-1.8.4v-.9l1.7-.4h1v6.5h1.6v.8h-4.2v-.8Z"/>
              <path id="DejaVuSans-2e5" data-name="DejaVuSans-2e" d="M573.1,358.5h1v1.2h-1v-1.2Z"/>
              <path id="DejaVuSans-305" data-name="DejaVuSans-30" d="M578.3,353.1c-.5,0-.9.3-1.1.8-.3.5-.4,1.3-.4,2.3s.1,1.7.4,2.2c.3.5.6.8,1.1.8s.9-.3,1.2-.8c.3-.5.4-1.2.4-2.2s-.1-1.8-.4-2.3c-.3-.5-.6-.8-1.2-.8ZM578.3,352.3c.8,0,1.4.3,1.9,1,.4.6.6,1.6.6,2.8s-.2,2.2-.6,2.8c-.4.6-1.1,1-1.9,1s-1.4-.3-1.9-1c-.4-.6-.6-1.6-.6-2.8s.2-2.2.6-2.8c.4-.6,1.1-1,1.9-1Z"/>
            </g>
          </g>
        </g>
        <g id="xtick_7">
          <g id="line2d_13">
            <g class="st25">
              <path class="st2" d="M629,345.2V12.5"/>
            </g>
          </g>
          <g id="line2d_14">
            <path id="m007368cd556" data-name="m007368cd55" class="st7" d="M629,345.2v3.5"/>
          </g>
          <g id="text_7">
            <g>
              <path id="DejaVuSans-313" data-name="DejaVuSans-31" d="M622.3,358.9h1.6v-5.6l-1.8.4v-.9l1.7-.4h1v6.5h1.6v.8h-4.2v-.8Z"/>
              <path id="DejaVuSans-2e6" data-name="DejaVuSans-2e" d="M628.5,358.5h1v1.2h-1v-1.2Z"/>
              <path id="DejaVuSans-353" data-name="DejaVuSans-35" d="M631.7,352.5h3.9v.8h-3v1.8c.1,0,.3,0,.4-.1.1,0,.3,0,.4,0,.8,0,1.5.2,1.9.7.5.4.7,1,.7,1.8s-.2,1.4-.7,1.8c-.5.4-1.2.7-2.1.7s-.6,0-.9,0c-.3,0-.6-.1-1-.2v-1c.3.2.6.3.9.4s.6.1,1,.1c.6,0,1-.1,1.3-.4.3-.3.5-.7.5-1.2s-.2-.9-.5-1.2c-.3-.3-.8-.4-1.3-.4s-.5,0-.8,0c-.3,0-.5.1-.8.3v-3.7Z"/>
            </g>
          </g>
        </g>
        <g id="text_8">
          <g>
            <path id="DejaVuSans-49" d="M435.2,366.1h1v7.3h-1v-7.3Z"/>
            <path id="DejaVuSans-6e" d="M442.6,370.1v3.3h-.9v-3.3c0-.5-.1-.9-.3-1.2-.2-.3-.5-.4-.9-.4s-.9.2-1.1.5c-.3.3-.4.7-.4,1.3v3.1h-.9v-5.5h.9v.9c.2-.3.5-.6.8-.7.3-.2.6-.2,1-.2.6,0,1.1.2,1.4.6.3.4.5,1,.5,1.7Z"/>
            <path id="DejaVuSans-2d" d="M444,370.3h2.6v.8h-2.6v-.8Z"/>
            <path id="DejaVuSans-70" d="M448.9,372.6v2.9h-.9v-7.5h.9v.8c.2-.3.4-.6.7-.7.3-.2.6-.2,1-.2.7,0,1.2.3,1.6.8.4.5.6,1.2.6,2.1s-.2,1.6-.6,2.1c-.4.5-1,.8-1.6.8s-.7,0-1-.2c-.3-.2-.5-.4-.7-.7ZM452,370.7c0-.7-.1-1.2-.4-1.6s-.6-.6-1.1-.6-.9.2-1.1.6-.4.9-.4,1.6.1,1.2.4,1.6c.3.4.6.6,1.1.6s.8-.2,1.1-.6c.3-.4.4-.9.4-1.6Z"/>
            <path id="DejaVuSans-68" d="M458.9,370.1v3.3h-.9v-3.3c0-.5-.1-.9-.3-1.2-.2-.3-.5-.4-.9-.4s-.9.2-1.1.5c-.3.3-.4.7-.4,1.3v3.1h-.9v-7.6h.9v3c.2-.3.5-.6.8-.7.3-.2.6-.2,1-.2.6,0,1.1.2,1.4.6.3.4.5,1,.5,1.7Z"/>
            <path id="DejaVuSans-61" d="M463.2,370.7c-.7,0-1.2,0-1.5.2s-.4.4-.4.9.1.6.3.8c.2.2.5.3.9.3s.9-.2,1.2-.5.5-.8.5-1.4v-.2h-.9ZM465,370.3v3.1h-.9v-.8c-.2.3-.5.6-.8.7-.3.2-.7.2-1.1.2s-1-.2-1.3-.5c-.3-.3-.5-.7-.5-1.3s.2-1.1.6-1.4c.4-.3,1-.5,1.8-.5h1.3c0-.5-.1-.8-.4-1s-.7-.3-1.1-.3-.6,0-.9.1c-.3,0-.6.2-.9.3v-.8c.3-.1.6-.2,1-.3.3,0,.6,0,.9,0,.8,0,1.4.2,1.8.6.4.4.6,1,.6,1.9Z"/>
            <path id="DejaVuSans-73" d="M470.3,368.1v.9c-.3-.1-.5-.2-.8-.3-.3,0-.6,0-.9,0-.4,0-.8,0-1,.2-.2.1-.3.3-.3.6s0,.4.2.5.5.2,1,.3h.3c.6.2,1.1.4,1.4.6s.4.6.4,1-.2.9-.6,1.2c-.4.3-1,.4-1.7.4s-.6,0-.9,0c-.3,0-.7-.1-1-.3v-.9c.3.2.7.3,1,.4.3,0,.6.1,1,.1s.7,0,1-.2c.2-.1.3-.3.3-.6s0-.4-.2-.6c-.2-.1-.5-.3-1.1-.4h-.3c-.6-.2-1-.4-1.2-.6-.2-.2-.4-.6-.4-1s.2-.9.5-1.2c.4-.3.9-.4,1.6-.4s.6,0,.9,0c.3,0,.6.1.8.2Z"/>
            <path id="DejaVuSans-65" d="M476.7,370.5v.4h-4.1c0,.6.2,1.1.6,1.4.3.3.8.5,1.4.5s.7,0,1-.1.6-.2,1-.4v.9c-.3.1-.7.2-1,.3s-.7.1-1,.1c-.9,0-1.6-.3-2.1-.8-.5-.5-.8-1.2-.8-2.1s.2-1.6.7-2.1c.5-.5,1.1-.8,2-.8s1.3.2,1.7.7c.4.5.6,1.1.6,1.9ZM475.8,370.2c0-.5-.1-.9-.4-1.2-.3-.3-.6-.4-1.1-.4s-.9.1-1.2.4-.5.7-.5,1.2h3.2Z"/>
            <path id="DejaVuSans-20" d="M477.3,373.4"/>
            <path id="DejaVuSans-28" d="M483.6,365.8c-.4.7-.8,1.5-1,2.2-.2.7-.3,1.5-.3,2.2s.1,1.5.3,2.2.5,1.5,1,2.2h-.8c-.5-.8-.9-1.5-1.1-2.3-.2-.7-.4-1.5-.4-2.2s.1-1.5.4-2.2c.2-.7.6-1.5,1.1-2.3h.8Z"/>
            <path id="DejaVuSans-491" data-name="DejaVuSans-49" d="M485.3,366.1h1v7.3h-1v-7.3Z"/>
            <path id="DejaVuSans-29" d="M488.1,365.8h.8c.5.8.9,1.5,1.1,2.3.2.7.4,1.5.4,2.2s-.1,1.5-.4,2.2c-.2.7-.6,1.5-1.1,2.3h-.8c.4-.7.8-1.5,1-2.2.2-.7.3-1.5.3-2.2s-.1-1.5-.3-2.2c-.2-.7-.5-1.5-1-2.2Z"/>
          </g>
        </g>
      </g>
      <g id="matplotlib.axis_2">
        <g id="ytick_1">
          <g id="line2d_15">
            <g class="st24">
              <path class="st2" d="M296.4,345.2h332.6"/>
            </g>
          </g>
          <g id="line2d_16">
            <path id="m75853c5268" class="st7" d="M296.4,345.2h-3.5"/>
          </g>
          <g id="text_9">
            <g>
              <path id="DejaVuSans-22123" data-name="DejaVuSans-2212" d="M266.2,345.4h6.3v.8h-6.3v-.8Z"/>
              <path id="DejaVuSans-314" data-name="DejaVuSans-31" d="M274.7,348.1h1.6v-5.6l-1.8.4v-.9l1.7-.4h1v6.5h1.6v.8h-4.2v-.8Z"/>
              <path id="DejaVuSans-2e7" data-name="DejaVuSans-2e" d="M280.9,347.7h1v1.2h-1v-1.2Z"/>
              <path id="DejaVuSans-354" data-name="DejaVuSans-35" d="M284.1,341.7h3.9v.8h-3v1.8c.1,0,.3,0,.4-.1.1,0,.3,0,.4,0,.8,0,1.5.2,1.9.7.5.4.7,1,.7,1.8s-.2,1.4-.7,1.8c-.5.4-1.2.7-2.1.7s-.6,0-.9,0c-.3,0-.6-.1-1-.2v-1c.3.2.6.3.9.4s.6.1,1,.1c.6,0,1-.1,1.3-.4.3-.3.5-.7.5-1.2s-.2-.9-.5-1.2c-.3-.3-.8-.4-1.3-.4s-.5,0-.8,0c-.3,0-.5.1-.8.3v-3.7Z"/>
            </g>
          </g>
        </g>
        <g id="ytick_2">
          <g id="line2d_17">
            <g class="st13">
              <path class="st2" d="M296.4,289.7h332.6"/>
            </g>
          </g>
          <g id="line2d_18">
            <path id="m75853c52681" data-name="m75853c5268" class="st7" d="M296.4,289.7h-3.5"/>
          </g>
          <g id="text_10">
            <g>
              <path id="DejaVuSans-22124" data-name="DejaVuSans-2212" d="M266.2,290h6.3v.8h-6.3v-.8Z"/>
              <path id="DejaVuSans-315" data-name="DejaVuSans-31" d="M274.7,292.7h1.6v-5.6l-1.8.4v-.9l1.7-.4h1v6.5h1.6v.8h-4.2v-.8Z"/>
              <path id="DejaVuSans-2e8" data-name="DejaVuSans-2e" d="M280.9,292.3h1v1.2h-1v-1.2Z"/>
              <path id="DejaVuSans-306" data-name="DejaVuSans-30" d="M286.2,286.9c-.5,0-.9.3-1.1.8-.3.5-.4,1.3-.4,2.3s.1,1.7.4,2.2c.3.5.6.8,1.1.8s.9-.3,1.2-.8c.3-.5.4-1.2.4-2.2s-.1-1.8-.4-2.3c-.3-.5-.6-.8-1.2-.8ZM286.2,286.1c.8,0,1.4.3,1.9,1,.4.6.6,1.6.6,2.8s-.2,2.2-.6,2.8c-.4.6-1.1,1-1.9,1s-1.4-.3-1.9-1c-.4-.6-.6-1.6-.6-2.8s.2-2.2.6-2.8c.4-.6,1.1-1,1.9-1Z"/>
            </g>
          </g>
        </g>
        <g id="ytick_3">
          <g id="line2d_19">
            <g class="st11">
              <path class="st2" d="M296.4,234.3h332.6"/>
            </g>
          </g>
          <g id="line2d_20">
            <path id="m75853c52682" data-name="m75853c5268" class="st7" d="M296.4,234.3h-3.5"/>
          </g>
          <g id="text_11">
            <g>
              <path id="DejaVuSans-22125" data-name="DejaVuSans-2212" d="M266.2,234.5h6.3v.8h-6.3v-.8Z"/>
              <path id="DejaVuSans-307" data-name="DejaVuSans-30" d="M276.7,231.4c-.5,0-.9.3-1.1.8-.3.5-.4,1.3-.4,2.3s.1,1.7.4,2.2c.3.5.6.8,1.1.8s.9-.3,1.2-.8c.3-.5.4-1.2.4-2.2s-.1-1.8-.4-2.3c-.3-.5-.6-.8-1.2-.8ZM276.7,230.7c.8,0,1.4.3,1.9,1,.4.6.6,1.6.6,2.8s-.2,2.2-.6,2.8c-.4.6-1.1,1-1.9,1s-1.4-.3-1.9-1c-.4-.6-.6-1.6-.6-2.8s.2-2.2.6-2.8c.4-.6,1.1-1,1.9-1Z"/>
              <path id="DejaVuSans-2e9" data-name="DejaVuSans-2e" d="M280.9,236.8h1v1.2h-1v-1.2Z"/>
              <path id="DejaVuSans-355" data-name="DejaVuSans-35" d="M284.1,230.8h3.9v.8h-3v1.8c.1,0,.3,0,.4-.1.1,0,.3,0,.4,0,.8,0,1.5.2,1.9.7.5.4.7,1,.7,1.8s-.2,1.4-.7,1.8c-.5.4-1.2.7-2.1.7s-.6,0-.9,0c-.3,0-.6-.1-1-.2v-1c.3.2.6.3.9.4s.6.1,1,.1c.6,0,1-.1,1.3-.4.3-.3.5-.7.5-1.2s-.2-.9-.5-1.2c-.3-.3-.8-.4-1.3-.4s-.5,0-.8,0c-.3,0-.5.1-.8.3v-3.7Z"/>
            </g>
          </g>
        </g>
        <g id="ytick_4">
          <g id="line2d_21">
            <g class="st17">
              <path class="st2" d="M296.4,178.8h332.6"/>
            </g>
          </g>
          <g id="line2d_22">
            <path id="m75853c52683" data-name="m75853c5268" class="st7" d="M296.4,178.8h-3.5"/>
          </g>
          <g id="text_12">
            <g>
              <path id="DejaVuSans-308" data-name="DejaVuSans-30" d="M276.7,176c-.5,0-.9.3-1.1.8-.3.5-.4,1.3-.4,2.3s.1,1.7.4,2.2c.3.5.6.8,1.1.8s.9-.3,1.2-.8c.3-.5.4-1.2.4-2.2s-.1-1.8-.4-2.3c-.3-.5-.6-.8-1.2-.8ZM276.7,175.2c.8,0,1.4.3,1.9,1,.4.6.6,1.6.6,2.8s-.2,2.2-.6,2.8c-.4.6-1.1,1-1.9,1s-1.4-.3-1.9-1c-.4-.6-.6-1.6-.6-2.8s.2-2.2.6-2.8c.4-.6,1.1-1,1.9-1Z"/>
              <path id="DejaVuSans-2e10" data-name="DejaVuSans-2e" d="M280.9,181.4h1v1.2h-1v-1.2Z"/>
              <path id="DejaVuSans-309" data-name="DejaVuSans-30" d="M286.2,176c-.5,0-.9.3-1.1.8-.3.5-.4,1.3-.4,2.3s.1,1.7.4,2.2c.3.5.6.8,1.1.8s.9-.3,1.2-.8c.3-.5.4-1.2.4-2.2s-.1-1.8-.4-2.3c-.3-.5-.6-.8-1.2-.8ZM286.2,175.2c.8,0,1.4.3,1.9,1,.4.6.6,1.6.6,2.8s-.2,2.2-.6,2.8c-.4.6-1.1,1-1.9,1s-1.4-.3-1.9-1c-.4-.6-.6-1.6-.6-2.8s.2-2.2.6-2.8c.4-.6,1.1-1,1.9-1Z"/>
            </g>
          </g>
        </g>
        <g id="ytick_5">
          <g id="line2d_23">
            <g class="st15">
              <path class="st2" d="M296.4,123.4h332.6"/>
            </g>
          </g>
          <g id="line2d_24">
            <path id="m75853c52684" data-name="m75853c5268" class="st7" d="M296.4,123.4h-3.5"/>
          </g>
          <g id="text_13">
            <g>
              <path id="DejaVuSans-3010" data-name="DejaVuSans-30" d="M276.7,120.6c-.5,0-.9.3-1.1.8-.3.5-.4,1.3-.4,2.3s.1,1.7.4,2.2c.3.5.6.8,1.1.8s.9-.3,1.2-.8c.3-.5.4-1.2.4-2.2s-.1-1.8-.4-2.3c-.3-.5-.6-.8-1.2-.8ZM276.7,119.8c.8,0,1.4.3,1.9,1,.4.6.6,1.6.6,2.8s-.2,2.2-.6,2.8c-.4.6-1.1,1-1.9,1s-1.4-.3-1.9-1c-.4-.6-.6-1.6-.6-2.8s.2-2.2.6-2.8c.4-.6,1.1-1,1.9-1Z"/>
              <path id="DejaVuSans-2e11" data-name="DejaVuSans-2e" d="M280.9,126h1v1.2h-1v-1.2Z"/>
              <path id="DejaVuSans-356" data-name="DejaVuSans-35" d="M284.1,119.9h3.9v.8h-3v1.8c.1,0,.3,0,.4-.1.1,0,.3,0,.4,0,.8,0,1.5.2,1.9.7.5.4.7,1,.7,1.8s-.2,1.4-.7,1.8c-.5.4-1.2.7-2.1.7s-.6,0-.9,0c-.3,0-.6-.1-1-.2v-1c.3.2.6.3.9.4s.6.1,1,.1c.6,0,1-.1,1.3-.4.3-.3.5-.7.5-1.2s-.2-.9-.5-1.2c-.3-.3-.8-.4-1.3-.4s-.5,0-.8,0c-.3,0-.5.1-.8.3v-3.7Z"/>
            </g>
          </g>
        </g>
        <g id="ytick_6">
          <g id="line2d_25">
            <g class="st16">
              <path class="st2" d="M296.4,68h332.6"/>
            </g>
          </g>
          <g id="line2d_26">
            <path id="m75853c52685" data-name="m75853c5268" class="st7" d="M296.4,68h-3.5"/>
          </g>
          <g id="text_14">
            <g>
              <path id="DejaVuSans-316" data-name="DejaVuSans-31" d="M274.7,70.9h1.6v-5.6l-1.8.4v-.9l1.7-.4h1v6.5h1.6v.8h-4.2v-.8Z"/>
              <path id="DejaVuSans-2e12" data-name="DejaVuSans-2e" d="M280.9,70.5h1v1.2h-1v-1.2Z"/>
              <path id="DejaVuSans-3011" data-name="DejaVuSans-30" d="M286.2,65.1c-.5,0-.9.3-1.1.8-.3.5-.4,1.3-.4,2.3s.1,1.7.4,2.2c.3.5.6.8,1.1.8s.9-.3,1.2-.8c.3-.5.4-1.2.4-2.2s-.1-1.8-.4-2.3c-.3-.5-.6-.8-1.2-.8ZM286.2,64.3c.8,0,1.4.3,1.9,1,.4.6.6,1.6.6,2.8s-.2,2.2-.6,2.8c-.4.6-1.1,1-1.9,1s-1.4-.3-1.9-1c-.4-.6-.6-1.6-.6-2.8s.2-2.2.6-2.8c.4-.6,1.1-1,1.9-1Z"/>
            </g>
          </g>
        </g>
        <g id="ytick_7">
          <g id="line2d_27">
            <g class="st14">
              <path class="st2" d="M296.4,12.5h332.6"/>
            </g>
          </g>
          <g id="line2d_28">
            <path id="m75853c52686" data-name="m75853c5268" class="st7" d="M296.4,12.5h-3.5"/>
          </g>
          <g id="text_15">
            <g>
              <path id="DejaVuSans-317" data-name="DejaVuSans-31" d="M274.7,15.5h1.6v-5.6l-1.8.4v-.9l1.7-.4h1v6.5h1.6v.8h-4.2v-.8Z"/>
              <path id="DejaVuSans-2e13" data-name="DejaVuSans-2e" d="M280.9,15.1h1v1.2h-1v-1.2Z"/>
              <path id="DejaVuSans-357" data-name="DejaVuSans-35" d="M284.1,9h3.9v.8h-3v1.8c.1,0,.3,0,.4-.1.1,0,.3,0,.4,0,.8,0,1.5.2,1.9.7.5.4.7,1,.7,1.8s-.2,1.4-.7,1.8c-.5.4-1.2.7-2.1.7s-.6,0-.9,0c-.3,0-.6-.1-1-.2v-1c.3.2.6.3.9.4s.6.1,1,.1c.6,0,1-.1,1.3-.4.3-.3.5-.7.5-1.2s-.2-.9-.5-1.2c-.3-.3-.8-.4-1.3-.4s-.5,0-.8,0c-.3,0-.5.1-.8.3v-3.7Z"/>
            </g>
          </g>
        </g>
        <g id="text_16">
          <g>
            <path id="DejaVuSans-51" d="M252.4,212.9c0,.7.3,1.3.8,1.7.5.4,1.3.6,2.2.6s1.6-.2,2.2-.6c.5-.4.8-1,.8-1.7s-.3-1.3-.8-1.7c-.5-.4-1.3-.6-2.2-.6s-1.6.2-2.2.6c-.5.4-.8,1-.8,1.7ZM258.9,211.6l1.4-1.3v1.2l-1.2,1.1c0,.1,0,.2,0,.2,0,0,0,.1,0,.2,0,1-.3,1.8-1,2.5-.7.6-1.6.9-2.8.9s-2.1-.3-2.8-.9c-.7-.6-1-1.4-1-2.5s.3-1.8,1-2.5c.7-.6,1.6-.9,2.8-.9s1.6.2,2.2.5c.6.3,1,.8,1.3,1.5Z"/>
            <path id="DejaVuSans-75" d="M256.9,208.2h-3.3v-.9h3.3c.5,0,.9-.1,1.2-.3.3-.2.4-.5.4-.9s-.2-.9-.5-1.1c-.3-.3-.7-.4-1.3-.4h-3.1v-.9h5.5v.9h-.8c.3.2.6.5.7.8.2.3.2.6.2,1,0,.6-.2,1.1-.6,1.4-.4.3-1,.5-1.7.5ZM253.4,205.9h0Z"/>
            <path id="DejaVuSans-611" data-name="DejaVuSans-61" d="M256.3,199.2c0,.7,0,1.2.2,1.5s.4.4.9.4.6-.1.8-.3c.2-.2.3-.5.3-.9s-.2-.9-.5-1.2-.8-.5-1.4-.5h-.2v.9ZM255.9,197.4h3.1v.9h-.8c.3.2.6.5.7.8.2.3.2.7.2,1.1s-.2,1-.5,1.3c-.3.3-.7.5-1.3.5s-1.1-.2-1.4-.6c-.3-.4-.5-1-.5-1.8v-1.3h0c-.4,0-.7.1-1,.4s-.3.7-.3,1.1,0,.6.1.9c0,.3.2.6.3.9h-.8c-.1-.3-.2-.6-.3-1,0-.3,0-.6,0-.9,0-.8.2-1.4.6-1.8.4-.4,1-.6,1.9-.6Z"/>
            <path id="DejaVuSans-64" d="M254.4,192h-3v-.9h7.6v.9h-.8c.3.2.6.4.7.7.2.3.2.6.2,1,0,.7-.3,1.2-.8,1.6-.5.4-1.2.6-2.1.6s-1.6-.2-2.1-.6c-.5-.4-.8-1-.8-1.6s0-.8.2-1c.2-.3.4-.5.7-.7ZM256.3,195.1c.7,0,1.2-.1,1.6-.4.4-.3.6-.6.6-1.1s-.2-.8-.6-1.1c-.4-.3-.9-.4-1.6-.4s-1.2.1-1.6.4c-.4.3-.6.6-.6,1.1s.2.8.6,1.1.9.4,1.6.4Z"/>
            <path id="DejaVuSans-72" d="M254.4,186.1c0,.1-.1.2-.1.3,0,.1,0,.2,0,.4,0,.5.2.9.5,1.2s.8.4,1.4.4h2.9v.9h-5.5v-.9h.9c-.3-.2-.6-.4-.7-.7-.2-.3-.2-.7-.2-1.1s0-.1,0-.2c0,0,0-.2,0-.2h.9Z"/>
            <path id="DejaVuSans-612" data-name="DejaVuSans-61" d="M256.3,182.7c0,.7,0,1.2.2,1.5s.4.4.9.4.6-.1.8-.3c.2-.2.3-.5.3-.9s-.2-.9-.5-1.2-.8-.5-1.4-.5h-.2v.9ZM255.9,180.9h3.1v.9h-.8c.3.2.6.5.7.8.2.3.2.7.2,1.1s-.2,1-.5,1.3c-.3.3-.7.5-1.3.5s-1.1-.2-1.4-.6c-.3-.4-.5-1-.5-1.8v-1.3h0c-.4,0-.7.1-1,.4s-.3.7-.3,1.1,0,.6.1.9c0,.3.2.6.3.9h-.8c-.1-.3-.2-.6-.3-1,0-.3,0-.6,0-.9,0-.8.2-1.4.6-1.8.4-.4,1-.6,1.9-.6Z"/>
            <path id="DejaVuSans-74" d="M252,178.1h1.6v-1.9h.7v1.9h3c.4,0,.7,0,.9-.2s.2-.4.2-.7v-.9h.8v.9c0,.7-.1,1.2-.4,1.4-.3.3-.7.4-1.4.4h-3v.7h-.7v-.7h-1.6v-.9Z"/>
            <path id="DejaVuSans-751" data-name="DejaVuSans-75" d="M256.9,175.2h-3.3v-.9h3.3c.5,0,.9-.1,1.2-.3.3-.2.4-.5.4-.9s-.2-.9-.5-1.1c-.3-.3-.7-.4-1.3-.4h-3.1v-.9h5.5v.9h-.8c.3.2.6.5.7.8.2.3.2.6.2,1,0,.6-.2,1.1-.6,1.4-.4.3-1,.5-1.7.5ZM253.4,172.9h0Z"/>
            <path id="DejaVuSans-721" data-name="DejaVuSans-72" d="M254.4,165.6c0,.1-.1.2-.1.3,0,.1,0,.2,0,.4,0,.5.2.9.5,1.2s.8.4,1.4.4h2.9v.9h-5.5v-.9h.9c-.3-.2-.6-.4-.7-.7-.2-.3-.2-.7-.2-1.1s0-.1,0-.2c0,0,0-.2,0-.2h.9Z"/>
            <path id="DejaVuSans-651" data-name="DejaVuSans-65" d="M256.1,160.2h.4v4.1c.6,0,1.1-.2,1.4-.6.3-.3.5-.8.5-1.4s0-.7-.1-1-.2-.6-.4-1h.9c.1.3.2.7.3,1s.1.7.1,1c0,.9-.3,1.6-.8,2.1-.5.5-1.2.8-2.1.8s-1.6-.2-2.1-.7c-.5-.5-.8-1.1-.8-2s.2-1.3.7-1.7c.5-.4,1.1-.6,1.9-.6ZM255.8,161.1c-.5,0-.9.1-1.2.4-.3.3-.4.6-.4,1.1s.1.9.4,1.2.7.5,1.2.5v-3.2Z"/>
            <path id="DejaVuSans-201" data-name="DejaVuSans-20" d="M259,159.7"/>
            <path id="DejaVuSans-281" data-name="DejaVuSans-28" d="M251.4,153.4c.7.4,1.5.8,2.2,1,.7.2,1.5.3,2.2.3s1.5-.1,2.2-.3,1.5-.5,2.2-1v.8c-.8.5-1.5.9-2.3,1.1-.7.2-1.5.4-2.2.4s-1.5-.1-2.2-.4c-.7-.2-1.5-.6-2.3-1.1v-.8Z"/>
            <path id="DejaVuSans-511" data-name="DejaVuSans-51" d="M252.4,148.6c0,.7.3,1.3.8,1.7.5.4,1.3.6,2.2.6s1.6-.2,2.2-.6c.5-.4.8-1,.8-1.7s-.3-1.3-.8-1.7c-.5-.4-1.3-.6-2.2-.6s-1.6.2-2.2.6c-.5.4-.8,1-.8,1.7ZM258.9,147.3l1.4-1.3v1.2l-1.2,1.1c0,.1,0,.2,0,.2,0,0,0,.1,0,.2,0,1-.3,1.8-1,2.5-.7.6-1.6.9-2.8.9s-2.1-.3-2.8-.9c-.7-.6-1-1.4-1-2.5s.3-1.8,1-2.5c.7-.6,1.6-.9,2.8-.9s1.6.2,2.2.5c.6.3,1,.8,1.3,1.5Z"/>
            <path id="DejaVuSans-291" data-name="DejaVuSans-29" d="M251.4,143.9v-.8c.8-.5,1.5-.9,2.3-1.1.7-.2,1.5-.4,2.2-.4s1.5.1,2.2.4c.7.2,1.5.6,2.3,1.1v.8c-.7-.4-1.5-.8-2.2-1-.7-.2-1.5-.3-2.2-.3s-1.5.1-2.2.3c-.7.2-1.5.5-2.2,1Z"/>
          </g>
        </g>
      </g>
      <g id="line2d_29">
        <g class="st12">
          <path class="st4" d="M573.6,178.8v-5.2c-.1,0-.5-5.2-.5-5.2l-.6-5.2-.9-5.2-1.1-5.1-1.3-5.1-1.6-5-1.8-4.9-2-4.8-2.3-4.7-2.5-4.6-2.7-4.5-2.9-4.4-3.1-4.2-3.3-4.1-3.5-3.9-3.7-3.7-3.9-3.5-4-3.4-4.2-3.2-4.3-3-4.5-2.8-4.6-2.5-4.7-2.3-4.8-2.1-4.9-1.9-5-1.6-5-1.4-5.1-1.2-5.2-.9-5.2-.7-5.2-.4-5.2-.2h-5.2c0,0-5.2.4-5.2.4l-5.2.6-5.2.8-5.1,1-5.1,1.3-5,1.5-4.9,1.8-4.8,2-4.7,2.2-4.6,2.4-4.5,2.7-4.4,2.9-4.2,3.1-4.1,3.3-3.9,3.5-3.8,3.6-3.6,3.8-3.4,4-3.2,4.1-3,4.3-2.8,4.4-2.6,4.5-2.4,4.7-2.2,4.8-1.9,4.9-1.7,5-1.5,5-1.2,5.1-1,5.1-.7,5.2-.5,5.2-.2,5.2v5.2l.2,5.2.5,5.2.7,5.2,1,5.1,1.2,5.1,1.5,5,1.7,5,1.9,4.9,2.2,4.8,2.4,4.7,2.6,4.5,2.8,4.4,3,4.3,3.2,4.1,3.4,4,3.6,3.8,3.8,3.6,3.9,3.5,4.1,3.3,4.2,3.1,4.4,2.9,4.5,2.7,4.6,2.4,4.7,2.2,4.8,2,4.9,1.8,5,1.5,5.1,1.3,5.1,1,5.2.8,5.2.6,5.2.3h5.2c0,0,5.2-.1,5.2-.1l5.2-.4,5.2-.7,5.2-.9,5.1-1.2,5-1.4,5-1.6,4.9-1.9,4.8-2.1,4.7-2.3,4.6-2.5,4.5-2.8,4.3-3,4.2-3.2,4-3.4,3.9-3.5,3.7-3.7,3.5-3.9,3.3-4.1,3.1-4.2,2.9-4.4,2.7-4.5,2.5-4.6,2.3-4.7,2-4.8,1.8-4.9,1.6-5,1.3-5.1,1.1-5.1.9-5.2.6-5.2.4-5.2v-5.2h.1"/>
        </g>
      </g>
      <g id="patch_3">
        <path class="st3" d="M296.4,345.2V12.5"/>
      </g>
      <g id="patch_4">
        <path class="st3" d="M629,345.2V12.5"/>
      </g>
      <g id="patch_5">
        <path class="st3" d="M296.4,345.2h332.6"/>
      </g>
      <g id="patch_6">
        <path class="st3" d="M296.4,12.5h332.6"/>
      </g>
      <g id="text_17">
        <g>
          <path id="DejaVuSans-3012" data-name="DejaVuSans-30" d="M549,84c-.6,0-1.1.3-1.4.9-.3.6-.5,1.5-.5,2.7s.2,2.1.5,2.7c.3.6.8.9,1.4.9s1.1-.3,1.4-.9c.3-.6.5-1.5.5-2.7s-.2-2.1-.5-2.7c-.3-.6-.8-.9-1.4-.9ZM549,83.1c1,0,1.7.4,2.2,1.2.5.8.8,1.9.8,3.4s-.3,2.6-.8,3.4c-.5.8-1.3,1.2-2.2,1.2s-1.7-.4-2.2-1.2c-.5-.8-.8-1.9-.8-3.4s.3-2.6.8-3.4c.5-.8,1.3-1.2,2.2-1.2Z"/>
          <path id="DejaVuSans-3013" data-name="DejaVuSans-30" d="M556.7,84c-.6,0-1.1.3-1.4.9-.3.6-.5,1.5-.5,2.7s.2,2.1.5,2.7c.3.6.8.9,1.4.9s1.1-.3,1.4-.9c.3-.6.5-1.5.5-2.7s-.2-2.1-.5-2.7c-.3-.6-.8-.9-1.4-.9ZM556.7,83.1c1,0,1.7.4,2.2,1.2.5.8.8,1.9.8,3.4s-.3,2.6-.8,3.4c-.5.8-1.3,1.2-2.2,1.2s-1.7-.4-2.2-1.2c-.5-.8-.8-1.9-.8-3.4s.3-2.6.8-3.4c.5-.8,1.3-1.2,2.2-1.2Z"/>
        </g>
      </g>
      <g id="text_18">
        <g>
          <path id="DejaVuSans-3014" data-name="DejaVuSans-30" d="M368.7,84c-.6,0-1.1.3-1.4.9-.3.6-.5,1.5-.5,2.7s.2,2.1.5,2.7c.3.6.8.9,1.4.9s1.1-.3,1.4-.9c.3-.6.5-1.5.5-2.7s-.2-2.1-.5-2.7c-.3-.6-.8-.9-1.4-.9ZM368.7,83.1c1,0,1.7.4,2.2,1.2.5.8.8,1.9.8,3.4s-.3,2.6-.8,3.4c-.5.8-1.3,1.2-2.2,1.2s-1.7-.4-2.2-1.2c-.5-.8-.8-1.9-.8-3.4s.3-2.6.8-3.4c.5-.8,1.3-1.2,2.2-1.2Z"/>
          <path id="DejaVuSans-318" data-name="DejaVuSans-31" d="M374,91h1.9v-6.7l-2.1.4v-1.1l2.1-.4h1.2v7.8h1.9v1h-5v-1Z"/>
        </g>
      </g>
      <g id="text_19">
        <g>
          <path id="DejaVuSans-319" data-name="DejaVuSans-31" d="M366.4,271.3h1.9v-6.7l-2.1.4v-1.1l2.1-.4h1.2v7.8h1.9v1h-5v-1Z"/>
          <path id="DejaVuSans-3110" data-name="DejaVuSans-31" d="M374,271.3h1.9v-6.7l-2.1.4v-1.1l2.1-.4h1.2v7.8h1.9v1h-5v-1Z"/>
        </g>
      </g>
      <g id="text_20">
        <g>
          <path id="DejaVuSans-3111" data-name="DejaVuSans-31" d="M546.7,271.3h1.9v-6.7l-2.1.4v-1.1l2.1-.4h1.2v7.8h1.9v1h-5v-1Z"/>
          <path id="DejaVuSans-3015" data-name="DejaVuSans-30" d="M556.7,264.3c-.6,0-1.1.3-1.4.9-.3.6-.5,1.5-.5,2.7s.2,2.1.5,2.7c.3.6.8.9,1.4.9s1.1-.3,1.4-.9c.3-.6.5-1.5.5-2.7s-.2-2.1-.5-2.7c-.3-.6-.8-.9-1.4-.9ZM556.7,263.4c1,0,1.7.4,2.2,1.2.5.8.8,1.9.8,3.4s-.3,2.6-.8,3.4c-.5.8-1.3,1.2-2.2,1.2s-1.7-.4-2.2-1.2c-.5-.8-.8-1.9-.8-3.4s.3-2.6.8-3.4c.5-.8,1.3-1.2,2.2-1.2Z"/>
        </g>
      </g>
      <g id="text_21">
        <g>
          <path id="DejaVuSans-4f" class="st10" d="M451.5,163.9c-.7,0-1.3.3-1.7.8-.4.5-.6,1.3-.6,2.2s.2,1.6.6,2.2c.4.5,1,.8,1.7.8s1.3-.3,1.7-.8c.4-.5.6-1.3.6-2.2s-.2-1.6-.6-2.2c-.4-.5-1-.8-1.7-.8ZM451.5,163.1c1,0,1.8.3,2.5,1,.6.7.9,1.6.9,2.8s-.3,2.1-.9,2.8c-.6.7-1.4,1-2.5,1s-1.8-.3-2.5-1c-.6-.7-.9-1.6-.9-2.8s.3-2.1.9-2.8c.6-.7,1.4-1,2.5-1Z"/>
          <path id="DejaVuSans-722" data-name="DejaVuSans-72" class="st10" d="M459.6,165.9c-.1,0-.2-.1-.3-.1-.1,0-.2,0-.4,0-.5,0-.9.2-1.2.5s-.4.8-.4,1.4v2.9h-.9v-5.5h.9v.9c.2-.3.4-.6.7-.7.3-.2.7-.2,1.1-.2s.1,0,.2,0c0,0,.2,0,.2,0v.9Z"/>
          <path id="DejaVuSans-69" class="st10" d="M460.5,165h.9v5.5h-.9v-5.5ZM460.5,162.9h.9v1.1h-.9v-1.1Z"/>
          <path id="DejaVuSans-67" class="st10" d="M466.9,167.7c0-.7-.1-1.2-.4-1.5-.3-.4-.6-.5-1.1-.5s-.9.2-1.1.5c-.3.4-.4.9-.4,1.5s.1,1.2.4,1.5c.3.4.6.5,1.1.5s.9-.2,1.1-.5c.3-.4.4-.9.4-1.5ZM467.8,169.8c0,.9-.2,1.6-.6,2.1-.4.5-1,.7-1.9.7s-.6,0-.9,0-.6-.1-.8-.2v-.9c.3.1.5.2.8.3.3,0,.5.1.8.1.6,0,1-.2,1.3-.5.3-.3.4-.8.4-1.4v-.4c-.2.3-.4.6-.7.7s-.6.2-1,.2c-.7,0-1.2-.3-1.6-.8-.4-.5-.6-1.2-.6-2s.2-1.5.6-2c.4-.5,1-.8,1.6-.8s.8,0,1,.2.5.4.7.7v-.8h.9v4.8Z"/>
          <path id="DejaVuSans-691" data-name="DejaVuSans-69" class="st10" d="M469.6,165h.9v5.5h-.9v-5.5ZM469.6,162.9h.9v1.1h-.9v-1.1Z"/>
          <path id="DejaVuSans-6e1" data-name="DejaVuSans-6e" class="st10" d="M477,167.2v3.3h-.9v-3.3c0-.5-.1-.9-.3-1.2-.2-.3-.5-.4-.9-.4s-.9.2-1.1.5c-.3.3-.4.7-.4,1.3v3.1h-.9v-5.5h.9v.9c.2-.3.5-.6.8-.7.3-.2.6-.2,1-.2.6,0,1.1.2,1.4.6.3.4.5,1,.5,1.7Z"/>
        </g>
      </g>
      <g id="patch_7">
        <path class="st1" d="M539.2,99.7c-51-19.9-101.5-20.1-151.5-.6"/>
        <path class="st1" d="M392.2,99.5l-4.5-.4,3-3.3"/>
      </g>
      <g id="patch_8">
        <path class="st1" d="M383.6,102.3c-19.9,51-20.1,101.5-.6,151.5"/>
        <path class="st1" d="M383.4,249.4l-.4,4.5-3.3-3"/>
      </g>
      <g id="patch_9">
        <path class="st1" d="M386.2,258c51,19.9,101.5,20.1,151.5.6"/>
        <path class="st1" d="M533.2,258.2l4.5.4-3,3.3"/>
      </g>
      <g id="patch_10">
        <path class="st1" d="M541.8,255.4c19.9-51,20.1-101.5.6-151.5"/>
        <path class="st1" d="M542,108.3l.4-4.5,3.3,3"/>
      </g>
      <g id="legend_1">
        <g id="patch_11">
          <path class="st8" d="M520.5,35.2h101.5c1.3,0,2-.7,2-2v-13.7c0-1.3-.7-2-2-2h-101.5c-1.3,0-2,.7-2,2v13.7c0,1.3.7,2,2,2Z"/>
        </g>
        <g id="PathCollection_3">
          <path id="m60667e214a4" data-name="m60667e214a" class="st5" d="M532.5,32.6c1.6,0,3.2-.6,4.3-1.8,1.1-1.1,1.8-2.7,1.8-4.3s-.6-3.2-1.8-4.3c-1.1-1.1-2.7-1.8-4.3-1.8s-3.2.6-4.3,1.8c-1.1,1.1-1.8,2.7-1.8,4.3s.6,3.2,1.8,4.3c1.1,1.1,2.7,1.8,4.3,1.8Z"/>
        </g>
        <g id="text_22">
          <g>
            <path id="DejaVuSans-4f1" data-name="DejaVuSans-4f" d="M554.4,22.5c-.7,0-1.3.3-1.7.8-.4.5-.6,1.3-.6,2.2s.2,1.6.6,2.2c.4.5,1,.8,1.7.8s1.3-.3,1.7-.8c.4-.5.6-1.3.6-2.2s-.2-1.6-.6-2.2c-.4-.5-1-.8-1.7-.8ZM554.4,21.7c1,0,1.8.3,2.5,1,.6.7.9,1.6.9,2.8s-.3,2.1-.9,2.8c-.6.7-1.4,1-2.5,1s-1.8-.3-2.5-1c-.6-.7-.9-1.6-.9-2.8s.3-2.1.9-2.8c.6-.7,1.4-1,2.5-1Z"/>
            <path id="DejaVuSans-512" data-name="DejaVuSans-51" d="M562.3,22.5c-.7,0-1.3.3-1.7.8-.4.5-.6,1.3-.6,2.2s.2,1.6.6,2.2c.4.5,1,.8,1.7.8s1.3-.3,1.7-.8c.4-.5.6-1.3.6-2.2s-.2-1.6-.6-2.2c-.4-.5-1-.8-1.7-.8ZM563.7,29l1.3,1.4h-1.2l-1.1-1.2c-.1,0-.2,0-.2,0,0,0-.1,0-.2,0-1,0-1.8-.3-2.5-1-.6-.7-.9-1.6-.9-2.8s.3-2.1.9-2.8c.6-.7,1.4-1,2.5-1s1.8.3,2.5,1c.6.7.9,1.6.9,2.8s-.2,1.6-.5,2.2c-.3.6-.8,1-1.5,1.3Z"/>
            <path id="DejaVuSans-50" d="M568.2,22.6v2.7h1.2c.5,0,.8-.1,1.1-.4.3-.2.4-.6.4-1s-.1-.8-.4-1c-.3-.2-.6-.4-1.1-.4h-1.2ZM567.2,21.8h2.2c.8,0,1.4.2,1.9.6.4.4.6.9.6,1.6s-.2,1.3-.6,1.6c-.4.4-1,.6-1.9.6h-1.2v2.9h-1v-7.3Z"/>
            <path id="DejaVuSans-53" d="M577.6,22.1v1c-.4-.2-.7-.3-1.1-.4-.3,0-.7-.1-1-.1-.5,0-1,.1-1.2.3-.3.2-.4.5-.4.9s0,.6.3.7c.2.2.6.3,1.1.4h.6c.7.3,1.3.5,1.6.9s.5.8.5,1.4-.2,1.2-.7,1.6c-.5.4-1.2.5-2.1.5s-.7,0-1.1-.1c-.4,0-.8-.2-1.2-.3v-1c.4.2.8.4,1.2.5.4.1.8.2,1.1.2.6,0,1-.1,1.3-.3.3-.2.5-.5.5-.9s-.1-.6-.3-.8-.6-.4-1.1-.5h-.6c-.7-.3-1.3-.5-1.6-.8-.3-.3-.5-.7-.5-1.3s.2-1.2.7-1.5c.5-.4,1.1-.6,1.9-.6s.7,0,1,0c.4,0,.7.2,1.1.3Z"/>
            <path id="DejaVuSans-4b" d="M579.6,21.8h1v3.1l3.3-3.1h1.3l-3.6,3.4,3.9,3.9h-1.3l-3.5-3.5v3.5h-1v-7.3Z"/>
            <path id="DejaVuSans-202" data-name="DejaVuSans-20" d="M585.2,29.1"/>
            <path id="DejaVuSans-531" data-name="DejaVuSans-53" d="M593.7,22.1v1c-.4-.2-.7-.3-1.1-.4-.3,0-.7-.1-1-.1-.5,0-1,.1-1.2.3-.3.2-.4.5-.4.9s0,.6.3.7c.2.2.6.3,1.1.4h.6c.7.3,1.3.5,1.6.9s.5.8.5,1.4-.2,1.2-.7,1.6c-.5.4-1.2.5-2.1.5s-.7,0-1.1-.1c-.4,0-.8-.2-1.2-.3v-1c.4.2.8.4,1.2.5.4.1.8.2,1.1.2.6,0,1-.1,1.3-.3.3-.2.5-.5.5-.9s-.1-.6-.3-.8-.6-.4-1.1-.5h-.6c-.7-.3-1.3-.5-1.6-.8-.3-.3-.5-.7-.5-1.3s.2-1.2.7-1.5c.5-.4,1.1-.6,1.9-.6s.7,0,1,0c.4,0,.7.2,1.1.3Z"/>
            <path id="DejaVuSans-741" data-name="DejaVuSans-74" d="M596.5,22.1v1.6h1.9v.7h-1.9v3c0,.4,0,.7.2.9s.4.2.7.2h.9v.8h-.9c-.7,0-1.2-.1-1.4-.4-.3-.3-.4-.7-.4-1.4v-3h-.7v-.7h.7v-1.6h.9Z"/>
            <path id="DejaVuSans-613" data-name="DejaVuSans-61" d="M602,26.4c-.7,0-1.2,0-1.5.2s-.4.4-.4.9.1.6.3.8c.2.2.5.3.9.3s.9-.2,1.2-.5.5-.8.5-1.4v-.2h-.9ZM603.8,26v3.1h-.9v-.8c-.2.3-.5.6-.8.7-.3.2-.7.2-1.1.2s-1-.2-1.3-.5c-.3-.3-.5-.7-.5-1.3s.2-1.1.6-1.4c.4-.3,1-.5,1.8-.5h1.3c0-.5-.1-.8-.4-1s-.7-.3-1.1-.3-.6,0-.9.1c-.3,0-.6.2-.9.3v-.8c.3-.1.6-.2,1-.3.3,0,.6,0,.9,0,.8,0,1.4.2,1.8.6.4.4.6,1,.6,1.9Z"/>
            <path id="DejaVuSans-742" data-name="DejaVuSans-74" d="M606.6,22.1v1.6h1.9v.7h-1.9v3c0,.4,0,.7.2.9s.4.2.7.2h.9v.8h-.9c-.7,0-1.2-.1-1.4-.4-.3-.3-.4-.7-.4-1.4v-3h-.7v-.7h.7v-1.6h.9Z"/>
            <path id="DejaVuSans-652" data-name="DejaVuSans-65" d="M614.3,26.2v.4h-4.1c0,.6.2,1.1.6,1.4.3.3.8.5,1.4.5s.7,0,1-.1.6-.2,1-.4v.9c-.3.1-.7.2-1,.3s-.7.1-1,.1c-.9,0-1.6-.3-2.1-.8-.5-.5-.8-1.2-.8-2.1s.2-1.6.7-2.1c.5-.5,1.1-.8,2-.8s1.3.2,1.7.7c.4.5.6,1.1.6,1.9ZM613.4,25.9c0-.5-.1-.9-.4-1.2-.3-.3-.6-.4-1.1-.4s-.9.1-1.2.4-.5.7-.5,1.2h3.2Z"/>
            <path id="DejaVuSans-731" data-name="DejaVuSans-73" d="M619.2,23.8v.9c-.3-.1-.5-.2-.8-.3-.3,0-.6,0-.9,0-.4,0-.8,0-1,.2-.2.1-.3.3-.3.6s0,.4.2.5.5.2,1,.3h.3c.6.2,1.1.4,1.4.6s.4.6.4,1-.2.9-.6,1.2c-.4.3-1,.4-1.7.4s-.6,0-.9,0c-.3,0-.7-.1-1-.3v-.9c.3.2.7.3,1,.4.3,0,.6.1,1,.1s.7,0,1-.2c.2-.1.3-.3.3-.6s0-.4-.2-.6c-.2-.1-.5-.3-1.1-.4h-.3c-.6-.2-1-.4-1.2-.6-.2-.2-.4-.6-.4-1s.2-.9.5-1.2c.4-.3.9-.4,1.6-.4s.6,0,.9,0c.3,0,.6.1.8.2Z"/>
          </g>
        </g>
      </g>
    </g>
  </g>
</svg>