<?xml version="1.0" encoding="UTF-8"?>
<svg id="Ebene_1" xmlns="http://www.w3.org/2000/svg" xmlns:xlink="http://www.w3.org/1999/xlink" version="1.1" viewBox="0 0 1510.2 1080">
  <!-- Generator: Adobe Illustrator 29.4.0, SVG Export Plug-In . SVG Version: 2.1.0 Build 152)  -->
  <defs>
    <style>
      .st0 {
        fill: none;
      }

      .st1 {
        font-family: Times-Roman, Times;
        font-size: 24.6px;
      }

      .st2 {
        fill: #fff;
        font-family: HelveticaNeue-Medium, 'Helvetica Neue';
        font-size: 32px;
        font-weight: 500;
      }

      .st3 {
        font-family: HelveticaNeue, 'Helvetica Neue';
      }

      .st3, .st4 {
        font-size: 20px;
      }

      .st5 {
        clip-path: url(#clippath-1);
      }

      .st6 {
        clip-path: url(#clippath-3);
      }

      .st7 {
        clip-path: url(#clippath-4);
      }

      .st8 {
        clip-path: url(#clippath-2);
      }

      .st9 {
        clip-path: url(#clippath-7);
      }

      .st10 {
        clip-path: url(#clippath-6);
      }

      .st11 {
        clip-path: url(#clippath-8);
      }

      .st12 {
        clip-path: url(#clippath-5);
      }

      .st13 {
        letter-spacing: 0em;
      }

      .st14 {
        letter-spacing: -.1em;
      }

      .st15 {
        letter-spacing: 0em;
      }

      .st16 {
        letter-spacing: 0em;
      }

      .st17 {
        letter-spacing: -.2em;
      }

      .st18 {
        letter-spacing: -.2em;
      }

      .st19 {
        letter-spacing: -.1em;
      }

      .st20 {
        letter-spacing: 0em;
      }

      .st21 {
        letter-spacing: 0em;
      }

      .st22 {
        letter-spacing: 0em;
      }

      .st23 {
        letter-spacing: 0em;
      }

      .st24 {
        letter-spacing: 0em;
      }

      .st25 {
        letter-spacing: 0em;
      }

      .st26 {
        fill: #4cacbc;
      }

      .st27 {
        clip-path: url(#clippath);
      }

      .st4 {
        font-family: HelveticaNeue-Bold, 'Helvetica Neue';
        font-weight: 700;
      }
    </style>
    <clipPath id="clippath">
      <rect class="st0" x="-230.2" width="1920" height="1080"/>
    </clipPath>
    <clipPath id="clippath-1">
      <rect class="st0" x="573" y="14.9" width="334.2" height="175.6"/>
    </clipPath>
    <clipPath id="clippath-2">
      <rect class="st0" x="-230.2" width="1920" height="1080"/>
    </clipPath>
    <clipPath id="clippath-3">
      <rect class="st0" x="573" y="275.5" width="334.2" height="175.6"/>
    </clipPath>
    <clipPath id="clippath-4">
      <rect class="st0" x="-230.2" width="1920" height="1080"/>
    </clipPath>
    <clipPath id="clippath-5">
      <rect class="st0" x="573" y="536.1" width="334.2" height="175.6"/>
    </clipPath>
    <clipPath id="clippath-6">
      <rect class="st0" x="-230.2" width="1920" height="1080"/>
    </clipPath>
    <clipPath id="clippath-7">
      <rect class="st0" x="573" y="796.7" width="334.2" height="175.6"/>
    </clipPath>
    <clipPath id="clippath-8">
      <rect class="st0" x="-230.2" width="1920" height="1080"/>
    </clipPath>
  </defs>
  <g class="st27">
    <path class="st26" d="M614.8,14.9h250.6c10.6,0,17,0,21.3,1.8,6.1,2.2,11,7.1,13.2,13.2,1.8,4.3,1.8,10.6,1.8,21.3v103c0,10.6,0,17-1.8,21.3-2.2,6.1-7.1,11-13.2,13.2-4.3,1.8-10.6,1.8-21.3,1.8h-250.6c-10.6,0-17,0-21.3-1.8-6.1-2.2-11-7.1-13.2-13.2-1.8-4.3-1.8-10.6-1.8-21.3V51.1c0-10.6,0-17,1.8-21.3,2.2-6.1,7.1-11,13.2-13.2,4.3-1.8,10.6-1.8,21.3-1.8Z"/>
  </g>
  <g class="st5">
    <text class="st2" transform="translate(697.7 75.5)"><tspan x="0" y="0">3GPP </tspan></text>
    <text class="st2" transform="translate(625.6 114.5)"><tspan x="0" y="0">(3</tspan><tspan class="st24" x="26.7" y="0">r</tspan><tspan x="37.4" y="0">d Generation </tspan></text>
    <text class="st2" transform="translate(593.3 153.5)"><tspan x="0" y="0">Partnership P</tspan><tspan class="st24" x="201" y="0">r</tspan><tspan x="211.7" y="0">oject)</tspan></text>
  </g>
  <g class="st8">
    <text class="st4" transform="translate(9.3 45.1)"><tspan x="0" y="0">Scope:</tspan></text>
    <text class="st3" transform="translate(75.2 45.1)"><tspan x="0" y="0" xml:space="preserve"> Standa</tspan><tspan class="st20" x="69.3" y="0">r</tspan><tspan x="75.6" y="0">dized Radio Access technologies ac</tspan><tspan class="st22" x="399.3" y="0">r</tspan><tspan x="405.6" y="0">oss </tspan></text>
    <text class="st3" transform="translate(9.3 66.8)"><tspan x="0" y="0">generations (2G, 3G, 4G, 5G)</tspan></text>
    <text class="st4" transform="translate(9.3 111)"><tspan x="0" y="0">Responsibilities:</tspan></text>
    <text class="st3" transform="translate(165.8 111)"><tspan x="0" y="0" xml:space="preserve"> De</tspan></text>
    <text class="st3" transform="translate(196.2 111)"><tspan x="0" y="0">ﬁ</tspan></text>
    <text class="st3" transform="translate(206.6 111)"><tspan x="0" y="0">nes p</tspan><tspan class="st20" x="49.3" y="0">r</tspan><tspan x="55.6" y="0">otocol stacks (PH</tspan><tspan class="st19" x="213.4" y="0">Y</tspan><tspan x="223.6" y="0">, MAC, RLC, </tspan></text>
    <text class="st3" transform="translate(9.3 132.7)"><tspan x="0" y="0">PDC</tspan><tspan class="st18" x="41.5" y="0">P</tspan><tspan x="50.9" y="0">, RRC, NAS, SDAP), interfaces (N2, N3, E1, F1), UE </tspan></text>
    <text class="st3" transform="translate(9.3 154.3)"><tspan x="0" y="0">categories, QoS, signaling, and base station behavior (gNB/</tspan></text>
    <text class="st3" transform="translate(9.3 176)"><tspan x="0" y="0">eNB) with the co</tspan><tspan class="st20" x="148.1" y="0">r</tspan><tspan x="154.4" y="0">e network.</tspan></text>
    <path class="st26" d="M614.8,275.5h250.6c10.6,0,17,0,21.3,1.8,6.1,2.2,11,7.1,13.2,13.2,1.8,4.3,1.8,10.6,1.8,21.3v103c0,10.6,0,17-1.8,21.3-2.2,6.1-7.1,11-13.2,13.2-4.3,1.8-10.6,1.8-21.3,1.8h-250.6c-10.6,0-17,0-21.3-1.8-6.1-2.2-11-7.1-13.2-13.2-1.8-4.3-1.8-10.6-1.8-21.3v-103c0-10.6,0-17,1.8-21.3,2.2-6.1,7.1-11,13.2-13.2,4.3-1.8,10.6-1.8,21.3-1.8Z"/>
  </g>
  <g class="st6">
    <text class="st2" transform="translate(688.2 355.6)"><tspan x="0" y="0">O-RAN </tspan></text>
    <text class="st2" transform="translate(682 394.6)"><tspan x="0" y="0">Alliance</tspan></text>
  </g>
  <g class="st7">
    <path d="M961,286c0,.8-.3,1.4-.8,1.9-.5.5-1.1.8-1.9.8s-1.4-.3-1.9-.8c-.5-.5-.8-1.1-.8-1.9s.2-1.4.8-1.9c.5-.5,1.1-.8,1.9-.8s1.4.3,1.9.8c.5.5.8,1.1.8,1.9Z"/>
    <text class="st4" transform="translate(973.9 293.7)"><tspan x="0" y="0">Scope:</tspan></text>
    <text class="st3" transform="translate(1039.8 293.7)"><tspan x="0" y="0" xml:space="preserve"> Speci</tspan></text>
    <text class="st3" transform="translate(1096.1 293.7)"><tspan x="0" y="0">ﬁ</tspan></text>
    <text class="st3" transform="translate(1106.5 293.7)"><tspan x="0" y="0">es open, disagg</tspan><tspan class="st20" x="142.6" y="0">r</tspan><tspan x="148.9" y="0">egated RAN a</tspan><tspan class="st22" x="273.7" y="0">r</tspan><tspan x="280.1" y="0">chitectu</tspan><tspan class="st20" x="351.6" y="0">r</tspan><tspan x="357.9" y="0">es </tspan></text>
    <text class="st3" transform="translate(973.9 315.4)"><tspan x="0" y="0">and interfaces for multi-vendor inte</tspan><tspan class="st22" x="313" y="0">r</tspan><tspan x="319.3" y="0">operabilit</tspan><tspan class="st16" x="402.3" y="0">y</tspan><tspan x="410.8" y="0">.</tspan></text>
    <text class="st4" transform="translate(973.9 359.6)"><tspan x="0" y="0">Responsibilities: </tspan></text>
    <path d="M1009,373.9c0,.8-.3,1.4-.8,1.9-.5.5-1.1.8-1.9.8s-1.4-.3-1.9-.8c-.5-.5-.8-1.1-.8-1.9s.2-1.4.8-1.9c.5-.5,1.1-.8,1.9-.8s1.4.3,1.9.8c.5.5.8,1.1.8,1.9Z"/>
    <text class="st3" transform="translate(1021.9 381.3)"><tspan x="0" y="0">De</tspan></text>
    <text class="st3" transform="translate(1046.7 381.3)"><tspan x="0" y="0">ﬁ</tspan></text>
    <text class="st3" transform="translate(1057 381.3)"><tspan x="0" y="0">nes functional splits (O-CU-C</tspan><tspan class="st18" x="262.3" y="0">P</tspan><tspan x="271.7" y="0">, O-CU-U</tspan><tspan class="st17" x="356.9" y="0">P</tspan><tspan class="st13" x="366.2" y="0">, O-DU, </tspan></text>
    <text class="st3" transform="translate(1021.9 402.9)"><tspan x="0" y="0">O-RU).</tspan></text>
    <path d="M1009,417.2c0,.8-.3,1.4-.8,1.9-.5.5-1.1.8-1.9.8s-1.4-.3-1.9-.8c-.5-.5-.8-1.1-.8-1.9s.2-1.4.8-1.9c.5-.5,1.1-.8,1.9-.8s1.4.3,1.9.8c.5.5.8,1.1.8,1.9Z"/>
    <text class="st3" transform="translate(1021.9 424.6)"><tspan x="0" y="0">Speci</tspan></text>
    <text class="st3" transform="translate(1072.6 424.6)"><tspan x="0" y="0">ﬁ</tspan></text>
    <text class="st3" transform="translate(1083 424.6)"><tspan x="0" y="0">es E2, A1, and open f</tspan><tspan class="st22" x="191.9" y="0">r</tspan><tspan x="198.2" y="0">onthaul interfaces.</tspan></text>
    <path d="M1009,441.2c0,.8-.3,1.4-.8,1.9-.5.5-1.1.8-1.9.8s-1.4-.3-1.9-.8c-.5-.5-.8-1.1-.8-1.9s.2-1.4.8-1.9c.5-.5,1.1-.8,1.9-.8s1.4.3,1.9.8c.5.5.8,1.1.8,1.9Z"/>
    <text class="st3" transform="translate(1021.9 448.6)"><tspan x="0" y="0">De</tspan></text>
    <text class="st3" transform="translate(1046.7 448.6)"><tspan x="0" y="0">ﬁ</tspan></text>
    <text class="st3" transform="translate(1057 448.6)"><tspan x="0" y="0">nes Nea</tspan><tspan class="st25" x="73.3" y="0">r</tspan><tspan x="78.9" y="0">-</tspan><tspan class="st23" x="86.7" y="0">R</tspan><tspan x="100.1" y="0">T RIC and cont</tspan><tspan class="st22" x="234.9" y="0">r</tspan><tspan x="241.2" y="0">ol loops.</tspan></text>
    <path class="st26" d="M614.8,536.1h250.6c10.6,0,17,0,21.3,1.8,6.1,2.2,11,7.1,13.2,13.2,1.8,4.3,1.8,10.6,1.8,21.3v103c0,10.6,0,17-1.8,21.3-2.2,6.1-7.1,11-13.2,13.2-4.3,1.8-10.6,1.8-21.3,1.8h-250.6c-10.6,0-17,0-21.3-1.8-6.1-2.2-11-7.1-13.2-13.2-1.8-4.3-1.8-10.6-1.8-21.3v-103c0-10.6,0-17,1.8-21.3,2.2-6.1,7.1-11,13.2-13.2,4.3-1.8,10.6-1.8,21.3-1.8Z"/>
  </g>
  <g class="st12">
    <text class="st2" transform="translate(640.8 635.7)"><tspan x="0" y="0">ONF SD-RAN</tspan></text>
  </g>
  <g class="st10">
    <text class="st4" transform="translate(0 540.9)"><tspan x="0" y="0">Scope:</tspan></text>
    <text class="st3" transform="translate(65.9 540.9)"><tspan x="0" y="0" xml:space="preserve"> Focuses on softwa</tspan><tspan class="st22" x="174.4" y="0">r</tspan><tspan x="180.8" y="0">e-de</tspan></text>
    <text class="st3" transform="translate(287.8 540.9)"><tspan x="0" y="0">ﬁ</tspan></text>
    <text class="st3" transform="translate(298.2 540.9)"><tspan x="0" y="0">ned RAN cont</tspan><tspan class="st20" x="125.6" y="0">r</tspan><tspan x="131.9" y="0">ollers and </tspan></text>
    <text class="st3" transform="translate(0 562.5)"><tspan x="0" y="0">o</tspan><tspan class="st20" x="11.5" y="0">r</tspan><tspan x="17.8" y="0">chestration.</tspan></text>
    <text class="st4" transform="translate(0 606.7)"><tspan x="0" y="0">Responsibilities:</tspan></text>
    <text class="st1" transform="translate(11 629.3)"><tspan x="0" y="0">•</tspan></text>
    <text class="st3" transform="translate(52.7 628.4)"><tspan x="0" y="0">P</tspan><tspan class="st20" x="13" y="0">r</tspan><tspan x="19.3" y="0">ovides softwa</tspan><tspan class="st21" x="142.9" y="0">r</tspan><tspan x="149.2" y="0">e platforms to cont</tspan><tspan class="st20" x="318.5" y="0">r</tspan><tspan class="st13" x="324.8" y="0">ol and manage </tspan></text>
    <text class="st3" transform="translate(52.7 652.4)"><tspan x="0" y="0">disagg</tspan><tspan class="st20" x="60" y="0">r</tspan><tspan x="66.3" y="0">egated RAN elements.</tspan></text>
    <text class="st1" transform="translate(11 677.3)"><tspan x="0" y="0">•</tspan></text>
    <text class="st3" transform="translate(52.7 676.4)"><tspan x="0" y="0">Implements policy-driven automation, network slicing, </tspan></text>
    <text class="st3" transform="translate(52.7 700.4)"><tspan x="0" y="0">and optimization.</tspan></text>
    <text class="st1" transform="translate(11 725.3)"><tspan x="0" y="0">•</tspan></text>
    <text class="st3" transform="translate(52.7 724.4)"><tspan x="0" y="0">Interfaces with O-RAN components via standa</tspan><tspan class="st22" x="414.9" y="0">r</tspan><tspan x="421.2" y="0">d </tspan></text>
    <text class="st3" transform="translate(52.7 748.4)"><tspan x="0" y="0">interfaces.</tspan></text>
    <path class="st26" d="M614.8,796.7h250.6c10.6,0,17,0,21.3,1.8,6.1,2.2,11,7.1,13.2,13.2,1.8,4.3,1.8,10.6,1.8,21.3v103c0,10.6,0,17-1.8,21.3-2.2,6.1-7.1,11-13.2,13.2-4.3,1.8-10.6,1.8-21.3,1.8h-250.6c-10.6,0-17,0-21.3-1.8-6.1-2.2-11-7.1-13.2-13.2-1.8-4.3-1.8-10.6-1.8-21.3v-103c0-10.6,0-17,1.8-21.3,2.2-6.1,7.1-11,13.2-13.2,4.3-1.8,10.6-1.8,21.3-1.8Z"/>
  </g>
  <g class="st9">
    <text class="st2" transform="translate(640.8 896.3)"><tspan class="st14" x="0" y="0">T</tspan><tspan x="15.5" y="0">elecom Infra</tspan></text>
  </g>
  <g class="st11">
    <text class="st4" transform="translate(953.9 788.6)"><tspan x="0" y="0">Scope:</tspan></text>
    <text class="st3" transform="translate(1019.8 788.6)"><tspan x="0" y="0" xml:space="preserve"> Physical deployment of RAN components and </tspan></text>
    <text class="st3" transform="translate(953.9 810.3)"><tspan x="0" y="0">networking infrastructu</tspan><tspan class="st22" x="205.6" y="0">r</tspan><tspan x="211.9" y="0">e.</tspan></text>
    <text class="st4" transform="translate(953.9 854.5)"><tspan x="0" y="0">Responsibilities:</tspan></text>
    <text class="st1" transform="translate(964.9 877)"><tspan x="0" y="0">•</tspan></text>
    <text class="st3" transform="translate(1006.5 876.1)"><tspan x="0" y="0">Supply radio units (O-RU), antennas, </tspan></text>
    <text class="st3" transform="translate(1339.2 876.1)"><tspan x="0" y="0">ﬁ</tspan></text>
    <text class="st3" transform="translate(1349.6 876.1)"><tspan x="0" y="0">ber f</tspan><tspan class="st20" x="40.7" y="0">r</tspan><tspan class="st13" x="47" y="0">onthaul/</tspan></text>
    <text class="st3" transform="translate(1006.5 900.1)"><tspan x="0" y="0">backhaul, and data centers.</tspan></text>
    <text class="st1" transform="translate(964.9 925)"><tspan x="0" y="0">•</tspan></text>
    <text class="st3" transform="translate(1006.5 924.1)"><tspan x="0" y="0">Ensu</tspan><tspan class="st20" x="44.5" y="0">r</tspan><tspan x="50.8" y="0">e site installation, powe</tspan><tspan class="st15" x="260" y="0">r</tspan><tspan class="st13" x="264.9" y="0">, cooling, and </tspan></text>
    <text class="st3" transform="translate(1006.5 948.1)"><tspan x="0" y="0">maintenance.</tspan></text>
    <text class="st1" transform="translate(964.9 973)"><tspan x="0" y="0">•</tspan></text>
    <text class="st3" transform="translate(1006.5 972.1)"><tspan x="0" y="0">integrate O-RAN and 3GPP components into a working </tspan></text>
    <text class="st3" transform="translate(1006.5 996.1)"><tspan x="0" y="0">network.</tspan></text>
  </g>
</svg>