<?xml version="1.0" encoding="UTF-8"?>
<svg id="Ebene_1" xmlns="http://www.w3.org/2000/svg" xmlns:xlink="http://www.w3.org/1999/xlink" version="1.1" viewBox="0 0 2200 682.8">
  <!-- Generator: Adobe Illustrator 29.4.0, SVG Export Plug-In . SVG Version: 2.1.0 Build 152)  -->
  <defs>
    <style>
      .st0, .st1, .st2, .st3, .st4, .st5 {
        fill: none;
      }

      .st1 {
        stroke-dasharray: 2 4;
        stroke-width: 2px;
      }

      .st1, .st3, .st4 {
        stroke: #000;
      }

      .st2 {
        stroke: #b0b0b0;
      }

      .st2, .st3, .st4 {
        stroke-width: .5px;
      }

      .st2, .st3, .st5 {
        stroke-linejoin: round;
      }

      .st2, .st4, .st5 {
        stroke-linecap: square;
      }

      .st6, .st7 {
        font-size: 34.4px;
      }

      .st6, .st8 {
        font-family: HelveticaNeue, 'Helvetica Neue';
      }

      .st9 {
        clip-path: url(#clippath-17);
      }

      .st10 {
        clip-path: url(#clippath-19);
      }

      .st11 {
        clip-path: url(#clippath-11);
      }

      .st12 {
        clip-path: url(#clippath-16);
      }

      .st13 {
        clip-path: url(#clippath-18);
      }

      .st14 {
        clip-path: url(#clippath-10);
      }

      .st15 {
        clip-path: url(#clippath-15);
      }

      .st16 {
        clip-path: url(#clippath-13);
      }

      .st17 {
        clip-path: url(#clippath-14);
      }

      .st18 {
        clip-path: url(#clippath-12);
      }

      .st19 {
        clip-path: url(#clippath-31);
      }

      .st20 {
        clip-path: url(#clippath-32);
      }

      .st21 {
        clip-path: url(#clippath-33);
      }

      .st22 {
        clip-path: url(#clippath-34);
      }

      .st23 {
        clip-path: url(#clippath-35);
      }

      .st24 {
        clip-path: url(#clippath-39);
      }

      .st25 {
        clip-path: url(#clippath-30);
      }

      .st26 {
        clip-path: url(#clippath-36);
      }

      .st27 {
        clip-path: url(#clippath-37);
      }

      .st28 {
        clip-path: url(#clippath-38);
      }

      .st29 {
        clip-path: url(#clippath-27);
      }

      .st30 {
        clip-path: url(#clippath-29);
      }

      .st31 {
        clip-path: url(#clippath-26);
      }

      .st32 {
        clip-path: url(#clippath-28);
      }

      .st33 {
        clip-path: url(#clippath-20);
      }

      .st34 {
        clip-path: url(#clippath-21);
      }

      .st35 {
        clip-path: url(#clippath-22);
      }

      .st36 {
        clip-path: url(#clippath-23);
      }

      .st37 {
        clip-path: url(#clippath-24);
      }

      .st38 {
        clip-path: url(#clippath-25);
      }

      .st39 {
        clip-path: url(#clippath-41);
      }

      .st40 {
        clip-path: url(#clippath-42);
      }

      .st41 {
        clip-path: url(#clippath-43);
      }

      .st42 {
        clip-path: url(#clippath-44);
      }

      .st43 {
        clip-path: url(#clippath-45);
      }

      .st44 {
        clip-path: url(#clippath-49);
      }

      .st45 {
        clip-path: url(#clippath-40);
      }

      .st46 {
        clip-path: url(#clippath-46);
      }

      .st47 {
        clip-path: url(#clippath-47);
      }

      .st48 {
        clip-path: url(#clippath-48);
      }

      .st49 {
        clip-path: url(#clippath-1);
      }

      .st50 {
        clip-path: url(#clippath-3);
      }

      .st51 {
        clip-path: url(#clippath-4);
      }

      .st52 {
        clip-path: url(#clippath-2);
      }

      .st53 {
        clip-path: url(#clippath-7);
      }

      .st54 {
        clip-path: url(#clippath-6);
      }

      .st55 {
        clip-path: url(#clippath-9);
      }

      .st56 {
        clip-path: url(#clippath-8);
      }

      .st57 {
        clip-path: url(#clippath-5);
      }

      .st7 {
        font-family: HelveticaNeue-Bold, 'Helvetica Neue';
        font-weight: 700;
      }

      .st58 {
        fill: #fff;
      }

      .st59 {
        letter-spacing: 0em;
      }

      .st8 {
        font-size: 54.5px;
      }

      .st60 {
        letter-spacing: 0em;
      }

      .st61 {
        clip-path: url(#clippath);
      }

      .st5 {
        stroke: #66aab9;
        stroke-width: 1px;
      }
    </style>
    <clipPath id="clippath">
      <rect class="st0" x="454.8" y="258.9" width="98.1" height="54.5"/>
    </clipPath>
    <clipPath id="clippath-1">
      <rect class="st0" x="452.2" y="134.3" width="96.4" height="59.9"/>
    </clipPath>
    <clipPath id="clippath-2">
      <rect class="st0" x="449.9" y="55.6" width="101" height="97.1"/>
    </clipPath>
    <clipPath id="clippath-3">
      <rect class="st0" x="456.9" y="160.6" width="93.9" height="118.6"/>
    </clipPath>
    <clipPath id="clippath-4">
      <rect class="st0" x="575.9" y="103.5" width="1175.7" height="426.6"/>
    </clipPath>
    <clipPath id="clippath-5">
      <rect class="st0" x="613.4" y="109.6" width="1137.5" height="388.1"/>
    </clipPath>
    <clipPath id="clippath-6">
      <rect class="st0" x="575.9" y="103.5" width="1175.7" height="426.6"/>
    </clipPath>
    <clipPath id="clippath-7">
      <rect class="st0" x="613.4" y="109.6" width="1137.5" height="388.1"/>
    </clipPath>
    <clipPath id="clippath-8">
      <rect class="st0" x="575.9" y="103.5" width="1175.7" height="426.6"/>
    </clipPath>
    <clipPath id="clippath-9">
      <rect class="st0" x="613.4" y="109.6" width="1137.5" height="388.1"/>
    </clipPath>
    <clipPath id="clippath-10">
      <rect class="st0" x="575.9" y="103.5" width="1175.7" height="426.6"/>
    </clipPath>
    <clipPath id="clippath-11">
      <rect class="st0" x="613.4" y="109.6" width="1137.5" height="388.1"/>
    </clipPath>
    <clipPath id="clippath-12">
      <rect class="st0" x="575.9" y="103.5" width="1175.7" height="426.6"/>
    </clipPath>
    <clipPath id="clippath-13">
      <rect class="st0" x="613.4" y="109.6" width="1137.5" height="388.1"/>
    </clipPath>
    <clipPath id="clippath-14">
      <rect class="st0" x="575.9" y="103.5" width="1175.7" height="426.6"/>
    </clipPath>
    <clipPath id="clippath-15">
      <rect class="st0" x="613.4" y="109.6" width="1137.5" height="388.1"/>
    </clipPath>
    <clipPath id="clippath-16">
      <rect class="st0" x="575.9" y="103.5" width="1175.7" height="426.6"/>
    </clipPath>
    <clipPath id="clippath-17">
      <rect class="st0" x="613.4" y="109.6" width="1137.5" height="388.1"/>
    </clipPath>
    <clipPath id="clippath-18">
      <rect class="st0" x="575.9" y="103.5" width="1175.7" height="426.6"/>
    </clipPath>
    <clipPath id="clippath-19">
      <rect class="st0" x="613.4" y="109.6" width="1137.5" height="388.1"/>
    </clipPath>
    <clipPath id="clippath-20">
      <rect class="st0" x="575.9" y="103.5" width="1175.7" height="426.6"/>
    </clipPath>
    <clipPath id="clippath-21">
      <rect class="st0" x="613.4" y="109.6" width="1137.5" height="388.1"/>
    </clipPath>
    <clipPath id="clippath-22">
      <rect class="st0" x="575.9" y="103.5" width="1175.7" height="426.6"/>
    </clipPath>
    <clipPath id="clippath-23">
      <rect class="st0" x="613.4" y="109.6" width="1137.5" height="388.1"/>
    </clipPath>
    <clipPath id="clippath-24">
      <rect class="st0" x="575.9" y="103.5" width="1175.7" height="426.6"/>
    </clipPath>
    <clipPath id="clippath-25">
      <rect class="st0" x="613.4" y="109.6" width="1137.5" height="388.1"/>
    </clipPath>
    <clipPath id="clippath-26">
      <rect class="st0" x="575.9" y="103.5" width="1175.7" height="426.6"/>
    </clipPath>
    <clipPath id="clippath-27">
      <rect class="st0" x="613.4" y="109.6" width="1137.5" height="388.1"/>
    </clipPath>
    <clipPath id="clippath-28">
      <rect class="st0" x="575.9" y="103.5" width="1175.7" height="426.6"/>
    </clipPath>
    <clipPath id="clippath-29">
      <rect class="st0" x="613.4" y="109.6" width="1137.5" height="388.1"/>
    </clipPath>
    <clipPath id="clippath-30">
      <rect class="st0" x="575.9" y="103.5" width="1175.7" height="426.6"/>
    </clipPath>
    <clipPath id="clippath-31">
      <rect class="st0" x="613.4" y="109.6" width="1137.5" height="388.1"/>
    </clipPath>
    <clipPath id="clippath-32">
      <rect class="st0" x="575.9" y="103.5" width="1175.7" height="426.6"/>
    </clipPath>
    <clipPath id="clippath-33">
      <rect class="st0" x="613.4" y="109.6" width="1137.5" height="388.1"/>
    </clipPath>
    <clipPath id="clippath-34">
      <rect class="st0" x="575.9" y="103.5" width="1175.7" height="426.6"/>
    </clipPath>
    <clipPath id="clippath-35">
      <rect class="st0" x="524.6" y="161.8" width="1222.4" height="13.1"/>
    </clipPath>
    <clipPath id="clippath-36">
      <rect class="st0" x="533.4" y="117.7" width="1222.4" height="13.1"/>
    </clipPath>
    <clipPath id="clippath-37">
      <rect class="st0" x="524.6" y="213.3" width="1222.4" height="13.1"/>
    </clipPath>
    <clipPath id="clippath-38">
      <rect class="st0" x="528.1" y="284.9" width="1222.4" height="13.1"/>
    </clipPath>
    <clipPath id="clippath-39">
      <rect class="st0" x="916.5" y="5.3" width="13.1" height="511.8"/>
    </clipPath>
    <clipPath id="clippath-40">
      <rect class="st0" x="-920.7" y="-257.8" width="5990.5" height="2940.8"/>
    </clipPath>
    <clipPath id="clippath-41">
      <rect class="st0" x="712.7" y="27.7" width="108.4" height="57.2"/>
    </clipPath>
    <clipPath id="clippath-42">
      <rect class="st0" x="1175.7" y="5.3" width="13.1" height="511.8"/>
    </clipPath>
    <clipPath id="clippath-43">
      <rect class="st0" x="-920.7" y="-257.8" width="5990.5" height="2940.8"/>
    </clipPath>
    <clipPath id="clippath-44">
      <rect class="st0" x="1012.2" y="21" width="102.2" height="51.7"/>
    </clipPath>
    <clipPath id="clippath-45">
      <rect class="st0" x="1271.5" y="27.7" width="113.9" height="51.7"/>
    </clipPath>
    <clipPath id="clippath-46">
      <rect class="st0" x="1562.5" y="21" width="140.7" height="51.7"/>
    </clipPath>
    <clipPath id="clippath-47">
      <rect class="st0" x="1435.4" y="5.3" width="13.1" height="511.8"/>
    </clipPath>
    <clipPath id="clippath-48">
      <rect class="st0" x="-920.7" y="-257.8" width="5990.5" height="2940.8"/>
    </clipPath>
    <clipPath id="clippath-49">
      <rect class="st0" x="882.9" y="530.8" width="750" height="163.2"/>
    </clipPath>
  </defs>
  <g class="st61">
    <text class="st8" transform="translate(470.7 311.1)"><tspan x="0" y="0">00</tspan></text>
  </g>
  <g class="st49">
    <text class="st8" transform="translate(468.1 186.6)"><tspan x="0" y="0">10</tspan></text>
  </g>
  <g class="st52">
    <text class="st8" transform="translate(465.8 123.7)"><tspan x="0" y="0">11</tspan></text>
  </g>
  <g class="st50">
    <text class="st8" transform="translate(472.8 240.1)"><tspan x="0" y="0">01</tspan></text>
  </g>
  <g class="st51">
    <rect class="st58" x="613.4" y="109.6" width="1137.5" height="388.1"/>
  </g>
  <g class="st57">
    <line class="st2" x1="665.1" y1="497.7" x2="665.1" y2="109.6"/>
  </g>
  <g class="st54">
    <line class="st3" x1="665.1" y1="497.7" x2="665.1" y2="503.9"/>
    <line class="st3" x1="794.4" y1="497.7" x2="794.4" y2="503.9"/>
  </g>
  <g class="st53">
    <line class="st2" x1="923.7" y1="497.7" x2="923.7" y2="109.6"/>
  </g>
  <g class="st56">
    <line class="st3" x1="923.7" y1="497.7" x2="923.7" y2="503.9"/>
    <line class="st3" x1="1053" y1="497.7" x2="1053" y2="503.9"/>
  </g>
  <g class="st55">
    <line class="st2" x1="1182.3" y1="497.7" x2="1182.3" y2="109.6"/>
  </g>
  <g class="st14">
    <line class="st3" x1="1182.3" y1="497.7" x2="1182.3" y2="503.9"/>
    <line class="st3" x1="1311.6" y1="497.7" x2="1311.6" y2="503.9"/>
  </g>
  <g class="st11">
    <line class="st2" x1="1440.9" y1="497.7" x2="1440.9" y2="109.6"/>
  </g>
  <g class="st18">
    <line class="st3" x1="1440.9" y1="497.7" x2="1440.9" y2="503.9"/>
    <line class="st3" x1="1570.2" y1="497.7" x2="1570.2" y2="503.9"/>
  </g>
  <g class="st16">
    <line class="st2" x1="1699.5" y1="497.7" x2="1699.5" y2="109.6"/>
  </g>
  <g class="st17">
    <line class="st3" x1="1699.5" y1="497.7" x2="1699.5" y2="503.9"/>
    <polygon points="1146.4 517 1146.4 518.5 1150.9 518.5 1150.9 529.9 1152.6 529.9 1152.6 518.5 1157.2 518.5 1157.2 517 1146.4 517"/>
    <path d="M1158.3,529.9h1.6v-9.6h-1.6v9.6ZM1158.3,518.5h1.6v-2h-1.6v2Z"/>
    <path d="M1170.6,522.1c.4-.7.9-1.2,1.4-1.6.6-.3,1.2-.5,1.9-.5s1.8.4,2.3,1.1c.5.7.8,1.7.8,3v5.8h-1.6v-5.8c0-.9-.2-1.6-.5-2.1-.3-.4-.8-.7-1.5-.7s-1.5.3-1.9.8c-.5.5-.7,1.3-.7,2.2v5.4h-1.6v-5.8c0-.9-.2-1.6-.5-2.1-.3-.4-.8-.7-1.5-.7s-1.5.3-1.9.8c-.5.5-.7,1.3-.7,2.2v5.4h-1.6v-9.6h1.6v1.5c.4-.6.8-1,1.3-1.3.5-.3,1.1-.4,1.8-.4s1.3.2,1.8.5c.5.4.9.9,1.1,1.5"/>
    <path d="M1188.5,524.7v.8h-7.3c0,1.1.4,1.9,1,2.5.6.6,1.4.9,2.5.9s1.2,0,1.8-.2c.6-.1,1.1-.4,1.7-.7v1.5c-.6.2-1.2.4-1.7.6-.6.1-1.2.2-1.8.2-1.5,0-2.8-.4-3.6-1.3-.9-.9-1.3-2.1-1.3-3.6s.4-2.8,1.3-3.7c.8-.9,2-1.4,3.4-1.4s2.3.4,3.1,1.3c.8.8,1.1,2,1.1,3.4M1186.9,524.2c0-.9-.3-1.6-.7-2.1-.5-.5-1.1-.8-1.9-.8s-1.6.2-2.1.7c-.5.5-.8,1.2-.9,2.1h5.6Z"/>
  </g>
  <g class="st15">
    <line class="st2" x1="613.4" y1="480.1" x2="1750.9" y2="480.1"/>
  </g>
  <g class="st12">
    <line class="st3" x1="613.4" y1="480.1" x2="607.3" y2="480.1"/>
  </g>
  <g class="st9">
    <line class="st2" x1="613.4" y1="436" x2="1750.9" y2="436"/>
  </g>
  <g class="st13">
    <line class="st3" x1="613.4" y1="436" x2="607.3" y2="436"/>
  </g>
  <g class="st10">
    <line class="st2" x1="613.4" y1="391.9" x2="1750.9" y2="391.9"/>
  </g>
  <g class="st33">
    <line class="st3" x1="613.4" y1="391.9" x2="607.3" y2="391.9"/>
  </g>
  <g class="st34">
    <line class="st2" x1="613.4" y1="347.8" x2="1750.9" y2="347.8"/>
  </g>
  <g class="st35">
    <line class="st3" x1="613.4" y1="347.8" x2="607.3" y2="347.8"/>
  </g>
  <g class="st36">
    <line class="st2" x1="613.4" y1="303.7" x2="1750.9" y2="303.7"/>
  </g>
  <g class="st37">
    <line class="st3" x1="613.4" y1="303.7" x2="607.3" y2="303.7"/>
  </g>
  <g class="st38">
    <line class="st2" x1="613.4" y1="259.6" x2="1750.9" y2="259.6"/>
  </g>
  <g class="st31">
    <line class="st3" x1="613.4" y1="259.6" x2="607.3" y2="259.6"/>
  </g>
  <g class="st29">
    <line class="st2" x1="613.4" y1="215.5" x2="1750.9" y2="215.5"/>
  </g>
  <g class="st32">
    <line class="st3" x1="613.4" y1="215.5" x2="607.3" y2="215.5"/>
  </g>
  <g class="st30">
    <line class="st2" x1="613.4" y1="171.4" x2="1750.9" y2="171.4"/>
  </g>
  <g class="st25">
    <line class="st3" x1="613.4" y1="171.4" x2="607.3" y2="171.4"/>
  </g>
  <g class="st19">
    <line class="st2" x1="613.4" y1="127.3" x2="1750.9" y2="127.3"/>
  </g>
  <g class="st20">
    <line class="st3" x1="613.4" y1="127.3" x2="607.3" y2="127.3"/>
    <path d="M578.2,465.9l6.4,2.4v-4.7l-6.4,2.4ZM576.4,466.9v-2l12.8-4.9v1.8l-3.3,1.2v5.8l3.3,1.2v1.8l-12.8-4.9Z"/>
    <path d="M581.5,450.7c-.7-.4-1.2-.9-1.6-1.4-.3-.6-.5-1.2-.5-1.9s.4-1.8,1.1-2.3c.7-.5,1.7-.8,3-.8h5.8v1.6h-5.8c-.9,0-1.6.2-2.1.5-.4.3-.7.8-.7,1.5s.3,1.5.8,1.9c.5.5,1.3.7,2.2.7h5.4v1.6h-5.8c-.9,0-1.6.2-2.1.5-.4.3-.7.8-.7,1.5s.3,1.5.8,1.9c.5.5,1.3.7,2.2.7h5.4v1.6h-9.6v-1.6h1.5c-.6-.4-1-.8-1.3-1.3-.3-.5-.4-1.1-.4-1.8s.2-1.3.5-1.8c.4-.5.9-.9,1.5-1.1"/>
    <path d="M587.8,439.5h5.1v1.6h-13.3v-1.6h1.5c-.6-.3-1-.8-1.3-1.3-.3-.5-.4-1.1-.4-1.8,0-1.2.5-2.1,1.4-2.8.9-.7,2.1-1.1,3.7-1.1s2.7.4,3.7,1.1c.9.7,1.4,1.7,1.4,2.8s-.1,1.3-.4,1.8c-.3.5-.7.9-1.3,1.3M584.5,434.2c-1.2,0-2.1.2-2.7.7-.7.5-1,1.1-1,2s.3,1.5,1,2,1.6.7,2.7.7,2.1-.2,2.7-.7c.7-.5,1-1.1,1-2s-.3-1.5-1-2c-.7-.5-1.6-.7-2.7-.7"/>
    <rect x="575.9" y="428.3" width="13.4" height="1.6"/>
    <path d="M579.6,423.4h9.6v1.6h-9.6v-1.6ZM575.9,423.4h2v1.6h-2v-1.6Z"/>
    <path d="M576.9,418.6h2.7v-3.3h1.2v3.3h5.2c.8,0,1.3-.1,1.5-.3.2-.2.3-.7.3-1.3v-1.6h1.3v1.6c0,1.2-.2,2.1-.7,2.5-.5.5-1.3.7-2.5.7h-5.2v1.2h-1.2v-1.2h-2.7v-1.6Z"/>
    <path d="M585.5,413.4h-5.8v-1.6h5.8c.9,0,1.6-.2,2-.5.5-.4.7-.9.7-1.6s-.3-1.5-.8-2c-.5-.5-1.3-.7-2.2-.7h-5.5v-1.6h9.6v1.6h-1.5c.6.4,1,.8,1.3,1.3.3.5.4,1.1.4,1.8,0,1.1-.3,1.9-1,2.5-.7.6-1.7.9-3,.9"/>
    <path d="M581.1,395.7h-5.2v-1.6h13.4v1.6h-1.4c.6.3,1,.8,1.3,1.3.3.5.4,1.1.4,1.8,0,1.2-.5,2.1-1.4,2.8-.9.7-2.1,1.1-3.7,1.1s-2.7-.4-3.7-1.1c-.9-.7-1.4-1.7-1.4-2.8s.1-1.3.4-1.8c.3-.5.7-.9,1.3-1.3M584.5,401.1c1.2,0,2.1-.2,2.7-.7.7-.5,1-1.1,1-2s-.3-1.5-1-2c-.7-.5-1.6-.7-2.7-.7s-2.1.2-2.7.7c-.7.5-1,1.1-1,2s.3,1.5,1,2c.7.5,1.6.7,2.7.7"/>
    <path d="M584.1,382.7h.8v7.3c1.1,0,1.9-.4,2.5-1,.6-.6.9-1.4.9-2.5s0-1.2-.2-1.8c-.1-.6-.4-1.1-.7-1.7h1.5c.2.6.4,1.2.6,1.7.1.6.2,1.2.2,1.8,0,1.5-.4,2.8-1.3,3.6-.9.9-2.1,1.3-3.6,1.3s-2.8-.4-3.7-1.3c-.9-.8-1.4-2-1.4-3.4s.4-2.3,1.3-3.1c.8-.8,2-1.1,3.4-1.1M583.6,384.3c-.9,0-1.6.3-2.1.7-.5.5-.8,1.1-.8,1.9s.2,1.6.7,2.1c.5.5,1.2.8,2.1.9v-5.6Z"/>
  </g>
  <g class="st21">
    <polyline class="st5" points="665.1 303.7 669.3 261.2 671.6 241.3 673.4 229.2 674.7 222.7 676 218.3 677 216.2 677.8 215.5 678.3 215.5 678.8 215.9 679.6 217 680.4 219 681.4 222.7 682.7 229.2 684.3 239.4 686.1 254.1 688.4 276.4 696.9 362 698.7 375 700.3 383.5 701.6 388.4 702.6 390.8 703.4 391.7 703.9 391.9 704.4 391.7 704.9 391.2 705.7 389.7 706.8 386.7 707.8 382.3 709.1 375 710.6 364.1 712.7 346.2 715.5 317.5 721.5 256.4 723.6 239.4 725.1 229.2 726.4 222.7 727.7 218.3 728.7 216.2 729.5 215.5 730 215.5 730.5 215.9 731.3 217 732.1 219 733.1 222.7 734.4 229.2 736 239.4 737.8 254.1 740.1 276.4 748.6 362 750.5 375 752 383.5 753.3 388.4 754.3 390.8 755.1 391.7 755.6 391.9 756.1 391.7 756.7 391.2 757.4 389.7 758.5 386.7 759.5 382.3 760.8 375 762.3 364.1 764.4 346.2 767.3 317.5 773.2 256.4 775.3 239.4 776.8 229.2 778.1 222.7 779.4 218.3 780.4 216.2 781.2 215.5 781.7 215.5 782.3 215.9 783 217 783.8 219 784.8 222.7 786.1 229.2 787.7 239.4 789.5 254.1 791.8 276.4 800.4 362 802.2 375 803.7 383.5 805 388.4 806 390.8 806.8 391.7 807.3 391.9 807.9 391.7 808.4 391.2 809.2 389.7 810.2 386.7 811.2 382.3 812.5 375 814.1 364.1 816.1 346.2 819 317.5 824.9 256.4 827 239.4 828.5 229.2 829.8 222.7 831.1 218.3 832.2 216.2 832.9 215.5 833.5 215.5 834 215.9 834.8 217 835.5 219 836.6 222.7 837.9 229.2 839.4 239.4 841.2 254.1 843.5 276.4 852.1 362 853.9 375 855.4 383.5 856.7 388.4 857.8 390.8 858.5 391.7 859.1 391.9 859.6 391.7 860.1 391.2 860.9 389.7 861.9 386.7 862.9 382.3 864.2 375 865.8 364.1 867.9 346.2"/>
    <polyline class="st5" points="867.9 346.2 870.7 317.5 876.6 256.4 878.7 239.4 880.3 229.2 881.6 222.7 882.8 218.3 883.9 216.2 884.7 215.5 885.2 215.5 885.7 215.9 886.5 217 887.2 219 888.3 222.7 889.6 229.2 891.1 239.4 892.9 254.1 895.3 276.4 903.8 362 905.6 375 907.2 383.5 908.4 388.4 909.5 390.8 910.3 391.7 910.8 391.9 911.3 391.7 911.8 391.2 912.6 389.7 913.6 386.7 914.7 382.3 915.9 375 917.5 364.1 919.6 346.2 922.4 317.5 923.7 303.7 927.8 218.7 930.2 178.9 932 154.7 933.3 141.8 934.3 134.3 935.3 129.5 936.1 127.6 936.6 127.3 937.2 127.6 937.7 128.7 938.4 131.5 939.2 135.9 940.3 144.1 941.5 157.8 943.1 178.9 944.9 209.2 947.5 259.8 954.7 407.4 956.8 439.6 958.4 458.3 959.7 469.6 960.7 475.8 961.5 478.7 962 479.7 962.5 480.1 963 479.7 963.5 478.7 964.3 475.8 965.1 471.4 966.1 463.3 967.4 449.6 969 428.4 970.8 398.2 973.4 347.5 980.6 200 982.7 167.8 984.2 149.1 985.5 137.7 986.5 131.5 987.3 128.7 987.8 127.6 988.4 127.3 988.9 127.6 989.4 128.7 990.2 131.5 990.9 135.9 992 144.1 993.3 157.8 994.8 178.9 996.6 209.2 999.2 259.8 1006.5 407.4 1008.5 439.6 1010.1 458.3 1011.4 469.6 1012.4 475.8 1013.2 478.7 1013.7 479.7 1014.2 480.1 1014.7 479.7 1015.2 478.7 1016 475.8 1016.8 471.4 1017.8 463.3 1019.1 449.6 1020.7 428.4 1022.5 398.2 1025.1 347.5 1032.3 200 1034.4 167.8 1035.9 149.1 1037.2 137.7 1038.3 131.5 1039 128.7 1039.6 127.6 1040.1 127.3 1040.6 127.6 1041.1 128.7 1041.9 131.5 1042.7 135.9 1043.7 144.1 1045 157.8 1046.5 178.9 1048.3 209.2 1050.9 259.8 1058.2 407.4 1060.2 439.6 1061.8 458.3 1063.1 469.6 1064.1 475.8 1064.9 478.7 1065.4 479.7 1065.9 480.1"/>
    <polyline class="st5" points="1065.9 480.1 1066.4 479.7 1067 478.7 1067.7 475.8 1068.5 471.4 1069.6 463.3 1070.8 449.6 1072.4 428.4 1074.2 398.2 1076.8 347.5 1084 200 1086.1 167.8 1087.7 149.1 1088.9 137.7 1090 131.5 1090.8 128.7 1091.3 127.6 1091.8 127.3 1092.3 127.6 1092.8 128.7 1093.6 131.5 1094.4 135.9 1095.4 144.1 1096.7 157.8 1098.3 178.9 1100.1 209.2 1102.7 259.8 1109.9 407.4 1112 439.6 1113.5 458.3 1114.8 469.6 1115.8 475.8 1116.6 478.7 1117.1 479.7 1117.6 480.1 1118.2 479.7 1118.7 478.7 1119.5 475.8 1120.2 471.4 1121.3 463.3 1122.6 449.6 1124.1 428.4 1125.9 398.2 1128.5 347.5 1135.8 200 1137.8 167.8 1139.4 149.1 1140.7 137.7 1141.7 131.5 1142.5 128.7 1143 127.6 1143.5 127.3 1144 127.6 1144.5 128.7 1145.3 131.5 1146.1 135.9 1147.1 144.1 1148.4 157.8 1150 178.9 1151.8 209.2 1154.4 259.8 1161.6 407.4 1163.7 439.6 1165.2 458.3 1166.5 469.6 1167.6 475.8 1168.3 478.7 1168.8 479.7 1169.4 480.1 1169.9 479.7 1170.4 478.7 1171.2 475.8 1172 471.4 1173 463.3 1174.3 449.6 1175.8 428.4 1177.6 398.2 1180.2 347.5 1187.5 200 1189.5 167.8 1191.1 149.1 1192.4 137.7 1193.4 131.5 1194.2 128.7 1194.7 127.6 1195.2 127.3 1195.7 127.6 1196.3 128.7 1197 131.5 1197.8 135.9 1198.8 144.1 1200.1 157.8 1201.7 178.9 1203.5 209.2 1206.1 259.8 1213.3 407.4 1215.4 439.6 1216.9 458.3 1218.2 469.6 1219.3 475.8 1220 478.7 1220.6 479.7 1221.1 480.1 1221.6 479.7 1222.1 478.7 1222.9 475.8 1223.7 471.4 1224.7 463.3 1226 449.6 1227.5 428.4 1229.4 398.2 1231.9 347.5 1239.2 200 1241.3 167.8 1242.8 149.1 1244.1 137.7 1245.1 131.5 1245.9 128.7 1246.4 127.6 1246.9 127.3 1247.5 127.6 1248 128.7 1248.8 131.5 1249.5 135.9 1250.6 144.1 1251.9 157.8 1253.4 178.9 1255.2 209.2"/>
    <polyline class="st5" points="1255.2 209.2 1257.8 259.8 1265 407.4 1267.1 439.6 1268.7 458.3 1270 469.6 1271 475.8 1271.8 478.7 1272.3 479.7 1272.8 480.1 1273.3 479.7 1273.8 478.7 1274.6 475.8 1275.4 471.4 1276.4 463.3 1277.7 449.6 1279.3 428.4 1281.1 398.2 1283.7 347.5 1290.9 200 1293 167.8 1294.5 149.1 1295.8 137.7 1296.8 131.5 1297.6 128.7 1298.1 127.6 1298.7 127.3 1299.2 127.6 1299.7 128.7 1300.5 131.5 1301.2 135.9 1302.3 144.1 1303.6 157.8 1305.1 178.9 1306.9 209.2 1309.5 259.8 1316.8 407.4 1318.8 439.6 1320.4 458.3 1321.7 469.6 1322.7 475.8 1323.5 478.7 1324 479.7 1324.5 480.1 1325 479.7 1325.6 478.7 1326.3 475.8 1327.1 471.4 1328.1 463.3 1329.4 449.6 1331 428.4 1332.8 398.2 1335.4 347.5 1342.6 200 1344.7 167.8 1346.2 149.1 1347.5 137.7 1348.6 131.5 1349.3 128.7 1349.9 127.6 1350.4 127.3 1350.9 127.6 1351.4 128.7 1352.2 131.5 1353 135.9 1354 144.1 1355.3 157.8 1356.8 178.9 1358.7 209.2 1361.2 259.8 1368.5 407.4 1370.5 439.6 1372.1 458.3 1373.4 469.6 1374.4 475.8 1375.2 478.7 1375.7 479.7 1376.2 480.1 1376.8 479.7 1377.3 478.7 1378 475.8 1378.8 471.4 1379.9 463.3 1381.2 449.6 1382.7 428.4 1384.5 398.2 1387.1 347.5 1394.3 200 1396.4 167.8 1398 149.1 1399.3 137.7 1400.3 131.5 1401.1 128.7 1401.6 127.6 1402.1 127.3 1402.6 127.6 1403.1 128.7 1403.9 131.5 1404.7 135.9 1405.7 144.1 1407 157.8 1408.6 178.9 1410.4 209.2 1413 259.8 1420.2 407.4 1422.3 439.6 1423.8 458.3 1425.1 469.6 1426.1 475.8 1426.9 478.7 1427.4 479.7 1428 480.1 1428.5 479.7 1429 478.7 1429.8 475.8 1430.5 471.4 1431.6 463.3 1432.9 449.6 1434.4 428.4 1436.2 398.2 1438.8 347.5 1441.7 291.2 1445.3 236.3 1447.3 210.1 1449.2 192 1450.5 182.3 1451.5 176.6 1452.5 173"/>
    <polyline class="st5" points="1452.5 173 1453.3 171.6 1453.8 171.4 1454.3 171.6 1454.8 172.4 1455.6 174.6 1456.7 179.2 1457.7 185.8 1459 196.6 1460.5 213.1 1462.6 239.9 1465.5 283 1471.4 374.6 1473.5 400.1 1475 415.4 1476.3 425.1 1477.3 430.7 1478.4 434.3 1479.2 435.7 1479.7 436 1480.2 435.7 1480.7 434.9 1481.5 432.8 1482.5 428.1 1483.6 421.6 1484.8 410.7 1486.4 394.2 1488.5 367.4 1491.3 324.4 1497.3 232.8 1499.3 207.2 1500.9 192 1502.2 182.3 1503.2 176.6 1504.2 173 1505 171.6 1505.5 171.4 1506 171.6 1506.6 172.4 1507.3 174.6 1508.4 179.2 1509.4 185.8 1510.7 196.6 1512.3 213.1 1514.3 239.9 1517.2 283 1523.1 374.6 1525.2 400.1 1526.7 415.4 1528 425.1 1529.1 430.7 1530.1 434.3 1530.9 435.7 1531.4 436 1531.9 435.7 1532.4 434.9 1533.2 432.8 1534.2 428.1 1535.3 421.6 1536.6 410.7 1538.1 394.2 1540.2 367.4 1543 324.4 1549 232.8 1551 207.2 1552.6 192 1553.9 182.3 1554.9 176.6 1556 173 1556.7 171.6 1557.2 171.4 1557.8 171.6 1558.3 172.4 1559.1 174.6 1560.1 179.2 1561.1 185.8 1562.4 196.6 1564 213.1 1566 239.9 1568.9 283 1574.8 374.6 1576.9 400.1 1578.5 415.4 1579.7 425.1 1580.8 430.7 1581.8 434.3 1582.6 435.7 1583.1 436 1583.6 435.7 1584.1 434.9 1584.9 432.8 1586 428.1 1587 421.6 1588.3 410.7 1589.8 394.2 1591.9 367.4 1594.7 324.4 1600.7 232.8 1602.8 207.2 1604.3 192 1605.6 182.3 1606.6 176.6 1607.7 173 1608.5 171.6 1609 171.4 1609.5 171.6 1610 172.4 1610.8 174.6 1611.8 179.2 1612.8 185.8 1614.1 196.6 1615.7 213.1 1617.8 239.9 1620.6 283 1626.6 374.6 1628.6 400.1 1630.2 415.4 1631.5 425.1 1632.5 430.7 1633.5 434.3 1634.3 435.7 1634.8 436 1635.3 435.7 1635.9 434.9 1636.6 432.8 1637.7 428.1 1638.7 421.6 1640 410.7"/>
    <polyline class="st5" points="1640 410.7 1641.6 394.2 1643.6 367.4 1646.5 324.4 1652.4 232.8 1654.5 207.2 1656 192 1657.3 182.3 1658.4 176.6 1659.4 173 1660.2 171.6 1660.7 171.4 1661.2 171.6 1661.7 172.4 1662.5 174.6 1663.5 179.2 1664.6 185.8 1665.9 196.6 1667.4 213.1 1669.5 239.9 1672.3 283 1678.3 374.6 1680.3 400.1 1681.9 415.4 1683.2 425.1 1684.2 430.7 1685.3 434.3 1686 435.7 1686.5 436 1687.1 435.7 1687.6 434.9 1688.4 432.8 1689.4 428.1 1690.4 421.6 1691.7 410.7 1693.3 394.2 1695.3 367.4 1698.2 324.4 1699.2 307.8"/>
  </g>
  <g class="st22">
    <line class="st4" x1="613.4" y1="497.7" x2="613.4" y2="109.6"/>
    <line class="st4" x1="1750.9" y1="497.7" x2="1750.9" y2="109.6"/>
    <line class="st4" x1="613.4" y1="497.7" x2="1750.9" y2="497.7"/>
    <line class="st4" x1="613.4" y1="109.6" x2="1750.9" y2="109.6"/>
  </g>
  <g class="st23">
    <line class="st1" x1="531.2" y1="168.4" x2="1740.4" y2="168.4"/>
  </g>
  <g class="st26">
    <line class="st1" x1="540" y1="124.2" x2="1749.3" y2="124.2"/>
  </g>
  <g class="st27">
    <line class="st1" x1="531.2" y1="219.8" x2="1740.4" y2="219.8"/>
  </g>
  <g class="st28">
    <line class="st1" x1="534.7" y1="291.5" x2="1744" y2="291.5"/>
  </g>
  <g class="st24">
    <g class="st45">
      <line class="st1" x1="923.1" y1="11.8" x2="923.1" y2="510.5"/>
    </g>
  </g>
  <g class="st39">
    <text class="st8" transform="translate(728.6 80)"><tspan x="0" y="0">01</tspan></text>
  </g>
  <g class="st40">
    <g class="st41">
      <line class="st1" x1="1182.3" y1="11.8" x2="1182.3" y2="510.5"/>
    </g>
  </g>
  <g class="st42">
    <text class="st8" transform="translate(1028.1 73.2)"><tspan x="0" y="0">11</tspan></text>
  </g>
  <g class="st43">
    <text class="st8" transform="translate(1287.3 80)"><tspan x="0" y="0">11</tspan></text>
  </g>
  <g class="st46">
    <text class="st8" transform="translate(1578.4 73.2)"><tspan x="0" y="0">10</tspan></text>
  </g>
  <g class="st47">
    <g class="st48">
      <line class="st1" x1="1442" y1="11.8" x2="1442" y2="510.5"/>
    </g>
  </g>
  <g class="st44">
    <text class="st7" transform="translate(893.1 589.4)"><tspan x="0" y="0">Naive</tspan></text>
    <text class="st7" transform="translate(985 589.4)"><tspan x="0" y="0"> </tspan></text>
    <text class="st7" transform="translate(994.5 589.4)"><tspan x="0" y="0">transmission</tspan></text>
    <text class="st7" transform="translate(1206.1 589.4)"><tspan x="0" y="0"> </tspan></text>
    <text class="st7" transform="translate(1215.7 589.4)"><tspan x="0" y="0">app</tspan><tspan class="st60" x="61.8" y="0">r</tspan><tspan class="st59" x="74.6" y="0">oach</tspan></text>
    <text class="st6" transform="translate(893.1 626.7)"><tspan x="0" y="0">Using a single carrier wave and use the </tspan></text>
    <text class="st6" transform="translate(893.1 664)"><tspan x="0" y="0">amplitude to transmit data.</tspan></text>
  </g>
</svg>