<?xml version="1.0" encoding="UTF-8"?>
<svg id="Ebene_1" xmlns="http://www.w3.org/2000/svg" xmlns:xlink="http://www.w3.org/1999/xlink" version="1.1" viewBox="0 0 1110 432">
  <!-- Generator: Adobe Illustrator 29.4.0, SVG Export Plug-In . SVG Version: 2.1.0 Build 152)  -->
  <defs>
    <style>
      .st0, .st1, .st2, .st3 {
        fill: none;
      }

      .st1 {
        stroke: #b0b0b0;
      }

      .st1, .st4, .st5, .st3 {
        stroke-linejoin: round;
      }

      .st1, .st5, .st2 {
        stroke-width: .8px;
      }

      .st1, .st2 {
        stroke-linecap: square;
      }

      .st6 {
        clip-path: url(#clippath-11);
      }

      .st7 {
        clip-path: url(#clippath-10);
      }

      .st8 {
        clip-path: url(#clippath-15);
      }

      .st9 {
        clip-path: url(#clippath-13);
      }

      .st10 {
        clip-path: url(#clippath-14);
      }

      .st11 {
        clip-path: url(#clippath-12);
      }

      .st12 {
        clip-path: url(#clippath-1);
      }

      .st13 {
        clip-path: url(#clippath-3);
      }

      .st14 {
        clip-path: url(#clippath-4);
      }

      .st15 {
        clip-path: url(#clippath-2);
      }

      .st16 {
        clip-path: url(#clippath-7);
      }

      .st17 {
        clip-path: url(#clippath-6);
      }

      .st18 {
        clip-path: url(#clippath-9);
      }

      .st19 {
        clip-path: url(#clippath-8);
      }

      .st20 {
        clip-path: url(#clippath-5);
      }

      .st21 {
        fill: #fff;
      }

      .st4 {
        fill: #53becb;
        stroke: #53becb;
      }

      .st5, .st2, .st3 {
        stroke: #000;
      }

      .st3 {
        stroke-dasharray: 3.7 1.6;
      }

      .st22 {
        clip-path: url(#clippath);
      }
    </style>
    <clipPath id="clippath">
      <rect class="st0" x="394.1" y="51.8" width="332.6" height="332.6"/>
    </clipPath>
    <clipPath id="clippath-1">
      <rect class="st0" x="394.1" y="51.8" width="332.6" height="332.6"/>
    </clipPath>
    <clipPath id="clippath-2">
      <rect class="st0" x="394.1" y="51.8" width="332.6" height="332.6"/>
    </clipPath>
    <clipPath id="clippath-3">
      <rect class="st0" x="394.1" y="51.8" width="332.6" height="332.6"/>
    </clipPath>
    <clipPath id="clippath-4">
      <rect class="st0" x="394.1" y="51.8" width="332.6" height="332.6"/>
    </clipPath>
    <clipPath id="clippath-5">
      <rect class="st0" x="394.1" y="51.8" width="332.6" height="332.6"/>
    </clipPath>
    <clipPath id="clippath-6">
      <rect class="st0" x="394.1" y="51.8" width="332.6" height="332.6"/>
    </clipPath>
    <clipPath id="clippath-7">
      <rect class="st0" x="394.1" y="51.8" width="332.6" height="332.6"/>
    </clipPath>
    <clipPath id="clippath-8">
      <rect class="st0" x="394.1" y="51.8" width="332.6" height="332.6"/>
    </clipPath>
    <clipPath id="clippath-9">
      <rect class="st0" x="394.1" y="51.8" width="332.6" height="332.6"/>
    </clipPath>
    <clipPath id="clippath-10">
      <rect class="st0" x="394.1" y="51.8" width="332.6" height="332.6"/>
    </clipPath>
    <clipPath id="clippath-11">
      <rect class="st0" x="394.1" y="51.8" width="332.6" height="332.6"/>
    </clipPath>
    <clipPath id="clippath-12">
      <rect class="st0" x="394.1" y="51.8" width="332.6" height="332.6"/>
    </clipPath>
    <clipPath id="clippath-13">
      <rect class="st0" x="394.1" y="51.8" width="332.6" height="332.6"/>
    </clipPath>
    <clipPath id="clippath-14">
      <rect class="st0" x="394.1" y="51.8" width="332.6" height="332.6"/>
    </clipPath>
    <clipPath id="clippath-15">
      <rect class="st0" x="394.1" y="51.8" width="332.6" height="332.6"/>
    </clipPath>
  </defs>
  <g id="figure_1">
    <g id="patch_1">
      <path class="st21" d="M339,432h432V0h-432v432Z"/>
    </g>
    <g id="axes_1">
      <g id="patch_2">
        <path class="st21" d="M394.1,384.5h332.6V51.8h-332.6v332.6Z"/>
      </g>
      <g id="PathCollection_1">
        <g class="st22">
          <g>
            <path id="m08b959e5d5" class="st4" d="M671.3,224.3c1.6,0,3.2-.6,4.3-1.8,1.1-1.1,1.8-2.7,1.8-4.3s-.6-3.2-1.8-4.3c-1.1-1.1-2.7-1.8-4.3-1.8s-3.2.6-4.3,1.8c-1.1,1.1-1.8,2.7-1.8,4.3s.6,3.2,1.8,4.3c1.1,1.1,2.7,1.8,4.3,1.8Z"/>
            <path id="m08b959e5d51" data-name="m08b959e5d5" class="st4" d="M638.8,145.9c1.6,0,3.2-.6,4.3-1.8,1.1-1.1,1.8-2.7,1.8-4.3s-.6-3.2-1.8-4.3c-1.1-1.1-2.7-1.8-4.3-1.8s-3.2.6-4.3,1.8c-1.1,1.1-1.8,2.7-1.8,4.3s.6,3.2,1.8,4.3c1.1,1.1,2.7,1.8,4.3,1.8Z"/>
            <path id="m08b959e5d52" data-name="m08b959e5d5" class="st4" d="M560.4,113.4c1.6,0,3.2-.6,4.3-1.8,1.1-1.1,1.8-2.7,1.8-4.3s-.6-3.2-1.8-4.3c-1.1-1.1-2.7-1.8-4.3-1.8s-3.2.6-4.3,1.8c-1.1,1.1-1.8,2.7-1.8,4.3s.6,3.2,1.8,4.3c1.1,1.1,2.7,1.8,4.3,1.8Z"/>
            <path id="m08b959e5d53" data-name="m08b959e5d5" class="st4" d="M482,145.9c1.6,0,3.2-.6,4.3-1.8,1.1-1.1,1.8-2.7,1.8-4.3s-.6-3.2-1.8-4.3c-1.1-1.1-2.7-1.8-4.3-1.8s-3.2.6-4.3,1.8c-1.1,1.1-1.8,2.7-1.8,4.3s.6,3.2,1.8,4.3c1.1,1.1,2.7,1.8,4.3,1.8Z"/>
            <path id="m08b959e5d54" data-name="m08b959e5d5" class="st4" d="M449.5,224.3c1.6,0,3.2-.6,4.3-1.8,1.1-1.1,1.8-2.7,1.8-4.3s-.6-3.2-1.8-4.3c-1.1-1.1-2.7-1.8-4.3-1.8s-3.2.6-4.3,1.8c-1.1,1.1-1.8,2.7-1.8,4.3s.6,3.2,1.8,4.3c1.1,1.1,2.7,1.8,4.3,1.8Z"/>
            <path id="m08b959e5d55" data-name="m08b959e5d5" class="st4" d="M482,302.7c1.6,0,3.2-.6,4.3-1.8,1.1-1.1,1.8-2.7,1.8-4.3s-.6-3.2-1.8-4.3c-1.1-1.1-2.7-1.8-4.3-1.8s-3.2.6-4.3,1.8c-1.1,1.1-1.8,2.7-1.8,4.3s.6,3.2,1.8,4.3c1.1,1.1,2.7,1.8,4.3,1.8Z"/>
            <path id="m08b959e5d56" data-name="m08b959e5d5" class="st4" d="M560.4,335.2c1.6,0,3.2-.6,4.3-1.8,1.1-1.1,1.8-2.7,1.8-4.3s-.6-3.2-1.8-4.3c-1.1-1.1-2.7-1.8-4.3-1.8s-3.2.6-4.3,1.8c-1.1,1.1-1.8,2.7-1.8,4.3s.6,3.2,1.8,4.3c1.1,1.1,2.7,1.8,4.3,1.8Z"/>
            <path id="m08b959e5d57" data-name="m08b959e5d5" class="st4" d="M638.8,302.7c1.6,0,3.2-.6,4.3-1.8,1.1-1.1,1.8-2.7,1.8-4.3s-.6-3.2-1.8-4.3c-1.1-1.1-2.7-1.8-4.3-1.8s-3.2.6-4.3,1.8c-1.1,1.1-1.8,2.7-1.8,4.3s.6,3.2,1.8,4.3c1.1,1.1,2.7,1.8,4.3,1.8Z"/>
          </g>
        </g>
      </g>
      <g id="matplotlib.axis_1">
        <g id="xtick_1">
          <g id="line2d_1">
            <g class="st12">
              <path class="st1" d="M394.1,384.5V51.8"/>
            </g>
          </g>
          <g id="line2d_2">
            <path id="m88cf6ede08" class="st5" d="M394.1,384.5v3.5"/>
          </g>
          <g id="text_1">
            <g>
              <path id="DejaVuSans-2212" d="M383,395.5h6.3v.8h-6.3v-.8Z"/>
              <path id="DejaVuSans-31" d="M391.6,398.2h1.6v-5.6l-1.8.4v-.9l1.7-.4h1v6.5h1.6v.8h-4.2v-.8Z"/>
              <path id="DejaVuSans-2e" d="M397.7,397.8h1v1.2h-1v-1.2Z"/>
              <path id="DejaVuSans-35" d="M400.9,391.8h3.9v.8h-3v1.8c.1,0,.3,0,.4-.1.1,0,.3,0,.4,0,.8,0,1.5.2,1.9.7.5.4.7,1,.7,1.8s-.2,1.4-.7,1.8c-.5.4-1.2.7-2.1.7s-.6,0-.9,0c-.3,0-.6-.1-1-.2v-1c.3.2.6.3.9.4s.6.1,1,.1c.6,0,1-.1,1.3-.4.3-.3.5-.7.5-1.2s-.2-.9-.5-1.2c-.3-.3-.8-.4-1.3-.4s-.5,0-.8,0c-.3,0-.5.1-.8.3v-3.7Z"/>
            </g>
          </g>
        </g>
        <g id="xtick_2">
          <g id="line2d_3">
            <g class="st15">
              <path class="st1" d="M449.5,384.5V51.8"/>
            </g>
          </g>
          <g id="line2d_4">
            <path id="m88cf6ede081" data-name="m88cf6ede08" class="st5" d="M449.5,384.5v3.5"/>
          </g>
          <g id="text_2">
            <g>
              <path id="DejaVuSans-22121" data-name="DejaVuSans-2212" d="M438.4,395.5h6.3v.8h-6.3v-.8Z"/>
              <path id="DejaVuSans-311" data-name="DejaVuSans-31" d="M447,398.2h1.6v-5.6l-1.8.4v-.9l1.7-.4h1v6.5h1.6v.8h-4.2v-.8Z"/>
              <path id="DejaVuSans-2e1" data-name="DejaVuSans-2e" d="M453.2,397.8h1v1.2h-1v-1.2Z"/>
              <path id="DejaVuSans-30" d="M458.5,392.4c-.5,0-.9.3-1.1.8-.3.5-.4,1.3-.4,2.3s.1,1.7.4,2.2c.3.5.6.8,1.1.8s.9-.3,1.2-.8c.3-.5.4-1.2.4-2.2s-.1-1.8-.4-2.3c-.3-.5-.6-.8-1.2-.8ZM458.5,391.7c.8,0,1.4.3,1.9,1,.4.6.6,1.6.6,2.8s-.2,2.2-.6,2.8c-.4.6-1.1,1-1.9,1s-1.4-.3-1.9-1c-.4-.6-.6-1.6-.6-2.8s.2-2.2.6-2.8c.4-.6,1.1-1,1.9-1Z"/>
            </g>
          </g>
        </g>
        <g id="xtick_3">
          <g id="line2d_5">
            <g class="st13">
              <path class="st1" d="M505,384.5V51.8"/>
            </g>
          </g>
          <g id="line2d_6">
            <path id="m88cf6ede082" data-name="m88cf6ede08" class="st5" d="M505,384.5v3.5"/>
          </g>
          <g id="text_3">
            <g>
              <path id="DejaVuSans-22122" data-name="DejaVuSans-2212" d="M493.9,395.5h6.3v.8h-6.3v-.8Z"/>
              <path id="DejaVuSans-301" data-name="DejaVuSans-30" d="M504.4,392.4c-.5,0-.9.3-1.1.8-.3.5-.4,1.3-.4,2.3s.1,1.7.4,2.2c.3.5.6.8,1.1.8s.9-.3,1.2-.8c.3-.5.4-1.2.4-2.2s-.1-1.8-.4-2.3c-.3-.5-.6-.8-1.2-.8ZM504.4,391.7c.8,0,1.4.3,1.9,1,.4.6.6,1.6.6,2.8s-.2,2.2-.6,2.8c-.4.6-1.1,1-1.9,1s-1.4-.3-1.9-1c-.4-.6-.6-1.6-.6-2.8s.2-2.2.6-2.8c.4-.6,1.1-1,1.9-1Z"/>
              <path id="DejaVuSans-2e2" data-name="DejaVuSans-2e" d="M508.6,397.8h1v1.2h-1v-1.2Z"/>
              <path id="DejaVuSans-351" data-name="DejaVuSans-35" d="M511.8,391.8h3.9v.8h-3v1.8c.1,0,.3,0,.4-.1.1,0,.3,0,.4,0,.8,0,1.5.2,1.9.7.5.4.7,1,.7,1.8s-.2,1.4-.7,1.8c-.5.4-1.2.7-2.1.7s-.6,0-.9,0c-.3,0-.6-.1-1-.2v-1c.3.2.6.3.9.4s.6.1,1,.1c.6,0,1-.1,1.3-.4.3-.3.5-.7.5-1.2s-.2-.9-.5-1.2c-.3-.3-.8-.4-1.3-.4s-.5,0-.8,0c-.3,0-.5.1-.8.3v-3.7Z"/>
            </g>
          </g>
        </g>
        <g id="xtick_4">
          <g id="line2d_7">
            <g class="st14">
              <path class="st1" d="M560.4,384.5V51.8"/>
            </g>
          </g>
          <g id="line2d_8">
            <path id="m88cf6ede083" data-name="m88cf6ede08" class="st5" d="M560.4,384.5v3.5"/>
          </g>
          <g id="text_4">
            <g>
              <path id="DejaVuSans-302" data-name="DejaVuSans-30" d="M555.6,392.4c-.5,0-.9.3-1.1.8-.3.5-.4,1.3-.4,2.3s.1,1.7.4,2.2c.3.5.6.8,1.1.8s.9-.3,1.2-.8c.3-.5.4-1.2.4-2.2s-.1-1.8-.4-2.3c-.3-.5-.6-.8-1.2-.8ZM555.6,391.7c.8,0,1.4.3,1.9,1,.4.6.6,1.6.6,2.8s-.2,2.2-.6,2.8c-.4.6-1.1,1-1.9,1s-1.4-.3-1.9-1c-.4-.6-.6-1.6-.6-2.8s.2-2.2.6-2.8c.4-.6,1.1-1,1.9-1Z"/>
              <path id="DejaVuSans-2e3" data-name="DejaVuSans-2e" d="M559.9,397.8h1v1.2h-1v-1.2Z"/>
              <path id="DejaVuSans-303" data-name="DejaVuSans-30" d="M565.2,392.4c-.5,0-.9.3-1.1.8-.3.5-.4,1.3-.4,2.3s.1,1.7.4,2.2c.3.5.6.8,1.1.8s.9-.3,1.2-.8c.3-.5.4-1.2.4-2.2s-.1-1.8-.4-2.3c-.3-.5-.6-.8-1.2-.8ZM565.2,391.7c.8,0,1.4.3,1.9,1,.4.6.6,1.6.6,2.8s-.2,2.2-.6,2.8c-.4.6-1.1,1-1.9,1s-1.4-.3-1.9-1c-.4-.6-.6-1.6-.6-2.8s.2-2.2.6-2.8c.4-.6,1.1-1,1.9-1Z"/>
            </g>
          </g>
        </g>
        <g id="xtick_5">
          <g id="line2d_9">
            <g class="st20">
              <path class="st1" d="M615.8,384.5V51.8"/>
            </g>
          </g>
          <g id="line2d_10">
            <path id="m88cf6ede084" data-name="m88cf6ede08" class="st5" d="M615.8,384.5v3.5"/>
          </g>
          <g id="text_5">
            <g>
              <path id="DejaVuSans-304" data-name="DejaVuSans-30" d="M611.1,392.4c-.5,0-.9.3-1.1.8-.3.5-.4,1.3-.4,2.3s.1,1.7.4,2.2c.3.5.6.8,1.1.8s.9-.3,1.2-.8c.3-.5.4-1.2.4-2.2s-.1-1.8-.4-2.3c-.3-.5-.6-.8-1.2-.8ZM611.1,391.7c.8,0,1.4.3,1.9,1,.4.6.6,1.6.6,2.8s-.2,2.2-.6,2.8c-.4.6-1.1,1-1.9,1s-1.4-.3-1.9-1c-.4-.6-.6-1.6-.6-2.8s.2-2.2.6-2.8c.4-.6,1.1-1,1.9-1Z"/>
              <path id="DejaVuSans-2e4" data-name="DejaVuSans-2e" d="M615.3,397.8h1v1.2h-1v-1.2Z"/>
              <path id="DejaVuSans-352" data-name="DejaVuSans-35" d="M618.5,391.8h3.9v.8h-3v1.8c.1,0,.3,0,.4-.1.1,0,.3,0,.4,0,.8,0,1.5.2,1.9.7.5.4.7,1,.7,1.8s-.2,1.4-.7,1.8c-.5.4-1.2.7-2.1.7s-.6,0-.9,0c-.3,0-.6-.1-1-.2v-1c.3.2.6.3.9.4s.6.1,1,.1c.6,0,1-.1,1.3-.4.3-.3.5-.7.5-1.2s-.2-.9-.5-1.2c-.3-.3-.8-.4-1.3-.4s-.5,0-.8,0c-.3,0-.5.1-.8.3v-3.7Z"/>
            </g>
          </g>
        </g>
        <g id="xtick_6">
          <g id="line2d_11">
            <g class="st17">
              <path class="st1" d="M671.3,384.5V51.8"/>
            </g>
          </g>
          <g id="line2d_12">
            <path id="m88cf6ede085" data-name="m88cf6ede08" class="st5" d="M671.3,384.5v3.5"/>
          </g>
          <g id="text_6">
            <g>
              <path id="DejaVuSans-312" data-name="DejaVuSans-31" d="M664.6,398.2h1.6v-5.6l-1.8.4v-.9l1.7-.4h1v6.5h1.6v.8h-4.2v-.8Z"/>
              <path id="DejaVuSans-2e5" data-name="DejaVuSans-2e" d="M670.8,397.8h1v1.2h-1v-1.2Z"/>
              <path id="DejaVuSans-305" data-name="DejaVuSans-30" d="M676,392.4c-.5,0-.9.3-1.1.8-.3.5-.4,1.3-.4,2.3s.1,1.7.4,2.2c.3.5.6.8,1.1.8s.9-.3,1.2-.8c.3-.5.4-1.2.4-2.2s-.1-1.8-.4-2.3c-.3-.5-.6-.8-1.2-.8ZM676,391.7c.8,0,1.4.3,1.9,1,.4.6.6,1.6.6,2.8s-.2,2.2-.6,2.8c-.4.6-1.1,1-1.9,1s-1.4-.3-1.9-1c-.4-.6-.6-1.6-.6-2.8s.2-2.2.6-2.8c.4-.6,1.1-1,1.9-1Z"/>
            </g>
          </g>
        </g>
        <g id="xtick_7">
          <g id="line2d_13">
            <g class="st16">
              <path class="st1" d="M726.7,384.5V51.8"/>
            </g>
          </g>
          <g id="line2d_14">
            <path id="m88cf6ede086" data-name="m88cf6ede08" class="st5" d="M726.7,384.5v3.5"/>
          </g>
          <g id="text_7">
            <g>
              <path id="DejaVuSans-313" data-name="DejaVuSans-31" d="M720,398.2h1.6v-5.6l-1.8.4v-.9l1.7-.4h1v6.5h1.6v.8h-4.2v-.8Z"/>
              <path id="DejaVuSans-2e6" data-name="DejaVuSans-2e" d="M726.2,397.8h1v1.2h-1v-1.2Z"/>
              <path id="DejaVuSans-353" data-name="DejaVuSans-35" d="M729.4,391.8h3.9v.8h-3v1.8c.1,0,.3,0,.4-.1.1,0,.3,0,.4,0,.8,0,1.5.2,1.9.7.5.4.7,1,.7,1.8s-.2,1.4-.7,1.8c-.5.4-1.2.7-2.1.7s-.6,0-.9,0c-.3,0-.6-.1-1-.2v-1c.3.2.6.3.9.4s.6.1,1,.1c.6,0,1-.1,1.3-.4.3-.3.5-.7.5-1.2s-.2-.9-.5-1.2c-.3-.3-.8-.4-1.3-.4s-.5,0-.8,0c-.3,0-.5.1-.8.3v-3.7Z"/>
            </g>
          </g>
        </g>
        <g id="text_8">
          <g>
            <path id="DejaVuSans-49" d="M532.9,405.5h1v7.3h-1v-7.3Z"/>
            <path id="DejaVuSans-6e" d="M540.3,409.5v3.3h-.9v-3.3c0-.5-.1-.9-.3-1.2-.2-.3-.5-.4-.9-.4s-.9.2-1.1.5c-.3.3-.4.7-.4,1.3v3.1h-.9v-5.5h.9v.9c.2-.3.5-.6.8-.7.3-.2.6-.2,1-.2.6,0,1.1.2,1.4.6.3.4.5,1,.5,1.7Z"/>
            <path id="DejaVuSans-2d" d="M541.7,409.6h2.6v.8h-2.6v-.8Z"/>
            <path id="DejaVuSans-70" d="M546.6,411.9v2.9h-.9v-7.5h.9v.8c.2-.3.4-.6.7-.7.3-.2.6-.2,1-.2.7,0,1.2.3,1.6.8.4.5.6,1.2.6,2.1s-.2,1.6-.6,2.1c-.4.5-1,.8-1.6.8s-.7,0-1-.2c-.3-.2-.5-.4-.7-.7ZM549.7,410c0-.7-.1-1.2-.4-1.6s-.6-.6-1.1-.6-.9.2-1.1.6-.4.9-.4,1.6.1,1.2.4,1.6c.3.4.6.6,1.1.6s.8-.2,1.1-.6c.3-.4.4-.9.4-1.6Z"/>
            <path id="DejaVuSans-68" d="M556.6,409.5v3.3h-.9v-3.3c0-.5-.1-.9-.3-1.2-.2-.3-.5-.4-.9-.4s-.9.2-1.1.5c-.3.3-.4.7-.4,1.3v3.1h-.9v-7.6h.9v3c.2-.3.5-.6.8-.7.3-.2.6-.2,1-.2.6,0,1.1.2,1.4.6.3.4.5,1,.5,1.7Z"/>
            <path id="DejaVuSans-61" d="M560.9,410c-.7,0-1.2,0-1.5.2s-.4.4-.4.9.1.6.3.8c.2.2.5.3.9.3s.9-.2,1.2-.5.5-.8.5-1.4v-.2h-.9ZM562.7,409.6v3.1h-.9v-.8c-.2.3-.5.6-.8.7-.3.2-.7.2-1.1.2s-1-.2-1.3-.5c-.3-.3-.5-.7-.5-1.3s.2-1.1.6-1.4c.4-.3,1-.5,1.8-.5h1.3c0-.5-.1-.8-.4-1s-.7-.3-1.1-.3-.6,0-.9.1c-.3,0-.6.2-.9.3v-.8c.3-.1.6-.2,1-.3.3,0,.6,0,.9,0,.8,0,1.4.2,1.8.6.4.4.6,1,.6,1.9Z"/>
            <path id="DejaVuSans-73" d="M568,407.4v.9c-.3-.1-.5-.2-.8-.3-.3,0-.6,0-.9,0-.4,0-.8,0-1,.2-.2.1-.3.3-.3.6s0,.4.2.5.5.2,1,.3h.3c.6.2,1.1.4,1.4.6s.4.6.4,1-.2.9-.6,1.2c-.4.3-1,.4-1.7.4s-.6,0-.9,0c-.3,0-.7-.1-1-.3v-.9c.3.2.7.3,1,.4.3,0,.6.1,1,.1s.7,0,1-.2c.2-.1.3-.3.3-.6s0-.4-.2-.6c-.2-.1-.5-.3-1.1-.4h-.3c-.6-.2-1-.4-1.2-.6-.2-.2-.4-.6-.4-1s.2-.9.5-1.2c.4-.3.9-.4,1.6-.4s.6,0,.9,0c.3,0,.6.1.8.2Z"/>
            <path id="DejaVuSans-65" d="M574.4,409.8v.4h-4.1c0,.6.2,1.1.6,1.4.3.3.8.5,1.4.5s.7,0,1-.1.6-.2,1-.4v.9c-.3.1-.7.2-1,.3s-.7.1-1,.1c-.9,0-1.6-.3-2.1-.8-.5-.5-.8-1.2-.8-2.1s.2-1.6.7-2.1c.5-.5,1.1-.8,2-.8s1.3.2,1.7.7c.4.5.6,1.1.6,1.9ZM573.5,409.5c0-.5-.1-.9-.4-1.2-.3-.3-.6-.4-1.1-.4s-.9.1-1.2.4-.5.7-.5,1.2h3.2Z"/>
            <path id="DejaVuSans-20" d="M575,412.8"/>
            <path id="DejaVuSans-28" d="M581.2,405.2c-.4.7-.8,1.5-1,2.2-.2.7-.3,1.5-.3,2.2s.1,1.5.3,2.2.5,1.5,1,2.2h-.8c-.5-.8-.9-1.5-1.1-2.3-.2-.7-.4-1.5-.4-2.2s.1-1.5.4-2.2c.2-.7.6-1.5,1.1-2.3h.8Z"/>
            <path id="DejaVuSans-491" data-name="DejaVuSans-49" d="M583,405.5h1v7.3h-1v-7.3Z"/>
            <path id="DejaVuSans-29" d="M585.8,405.2h.8c.5.8.9,1.5,1.1,2.3.2.7.4,1.5.4,2.2s-.1,1.5-.4,2.2c-.2.7-.6,1.5-1.1,2.3h-.8c.4-.7.8-1.5,1-2.2.2-.7.3-1.5.3-2.2s-.1-1.5-.3-2.2c-.2-.7-.5-1.5-1-2.2Z"/>
          </g>
        </g>
      </g>
      <g id="matplotlib.axis_2">
        <g id="ytick_1">
          <g id="line2d_15">
            <g class="st19">
              <path class="st1" d="M394.1,384.5h332.6"/>
            </g>
          </g>
          <g id="line2d_16">
            <path id="m143b3811ee" class="st5" d="M394.1,384.5h-3.5"/>
          </g>
          <g id="text_9">
            <g>
              <path id="DejaVuSans-22123" data-name="DejaVuSans-2212" d="M363.9,384.7h6.3v.8h-6.3v-.8Z"/>
              <path id="DejaVuSans-314" data-name="DejaVuSans-31" d="M372.4,387.4h1.6v-5.6l-1.8.4v-.9l1.7-.4h1v6.5h1.6v.8h-4.2v-.8Z"/>
              <path id="DejaVuSans-2e7" data-name="DejaVuSans-2e" d="M378.6,387h1v1.2h-1v-1.2Z"/>
              <path id="DejaVuSans-354" data-name="DejaVuSans-35" d="M381.8,381h3.9v.8h-3v1.8c.1,0,.3,0,.4-.1.1,0,.3,0,.4,0,.8,0,1.5.2,1.9.7.5.4.7,1,.7,1.8s-.2,1.4-.7,1.8c-.5.4-1.2.7-2.1.7s-.6,0-.9,0c-.3,0-.6-.1-1-.2v-1c.3.2.6.3.9.4s.6.1,1,.1c.6,0,1-.1,1.3-.4.3-.3.5-.7.5-1.2s-.2-.9-.5-1.2c-.3-.3-.8-.4-1.3-.4s-.5,0-.8,0c-.3,0-.5.1-.8.3v-3.7Z"/>
            </g>
          </g>
        </g>
        <g id="ytick_2">
          <g id="line2d_17">
            <g class="st18">
              <path class="st1" d="M394.1,329h332.6"/>
            </g>
          </g>
          <g id="line2d_18">
            <path id="m143b3811ee1" data-name="m143b3811ee" class="st5" d="M394.1,329h-3.5"/>
          </g>
          <g id="text_10">
            <g>
              <path id="DejaVuSans-22124" data-name="DejaVuSans-2212" d="M363.9,329.3h6.3v.8h-6.3v-.8Z"/>
              <path id="DejaVuSans-315" data-name="DejaVuSans-31" d="M372.4,332h1.6v-5.6l-1.8.4v-.9l1.7-.4h1v6.5h1.6v.8h-4.2v-.8Z"/>
              <path id="DejaVuSans-2e8" data-name="DejaVuSans-2e" d="M378.6,331.6h1v1.2h-1v-1.2Z"/>
              <path id="DejaVuSans-306" data-name="DejaVuSans-30" d="M383.9,326.2c-.5,0-.9.3-1.1.8-.3.5-.4,1.3-.4,2.3s.1,1.7.4,2.2c.3.5.6.8,1.1.8s.9-.3,1.2-.8c.3-.5.4-1.2.4-2.2s-.1-1.8-.4-2.3c-.3-.5-.6-.8-1.2-.8ZM383.9,325.4c.8,0,1.4.3,1.9,1,.4.6.6,1.6.6,2.8s-.2,2.2-.6,2.8c-.4.6-1.1,1-1.9,1s-1.4-.3-1.9-1c-.4-.6-.6-1.6-.6-2.8s.2-2.2.6-2.8c.4-.6,1.1-1,1.9-1Z"/>
            </g>
          </g>
        </g>
        <g id="ytick_3">
          <g id="line2d_19">
            <g class="st7">
              <path class="st1" d="M394.1,273.6h332.6"/>
            </g>
          </g>
          <g id="line2d_20">
            <path id="m143b3811ee2" data-name="m143b3811ee" class="st5" d="M394.1,273.6h-3.5"/>
          </g>
          <g id="text_11">
            <g>
              <path id="DejaVuSans-22125" data-name="DejaVuSans-2212" d="M363.9,273.8h6.3v.8h-6.3v-.8Z"/>
              <path id="DejaVuSans-307" data-name="DejaVuSans-30" d="M374.4,270.8c-.5,0-.9.3-1.1.8-.3.5-.4,1.3-.4,2.3s.1,1.7.4,2.2c.3.5.6.8,1.1.8s.9-.3,1.2-.8c.3-.5.4-1.2.4-2.2s-.1-1.8-.4-2.3c-.3-.5-.6-.8-1.2-.8ZM374.4,270c.8,0,1.4.3,1.9,1,.4.6.6,1.6.6,2.8s-.2,2.2-.6,2.8c-.4.6-1.1,1-1.9,1s-1.4-.3-1.9-1c-.4-.6-.6-1.6-.6-2.8s.2-2.2.6-2.8c.4-.6,1.1-1,1.9-1Z"/>
              <path id="DejaVuSans-2e9" data-name="DejaVuSans-2e" d="M378.6,276.2h1v1.2h-1v-1.2Z"/>
              <path id="DejaVuSans-355" data-name="DejaVuSans-35" d="M381.8,270.1h3.9v.8h-3v1.8c.1,0,.3,0,.4-.1.1,0,.3,0,.4,0,.8,0,1.5.2,1.9.7.5.4.7,1,.7,1.8s-.2,1.4-.7,1.8c-.5.4-1.2.7-2.1.7s-.6,0-.9,0c-.3,0-.6-.1-1-.2v-1c.3.2.6.3.9.4s.6.1,1,.1c.6,0,1-.1,1.3-.4.3-.3.5-.7.5-1.2s-.2-.9-.5-1.2c-.3-.3-.8-.4-1.3-.4s-.5,0-.8,0c-.3,0-.5.1-.8.3v-3.7Z"/>
            </g>
          </g>
        </g>
        <g id="ytick_4">
          <g id="line2d_21">
            <g class="st6">
              <path class="st1" d="M394.1,218.2h332.6"/>
            </g>
          </g>
          <g id="line2d_22">
            <path id="m143b3811ee3" data-name="m143b3811ee" class="st5" d="M394.1,218.2h-3.5"/>
          </g>
          <g id="text_12">
            <g>
              <path id="DejaVuSans-308" data-name="DejaVuSans-30" d="M374.4,215.3c-.5,0-.9.3-1.1.8-.3.5-.4,1.3-.4,2.3s.1,1.7.4,2.2c.3.5.6.8,1.1.8s.9-.3,1.2-.8c.3-.5.4-1.2.4-2.2s-.1-1.8-.4-2.3c-.3-.5-.6-.8-1.2-.8ZM374.4,214.5c.8,0,1.4.3,1.9,1,.4.6.6,1.6.6,2.8s-.2,2.2-.6,2.8c-.4.6-1.1,1-1.9,1s-1.4-.3-1.9-1c-.4-.6-.6-1.6-.6-2.8s.2-2.2.6-2.8c.4-.6,1.1-1,1.9-1Z"/>
              <path id="DejaVuSans-2e10" data-name="DejaVuSans-2e" d="M378.6,220.7h1v1.2h-1v-1.2Z"/>
              <path id="DejaVuSans-309" data-name="DejaVuSans-30" d="M383.9,215.3c-.5,0-.9.3-1.1.8-.3.5-.4,1.3-.4,2.3s.1,1.7.4,2.2c.3.5.6.8,1.1.8s.9-.3,1.2-.8c.3-.5.4-1.2.4-2.2s-.1-1.8-.4-2.3c-.3-.5-.6-.8-1.2-.8ZM383.9,214.5c.8,0,1.4.3,1.9,1,.4.6.6,1.6.6,2.8s-.2,2.2-.6,2.8c-.4.6-1.1,1-1.9,1s-1.4-.3-1.9-1c-.4-.6-.6-1.6-.6-2.8s.2-2.2.6-2.8c.4-.6,1.1-1,1.9-1Z"/>
            </g>
          </g>
        </g>
        <g id="ytick_5">
          <g id="line2d_23">
            <g class="st11">
              <path class="st1" d="M394.1,162.7h332.6"/>
            </g>
          </g>
          <g id="line2d_24">
            <path id="m143b3811ee4" data-name="m143b3811ee" class="st5" d="M394.1,162.7h-3.5"/>
          </g>
          <g id="text_13">
            <g>
              <path id="DejaVuSans-3010" data-name="DejaVuSans-30" d="M374.4,159.9c-.5,0-.9.3-1.1.8-.3.5-.4,1.3-.4,2.3s.1,1.7.4,2.2c.3.5.6.8,1.1.8s.9-.3,1.2-.8c.3-.5.4-1.2.4-2.2s-.1-1.8-.4-2.3c-.3-.5-.6-.8-1.2-.8ZM374.4,159.1c.8,0,1.4.3,1.9,1,.4.6.6,1.6.6,2.8s-.2,2.2-.6,2.8c-.4.6-1.1,1-1.9,1s-1.4-.3-1.9-1c-.4-.6-.6-1.6-.6-2.8s.2-2.2.6-2.8c.4-.6,1.1-1,1.9-1Z"/>
              <path id="DejaVuSans-2e11" data-name="DejaVuSans-2e" d="M378.6,165.3h1v1.2h-1v-1.2Z"/>
              <path id="DejaVuSans-356" data-name="DejaVuSans-35" d="M381.8,159.2h3.9v.8h-3v1.8c.1,0,.3,0,.4-.1.1,0,.3,0,.4,0,.8,0,1.5.2,1.9.7.5.4.7,1,.7,1.8s-.2,1.4-.7,1.8c-.5.4-1.2.7-2.1.7s-.6,0-.9,0c-.3,0-.6-.1-1-.2v-1c.3.2.6.3.9.4s.6.1,1,.1c.6,0,1-.1,1.3-.4.3-.3.5-.7.5-1.2s-.2-.9-.5-1.2c-.3-.3-.8-.4-1.3-.4s-.5,0-.8,0c-.3,0-.5.1-.8.3v-3.7Z"/>
            </g>
          </g>
        </g>
        <g id="ytick_6">
          <g id="line2d_25">
            <g class="st9">
              <path class="st1" d="M394.1,107.3h332.6"/>
            </g>
          </g>
          <g id="line2d_26">
            <path id="m143b3811ee5" data-name="m143b3811ee" class="st5" d="M394.1,107.3h-3.5"/>
          </g>
          <g id="text_14">
            <g>
              <path id="DejaVuSans-316" data-name="DejaVuSans-31" d="M372.4,110.2h1.6v-5.6l-1.8.4v-.9l1.7-.4h1v6.5h1.6v.8h-4.2v-.8Z"/>
              <path id="DejaVuSans-2e12" data-name="DejaVuSans-2e" d="M378.6,109.8h1v1.2h-1v-1.2Z"/>
              <path id="DejaVuSans-3011" data-name="DejaVuSans-30" d="M383.9,104.4c-.5,0-.9.3-1.1.8-.3.5-.4,1.3-.4,2.3s.1,1.7.4,2.2c.3.5.6.8,1.1.8s.9-.3,1.2-.8c.3-.5.4-1.2.4-2.2s-.1-1.8-.4-2.3c-.3-.5-.6-.8-1.2-.8ZM383.9,103.7c.8,0,1.4.3,1.9,1,.4.6.6,1.6.6,2.8s-.2,2.2-.6,2.8c-.4.6-1.1,1-1.9,1s-1.4-.3-1.9-1c-.4-.6-.6-1.6-.6-2.8s.2-2.2.6-2.8c.4-.6,1.1-1,1.9-1Z"/>
            </g>
          </g>
        </g>
        <g id="ytick_7">
          <g id="line2d_27">
            <g class="st10">
              <path class="st1" d="M394.1,51.8h332.6"/>
            </g>
          </g>
          <g id="line2d_28">
            <path id="m143b3811ee6" data-name="m143b3811ee" class="st5" d="M394.1,51.8h-3.5"/>
          </g>
          <g id="text_15">
            <g>
              <path id="DejaVuSans-317" data-name="DejaVuSans-31" d="M372.4,54.8h1.6v-5.6l-1.8.4v-.9l1.7-.4h1v6.5h1.6v.8h-4.2v-.8Z"/>
              <path id="DejaVuSans-2e13" data-name="DejaVuSans-2e" d="M378.6,54.4h1v1.2h-1v-1.2Z"/>
              <path id="DejaVuSans-357" data-name="DejaVuSans-35" d="M381.8,48.3h3.9v.8h-3v1.8c.1,0,.3,0,.4-.1.1,0,.3,0,.4,0,.8,0,1.5.2,1.9.7.5.4.7,1,.7,1.8s-.2,1.4-.7,1.8c-.5.4-1.2.7-2.1.7s-.6,0-.9,0c-.3,0-.6-.1-1-.2v-1c.3.2.6.3.9.4s.6.1,1,.1c.6,0,1-.1,1.3-.4.3-.3.5-.7.5-1.2s-.2-.9-.5-1.2c-.3-.3-.8-.4-1.3-.4s-.5,0-.8,0c-.3,0-.5.1-.8.3v-3.7Z"/>
            </g>
          </g>
        </g>
        <g id="text_16">
          <g>
            <path id="DejaVuSans-51" d="M350.1,252.3c0,.7.3,1.3.8,1.7.5.4,1.3.6,2.2.6s1.6-.2,2.2-.6c.5-.4.8-1,.8-1.7s-.3-1.3-.8-1.7c-.5-.4-1.3-.6-2.2-.6s-1.6.2-2.2.6c-.5.4-.8,1-.8,1.7ZM356.6,250.9l1.4-1.3v1.2l-1.2,1.1c0,.1,0,.2,0,.2,0,0,0,.1,0,.2,0,1-.3,1.8-1,2.5-.7.6-1.6.9-2.8.9s-2.1-.3-2.8-.9c-.7-.6-1-1.4-1-2.5s.3-1.8,1-2.5c.7-.6,1.6-.9,2.8-.9s1.6.2,2.2.5c.6.3,1,.8,1.3,1.5Z"/>
            <path id="DejaVuSans-75" d="M354.6,247.5h-3.3v-.9h3.3c.5,0,.9-.1,1.2-.3.3-.2.4-.5.4-.9s-.2-.9-.5-1.1c-.3-.3-.7-.4-1.3-.4h-3.1v-.9h5.5v.9h-.8c.3.2.6.5.7.8.2.3.2.6.2,1,0,.6-.2,1.1-.6,1.4-.4.3-1,.5-1.7.5ZM351.1,245.2h0Z"/>
            <path id="DejaVuSans-611" data-name="DejaVuSans-61" d="M354,238.6c0,.7,0,1.2.2,1.5s.4.4.9.4.6-.1.8-.3c.2-.2.3-.5.3-.9s-.2-.9-.5-1.2-.8-.5-1.4-.5h-.2v.9ZM353.6,236.8h3.1v.9h-.8c.3.2.6.5.7.8.2.3.2.7.2,1.1s-.2,1-.5,1.3c-.3.3-.7.5-1.3.5s-1.1-.2-1.4-.6c-.3-.4-.5-1-.5-1.8v-1.3h0c-.4,0-.7.1-1,.4s-.3.7-.3,1.1,0,.6.1.9c0,.3.2.6.3.9h-.8c-.1-.3-.2-.6-.3-1,0-.3,0-.6,0-.9,0-.8.2-1.4.6-1.8.4-.4,1-.6,1.9-.6Z"/>
            <path id="DejaVuSans-64" d="M352.1,231.3h-3v-.9h7.6v.9h-.8c.3.2.6.4.7.7.2.3.2.6.2,1,0,.7-.3,1.2-.8,1.6-.5.4-1.2.6-2.1.6s-1.6-.2-2.1-.6c-.5-.4-.8-1-.8-1.6s0-.8.2-1c.2-.3.4-.5.7-.7ZM354,234.4c.7,0,1.2-.1,1.6-.4.4-.3.6-.6.6-1.1s-.2-.8-.6-1.1c-.4-.3-.9-.4-1.6-.4s-1.2.1-1.6.4c-.4.3-.6.6-.6,1.1s.2.8.6,1.1.9.4,1.6.4Z"/>
            <path id="DejaVuSans-72" d="M352.1,225.4c0,.1-.1.2-.1.3,0,.1,0,.2,0,.4,0,.5.2.9.5,1.2s.8.4,1.4.4h2.9v.9h-5.5v-.9h.9c-.3-.2-.6-.4-.7-.7-.2-.3-.2-.7-.2-1.1s0-.1,0-.2c0,0,0-.2,0-.2h.9Z"/>
            <path id="DejaVuSans-612" data-name="DejaVuSans-61" d="M354,222c0,.7,0,1.2.2,1.5s.4.4.9.4.6-.1.8-.3c.2-.2.3-.5.3-.9s-.2-.9-.5-1.2-.8-.5-1.4-.5h-.2v.9ZM353.6,220.2h3.1v.9h-.8c.3.2.6.5.7.8.2.3.2.7.2,1.1s-.2,1-.5,1.3c-.3.3-.7.5-1.3.5s-1.1-.2-1.4-.6c-.3-.4-.5-1-.5-1.8v-1.3h0c-.4,0-.7.1-1,.4s-.3.7-.3,1.1,0,.6.1.9c0,.3.2.6.3.9h-.8c-.1-.3-.2-.6-.3-1,0-.3,0-.6,0-.9,0-.8.2-1.4.6-1.8.4-.4,1-.6,1.9-.6Z"/>
            <path id="DejaVuSans-74" d="M349.7,217.4h1.6v-1.9h.7v1.9h3c.4,0,.7,0,.9-.2s.2-.4.2-.7v-.9h.8v.9c0,.7-.1,1.2-.4,1.4-.3.3-.7.4-1.4.4h-3v.7h-.7v-.7h-1.6v-.9Z"/>
            <path id="DejaVuSans-751" data-name="DejaVuSans-75" d="M354.6,214.5h-3.3v-.9h3.3c.5,0,.9-.1,1.2-.3.3-.2.4-.5.4-.9s-.2-.9-.5-1.1c-.3-.3-.7-.4-1.3-.4h-3.1v-.9h5.5v.9h-.8c.3.2.6.5.7.8.2.3.2.6.2,1,0,.6-.2,1.1-.6,1.4-.4.3-1,.5-1.7.5ZM351.1,212.2h0Z"/>
            <path id="DejaVuSans-721" data-name="DejaVuSans-72" d="M352.1,204.9c0,.1-.1.2-.1.3,0,.1,0,.2,0,.4,0,.5.2.9.5,1.2s.8.4,1.4.4h2.9v.9h-5.5v-.9h.9c-.3-.2-.6-.4-.7-.7-.2-.3-.2-.7-.2-1.1s0-.1,0-.2c0,0,0-.2,0-.2h.9Z"/>
            <path id="DejaVuSans-651" data-name="DejaVuSans-65" d="M353.8,199.5h.4v4.1c.6,0,1.1-.2,1.4-.6.3-.3.5-.8.5-1.4s0-.7-.1-1-.2-.6-.4-1h.9c.1.3.2.7.3,1s.1.7.1,1c0,.9-.3,1.6-.8,2.1-.5.5-1.2.8-2.1.8s-1.6-.2-2.1-.7c-.5-.5-.8-1.1-.8-2s.2-1.3.7-1.7c.5-.4,1.1-.6,1.9-.6ZM353.5,200.4c-.5,0-.9.1-1.2.4-.3.3-.4.6-.4,1.1s.1.9.4,1.2.7.5,1.2.5v-3.2Z"/>
            <path id="DejaVuSans-201" data-name="DejaVuSans-20" d="M356.7,199"/>
            <path id="DejaVuSans-281" data-name="DejaVuSans-28" d="M349.1,192.7c.7.4,1.5.8,2.2,1,.7.2,1.5.3,2.2.3s1.5-.1,2.2-.3,1.5-.5,2.2-1v.8c-.8.5-1.5.9-2.3,1.1-.7.2-1.5.4-2.2.4s-1.5-.1-2.2-.4c-.7-.2-1.5-.6-2.3-1.1v-.8Z"/>
            <path id="DejaVuSans-511" data-name="DejaVuSans-51" d="M350.1,188c0,.7.3,1.3.8,1.7.5.4,1.3.6,2.2.6s1.6-.2,2.2-.6c.5-.4.8-1,.8-1.7s-.3-1.3-.8-1.7c-.5-.4-1.3-.6-2.2-.6s-1.6.2-2.2.6c-.5.4-.8,1-.8,1.7ZM356.6,186.6l1.4-1.3v1.2l-1.2,1.1c0,.1,0,.2,0,.2,0,0,0,.1,0,.2,0,1-.3,1.8-1,2.5-.7.6-1.6.9-2.8.9s-2.1-.3-2.8-.9c-.7-.6-1-1.4-1-2.5s.3-1.8,1-2.5c.7-.6,1.6-.9,2.8-.9s1.6.2,2.2.5c.6.3,1,.8,1.3,1.5Z"/>
            <path id="DejaVuSans-291" data-name="DejaVuSans-29" d="M349.1,183.2v-.8c.8-.5,1.5-.9,2.3-1.1.7-.2,1.5-.4,2.2-.4s1.5.1,2.2.4c.7.2,1.5.6,2.3,1.1v.8c-.7-.4-1.5-.8-2.2-1-.7-.2-1.5-.3-2.2-.3s-1.5.1-2.2.3c-.7.2-1.5.5-2.2,1Z"/>
          </g>
        </g>
      </g>
      <g id="line2d_29">
        <g class="st8">
          <path class="st3" d="M671.3,218.2v-5.2c-.1,0-.5-5.2-.5-5.2l-.6-5.2-.9-5.2-1.1-5.1-1.3-5.1-1.6-5-1.8-4.9-2-4.8-2.3-4.7-2.5-4.6-2.7-4.5-2.9-4.4-3.1-4.2-3.3-4.1-3.5-3.9-3.7-3.7-3.9-3.5-4-3.4-4.2-3.2-4.3-3-4.5-2.8-4.6-2.5-4.7-2.3-4.8-2.1-4.9-1.9-5-1.6-5-1.4-5.1-1.2-5.2-.9-5.2-.7-5.2-.4-5.2-.2h-5.2c0,0-5.2.4-5.2.4l-5.2.6-5.2.8-5.1,1-5.1,1.3-5,1.5-4.9,1.8-4.8,2-4.7,2.2-4.6,2.4-4.5,2.7-4.4,2.9-4.2,3.1-4.1,3.3-3.9,3.5-3.8,3.6-3.6,3.8-3.4,4-3.2,4.1-3,4.3-2.8,4.4-2.6,4.5-2.4,4.7-2.2,4.8-1.9,4.9-1.7,5-1.5,5-1.2,5.1-1,5.1-.7,5.2-.5,5.2-.2,5.2v5.2l.2,5.2.5,5.2.7,5.2,1,5.1,1.2,5.1,1.5,5,1.7,5,1.9,4.9,2.2,4.8,2.4,4.7,2.6,4.5,2.8,4.4,3,4.3,3.2,4.1,3.4,4,3.6,3.8,3.8,3.6,3.9,3.5,4.1,3.3,4.2,3.1,4.4,2.9,4.5,2.7,4.6,2.4,4.7,2.2,4.8,2,4.9,1.8,5,1.5,5.1,1.3,5.1,1,5.2.8,5.2.6,5.2.3h5.2c0,0,5.2-.1,5.2-.1l5.2-.4,5.2-.7,5.2-.9,5.1-1.2,5-1.4,5-1.6,4.9-1.9,4.8-2.1,4.7-2.3,4.6-2.5,4.5-2.8,4.3-3,4.2-3.2,4-3.4,3.9-3.5,3.7-3.7,3.5-3.9,3.3-4.1,3.1-4.2,2.9-4.4,2.7-4.5,2.5-4.6,2.3-4.7,2-4.8,1.8-4.9,1.6-5,1.3-5.1,1.1-5.1.9-5.2.6-5.2.4-5.2v-5.2h.1"/>
        </g>
      </g>
      <g id="patch_3">
        <path class="st2" d="M394.1,384.5V51.8"/>
      </g>
      <g id="patch_4">
        <path class="st2" d="M726.7,384.5V51.8"/>
      </g>
      <g id="patch_5">
        <path class="st2" d="M394.1,384.5h332.6"/>
      </g>
      <g id="patch_6">
        <path class="st2" d="M394.1,51.8h332.6"/>
      </g>
      <g id="text_17">
        <g>
          <path id="DejaVuSans-3012" data-name="DejaVuSans-30" d="M679.9,214.3c-.5,0-.9.3-1.1.8-.3.5-.4,1.3-.4,2.3s.1,1.7.4,2.2c.3.5.6.8,1.1.8s.9-.3,1.2-.8c.3-.5.4-1.2.4-2.2s-.1-1.8-.4-2.3c-.3-.5-.6-.8-1.2-.8ZM679.9,213.5c.8,0,1.4.3,1.9,1,.4.6.6,1.6.6,2.8s-.2,2.2-.6,2.8c-.4.6-1.1,1-1.9,1s-1.4-.3-1.9-1c-.4-.6-.6-1.6-.6-2.8s.2-2.2.6-2.8c.4-.6,1.1-1,1.9-1Z"/>
          <path id="DejaVuSans-b0" d="M685.5,214.1c-.3,0-.5,0-.7.3-.2.2-.3.4-.3.7s0,.5.3.7.4.3.7.3.5,0,.7-.3c.2-.2.3-.4.3-.7s0-.5-.3-.7c-.2-.2-.4-.3-.7-.3ZM685.5,213.5c.2,0,.4,0,.6.1.2,0,.4.2.5.3.2.1.3.3.3.5,0,.2.1.4.1.6,0,.4-.2.8-.5,1.1s-.7.4-1.1.4-.8-.1-1.1-.4c-.3-.3-.4-.7-.4-1.1s.1-.8.4-1.1c.3-.3.7-.5,1.1-.5Z"/>
        </g>
      </g>
      <g id="text_18">
        <g>
          <path id="DejaVuSans-34" d="M641.6,128.2l-2.5,3.9h2.5v-3.9ZM641.3,127.4h1.2v4.8h1v.8h-1v1.7h-1v-1.7h-3.3v-1l3-4.6Z"/>
          <path id="DejaVuSans-358" data-name="DejaVuSans-35" d="M645.2,127.4h3.9v.8h-3v1.8c.1,0,.3,0,.4-.1.1,0,.3,0,.4,0,.8,0,1.5.2,1.9.7.5.4.7,1,.7,1.8s-.2,1.4-.7,1.8c-.5.4-1.2.7-2.1.7s-.6,0-.9,0c-.3,0-.6-.1-1-.2v-1c.3.2.6.3.9.4s.6.1,1,.1c.6,0,1-.1,1.3-.4.3-.3.5-.7.5-1.2s-.2-.9-.5-1.2c-.3-.3-.8-.4-1.3-.4s-.5,0-.8,0c-.3,0-.5.1-.8.3v-3.7Z"/>
          <path id="DejaVuSans-b01" data-name="DejaVuSans-b0" d="M653,127.9c-.3,0-.5,0-.7.3-.2.2-.3.4-.3.7s0,.5.3.7.4.3.7.3.5,0,.7-.3c.2-.2.3-.4.3-.7s0-.5-.3-.7c-.2-.2-.4-.3-.7-.3ZM653,127.3c.2,0,.4,0,.6.1.2,0,.4.2.5.3.2.1.3.3.3.5,0,.2.1.4.1.6,0,.4-.2.8-.5,1.1s-.7.4-1.1.4-.8-.1-1.1-.4c-.3-.3-.4-.7-.4-1.1s.1-.8.4-1.1c.3-.3.7-.5,1.1-.5Z"/>
        </g>
      </g>
      <g id="text_19">
        <g>
          <path id="DejaVuSans-39" d="M552.6,98.8v-.9c.2.1.5.2.8.3.3,0,.5,0,.7,0,.7,0,1.1-.2,1.5-.7.3-.4.5-1.1.6-2-.2.3-.4.5-.7.6-.3.2-.6.2-1,.2-.7,0-1.3-.2-1.7-.7-.4-.4-.6-1-.6-1.8s.2-1.3.7-1.8c.4-.5,1-.7,1.8-.7s1.5.3,1.9,1c.4.6.7,1.6.7,2.8s-.3,2.1-.8,2.8c-.5.7-1.3,1-2.2,1s-.5,0-.8,0c-.3,0-.5-.1-.8-.2ZM554.6,95.7c.4,0,.8-.2,1.1-.5.3-.3.4-.7.4-1.2s-.1-.9-.4-1.2c-.3-.3-.6-.5-1.1-.5s-.8.2-1.1.5c-.3.3-.4.7-.4,1.2s.1.9.4,1.2c.3.3.6.5,1.1.5Z"/>
          <path id="DejaVuSans-3013" data-name="DejaVuSans-30" d="M561.1,92.3c-.5,0-.9.3-1.1.8-.3.5-.4,1.3-.4,2.3s.1,1.7.4,2.2c.3.5.6.8,1.1.8s.9-.3,1.2-.8c.3-.5.4-1.2.4-2.2s-.1-1.8-.4-2.3c-.3-.5-.6-.8-1.2-.8ZM561.1,91.5c.8,0,1.4.3,1.9,1,.4.6.6,1.6.6,2.8s-.2,2.2-.6,2.8c-.4.6-1.1,1-1.9,1s-1.4-.3-1.9-1c-.4-.6-.6-1.6-.6-2.8s.2-2.2.6-2.8c.4-.6,1.1-1,1.9-1Z"/>
          <path id="DejaVuSans-b02" data-name="DejaVuSans-b0" d="M566.8,92.2c-.3,0-.5,0-.7.3-.2.2-.3.4-.3.7s0,.5.3.7.4.3.7.3.5,0,.7-.3c.2-.2.3-.4.3-.7s0-.5-.3-.7c-.2-.2-.4-.3-.7-.3ZM566.8,91.5c.2,0,.4,0,.6.1.2,0,.4.2.5.3.2.1.3.3.3.5,0,.2.1.4.1.6,0,.4-.2.8-.5,1.1s-.7.4-1.1.4-.8-.1-1.1-.4c-.3-.3-.4-.7-.4-1.1s.1-.8.4-1.1c.3-.3.7-.5,1.1-.5Z"/>
        </g>
      </g>
      <g id="text_20">
        <g>
          <path id="DejaVuSans-318" data-name="DejaVuSans-31" d="M463.4,133.8h1.6v-5.6l-1.8.4v-.9l1.7-.4h1v6.5h1.6v.8h-4.2v-.8Z"/>
          <path id="DejaVuSans-33" d="M472.5,130.7c.5.1.8.3,1.1.6.3.3.4.7.4,1.2,0,.7-.2,1.3-.7,1.7-.5.4-1.2.6-2.1.6s-.6,0-.9,0c-.3,0-.7-.2-1-.3v-1c.3.2.6.3.9.4.3,0,.7.1,1,.1.6,0,1.1-.1,1.4-.4s.5-.6.5-1.1-.2-.8-.5-1c-.3-.2-.7-.4-1.3-.4h-.9v-.8h.9c.5,0,.9,0,1.1-.3s.4-.5.4-.8-.1-.7-.4-.9c-.3-.2-.6-.3-1.1-.3s-.6,0-.9,0c-.3,0-.6.1-1,.3v-.9c.4-.1.7-.2,1.1-.2s.6,0,.9,0c.7,0,1.3.2,1.8.5.4.3.7.8.7,1.4s-.1.7-.3,1-.6.5-1,.6Z"/>
          <path id="DejaVuSans-359" data-name="DejaVuSans-35" d="M475.9,127.4h3.9v.8h-3v1.8c.1,0,.3,0,.4-.1.1,0,.3,0,.4,0,.8,0,1.5.2,1.9.7.5.4.7,1,.7,1.8s-.2,1.4-.7,1.8c-.5.4-1.2.7-2.1.7s-.6,0-.9,0c-.3,0-.6-.1-1-.2v-1c.3.2.6.3.9.4s.6.1,1,.1c.6,0,1-.1,1.3-.4.3-.3.5-.7.5-1.2s-.2-.9-.5-1.2c-.3-.3-.8-.4-1.3-.4s-.5,0-.8,0c-.3,0-.5.1-.8.3v-3.7Z"/>
          <path id="DejaVuSans-b03" data-name="DejaVuSans-b0" d="M483.7,127.9c-.3,0-.5,0-.7.3-.2.2-.3.4-.3.7s0,.5.3.7.4.3.7.3.5,0,.7-.3c.2-.2.3-.4.3-.7s0-.5-.3-.7c-.2-.2-.4-.3-.7-.3ZM483.7,127.3c.2,0,.4,0,.6.1.2,0,.4.2.5.3.2.1.3.3.3.5,0,.2.1.4.1.6,0,.4-.2.8-.5,1.1s-.7.4-1.1.4-.8-.1-1.1-.4c-.3-.3-.4-.7-.4-1.1s.1-.8.4-1.1c.3-.3.7-.5,1.1-.5Z"/>
        </g>
      </g>
      <g id="text_21">
        <g>
          <path id="DejaVuSans-319" data-name="DejaVuSans-31" d="M427.6,220.1h1.6v-5.6l-1.8.4v-.9l1.7-.4h1v6.5h1.6v.8h-4.2v-.8Z"/>
          <path id="DejaVuSans-38" d="M435.9,217.5c-.5,0-.8.1-1.1.4-.3.3-.4.6-.4,1s.1.8.4,1c.3.3.6.4,1.1.4s.8-.1,1.1-.4c.3-.3.4-.6.4-1s-.1-.8-.4-1c-.3-.3-.6-.4-1.1-.4ZM434.9,217c-.4-.1-.8-.3-1-.6-.2-.3-.4-.6-.4-1.1s.2-1,.6-1.4c.4-.3,1-.5,1.7-.5s1.3.2,1.7.5.6.8.6,1.4-.1.8-.4,1.1c-.2.3-.6.5-1,.6.5.1.8.3,1.1.7.3.3.4.7.4,1.2,0,.7-.2,1.3-.6,1.6-.4.4-1,.6-1.9.6s-1.4-.2-1.9-.6c-.4-.4-.6-.9-.6-1.6s.1-.9.4-1.2c.3-.3.6-.5,1.1-.7ZM434.6,215.5c0,.4.1.7.4.9.2.2.6.3,1,.3s.8-.1,1-.3c.2-.2.4-.5.4-.9s-.1-.7-.4-.9c-.2-.2-.6-.3-1-.3s-.8.1-1,.3c-.2.2-.4.5-.4.9Z"/>
          <path id="DejaVuSans-3014" data-name="DejaVuSans-30" d="M442.3,214.3c-.5,0-.9.3-1.1.8-.3.5-.4,1.3-.4,2.3s.1,1.7.4,2.2c.3.5.6.8,1.1.8s.9-.3,1.2-.8c.3-.5.4-1.2.4-2.2s-.1-1.8-.4-2.3c-.3-.5-.6-.8-1.2-.8ZM442.3,213.5c.8,0,1.4.3,1.9,1,.4.6.6,1.6.6,2.8s-.2,2.2-.6,2.8c-.4.6-1.1,1-1.9,1s-1.4-.3-1.9-1c-.4-.6-.6-1.6-.6-2.8s.2-2.2.6-2.8c.4-.6,1.1-1,1.9-1Z"/>
          <path id="DejaVuSans-b04" data-name="DejaVuSans-b0" d="M448,214.1c-.3,0-.5,0-.7.3-.2.2-.3.4-.3.7s0,.5.3.7.4.3.7.3.5,0,.7-.3c.2-.2.3-.4.3-.7s0-.5-.3-.7c-.2-.2-.4-.3-.7-.3ZM448,213.5c.2,0,.4,0,.6.1.2,0,.4.2.5.3.2.1.3.3.3.5,0,.2.1.4.1.6,0,.4-.2.8-.5,1.1s-.7.4-1.1.4-.8-.1-1.1-.4c-.3-.3-.4-.7-.4-1.1s.1-.8.4-1.1c.3-.3.7-.5,1.1-.5Z"/>
        </g>
      </g>
      <g id="text_22">
        <g>
          <path id="DejaVuSans-32" d="M464,306.3h3.4v.8h-4.6v-.8c.4-.4.9-.9,1.5-1.6.6-.7,1.1-1.1,1.2-1.3.3-.4.5-.7.7-.9.1-.2.2-.5.2-.7,0-.4-.1-.7-.4-.9-.3-.2-.6-.4-1.1-.4s-.6,0-1,.2c-.3.1-.7.3-1.1.5v-1c.4-.2.8-.3,1.1-.4.3,0,.7-.1.9-.1.8,0,1.4.2,1.8.6.4.4.7.9.7,1.5s0,.6-.2.9c-.1.3-.3.6-.6.9,0,0-.3.4-.8.8-.4.5-1.1,1.1-1.8,1.9Z"/>
          <path id="DejaVuSans-321" data-name="DejaVuSans-32" d="M470.4,306.3h3.4v.8h-4.6v-.8c.4-.4.9-.9,1.5-1.6.6-.7,1.1-1.1,1.2-1.3.3-.4.5-.7.7-.9.1-.2.2-.5.2-.7,0-.4-.1-.7-.4-.9-.3-.2-.6-.4-1.1-.4s-.6,0-1,.2c-.3.1-.7.3-1.1.5v-1c.4-.2.8-.3,1.1-.4.3,0,.7-.1.9-.1.8,0,1.4.2,1.8.6.4.4.7.9.7,1.5s0,.6-.2.9c-.1.3-.3.6-.6.9,0,0-.3.4-.8.8-.4.5-1.1,1.1-1.8,1.9Z"/>
          <path id="DejaVuSans-3510" data-name="DejaVuSans-35" d="M475.9,299.9h3.9v.8h-3v1.8c.1,0,.3,0,.4-.1.1,0,.3,0,.4,0,.8,0,1.5.2,1.9.7.5.4.7,1,.7,1.8s-.2,1.4-.7,1.8c-.5.4-1.2.7-2.1.7s-.6,0-.9,0c-.3,0-.6-.1-1-.2v-1c.3.2.6.3.9.4s.6.1,1,.1c.6,0,1-.1,1.3-.4.3-.3.5-.7.5-1.2s-.2-.9-.5-1.2c-.3-.3-.8-.4-1.3-.4s-.5,0-.8,0c-.3,0-.5.1-.8.3v-3.7Z"/>
          <path id="DejaVuSans-b05" data-name="DejaVuSans-b0" d="M483.7,300.4c-.3,0-.5,0-.7.3-.2.2-.3.4-.3.7s0,.5.3.7.4.3.7.3.5,0,.7-.3c.2-.2.3-.4.3-.7s0-.5-.3-.7c-.2-.2-.4-.3-.7-.3ZM483.7,299.7c.2,0,.4,0,.6.1.2,0,.4.2.5.3.2.1.3.3.3.5,0,.2.1.4.1.6,0,.4-.2.8-.5,1.1s-.7.4-1.1.4-.8-.1-1.1-.4c-.3-.3-.4-.7-.4-1.1s.1-.8.4-1.1c.3-.3.7-.5,1.1-.5Z"/>
        </g>
      </g>
      <g id="text_23">
        <g>
          <path id="DejaVuSans-322" data-name="DejaVuSans-32" d="M550.3,342.1h3.4v.8h-4.6v-.8c.4-.4.9-.9,1.5-1.6.6-.7,1.1-1.1,1.2-1.3.3-.4.5-.7.7-.9.1-.2.2-.5.2-.7,0-.4-.1-.7-.4-.9-.3-.2-.6-.4-1.1-.4s-.6,0-1,.2c-.3.1-.7.3-1.1.5v-1c.4-.2.8-.3,1.1-.4.3,0,.7-.1.9-.1.8,0,1.4.2,1.8.6.4.4.7.9.7,1.5s0,.6-.2.9c-.1.3-.3.6-.6.9,0,0-.3.4-.8.8-.4.5-1.1,1.1-1.8,1.9Z"/>
          <path id="DejaVuSans-37" d="M555.5,335.6h4.7v.4l-2.6,6.9h-1l2.5-6.5h-3.5v-.8Z"/>
          <path id="DejaVuSans-3015" data-name="DejaVuSans-30" d="M564.3,336.2c-.5,0-.9.3-1.1.8-.3.5-.4,1.3-.4,2.3s.1,1.7.4,2.2c.3.5.6.8,1.1.8s.9-.3,1.2-.8c.3-.5.4-1.2.4-2.2s-.1-1.8-.4-2.3c-.3-.5-.6-.8-1.2-.8ZM564.3,335.5c.8,0,1.4.3,1.9,1,.4.6.6,1.6.6,2.8s-.2,2.2-.6,2.8c-.4.6-1.1,1-1.9,1s-1.4-.3-1.9-1c-.4-.6-.6-1.6-.6-2.8s.2-2.2.6-2.8c.4-.6,1.1-1,1.9-1Z"/>
          <path id="DejaVuSans-b06" data-name="DejaVuSans-b0" d="M569.9,336.1c-.3,0-.5,0-.7.3-.2.2-.3.4-.3.7s0,.5.3.7.4.3.7.3.5,0,.7-.3c.2-.2.3-.4.3-.7s0-.5-.3-.7c-.2-.2-.4-.3-.7-.3ZM569.9,335.5c.2,0,.4,0,.6.1.2,0,.4.2.5.3.2.1.3.3.3.5,0,.2.1.4.1.6,0,.4-.2.8-.5,1.1s-.7.4-1.1.4-.8-.1-1.1-.4c-.3-.3-.4-.7-.4-1.1s.1-.8.4-1.1c.3-.3.7-.5,1.1-.5Z"/>
        </g>
      </g>
      <g id="text_24">
        <g>
          <path id="DejaVuSans-331" data-name="DejaVuSans-33" d="M638.7,303.2c.5.1.8.3,1.1.6.3.3.4.7.4,1.2,0,.7-.2,1.3-.7,1.7-.5.4-1.2.6-2.1.6s-.6,0-.9,0c-.3,0-.7-.2-1-.3v-1c.3.2.6.3.9.4.3,0,.7.1,1,.1.6,0,1.1-.1,1.4-.4s.5-.6.5-1.1-.2-.8-.5-1c-.3-.2-.7-.4-1.3-.4h-.9v-.8h.9c.5,0,.9,0,1.1-.3s.4-.5.4-.8-.1-.7-.4-.9c-.3-.2-.6-.3-1.1-.3s-.6,0-.9,0c-.3,0-.6.1-1,.3v-.9c.4-.1.7-.2,1.1-.2s.6,0,.9,0c.7,0,1.3.2,1.8.5.4.3.7.8.7,1.4s-.1.7-.3,1-.6.5-1,.6Z"/>
          <path id="DejaVuSans-3110" data-name="DejaVuSans-31" d="M642.2,306.3h1.6v-5.6l-1.8.4v-.9l1.7-.4h1v6.5h1.6v.8h-4.2v-.8Z"/>
          <path id="DejaVuSans-3511" data-name="DejaVuSans-35" d="M648.4,299.9h3.9v.8h-3v1.8c.1,0,.3,0,.4-.1.1,0,.3,0,.4,0,.8,0,1.5.2,1.9.7.5.4.7,1,.7,1.8s-.2,1.4-.7,1.8c-.5.4-1.2.7-2.1.7s-.6,0-.9,0c-.3,0-.6-.1-1-.2v-1c.3.2.6.3.9.4s.6.1,1,.1c.6,0,1-.1,1.3-.4.3-.3.5-.7.5-1.2s-.2-.9-.5-1.2c-.3-.3-.8-.4-1.3-.4s-.5,0-.8,0c-.3,0-.5.1-.8.3v-3.7Z"/>
          <path id="DejaVuSans-b07" data-name="DejaVuSans-b0" d="M656.2,300.4c-.3,0-.5,0-.7.3-.2.2-.3.4-.3.7s0,.5.3.7.4.3.7.3.5,0,.7-.3c.2-.2.3-.4.3-.7s0-.5-.3-.7c-.2-.2-.4-.3-.7-.3ZM656.2,299.7c.2,0,.4,0,.6.1.2,0,.4.2.5.3.2.1.3.3.3.5,0,.2.1.4.1.6,0,.4-.2.8-.5,1.1s-.7.4-1.1.4-.8-.1-1.1-.4c-.3-.3-.4-.7-.4-1.1s.1-.8.4-1.1c.3-.3.7-.5,1.1-.5Z"/>
        </g>
      </g>
      <g id="text_25">
        <g>
          <path id="DejaVuSans-381" data-name="DejaVuSans-38" d="M480.1,41.7c-.6,0-1,.2-1.3.5-.3.3-.5.7-.5,1.2s.2.9.5,1.2c.3.3.8.5,1.3.5s1-.2,1.3-.5c.3-.3.5-.7.5-1.2s-.2-.9-.5-1.2c-.3-.3-.8-.5-1.3-.5ZM478.9,41.2c-.5-.1-.9-.4-1.2-.7-.3-.3-.4-.8-.4-1.3s.2-1.3.7-1.7c.5-.4,1.2-.6,2-.6s1.6.2,2.1.6.7,1,.7,1.7-.1.9-.4,1.3c-.3.3-.7.6-1.2.7.6.1,1,.4,1.3.8.3.4.5.9.5,1.4,0,.8-.3,1.5-.8,2-.5.5-1.3.7-2.2.7s-1.7-.2-2.2-.7c-.5-.5-.8-1.1-.8-2s.2-1,.5-1.4c.3-.4.8-.6,1.3-.8ZM478.5,39.3c0,.5.1.8.4,1.1.3.3.7.4,1.2.4s.9-.1,1.2-.4c.3-.3.4-.6.4-1.1s-.1-.8-.4-1.1c-.3-.3-.7-.4-1.2-.4s-.9.1-1.2.4c-.3.3-.4.6-.4,1.1Z"/>
          <path id="DejaVuSans-50" d="M486.3,38.1v3.3h1.5c.6,0,1-.1,1.3-.4.3-.3.5-.7.5-1.2s-.2-.9-.5-1.2c-.3-.3-.7-.4-1.3-.4h-1.5ZM485.1,37.1h2.7c1,0,1.7.2,2.2.7.5.4.8,1.1.8,1.9s-.3,1.5-.8,2c-.5.4-1.2.7-2.2.7h-1.5v3.5h-1.2v-8.7Z"/>
          <path id="DejaVuSans-53" d="M497.6,37.4v1.2c-.4-.2-.9-.4-1.3-.5-.4-.1-.8-.2-1.2-.2-.6,0-1.1.1-1.5.4-.3.2-.5.6-.5,1.1s.1.7.3.9c.2.2.7.4,1.3.5h.7c.9.3,1.5.6,2,1s.6,1,.6,1.7-.3,1.5-.9,1.9c-.6.4-1.4.7-2.5.7s-.9,0-1.3-.1c-.5,0-.9-.2-1.4-.4v-1.2c.5.3,1,.5,1.4.6.5.1.9.2,1.4.2.7,0,1.2-.1,1.6-.4.4-.3.6-.6.6-1.1s-.1-.8-.4-1-.7-.4-1.3-.5h-.7c-.9-.3-1.5-.6-1.9-1-.4-.4-.6-.9-.6-1.6s.3-1.4.8-1.8c.5-.4,1.3-.7,2.3-.7s.8,0,1.3.1c.4,0,.9.2,1.3.3Z"/>
          <path id="DejaVuSans-4b" d="M500,37.1h1.2v3.7l3.9-3.7h1.5l-4.3,4.1,4.7,4.7h-1.6l-4.2-4.2v4.2h-1.2v-8.7Z"/>
          <path id="DejaVuSans-202" data-name="DejaVuSans-20" d="M506.7,45.8"/>
          <path id="DejaVuSans-43" d="M518.2,37.8v1.2c-.4-.4-.8-.6-1.3-.8-.5-.2-.9-.3-1.4-.3-1,0-1.8.3-2.3.9s-.8,1.5-.8,2.7.3,2,.8,2.6,1.3.9,2.3.9,1,0,1.4-.3.9-.5,1.3-.8v1.2c-.4.3-.9.5-1.3.6-.5.1-1,.2-1.5.2-1.3,0-2.4-.4-3.1-1.2-.8-.8-1.1-1.9-1.1-3.3s.4-2.5,1.1-3.3c.8-.8,1.8-1.2,3.1-1.2s1,0,1.5.2c.5.1.9.3,1.3.6Z"/>
          <path id="DejaVuSans-6f" d="M522.5,40c-.6,0-1,.2-1.4.7s-.5,1.1-.5,1.9.2,1.4.5,1.9c.3.5.8.7,1.4.7s1-.2,1.4-.7c.3-.5.5-1.1.5-1.9s-.2-1.4-.5-1.8c-.3-.5-.8-.7-1.4-.7ZM522.5,39.1c.9,0,1.7.3,2.2.9.5.6.8,1.5.8,2.5s-.3,1.9-.8,2.5c-.5.6-1.3.9-2.2.9s-1.7-.3-2.2-.9c-.5-.6-.8-1.5-.8-2.5s.3-1.9.8-2.5c.5-.6,1.3-.9,2.2-.9Z"/>
          <path id="DejaVuSans-6e1" data-name="DejaVuSans-6e" d="M532.8,41.9v4h-1.1v-3.9c0-.6-.1-1.1-.4-1.4-.2-.3-.6-.5-1.1-.5s-1,.2-1.4.6c-.3.4-.5.9-.5,1.5v3.7h-1.1v-6.6h1.1v1c.3-.4.6-.7.9-.9.3-.2.8-.3,1.2-.3.8,0,1.3.2,1.7.7.4.5.6,1.2.6,2.1Z"/>
          <path id="DejaVuSans-731" data-name="DejaVuSans-73" d="M539.1,39.5v1c-.3-.2-.6-.3-.9-.4-.3,0-.7-.1-1-.1-.5,0-.9,0-1.2.2-.3.2-.4.4-.4.7s0,.4.3.6.6.3,1.2.4h.4c.8.2,1.3.5,1.6.8s.5.7.5,1.3-.2,1.1-.7,1.4c-.5.4-1.1.5-2,.5s-.7,0-1.1-.1c-.4,0-.8-.2-1.2-.3v-1.1c.4.2.8.4,1.2.5.4.1.8.2,1.1.2s.9,0,1.2-.3c.3-.2.4-.4.4-.7s0-.5-.3-.7c-.2-.2-.6-.3-1.3-.5h-.4c-.7-.2-1.1-.4-1.4-.7-.3-.3-.4-.7-.4-1.2s.2-1.1.7-1.4c.4-.3,1.1-.5,1.9-.5s.8,0,1.1,0c.4,0,.7.1,1,.3Z"/>
          <path id="DejaVuSans-741" data-name="DejaVuSans-74" d="M542.3,37.4v1.9h2.2v.8h-2.2v3.6c0,.5,0,.9.2,1s.4.2.9.2h1.1v.9h-1.1c-.8,0-1.4-.2-1.7-.5-.3-.3-.5-.9-.5-1.7v-3.6h-.8v-.8h.8v-1.9h1.1Z"/>
          <path id="DejaVuSans-652" data-name="DejaVuSans-65" d="M551.5,42.3v.5h-5c0,.7.3,1.3.7,1.7.4.4,1,.6,1.7.6s.8,0,1.2-.2.8-.3,1.2-.5v1c-.4.2-.8.3-1.2.4s-.8.1-1.2.1c-1,0-1.9-.3-2.5-.9-.6-.6-.9-1.4-.9-2.5s.3-1.9.9-2.6c.6-.6,1.4-.9,2.3-.9s1.6.3,2.1.9c.5.6.8,1.3.8,2.3ZM550.4,42c0-.6-.2-1.1-.5-1.4-.3-.4-.7-.5-1.3-.5s-1.1.2-1.4.5-.6.8-.6,1.4h3.8Z"/>
          <path id="DejaVuSans-6c" d="M553.3,36.7h1.1v9.1h-1.1v-9.1Z"/>
          <path id="DejaVuSans-6c1" data-name="DejaVuSans-6c" d="M556.6,36.7h1.1v9.1h-1.1v-9.1Z"/>
          <path id="DejaVuSans-613" data-name="DejaVuSans-61" d="M562.9,42.5c-.9,0-1.5,0-1.8.3s-.5.5-.5,1,.1.7.4.9c.3.2.6.3,1,.3s1.1-.2,1.4-.6.5-1,.5-1.7v-.2h-1.1ZM565.1,42.1v3.7h-1.1v-1c-.2.4-.6.7-.9.9-.4.2-.8.3-1.3.3s-1.2-.2-1.6-.6c-.4-.4-.6-.9-.6-1.5s.2-1.3.7-1.7c.5-.4,1.2-.6,2.2-.6h1.5c0-.6-.2-1-.5-1.3s-.8-.4-1.4-.4-.7,0-1.1.1c-.4,0-.7.2-1,.4v-1c.4-.2.8-.3,1.1-.3.4,0,.7-.1,1.1-.1,1,0,1.7.2,2.1.7.5.5.7,1.2.7,2.2Z"/>
          <path id="DejaVuSans-742" data-name="DejaVuSans-74" d="M568.4,37.4v1.9h2.2v.8h-2.2v3.6c0,.5,0,.9.2,1s.4.2.9.2h1.1v.9h-1.1c-.8,0-1.4-.2-1.7-.5-.3-.3-.5-.9-.5-1.7v-3.6h-.8v-.8h.8v-1.9h1.1Z"/>
          <path id="DejaVuSans-69" d="M572,39.3h1.1v6.6h-1.1v-6.6ZM572,36.7h1.1v1.4h-1.1v-1.4Z"/>
          <path id="DejaVuSans-6f1" data-name="DejaVuSans-6f" d="M577.9,40c-.6,0-1,.2-1.4.7s-.5,1.1-.5,1.9.2,1.4.5,1.9c.3.5.8.7,1.4.7s1-.2,1.4-.7c.3-.5.5-1.1.5-1.9s-.2-1.4-.5-1.8c-.3-.5-.8-.7-1.4-.7ZM577.9,39.1c.9,0,1.7.3,2.2.9.5.6.8,1.5.8,2.5s-.3,1.9-.8,2.5c-.5.6-1.3.9-2.2.9s-1.7-.3-2.2-.9c-.5-.6-.8-1.5-.8-2.5s.3-1.9.8-2.5c.5-.6,1.3-.9,2.2-.9Z"/>
          <path id="DejaVuSans-6e2" data-name="DejaVuSans-6e" d="M588.1,41.9v4h-1.1v-3.9c0-.6-.1-1.1-.4-1.4-.2-.3-.6-.5-1.1-.5s-1,.2-1.4.6c-.3.4-.5.9-.5,1.5v3.7h-1.1v-6.6h1.1v1c.3-.4.6-.7.9-.9.3-.2.8-.3,1.2-.3.8,0,1.3.2,1.7.7.4.5.6,1.2.6,2.1Z"/>
          <path id="DejaVuSans-203" data-name="DejaVuSans-20" d="M589.2,45.8"/>
          <path id="DejaVuSans-44" d="M595.3,38.1v6.8h1.4c1.2,0,2.1-.3,2.7-.8.6-.5.8-1.4.8-2.6s-.3-2-.8-2.6-1.4-.8-2.7-.8h-1.4ZM594.1,37.1h2.4c1.7,0,2.9.4,3.7,1.1.8.7,1.2,1.8,1.2,3.3s-.4,2.6-1.2,3.3c-.8.7-2,1.1-3.7,1.1h-2.4v-8.7Z"/>
          <path id="DejaVuSans-691" data-name="DejaVuSans-69" d="M603.3,39.3h1.1v6.6h-1.1v-6.6ZM603.3,36.7h1.1v1.4h-1.1v-1.4Z"/>
          <path id="DejaVuSans-614" data-name="DejaVuSans-61" d="M609.7,42.5c-.9,0-1.5,0-1.8.3s-.5.5-.5,1,.1.7.4.9c.3.2.6.3,1,.3s1.1-.2,1.4-.6.5-1,.5-1.7v-.2h-1.1ZM611.8,42.1v3.7h-1.1v-1c-.2.4-.6.7-.9.9-.4.2-.8.3-1.3.3s-1.2-.2-1.6-.6c-.4-.4-.6-.9-.6-1.5s.2-1.3.7-1.7c.5-.4,1.2-.6,2.2-.6h1.5c0-.6-.2-1-.5-1.3s-.8-.4-1.4-.4-.7,0-1.1.1c-.4,0-.7.2-1,.4v-1c.4-.2.8-.3,1.1-.3.4,0,.7-.1,1.1-.1,1,0,1.7.2,2.1.7.5.5.7,1.2.7,2.2Z"/>
          <path id="DejaVuSans-67" d="M618.3,42.5c0-.8-.2-1.4-.5-1.8-.3-.4-.8-.6-1.4-.6s-1,.2-1.3.6c-.3.4-.5,1-.5,1.8s.2,1.4.5,1.8c.3.4.8.6,1.3.6s1-.2,1.4-.6c.3-.4.5-1,.5-1.8ZM619.4,45c0,1.1-.2,1.9-.7,2.5-.5.5-1.3.8-2.3.8s-.7,0-1.1,0-.7-.1-1-.3v-1c.3.2.6.3.9.4.3,0,.6.1.9.1.7,0,1.2-.2,1.6-.6.4-.4.5-.9.5-1.7v-.5c-.2.4-.5.7-.9.9s-.8.3-1.2.3c-.8,0-1.5-.3-1.9-.9-.5-.6-.7-1.4-.7-2.4s.2-1.8.7-2.4c.5-.6,1.1-.9,1.9-.9s.9,0,1.2.3.6.5.9.9v-1h1.1v5.7Z"/>
          <path id="DejaVuSans-722" data-name="DejaVuSans-72" d="M625.4,40.3c-.1,0-.3-.1-.4-.2-.1,0-.3,0-.5,0-.6,0-1.1.2-1.4.6s-.5,1-.5,1.7v3.5h-1.1v-6.6h1.1v1c.2-.4.5-.7.9-.9.4-.2.8-.3,1.3-.3s.2,0,.2,0c0,0,.2,0,.3,0v1.1Z"/>
          <path id="DejaVuSans-615" data-name="DejaVuSans-61" d="M629.6,42.5c-.9,0-1.5,0-1.8.3s-.5.5-.5,1,.1.7.4.9c.3.2.6.3,1,.3s1.1-.2,1.4-.6.5-1,.5-1.7v-.2h-1.1ZM631.7,42.1v3.7h-1.1v-1c-.2.4-.6.7-.9.9-.4.2-.8.3-1.3.3s-1.2-.2-1.6-.6c-.4-.4-.6-.9-.6-1.5s.2-1.3.7-1.7c.5-.4,1.2-.6,2.2-.6h1.5c0-.6-.2-1-.5-1.3s-.8-.4-1.4-.4-.7,0-1.1.1c-.4,0-.7.2-1,.4v-1c.4-.2.8-.3,1.1-.3.4,0,.7-.1,1.1-.1,1,0,1.7.2,2.1.7.5.5.7,1.2.7,2.2Z"/>
          <path id="DejaVuSans-6d" d="M639,40.5c.3-.5.6-.8,1-1.1s.8-.3,1.3-.3,1.2.2,1.6.7c.4.5.6,1.2.6,2v4h-1.1v-3.9c0-.6-.1-1.1-.3-1.4-.2-.3-.6-.5-1-.5s-1,.2-1.3.6c-.3.4-.5.9-.5,1.5v3.7h-1.1v-3.9c0-.6-.1-1.1-.3-1.4s-.6-.5-1-.5-1,.2-1.3.6c-.3.4-.5.9-.5,1.5v3.7h-1.1v-6.6h1.1v1c.2-.4.5-.7.9-.9s.8-.3,1.2-.3.9.1,1.2.4c.3.2.6.6.7,1.1Z"/>
        </g>
      </g>
    </g>
  </g>
</svg>