<?xml version="1.0" encoding="UTF-8"?>
<svg id="Ebene_1" xmlns="http://www.w3.org/2000/svg" xmlns:xlink="http://www.w3.org/1999/xlink" version="1.1" viewBox="0 0 1536.8 478.6">
  <!-- Generator: Adobe Illustrator 29.4.0, SVG Export Plug-In . SVG Version: 2.1.0 Build 152)  -->
  <defs>
    <style>
      .st0, .st1, .st2 {
        fill: none;
      }

      .st1 {
        stroke-width: 2px;
      }

      .st1, .st3, .st2 {
        stroke: #000;
      }

      .st4 {
        font-family: HelveticaNeue, 'Helvetica Neue';
        font-size: 20px;
      }

      .st3, .st5 {
        fill: #fff;
      }

      .st6 {
        clip-path: url(#clippath-17);
      }

      .st7 {
        clip-path: url(#clippath-19);
      }

      .st8 {
        clip-path: url(#clippath-11);
      }

      .st9 {
        clip-path: url(#clippath-16);
      }

      .st10 {
        clip-path: url(#clippath-18);
      }

      .st11 {
        clip-path: url(#clippath-10);
      }

      .st12 {
        clip-path: url(#clippath-15);
      }

      .st13 {
        clip-path: url(#clippath-13);
      }

      .st14 {
        clip-path: url(#clippath-14);
      }

      .st15 {
        clip-path: url(#clippath-12);
      }

      .st16 {
        clip-path: url(#clippath-61);
      }

      .st17 {
        clip-path: url(#clippath-67);
      }

      .st18 {
        clip-path: url(#clippath-68);
      }

      .st19 {
        clip-path: url(#clippath-60);
      }

      .st20 {
        clip-path: url(#clippath-65);
      }

      .st21 {
        clip-path: url(#clippath-62);
      }

      .st22 {
        clip-path: url(#clippath-64);
      }

      .st23 {
        clip-path: url(#clippath-66);
      }

      .st24 {
        clip-path: url(#clippath-63);
      }

      .st25 {
        clip-path: url(#clippath-50);
      }

      .st26 {
        clip-path: url(#clippath-55);
      }

      .st27 {
        clip-path: url(#clippath-52);
      }

      .st28 {
        clip-path: url(#clippath-57);
      }

      .st29 {
        clip-path: url(#clippath-54);
      }

      .st30 {
        clip-path: url(#clippath-56);
      }

      .st31 {
        clip-path: url(#clippath-53);
      }

      .st32 {
        clip-path: url(#clippath-51);
      }

      .st33 {
        clip-path: url(#clippath-58);
      }

      .st34 {
        clip-path: url(#clippath-59);
      }

      .st35 {
        clip-path: url(#clippath-31);
      }

      .st36 {
        clip-path: url(#clippath-32);
      }

      .st37 {
        clip-path: url(#clippath-33);
      }

      .st38 {
        clip-path: url(#clippath-34);
      }

      .st39 {
        clip-path: url(#clippath-35);
      }

      .st40 {
        clip-path: url(#clippath-39);
      }

      .st41 {
        clip-path: url(#clippath-30);
      }

      .st42 {
        clip-path: url(#clippath-36);
      }

      .st43 {
        clip-path: url(#clippath-37);
      }

      .st44 {
        clip-path: url(#clippath-38);
      }

      .st45 {
        clip-path: url(#clippath-27);
      }

      .st46 {
        clip-path: url(#clippath-29);
      }

      .st47 {
        clip-path: url(#clippath-26);
      }

      .st48 {
        clip-path: url(#clippath-28);
      }

      .st49 {
        clip-path: url(#clippath-20);
      }

      .st50 {
        clip-path: url(#clippath-21);
      }

      .st51 {
        clip-path: url(#clippath-22);
      }

      .st52 {
        clip-path: url(#clippath-23);
      }

      .st53 {
        clip-path: url(#clippath-24);
      }

      .st54 {
        clip-path: url(#clippath-25);
      }

      .st55 {
        clip-path: url(#clippath-41);
      }

      .st56 {
        clip-path: url(#clippath-42);
      }

      .st57 {
        clip-path: url(#clippath-43);
      }

      .st58 {
        clip-path: url(#clippath-44);
      }

      .st59 {
        clip-path: url(#clippath-45);
      }

      .st60 {
        clip-path: url(#clippath-49);
      }

      .st61 {
        clip-path: url(#clippath-40);
      }

      .st62 {
        clip-path: url(#clippath-46);
      }

      .st63 {
        clip-path: url(#clippath-47);
      }

      .st64 {
        clip-path: url(#clippath-48);
      }

      .st65 {
        clip-path: url(#clippath-1);
      }

      .st66 {
        clip-path: url(#clippath-3);
      }

      .st67 {
        clip-path: url(#clippath-4);
      }

      .st68 {
        clip-path: url(#clippath-2);
      }

      .st69 {
        clip-path: url(#clippath-7);
      }

      .st70 {
        clip-path: url(#clippath-6);
      }

      .st71 {
        clip-path: url(#clippath-9);
      }

      .st72 {
        clip-path: url(#clippath-8);
      }

      .st73 {
        clip-path: url(#clippath-5);
      }

      .st74 {
        fill: #387e8a;
      }

      .st75 {
        fill: #4296a3;
      }

      .st76 {
        fill: #2d6770;
      }

      .st77 {
        fill: #676767;
      }

      .st78 {
        fill: #d5d5d5;
      }

      .st79 {
        fill: #4cacbc;
      }
    </style>
    <clipPath id="clippath-1">
      <rect class="st0" x="443.5" y="268.8" width="44.6" height="44.6"/>
    </clipPath>
    <clipPath id="clippath-2">
      <rect class="st0" x="453.7" y="279" width="24.3" height="24.3"/>
    </clipPath>
    <clipPath id="clippath-3">
      <rect class="st0" x="490.2" y="268.8" width="44.6" height="44.6"/>
    </clipPath>
    <clipPath id="clippath-4">
      <rect class="st0" x="500.4" y="279" width="24.3" height="24.3"/>
    </clipPath>
    <clipPath id="clippath-5">
      <rect class="st0" x="536.9" y="268.8" width="44.6" height="44.6"/>
    </clipPath>
    <clipPath id="clippath-6">
      <rect class="st0" x="547.1" y="279" width="24.3" height="24.3"/>
    </clipPath>
    <clipPath id="clippath-7">
      <rect class="st0" x="583.6" y="268.8" width="44.6" height="44.6"/>
    </clipPath>
    <clipPath id="clippath-8">
      <rect class="st0" x="593.8" y="279" width="24.3" height="24.3"/>
    </clipPath>
    <clipPath id="clippath-9">
      <rect class="st0" x="491" y="168" width="175.6" height="49.9" transform="translate(110.3 583.8) rotate(-58.3)"/>
    </clipPath>
    <clipPath id="clippath-10">
      <rect class="st0" x="-653.7" y="-155.7" width="2200" height="1080"/>
    </clipPath>
    <clipPath id="clippath-11">
      <rect class="st0" x="561.2" y="250.3" width="35.4" height="13.5" transform="translate(-43.6 139.7) rotate(-13.3)"/>
    </clipPath>
    <clipPath id="clippath-12">
      <rect class="st0" x="-653.7" y="-155.7" width="2200" height="1080"/>
    </clipPath>
    <clipPath id="clippath-13">
      <rect class="st0" x="490.7" y="236.7" width="10.7" height="40.8" transform="translate(49.3 592.6) rotate(-64.3)"/>
    </clipPath>
    <clipPath id="clippath-14">
      <rect class="st0" x="-653.7" y="-155.7" width="2200" height="1080"/>
    </clipPath>
    <clipPath id="clippath-15">
      <rect class="st0" x="471.1" y="105.2" width="49.9" height="175.6" transform="translate(-30 273.9) rotate(-30)"/>
    </clipPath>
    <clipPath id="clippath-16">
      <rect class="st0" x="-653.7" y="-155.7" width="2200" height="1080"/>
    </clipPath>
    <clipPath id="clippath-17">
      <rect class="st0" x="-653.7" y="-155.7" width="2200" height="1080"/>
    </clipPath>
    <clipPath id="clippath-18">
      <rect class="st0" x="188.7" y="258.7" width="44.6" height="44.6"/>
    </clipPath>
    <clipPath id="clippath-19">
      <rect class="st0" x="198.9" y="268.9" width="24.3" height="24.3"/>
    </clipPath>
    <clipPath id="clippath-20">
      <rect class="st0" x="235.4" y="258.7" width="44.6" height="44.6"/>
    </clipPath>
    <clipPath id="clippath-21">
      <rect class="st0" x="245.6" y="268.9" width="24.3" height="24.3"/>
    </clipPath>
    <clipPath id="clippath-22">
      <rect class="st0" x="282.1" y="258.7" width="44.6" height="44.6"/>
    </clipPath>
    <clipPath id="clippath-23">
      <rect class="st0" x="292.3" y="268.9" width="24.3" height="24.3"/>
    </clipPath>
    <clipPath id="clippath-24">
      <rect class="st0" x="328.8" y="258.7" width="44.6" height="44.6"/>
    </clipPath>
    <clipPath id="clippath-25">
      <rect class="st0" x="339" y="268.9" width="24.3" height="24.3"/>
    </clipPath>
    <clipPath id="clippath-26">
      <rect class="st0" x="295" y="240.7" width="54.3" height="19.9" transform="translate(-48.9 80.6) rotate(-13.3)"/>
    </clipPath>
    <clipPath id="clippath-27">
      <rect class="st0" x="-653.7" y="-155.7" width="2200" height="1080"/>
    </clipPath>
    <clipPath id="clippath-28">
      <rect class="st0" x="250.8" y="14.3" width="59.7" height="242.6"/>
    </clipPath>
    <clipPath id="clippath-29">
      <rect class="st0" x="-653.7" y="-155.7" width="2200" height="1080"/>
    </clipPath>
    <clipPath id="clippath-30">
      <rect class="st0" x="213.8" y="240.7" width="54.3" height="19.9" transform="translate(-51.1 62) rotate(-13.3)"/>
    </clipPath>
    <clipPath id="clippath-31">
      <rect class="st0" x="-653.7" y="-155.7" width="2200" height="1080"/>
    </clipPath>
    <clipPath id="clippath-32">
      <rect class="st0" x="-653.7" y="-155.7" width="2200" height="1080"/>
    </clipPath>
    <clipPath id="clippath-33">
      <rect class="st0" x="705.1" y="267.1" width="44.6" height="44.6"/>
    </clipPath>
    <clipPath id="clippath-34">
      <rect class="st0" x="715.3" y="277.3" width="24.3" height="24.3"/>
    </clipPath>
    <clipPath id="clippath-35">
      <rect class="st0" x="751.8" y="267.1" width="44.6" height="44.6"/>
    </clipPath>
    <clipPath id="clippath-36">
      <rect class="st0" x="762" y="277.3" width="24.3" height="24.3"/>
    </clipPath>
    <clipPath id="clippath-37">
      <rect class="st0" x="798.5" y="267.1" width="44.6" height="44.6"/>
    </clipPath>
    <clipPath id="clippath-38">
      <rect class="st0" x="808.7" y="277.3" width="24.3" height="24.3"/>
    </clipPath>
    <clipPath id="clippath-39">
      <rect class="st0" x="845.2" y="267.1" width="44.6" height="44.6"/>
    </clipPath>
    <clipPath id="clippath-40">
      <rect class="st0" x="855.4" y="277.3" width="24.3" height="24.3"/>
    </clipPath>
    <clipPath id="clippath-41">
      <rect class="st0" x="788.2" y="194.6" width="125.7" height="51.6" transform="translate(57.4 598.6) rotate(-40)"/>
    </clipPath>
    <clipPath id="clippath-42">
      <rect class="st0" x="-653.7" y="-155.7" width="2200" height="1080"/>
    </clipPath>
    <clipPath id="clippath-43">
      <rect class="st0" x="833.3" y="250.4" width="35.4" height="13.5" transform="translate(2 520.8) rotate(-34.1)"/>
    </clipPath>
    <clipPath id="clippath-44">
      <rect class="st0" x="-653.7" y="-155.7" width="2200" height="1080"/>
    </clipPath>
    <clipPath id="clippath-45">
      <rect class="st0" x="742.2" y="236.7" width="10.7" height="40.8" transform="translate(191.6 819.2) rotate(-64.3)"/>
    </clipPath>
    <clipPath id="clippath-46">
      <rect class="st0" x="-653.7" y="-155.7" width="2200" height="1080"/>
    </clipPath>
    <clipPath id="clippath-47">
      <rect class="st0" x="721.7" y="150.9" width="51.6" height="125.7" transform="translate(37.5 530.5) rotate(-40)"/>
    </clipPath>
    <clipPath id="clippath-48">
      <rect class="st0" x="-653.7" y="-155.7" width="2200" height="1080"/>
    </clipPath>
    <clipPath id="clippath-49">
      <rect class="st0" x="744.8" y="141.2" width="51.6" height="125.7" transform="translate(-23.7 136.9) rotate(-10)"/>
    </clipPath>
    <clipPath id="clippath-50">
      <rect class="st0" x="-653.7" y="-155.7" width="2200" height="1080"/>
    </clipPath>
    <clipPath id="clippath-51">
      <rect class="st0" x="749.2" y="179.4" width="125.7" height="51.6" transform="translate(341.5 898.1) rotate(-70)"/>
    </clipPath>
    <clipPath id="clippath-52">
      <rect class="st0" x="-653.7" y="-155.7" width="2200" height="1080"/>
    </clipPath>
    <clipPath id="clippath-53">
      <rect class="st0" x="-653.7" y="-155.7" width="2200" height="1080"/>
    </clipPath>
    <clipPath id="clippath-54">
      <rect class="st0" x="1048.3" y="271" width="44.6" height="44.6"/>
    </clipPath>
    <clipPath id="clippath-55">
      <rect class="st0" x="1058.4" y="281.1" width="24.3" height="24.3"/>
    </clipPath>
    <clipPath id="clippath-56">
      <rect class="st0" x="1095" y="271" width="44.6" height="44.6"/>
    </clipPath>
    <clipPath id="clippath-57">
      <rect class="st0" x="1105.2" y="281.1" width="24.3" height="24.3"/>
    </clipPath>
    <clipPath id="clippath-58">
      <rect class="st0" x="1141.7" y="271" width="44.6" height="44.6"/>
    </clipPath>
    <clipPath id="clippath-59">
      <rect class="st0" x="1151.9" y="281.1" width="24.3" height="24.3"/>
    </clipPath>
    <clipPath id="clippath-60">
      <rect class="st0" x="1188.4" y="271" width="44.6" height="44.6"/>
    </clipPath>
    <clipPath id="clippath-61">
      <rect class="st0" x="1198.6" y="281.1" width="24.3" height="24.3"/>
    </clipPath>
    <clipPath id="clippath-62">
      <rect class="st0" x="1160.7" y="251.7" width="54.3" height="19.9" transform="translate(-28.4 272.7) rotate(-12.9)"/>
    </clipPath>
    <clipPath id="clippath-63">
      <rect class="st0" x="-653.7" y="-155.7" width="2200" height="1080"/>
    </clipPath>
    <clipPath id="clippath-64">
      <rect class="st0" x="1057.8" y="128.6" width="242.6" height="59.7" transform="translate(592.7 1193.6) rotate(-68.1)"/>
    </clipPath>
    <clipPath id="clippath-65">
      <rect class="st0" x="-653.7" y="-155.7" width="2200" height="1080"/>
    </clipPath>
    <clipPath id="clippath-66">
      <rect class="st0" x="1100.2" y="210.1" width="19.9" height="54.3" transform="translate(143.4 832.3) rotate(-43.7)"/>
    </clipPath>
    <clipPath id="clippath-67">
      <rect class="st0" x="-653.7" y="-155.7" width="2200" height="1080"/>
    </clipPath>
    <clipPath id="clippath-68">
      <rect class="st0" x="-653.7" y="-155.7" width="2200" height="1080"/>
    </clipPath>
  </defs>
  <g class="st65">
    <rect class="st77" x="444.5" y="269.8" width="42.6" height="42.6"/>
  </g>
  <g class="st68">
    <path class="st78" d="M473.7,283.3c4.3,4.3,4.3,11.4,0,15.7-4.3,4.3-11.4,4.3-15.7,0-4.3-4.3-4.3-11.4,0-15.7,4.3-4.3,11.4-4.3,15.7,0Z"/>
  </g>
  <g class="st66">
    <rect class="st77" x="491.2" y="269.8" width="42.6" height="42.6"/>
  </g>
  <g class="st67">
    <path class="st78" d="M520.4,283.3c4.3,4.3,4.3,11.4,0,15.7-4.3,4.3-11.4,4.3-15.7,0-4.3-4.3-4.3-11.4,0-15.7,4.3-4.3,11.4-4.3,15.7,0Z"/>
  </g>
  <g class="st73">
    <rect class="st77" x="537.9" y="269.8" width="42.6" height="42.6"/>
  </g>
  <g class="st70">
    <path class="st78" d="M567.1,283.3c4.3,4.3,4.3,11.4,0,15.7-4.3,4.3-11.4,4.3-15.7,0-4.3-4.3-4.3-11.4,0-15.7,4.3-4.3,11.4-4.3,15.7,0Z"/>
  </g>
  <g class="st69">
    <rect class="st77" x="584.6" y="269.8" width="42.6" height="42.6"/>
  </g>
  <g class="st72">
    <path class="st78" d="M613.8,283.3c4.3,4.3,4.3,11.4,0,15.7-4.3,4.3-11.4,4.3-15.7,0-4.3-4.3-4.3-11.4,0-15.7,4.3-4.3,11.4-4.3,15.7,0Z"/>
  </g>
  <g class="st71">
    <g class="st11">
      <path class="st75" d="M596.7,131.8c25.8-23.9,38.7-15.9,28.8,17.8-9.9,33.8-38.8,80.5-64.6,104.4-25.8,23.9-38.7,15.9-28.8-17.8,9.9-33.8,38.8-80.5,64.6-104.4Z"/>
    </g>
  </g>
  <g class="st8">
    <g class="st15">
      <path class="st79" d="M589.5,253.7c7.4,1.5,8.7,4.2,2.8,6.1-5.9,1.9-16.7,2.2-24.1.7-7.4-1.5-8.7-4.2-2.8-6.1,5.9-1.9,16.7-2.2,24.1-.7Z"/>
    </g>
  </g>
  <g class="st13">
    <g class="st14">
      <path class="st79" d="M481.5,254.7c-6.3-3.8-4.9-5.9,3.1-4.6,8,1.3,19.7,5.5,26,9.3,6.3,3.8,4.9,5.9-3.1,4.6-8-1.3-19.7-5.5-26-9.3Z"/>
    </g>
  </g>
  <g class="st12">
    <g class="st9">
      <path class="st79" d="M450.7,148.3c-8.8-34,4.3-41.6,29.4-17,25.1,24.7,52.5,72.3,61.4,106.3,8.8,34-4.3,41.6-29.4,17-25.1-24.7-52.5-72.3-61.4-106.3Z"/>
    </g>
  </g>
  <g class="st6">
    <line class="st1" x1="466.4" y1="310.2" x2="466.4" y2="470.7"/>
    <line class="st1" x1="511.9" y1="310.2" x2="511.9" y2="470.7"/>
    <line class="st1" x1="557.4" y1="310.2" x2="557.4" y2="470.7"/>
    <line class="st1" x1="602.8" y1="310.2" x2="602.8" y2="470.7"/>
  </g>
  <g class="st10">
    <rect class="st77" x="189.7" y="259.7" width="42.6" height="42.6"/>
  </g>
  <g class="st7">
    <path class="st78" d="M218.9,273.2c4.3,4.3,4.3,11.4,0,15.7-4.3,4.3-11.4,4.3-15.7,0-4.3-4.3-4.3-11.4,0-15.7,4.3-4.3,11.4-4.3,15.7,0Z"/>
  </g>
  <g class="st49">
    <rect class="st77" x="236.4" y="259.7" width="42.6" height="42.6"/>
  </g>
  <g class="st50">
    <path class="st78" d="M265.6,273.2c4.3,4.3,4.3,11.4,0,15.7-4.3,4.3-11.4,4.3-15.7,0-4.3-4.3-4.3-11.4,0-15.7,4.3-4.3,11.4-4.3,15.7,0Z"/>
  </g>
  <g class="st51">
    <rect class="st77" x="283.1" y="259.7" width="42.6" height="42.6"/>
  </g>
  <g class="st52">
    <path class="st78" d="M312.3,273.2c4.3,4.3,4.3,11.4,0,15.7-4.3,4.3-11.4,4.3-15.7,0-4.3-4.3-4.3-11.4,0-15.7,4.3-4.3,11.4-4.3,15.7,0Z"/>
  </g>
  <g class="st53">
    <rect class="st77" x="329.8" y="259.7" width="42.6" height="42.6"/>
  </g>
  <g class="st54">
    <path class="st78" d="M359,273.2c4.3,4.3,4.3,11.4,0,15.7-4.3,4.3-11.4,4.3-15.7,0-4.3-4.3-4.3-11.4,0-15.7,4.3-4.3,11.4-4.3,15.7,0Z"/>
  </g>
  <g class="st47">
    <g class="st45">
      <path class="st79" d="M338.8,245.3c11.6,2.3,13.6,6.5,4.4,9.5-9.2,2.9-26,3.5-37.7,1.2-11.6-2.3-13.6-6.5-4.4-9.5,9.2-2.9,26-3.5,37.7-1.2Z"/>
    </g>
  </g>
  <g class="st48">
    <g class="st46">
      <path class="st79" d="M260.2,50.5c11.3-47,29.5-47,40.8,0,11.3,47,11.3,123.1,0,170.1-11.3,47-29.5,47-40.8,0-11.3-47-11.3-123.1,0-170.1Z"/>
    </g>
  </g>
  <g class="st41">
    <g class="st35">
      <path class="st79" d="M257.6,245.3c11.6,2.3,13.6,6.5,4.4,9.5-9.2,2.9-26,3.5-37.7,1.2-11.6-2.3-13.6-6.5-4.4-9.5,9.2-2.9,26-3.5,37.7-1.2Z"/>
    </g>
  </g>
  <g class="st36">
    <line class="st1" x1="211.6" y1="300.1" x2="211.6" y2="460.6"/>
    <line class="st1" x1="257.1" y1="300.1" x2="257.1" y2="460.6"/>
    <line class="st1" x1="302.6" y1="300.1" x2="302.6" y2="460.6"/>
    <line class="st1" x1="348.1" y1="300.1" x2="348.1" y2="460.6"/>
  </g>
  <g class="st37">
    <rect class="st77" x="706.1" y="268.1" width="42.6" height="42.6"/>
  </g>
  <g class="st38">
    <path class="st78" d="M735.3,281.6c4.3,4.3,4.3,11.4,0,15.7-4.3,4.3-11.4,4.3-15.7,0-4.3-4.3-4.3-11.4,0-15.7,4.3-4.3,11.4-4.3,15.7,0Z"/>
  </g>
  <g class="st39">
    <rect class="st77" x="752.8" y="268.1" width="42.6" height="42.6"/>
  </g>
  <g class="st42">
    <path class="st78" d="M782,281.6c4.3,4.3,4.3,11.4,0,15.7-4.3,4.3-11.4,4.3-15.7,0-4.3-4.3-4.3-11.4,0-15.7,4.3-4.3,11.4-4.3,15.7,0Z"/>
  </g>
  <g class="st43">
    <rect class="st77" x="799.5" y="268.1" width="42.6" height="42.6"/>
  </g>
  <g class="st44">
    <path class="st78" d="M828.7,281.6c4.3,4.3,4.3,11.4,0,15.7-4.3,4.3-11.4,4.3-15.7,0-4.3-4.3-4.3-11.4,0-15.7,4.3-4.3,11.4-4.3,15.7,0Z"/>
  </g>
  <g class="st40">
    <rect class="st77" x="846.2" y="268.1" width="42.6" height="42.6"/>
  </g>
  <g class="st61">
    <path class="st78" d="M875.4,281.6c4.3,4.3,4.3,11.4,0,15.7-4.3,4.3-11.4,4.3-15.7,0-4.3-4.3-4.3-11.4,0-15.7,4.3-4.3,11.4-4.3,15.7,0Z"/>
  </g>
  <g class="st55">
    <g class="st56">
      <path class="st76" d="M873.3,178.9c24.7-8.1,34.8,3.9,22.5,26.8-12.3,22.9-42.3,48.1-67,56.2-24.7,8.1-34.8-3.9-22.5-26.8,12.3-22.9,42.3-48.1,67-56.2Z"/>
    </g>
  </g>
  <g class="st57">
    <g class="st58">
      <path class="st79" d="M859.8,250.2c7.5-1.3,9.6.8,4.8,4.7s-14.8,8-22.2,9.2c-7.5,1.3-9.6-.8-4.8-4.7,4.8-3.8,14.8-8,22.2-9.2Z"/>
    </g>
  </g>
  <g class="st59">
    <g class="st62">
      <path class="st79" d="M733,254.8c-6.3-3.8-4.9-5.9,3.1-4.6,8,1.3,19.7,5.5,26,9.3,6.3,3.8,4.9,5.9-3.1,4.6s-19.7-5.5-26-9.3Z"/>
    </g>
  </g>
  <g class="st63">
    <g class="st64">
      <path class="st79" d="M706,191.5c-8.1-24.7,3.9-34.8,26.8-22.5,22.9,12.3,48.1,42.3,56.2,67,8.1,24.7-3.9,34.8-26.8,22.5-22.9-12.3-48.1-42.3-56.2-67Z"/>
    </g>
  </g>
  <g class="st60">
    <g class="st25">
      <path class="st75" d="M745.7,164c5.3-25.5,20.8-28.2,34.5-6.1,13.7,22.1,20.5,60.7,15.2,86.1-5.3,25.5-20.8,28.2-34.5,6.1-13.7-22.1-20.5-60.7-15.2-86.1Z"/>
    </g>
  </g>
  <g class="st32">
    <g class="st27">
      <path class="st74" d="M810.6,158.1c17.4-19.4,32.1-14,32.9,12,.8,26-12.6,62.8-29.9,82.2-17.4,19.4-32.1,14-32.9-12-.8-26,12.6-62.8,29.9-82.2Z"/>
    </g>
  </g>
  <g class="st31">
    <line class="st1" x1="725.1" y1="309.7" x2="725.1" y2="470.2"/>
    <line class="st1" x1="770.5" y1="309.7" x2="770.5" y2="470.2"/>
    <line class="st1" x1="816" y1="309.7" x2="816" y2="470.2"/>
    <line class="st1" x1="871.8" y1="310.2" x2="871.8" y2="470.7"/>
  </g>
  <g class="st29">
    <rect class="st77" x="1049.3" y="272" width="42.6" height="42.6"/>
  </g>
  <g class="st26">
    <path class="st78" d="M1078.4,285.4c4.3,4.3,4.3,11.4,0,15.7-4.3,4.3-11.4,4.3-15.7,0-4.3-4.3-4.3-11.4,0-15.7,4.3-4.3,11.4-4.3,15.7,0Z"/>
  </g>
  <g class="st30">
    <rect class="st77" x="1096" y="272" width="42.6" height="42.6"/>
  </g>
  <g class="st28">
    <path class="st78" d="M1125.2,285.4c4.3,4.3,4.3,11.4,0,15.7-4.3,4.3-11.4,4.3-15.7,0-4.3-4.3-4.3-11.4,0-15.7,4.3-4.3,11.4-4.3,15.7,0Z"/>
  </g>
  <g class="st33">
    <rect class="st77" x="1142.7" y="272" width="42.6" height="42.6"/>
  </g>
  <g class="st34">
    <path class="st78" d="M1171.9,285.4c4.3,4.3,4.3,11.4,0,15.7-4.3,4.3-11.4,4.3-15.7,0-4.3-4.3-4.3-11.4,0-15.7,4.3-4.3,11.4-4.3,15.7,0Z"/>
  </g>
  <g class="st19">
    <rect class="st77" x="1189.4" y="272" width="42.6" height="42.6"/>
  </g>
  <g class="st16">
    <path class="st78" d="M1218.6,285.4c4.3,4.3,4.3,11.4,0,15.7-4.3,4.3-11.4,4.3-15.7,0-4.3-4.3-4.3-11.4,0-15.7,4.3-4.3,11.4-4.3,15.7,0Z"/>
  </g>
  <g class="st21">
    <g class="st24">
      <path class="st79" d="M1204.5,256.4c11.6,2.4,13.5,6.6,4.3,9.5-9.2,2.9-26.1,3.3-37.7,1-11.6-2.4-13.5-6.6-4.3-9.5,9.2-2.9,26.1-3.3,37.7-1Z"/>
    </g>
  </g>
  <g class="st22">
    <g class="st20">
      <path class="st79" d="M1191.8,71.9c28-39.4,44.9-32.6,37.9,15.2-7,47.8-35.4,118.5-63.4,157.9-28,39.4-44.9,32.6-37.9-15.2,7-47.8,35.4-118.5,63.4-157.9Z"/>
    </g>
  </g>
  <g class="st23">
    <g class="st17">
      <path class="st79" d="M1097.1,225.6c-3.9-11.2-1.2-15,6-8.6,7.2,6.4,16.2,20.7,20.1,31.9,3.9,11.2,1.2,15-6,8.6-7.2-6.4-16.2-20.7-20.1-31.9Z"/>
    </g>
  </g>
  <g class="st18">
    <line class="st1" x1="1071.2" y1="312.3" x2="1071.2" y2="407.9"/>
    <line class="st1" x1="1116.7" y1="312.3" x2="1116.7" y2="407.9"/>
    <line class="st1" x1="1162.1" y1="312.3" x2="1162.1" y2="407.9"/>
    <line class="st1" x1="1207.6" y1="312.3" x2="1207.6" y2="407.9"/>
    <text class="st4" transform="translate(150.2 14.6)"><tspan x="0" y="0">(a)</tspan></text>
    <text class="st4" transform="translate(400 14.6)"><tspan x="0" y="0">(b)</tspan></text>
    <text class="st4" transform="translate(670.6 14.6)"><tspan x="0" y="0">(c)</tspan></text>
    <line class="st1" x1="1070.2" y1="407" x2="1207.6" y2="407"/>
    <line class="st1" x1="1138.9" y1="406.1" x2="1138.9" y2="465.6"/>
    <path class="st5" d="M1082,349.3c6,6,6,15.7,0,21.7-6,6-15.7,6-21.7,0-6-6-6-15.7,0-21.7,6-6,15.7-6,21.7,0Z"/>
    <circle class="st2" cx="1071.2" cy="360.1" r="15.3"/>
    <polyline class="st1" points="1088.3 375.2 1060.2 347.1 1059.4 346.4"/>
    <polygon points="1063.6 343.7 1053.4 340.3 1056.8 350.5 1063.6 343.7"/>
    <path class="st5" d="M1127.5,349.3c6,6,6,15.7,0,21.7-6,6-15.7,6-21.7,0-6-6-6-15.7,0-21.7,6-6,15.7-6,21.7,0Z"/>
    <circle class="st2" cx="1116.7" cy="360.1" r="15.3"/>
    <polyline class="st1" points="1133.8 375.2 1105.6 347.1 1104.9 346.4"/>
    <polygon points="1109 343.7 1098.8 340.3 1102.2 350.5 1109 343.7"/>
    <g>
      <path class="st5" d="M1172.4,350c6,6,6,15.7,0,21.7-6,6-15.7,6-21.7,0-6-6-6-15.7,0-21.7,6-6,15.7-6,21.7,0Z"/>
      <circle class="st2" cx="1161.6" cy="360.8" r="15.3"/>
      <polyline class="st1" points="1178.7 376 1150.5 347.8 1149.8 347.1"/>
      <polygon points="1153.9 344.4 1143.8 341 1147.2 351.2 1153.9 344.4"/>
    </g>
    <path class="st5" d="M1213,353.3c6,6,6,15.7,0,21.7-6,6-15.7,6-21.7,0-6-6-6-15.7,0-21.7,6-6,15.7-6,21.7,0Z"/>
    <circle class="st3" cx="1207.6" cy="364.6" r="15.3"/>
    <polyline class="st1" points="1224.7 379.7 1196.6 351.5 1195.9 350.8"/>
    <polygon points="1200 348.2 1189.8 344.8 1193.2 354.9 1200 348.2"/>
    <text class="st4" transform="translate(1020.7 27)"><tspan x="0" y="0">(d)</tspan></text>
    <polyline class="st1" points="1258.3 395.3 1235.6 372.6 1234.9 371.9"/>
    <polygon points="1239 369.2 1228.8 365.8 1232.2 376 1239 369.2"/>
    <text class="st4" transform="translate(1216.5 414.6)"><tspan x="0" y="0">Phase shifters</tspan></text>
  </g>
</svg>