<?xml version="1.0" encoding="UTF-8"?>
<svg id="Ebene_1" xmlns="http://www.w3.org/2000/svg" xmlns:xlink="http://www.w3.org/1999/xlink" version="1.1" viewBox="0 0 2173.7 847.3">
  <!-- Generator: Adobe Illustrator 29.4.0, SVG Export Plug-In . SVG Version: 2.1.0 Build 152)  -->
  <defs>
    <style>
      .st0, .st1, .st2, .st3, .st4, .st5, .st6, .st7 {
        fill: none;
      }

      .st1 {
        stroke: #b0b0b0;
      }

      .st1, .st2, .st3, .st6, .st7 {
        stroke-linejoin: round;
      }

      .st1, .st3, .st5 {
        stroke-width: 1px;
      }

      .st1, .st5, .st6, .st7 {
        stroke-linecap: square;
      }

      .st2 {
        stroke: gray;
        stroke-dasharray: .6 1;
        stroke-width: .6px;
      }

      .st8 {
        font-family: HelveticaNeue, 'Helvetica Neue';
        font-size: 20px;
      }

      .st3, .st5 {
        stroke: #000;
      }

      .st9 {
        clip-path: url(#clippath-17);
      }

      .st10 {
        clip-path: url(#clippath-19);
      }

      .st11 {
        clip-path: url(#clippath-11);
      }

      .st12 {
        clip-path: url(#clippath-16);
      }

      .st13 {
        clip-path: url(#clippath-18);
      }

      .st14 {
        clip-path: url(#clippath-10);
      }

      .st15 {
        clip-path: url(#clippath-15);
      }

      .st16 {
        clip-path: url(#clippath-13);
      }

      .st17 {
        clip-path: url(#clippath-14);
      }

      .st18 {
        clip-path: url(#clippath-12);
      }

      .st19 {
        clip-path: url(#clippath-61);
      }

      .st20 {
        clip-path: url(#clippath-67);
      }

      .st21 {
        clip-path: url(#clippath-68);
      }

      .st22 {
        clip-path: url(#clippath-60);
      }

      .st23 {
        clip-path: url(#clippath-65);
      }

      .st24 {
        clip-path: url(#clippath-62);
      }

      .st25 {
        clip-path: url(#clippath-64);
      }

      .st26 {
        clip-path: url(#clippath-66);
      }

      .st27 {
        clip-path: url(#clippath-63);
      }

      .st28 {
        clip-path: url(#clippath-76);
      }

      .st29 {
        clip-path: url(#clippath-78);
      }

      .st30 {
        clip-path: url(#clippath-75);
      }

      .st31 {
        clip-path: url(#clippath-79);
      }

      .st32 {
        clip-path: url(#clippath-50);
      }

      .st33 {
        clip-path: url(#clippath-55);
      }

      .st34 {
        clip-path: url(#clippath-52);
      }

      .st35 {
        clip-path: url(#clippath-57);
      }

      .st36 {
        clip-path: url(#clippath-54);
      }

      .st37 {
        clip-path: url(#clippath-56);
      }

      .st38 {
        clip-path: url(#clippath-53);
      }

      .st39 {
        clip-path: url(#clippath-70);
      }

      .st40 {
        clip-path: url(#clippath-77);
      }

      .st41 {
        clip-path: url(#clippath-74);
      }

      .st42 {
        clip-path: url(#clippath-71);
      }

      .st43 {
        clip-path: url(#clippath-73);
      }

      .st44 {
        clip-path: url(#clippath-72);
      }

      .st45 {
        clip-path: url(#clippath-51);
      }

      .st46 {
        clip-path: url(#clippath-58);
      }

      .st47 {
        clip-path: url(#clippath-59);
      }

      .st48 {
        clip-path: url(#clippath-31);
      }

      .st49 {
        clip-path: url(#clippath-32);
      }

      .st50 {
        clip-path: url(#clippath-33);
      }

      .st51 {
        clip-path: url(#clippath-34);
      }

      .st52 {
        clip-path: url(#clippath-35);
      }

      .st53 {
        clip-path: url(#clippath-39);
      }

      .st54 {
        clip-path: url(#clippath-30);
      }

      .st55 {
        clip-path: url(#clippath-36);
      }

      .st56 {
        clip-path: url(#clippath-37);
      }

      .st57 {
        clip-path: url(#clippath-38);
      }

      .st58 {
        clip-path: url(#clippath-27);
      }

      .st59 {
        clip-path: url(#clippath-29);
      }

      .st60 {
        clip-path: url(#clippath-26);
      }

      .st61 {
        clip-path: url(#clippath-28);
      }

      .st62 {
        clip-path: url(#clippath-20);
      }

      .st63 {
        clip-path: url(#clippath-21);
      }

      .st64 {
        clip-path: url(#clippath-22);
      }

      .st65 {
        clip-path: url(#clippath-23);
      }

      .st66 {
        clip-path: url(#clippath-24);
      }

      .st67 {
        clip-path: url(#clippath-25);
      }

      .st68 {
        clip-path: url(#clippath-69);
      }

      .st69 {
        clip-path: url(#clippath-41);
      }

      .st70 {
        clip-path: url(#clippath-42);
      }

      .st71 {
        clip-path: url(#clippath-43);
      }

      .st72 {
        clip-path: url(#clippath-44);
      }

      .st73 {
        clip-path: url(#clippath-45);
      }

      .st74 {
        clip-path: url(#clippath-49);
      }

      .st75 {
        clip-path: url(#clippath-40);
      }

      .st76 {
        clip-path: url(#clippath-46);
      }

      .st77 {
        clip-path: url(#clippath-47);
      }

      .st78 {
        clip-path: url(#clippath-48);
      }

      .st79 {
        clip-path: url(#clippath-85);
      }

      .st80 {
        clip-path: url(#clippath-86);
      }

      .st81 {
        clip-path: url(#clippath-87);
      }

      .st82 {
        clip-path: url(#clippath-80);
      }

      .st83 {
        clip-path: url(#clippath-89);
      }

      .st84 {
        clip-path: url(#clippath-81);
      }

      .st85 {
        clip-path: url(#clippath-82);
      }

      .st86 {
        clip-path: url(#clippath-83);
      }

      .st87 {
        clip-path: url(#clippath-84);
      }

      .st88 {
        clip-path: url(#clippath-88);
      }

      .st89 {
        clip-path: url(#clippath-1);
      }

      .st90 {
        clip-path: url(#clippath-3);
      }

      .st91 {
        clip-path: url(#clippath-4);
      }

      .st92 {
        clip-path: url(#clippath-2);
      }

      .st93 {
        clip-path: url(#clippath-7);
      }

      .st94 {
        clip-path: url(#clippath-6);
      }

      .st95 {
        clip-path: url(#clippath-9);
      }

      .st96 {
        clip-path: url(#clippath-8);
      }

      .st97 {
        clip-path: url(#clippath-5);
      }

      .st98 {
        fill: #fff;
      }

      .st4 {
        stroke: #00ab8e;
        stroke-width: 3px;
      }

      .st6 {
        stroke-width: 1.9px;
      }

      .st6, .st7 {
        stroke: #1f77b4;
      }

      .st99 {
        opacity: 0;
      }

      .st100 {
        clip-path: url(#clippath);
      }

      .st7 {
        stroke-width: 2.5px;
      }
    </style>
    <clipPath id="clippath">
      <rect class="st0" x="121.7" y="-144.7" width="2200" height="1080"/>
    </clipPath>
    <clipPath id="clippath-1">
      <rect class="st0" x="539.1" y="11.9" width="1095.4" height="806.8"/>
    </clipPath>
    <clipPath id="clippath-2">
      <rect class="st0" x="539.1" y="11.9" width="1095.4" height="806.8"/>
    </clipPath>
    <clipPath id="clippath-3">
      <rect class="st0" x="618.5" y="44.1" width="1002.4" height="343.1"/>
    </clipPath>
    <clipPath id="clippath-4">
      <rect class="st0" x="539.1" y="11.9" width="1095.4" height="806.8"/>
    </clipPath>
    <clipPath id="clippath-5">
      <rect class="st0" x="618.5" y="44.1" width="1002.4" height="343.1"/>
    </clipPath>
    <clipPath id="clippath-6">
      <rect class="st0" x="539.1" y="11.9" width="1095.4" height="806.8"/>
    </clipPath>
    <clipPath id="clippath-7">
      <rect class="st0" x="618.5" y="44.1" width="1002.4" height="343.1"/>
    </clipPath>
    <clipPath id="clippath-8">
      <rect class="st0" x="539.1" y="11.9" width="1095.4" height="806.8"/>
    </clipPath>
    <clipPath id="clippath-9">
      <rect class="st0" x="618.5" y="44.1" width="1002.4" height="343.1"/>
    </clipPath>
    <clipPath id="clippath-10">
      <rect class="st0" x="539.1" y="11.9" width="1095.4" height="806.8"/>
    </clipPath>
    <clipPath id="clippath-11">
      <rect class="st0" x="618.5" y="44.1" width="1002.4" height="343.1"/>
    </clipPath>
    <clipPath id="clippath-12">
      <rect class="st0" x="539.1" y="11.9" width="1095.4" height="806.8"/>
    </clipPath>
    <clipPath id="clippath-13">
      <rect class="st0" x="618.5" y="44.1" width="1002.4" height="343.1"/>
    </clipPath>
    <clipPath id="clippath-14">
      <rect class="st0" x="539.1" y="11.9" width="1095.4" height="806.8"/>
    </clipPath>
    <clipPath id="clippath-15">
      <rect class="st0" x="618.5" y="44.1" width="1002.4" height="343.1"/>
    </clipPath>
    <clipPath id="clippath-16">
      <rect class="st0" x="539.1" y="11.9" width="1095.4" height="806.8"/>
    </clipPath>
    <clipPath id="clippath-17">
      <rect class="st0" x="618.5" y="44.1" width="1002.4" height="343.1"/>
    </clipPath>
    <clipPath id="clippath-18">
      <rect class="st0" x="539.1" y="11.9" width="1095.4" height="806.8"/>
    </clipPath>
    <clipPath id="clippath-19">
      <rect class="st0" x="618.5" y="44.1" width="1002.4" height="343.1"/>
    </clipPath>
    <clipPath id="clippath-20">
      <rect class="st0" x="539.1" y="11.9" width="1095.4" height="806.8"/>
    </clipPath>
    <clipPath id="clippath-21">
      <rect class="st0" x="618.5" y="44.1" width="1002.4" height="343.1"/>
    </clipPath>
    <clipPath id="clippath-22">
      <rect class="st0" x="539.1" y="11.9" width="1095.4" height="806.8"/>
    </clipPath>
    <clipPath id="clippath-23">
      <rect class="st0" x="618.5" y="44.1" width="1002.4" height="343.1"/>
    </clipPath>
    <clipPath id="clippath-24">
      <rect class="st0" x="539.1" y="11.9" width="1095.4" height="806.8"/>
    </clipPath>
    <clipPath id="clippath-25">
      <rect class="st0" x="618.5" y="44.1" width="1002.4" height="343.1"/>
    </clipPath>
    <clipPath id="clippath-26">
      <rect class="st0" x="539.1" y="11.9" width="1095.4" height="806.8"/>
    </clipPath>
    <clipPath id="clippath-27">
      <rect class="st0" x="618.5" y="44.1" width="1002.4" height="343.1"/>
    </clipPath>
    <clipPath id="clippath-28">
      <rect class="st0" x="539.1" y="11.9" width="1095.4" height="806.8"/>
    </clipPath>
    <clipPath id="clippath-29">
      <rect class="st0" x="618.5" y="44.1" width="1002.4" height="343.1"/>
    </clipPath>
    <clipPath id="clippath-30">
      <rect class="st0" x="539.1" y="11.9" width="1095.4" height="806.8"/>
    </clipPath>
    <clipPath id="clippath-31">
      <rect class="st0" x="618.5" y="44.1" width="1002.4" height="343.1"/>
    </clipPath>
    <clipPath id="clippath-32">
      <rect class="st0" x="539.1" y="11.9" width="1095.4" height="806.8"/>
    </clipPath>
    <clipPath id="clippath-33">
      <rect class="st0" x="618.5" y="44.1" width="1002.4" height="343.1"/>
    </clipPath>
    <clipPath id="clippath-34">
      <rect class="st0" x="539.1" y="11.9" width="1095.4" height="806.8"/>
    </clipPath>
    <clipPath id="clippath-35">
      <rect class="st0" x="618.5" y="44.1" width="1002.4" height="343.1"/>
    </clipPath>
    <clipPath id="clippath-36">
      <rect class="st0" x="618.5" y="44.1" width="1002.4" height="343.1"/>
    </clipPath>
    <clipPath id="clippath-37">
      <rect class="st0" x="618.5" y="44.1" width="1002.4" height="343.1"/>
    </clipPath>
    <clipPath id="clippath-38">
      <rect class="st0" x="618.5" y="44.1" width="1002.4" height="343.1"/>
    </clipPath>
    <clipPath id="clippath-39">
      <rect class="st0" x="618.5" y="44.1" width="1002.4" height="343.1"/>
    </clipPath>
    <clipPath id="clippath-40">
      <rect class="st0" x="618.5" y="44.1" width="1002.4" height="343.1"/>
    </clipPath>
    <clipPath id="clippath-41">
      <rect class="st0" x="618.5" y="44.1" width="1002.4" height="343.1"/>
    </clipPath>
    <clipPath id="clippath-42">
      <rect class="st0" x="618.5" y="44.1" width="1002.4" height="343.1"/>
    </clipPath>
    <clipPath id="clippath-43">
      <rect class="st0" x="618.5" y="44.1" width="1002.4" height="343.1"/>
    </clipPath>
    <clipPath id="clippath-44">
      <rect class="st0" x="618.5" y="44.1" width="1002.4" height="343.1"/>
    </clipPath>
    <clipPath id="clippath-45">
      <rect class="st0" x="539.1" y="11.9" width="1095.4" height="806.8"/>
    </clipPath>
    <clipPath id="clippath-46">
      <rect class="st0" x="618.5" y="439.6" width="1002.4" height="343.1"/>
    </clipPath>
    <clipPath id="clippath-47">
      <rect class="st0" x="539.1" y="11.9" width="1095.4" height="806.8"/>
    </clipPath>
    <clipPath id="clippath-48">
      <rect class="st0" x="618.5" y="439.6" width="1002.4" height="343.1"/>
    </clipPath>
    <clipPath id="clippath-49">
      <rect class="st0" x="539.1" y="11.9" width="1095.4" height="806.8"/>
    </clipPath>
    <clipPath id="clippath-50">
      <rect class="st0" x="618.5" y="439.6" width="1002.4" height="343.1"/>
    </clipPath>
    <clipPath id="clippath-51">
      <rect class="st0" x="539.1" y="11.9" width="1095.4" height="806.8"/>
    </clipPath>
    <clipPath id="clippath-52">
      <rect class="st0" x="618.5" y="439.6" width="1002.4" height="343.1"/>
    </clipPath>
    <clipPath id="clippath-53">
      <rect class="st0" x="539.1" y="11.9" width="1095.4" height="806.8"/>
    </clipPath>
    <clipPath id="clippath-54">
      <rect class="st0" x="618.5" y="439.6" width="1002.4" height="343.1"/>
    </clipPath>
    <clipPath id="clippath-55">
      <rect class="st0" x="539.1" y="11.9" width="1095.4" height="806.8"/>
    </clipPath>
    <clipPath id="clippath-56">
      <rect class="st0" x="618.5" y="439.6" width="1002.4" height="343.1"/>
    </clipPath>
    <clipPath id="clippath-57">
      <rect class="st0" x="539.1" y="11.9" width="1095.4" height="806.8"/>
    </clipPath>
    <clipPath id="clippath-58">
      <rect class="st0" x="618.5" y="439.6" width="1002.4" height="343.1"/>
    </clipPath>
    <clipPath id="clippath-59">
      <rect class="st0" x="539.1" y="11.9" width="1095.4" height="806.8"/>
    </clipPath>
    <clipPath id="clippath-60">
      <rect class="st0" x="618.5" y="439.6" width="1002.4" height="343.1"/>
    </clipPath>
    <clipPath id="clippath-61">
      <rect class="st0" x="539.1" y="11.9" width="1095.4" height="806.8"/>
    </clipPath>
    <clipPath id="clippath-62">
      <rect class="st0" x="618.5" y="439.6" width="1002.4" height="343.1"/>
    </clipPath>
    <clipPath id="clippath-63">
      <rect class="st0" x="539.1" y="11.9" width="1095.4" height="806.8"/>
    </clipPath>
    <clipPath id="clippath-64">
      <rect class="st0" x="618.5" y="439.6" width="1002.4" height="343.1"/>
    </clipPath>
    <clipPath id="clippath-65">
      <rect class="st0" x="539.1" y="11.9" width="1095.4" height="806.8"/>
    </clipPath>
    <clipPath id="clippath-66">
      <rect class="st0" x="618.5" y="439.6" width="1002.4" height="343.1"/>
    </clipPath>
    <clipPath id="clippath-67">
      <rect class="st0" x="539.1" y="11.9" width="1095.4" height="806.8"/>
    </clipPath>
    <clipPath id="clippath-68">
      <rect class="st0" x="618.5" y="439.6" width="1002.4" height="343.1"/>
    </clipPath>
    <clipPath id="clippath-69">
      <rect class="st0" x="539.1" y="11.9" width="1095.4" height="806.8"/>
    </clipPath>
    <clipPath id="clippath-70">
      <rect class="st0" x="618.5" y="439.6" width="1002.4" height="343.1"/>
    </clipPath>
    <clipPath id="clippath-71">
      <rect class="st0" x="539.1" y="11.9" width="1095.4" height="806.8"/>
    </clipPath>
    <clipPath id="clippath-72">
      <rect class="st0" x="618.5" y="439.6" width="1002.4" height="343.1"/>
    </clipPath>
    <clipPath id="clippath-73">
      <rect class="st0" x="539.1" y="11.9" width="1095.4" height="806.8"/>
    </clipPath>
    <clipPath id="clippath-74">
      <rect class="st0" x="618.5" y="439.6" width="1002.4" height="343.1"/>
    </clipPath>
    <clipPath id="clippath-75">
      <rect class="st0" x="539.1" y="11.9" width="1095.4" height="806.8"/>
    </clipPath>
    <clipPath id="clippath-76">
      <rect class="st0" x="618.5" y="439.6" width="1002.4" height="343.1"/>
    </clipPath>
    <clipPath id="clippath-77">
      <rect class="st0" x="539.1" y="11.9" width="1095.4" height="806.8"/>
    </clipPath>
    <clipPath id="clippath-78">
      <rect class="st0" x="618.5" y="439.6" width="1002.4" height="343.1"/>
    </clipPath>
    <clipPath id="clippath-79">
      <rect class="st0" x="618.5" y="439.6" width="1002.4" height="343.1"/>
    </clipPath>
    <clipPath id="clippath-80">
      <rect class="st0" x="618.5" y="439.6" width="1002.4" height="343.1"/>
    </clipPath>
    <clipPath id="clippath-81">
      <rect class="st0" x="618.5" y="439.6" width="1002.4" height="343.1"/>
    </clipPath>
    <clipPath id="clippath-82">
      <rect class="st0" x="618.5" y="439.6" width="1002.4" height="343.1"/>
    </clipPath>
    <clipPath id="clippath-83">
      <rect class="st0" x="618.5" y="439.6" width="1002.4" height="343.1"/>
    </clipPath>
    <clipPath id="clippath-84">
      <rect class="st0" x="618.5" y="439.6" width="1002.4" height="343.1"/>
    </clipPath>
    <clipPath id="clippath-85">
      <rect class="st0" x="618.5" y="439.6" width="1002.4" height="343.1"/>
    </clipPath>
    <clipPath id="clippath-86">
      <rect class="st0" x="618.5" y="439.6" width="1002.4" height="343.1"/>
    </clipPath>
    <clipPath id="clippath-87">
      <rect class="st0" x="618.5" y="439.6" width="1002.4" height="343.1"/>
    </clipPath>
    <clipPath id="clippath-88">
      <rect class="st0" x="539.1" y="11.9" width="1095.4" height="806.8"/>
    </clipPath>
    <clipPath id="clippath-89">
      <rect class="st0" x="121.7" y="-144.7" width="2200" height="1080"/>
    </clipPath>
  </defs>
  <g class="st100">
    <rect class="st98" x="121.7" y="-144.7" width="2200" height="1080"/>
  </g>
  <g class="st89">
    <rect class="st99" x="539.1" y="11.9" width="1095.4" height="807.6"/>
  </g>
  <g class="st92">
    <rect class="st98" x="618.5" y="44.1" width="1002.4" height="343.1"/>
  </g>
  <g class="st90">
    <line class="st1" x1="664" y1="387.1" x2="664" y2="44.1"/>
  </g>
  <g class="st91">
    <line x1="664" y1="387.1" x2="664" y2="391.6"/>
    <line class="st3" x1="664" y1="387.1" x2="664" y2="391.6"/>
    <path d="M657.9,396.3c1,0,1.8.4,2.4,1.3.5.8.8,2,.8,3.6s-.3,2.8-.8,3.6c-.5.8-1.4,1.3-2.4,1.3s-1.8-.4-2.4-1.3c-.5-.8-.8-2-.8-3.6s.3-2.8.8-3.6c.5-.8,1.4-1.3,2.4-1.3ZM657.9,397.3c-.6,0-1.1.4-1.4,1-.4.6-.5,1.6-.5,2.9s.1,2.2.5,2.8c.4.6.8,1,1.4,1s1.1-.4,1.5-1c.4-.6.5-1.5.5-2.8s-.1-2.3-.5-2.9c-.4-.6-.8-1-1.5-1Z"/>
    <rect x="663.4" y="404.1" width="1.3" height="1.5"/>
    <path d="M670.1,396.3c1,0,1.8.4,2.4,1.3.5.8.8,2,.8,3.6s-.3,2.8-.8,3.6c-.5.8-1.4,1.3-2.4,1.3s-1.8-.4-2.4-1.3c-.5-.8-.8-2-.8-3.6s.3-2.8.8-3.6c.5-.8,1.4-1.3,2.4-1.3ZM670.1,397.3c-.6,0-1.1.4-1.4,1-.4.6-.5,1.6-.5,2.9s.1,2.2.5,2.8c.4.6.8,1,1.4,1s1.1-.4,1.5-1c.4-.6.5-1.5.5-2.8s-.1-2.3-.5-2.9c-.4-.6-.8-1-1.5-1Z"/>
  </g>
  <g class="st97">
    <line class="st1" x1="815.9" y1="387.1" x2="815.9" y2="44.1"/>
  </g>
  <g class="st94">
    <line x1="815.9" y1="387.1" x2="815.9" y2="391.6"/>
    <line class="st3" x1="815.9" y1="387.1" x2="815.9" y2="391.6"/>
    <path d="M809.8,396.3c1,0,1.8.4,2.4,1.3.5.8.8,2,.8,3.6s-.3,2.8-.8,3.6c-.5.8-1.4,1.3-2.4,1.3s-1.8-.4-2.4-1.3c-.5-.8-.8-2-.8-3.6s.3-2.8.8-3.6c.5-.8,1.4-1.3,2.4-1.3ZM809.8,397.3c-.6,0-1.1.4-1.4,1-.4.6-.5,1.6-.5,2.9s.1,2.2.5,2.8c.4.6.8,1,1.4,1s1.1-.4,1.5-1c.4-.6.5-1.5.5-2.8s-.1-2.3-.5-2.9c-.4-.6-.8-1-1.5-1Z"/>
    <rect x="815.3" y="404.1" width="1.3" height="1.5"/>
    <path d="M819.3,396.4h4.9v1h-3.8v2.3c.1,0,.4,0,.5-.1h.5c1,0,1.9.3,2.4.9.6.5.9,1.3.9,2.3s-.3,1.8-.9,2.3c-.6.5-1.5.9-2.7.9h-1.1c-.4,0-.8-.1-1.3-.3v-1.3c.4.3.8.4,1.1.5.4.1.8.1,1.3.1.8,0,1.3-.1,1.6-.5.4-.4.6-.9.6-1.5s-.3-1.1-.6-1.5c-.4-.4-1-.5-1.6-.5h-1c-.4,0-.6.1-1,.4v-4.9Z"/>
  </g>
  <g class="st93">
    <line class="st1" x1="967.8" y1="387.1" x2="967.8" y2="44.1"/>
  </g>
  <g class="st96">
    <line x1="967.8" y1="387.1" x2="967.8" y2="391.6"/>
    <line class="st3" x1="967.8" y1="387.1" x2="967.8" y2="391.6"/>
    <polygon points="959.3 404.6 961.3 404.6 961.3 397.5 959 398 959 396.9 961.2 396.4 962.5 396.4 962.5 404.6 964.5 404.6 964.5 405.7 959.2 405.7 959.2 404.6 959.3 404.6"/>
    <rect x="967.2" y="404.1" width="1.3" height="1.5"/>
    <path d="M973.9,396.3c1,0,1.8.4,2.4,1.3.5.8.8,2,.8,3.6s-.3,2.8-.8,3.6c-.5.8-1.4,1.3-2.4,1.3s-1.8-.4-2.4-1.3c-.5-.8-.8-2-.8-3.6s.3-2.8.8-3.6c.5-.8,1.4-1.3,2.4-1.3ZM973.9,397.3c-.6,0-1.1.4-1.4,1-.4.6-.5,1.6-.5,2.9s.1,2.2.5,2.8c.4.6.8,1,1.4,1s1.1-.4,1.5-1c.4-.6.5-1.5.5-2.8s-.1-2.3-.5-2.9c-.4-.6-.8-1-1.5-1Z"/>
  </g>
  <g class="st95">
    <line class="st1" x1="1119.7" y1="387.1" x2="1119.7" y2="44.1"/>
  </g>
  <g class="st14">
    <line x1="1119.7" y1="387.1" x2="1119.7" y2="391.6"/>
    <line class="st3" x1="1119.7" y1="387.1" x2="1119.7" y2="391.6"/>
    <polygon points="1111.2 404.6 1113.2 404.6 1113.2 397.5 1110.9 398 1110.9 396.9 1113.1 396.4 1114.4 396.4 1114.4 404.6 1116.4 404.6 1116.4 405.7 1111.1 405.7 1111.1 404.6 1111.2 404.6"/>
    <rect x="1119" y="404.1" width="1.3" height="1.5"/>
    <path d="M1123.1,396.4h4.9v1h-3.8v2.3c.1,0,.4,0,.5-.1h.5c1,0,1.9.3,2.4.9.6.5.9,1.3.9,2.3s-.3,1.8-.9,2.3c-.6.5-1.5.9-2.7.9h-1.1c-.4,0-.8-.1-1.3-.3v-1.3c.4.3.8.4,1.1.5.4.1.8.1,1.3.1.8,0,1.3-.1,1.6-.5.4-.4.6-.9.6-1.5s-.3-1.1-.6-1.5c-.4-.4-1-.5-1.6-.5h-1c-.4,0-.6.1-1,.4v-4.9Z"/>
  </g>
  <g class="st11">
    <line class="st1" x1="1271.7" y1="387.1" x2="1271.7" y2="44.1"/>
  </g>
  <g class="st18">
    <line x1="1271.7" y1="387.1" x2="1271.7" y2="391.6"/>
    <line class="st3" x1="1271.7" y1="387.1" x2="1271.7" y2="391.6"/>
    <path d="M1264,404.6h4.3v1h-5.8v-1c.5-.5,1.1-1.1,1.9-2,.8-.9,1.4-1.4,1.5-1.6.4-.5.6-.9.9-1.1.1-.3.3-.6.3-.9,0-.5-.1-.9-.5-1.1-.4-.3-.8-.5-1.4-.5s-.8,0-1.3.3c-.4.1-.9.4-1.4.6v-1.3c.5-.3,1-.4,1.4-.5.4,0,.9-.1,1.1-.1,1,0,1.8.3,2.3.8.5.5.9,1.1.9,1.9s0,.8-.3,1.1c-.1.4-.4.8-.8,1.1,0,0-.4.5-1,1-.5.6-1.4,1.4-2.3,2.4h.1Z"/>
    <rect x="1270.9" y="404.1" width="1.3" height="1.5"/>
    <path d="M1277.7,396.3c1,0,1.8.4,2.4,1.3.5.8.8,2,.8,3.6s-.3,2.8-.8,3.6c-.5.8-1.4,1.3-2.4,1.3s-1.8-.4-2.4-1.3c-.5-.8-.8-2-.8-3.6s.3-2.8.8-3.6c.5-.8,1.4-1.3,2.4-1.3ZM1277.7,397.3c-.6,0-1.1.4-1.4,1-.4.6-.5,1.6-.5,2.9s.1,2.2.5,2.8c.4.6.8,1,1.4,1s1.1-.4,1.5-1c.4-.6.5-1.5.5-2.8s-.1-2.3-.5-2.9c-.4-.6-.8-1-1.5-1Z"/>
  </g>
  <g class="st16">
    <line class="st1" x1="1423.6" y1="387.1" x2="1423.6" y2="44.1"/>
  </g>
  <g class="st17">
    <line x1="1423.6" y1="387.1" x2="1423.6" y2="391.6"/>
    <line class="st3" x1="1423.6" y1="387.1" x2="1423.6" y2="391.6"/>
    <path d="M1415.9,404.6h4.3v1h-5.8v-1c.5-.5,1.1-1.1,1.9-2,.8-.9,1.4-1.4,1.5-1.6.4-.5.6-.9.9-1.1.1-.3.3-.6.3-.9,0-.5-.1-.9-.5-1.1-.4-.3-.8-.5-1.4-.5s-.8,0-1.3.3c-.4.1-.9.4-1.4.6v-1.3c.5-.3,1-.4,1.4-.5.4,0,.9-.1,1.1-.1,1,0,1.8.3,2.3.8.5.5.9,1.1.9,1.9s0,.8-.3,1.1c-.1.4-.4.8-.8,1.1,0,0-.4.5-1,1-.5.6-1.4,1.4-2.3,2.4h.1Z"/>
    <rect x="1422.8" y="404.1" width="1.3" height="1.5"/>
    <path d="M1426.9,396.4h4.9v1h-3.8v2.3c.1,0,.4,0,.5-.1h.5c1,0,1.9.3,2.4.9.6.5.9,1.3.9,2.3s-.3,1.8-.9,2.3c-.6.5-1.5.9-2.7.9h-1.1c-.4,0-.8-.1-1.3-.3v-1.3c.4.3.8.4,1.1.5.4.1.8.1,1.3.1.8,0,1.3-.1,1.6-.5.4-.4.6-.9.6-1.5s-.3-1.1-.6-1.5c-.4-.4-1-.5-1.6-.5h-1c-.4,0-.6.1-1,.4v-4.9Z"/>
  </g>
  <g class="st15">
    <line class="st1" x1="1575.5" y1="387.1" x2="1575.5" y2="44.1"/>
  </g>
  <g class="st12">
    <line x1="1575.5" y1="387.1" x2="1575.5" y2="391.6"/>
    <line class="st3" x1="1575.5" y1="387.1" x2="1575.5" y2="391.6"/>
    <path d="M1570.5,400.7c.6.1,1,.4,1.4.8.4.4.5.9.5,1.5s-.3,1.6-.9,2.2c-.6.5-1.5.8-2.7.8h-1.1c-.4,0-.9-.3-1.3-.4v-1.3c.4.3.8.4,1.1.5.4,0,.9.1,1.3.1.8,0,1.4-.1,1.8-.5.4-.4.6-.8.6-1.4s-.3-1-.6-1.3c-.4-.3-.9-.5-1.6-.5h-1.1v-1h1.1c.6,0,1.1,0,1.4-.4.3-.4.5-.6.5-1s-.1-.9-.5-1.1c-.4-.3-.8-.4-1.4-.4h-1.1c-.4,0-.8.1-1.3.4v-1.1c.5-.1.9-.3,1.4-.3h1.1c.9,0,1.6.3,2.3.6.5.4.9,1,.9,1.8s-.1.9-.4,1.3c-.3.4-.8.6-1.3.8h-.1Z"/>
    <rect x="1574.9" y="404.1" width="1.3" height="1.5"/>
    <path d="M1581.4,396.3c1,0,1.8.4,2.4,1.3.5.8.8,2,.8,3.6s-.3,2.8-.8,3.6c-.5.8-1.4,1.3-2.4,1.3s-1.8-.4-2.4-1.3c-.5-.8-.8-2-.8-3.6s.3-2.8.8-3.6c.5-.8,1.4-1.3,2.4-1.3ZM1581.4,397.3c-.6,0-1.1.4-1.4,1-.4.6-.5,1.6-.5,2.9s.1,2.2.5,2.8c.4.6.8,1,1.4,1s1.1-.4,1.5-1c.4-.6.5-1.5.5-2.8s-.1-2.3-.5-2.9c-.4-.6-.8-1-1.5-1Z"/>
  </g>
  <g class="st9">
    <line class="st1" x1="618.5" y1="371.5" x2="1620.9" y2="371.5"/>
  </g>
  <g class="st13">
    <line x1="618.5" y1="371.5" x2="614.1" y2="371.5"/>
    <line class="st3" x1="618.5" y1="371.5" x2="614.1" y2="371.5"/>
    <rect x="572.1" y="371.9" width="8" height="1"/>
    <polygon points="582.9 375.4 584.9 375.4 584.9 368.3 582.6 368.8 582.6 367.6 584.8 367.1 586 367.1 586 375.4 588.1 375.4 588.1 376.4 582.7 376.4 582.7 375.4 582.9 375.4"/>
    <rect x="590.7" y="374.8" width="1.3" height="1.5"/>
    <path d="M597.4,367c1,0,1.8.4,2.4,1.3.5.8.8,2,.8,3.6s-.3,2.8-.8,3.6c-.5.8-1.4,1.3-2.4,1.3s-1.8-.4-2.4-1.3c-.5-.8-.8-2-.8-3.6s.3-2.8.8-3.6c.5-.8,1.4-1.3,2.4-1.3ZM597.4,368c-.6,0-1.1.4-1.4,1-.4.6-.5,1.6-.5,2.9s.1,2.2.5,2.8c.4.6.8,1,1.4,1s1.1-.4,1.5-1c.4-.6.5-1.5.5-2.8s-.1-2.3-.5-2.9c-.4-.6-.8-1-1.5-1Z"/>
    <path d="M605.6,367c1,0,1.8.4,2.4,1.3.5.8.8,2,.8,3.6s-.3,2.8-.8,3.6c-.5.8-1.4,1.3-2.4,1.3s-1.8-.4-2.4-1.3c-.5-.8-.8-2-.8-3.6s.3-2.8.8-3.6c.5-.8,1.4-1.3,2.4-1.3ZM605.6,368c-.6,0-1.1.4-1.4,1-.4.6-.5,1.6-.5,2.9s.1,2.2.5,2.8c.4.6.8,1,1.4,1s1.1-.4,1.5-1c.4-.6.5-1.5.5-2.8s-.1-2.3-.5-2.9c-.4-.6-.8-1-1.5-1Z"/>
  </g>
  <g class="st10">
    <line class="st1" x1="618.5" y1="332.6" x2="1620.9" y2="332.6"/>
  </g>
  <g class="st62">
    <line x1="618.5" y1="332.6" x2="614.1" y2="332.6"/>
    <line class="st3" x1="618.5" y1="332.6" x2="614.1" y2="332.6"/>
    <rect x="572.1" y="332.9" width="8" height="1"/>
    <path d="M585.4,328.1c1,0,1.8.4,2.4,1.3.5.8.8,2,.8,3.6s-.3,2.8-.8,3.6c-.5.8-1.4,1.3-2.4,1.3s-1.8-.4-2.4-1.3c-.5-.8-.8-2-.8-3.6s.3-2.8.8-3.6c.5-.8,1.4-1.3,2.4-1.3ZM585.4,328.9c-.6,0-1.1.4-1.4,1-.4.6-.5,1.6-.5,2.9s.1,2.2.5,2.8c.4.6.8,1,1.4,1s1.1-.4,1.5-1c.4-.6.5-1.5.5-2.8s-.1-2.3-.5-2.9c-.4-.6-.8-1-1.5-1Z"/>
    <rect x="590.7" y="335.8" width="1.3" height="1.5"/>
    <polygon points="594.5 328.2 600.5 328.2 600.5 328.7 597.2 337.4 595.9 337.4 599.1 329.2 594.7 329.2 594.7 328.2 594.5 328.2"/>
    <path d="M602.9,328.2h4.9v1h-3.8v2.3c.1,0,.4,0,.5-.1h.5c1,0,1.9.3,2.4.9.6.5.9,1.3.9,2.3s-.3,1.8-.9,2.3c-.6.5-1.5.9-2.7.9h-1.1c-.4,0-.8-.1-1.3-.3v-1.3c.4.3.8.4,1.1.5.4.1.8.1,1.3.1.8,0,1.3-.1,1.6-.5.4-.4.6-.9.6-1.5s-.3-1.1-.6-1.5c-.4-.4-1-.5-1.6-.5h-1c-.4,0-.6.1-1,.4v-4.9Z"/>
  </g>
  <g class="st63">
    <line class="st1" x1="618.5" y1="293.6" x2="1620.9" y2="293.6"/>
  </g>
  <g class="st64">
    <line x1="618.5" y1="293.6" x2="614.1" y2="293.6"/>
    <line class="st3" x1="618.5" y1="293.6" x2="614.1" y2="293.6"/>
    <rect x="572.1" y="294" width="8" height="1"/>
    <path d="M585.4,289c1,0,1.8.4,2.4,1.3.5.8.8,2,.8,3.5s-.3,2.8-.8,3.6c-.5.8-1.4,1.3-2.4,1.3s-1.8-.4-2.4-1.3c-.5-.8-.8-2-.8-3.6s.3-2.8.8-3.5c.5-.8,1.4-1.3,2.4-1.3ZM585.4,290c-.6,0-1.1.4-1.4,1-.4.6-.5,1.6-.5,2.9s.1,2.2.5,2.8c.4.6.8,1,1.4,1s1.1-.4,1.5-1c.4-.6.5-1.5.5-2.8s-.1-2.3-.5-2.9c-.4-.6-.8-1-1.5-1Z"/>
    <rect x="590.7" y="296.9" width="1.3" height="1.5"/>
    <path d="M594.8,289.1h4.9v1h-3.8v2.3c.1,0,.4,0,.5-.1h.5c1,0,1.9.3,2.4.9.6.5.9,1.3.9,2.3s-.3,1.8-.9,2.3c-.6.5-1.5.9-2.7.9h-1.1c-.4,0-.8-.1-1.3-.3v-1.3c.4.3.8.4,1.1.5.4.1.8.1,1.3.1.8,0,1.3-.1,1.6-.5.4-.4.6-.9.6-1.5s-.3-1.1-.6-1.5c-.4-.4-1-.5-1.6-.5h-1c-.4,0-.6.1-1,.4v-4.9Z"/>
    <path d="M605.6,289c1,0,1.8.4,2.4,1.3.5.8.8,2,.8,3.5s-.3,2.8-.8,3.6c-.5.8-1.4,1.3-2.4,1.3s-1.8-.4-2.4-1.3c-.5-.8-.8-2-.8-3.6s.3-2.8.8-3.5c.5-.8,1.4-1.3,2.4-1.3ZM605.6,290c-.6,0-1.1.4-1.4,1-.4.6-.5,1.6-.5,2.9s.1,2.2.5,2.8c.4.6.8,1,1.4,1s1.1-.4,1.5-1c.4-.6.5-1.5.5-2.8s-.1-2.3-.5-2.9c-.4-.6-.8-1-1.5-1Z"/>
  </g>
  <g class="st65">
    <line class="st1" x1="618.5" y1="254.7" x2="1620.9" y2="254.7"/>
  </g>
  <g class="st66">
    <line x1="618.5" y1="254.7" x2="614.1" y2="254.7"/>
    <line class="st3" x1="618.5" y1="254.7" x2="614.1" y2="254.7"/>
    <rect x="572.1" y="254.9" width="8" height="1"/>
    <path d="M585.4,250.1c1,0,1.8.4,2.4,1.3.5.8.8,2,.8,3.6s-.3,2.8-.8,3.6c-.5.8-1.4,1.3-2.4,1.3s-1.8-.4-2.4-1.3c-.5-.8-.8-2-.8-3.6s.3-2.8.8-3.6c.5-.8,1.4-1.3,2.4-1.3ZM585.4,251c-.6,0-1.1.4-1.4,1-.4.6-.5,1.6-.5,2.9s.1,2.2.5,2.8c.4.6.8,1,1.4,1s1.1-.4,1.5-1c.4-.6.5-1.5.5-2.8s-.1-2.3-.5-2.9c-.4-.6-.8-1-1.5-1Z"/>
    <rect x="590.7" y="257.8" width="1.3" height="1.5"/>
    <path d="M595.9,258.5h4.3v1h-5.8v-1c.5-.5,1.1-1.1,1.9-2,.8-.9,1.4-1.4,1.5-1.6.4-.5.6-.9.9-1.1.1-.3.3-.6.3-.9,0-.5-.1-.9-.5-1.1-.4-.3-.8-.5-1.4-.5s-.8,0-1.3.3c-.4.1-.9.4-1.4.6v-1.3c.5-.3,1-.4,1.4-.5.4,0,.9-.1,1.1-.1,1,0,1.8.3,2.3.8.5.5.9,1.1.9,1.9s0,.8-.3,1.1c-.1.4-.4.8-.8,1.1,0,0-.4.5-1,1-.5.6-1.4,1.4-2.3,2.4h.1Z"/>
    <path d="M602.9,250.2h4.9v1h-3.8v2.3c.1,0,.4,0,.5-.1h.5c1,0,1.9.3,2.4.9.6.5.9,1.3.9,2.3s-.3,1.8-.9,2.3c-.6.5-1.5.9-2.7.9h-1.1c-.4,0-.8-.1-1.3-.3v-1.3c.4.3.8.4,1.1.5.4.1.8.1,1.3.1.8,0,1.3-.1,1.6-.5.4-.4.6-.9.6-1.5s-.3-1.1-.6-1.5c-.4-.4-1-.5-1.6-.5h-1c-.4,0-.6.1-1,.4v-4.9Z"/>
  </g>
  <g class="st67">
    <line class="st1" x1="618.5" y1="215.6" x2="1620.9" y2="215.6"/>
  </g>
  <g class="st60">
    <line x1="618.5" y1="215.6" x2="614.1" y2="215.6"/>
    <line class="st3" x1="618.5" y1="215.6" x2="614.1" y2="215.6"/>
    <path d="M585.4,211c1,0,1.8.4,2.4,1.3.5.8.8,2,.8,3.6s-.3,2.8-.8,3.6c-.5.8-1.4,1.3-2.4,1.3s-1.8-.4-2.4-1.3c-.5-.8-.8-2-.8-3.6s.3-2.8.8-3.6c.5-.8,1.4-1.3,2.4-1.3ZM585.4,212c-.6,0-1.1.4-1.4,1-.4.6-.5,1.6-.5,2.9s.1,2.2.5,2.8c.4.6.8,1,1.4,1s1.1-.4,1.5-1c.4-.6.5-1.5.5-2.8s-.1-2.3-.5-2.9c-.4-.6-.8-1-1.5-1Z"/>
    <rect x="590.7" y="218.9" width="1.3" height="1.5"/>
    <path d="M597.4,211c1,0,1.8.4,2.4,1.3.5.8.8,2,.8,3.6s-.3,2.8-.8,3.6c-.5.8-1.4,1.3-2.4,1.3s-1.8-.4-2.4-1.3c-.5-.8-.8-2-.8-3.6s.3-2.8.8-3.6c.5-.8,1.4-1.3,2.4-1.3ZM597.4,212c-.6,0-1.1.4-1.4,1-.4.6-.5,1.6-.5,2.9s.1,2.2.5,2.8c.4.6.8,1,1.4,1s1.1-.4,1.5-1c.4-.6.5-1.5.5-2.8s-.1-2.3-.5-2.9c-.4-.6-.8-1-1.5-1Z"/>
    <path d="M605.6,211c1,0,1.8.4,2.4,1.3.5.8.8,2,.8,3.6s-.3,2.8-.8,3.6c-.5.8-1.4,1.3-2.4,1.3s-1.8-.4-2.4-1.3c-.5-.8-.8-2-.8-3.6s.3-2.8.8-3.6c.5-.8,1.4-1.3,2.4-1.3ZM605.6,212c-.6,0-1.1.4-1.4,1-.4.6-.5,1.6-.5,2.9s.1,2.2.5,2.8c.4.6.8,1,1.4,1s1.1-.4,1.5-1c.4-.6.5-1.5.5-2.8s-.1-2.3-.5-2.9c-.4-.6-.8-1-1.5-1Z"/>
  </g>
  <g class="st58">
    <line class="st1" x1="618.5" y1="176.7" x2="1620.9" y2="176.7"/>
  </g>
  <g class="st61">
    <line x1="618.5" y1="176.7" x2="614.1" y2="176.7"/>
    <line class="st3" x1="618.5" y1="176.7" x2="614.1" y2="176.7"/>
    <path d="M585.4,172.1c1,0,1.8.4,2.4,1.3.5.8.8,2,.8,3.6s-.3,2.8-.8,3.6c-.5.8-1.4,1.3-2.4,1.3s-1.8-.4-2.4-1.3c-.5-.8-.8-2-.8-3.6s.3-2.8.8-3.6c.5-.8,1.4-1.3,2.4-1.3ZM585.4,173c-.6,0-1.1.4-1.4,1-.4.6-.5,1.6-.5,2.9s.1,2.2.5,2.8c.4.6.8,1,1.4,1s1.1-.4,1.5-1c.4-.6.5-1.5.5-2.8s-.1-2.3-.5-2.9c-.4-.6-.8-1-1.5-1Z"/>
    <rect x="590.7" y="179.8" width="1.3" height="1.5"/>
    <path d="M595.9,180.5h4.3v1h-5.8v-1c.5-.5,1.1-1.1,1.9-2,.8-.9,1.4-1.4,1.5-1.6.4-.5.6-.9.9-1.1.1-.3.3-.6.3-.9,0-.5-.1-.9-.5-1.1-.4-.3-.8-.5-1.4-.5s-.8,0-1.3.3c-.4.1-.9.4-1.4.6v-1.3c.5-.3,1-.4,1.4-.5.4,0,.9-.1,1.1-.1,1,0,1.8.3,2.3.8.5.5.9,1.1.9,1.9s0,.8-.3,1.1c-.1.4-.4.8-.8,1.1,0,0-.4.5-1,1-.5.6-1.4,1.4-2.3,2.4h.1Z"/>
    <path d="M602.9,172.2h4.9v1h-3.8v2.3c.1,0,.4,0,.5-.1h.5c1,0,1.9.3,2.4.9.6.5.9,1.3.9,2.3s-.3,1.8-.9,2.3c-.6.5-1.5.9-2.7.9h-1.1c-.4,0-.8-.1-1.3-.3v-1.3c.4.3.8.4,1.1.5.4.1.8.1,1.3.1.8,0,1.3-.1,1.6-.5.4-.4.6-.9.6-1.5s-.3-1.1-.6-1.5c-.4-.4-1-.5-1.6-.5h-1c-.4,0-.6.1-1,.4v-4.9Z"/>
  </g>
  <g class="st59">
    <line class="st1" x1="618.5" y1="137.6" x2="1620.9" y2="137.6"/>
  </g>
  <g class="st54">
    <line x1="618.5" y1="137.6" x2="614.1" y2="137.6"/>
    <line class="st3" x1="618.5" y1="137.6" x2="614.1" y2="137.6"/>
    <path d="M585.4,133.1c1,0,1.8.4,2.4,1.3.5.8.8,2,.8,3.5s-.3,2.8-.8,3.6c-.5.8-1.4,1.3-2.4,1.3s-1.8-.4-2.4-1.3c-.5-.8-.8-2-.8-3.6s.3-2.8.8-3.5c.5-.8,1.4-1.3,2.4-1.3ZM585.4,134.1c-.6,0-1.1.4-1.4,1-.4.6-.5,1.6-.5,2.9s.1,2.2.5,2.8c.4.6.8,1,1.4,1s1.1-.4,1.5-1c.4-.6.5-1.5.5-2.8s-.1-2.3-.5-2.9c-.4-.6-.8-1-1.5-1Z"/>
    <rect x="590.7" y="140.9" width="1.3" height="1.5"/>
    <path d="M594.8,133.2h4.9v1h-3.8v2.3c.1,0,.4,0,.5-.1h.5c1,0,1.9.3,2.4.9.6.5.9,1.3.9,2.3s-.3,1.8-.9,2.3c-.6.5-1.5.9-2.7.9h-1.1c-.4,0-.8-.1-1.3-.3v-1.3c.4.3.8.4,1.1.5.4.1.8.1,1.3.1.8,0,1.3-.1,1.6-.5.4-.4.6-.9.6-1.5s-.3-1.1-.6-1.5c-.4-.4-1-.5-1.6-.5h-1c-.4,0-.6.1-1,.4v-4.9Z"/>
    <path d="M605.6,133.1c1,0,1.8.4,2.4,1.3.5.8.8,2,.8,3.5s-.3,2.8-.8,3.6c-.5.8-1.4,1.3-2.4,1.3s-1.8-.4-2.4-1.3c-.5-.8-.8-2-.8-3.6s.3-2.8.8-3.5c.5-.8,1.4-1.3,2.4-1.3ZM605.6,134.1c-.6,0-1.1.4-1.4,1-.4.6-.5,1.6-.5,2.9s.1,2.2.5,2.8c.4.6.8,1,1.4,1s1.1-.4,1.5-1c.4-.6.5-1.5.5-2.8s-.1-2.3-.5-2.9c-.4-.6-.8-1-1.5-1Z"/>
  </g>
  <g class="st48">
    <line class="st1" x1="618.5" y1="98.7" x2="1620.9" y2="98.7"/>
  </g>
  <g class="st49">
    <line x1="618.5" y1="98.7" x2="614.1" y2="98.7"/>
    <line class="st3" x1="618.5" y1="98.7" x2="614.1" y2="98.7"/>
    <path d="M585.4,94.1c1,0,1.8.4,2.4,1.3.5.8.8,2,.8,3.6s-.3,2.8-.8,3.6c-.5.8-1.4,1.3-2.4,1.3s-1.8-.4-2.4-1.3c-.5-.8-.8-2-.8-3.6s.3-2.8.8-3.6c.5-.8,1.4-1.3,2.4-1.3ZM585.4,95c-.6,0-1.1.4-1.4,1-.4.6-.5,1.6-.5,2.9s.1,2.2.5,2.8c.4.6.8,1,1.4,1s1.1-.4,1.5-1c.4-.6.5-1.5.5-2.8s-.1-2.3-.5-2.9c-.4-.6-.8-1-1.5-1Z"/>
    <rect x="590.7" y="101.9" width="1.3" height="1.5"/>
    <polygon points="594.5 94.3 600.5 94.3 600.5 94.8 597.2 103.5 595.9 103.5 599.1 95.3 594.7 95.3 594.7 94.3 594.5 94.3"/>
    <path d="M602.9,94.3h4.9v1h-3.8v2.3c.1,0,.4,0,.5-.1h.5c1,0,1.9.3,2.4.9.6.5.9,1.3.9,2.3s-.3,1.8-.9,2.3c-.6.5-1.5.9-2.7.9h-1.1c-.4,0-.8-.1-1.3-.3v-1.3c.4.3.8.4,1.1.5.4.1.8.1,1.3.1.8,0,1.3-.1,1.6-.5.4-.4.6-.9.6-1.5s-.3-1.1-.6-1.5c-.4-.4-1-.5-1.6-.5h-1c-.4,0-.6.1-1,.4v-4.9Z"/>
  </g>
  <g class="st50">
    <line class="st1" x1="618.5" y1="59.7" x2="1620.9" y2="59.7"/>
  </g>
  <g class="st51">
    <line x1="618.5" y1="59.7" x2="614.1" y2="59.7"/>
    <line class="st3" x1="618.5" y1="59.7" x2="614.1" y2="59.7"/>
    <polygon points="582.9 63.5 584.9 63.5 584.9 56.4 582.6 56.9 582.6 55.7 584.8 55.2 586 55.2 586 63.5 588.1 63.5 588.1 64.5 582.7 64.5 582.7 63.5 582.9 63.5"/>
    <rect x="590.7" y="62.9" width="1.3" height="1.5"/>
    <path d="M597.4,55.1c1,0,1.8.4,2.4,1.3.5.8.8,2,.8,3.6s-.3,2.8-.8,3.6c-.5.8-1.4,1.3-2.4,1.3s-1.8-.4-2.4-1.3c-.5-.8-.8-2-.8-3.6s.3-2.8.8-3.6c.5-.8,1.4-1.3,2.4-1.3ZM597.4,56.1c-.6,0-1.1.4-1.4,1-.4.6-.5,1.6-.5,2.9s.1,2.2.5,2.8c.4.6.8,1,1.4,1s1.1-.4,1.5-1c.4-.6.5-1.5.5-2.8s-.1-2.3-.5-2.9c-.4-.6-.8-1-1.5-1Z"/>
    <path d="M605.6,55.1c1,0,1.8.4,2.4,1.3.5.8.8,2,.8,3.6s-.3,2.8-.8,3.6c-.5.8-1.4,1.3-2.4,1.3s-1.8-.4-2.4-1.3c-.5-.8-.8-2-.8-3.6s.3-2.8.8-3.6c.5-.8,1.4-1.3,2.4-1.3ZM605.6,56.1c-.6,0-1.1.4-1.4,1-.4.6-.5,1.6-.5,2.9s.1,2.2.5,2.8c.4.6.8,1,1.4,1s1.1-.4,1.5-1c.4-.6.5-1.5.5-2.8s-.1-2.3-.5-2.9c-.4-.6-.8-1-1.5-1Z"/>
    <path d="M553.8,244.5v-1.4l9.3-3.6v1.3l-2.4.9v4.2l2.4.9v1.3l-9.3-3.5ZM555,243.7l4.6,1.6v-3.4l-4.6,1.6h0Z"/>
    <path d="M557.4,232.8c-.5-.3-.9-.6-1.1-1-.3-.4-.4-.9-.4-1.4s.3-1.3.8-1.6c.5-.4,1.3-.6,2.2-.6h4.2v1.1h-4.2c-.6,0-1.1,0-1.5.4-.4.3-.5.6-.5,1s.3,1,.6,1.4c.4.4.9.5,1.6.5h3.9v1.1h-4.2c-.6,0-1.1,0-1.5.4-.4.4-.5.6-.5,1.1s.3,1,.6,1.4c.4.4.9.5,1.6.5h3.9v1.1h-7v-1.1h1.1c-.4-.3-.8-.6-.9-.9-.1-.3-.3-.8-.3-1.3s.1-.9.4-1.3c.3-.4.6-.6,1.1-.8h-.1Z"/>
    <path d="M559.5,220.9c-.9,0-1.5.1-2,.5-.5.4-.8.8-.8,1.4s.3,1.1.8,1.4c.5.3,1.1.5,2,.5s1.5-.1,2-.5c.5-.4.8-.8.8-1.4s-.3-1-.8-1.4c-.5-.4-1.1-.5-2-.5ZM561.9,224.9h3.7v1.1h-9.5v-1.1h1c-.4-.3-.8-.5-.9-.9-.3-.4-.3-.8-.3-1.3,0-.9.4-1.5,1-2,.6-.5,1.5-.8,2.7-.8s2,.3,2.7.8c.6.5,1,1.3,1,2s0,.9-.3,1.3c-.3.4-.5.6-.9.9h-.3Z"/>
    <rect x="553.3" y="216.7" width="9.6" height="1.1"/>
    <path d="M553.3,214.3v-1.1h1.4v1.1h-1.4ZM556.1,214.3v-1.1h7v1.1h-7Z"/>
    <path d="M554.1,209.6h2v-2.4h.9v2.4h3.8c.5,0,.9,0,1.1-.3.3-.3.3-.5.3-.9v-1.1h1v1.1c0,.9-.1,1.5-.5,1.8-.4.4-.9.5-1.8.5h-3.8v.9h-.9v-.9h-2v-1.1h-.1Z"/>
    <path d="M555.9,203h0ZM560.3,206h-4.2v-1.1h4.2c.6,0,1.1-.1,1.5-.4s.5-.6.5-1.1-.3-1.1-.6-1.4c-.4-.4-.9-.5-1.6-.5h-3.9v-1.1h7v1.1h-1c.4.3.8.6.9,1,.3.4.3.8.3,1.3,0,.8-.3,1.4-.8,1.8-.5.4-1.3.6-2.2.6h0Z"/>
    <path d="M559.5,197.1c.9,0,1.5-.1,2-.5.5-.4.8-.8.8-1.4s-.3-1-.8-1.4c-.5-.4-1.1-.5-2-.5s-1.5.1-2,.5c-.5.4-.8.8-.8,1.4s.3,1,.8,1.4c.5.4,1.1.5,2,.5ZM557.1,193.3h-3.8v-1.1h9.6v1.1h-1c.4.3.8.5.9.9.3.4.3.8.3,1.3,0,.9-.4,1.5-1,2-.6.5-1.5.8-2.7.8s-2-.3-2.7-.8c-.6-.5-1-1.3-1-2s0-1,.3-1.3c.3-.4.5-.6.9-.9h.3Z"/>
    <path d="M558.9,184.9c-.6,0-1.1.1-1.5.5-.4.4-.5.8-.5,1.4s.1,1.1.5,1.5c.4.4.9.6,1.5.6v-4.1ZM559.3,183.8h.5v5.2c.8,0,1.4-.3,1.8-.8.4-.4.6-1,.6-1.8s0-.9-.1-1.3c-.1-.4-.3-.8-.5-1.3h1.1c.1.4.3.9.4,1.3.1.4.1.9.1,1.3,0,1.1-.4,2-1,2.7-.6.6-1.5,1-2.7,1s-2-.3-2.7-.9c-.6-.6-1-1.4-1-2.5s.3-1.6.9-2.2c.6-.5,1.4-.8,2.4-.8h.1Z"/>
  </g>
  <g class="st52">
    <polyline class="st6" points="664 215.6 666.5 136.2 667.9 101.9 669 81.3 669.8 68.8 670.6 62.3 671.1 60.3 671.4 59.7 671.6 59.7 671.9 60.3 672.4 62.3 673 67.1 673.8 76.5 674.7 92.2 675.7 116.1 677.1 153.6 679.5 230.2 681.8 299 683.2 332.5 684.2 352.2 685.1 363.8 685.7 368.6 686.2 370.7 686.4 371.3 686.7 371.3 687 370.7 687.5 368.6 688.1 363.8 688.9 354.4 689.7 338.7 690.8 314.9 692.2 277.3 694.6 200.8 696.8 131.9 698.2 98.4 699.3 78.8 700.1 67.1 700.8 62.3 701.3 60.3 701.5 59.7 701.8 59.7 702 60.3 702.6 62.3 703.2 67.1 703.9 76.5 704.8 92.2 705.8 116.1 707.2 153.6 709.7 230.2 711.9 299 713.3 332.5 714.3 352.2 715.2 363.8 715.9 368.6 716.4 370.7 716.6 371.3 716.9 371.3 717.1 370.7 717.6 368.6 718.3 363.8 719 354.4 719.9 338.7 720.9 314.9 722.3 277.3 724.7 200.8 727 131.9 728.4 98.4 729.4 78.8 730.3 67.1 731 62.3 731.5 60.3 731.7 59.7 732 59.7 732.2 60.3 732.7 62.3 733.4 67.1 734.1 76.5 735 92.2 736 116.1 737.4 153.6 739.8 230.2 742.1 299 743.5 332.5 744.5 352.2 745.4 363.8 746 368.6 746.5 370.7 746.8 371.3 747.1 371.3 747.3 370.7 747.8 368.6 748.4 363.8 749.2 354.4 750.1 338.7 751.1 314.9 752.5 277.3 754.5 215.5 757.1 294.8 758.5 329.2 759.5 349.7 760.4 362.3 761.1 368.8 761.6 370.8 761.9 371.4 762.1 371.4 762.4 370.8 762.9 368.8 763.5 363.9 764.3 354.6 765.2 338.8 766.2 315 767.6 277.5 770 200.9 772.3 132 773.7 98.6 774.7 78.9 775.6 67.3 776.2 62.4 776.7 60.4 777 59.8 777.2 59.8 777.5 60.4 778 62.4 778.6 67.3 779.4 76.6 780.3 92.4 781.3 116.2 782.7 153.7"/>
    <polyline class="st6" points="782.7 153.7 785.1 230.3 787.4 299.2 788.8 332.6 789.8 352.3 790.7 363.9 791.3 368.8 791.8 370.8 792.1 371.4 792.3 371.4 792.6 370.8 793.1 368.8 793.7 363.9 794.5 354.6 795.4 338.8 796.4 315 797.8 277.5 800.2 200.9 802.5 132 803.9 98.6 804.9 78.9 805.8 67.3 806.4 62.4 806.9 60.4 807.2 59.8 807.4 59.8 807.7 60.4 808.2 62.4 808.8 67.3 809.6 76.6 810.4 92.4 811.5 116.2 812.9 153.7 815.3 230.3 817.5 299.2 818.9 332.6 820 352.3 820.8 363.9 821.5 368.8 822 370.8 822.2 371.4 822.5 371.4 822.7 370.8 823.3 368.8 823.9 363.9 824.6 354.6 825.5 338.8 826.5 315 827.9 277.5 830.4 200.9 832.6 132 834 98.6 835 78.9 835.9 67.3 836.6 62.4 837.1 60.4 837.3 59.8 837.6 59.8 837.8 60.4 838.3 62.4 839 67.3 839.7 76.6 840.6 92.4 841.6 116.2 843 153.7 845.4 230.3 847.7 299.2 849.1 332.6 850.1 352.3 851 363.9 851.7 368.8 852.2 370.8 852.4 371.4 852.7 371.4 852.9 370.8 853.4 368.8 854.1 363.9 854.8 354.6 855.7 338.8 856.7 315 858.1 277.5 860.5 200.9 862.8 132 864.2 98.6 865.2 78.9 866.1 67.3 866.7 62.4 867.2 60.4 867.5 59.8 867.8 59.8 868 60.4 868.5 62.4 869.1 67.3 869.9 76.6 870.8 92.4 871.8 116.2 873.2 153.7 875.6 230.3 877.9 299.2 879.3 332.6 880.3 352.3 881.2 363.9 881.8 368.8 882.3 370.8 882.6 371.4 882.8 371.4 883.1 370.8 883.6 368.8 884.2 363.9 885 354.6 885.9 338.8 886.9 315 888.3 277.5 890.7 200.9 893 132 894.4 98.6 895.4 78.9 896.3 67.3 896.9 62.4 897.4 60.4 897.7 59.8 897.9 59.8 898.2 60.4 898.7 62.4 899.3 67.3 900.1 76.6 901 92.4 902 116.2"/>
    <polyline class="st6" points="902 116.2 903.4 153.7 905.8 230.3 908.1 299.2 909.5 332.6 910.5 352.3 911.4 363.9 912 368.8 912.5 370.8 912.8 371.4 913 371.4 913.3 370.8 913.8 368.8 914.4 363.9 915.2 354.6 916.1 338.8 917.1 315 918.5 277.5 920.9 200.9 923.2 132 924.6 98.6 925.6 78.9 926.5 67.3 927.1 62.4 927.6 60.4 927.9 59.8 928.1 59.8 928.4 60.4 928.9 62.4 929.5 67.3 930.3 76.6 931.1 92.4 932.2 116.2 933.6 153.7 935.6 215.6 938.1 136.2 939.5 101.9 940.5 81.3 941.4 68.8 942.2 62.3 942.7 60.3 942.9 59.7 943.2 59.7 943.4 60.3 944 62.3 944.6 67.1 945.3 76.5 946.2 92.2 947.3 116.1 948.6 153.6 951.1 230.2 953.3 299 954.7 332.5 955.7 352.2 956.6 363.8 957.3 368.6 957.8 370.7 958 371.3 958.3 371.3 958.5 370.7 959 368.6 959.7 363.8 960.4 354.4 961.3 338.7 962.3 314.9 963.7 277.3 966.1 200.8 968.4 131.9 969.8 98.4 970.8 78.8 971.7 67.1 972.4 62.3 972.9 60.3 973.1 59.7 973.4 59.7 973.6 60.3 974.1 62.3 974.8 67.1 975.5 76.5 976.4 92.2 977.4 116.1 978.8 153.6 981.2 230.2 983.5 299 984.9 332.5 985.9 352.2 986.8 363.8 987.4 368.6 988 370.7 988.2 371.3 988.5 371.3 988.7 370.7 989.2 368.6 989.9 363.8 990.6 354.4 991.5 338.7 992.5 314.9 993.9 277.3 996.3 200.8 998.6 131.9 1000 98.4 1001 78.8 1001.9 67.1 1002.5 62.3 1003 60.3 1003.3 59.7 1003.5 59.7 1003.8 60.3 1004.3 62.3 1004.9 67.1 1005.7 76.5 1006.6 92.2 1007.6 116.1 1009 153.6 1011.4 230.2 1013.7 299 1015.1 332.5 1016.1 352.2 1017 363.8 1017.6 368.6 1018.1 370.7 1018.4 371.3 1018.6 371.3 1018.9 370.7 1019.4 368.6 1020 363.8 1020.8 354.4 1021.7 338.7"/>
    <polyline class="st6" points="1021.7 338.7 1022.7 314.9 1024.1 277.3 1026.1 215.5 1028.6 294.8 1030 329.2 1031.1 349.7 1031.9 362.3 1032.7 368.8 1033.2 370.8 1033.5 371.4 1033.7 371.4 1034 370.8 1034.5 368.8 1035.1 363.9 1035.9 354.6 1036.8 338.8 1037.8 315 1039.2 277.5 1041.6 200.9 1043.9 132 1045.3 98.6 1046.3 78.9 1047.2 67.3 1047.8 62.4 1048.3 60.4 1048.6 59.8 1048.8 59.8 1049.1 60.4 1049.6 62.4 1050.2 67.3 1051 76.6 1051.9 92.4 1052.9 116.2 1054.3 153.7 1056.7 230.3 1059 299.2 1060.3 332.6 1061.4 352.3 1062.2 363.9 1062.9 368.8 1063.4 370.8 1063.6 371.4 1063.9 371.4 1064.2 370.8 1064.7 368.8 1065.3 363.9 1066.1 354.6 1066.9 338.8 1068 315 1069.3 277.5 1071.8 200.9 1074 132 1075.4 98.6 1076.4 78.9 1077.3 67.3 1078 62.4 1078.5 60.4 1078.7 59.8 1079 59.8 1079.2 60.4 1079.7 62.4 1080.4 67.3 1081.1 76.6 1082 92.4 1083 116.2 1084.4 153.7 1086.8 230.3 1089.1 299.2 1090.5 332.6 1091.5 352.3 1092.4 363.9 1093.1 368.8 1093.6 370.8 1093.8 371.4 1094.1 371.4 1094.3 370.8 1094.8 368.8 1095.5 363.9 1096.2 354.6 1097.1 338.8 1098.1 315 1099.5 277.5 1101.9 200.9 1104.2 132 1105.6 98.6 1106.6 78.9 1107.5 67.3 1108.1 62.4 1108.7 60.4 1108.9 59.8 1109.2 59.8 1109.4 60.4 1109.9 62.4 1110.6 67.3 1111.3 76.6 1112.2 92.4 1113.2 116.2 1114.6 153.7 1116.6 215.6 1119.2 136.2 1120.6 101.9 1121.6 81.3 1122.5 68.8 1123.2 62.3 1123.7 60.3 1124 59.7 1124.2 59.7 1124.5 60.3 1125 62.3 1125.6 67.1 1126.4 76.5 1127.3 92.2 1128.3 116.1 1129.7 153.6 1132.1 230.2 1134.4 299 1135.8 332.5 1136.8 352.2 1137.7 363.8 1138.3 368.6 1138.8 370.7 1139.1 371.3 1139.3 371.3 1139.6 370.7 1140.1 368.6 1140.7 363.8 1141.5 354.4"/>
    <polyline class="st6" points="1141.5 354.4 1142.4 338.7 1143.4 314.9 1144.8 277.3 1147.2 200.8 1149.5 131.9 1150.9 98.4 1151.9 78.8 1152.8 67.1 1153.4 62.3 1153.9 60.3 1154.2 59.7 1154.4 59.7 1154.7 60.3 1155.2 62.3 1155.8 67.1 1156.6 76.5 1157.5 92.2 1158.5 116.1 1159.9 153.6 1162.3 230.2 1164.6 299 1166 332.5 1167 352.2 1167.9 363.8 1168.5 368.6 1169 370.7 1169.3 371.3 1169.5 371.3 1169.8 370.7 1170.3 368.6 1170.9 363.8 1171.7 354.4 1172.6 338.7 1173.6 314.9 1175 277.3 1177.4 200.8 1179.7 131.9 1181 98.4 1182.1 78.8 1183 67.1 1183.6 62.3 1184.1 60.3 1184.3 59.7 1184.6 59.7 1184.9 60.3 1185.4 62.3 1186 67.1 1186.8 76.5 1187.6 92.2 1188.7 116.1 1190.1 153.6 1192.5 230.2 1194.7 299 1196.1 332.5 1197.2 352.2 1198 363.8 1198.7 368.6 1199.2 370.7 1199.4 371.3 1199.7 371.3 1199.9 370.7 1200.4 368.6 1201.1 363.8 1201.8 354.4 1202.7 338.7 1203.7 314.9 1205.1 277.3 1207.2 215.5 1209.7 294.8 1211.1 329.2 1212.1 349.7 1213 362.3 1213.8 368.8 1214.3 370.8 1214.5 371.4 1214.8 371.4 1215 370.8 1215.5 368.8 1216.2 363.9 1216.9 354.6 1217.8 338.8 1218.8 315 1220.2 277.5 1222.6 200.9 1224.9 132 1226.3 98.6 1227.3 78.9 1228.2 67.3 1228.8 62.4 1229.4 60.4 1229.6 59.8 1229.9 59.8 1230.1 60.4 1230.6 62.4 1231.3 67.3 1232 76.6 1232.9 92.4 1233.9 116.2 1235.3 153.7 1237.7 230.3 1240 299.2 1241.4 332.6 1242.4 352.3 1243.3 363.9 1243.9 368.8 1244.4 370.8 1244.7 371.4 1245 371.4 1245.2 370.8 1245.7 368.8 1246.3 363.9 1247.1 354.6 1248 338.8 1249 315 1250.4 277.5 1252.8 200.9 1255.1 132 1256.5 98.6 1257.5 78.9 1258.4 67.3 1259 62.4 1259.5 60.4 1259.8 59.8 1260 59.8 1260.3 60.4 1260.8 62.4 1261.4 67.3"/>
    <polyline class="st6" points="1261.4 67.3 1262.2 76.6 1263.1 92.4 1264.1 116.2 1265.5 153.7 1267.9 230.3 1270.2 299.2 1271.6 332.6 1272.6 352.3 1273.5 363.9 1274.1 368.8 1274.6 370.8 1274.9 371.4 1275.1 371.4 1275.4 370.8 1275.9 368.8 1276.5 363.9 1277.3 354.6 1278.2 338.8 1279.2 315 1280.6 277.5 1283 200.9 1285.3 132 1286.7 98.6 1287.7 78.9 1288.6 67.3 1289.2 62.4 1289.7 60.4 1290 59.8 1290.2 59.8 1290.5 60.4 1291 62.4 1291.6 67.3 1292.4 76.6 1293.3 92.4 1294.3 116.2 1295.7 153.7 1298.1 230.3 1300.4 299.2 1301.8 332.6 1302.8 352.3 1303.7 363.9 1304.3 368.8 1304.8 370.8 1305 371.4 1305.3 371.4 1305.6 370.8 1306.1 368.8 1306.7 363.9 1307.5 354.6 1308.3 338.8 1309.4 315 1310.8 277.5 1313.2 200.9 1315.4 132 1316.8 98.6 1317.9 78.9 1318.7 67.3 1319.4 62.4 1319.9 60.4 1320.1 59.8 1320.4 59.8 1320.6 60.4 1321.2 62.4 1321.8 67.3 1322.5 76.6 1323.4 92.4 1324.4 116.2 1325.8 153.7 1328.3 230.3 1330.5 299.2 1331.9 332.6 1332.9 352.3 1333.8 363.9 1334.5 368.8 1335 370.8 1335.2 371.4 1335.5 371.4 1335.7 370.8 1336.2 368.8 1336.9 363.9 1337.6 354.6 1338.5 338.8 1339.5 315 1340.9 277.5 1343.3 200.9 1345.6 132 1347 98.6 1348 78.9 1348.9 67.3 1349.6 62.4 1350.1 60.4 1350.3 59.8 1350.6 59.8 1350.8 60.4 1351.3 62.4 1352 67.3 1352.7 76.6 1353.6 92.4 1354.6 116.2 1356 153.7 1358.4 230.3 1360.7 299.2 1362.1 332.6 1363.1 352.3 1364 363.9 1364.6 368.8 1365.1 370.8 1365.4 371.4 1365.7 371.4 1365.9 370.8 1366.4 368.8 1367 363.9 1367.8 354.6 1368.7 338.8 1369.7 315 1371.1 277.5 1373.5 200.9 1375.8 132 1377.2 98.6 1378.2 78.9 1379.1 67.3 1379.7 62.4 1380.2 60.4 1380.5 59.8 1380.7 59.8 1381 60.4 1381.5 62.4"/>
    <polyline class="st6" points="1381.5 62.4 1382.1 67.3 1382.9 76.6 1383.8 92.4 1384.8 116.2 1386.2 153.7 1388.2 215.6 1390.8 136.2 1392.2 101.9 1393.2 81.3 1394.1 68.8 1394.8 62.3 1395.3 60.3 1395.6 59.7 1395.8 59.7 1396.1 60.3 1396.6 62.3 1397.2 67.1 1398 76.5 1398.9 92.2 1399.9 116.1 1401.3 153.6 1403.7 230.2 1406 299 1407.4 332.5 1408.4 352.2 1409.3 363.8 1409.9 368.6 1410.4 370.7 1410.7 371.3 1410.9 371.3 1411.2 370.7 1411.7 368.6 1412.3 363.8 1413.1 354.4 1414 338.7 1415 314.9 1416.4 277.3 1418.8 200.8 1421.1 131.9 1422.5 98.4 1423.5 78.8 1424.4 67.1 1425 62.3 1425.5 60.3 1425.8 59.7 1426 59.7 1426.3 60.3 1426.8 62.3 1427.4 67.1 1428.2 76.5 1429 92.2 1430.1 116.1 1431.5 153.6 1433.9 230.2 1436.1 299 1437.5 332.5 1438.6 352.2 1439.4 363.8 1440.1 368.6 1440.6 370.7 1440.8 371.3 1441.1 371.3 1441.3 370.7 1441.9 368.6 1442.5 363.8 1443.2 354.4 1444.1 338.7 1445.1 314.9 1446.5 277.3 1449 200.8 1451.2 131.9 1452.6 98.4 1453.6 78.8 1454.5 67.1 1455.2 62.3 1455.7 60.3 1455.9 59.7 1456.2 59.7 1456.4 60.3 1456.9 62.3 1457.6 67.1 1458.3 76.5 1459.2 92.2 1460.2 116.1 1461.6 153.6 1464 230.2 1466.3 299 1467.7 332.5 1468.7 352.2 1469.6 363.8 1470.3 368.6 1470.8 370.7 1471 371.3 1471.3 371.3 1471.5 370.7 1472 368.6 1472.7 363.8 1473.4 354.4 1474.3 338.7 1475.3 314.9 1476.7 277.3 1478.7 215.5 1481.3 294.8 1482.7 329.2 1483.7 349.7 1484.6 362.3 1485.3 368.8 1485.8 370.8 1486.1 371.4 1486.4 371.4 1486.6 370.8 1487.1 368.8 1487.7 363.9 1488.5 354.6 1489.4 338.8 1490.4 315 1491.8 277.5 1494.2 200.9 1496.5 132 1497.9 98.6 1498.9 78.9 1499.8 67.3 1500.4 62.4 1500.9 60.4 1501.2 59.8 1501.4 59.8 1501.7 60.4"/>
    <polyline class="st6" points="1501.7 60.4 1502.2 62.4 1502.8 67.3 1503.6 76.6 1504.5 92.4 1505.5 116.2 1506.9 153.7 1509.3 230.3 1511.6 299.2 1513 332.6 1514 352.3 1514.9 363.9 1515.5 368.8 1516 370.8 1516.3 371.4 1516.5 371.4 1516.8 370.8 1517.3 368.8 1517.9 363.9 1518.7 354.6 1519.6 338.8 1520.6 315 1522 277.5 1524.4 200.9 1526.7 132 1528.1 98.6 1529.1 78.9 1530 67.3 1530.6 62.4 1531.1 60.4 1531.4 59.8 1531.6 59.8 1531.9 60.4 1532.4 62.4 1533 67.3 1533.8 76.6 1534.7 92.4 1535.7 116.2 1537.1 153.7 1539.5 230.3 1541.8 299.2 1543.2 332.6 1544.2 352.3 1545.1 363.9 1545.7 368.8 1546.2 370.8 1546.5 371.4 1546.7 371.4 1547 370.8 1547.5 368.8 1548.1 363.9 1548.9 354.6 1549.7 338.8 1550.8 315 1552.2 277.5 1554.6 200.9 1556.8 132 1558.2 98.6 1559.3 78.9 1560.1 67.3 1560.8 62.4 1561.3 60.4 1561.5 59.8 1561.8 59.8 1562 60.4 1562.6 62.4 1563.2 67.3 1563.9 76.6 1564.8 92.4 1565.9 116.2 1567.2 153.7 1569 210.8"/>
  </g>
  <g class="st55">
    <line class="st2" x1="755.2" y1="387.1" x2="755.2" y2="44.1"/>
  </g>
  <g class="st56">
    <line class="st2" x1="846.3" y1="387.1" x2="846.3" y2="44.1"/>
  </g>
  <g class="st57">
    <line class="st2" x1="937.5" y1="387.1" x2="937.5" y2="44.1"/>
  </g>
  <g class="st53">
    <line class="st2" x1="1028.6" y1="387.1" x2="1028.6" y2="44.1"/>
  </g>
  <g class="st75">
    <line class="st2" x1="1119.7" y1="387.1" x2="1119.7" y2="44.1"/>
  </g>
  <g class="st69">
    <line class="st2" x1="1210.8" y1="387.1" x2="1210.8" y2="44.1"/>
  </g>
  <g class="st70">
    <line class="st2" x1="1302" y1="387.1" x2="1302" y2="44.1"/>
  </g>
  <g class="st71">
    <line class="st2" x1="1393.2" y1="387.1" x2="1393.2" y2="44.1"/>
  </g>
  <g class="st72">
    <line class="st2" x1="1484.3" y1="387.1" x2="1484.3" y2="44.1"/>
  </g>
  <g class="st73">
    <line class="st5" x1="618.5" y1="387.1" x2="618.5" y2="44.1"/>
    <line class="st5" x1="1620.9" y1="387.1" x2="1620.9" y2="44.1"/>
    <line class="st5" x1="618.5" y1="387.1" x2="1620.9" y2="387.1"/>
    <line class="st5" x1="618.5" y1="44.1" x2="1620.9" y2="44.1"/>
    <path d="M955,25.4h3.8c1.1,0,2,.3,2.7.8.6.5.9,1.1.9,2s-.1,1.3-.5,1.6c-.4.4-.8.6-1.4.8.8.1,1.3.5,1.8,1,.4.5.6,1.1.6,1.9s-.4,1.8-1,2.3c-.6.5-1.6.8-2.9.8h-3.9v-11h0ZM956.5,26.7v3.3h2.3c.8,0,1.3-.1,1.6-.4.4-.3.5-.6.5-1.3s-.1-1-.5-1.3c-.4-.3-.9-.4-1.6-.4h-2.3ZM956.5,31.3v4.1h2.4c.8,0,1.4-.1,1.8-.5.4-.4.6-.9.6-1.5s-.3-1.3-.6-1.5c-.4-.4-1-.5-1.8-.5h-2.4Z"/>
    <path d="M965.4,25.4h3.4c1.3,0,2.2.3,2.8.9.6.5,1,1.4,1,2.4s-.4,1.9-1,2.5c-.6.5-1.5.9-2.8.9h-1.9v4.4h-1.5v-11h0ZM966.9,26.7v4.2h1.9c.8,0,1.3-.1,1.6-.5.4-.4.6-.9.6-1.5s-.3-1.1-.6-1.5c-.4-.4-.9-.5-1.6-.5h-1.9Z"/>
    <path d="M981.2,25.8v1.5c-.5-.3-1.1-.5-1.6-.6-.5-.1-1-.3-1.5-.3-.8,0-1.4.1-1.9.5-.4.3-.6.8-.6,1.4s.1.9.4,1.1c.3.3.9.5,1.6.6h.9c1.1.4,1.9.8,2.5,1.3.6.5.8,1.3.8,2.2s-.4,1.9-1.1,2.4c-.8.5-1.8.9-3.2.9s-1.1,0-1.6-.1c-.6,0-1.1-.3-1.8-.5v-1.5c.6.4,1.3.6,1.8.8.6.1,1.1.3,1.8.3s1.5-.1,2-.5c.5-.4.8-.8.8-1.4s-.1-1-.5-1.3c-.4-.3-.9-.5-1.6-.6h-.9c-1.1-.4-1.9-.8-2.4-1.3-.5-.5-.8-1.1-.8-2s.4-1.8,1-2.3c.6-.5,1.6-.9,2.9-.9s1,0,1.6.1c.5,0,1.1.3,1.6.4h-.1Z"/>
    <polygon points="984.3 25.4 985.8 25.4 985.8 30.1 990.7 25.4 992.6 25.4 987.2 30.6 993.1 36.6 991.1 36.6 985.8 31.3 985.8 36.6 984.3 36.6 984.3 25.5 984.3 25.4"/>
    <path d="M1005.7,25.8v1.5c-.5-.3-1.1-.5-1.6-.6-.5-.1-1-.3-1.5-.3-.8,0-1.4.1-1.9.5-.4.3-.6.8-.6,1.4s.1.9.4,1.1c.3.3.9.5,1.6.6h.9c1.1.4,1.9.8,2.5,1.3.6.5.8,1.3.8,2.2s-.4,1.9-1.1,2.4c-.8.5-1.8.9-3.2.9s-1.1,0-1.6-.1c-.6,0-1.1-.3-1.8-.5v-1.5c.6.4,1.3.6,1.8.8.6.1,1.1.3,1.8.3s1.5-.1,2-.5c.5-.4.8-.8.8-1.4s-.1-1-.5-1.3c-.4-.3-.9-.5-1.6-.6h-.9c-1.1-.4-1.9-.8-2.4-1.3s-.8-1.1-.8-2,.4-1.8,1-2.3c.6-.5,1.6-.9,2.9-.9s1,0,1.6.1c.5,0,1.1.3,1.6.4h-.1Z"/>
    <path d="M1008.7,24.9h1.4v1.8h-1.4v-1.8ZM1008.7,28.2h1.4v8.4h-1.4v-8.4Z"/>
    <path d="M1019.8,35.4c0,1.4-.3,2.4-.9,3.2-.6.6-1.6,1-2.9,1h-1.4c-.5,0-.9-.1-1.3-.4v-1.3c.4.3.8.4,1.1.5.4,0,.8.1,1.1.1.9,0,1.5-.3,2-.8.5-.5.6-1.1.6-2.2v-.6c-.3.5-.6.9-1.1,1.1-.5.3-1,.4-1.5.4-1,0-1.9-.4-2.4-1.1-.6-.8-.9-1.8-.9-3s.3-2.3.9-3c.6-.8,1.4-1.1,2.4-1.1s1.1,0,1.5.4c.4.4.8.6,1.1,1.1v-1.3h1.4v7.2-.3ZM1018.4,32.3c0-1-.3-1.8-.6-2.3-.4-.5-1-.8-1.8-.8s-1.3.3-1.6.8c-.4.5-.6,1.3-.6,2.3s.3,1.8.6,2.3c.4.5,1,.8,1.6.8s1.3-.3,1.8-.8c.4-.5.6-1.3.6-2.3Z"/>
    <path d="M1029.5,31.5v5.1h-1.4v-4.9c0-.8-.1-1.4-.5-1.8-.3-.4-.8-.6-1.4-.6s-1.3.3-1.8.8c-.4.5-.6,1.1-.6,1.9v4.7h-1.4v-8.4h1.4v1.3c.4-.5.8-.9,1.1-1.1.4-.3,1-.4,1.5-.4,1,0,1.6.3,2.2.9.5.6.8,1.5.8,2.7h.1Z"/>
    <path d="M1038.7,31.8v4.7h-1.4v-1.3c-.3.5-.8.9-1.1,1.1-.5.3-1,.4-1.6.4s-1.5-.3-2-.8c-.5-.5-.8-1.1-.8-1.9s.3-1.6.9-2.2c.6-.5,1.5-.8,2.8-.8h1.9c0-.8-.3-1.3-.6-1.6-.4-.4-1-.5-1.8-.5s-.9,0-1.4.1c-.5,0-.9.3-1.3.5v-1.3c.5-.3,1-.4,1.4-.4s.9-.1,1.4-.1c1.3,0,2.2.3,2.7.9.6.6.9,1.5.9,2.8v.3ZM1036,32.3c-1.1,0-1.9,0-2.3.4-.4.4-.6.6-.6,1.3s.1.9.5,1.1c.4.3.8.4,1.3.4s1.4-.3,1.8-.8c.4-.5.6-1.3.6-2.2v-.3h-1.4.1Z"/>
    <rect x="1041.6" y="24.9" width="1.4" height="11.5"/>
    <path d="M1053.9,24.9c-.6,1.1-1.1,2.3-1.5,3.4-.4,1.1-.5,2.3-.5,3.4s.1,2.3.5,3.4c.4,1.1.8,2.3,1.5,3.4h-1.1c-.8-1.1-1.3-2.3-1.6-3.4-.4-1.1-.5-2.3-.5-3.3s.1-2.2.5-3.3c.4-1.1.9-2.3,1.6-3.4h1.1v-.3Z"/>
    <path d="M1056.5,25.4h3.4c1.3,0,2.2.3,2.8.9.6.5,1,1.4,1,2.4s-.4,1.9-1,2.5c-.6.5-1.5.9-2.8.9h-1.9v4.4h-1.5v-11h0ZM1058.1,26.7v4.2h1.9c.8,0,1.3-.1,1.6-.5.4-.4.6-.9.6-1.5s-.3-1.1-.6-1.5c-.4-.4-.9-.5-1.6-.5h-1.9Z"/>
    <path d="M1072.6,31.5v5.1h-1.4v-4.9c0-.8-.1-1.4-.5-1.8-.3-.4-.8-.6-1.4-.6s-1.3.3-1.8.8c-.4.5-.6,1.1-.6,1.9v4.7h-1.4v-11.5h1.4v4.6c.4-.5.8-.9,1.1-1.1.4-.3,1-.4,1.5-.4,1,0,1.6.3,2.2.9.5.6.8,1.5.8,2.7h.1Z"/>
    <path d="M1081.9,31.8v4.7h-1.4v-1.3c-.3.5-.8.9-1.1,1.1-.5.3-1,.4-1.6.4s-1.5-.3-2-.8c-.5-.5-.8-1.1-.8-1.9s.3-1.6.9-2.2c.6-.5,1.5-.8,2.8-.8h1.9c0-.8-.3-1.3-.6-1.6-.4-.4-1-.5-1.8-.5s-.9,0-1.4.1c-.5,0-.9.3-1.3.5v-1.3c.5-.3,1-.4,1.4-.4s.9-.1,1.4-.1c1.3,0,2.2.3,2.7.9.6.6.9,1.5.9,2.8v.3ZM1079.1,32.3c-1.1,0-1.9,0-2.3.4-.4.4-.6.6-.6,1.3s.1.9.5,1.1c.4.3.8.4,1.3.4s1.4-.3,1.8-.8c.4-.5.6-1.3.6-2.2v-.3h-1.4.1Z"/>
    <path d="M1090,28.5v1.3c-.4-.3-.8-.4-1.1-.5-.4,0-.9-.1-1.3-.1-.6,0-1.1,0-1.5.3-.4.3-.5.5-.5.9s0,.5.4.8c.4.3.8.4,1.5.5h.5c1,.3,1.6.6,2,1,.4.4.6.9.6,1.6s-.3,1.4-.9,1.8c-.6.5-1.4.6-2.5.6s-.9,0-1.4-.1c-.5,0-1-.3-1.5-.4v-1.4c.5.3,1,.5,1.5.6.5.1,1,.3,1.4.3s1.1,0,1.5-.4c.4-.3.5-.5.5-.9s0-.6-.4-.9c-.3-.3-.8-.4-1.6-.6h-.5c-.9-.3-1.4-.5-1.8-.9-.4-.4-.5-.9-.5-1.5s.3-1.4.9-1.8c.5-.4,1.4-.6,2.4-.6h1.4c.5,0,.9.1,1.3.4h-.4Z"/>
    <path d="M1098.4,31.6c0-.8-.3-1.4-.6-1.8-.4-.5-.9-.6-1.6-.6s-1.4.3-1.8.6c-.4.4-.8,1-.8,1.8h4.8ZM1099.8,32v.6h-6.3c0,.9.4,1.6.9,2.2s1.3.8,2.2.8,1,0,1.5-.3c.5-.3,1-.4,1.5-.6v1.3c-.5.3-1,.4-1.5.5-.5.1-1,.1-1.5.1-1.3,0-2.4-.4-3.2-1.1-.8-.8-1.1-1.8-1.1-3.2s.4-2.4,1.1-3.3c.8-.8,1.8-1.1,2.9-1.1s2,.4,2.7,1.1c.6.8,1,1.6,1,2.9h-.1Z"/>
    <path d="M1115.1,26.3v1.5c-.5-.5-1-.8-1.6-1-.6-.3-1.1-.4-1.8-.4-1.3,0-2.3.4-2.9,1.1-.6.8-1,1.9-1,3.4s.4,2.5,1,3.3c.6.8,1.6,1.1,2.9,1.1s1.3,0,1.8-.4c.5-.4,1.1-.6,1.6-1v1.5c-.5.4-1.1.6-1.6.8-.6.1-1.3.3-1.9.3-1.6,0-3-.5-3.9-1.5-1-1-1.4-2.4-1.4-4.2s.5-3.2,1.4-4.2c1-1,2.3-1.5,3.9-1.5s1.3,0,1.9.3c.6.1,1.1.4,1.6.8h0Z"/>
    <path d="M1124.4,31.5v5.1h-1.4v-4.9c0-.8-.1-1.4-.5-1.8-.3-.4-.8-.6-1.4-.6s-1.3.3-1.8.8c-.4.5-.6,1.1-.6,1.9v4.7h-1.4v-11.5h1.4v4.6c.4-.5.8-.9,1.1-1.1.4-.3,1-.4,1.5-.4,1,0,1.6.3,2.2.9.5.6.8,1.5.8,2.7h.1Z"/>
    <path d="M1133.6,31.8v4.7h-1.4v-1.3c-.3.5-.8.9-1.1,1.1-.5.3-1,.4-1.6.4s-1.5-.3-2-.8c-.5-.5-.8-1.1-.8-1.9s.3-1.6.9-2.2c.6-.5,1.5-.8,2.8-.8h1.9c0-.8-.3-1.3-.6-1.6-.4-.4-1-.5-1.8-.5s-.9,0-1.4.1c-.5,0-.9.3-1.3.5v-1.3c.5-.3,1-.4,1.4-.4s.9-.1,1.4-.1c1.3,0,2.2.3,2.7.9.6.6.9,1.5.9,2.8v.3ZM1130.8,32.3c-1.1,0-1.9,0-2.3.4-.4.4-.6.6-.6,1.3s.1.9.5,1.1c.4.3.8.4,1.3.4s1.4-.3,1.8-.8c.4-.5.6-1.3.6-2.2v-.3h-1.4.1Z"/>
    <path d="M1143.3,31.5v5.1h-1.4v-4.9c0-.8-.1-1.4-.5-1.8-.3-.4-.8-.6-1.4-.6s-1.3.3-1.8.8c-.4.5-.6,1.1-.6,1.9v4.7h-1.4v-8.4h1.4v1.3c.4-.5.8-.9,1.1-1.1s1-.4,1.5-.4c1,0,1.6.3,2.2.9.5.6.8,1.5.8,2.7h.1Z"/>
    <path d="M1152.9,35.4c0,1.4-.3,2.4-.9,3.2-.6.6-1.6,1-2.9,1h-1.4c-.5,0-.9-.1-1.3-.4v-1.3c.4.3.8.4,1.1.5.4,0,.8.1,1.1.1.9,0,1.5-.3,2-.8.5-.5.6-1.1.6-2.2v-.6c-.3.5-.6.9-1.1,1.1-.5.3-1,.4-1.5.4-1,0-1.9-.4-2.4-1.1-.6-.8-.9-1.8-.9-3s.3-2.3.9-3c.6-.8,1.4-1.1,2.4-1.1s1.1,0,1.5.4c.4.4.8.6,1.1,1.1v-1.3h1.4v7.2-.3ZM1151.5,32.3c0-1-.3-1.8-.6-2.3-.4-.5-1-.8-1.8-.8s-1.3.3-1.6.8c-.4.5-.6,1.3-.6,2.3s.3,1.8.6,2.3c.4.5,1,.8,1.6.8s1.3-.3,1.8-.8c.4-.5.6-1.3.6-2.3Z"/>
    <path d="M1161.4,31.6c0-.8-.3-1.4-.6-1.8-.4-.5-.9-.6-1.6-.6s-1.4.3-1.8.6c-.4.4-.8,1-.8,1.8h4.8ZM1162.8,32v.6h-6.3c0,.9.4,1.6.9,2.2.5.5,1.3.8,2.2.8s1,0,1.5-.3c.5-.3,1-.4,1.5-.6v1.3c-.5.3-1,.4-1.5.5-.5.1-1,.1-1.5.1-1.3,0-2.4-.4-3.2-1.1-.8-.8-1.1-1.8-1.1-3.2s.4-2.4,1.1-3.3c.8-.8,1.8-1.1,2.9-1.1s2,.4,2.7,1.1c.6.8,1,1.6,1,2.9h-.1Z"/>
    <path d="M1170.4,28.5v1.3c-.4-.3-.8-.4-1.1-.5-.4,0-.9-.1-1.3-.1-.6,0-1.1,0-1.5.3-.4.3-.5.5-.5.9s0,.5.4.8c.4.3.8.4,1.5.5h.5c1,.3,1.6.6,2,1,.4.4.6.9.6,1.6s-.3,1.4-.9,1.8c-.6.5-1.4.6-2.5.6s-.9,0-1.4-.1c-.5,0-1-.3-1.5-.4v-1.4c.5.3,1,.5,1.5.6.5.1,1,.3,1.4.3s1.1,0,1.5-.4c.4-.3.5-.5.5-.9s0-.6-.4-.9c-.3-.3-.8-.4-1.6-.6h-.5c-.9-.3-1.4-.5-1.8-.9-.4-.4-.5-.9-.5-1.5s.3-1.4.9-1.8c.5-.4,1.4-.6,2.4-.6h1.4c.5,0,.9.1,1.3.4h-.4Z"/>
    <polygon points="1177.9 25.4 1184.9 25.4 1184.9 26.7 1179.4 26.7 1179.4 30 1184.7 30 1184.7 31.3 1179.4 31.3 1179.4 35.3 1185.1 35.3 1185.1 36.6 1178 36.6 1178 25.5 1177.9 25.4"/>
    <path d="M1194.4,31.5v5.1h-1.4v-4.9c0-.8-.1-1.4-.5-1.8-.3-.4-.8-.6-1.4-.6s-1.3.3-1.8.8c-.4.5-.6,1.1-.6,1.9v4.7h-1.4v-8.4h1.4v1.3c.4-.5.8-.9,1.1-1.1.4-.3,1-.4,1.5-.4,1,0,1.6.3,2.2.9.5.6.8,1.5.8,2.7h.1Z"/>
    <path d="M1203.1,28.5v1.3c-.4-.3-.8-.4-1.1-.5-.4-.1-.8-.1-1.1-.1-.9,0-1.5.3-2,.9-.5.5-.8,1.4-.8,2.4s.3,1.8.8,2.4c.5.5,1.1.9,2,.9s.8,0,1.1-.1c.4-.1.8-.3,1.1-.5v1.3c-.4.1-.8.3-1.1.4-.4,0-.9.1-1.3.1-1.3,0-2.3-.4-3-1.1-.8-.8-1.1-1.9-1.1-3.2s.4-2.4,1.1-3.2c.8-.8,1.8-1.1,3-1.1s.9,0,1.3.1c.4,0,.8.3,1.1.4v-.3Z"/>
    <path d="M1208.7,28c1.1,0,2.2.4,2.8,1.1.6.8,1,1.9,1,3.2s-.4,2.4-1,3.2c-.6.8-1.6,1.1-2.8,1.1s-2.2-.4-2.8-1.1c-.6-.8-1-1.9-1-3.2s.4-2.4,1-3.2c.6-.8,1.6-1.1,2.8-1.1ZM1208.7,29.1c-.8,0-1.3.3-1.8.9-.5.6-.6,1.4-.6,2.4s.3,1.8.6,2.4c.4.6,1,.9,1.8.9s1.3-.3,1.8-.9c.4-.6.6-1.4.6-2.4s-.3-1.8-.6-2.3c-.4-.6-1-.9-1.8-.9h0Z"/>
    <path d="M1215.5,32.4c0,1,.3,1.8.6,2.4.4.6,1,.9,1.6.9s1.3-.3,1.6-.9c.4-.6.6-1.4.6-2.4s-.3-1.8-.6-2.4c-.4-.6-1-.9-1.6-.9s-1.3.3-1.6.9c-.4.6-.6,1.4-.6,2.4ZM1220.2,29.5v-4.6h1.4v11.5h-1.4v-1.3c-.3.5-.6.9-1.1,1.1-.4.3-1,.4-1.5.4-1,0-1.8-.4-2.4-1.1-.6-.8-.9-1.9-.9-3.2s.3-2.4.9-3.2c.6-.8,1.4-1.1,2.4-1.1s1.1,0,1.5.4c.4.3.8.6,1.1,1.1h0Z"/>
    <path d="M1224.4,24.9h1.4v1.8h-1.4v-1.8ZM1224.4,28.2h1.4v8.4h-1.4v-8.4Z"/>
    <path d="M1235.6,31.5v5.1h-1.4v-4.9c0-.8-.1-1.4-.5-1.8-.3-.4-.8-.6-1.4-.6s-1.3.3-1.8.8c-.4.5-.6,1.1-.6,1.9v4.7h-1.4v-8.4h1.4v1.3c.4-.5.8-.9,1.1-1.1.4-.3,1-.4,1.5-.4,1,0,1.6.3,2.2.9.5.6.8,1.5.8,2.7h.1Z"/>
    <path d="M1245.1,35.4c0,1.4-.3,2.4-.9,3.2-.6.6-1.6,1-2.9,1h-1.4c-.5,0-.9-.1-1.3-.4v-1.3c.4.3.8.4,1.1.5.4,0,.8.1,1.1.1.9,0,1.5-.3,2-.8.5-.5.6-1.1.6-2.2v-.6c-.3.5-.6.9-1.1,1.1-.5.3-1,.4-1.5.4-1,0-1.9-.4-2.4-1.1-.6-.8-.9-1.8-.9-3s.3-2.3.9-3c.6-.8,1.4-1.1,2.4-1.1s1.1,0,1.5.4c.4.4.8.6,1.1,1.1v-1.3h1.4v7.2-.3ZM1243.7,32.3c0-1-.3-1.8-.6-2.3-.4-.5-1-.8-1.8-.8s-1.3.3-1.6.8c-.4.5-.6,1.3-.6,2.3s.3,1.8.6,2.3c.4.5,1,.8,1.6.8s1.3-.3,1.8-.8c.4-.5.6-1.3.6-2.3Z"/>
    <path d="M1252.8,25.4h3.8c1.1,0,2,.3,2.7.8.6.5.9,1.1.9,2s-.1,1.3-.5,1.6c-.4.4-.8.6-1.4.8.8.1,1.3.5,1.8,1,.4.5.6,1.1.6,1.9s-.4,1.8-1,2.3-1.6.8-2.9.8h-3.9v-11h0ZM1254.3,26.7v3.3h2.3c.8,0,1.3-.1,1.6-.4s.5-.6.5-1.3-.1-1-.5-1.3c-.4-.3-.9-.4-1.6-.4h-2.3ZM1254.3,31.3v4.1h2.4c.8,0,1.4-.1,1.8-.5.4-.4.6-.9.6-1.5s-.3-1.3-.6-1.5c-.4-.4-1-.5-1.8-.5h-2.4Z"/>
    <path d="M1263.2,24.9h1.4v1.8h-1.4v-1.8ZM1263.2,28.2h1.4v8.4h-1.4v-8.4Z"/>
    <path d="M1268.8,25.8v2.4h2.8v1h-2.8v4.6c0,.6,0,1.1.3,1.3.3.1.5.3,1.1.3h1.4v1.1h-1.4c-1,0-1.8-.3-2.2-.6-.4-.4-.6-1.1-.6-2.2v-4.6h-1v-1h1v-2.4h1.4Z"/>
    <path d="M1278.7,28.5v1.3c-.4-.3-.8-.4-1.1-.5-.4,0-.9-.1-1.3-.1-.6,0-1.1,0-1.5.3-.4.3-.5.5-.5.9s0,.5.4.8c.4.3.8.4,1.5.5h.5c1,.3,1.6.6,2,1,.4.4.6.9.6,1.6s-.3,1.4-.9,1.8c-.6.5-1.4.6-2.5.6s-.9,0-1.4-.1c-.5,0-1-.3-1.5-.4v-1.4c.5.3,1,.5,1.5.6.5.1,1,.3,1.4.3s1.1,0,1.5-.4c.4-.3.5-.5.5-.9s0-.6-.4-.9c-.3-.3-.8-.4-1.6-.6h-.5c-.9-.3-1.4-.5-1.8-.9-.4-.4-.5-.9-.5-1.5s.3-1.4.9-1.8c.5-.4,1.4-.6,2.4-.6h1.4c.5,0,.9.1,1.3.4h-.4Z"/>
    <path d="M1281.1,24.9h1.1c.8,1.1,1.3,2.3,1.6,3.4.4,1.1.5,2.3.5,3.3s-.1,2.3-.5,3.3c-.4,1.1-.9,2.3-1.6,3.4h-1.1c.6-1.1,1.1-2.3,1.5-3.4.4-1.1.5-2.3.5-3.4s-.1-2.3-.5-3.4c-.4-1.1-.8-2.3-1.5-3.4v.3Z"/>
    <rect class="st98" x="618.5" y="439.6" width="1002.4" height="343.1"/>
  </g>
  <g class="st76">
    <line class="st1" x1="664" y1="782.7" x2="664" y2="439.6"/>
  </g>
  <g class="st77">
    <line x1="664" y1="782.7" x2="664" y2="787.2"/>
    <line class="st3" x1="664" y1="782.7" x2="664" y2="787.2"/>
    <path d="M657.9,791.9c1,0,1.8.4,2.4,1.3.5.8.8,2,.8,3.6s-.3,2.8-.8,3.6c-.5.8-1.4,1.3-2.4,1.3s-1.8-.4-2.4-1.3c-.5-.8-.8-2-.8-3.6s.3-2.8.8-3.6c.5-.8,1.4-1.3,2.4-1.3ZM657.9,792.9c-.6,0-1.1.4-1.4,1-.4.6-.5,1.6-.5,2.9s.1,2.2.5,2.8c.4.6.8,1,1.4,1s1.1-.4,1.5-1c.4-.6.5-1.5.5-2.8s-.1-2.3-.5-2.9c-.4-.6-.8-1-1.5-1Z"/>
    <rect x="663.4" y="799.7" width="1.3" height="1.5"/>
    <path d="M670.1,791.9c1,0,1.8.4,2.4,1.3.5.8.8,2,.8,3.6s-.3,2.8-.8,3.6c-.5.8-1.4,1.3-2.4,1.3s-1.8-.4-2.4-1.3c-.5-.8-.8-2-.8-3.6s.3-2.8.8-3.6c.5-.8,1.4-1.3,2.4-1.3ZM670.1,792.9c-.6,0-1.1.4-1.4,1-.4.6-.5,1.6-.5,2.9s.1,2.2.5,2.8c.4.6.8,1,1.4,1s1.1-.4,1.5-1c.4-.6.5-1.5.5-2.8s-.1-2.3-.5-2.9c-.4-.6-.8-1-1.5-1Z"/>
  </g>
  <g class="st78">
    <line class="st1" x1="815.9" y1="782.7" x2="815.9" y2="439.6"/>
  </g>
  <g class="st74">
    <line x1="815.9" y1="782.7" x2="815.9" y2="787.2"/>
    <line class="st3" x1="815.9" y1="782.7" x2="815.9" y2="787.2"/>
    <path d="M809.8,791.9c1,0,1.8.4,2.4,1.3.5.8.8,2,.8,3.6s-.3,2.8-.8,3.6c-.5.8-1.4,1.3-2.4,1.3s-1.8-.4-2.4-1.3c-.5-.8-.8-2-.8-3.6s.3-2.8.8-3.6c.5-.8,1.4-1.3,2.4-1.3ZM809.8,792.9c-.6,0-1.1.4-1.4,1-.4.6-.5,1.6-.5,2.9s.1,2.2.5,2.8c.4.6.8,1,1.4,1s1.1-.4,1.5-1c.4-.6.5-1.5.5-2.8s-.1-2.3-.5-2.9c-.4-.6-.8-1-1.5-1Z"/>
    <rect x="815.3" y="799.7" width="1.3" height="1.5"/>
    <path d="M819.3,792h4.9v1h-3.8v2.3c.1,0,.4,0,.5-.1h.5c1,0,1.9.3,2.4.9.6.5.9,1.3.9,2.3s-.3,1.8-.9,2.3c-.6.5-1.5.9-2.7.9h-1.1c-.4,0-.8-.1-1.3-.3v-1.3c.4.3.8.4,1.1.5.4.1.8.1,1.3.1.8,0,1.3-.1,1.6-.5.4-.4.6-.9.6-1.5s-.3-1.1-.6-1.5c-.4-.4-1-.5-1.6-.5h-1c-.4,0-.6.1-1,.4v-4.9Z"/>
  </g>
  <g class="st32">
    <line class="st1" x1="967.8" y1="782.7" x2="967.8" y2="439.6"/>
  </g>
  <g class="st45">
    <line x1="967.8" y1="782.7" x2="967.8" y2="787.2"/>
    <line class="st3" x1="967.8" y1="782.7" x2="967.8" y2="787.2"/>
    <polygon points="959.3 800.2 961.3 800.2 961.3 793.1 959 793.6 959 792.5 961.2 792 962.5 792 962.5 800.2 964.5 800.2 964.5 801.2 959.2 801.2 959.2 800.2 959.3 800.2"/>
    <rect x="967.2" y="799.7" width="1.3" height="1.5"/>
    <path d="M973.9,791.9c1,0,1.8.4,2.4,1.3.5.8.8,2,.8,3.6s-.3,2.8-.8,3.6c-.5.8-1.4,1.3-2.4,1.3s-1.8-.4-2.4-1.3c-.5-.8-.8-2-.8-3.6s.3-2.8.8-3.6c.5-.8,1.4-1.3,2.4-1.3ZM973.9,792.9c-.6,0-1.1.4-1.4,1-.4.6-.5,1.6-.5,2.9s.1,2.2.5,2.8c.4.6.8,1,1.4,1s1.1-.4,1.5-1c.4-.6.5-1.5.5-2.8s-.1-2.3-.5-2.9c-.4-.6-.8-1-1.5-1Z"/>
  </g>
  <g class="st34">
    <line class="st1" x1="1119.7" y1="782.7" x2="1119.7" y2="439.6"/>
  </g>
  <g class="st38">
    <line x1="1119.7" y1="782.7" x2="1119.7" y2="787.2"/>
    <line class="st3" x1="1119.7" y1="782.7" x2="1119.7" y2="787.2"/>
    <polygon points="1111.2 800.2 1113.2 800.2 1113.2 793.1 1110.9 793.6 1110.9 792.5 1113.1 792 1114.4 792 1114.4 800.2 1116.4 800.2 1116.4 801.2 1111.1 801.2 1111.1 800.2 1111.2 800.2"/>
    <rect x="1119" y="799.7" width="1.3" height="1.5"/>
    <path d="M1123.1,792h4.9v1h-3.8v2.3c.1,0,.4,0,.5-.1h.5c1,0,1.9.3,2.4.9.6.5.9,1.3.9,2.3s-.3,1.8-.9,2.3c-.6.5-1.5.9-2.7.9h-1.1c-.4,0-.8-.1-1.3-.3v-1.3c.4.3.8.4,1.1.5.4.1.8.1,1.3.1.8,0,1.3-.1,1.6-.5.4-.4.6-.9.6-1.5s-.3-1.1-.6-1.5c-.4-.4-1-.5-1.6-.5h-1c-.4,0-.6.1-1,.4v-4.9Z"/>
  </g>
  <g class="st36">
    <line class="st1" x1="1271.7" y1="782.7" x2="1271.7" y2="439.6"/>
  </g>
  <g class="st33">
    <line x1="1271.7" y1="782.7" x2="1271.7" y2="787.2"/>
    <line class="st3" x1="1271.7" y1="782.7" x2="1271.7" y2="787.2"/>
    <path d="M1264,800.2h4.3v1h-5.8v-1c.5-.5,1.1-1.1,1.9-2,.8-.9,1.4-1.4,1.5-1.6.4-.5.6-.9.9-1.1.1-.3.3-.6.3-.9,0-.5-.1-.9-.5-1.1-.4-.3-.8-.5-1.4-.5s-.8,0-1.3.3c-.4.1-.9.4-1.4.6v-1.3c.5-.3,1-.4,1.4-.5.4,0,.9-.1,1.1-.1,1,0,1.8.3,2.3.8.5.5.9,1.1.9,1.9s0,.8-.3,1.1c-.1.4-.4.8-.8,1.1,0,0-.4.5-1,1-.5.6-1.4,1.4-2.3,2.4h.1Z"/>
    <rect x="1270.9" y="799.7" width="1.3" height="1.5"/>
    <path d="M1277.7,791.9c1,0,1.8.4,2.4,1.3.5.8.8,2,.8,3.6s-.3,2.8-.8,3.6c-.5.8-1.4,1.3-2.4,1.3s-1.8-.4-2.4-1.3c-.5-.8-.8-2-.8-3.6s.3-2.8.8-3.6,1.4-1.3,2.4-1.3ZM1277.7,792.9c-.6,0-1.1.4-1.4,1-.4.6-.5,1.6-.5,2.9s.1,2.2.5,2.8.8,1,1.4,1,1.1-.4,1.5-1c.4-.6.5-1.5.5-2.8s-.1-2.3-.5-2.9c-.4-.6-.8-1-1.5-1Z"/>
  </g>
  <g class="st37">
    <line class="st1" x1="1423.6" y1="782.7" x2="1423.6" y2="439.6"/>
  </g>
  <g class="st35">
    <line x1="1423.6" y1="782.7" x2="1423.6" y2="787.2"/>
    <line class="st3" x1="1423.6" y1="782.7" x2="1423.6" y2="787.2"/>
    <path d="M1415.9,800.2h4.3v1h-5.8v-1c.5-.5,1.1-1.1,1.9-2,.8-.9,1.4-1.4,1.5-1.6.4-.5.6-.9.9-1.1.1-.3.3-.6.3-.9,0-.5-.1-.9-.5-1.1-.4-.3-.8-.5-1.4-.5s-.8,0-1.3.3c-.4.1-.9.4-1.4.6v-1.3c.5-.3,1-.4,1.4-.5.4,0,.9-.1,1.1-.1,1,0,1.8.3,2.3.8.5.5.9,1.1.9,1.9s0,.8-.3,1.1c-.1.4-.4.8-.8,1.1,0,0-.4.5-1,1-.5.6-1.4,1.4-2.3,2.4h.1Z"/>
    <rect x="1422.8" y="799.7" width="1.3" height="1.5"/>
    <path d="M1426.9,792h4.9v1h-3.8v2.3c.1,0,.4,0,.5-.1h.5c1,0,1.9.3,2.4.9.6.5.9,1.3.9,2.3s-.3,1.8-.9,2.3c-.6.5-1.5.9-2.7.9h-1.1c-.4,0-.8-.1-1.3-.3v-1.3c.4.3.8.4,1.1.5.4.1.8.1,1.3.1.8,0,1.3-.1,1.6-.5.4-.4.6-.9.6-1.5s-.3-1.1-.6-1.5c-.4-.4-1-.5-1.6-.5h-1c-.4,0-.6.1-1,.4v-4.9Z"/>
  </g>
  <g class="st46">
    <line class="st1" x1="1575.5" y1="782.7" x2="1575.5" y2="439.6"/>
  </g>
  <g class="st47">
    <line x1="1575.5" y1="782.7" x2="1575.5" y2="787.2"/>
    <line class="st3" x1="1575.5" y1="782.7" x2="1575.5" y2="787.2"/>
    <path d="M1570.5,796.3c.6.1,1,.4,1.4.8.4.4.5.9.5,1.5s-.3,1.6-.9,2.2c-.6.5-1.5.8-2.7.8h-1.1c-.4,0-.9-.3-1.3-.4v-1.3c.4.3.8.4,1.1.5.4,0,.9.1,1.3.1.8,0,1.4-.1,1.8-.5.4-.4.6-.8.6-1.4s-.3-1-.6-1.3c-.4-.3-.9-.5-1.6-.5h-1.1v-1h1.1c.6,0,1.1,0,1.4-.4.3-.4.5-.6.5-1s-.1-.9-.5-1.1c-.4-.3-.8-.4-1.4-.4h-1.1c-.4,0-.8.1-1.3.4v-1.1c.5-.1.9-.3,1.4-.3h1.1c.9,0,1.6.3,2.3.6.5.4.9,1,.9,1.8s-.1.9-.4,1.3c-.3.4-.8.6-1.3.8h-.1Z"/>
    <rect x="1574.9" y="799.7" width="1.3" height="1.5"/>
    <path d="M1581.4,791.9c1,0,1.8.4,2.4,1.3.5.8.8,2,.8,3.6s-.3,2.8-.8,3.6c-.5.8-1.4,1.3-2.4,1.3s-1.8-.4-2.4-1.3c-.5-.8-.8-2-.8-3.6s.3-2.8.8-3.6c.5-.8,1.4-1.3,2.4-1.3ZM1581.4,792.9c-.6,0-1.1.4-1.4,1-.4.6-.5,1.6-.5,2.9s.1,2.2.5,2.8c.4.6.8,1,1.4,1s1.1-.4,1.5-1c.4-.6.5-1.5.5-2.8s-.1-2.3-.5-2.9c-.4-.6-.8-1-1.5-1Z"/>
    <polygon points="1093.8 809.3 1101.7 809.3 1101.7 810.4 1098.4 810.4 1098.4 818.6 1097.1 818.6 1097.1 810.4 1093.8 810.4 1093.8 809.3"/>
    <path d="M1102.4,809h1.1v1.4h-1.1v-1.4ZM1102.4,811.6h1.1v7h-1.1v-7Z"/>
    <path d="M1111.3,813c.3-.5.6-.9,1-1.1.4-.3.9-.4,1.4-.4s1.3.3,1.6.8c.4.5.6,1.3.6,2.2v4.2h-1.1v-4.2c0-.6,0-1.1-.4-1.5-.3-.4-.6-.5-1-.5s-1,.3-1.4.6c-.4.4-.5.9-.5,1.6v3.9h-1.1v-4.2c0-.6,0-1.1-.4-1.5-.4-.4-.6-.5-1.1-.5s-1,.3-1.4.6c-.4.4-.5.9-.5,1.6v3.9h-1.1v-7h1.1v1.1c.3-.4.6-.8.9-.9s.8-.3,1.3-.3.9.1,1.3.4c.4.3.6.6.8,1.1h.1Z"/>
    <path d="M1123.1,814.5c0-.6-.1-1.1-.5-1.5-.4-.4-.8-.5-1.4-.5s-1.1.1-1.5.5c-.4.4-.6.9-.6,1.5h4.1ZM1124.2,814.9v.5h-5.2c0,.8.3,1.4.8,1.8.4.4,1,.6,1.8.6s.9,0,1.3-.1c.4-.1.8-.3,1.3-.5v1.1c-.4.1-.9.3-1.3.4-.4.1-.9.1-1.3.1-1.1,0-2-.4-2.7-1-.6-.6-1-1.5-1-2.7s.3-2,.9-2.7c.6-.6,1.4-1,2.5-1s1.6.3,2.2.9c.5.6.8,1.4.8,2.4h0Z"/>
    <polygon points="1130.1 809 1132.7 809 1132.7 809.9 1131.2 809.9 1131.2 819.4 1132.7 819.4 1132.7 820.3 1130.1 820.3 1130.1 809"/>
    <path d="M1139.5,811.9v1.1c-.4-.1-.6-.3-1-.4h-1.1c-.5,0-1,0-1.3.3-.3.1-.4.4-.4.8s0,.5.3.6c.3.1.6.3,1.3.4h.4c.8.3,1.4.5,1.8.8.4.3.5.8.5,1.3s-.3,1.1-.8,1.5c-.5.4-1.3.5-2.2.5h-1.1c-.4,0-.9-.1-1.3-.4v-1.1c.4.3.9.4,1.3.5.4,0,.8.1,1.3.1s.9,0,1.3-.3c.3-.1.4-.4.4-.8s0-.5-.3-.8c-.3-.1-.6-.4-1.4-.5h-.4c-.8-.3-1.3-.5-1.5-.8-.3-.3-.5-.8-.5-1.3s.3-1.1.6-1.5c.5-.4,1.1-.5,2-.5h1.1c.4,0,.8.1,1,.3h0Z"/>
    <polygon points="1144.4 809 1144.4 820.3 1141.7 820.3 1141.7 819.4 1143.3 819.4 1143.3 809.9 1141.7 809.9 1141.7 809 1144.4 809"/>
  </g>
  <g class="st22">
    <line class="st1" x1="618.5" y1="782.7" x2="1620.9" y2="782.7"/>
  </g>
  <g class="st19">
    <line x1="618.5" y1="782.7" x2="614.1" y2="782.7"/>
    <line class="st3" x1="618.5" y1="782.7" x2="614.1" y2="782.7"/>
  </g>
  <g class="st24">
    <line class="st1" x1="618.5" y1="739.9" x2="1620.9" y2="739.9"/>
  </g>
  <g class="st27">
    <line x1="618.5" y1="739.9" x2="614.1" y2="739.9"/>
    <line class="st3" x1="618.5" y1="739.9" x2="614.1" y2="739.9"/>
  </g>
  <g class="st25">
    <line class="st1" x1="618.5" y1="697" x2="1620.9" y2="697"/>
  </g>
  <g class="st23">
    <line x1="618.5" y1="697" x2="614.1" y2="697"/>
    <line class="st3" x1="618.5" y1="697" x2="614.1" y2="697"/>
    <path d="M585.4,692.5c1,0,1.8.4,2.4,1.3.5.8.8,2,.8,3.6s-.3,2.8-.8,3.5c-.5.8-1.4,1.3-2.4,1.3s-1.8-.4-2.4-1.3c-.5-.8-.8-2-.8-3.5s.3-2.8.8-3.6c.5-.8,1.4-1.3,2.4-1.3ZM585.4,693.3c-.6,0-1.1.4-1.4,1-.4.6-.5,1.6-.5,2.9s.1,2.2.5,2.8c.4.6.8,1,1.4,1s1.1-.4,1.5-1c.4-.6.5-1.5.5-2.8s-.1-2.3-.5-2.9c-.4-.6-.8-1-1.5-1Z"/>
    <rect x="590.7" y="700.2" width="1.3" height="1.5"/>
    <path d="M597.4,692.5c1,0,1.8.4,2.4,1.3.5.8.8,2,.8,3.6s-.3,2.8-.8,3.5c-.5.8-1.4,1.3-2.4,1.3s-1.8-.4-2.4-1.3c-.5-.8-.8-2-.8-3.5s.3-2.8.8-3.6c.5-.8,1.4-1.3,2.4-1.3ZM597.4,693.3c-.6,0-1.1.4-1.4,1-.4.6-.5,1.6-.5,2.9s.1,2.2.5,2.8c.4.6.8,1,1.4,1s1.1-.4,1.5-1c.4-.6.5-1.5.5-2.8s-.1-2.3-.5-2.9c-.4-.6-.8-1-1.5-1Z"/>
    <path d="M605.6,692.5c1,0,1.8.4,2.4,1.3.5.8.8,2,.8,3.6s-.3,2.8-.8,3.5c-.5.8-1.4,1.3-2.4,1.3s-1.8-.4-2.4-1.3c-.5-.8-.8-2-.8-3.5s.3-2.8.8-3.6c.5-.8,1.4-1.3,2.4-1.3ZM605.6,693.3c-.6,0-1.1.4-1.4,1-.4.6-.5,1.6-.5,2.9s.1,2.2.5,2.8c.4.6.8,1,1.4,1s1.1-.4,1.5-1c.4-.6.5-1.5.5-2.8s-.1-2.3-.5-2.9c-.4-.6-.8-1-1.5-1Z"/>
  </g>
  <g class="st26">
    <line class="st1" x1="618.5" y1="654.2" x2="1620.9" y2="654.2"/>
  </g>
  <g class="st20">
    <line x1="618.5" y1="654.2" x2="614.1" y2="654.2"/>
    <line class="st3" x1="618.5" y1="654.2" x2="614.1" y2="654.2"/>
  </g>
  <g class="st21">
    <line class="st1" x1="618.5" y1="611.2" x2="1620.9" y2="611.2"/>
  </g>
  <g class="st68">
    <line x1="618.5" y1="611.2" x2="614.1" y2="611.2"/>
    <line class="st3" x1="618.5" y1="611.2" x2="614.1" y2="611.2"/>
  </g>
  <g class="st39">
    <line class="st1" x1="618.5" y1="568.3" x2="1620.9" y2="568.3"/>
  </g>
  <g class="st42">
    <line x1="618.5" y1="568.3" x2="614.1" y2="568.3"/>
    <line class="st3" x1="618.5" y1="568.3" x2="614.1" y2="568.3"/>
  </g>
  <g class="st44">
    <line class="st1" x1="618.5" y1="525.5" x2="1620.9" y2="525.5"/>
  </g>
  <g class="st43">
    <line x1="618.5" y1="525.5" x2="614.1" y2="525.5"/>
    <line class="st3" x1="618.5" y1="525.5" x2="614.1" y2="525.5"/>
    <polygon points="582.9 529.3 584.9 529.3 584.9 522.2 582.6 522.7 582.6 521.5 584.8 521 586 521 586 529.3 588.1 529.3 588.1 530.3 582.7 530.3 582.7 529.3 582.9 529.3"/>
    <rect x="590.7" y="528.6" width="1.3" height="1.5"/>
    <path d="M597.4,520.9c1,0,1.8.4,2.4,1.3.5.8.8,2,.8,3.6s-.3,2.8-.8,3.6c-.5.8-1.4,1.3-2.4,1.3s-1.8-.4-2.4-1.3c-.5-.8-.8-2-.8-3.6s.3-2.8.8-3.6c.5-.8,1.4-1.3,2.4-1.3ZM597.4,521.8c-.6,0-1.1.4-1.4,1-.4.6-.5,1.6-.5,2.9s.1,2.2.5,2.8c.4.6.8,1,1.4,1s1.1-.4,1.5-1c.4-.6.5-1.5.5-2.8s-.1-2.3-.5-2.9c-.4-.6-.8-1-1.5-1Z"/>
    <path d="M605.6,520.9c1,0,1.8.4,2.4,1.3.5.8.8,2,.8,3.6s-.3,2.8-.8,3.6c-.5.8-1.4,1.3-2.4,1.3s-1.8-.4-2.4-1.3c-.5-.8-.8-2-.8-3.6s.3-2.8.8-3.6c.5-.8,1.4-1.3,2.4-1.3ZM605.6,521.8c-.6,0-1.1.4-1.4,1-.4.6-.5,1.6-.5,2.9s.1,2.2.5,2.8c.4.6.8,1,1.4,1s1.1-.4,1.5-1c.4-.6.5-1.5.5-2.8s-.1-2.3-.5-2.9c-.4-.6-.8-1-1.5-1Z"/>
  </g>
  <g class="st41">
    <line class="st1" x1="618.5" y1="482.6" x2="1620.9" y2="482.6"/>
  </g>
  <g class="st30">
    <line x1="618.5" y1="482.6" x2="614.1" y2="482.6"/>
    <line class="st3" x1="618.5" y1="482.6" x2="614.1" y2="482.6"/>
  </g>
  <g class="st28">
    <line class="st1" x1="618.5" y1="439.6" x2="1620.9" y2="439.6"/>
  </g>
  <g class="st40">
    <line x1="618.5" y1="439.6" x2="614.1" y2="439.6"/>
    <line class="st3" x1="618.5" y1="439.6" x2="614.1" y2="439.6"/>
    <path d="M553.8,638.1v-3.2c0-1,.3-1.6.6-2.2.4-.5,1-.8,1.6-.8s1,.1,1.4.4c.4.3.5.6.6,1.1.1-.6.4-1.1.9-1.4.4-.4.9-.5,1.5-.5s1.5.3,1.9.9c.5.5.6,1.4.6,2.4v3.3h-9.3ZM554.8,636.8h2.8v-1.9c0-.6,0-1-.4-1.4s-.6-.5-1-.5-.8.1-1,.5c-.3.3-.4.8-.4,1.4v1.9ZM558.6,636.8h3.4v-2c0-.6-.1-1.1-.4-1.5-.3-.4-.8-.5-1.3-.5s-1,.1-1.3.5c-.3.4-.4.8-.4,1.5v2h-.1Z"/>
    <path d="M553.3,629.3v-1.1h1.4v1.1h-1.4ZM556.1,629.3v-1.1h7v1.1h-7Z"/>
    <path d="M554.1,624.7h2v-2.4h.9v2.4h3.8c.5,0,.9,0,1.1-.3s.3-.5.3-.9v-1.1h1v1.1c0,.9-.1,1.5-.5,1.8-.4.4-.9.5-1.8.5h-3.8v.9h-.9v-.9h-2v-1.1h-.1Z"/>
    <polygon points="563 614.3 553.7 617.9 553.7 616.6 561.4 613.7 553.7 610.8 553.7 609.5 563 613.1 563 614.5 563 614.3"/>
    <path d="M559,603.7h3.9v1.1h-1c.4.3.8.6.9,1,.3.4.3.9.3,1.4s-.3,1.3-.6,1.6c-.4.4-.9.6-1.6.6s-1.4-.3-1.8-.8c-.4-.5-.6-1.3-.6-2.3v-1.6c-.5,0-.9.1-1.3.5s-.4.9-.4,1.4,0,.8.1,1.1c0,.4.3.8.4,1.1h-1c-.1-.4-.3-.8-.4-1.3v-1.1c0-1,.3-1.8.8-2.3.5-.5,1.3-.8,2.4-.8h0ZM559.5,606c0,.9,0,1.5.3,1.9.3.4.5.5,1.1.5s.8-.1,1-.4c.3-.3.4-.6.4-1.1s-.3-1.1-.6-1.5c-.4-.4-1-.6-1.8-.6h-.3v1.1h-.1Z"/>
    <rect x="553.3" y="600.3" width="9.6" height="1.1"/>
    <path d="M555.9,595.1h0ZM560.3,598h-4.2v-1.1h4.2c.6,0,1.1-.1,1.5-.4s.5-.6.5-1.1-.3-1.1-.6-1.4c-.4-.4-.9-.5-1.6-.5h-3.9v-1.1h7v1.1h-1c.4.3.8.6.9,1,.3.4.3.8.3,1.3,0,.8-.3,1.4-.8,1.8-.5.4-1.3.6-2.2.6h0Z"/>
    <path d="M558.9,585.1c-.6,0-1.1.1-1.5.5-.4.4-.5.8-.5,1.4s.1,1.1.5,1.5c.4.4.9.6,1.5.6v-4.1ZM559.3,583.9h.5v5.2c.8,0,1.4-.3,1.8-.8.4-.4.6-1,.6-1.8s0-.9-.1-1.3c-.1-.4-.3-.8-.5-1.3h1.1c.1.4.3.9.4,1.3s.1.9.1,1.3c0,1.1-.4,2-1,2.7-.6.6-1.5,1-2.7,1s-2-.3-2.7-.9c-.6-.6-1-1.4-1-2.5s.3-1.6.9-2.2c.6-.5,1.4-.8,2.4-.8h.1Z"/>
  </g>
  <g class="st29">
    <polyline class="st7" points="664 697 755.2 697 755.2 525.5 937.5 525.5 937.5 697 1028.6 697 1028.6 525.5 1119.8 525.5 1119.8 697 1211 697 1211 525.5 1393.3 525.5 1393.3 697 1484.5 697 1484.5 525.5 1575.5 525.5"/>
  </g>
  <g class="st31">
    <line class="st2" x1="755.2" y1="782.7" x2="755.2" y2="439.6"/>
  </g>
  <g class="st82">
    <line class="st2" x1="846.3" y1="782.7" x2="846.3" y2="439.6"/>
  </g>
  <g class="st84">
    <line class="st2" x1="937.5" y1="782.7" x2="937.5" y2="439.6"/>
  </g>
  <g class="st85">
    <line class="st2" x1="1028.6" y1="782.7" x2="1028.6" y2="439.6"/>
  </g>
  <g class="st86">
    <line class="st2" x1="1119.7" y1="782.7" x2="1119.7" y2="439.6"/>
  </g>
  <g class="st87">
    <line class="st2" x1="1210.8" y1="782.7" x2="1210.8" y2="439.6"/>
  </g>
  <g class="st79">
    <line class="st2" x1="1302" y1="782.7" x2="1302" y2="439.6"/>
  </g>
  <g class="st80">
    <line class="st2" x1="1393.2" y1="782.7" x2="1393.2" y2="439.6"/>
  </g>
  <g class="st81">
    <line class="st2" x1="1484.3" y1="782.7" x2="1484.3" y2="439.6"/>
  </g>
  <g class="st88">
    <line class="st5" x1="618.5" y1="782.7" x2="618.5" y2="439.6"/>
    <line class="st5" x1="1620.9" y1="782.7" x2="1620.9" y2="439.6"/>
    <line class="st5" x1="618.5" y1="782.7" x2="1620.9" y2="782.7"/>
    <line class="st5" x1="618.5" y1="439.6" x2="1620.9" y2="439.6"/>
    <path d="M1054,421h3.8c1.1,0,2,.3,2.7.8.6.5.9,1.1.9,2s-.1,1.3-.5,1.6c-.4.4-.8.6-1.4.8.8.1,1.3.5,1.8,1,.4.5.6,1.1.6,1.9s-.4,1.8-1,2.3c-.6.5-1.6.8-2.9.8h-3.9v-11h0ZM1055.5,422.3v3.3h2.3c.8,0,1.3-.1,1.6-.4.4-.3.5-.6.5-1.3s-.1-1-.5-1.3c-.4-.3-.9-.4-1.6-.4h-2.3ZM1055.5,426.8v4.1h2.4c.8,0,1.4-.1,1.8-.5.4-.4.6-.9.6-1.5s-.3-1.3-.6-1.5c-.4-.4-1-.5-1.8-.5h-2.4Z"/>
    <path d="M1064.4,420.5h1.4v1.8h-1.4v-1.8ZM1064.4,423.8h1.4v8.4h-1.4v-8.4Z"/>
    <path d="M1075.6,427.1v5.1h-1.4v-4.9c0-.8-.1-1.4-.5-1.8-.3-.4-.8-.6-1.4-.6s-1.3.3-1.8.8c-.4.5-.6,1.1-.6,1.9v4.7h-1.4v-8.4h1.4v1.3c.4-.5.8-.9,1.1-1.1.4-.3,1-.4,1.5-.4,1,0,1.6.3,2.2.9.5.6.8,1.5.8,2.7h.1Z"/>
    <path d="M1084.8,427.3v4.7h-1.4v-1.3c-.3.5-.8.9-1.1,1.1-.5.3-1,.4-1.6.4s-1.5-.3-2-.8c-.5-.5-.8-1.1-.8-1.9s.3-1.6.9-2.2c.6-.5,1.5-.8,2.8-.8h1.9c0-.8-.3-1.3-.6-1.6-.4-.4-1-.5-1.8-.5s-.9,0-1.4.1c-.5,0-.9.3-1.3.5v-1.3c.5-.3,1-.4,1.4-.4s.9-.1,1.4-.1c1.3,0,2.2.3,2.7.9.6.6.9,1.5.9,2.8v.3ZM1082,427.8c-1.1,0-1.9,0-2.3.4-.4.4-.6.6-.6,1.3s.1.9.5,1.1c.4.3.8.4,1.3.4s1.4-.3,1.8-.8c.4-.5.6-1.3.6-2.2v-.3h-1.4.1Z"/>
    <path d="M1092.4,425.1c-.1,0-.4-.1-.5-.3h-.6c-.8,0-1.4.3-1.8.8-.4.5-.6,1.3-.6,2.2v4.4h-1.4v-8.4h1.4v1.3c.3-.5.6-.9,1.1-1.1.5-.3,1-.4,1.6-.4s.3,0,.3,0h.4v1.4h.1Z"/>
    <path d="M1097.4,432.8c-.4,1-.8,1.6-1.1,1.9-.4.3-.9.5-1.5.5h-1.1v-1.1h.8c.4,0,.6,0,.9-.3.3-.1.4-.6.6-1.3l.3-.6-3.4-8.2h1.4l2.7,6.5,2.7-6.5h1.4l-3.7,9.1h.3Z"/>
    <path d="M1107.8,421h3.8c1.1,0,2,.3,2.7.8.6.5.9,1.1.9,2s-.1,1.3-.5,1.6c-.4.4-.8.6-1.4.8.8.1,1.3.5,1.8,1,.4.5.6,1.1.6,1.9s-.4,1.8-1,2.3c-.6.5-1.6.8-2.9.8h-3.9v-11h0ZM1109.3,422.3v3.3h2.3c.8,0,1.3-.1,1.6-.4.4-.3.5-.6.5-1.3s-.1-1-.5-1.3c-.4-.3-.9-.4-1.6-.4h-2.3ZM1109.3,426.8v4.1h2.4c.8,0,1.4-.1,1.8-.5.4-.4.6-.9.6-1.5s-.3-1.3-.6-1.5c-.4-.4-1-.5-1.8-.5h-2.4Z"/>
    <path d="M1118.2,420.5h1.4v1.8h-1.4v-1.8ZM1118.2,423.8h1.4v8.4h-1.4v-8.4Z"/>
    <path d="M1123.7,421.4v2.4h2.8v1h-2.8v4.6c0,.6,0,1.1.3,1.3.3.1.5.3,1.1.3h1.4v1.1h-1.4c-1,0-1.8-.3-2.2-.6-.4-.4-.6-1.1-.6-2.2v-4.6h-1v-1h1v-2.4h1.4Z"/>
    <path d="M1139.8,421.4v1.5c-.5-.3-1.1-.5-1.6-.6-.5-.1-1-.3-1.5-.3-.8,0-1.4.1-1.9.5-.4.3-.6.8-.6,1.4s.1.9.4,1.1c.3.3.9.5,1.6.6h.9c1.1.4,1.9.8,2.5,1.3.6.5.8,1.3.8,2.2s-.4,1.9-1.1,2.4c-.8.5-1.8.9-3.2.9s-1.1,0-1.6-.1c-.6,0-1.1-.3-1.8-.5v-1.5c.6.4,1.3.6,1.8.8.6.1,1.1.3,1.8.3s1.5-.1,2-.5c.5-.4.8-.8.8-1.4s-.1-1-.5-1.3c-.4-.3-.9-.5-1.6-.6h-.9c-1.1-.4-1.9-.8-2.4-1.3-.5-.5-.8-1.1-.8-2s.4-1.8,1-2.3c.6-.5,1.6-.9,2.9-.9s1,0,1.6.1c.5,0,1.1.3,1.6.4h-.1Z"/>
    <path d="M1144.2,421.4v2.4h2.8v1h-2.8v4.6c0,.6,0,1.1.3,1.3.3.1.5.3,1.1.3h1.4v1.1h-1.4c-1,0-1.8-.3-2.2-.6-.4-.4-.6-1.1-.6-2.2v-4.6h-1v-1h1v-2.4h1.4Z"/>
    <path d="M1153.7,425.1c-.1,0-.4-.1-.5-.3h-.6c-.8,0-1.4.3-1.8.8-.4.5-.6,1.3-.6,2.2v4.4h-1.4v-8.4h1.4v1.3c.3-.5.6-.9,1.1-1.1.5-.3,1-.4,1.6-.4s.3,0,.3,0h.4v1.4h.1Z"/>
    <path d="M1160.5,427.2c0-.8-.3-1.4-.6-1.8-.4-.5-.9-.6-1.6-.6s-1.4.3-1.8.6c-.4.4-.8,1-.8,1.8h4.8ZM1161.8,427.6v.6h-6.3c0,.9.4,1.6.9,2.2.5.5,1.3.8,2.2.8s1,0,1.5-.3c.5-.3,1-.4,1.5-.6v1.3c-.5.3-1,.4-1.5.5-.5.1-1,.1-1.5.1-1.3,0-2.4-.4-3.2-1.1-.8-.8-1.1-1.8-1.1-3.2s.4-2.4,1.1-3.3c.8-.8,1.8-1.1,2.9-1.1s2,.4,2.7,1.1c.6.8,1,1.6,1,2.9h-.1Z"/>
    <path d="M1170.5,427.3v4.7h-1.4v-1.3c-.3.5-.8.9-1.1,1.1-.5.3-1,.4-1.6.4s-1.5-.3-2-.8c-.5-.5-.8-1.1-.8-1.9s.3-1.6.9-2.2c.6-.5,1.5-.8,2.8-.8h1.9c0-.8-.3-1.3-.6-1.6-.4-.4-1-.5-1.8-.5s-.9,0-1.4.1c-.5,0-.9.3-1.3.5v-1.3c.5-.3,1-.4,1.4-.4s.9-.1,1.4-.1c1.3,0,2.2.3,2.7.9.6.6.9,1.5.9,2.8v.3ZM1167.9,427.8c-1.1,0-1.9,0-2.3.4-.4.4-.6.6-.6,1.3s.1.9.5,1.1c.4.3.8.4,1.3.4s1.4-.3,1.8-.8c.4-.5.6-1.3.6-2.2v-.3h-1.4.1Z"/>
    <path d="M1179.9,425.3c.4-.6.8-1,1.3-1.4.5-.4,1-.4,1.6-.4s1.5.3,2,.9c.5.6.8,1.5.8,2.5v5.1h-1.4v-4.9c0-.8-.1-1.4-.4-1.8-.3-.4-.8-.6-1.3-.6s-1.3.3-1.6.8c-.4.5-.6,1.1-.6,1.9v4.7h-1.4v-4.9c0-.8-.1-1.4-.4-1.8-.3-.4-.8-.6-1.3-.6s-1.3.3-1.6.8c-.4.5-.6,1.1-.6,1.9v4.7h-1.4v-8.4h1.4v1.3c.3-.5.6-.9,1.1-1.1.5-.3,1-.4,1.5-.4s1.1.1,1.5.5c.4.3.8.8.9,1.4h-.1Z"/>
  </g>
  <g class="st83">
    <path class="st4" d="M761.3,130.6c3.3,134.5,3.3,352.6,0,487.1-3.3,134.5-8.7,134.5-12,0-3.3-134.5-3.3-352.6,0-487.1,3.3-134.5,8.7-134.5,12,0Z"/>
    <text class="st8" transform="translate(694.1 18.4)"><tspan x="0" y="0">Phasechange</tspan></text>
  </g>
</svg>