<?xml version="1.0" encoding="UTF-8"?>
<svg id="Ebene_1" xmlns="http://www.w3.org/2000/svg" xmlns:xlink="http://www.w3.org/1999/xlink" version="1.1" viewBox="0 0 603.2 210.7">
  <!-- Generator: Adobe Illustrator 29.4.0, SVG Export Plug-In . SVG Version: 2.1.0 Build 152)  -->
  <defs>
    <style>
      .st0 {
        fill: url(#Unbenannter_Verlauf);
      }

      .st1 {
        fill: url(#Unbenannter_Verlauf_2);
      }

      .st2 {
        fill: url(#Unbenannter_Verlauf_4);
      }

      .st3 {
        fill: url(#Unbenannter_Verlauf_3);
      }

      .st4 {
        isolation: isolate;
      }

      .st5 {
        fill: #fff;
      }

      .st6 {
        fill: none;
        stroke: #000;
        stroke-miterlimit: 10;
        stroke-width: 2px;
      }

      .st7 {
        fill: #54beca;
      }
    </style>
    <linearGradient id="Unbenannter_Verlauf" data-name="Unbenannter Verlauf" x1="61.7" y1="-329.9" x2="134.1" y2="-329.9" gradientTransform="translate(0 -212.8) scale(1 -1)" gradientUnits="userSpaceOnUse">
      <stop offset="0" stop-color="#2d3580"/>
      <stop offset="1" stop-color="#54beca"/>
    </linearGradient>
    <linearGradient id="Unbenannter_Verlauf_2" data-name="Unbenannter Verlauf 2" x1="92.8" y1="-336.8" x2="165.2" y2="-336.8" gradientTransform="translate(0 -212.8) scale(1 -1)" gradientUnits="userSpaceOnUse">
      <stop offset="0" stop-color="#2d3580"/>
      <stop offset="1" stop-color="#54beca"/>
    </linearGradient>
    <linearGradient id="Unbenannter_Verlauf_3" data-name="Unbenannter Verlauf 3" x1="66.9" y1="-349" x2="151.7" y2="-349" gradientTransform="translate(0 -212.8) scale(1 -1)" gradientUnits="userSpaceOnUse">
      <stop offset="0" stop-color="#2d3580"/>
      <stop offset="1" stop-color="#54beca"/>
    </linearGradient>
    <linearGradient id="Unbenannter_Verlauf_4" data-name="Unbenannter Verlauf 4" x1="75.7" y1="-318" x2="159.9" y2="-318" gradientTransform="translate(0 -212.8) scale(1 -1)" gradientUnits="userSpaceOnUse">
      <stop offset="0" stop-color="#2d3580"/>
      <stop offset="1" stop-color="#54beca"/>
    </linearGradient>
  </defs>
  <g>
    <path class="st7" d="M76.6,24.2c4.2,3.4,7.5,8.3,8.6,13.6,1.2,5.1.5,10.3,1,15.5.5,6,2.2,12,5.5,17.2,3.8,6.1,8.9,11.1,13.6,16.4,17.5,18.7,35.2,37.3,52.9,55.9,3.5,3.7,7.5,7.2,12.3,9,2.1.8,4.2,1.1,6.3,1.5,7.4,1.7,14,6.9,17.4,13.8,4.3,8.4,3.3,18.9-2.2,26-5.4,7.4-15.4,11.2-24.6,9-10.5-2.2-19.1-11.9-20.3-22.6-.5-5.4-3.1-10.5-6.8-14.6-16.4-18.4-32.7-36.9-49.2-55.2-4.7-5.2-9.2-10.5-14.2-15.4-5.1-5-12.3-9.5-19.5-7.8-7.3,1.1-14.9-1.7-21.1-5.7-9-6.1-16.7-14.3-21.7-24-1.4-2.3-1.3-5.1-.2-7.3.4-.9,1.6-.4,2.3,0,9.7,4,19.5,8,29.2,12.1,1.8.9,3.9,1.3,5.7.3,2.3-1.3,4.8-3.3,4.8-6.3.3-5,.6-10.1.7-15.1,0-2.8-2-5.2-4.5-6.2-8.6-3.6-17.2-7.3-25.9-10.9-.6-.3-1.5-.5-1.7-1.2.2-2.8,1.9-5.6,4.8-6.2,8.4-2.3,17.5-2.1,26.2-.5,7.4,1.5,14.8,4.1,20.8,9l-.2-.2h0Z"/>
    <path class="st5" d="M180.3,165.5c1.5.6,3.1.7,4.5,1.4.3,1.5.2,3,.6,4.4,1,1.3,2.3,2.3,3.4,3.6-.5,1.4-1.5,2.6-1.8,4.1.1,1.6,1,3.1,1.3,4.6-1.1,1-2.5,1.8-3.6,2.8-.6,1.4-.6,3-1.3,4.5-1.4.4-2.9.3-4.3.6-1.2.9-2.1,2.2-3.4,3.1-1.5-.5-2.9-1.3-4.4-1.8-1.4.2-2.7,1-4.2,1-1-1.1-1.8-2.3-2.7-3.4-1.4-.7-3.1-.7-4.5-1.4-.3-1.5-.4-3.1-.8-4.6-.9-1.3-2.4-2.1-3.2-3.4.3-1.5,1.3-2.8,1.5-4.3-.3-1.5-1-2.9-1.3-4.4,1.1-1,2.5-1.8,3.5-2.9.5-1.4.6-2.9,1.1-4.3,1.5-.3,3-.3,4.5-.6,1.2-1,2.2-2.3,3.4-3.3,1.5.5,2.8,1.5,4.4,1.9,1.5-.3,2.9-.8,4.3-1.2,1.2,1,1.9,2.6,3,3.7h0Z"/>
  </g>
  <ellipse class="st5" cx="113.6" cy="120.5" rx="53.7" ry="54.3"/>
  <g>
    <path class="st0" d="M93,157.3c7.4,2.3,16.6,1.8,22.9-.7,7.2-2.8,11.1-5.9,14.6-11.1,2.3-3.3,4-8.7,3.6-14.2-.4-5.4-2.3-9.5-4.5-12.5-.4,2.4-1,4.9-1.9,7.2-1.5,3.9-3.8,7.1-6.6,9.9-.3.4-.7.7-1,1.1-3,2.6-6.1,4.9-11.7,6.4-.2.1-4.2,1-.4.2-4.7,1-10.6,1.2-14.8-.5-.3,0-.6-.3-.8-.3-6.4-2.8-9.5-5.6-13.1-10.3-3.2-4.5-5.8-10.9-6.4-18-.3-5,0-9.8,1.1-13.8.2-.7.4-1.2.4-1.8,1.8-5.6,4.6-10.4,7-13.8,2.8-3.7,5.1-6.8,8.9-9.7-4.8,2.9-8.4,5.7-12.2,9.1-3.5,3.5-6.8,7.1-10,11.9-2.1,3.4-3.5,5.9-5,10.5-.7,2.4-1.4,5.3-1.4,8v1.1c-.2,5.3.5,10.6,2.3,15.6s3.9,8.6,6.3,11.8c4.7,5.3,9.2,8.6,17.6,12.3"/>
    <path class="st1" d="M146,159.1c5.8-4.9,10.9-10.3,14.6-17.6,4.5-7.9,6-19.8,2.4-29.2-2.2-6.7-4.6-10.9-8.3-15-4.6-4.8-9.8-8.6-17.6-11.5-.9-.2-1.7-.8-2.7-.9-1.1-.4-2-.5-3.3-.9-2.5-.4-4.9-.9-7.4-.6-6.3-.2-11.5,1.1-16.1,3.3-5.1,2.6-8.5,5.5-11.3,9.7-3.4,4.8-5.1,13.9-2.1,20.9v.5c1.3,3,2.7,5.1,4.4,7-1.1-3.2-1.7-6.6-1.8-10v-7.5c0-.9.2-1.2,1.2-1,2.4.3,4.8.5,7.2,0,2.8-3,5.8-5.2,10.9-7,8.2-3.1,19-.7,24.1,3.6,5.3,4,9.1,9.1,11.6,17.2,1.8,6,2.3,14.8.1,21.6.4-1.2.2-.6-.3.6-1.5,5.5-4.4,10.4-7.2,14.3-1.4,2-3,3.8-4.5,5.6-.7.8-1.6,1.5-2.4,2.4"/>
    <path class="st3" d="M151.1,137.8c2.2-11.8-1.8-23.5-7.4-29.3-.7-1-1.6-1.6-2.4-2.5-3.3-3-10.1-6.3-17.5-5.5-.7,0-2.7.5-3.7.7-.4,0-8.8,2.6-2.8,1-1.9.5-.6,0-2.2.5,3.2,3.2,7.4,4.3,12,3.7.5,0,.9,0,1.4-.2,1.1,0,1.6.3,1.6,1.4v6.6c3.9,4,7.6,11.8,6.8,20.7-.5,5.7-3.2,10.4-5.7,13.7-3.6,4.3-8.5,7.9-14.9,10-6.3,2.1-13.8,2.6-20.6,1.2-7.2-1.5-11.6-4.4-16.5-7.3-2.7-1.9-4.7-3.3-4.2-3-4.3-3-4-3.1-7.3-7.4-.3-.2-.7-.4-.6-.1,3.6,5.4,6.2,9.1,9.9,13.2,3.6,3.7,7.4,7.4,11.9,10.2,3.2,1.9,6.6,4.1,11.2,5.3.8.2,0,0,.9.2.8.3.3,0,1.4.4,5.7,1.2,13.3,1,18.5-.6.3-.1,2.3-.5,4.6-1.4,4.1-1.8,3.4-1.4,6.6-3.4,3-1.9,5.4-3.8,7.5-6.2,4.7-5.3,7.6-9.7,10.5-18.5"/>
    <path class="st2" d="M136.3,74.5c-1.8-1-3.5-1.9-5.8-2.8-1-.4-.2,0-2.9-1-7.1-2.7-16.4-2.3-23.7.4-4.1,1.4-7,3-9.8,4.7-2.7,1.7-5,3.8-7.1,6.2-2.2,2.1-4.4,5.5-6.1,8.7-2.9,5.3-5.7,13.8-5.1,21.7,0,6,2.1,12.2,4.6,16.3,1.9,3.1,3.9,5.4,6.5,7.5,3.4,3,10.4,6,17.4,5.1,2.3-.2,4.4-.8,6.3-1.5-3.5-2.5-6.6-5.4-8.9-9-4.5-2.9-7.3-6.5-9.8-12.4-2.2-5.4-2.2-12.9,0-18.8,1.8-4.4,3.8-7,6.4-9.6s4.2-3.5,6.5-4.9c4.5-2.4,9-3.9,14.7-4.6,5.7-.3,11-.3,16.2,1.5,2.6.5,5.1,1.8,7.5,3,3.4,1.7,6,3.4,8.8,5.5,1.4,1.1,2.4,2.1,3.8,3.3,1.9,1.7,2.4,2.3,4.1,3.8-4.1-6-8-10.7-12.8-15.1-1.7-1.5-3.3-3.1-5.4-4.5"/>
  </g>
  <path class="st7" d="M138.3,100c-.7.4-2.2,1.4-2.9,1.8-1.1.7-2.7,1.8-3.8,2.6-.9.6-2.4,1.8-3.3,2.4-1,.8-2.2,1.7-3.2,2.6-4.3,3.6-8.4,7.5-11.9,12-1.8-2.3-3.8-4.5-6.1-6.2-1.1-.8-2.2.6-1.5,1.7,1.8,3.1,2.5,4.8,3.8,8.6.4,1.1.8,2.5,1.6,3.4s.9.8,1.3.9c1.9.7,3.3-.2,4.2-1.9.4-.8.8-1.6,1.3-2.4.5-.9,1.2-2,1.7-2.9,2.4-3.8,5.3-7.5,8.3-10.8.7-.8,1.6-1.7,2.3-2.5l2.8-2.8c.6-.5,1.9-1.8,2.5-2.3,1-.9,2.5-2.1,3.5-3,.5-.5,0-1.4-.6-1v-.2h0Z"/>
  <g class="st4">
    <g class="st4">
      <g class="st4">
        <path d="M225.3,124.9c-16.8,0-20.5-9.3-20.5-25.1s3.7-25.1,20.5-25.1h12.8v10h-7.2c-10.8,0-13.3,2.9-13.3,15.1s2.5,15.1,13.3,15.1h7.9v10h-13.5Z"/>
        <path d="M278.7,105.9c0,15.5-4.4,19.4-18.4,19.4s-18.4-3.9-18.4-19.4,4.4-19.4,18.4-19.4,18.4,4,18.4,19.4ZM260.4,117.1c6.1,0,6.9-3.7,6.9-11.2s-.8-11.2-6.9-11.2-6.9,3.7-6.9,11.2.8,11.2,6.9,11.2Z"/>
        <path d="M283.7,94c0-5,2.5-7.2,7.2-7.2h8.8c10.3,0,17.3,2.8,17.3,13.7v24.3h-11.2v-21.4c0-5.4-1.5-8.3-7-8.3h-1.4c-1.8,0-2.5.7-2.5,2.5v27.2h-11.2v-30.8h0Z"/>
        <path d="M324.8,124.9v-29.7h-4.9v-8.2h4.9c.4-10.6,5.9-12.7,15-12.8h3.3v8.2h-1.6c-3.9,0-5.4,0-5.4,4.5h7.1v8.2h-7.1v29.7h-11.3ZM345.7,82.5v-8.5h11.2v8.5h-11.2ZM345.7,86.9h11.2v38h-11.2v-38Z"/>
        <path d="M376.8,124.9c-12.2,0-14.9-7.5-14.9-19s2.7-19,14.9-19h12.6c4.7,0,7.2,2.5,7.2,7.2v27.6c0,11-4.7,16-16.1,16h-16.3v-7.9h14.3c3.7,0,6.2-1.1,7-4.9h-8.7ZM380.1,95.1c-6.4,0-6.7,4.9-6.7,10.8s.4,10.8,6.6,10.8h5.4v-18.6c0-2.2-.7-2.9-2.9-2.9h-2.4Z"/>
        <path d="M436.1,117.7c0,5-2.5,7.2-7.2,7.2h-11.5c-9,0-14.9-3.9-14.9-13.6v-24.4h11.2v21.4c0,5.5,1.6,8.3,7,8.3h1.6c1.8,0,2.5-.7,2.5-2.5v-27.2h11.2v30.8h0Z"/>
        <path d="M442.2,101.9c0-11.2,5.4-15.1,16.6-15.1h4.2v8.2h-1.1c-6.6,0-8.5,3.4-8.5,10v19.7h-11.2v-22.9h0Z"/>
        <path d="M484.8,86.9c7.5,0,11.8,4.9,11.8,12v18.8c0,4.7-2.5,7.2-7.2,7.2h-15.7c-6.8,0-9.4-4-9.4-11.9s2.6-11.8,9.4-11.8h11.7v-1.6c0-3-1.7-4.4-4.8-4.4h-13.6v-8.2h17.8ZM479.4,108.9c-2.7,0-3.7,1.5-3.7,4.2s.9,4.1,3.7,4.1h3.4c1.8,0,2.5-.9,2.5-2.7v-5.5h-5.9Z"/>
        <path d="M517.9,124.9c-8.2,0-13.4-3.3-13.4-12.6v-17.1h-5v-8.2h5v-12.2h11.2v12.2h7.7v8.2h-7.7v13c0,5.7.8,8.5,6.9,8.5h.9v8.2h-5.6Z"/>
        <path d="M562.1,105.9c0,15.5-4.4,19.4-18.4,19.4s-18.4-3.9-18.4-19.4,4.4-19.4,18.4-19.4,18.4,4,18.4,19.4ZM543.8,117.1c6.1,0,6.9-3.7,6.9-11.2s-.8-11.2-6.9-11.2-6.9,3.7-6.9,11.2.8,11.2,6.9,11.2Z"/>
        <path d="M567.1,101.9c0-11.2,5.4-15.1,16.6-15.1h4.2v8.2h-1.1c-6.6,0-8.5,3.4-8.5,10v19.7h-11.2v-22.9h0Z"/>
      </g>
    </g>
  </g>
  <g>
    <path d="M269.8,149.4h2.4l4.6,13.9h-2.3l-1.2-4h-4.9l-1.2,4h-2.2l4.6-13.9h.2ZM269.1,157.7h3.9l-.6-1.9c-.5-1.5-.9-3.1-1.3-4.6h0c-.4,1.6-.8,3.1-1.3,4.6l-.6,1.9h-.1Z"/>
    <path d="M278.3,159.5v-6.5h2.1v6.3c0,1.8.6,2.6,1.8,2.6s1.7-.5,2.6-1.6v-7.2h2.1v10.4h-1.7l-.2-1.6h0c-.9,1.1-2,1.8-3.4,1.8-2.2,0-3.2-1.5-3.2-4.1h0Z"/>
    <path d="M290.5,159.9v-5.3h-1.5v-1.6h1.6c0-.1.3-3.4.3-3.4h1.7v3.3h2.7v1.7h-2.7v5.3c0,1.3.4,1.9,1.6,1.9s.7,0,1.1-.2l.4,1.5c-.6.3-1.3.4-2.1.4-2.3,0-3.1-1.5-3.1-3.6h0Z"/>
    <path d="M296.5,158.1c0-3.5,2.3-5.5,4.9-5.5s4.9,2,4.9,5.5-2.3,5.4-4.9,5.4-4.9-2-4.9-5.4ZM304.1,158.1c0-2.2-1-3.7-2.7-3.7s-2.7,1.5-2.7,3.7,1.1,3.7,2.7,3.7,2.7-1.5,2.7-3.7Z"/>
    <path d="M308.9,152.9h1.7l.2,1.5h0c.9-1,1.9-1.7,3.2-1.7s2.4.7,2.9,1.9c1-1.1,2.1-1.9,3.4-1.9,2.2,0,3.2,1.5,3.2,4.1v6.5h-2.1v-6.3c0-1.8-.6-2.6-1.8-2.6s-1.5.5-2.4,1.4v7.4h-2.1v-6.3c0-1.8-.6-2.6-1.8-2.6s-1.5.5-2.4,1.4v7.4h-2.1v-10.4.2Z"/>
    <path d="M326,160.6c0-2.3,1.9-3.4,6.2-3.9,0-1.2-.5-2.2-2-2.2s-2.1.5-3,1l-.8-1.4c1.1-.7,2.5-1.3,4.2-1.3,2.6,0,3.7,1.6,3.7,4.4v6.2h-1.7v-1.2h-.2c-1,.8-2.1,1.4-3.3,1.4-1.8,0-3.1-1.1-3.1-3h0ZM332.3,160.6v-2.5c-3.1.4-4.2,1.1-4.2,2.3s.7,1.4,1.7,1.4,1.7-.4,2.6-1.2h-.1Z"/>
    <path d="M337.5,159.9v-5.3h-1.5v-1.6h1.6c0-.1.3-3.4.3-3.4h1.7v3.3h2.7v1.7h-2.7v5.3c0,1.3.4,1.9,1.6,1.9s.7,0,1.1-.2l.4,1.5c-.6.3-1.3.4-2.1.4-2.3,0-3.1-1.5-3.1-3.6h0Z"/>
    <path d="M343.5,158.1c0-3.4,2.3-5.5,4.7-5.5s4.2,2,4.2,4.9,0,.8-.1,1.2h-6.7c.2,2.1,1.6,3.1,3.2,3.1s1.8-.3,2.5-.7l.7,1.4c-.9.7-2.1,1.1-3.5,1.1-2.9,0-5.1-2-5.1-5.4h0ZM345.7,157.1h4.9c0-1.7-.8-2.8-2.3-2.8s-2.3.7-2.6,2.8Z"/>
    <path d="M354.2,158.1c0-3.4,2.1-5.5,4.4-5.5s2,.4,2.8,1.2v-5.6h2.1v15.1h-1.7l-.2-1.2h0c-.8.8-1.9,1.4-3.1,1.4-2.6,0-4.3-2-4.3-5.4h0ZM361.4,160.5v-5.1c-.8-.7-1.6-1-2.3-1-1.5,0-2.7,1.4-2.7,3.7s1,3.7,2.6,3.7,1.6-.4,2.4-1.3h0Z"/>
    <path d="M370.5,156.3c0-4.5,2.5-7.2,6.1-7.2s6,2.7,6,7.2-2.5,7.3-6,7.3-6.1-2.8-6.1-7.3ZM380.4,156.3c0-3.3-1.5-5.3-3.8-5.3s-3.9,2-3.9,5.3,1.5,5.4,3.9,5.4,3.8-2.1,3.8-5.4Z"/>
    <path d="M384.5,157.2h5v1.6h-5v-1.6Z"/>
    <path d="M392.2,149.4h4.5c2.9,0,5,1,5,4s-1.2,3.4-3,4l3.4,5.9h-2.4l-3.2-5.7h-2.3v5.7h-2.1v-13.9h.1ZM396.4,156c2,0,3.2-.8,3.2-2.5s-1.1-2.3-3.2-2.3h-2.1v4.8h2.1Z"/>
    <path d="M407.2,149.4h2.4l4.6,13.9h-2.3l-1.2-4h-4.9l-1.2,4h-2.2l4.6-13.9h.2ZM406.5,157.7h3.9l-.6-1.9c-.5-1.5-.9-3.1-1.3-4.6h0c-.4,1.6-.8,3.1-1.3,4.6l-.6,1.9h-.1Z"/>
    <path d="M416.1,149.4h2.3l4.5,8.1c.5.9,1,2,1.4,3.1h0c-.1-1.5-.3-3.1-.3-4.6v-6.7h2v13.9h-2.3l-4.5-8.2c-.5-.9-1-2-1.5-3.1h0c.1,1.4.3,3,.3,4.5v6.7h-2v-13.9.2Z"/>
    <path d="M434.2,149.4h3.6c4.3,0,6.7,2.4,6.7,6.9s-2.4,7-6.6,7h-3.7v-13.9ZM437.7,161.6c3,0,4.6-1.8,4.6-5.3s-1.6-5.2-4.6-5.2h-1.3v10.5h1.3Z"/>
    <path d="M446.5,158.1c0-3.4,2.3-5.5,4.7-5.5s4.2,2,4.2,4.9,0,.8-.1,1.2h-6.7c.2,2.1,1.6,3.1,3.2,3.1s1.8-.3,2.5-.7l.7,1.4c-.9.7-2.1,1.1-3.5,1.1-2.9,0-5.1-2-5.1-5.4h0ZM448.6,157.1h4.9c0-1.7-.8-2.8-2.3-2.8s-2.3.7-2.6,2.8Z"/>
    <path d="M457.9,152.9h1.7l.2,1.2h0c.9-.8,2-1.4,3.2-1.4,2.6,0,4.1,2.1,4.1,5.3s-2.1,5.6-4.5,5.6-1.9-.4-2.8-1.2v5.2h-2.1v-14.6h.2ZM465,158c0-2.2-.7-3.5-2.5-3.5s-1.6.4-2.5,1.3v5.1c.8.7,1.7,1,2.3,1,1.6,0,2.7-1.4,2.7-3.8h0Z"/>
    <path d="M469.8,160.9v-12.6h2.1v12.8c0,.6.2.8.5.8h.4l.3,1.6c-.3.1-.6.2-1.1.2-1.5,0-2.1-1-2.1-2.6v-.2Z"/>
    <path d="M474.6,158.1c0-3.5,2.3-5.5,4.9-5.5s4.9,2,4.9,5.5-2.3,5.4-4.9,5.4-4.9-2-4.9-5.4ZM482.2,158.1c0-2.2-1-3.7-2.7-3.7s-2.7,1.5-2.7,3.7,1.1,3.7,2.7,3.7,2.7-1.5,2.7-3.7Z"/>
    <path d="M486,167.5l.4-1.6c.3,0,.5.1.7.1,1.1,0,1.8-.9,2.2-2l.2-.7-4.1-10.3h2.1l2,5.4c.3.9.6,2,1,2.9h0c.3-1,.6-2,.8-2.9l1.7-5.4h2l-3.8,11.1c-.8,2.2-1.9,3.7-4.1,3.7s-.9,0-1.3-.2h.2Z"/>
    <path d="M497.1,152.9h1.7l.2,1.5h0c.9-1,1.9-1.7,3.2-1.7s2.4.7,2.9,1.9c1-1.1,2.1-1.9,3.4-1.9,2.2,0,3.2,1.5,3.2,4.1v6.5h-2.1v-6.3c0-1.8-.6-2.6-1.8-2.6s-1.5.5-2.4,1.4v7.4h-2.1v-6.3c0-1.8-.6-2.6-1.8-2.6s-1.5.5-2.4,1.4v7.4h-2.1v-10.4.2Z"/>
    <path d="M514.1,158.1c0-3.4,2.3-5.5,4.7-5.5s4.2,2,4.2,4.9,0,.8,0,1.2h-6.7c.2,2.1,1.6,3.1,3.2,3.1s1.8-.3,2.5-.7l.7,1.4c-.9.7-2.1,1.1-3.5,1.1-2.9,0-5.1-2-5.1-5.4h0ZM516.2,157.1h4.9c0-1.7-.8-2.8-2.3-2.8s-2.3.7-2.6,2.8h0Z"/>
    <path d="M525.5,152.9h1.7l.2,1.5h0c1-1,2-1.7,3.4-1.7,2.2,0,3.2,1.5,3.2,4.1v6.5h-2.1v-6.3c0-1.8-.6-2.6-1.8-2.6s-1.7.5-2.6,1.4v7.4h-2.1v-10.4h0Z"/>
    <path d="M537.6,159.9v-5.3h-1.5v-1.6h1.6c0-.1.3-3.4.3-3.4h1.7v3.3h2.7v1.7h-2.7v5.3c0,1.3.4,1.9,1.6,1.9s.7,0,1.1-.2l.4,1.5c-.6.3-1.3.4-2.1.4-2.3,0-3.1-1.5-3.1-3.6h0Z"/>
  </g>
  <line class="st6" x1="550.4" y1="158.2" x2="584.9" y2="158.2"/>
  <line class="st6" x1="224.5" y1="158.2" x2="259" y2="158.2"/>
</svg>