<?xml version="1.0" encoding="UTF-8"?>
<svg id="Ebene_1" xmlns="http://www.w3.org/2000/svg" xmlns:xlink="http://www.w3.org/1999/xlink" version="1.1" viewBox="0 0 2200 1080">
  <!-- Generator: Adobe Illustrator 29.4.0, SVG Export Plug-In . SVG Version: 2.1.0 Build 152)  -->
  <defs>
    <style>
      .st0, .st1, .st2, .st3, .st4, .st5, .st6, .st7 {
        fill: none;
      }

      .st8 {
        font-size: 30px;
      }

      .st8, .st9, .st10, .st11, .st12 {
        isolation: isolate;
      }

      .st8, .st11, .st12 {
        font-family: HelveticaNeue, 'Helvetica Neue';
      }

      .st9 {
        fill: #fff;
        font-family: HelveticaNeue-Medium, 'Helvetica Neue';
        font-size: 32px;
        font-weight: 500;
      }

      .st13 {
        fill: #4cadbb;
      }

      .st14 {
        fill: #2c4c8d;
      }

      .st15 {
        clip-path: url(#clippath-17);
      }

      .st16 {
        clip-path: url(#clippath-19);
      }

      .st17 {
        clip-path: url(#clippath-11);
      }

      .st18 {
        clip-path: url(#clippath-16);
      }

      .st19 {
        clip-path: url(#clippath-18);
      }

      .st20 {
        clip-path: url(#clippath-10);
      }

      .st21 {
        clip-path: url(#clippath-15);
      }

      .st22 {
        clip-path: url(#clippath-13);
      }

      .st23 {
        clip-path: url(#clippath-14);
      }

      .st24 {
        clip-path: url(#clippath-12);
      }

      .st25 {
        clip-path: url(#clippath-61);
      }

      .st26 {
        clip-path: url(#clippath-60);
      }

      .st27 {
        clip-path: url(#clippath-62);
      }

      .st28 {
        clip-path: url(#clippath-64);
      }

      .st29 {
        clip-path: url(#clippath-63);
      }

      .st30 {
        clip-path: url(#clippath-50);
      }

      .st31 {
        clip-path: url(#clippath-55);
      }

      .st32 {
        clip-path: url(#clippath-52);
      }

      .st33 {
        clip-path: url(#clippath-57);
      }

      .st34 {
        clip-path: url(#clippath-54);
      }

      .st35 {
        clip-path: url(#clippath-56);
      }

      .st36 {
        clip-path: url(#clippath-53);
      }

      .st37 {
        clip-path: url(#clippath-51);
      }

      .st38 {
        clip-path: url(#clippath-58);
      }

      .st39 {
        clip-path: url(#clippath-59);
      }

      .st40 {
        clip-path: url(#clippath-31);
      }

      .st41 {
        clip-path: url(#clippath-32);
      }

      .st42 {
        clip-path: url(#clippath-33);
      }

      .st43 {
        clip-path: url(#clippath-34);
      }

      .st44 {
        clip-path: url(#clippath-35);
      }

      .st45 {
        clip-path: url(#clippath-39);
      }

      .st46 {
        clip-path: url(#clippath-30);
      }

      .st47 {
        clip-path: url(#clippath-36);
      }

      .st48 {
        clip-path: url(#clippath-37);
      }

      .st49 {
        clip-path: url(#clippath-38);
      }

      .st50 {
        clip-path: url(#clippath-27);
      }

      .st51 {
        clip-path: url(#clippath-29);
      }

      .st52 {
        clip-path: url(#clippath-26);
      }

      .st53 {
        clip-path: url(#clippath-28);
      }

      .st54 {
        clip-path: url(#clippath-20);
      }

      .st55 {
        clip-path: url(#clippath-21);
      }

      .st56 {
        clip-path: url(#clippath-22);
      }

      .st57 {
        clip-path: url(#clippath-23);
      }

      .st58 {
        clip-path: url(#clippath-24);
      }

      .st59 {
        clip-path: url(#clippath-25);
      }

      .st60 {
        clip-path: url(#clippath-41);
      }

      .st61 {
        clip-path: url(#clippath-42);
      }

      .st62 {
        clip-path: url(#clippath-43);
      }

      .st63 {
        clip-path: url(#clippath-44);
      }

      .st64 {
        clip-path: url(#clippath-45);
      }

      .st65 {
        clip-path: url(#clippath-49);
      }

      .st66 {
        clip-path: url(#clippath-40);
      }

      .st67 {
        clip-path: url(#clippath-46);
      }

      .st68 {
        clip-path: url(#clippath-47);
      }

      .st69 {
        clip-path: url(#clippath-48);
      }

      .st70 {
        clip-path: url(#clippath-1);
      }

      .st71 {
        clip-path: url(#clippath-3);
      }

      .st72 {
        clip-path: url(#clippath-4);
      }

      .st73 {
        clip-path: url(#clippath-2);
      }

      .st74 {
        clip-path: url(#clippath-7);
      }

      .st75 {
        clip-path: url(#clippath-6);
      }

      .st76 {
        clip-path: url(#clippath-9);
      }

      .st77 {
        clip-path: url(#clippath-8);
      }

      .st78 {
        clip-path: url(#clippath-5);
      }

      .st1, .st3 {
        stroke: #f27200;
      }

      .st1, .st4, .st6 {
        stroke-width: 10px;
      }

      .st2 {
        stroke: #00a2ff;
      }

      .st2, .st3, .st5 {
        stroke-width: 5px;
      }

      .st4 {
        stroke: #00a1ff;
      }

      .st11 {
        font-size: 48px;
      }

      .st5, .st6 {
        stroke: #006c65;
      }

      .st79 {
        clip-path: url(#clippath);
      }

      .st12 {
        font-size: 40px;
      }

      .st7 {
        stroke: #000;
        stroke-width: 4px;
      }
    </style>
    <clipPath id="clippath">
      <rect class="st0" y="0" width="2200" height="1080"/>
    </clipPath>
    <clipPath id="clippath-1">
      <rect class="st0" x="169.8" y="649.1" width="238.4" height="68.8"/>
    </clipPath>
    <clipPath id="clippath-2">
      <rect class="st0" y="0" width="2200" height="1080"/>
    </clipPath>
    <clipPath id="clippath-3">
      <rect class="st0" x="169.8" y="505.6" width="238.4" height="68.8"/>
    </clipPath>
    <clipPath id="clippath-4">
      <rect class="st0" y="0" width="2200" height="1080"/>
    </clipPath>
    <clipPath id="clippath-5">
      <rect class="st0" x="169.8" y="436" width="238.4" height="68.8"/>
    </clipPath>
    <clipPath id="clippath-6">
      <rect class="st0" y="0" width="2200" height="1080"/>
    </clipPath>
    <clipPath id="clippath-7">
      <rect class="st0" x="169.8" y="362.1" width="238.4" height="68.8"/>
    </clipPath>
    <clipPath id="clippath-8">
      <rect class="st0" y="0" width="2200" height="1080"/>
    </clipPath>
    <clipPath id="clippath-9">
      <rect class="st0" x="169.8" y="288.2" width="238.4" height="68.8"/>
    </clipPath>
    <clipPath id="clippath-10">
      <rect class="st0" y="0" width="2200" height="1080"/>
    </clipPath>
    <clipPath id="clippath-11">
      <rect class="st0" x="305.6" y="214.3" width="106" height="68.8"/>
    </clipPath>
    <clipPath id="clippath-12">
      <rect class="st0" y="0" width="2200" height="1080"/>
    </clipPath>
    <clipPath id="clippath-13">
      <rect class="st0" x="169.8" y="101.7" width="238.4" height="68.8"/>
    </clipPath>
    <clipPath id="clippath-14">
      <rect class="st0" y="0" width="2200" height="1080"/>
    </clipPath>
    <clipPath id="clippath-15">
      <rect class="st0" x="657.6" y="649.1" width="238.5" height="68.8"/>
    </clipPath>
    <clipPath id="clippath-16">
      <rect class="st0" y="0" width="2200" height="1080"/>
    </clipPath>
    <clipPath id="clippath-17">
      <rect class="st0" x="657.6" y="505.6" width="238.5" height="68.8"/>
    </clipPath>
    <clipPath id="clippath-18">
      <rect class="st0" y="0" width="2200" height="1080"/>
    </clipPath>
    <clipPath id="clippath-19">
      <rect class="st0" x="657.6" y="436" width="238.5" height="68.8"/>
    </clipPath>
    <clipPath id="clippath-20">
      <rect class="st0" y="0" width="2200" height="1080"/>
    </clipPath>
    <clipPath id="clippath-21">
      <rect class="st0" x="657.6" y="362.1" width="238.5" height="68.8"/>
    </clipPath>
    <clipPath id="clippath-22">
      <rect class="st0" y="0" width="2200" height="1080"/>
    </clipPath>
    <clipPath id="clippath-23">
      <rect class="st0" x="657.6" y="288.2" width="238.5" height="68.8"/>
    </clipPath>
    <clipPath id="clippath-24">
      <rect class="st0" y="0" width="2200" height="1080"/>
    </clipPath>
    <clipPath id="clippath-25">
      <rect class="st0" x="793.4" y="214.3" width="106" height="68.8"/>
    </clipPath>
    <clipPath id="clippath-26">
      <rect class="st0" y="0" width="2200" height="1080"/>
    </clipPath>
    <clipPath id="clippath-27">
      <rect class="st0" x="657.6" y="101.7" width="238.5" height="68.8"/>
    </clipPath>
    <clipPath id="clippath-28">
      <rect class="st0" y="0" width="2200" height="1080"/>
    </clipPath>
    <clipPath id="clippath-29">
      <rect class="st0" x="667.7" y="210.9" width="123.4" height="68.8"/>
    </clipPath>
    <clipPath id="clippath-30">
      <rect class="st0" y="0" width="2200" height="1080"/>
    </clipPath>
    <clipPath id="clippath-31">
      <rect class="st0" x="1149.3" y="654.7" width="238.4" height="68.8"/>
    </clipPath>
    <clipPath id="clippath-32">
      <rect class="st0" y="0" width="2200" height="1080"/>
    </clipPath>
    <clipPath id="clippath-33">
      <rect class="st0" x="1149.3" y="575.3" width="238.4" height="68.8"/>
    </clipPath>
    <clipPath id="clippath-34">
      <rect class="st0" y="0" width="2200" height="1080"/>
    </clipPath>
    <clipPath id="clippath-35">
      <rect class="st0" x="1149.3" y="505.7" width="238.4" height="68.8"/>
    </clipPath>
    <clipPath id="clippath-36">
      <rect class="st0" y="0" width="2200" height="1080"/>
    </clipPath>
    <clipPath id="clippath-37">
      <rect class="st0" x="1149.3" y="431.8" width="238.4" height="68.8"/>
    </clipPath>
    <clipPath id="clippath-38">
      <rect class="st0" y="0" width="2200" height="1080"/>
    </clipPath>
    <clipPath id="clippath-39">
      <rect class="st0" x="1149.3" y="293.7" width="238.4" height="68.8"/>
    </clipPath>
    <clipPath id="clippath-40">
      <rect class="st0" y="0" width="2200" height="1080"/>
    </clipPath>
    <clipPath id="clippath-41">
      <rect class="st0" x="1285.1" y="219.8" width="106" height="68.8"/>
    </clipPath>
    <clipPath id="clippath-42">
      <rect class="st0" y="0" width="2200" height="1080"/>
    </clipPath>
    <clipPath id="clippath-43">
      <rect class="st0" x="1149.3" y="107.3" width="238.4" height="68.8"/>
    </clipPath>
    <clipPath id="clippath-44">
      <rect class="st0" y="0" width="2200" height="1080"/>
    </clipPath>
    <clipPath id="clippath-45">
      <rect class="st0" x="1154.3" y="219.8" width="123.4" height="68.8"/>
    </clipPath>
    <clipPath id="clippath-46">
      <rect class="st0" y="0" width="2200" height="1080"/>
    </clipPath>
    <clipPath id="clippath-47">
      <rect class="st0" x="1762.7" y="796.5" width="238.4" height="68.8"/>
    </clipPath>
    <clipPath id="clippath-48">
      <rect class="st0" y="0" width="2200" height="1080"/>
    </clipPath>
    <clipPath id="clippath-49">
      <rect class="st0" x="1762.7" y="717.2" width="238.4" height="68.8"/>
    </clipPath>
    <clipPath id="clippath-50">
      <rect class="st0" y="0" width="2200" height="1080"/>
    </clipPath>
    <clipPath id="clippath-51">
      <rect class="st0" x="1756.6" y="514.4" width="238.4" height="68.8"/>
    </clipPath>
    <clipPath id="clippath-52">
      <rect class="st0" y="0" width="2200" height="1080"/>
    </clipPath>
    <clipPath id="clippath-53">
      <rect class="st0" x="1756.6" y="440.5" width="238.4" height="68.8"/>
    </clipPath>
    <clipPath id="clippath-54">
      <rect class="st0" y="0" width="2200" height="1080"/>
    </clipPath>
    <clipPath id="clippath-55">
      <rect class="st0" x="1756.6" y="287" width="238.4" height="68.8"/>
    </clipPath>
    <clipPath id="clippath-56">
      <rect class="st0" y="0" width="2200" height="1080"/>
    </clipPath>
    <clipPath id="clippath-57">
      <rect class="st0" x="1892.4" y="213" width="106" height="68.8"/>
    </clipPath>
    <clipPath id="clippath-58">
      <rect class="st0" y="0" width="2200" height="1080"/>
    </clipPath>
    <clipPath id="clippath-59">
      <rect class="st0" x="1756.6" y="100.5" width="238.4" height="68.8"/>
    </clipPath>
    <clipPath id="clippath-60">
      <rect class="st0" y="0" width="2200" height="1080"/>
    </clipPath>
    <clipPath id="clippath-61">
      <rect class="st0" x="1755.2" y="210.9" width="123.4" height="68.8"/>
    </clipPath>
    <clipPath id="clippath-62">
      <rect class="st0" y="0" width="2200" height="1080"/>
    </clipPath>
    <clipPath id="clippath-63">
      <rect class="st0" x="1756.6" y="591.7" width="238.4" height="68.8"/>
    </clipPath>
    <clipPath id="clippath-64">
      <rect class="st0" y="0" width="2200" height="1080"/>
    </clipPath>
  </defs>
  <g class="st79">
    <g>
      <path class="st13" d="M263.9,966.8h50.4v89.4h-50.4v-89.4h0ZM284.6,958h9c.8,0,1.4.6,1.4,1.4s-.6,1.4-1.4,1.4h-9c-.8,0-1.4-.6-1.4-1.4s.6-1.4,1.4-1.4ZM265.5,950.5c-3.1,0-5.6,2.5-5.6,5.6v109c0,3.1,2.5,5.6,5.6,5.6h47.2c3.1,0,5.6-2.5,5.6-5.6v-109c0-3.1-2.5-5.6-5.6-5.6h-47.2Z"/>
      <path class="st14" d="M197.9,649.1h182.4c6.7,0,10.8,0,13.5,1.1,3.9,1.4,6.9,4.5,8.4,8.3,1.1,2.7,1.1,6.7,1.1,13.5v22.9c0,6.7,0,10.8-1.1,13.5-1.4,3.9-4.5,6.9-8.4,8.3-2.7,1.1-6.7,1.1-13.5,1.1h-182.4c-6.7,0-10.8,0-13.5-1.1-3.9-1.4-6.9-4.5-8.4-8.3-1.1-2.7-1.1-6.7-1.1-13.5v-22.9c0-6.7,0-10.8,1.1-13.5,1.4-3.9,4.5-6.9,8.4-8.3,2.7-1.1,6.7-1.1,13.5-1.1Z"/>
    </g>
  </g>
  <g class="st70">
    <g class="st10">
      <text class="st9" transform="translate(268.3 695.3)"><tspan x="0" y="0">RF</tspan></text>
    </g>
  </g>
  <g class="st73">
    <g>
      <path class="st13" d="M301.5,827.9l3.3,12.9-14.1-7.3,10.8-5.6h0ZM276.5,827.9l10.8,5.6-14.1,7.3,3.3-12.9h0ZM277.5,826.6h23.1l-11.5,6-11.5-6h0ZM289,816.4l11,8.6h-22.1l11-8.6h0ZM297,810.2l3.4,13-10-7.8,6.7-5.2h0ZM281,810.2l6.7,5.2-10,7.8,3.3-13h0ZM282.5,809.3h13.1l-6.5,5.1-6.5-5.1h0ZM289,799.3l6.6,8.5h-13.1l6.6-8.5ZM292.9,794.3l2.9,11.2-5.8-7.5,2.9-3.7h0ZM285.1,794.3l2.9,3.7-5.8,7.5,2.9-11.2h0ZM286.2,793.2h5.5l-2.8,3.6-2.8-3.6h0ZM289,779.2l3.2,12.4h-6.4l3.2-12.4h0ZM289,764.1c-2.3,0-4.1,1.9-4.1,4.2s.7,2.6,1.7,3.4l-18.3,71.2h4.3l16.4-8.5,16.4,8.5h4.3l-18.3-71.2c1-.8,1.7-2,1.7-3.4,0-2.3-1.9-4.2-4.1-4.2h0ZM289,752.4c-8.8,0-15.9,7.1-15.9,15.9s2.8,10.3,6.9,13.1l.9-3.4c-2.8-2.3-4.5-5.8-4.5-9.7,0-7,5.7-12.6,12.6-12.6s12.6,5.7,12.6,12.6-1.8,7.4-4.5,9.7l.9,3.4c4.2-2.9,6.9-7.7,6.9-13.1,0-8.8-7.1-15.9-15.9-15.9h0ZM289,740.5c-15.3,0-27.8,12.5-27.8,27.8s6.4,20.5,15.7,25l.8-3.2c-7.9-4.1-13.3-12.3-13.3-21.8,0-13.5,11-24.5,24.5-24.5s24.5,11,24.5,24.5-5.4,17.7-13.3,21.8l.8,3.2c9.3-4.5,15.7-14,15.7-25s-12.5-27.8-27.8-27.8h0ZM289.1,728.5c-21.9,0-39.7,17.8-39.7,39.7s9.8,30.4,24.7,36.6l.7-3c-13.6-5.7-22.1-18.9-22.1-33.6s16.4-36.4,36.4-36.4,36.4,16.3,36.4,36.4-8.6,28-22.2,33.7l.7,3c14.9-6.2,24.8-20.6,24.8-36.7s-17.8-39.7-39.7-39.7h0Z"/>
      <polyline class="st7" points="289.1 916.3 289.1 914.3 289.1 879.1 289.1 877.1"/>
      <polygon points="297.5 879.1 289.1 862.3 280.7 879.1 297.5 879.1"/>
      <polygon points="280.7 914.3 289.1 931.1 297.5 914.3 280.7 914.3"/>
      <path class="st14" d="M197.9,505.6h182.4c6.7,0,10.8,0,13.5,1.1,3.9,1.4,6.9,4.5,8.4,8.3,1.1,2.7,1.1,6.7,1.1,13.5v22.9c0,6.7,0,10.8-1.1,13.5-1.4,3.9-4.5,6.9-8.4,8.3-2.7,1.1-6.7,1.1-13.5,1.1h-182.4c-6.7,0-10.8,0-13.5-1.1-3.9-1.4-6.9-4.5-8.4-8.3-1.1-2.7-1.1-6.7-1.1-13.5v-22.9c0-6.7,0-10.8,1.1-13.5,1.4-3.9,4.5-6.9,8.4-8.4,2.7-1.1,6.7-1.1,13.5-1.1h0Z"/>
    </g>
  </g>
  <g class="st71">
    <g class="st10">
      <text class="st9" transform="translate(256.5 551.7)"><tspan x="0" y="0">PHY</tspan></text>
    </g>
  </g>
  <g class="st72">
    <path class="st14" d="M197.9,436h182.4c6.7,0,10.8,0,13.5,1.1,3.9,1.4,6.9,4.5,8.4,8.4,1.1,2.7,1.1,6.7,1.1,13.5v22.9c0,6.7,0,10.8-1.1,13.5-1.4,3.9-4.5,6.9-8.4,8.4-2.7,1.1-6.7,1.1-13.5,1.1h-182.4c-6.7,0-10.8,0-13.5-1.1-3.9-1.4-6.9-4.5-8.4-8.4-1.1-2.7-1.1-6.7-1.1-13.5v-22.9c0-6.7,0-10.8,1.1-13.5,1.4-3.9,4.5-6.9,8.4-8.4,2.7-1.1,6.7-1.1,13.5-1.1Z"/>
  </g>
  <g class="st78">
    <g class="st10">
      <text class="st9" transform="translate(252.6 482.1)"><tspan x="0" y="0">MAC</tspan></text>
    </g>
  </g>
  <g class="st75">
    <path class="st14" d="M197.9,362.1h182.4c6.7,0,10.8,0,13.5,1.1,3.9,1.4,6.9,4.5,8.4,8.4,1.1,2.7,1.1,6.7,1.1,13.5v22.9c0,6.7,0,10.8-1.1,13.5-1.4,3.9-4.5,6.9-8.4,8.4-2.7,1.1-6.7,1.1-13.5,1.1h-182.4c-6.7,0-10.8,0-13.5-1.1-3.9-1.4-6.9-4.5-8.4-8.4-1.1-2.7-1.1-6.7-1.1-13.5v-22.9c0-6.7,0-10.8,1.1-13.5,1.4-3.9,4.5-6.9,8.4-8.4,2.7-1.1,6.7-1.1,13.5-1.1Z"/>
  </g>
  <g class="st74">
    <g class="st10">
      <text class="st9" transform="translate(257.1 408.2)"><tspan x="0" y="0">RLC</tspan></text>
    </g>
  </g>
  <g class="st77">
    <path class="st14" d="M197.9,288.2h182.4c6.7,0,10.8,0,13.5,1.1,3.9,1.4,6.9,4.5,8.4,8.4,1.1,2.7,1.1,6.7,1.1,13.5v22.9c0,6.7,0,10.8-1.1,13.5-1.4,3.9-4.5,6.9-8.4,8.4-2.7,1.1-6.7,1.1-13.5,1.1h-182.4c-6.7,0-10.8,0-13.5-1.1-3.9-1.4-6.9-4.5-8.4-8.4-1.1-2.7-1.1-6.7-1.1-13.5v-22.9c0-6.7,0-10.8,1.1-13.5,1.4-3.9,4.5-6.9,8.4-8.4,2.7-1.1,6.7-1.1,13.5-1.1Z"/>
  </g>
  <g class="st76">
    <g class="st10">
      <text class="st9" transform="translate(244.6 334.3)"><tspan x="0" y="0">PDCP</tspan></text>
    </g>
  </g>
  <g class="st20">
    <path class="st14" d="M333.5,214.3h50c6.7,0,10.8,0,13.5,1.1,3.9,1.4,6.9,4.5,8.4,8.4,1.1,2.7,1.1,6.7,1.1,13.5v22.9c0,6.7,0,10.8-1.1,13.5-1.4,3.9-4.5,6.9-8.4,8.4-2.7,1.1-6.7,1.1-13.5,1.1h-50c-6.7,0-10.8,0-13.5-1.1-3.9-1.4-6.9-4.5-8.4-8.4-1.1-2.7-1.1-6.7-1.1-13.5v-22.9c0-6.7,0-10.8,1.1-13.5,1.4-3.9,4.5-6.9,8.4-8.4,2.7-1.1,6.7-1.1,13.5-1.1h0Z"/>
  </g>
  <g class="st17">
    <g class="st10">
      <text class="st9" transform="translate(324.6 259.9)"><tspan x="0" y="0">RRC</tspan></text>
    </g>
  </g>
  <g class="st24">
    <path class="st14" d="M197.9,101.7h182.4c6.7,0,10.8,0,13.5,1.1,3.9,1.4,6.9,4.5,8.4,8.3,1.1,2.7,1.1,6.7,1.1,13.5v22.9c0,6.7,0,10.8-1.1,13.5-1.4,3.9-4.5,6.9-8.4,8.4-2.7,1.1-6.7,1.1-13.5,1.1h-182.4c-6.7,0-10.8,0-13.5-1.1-3.9-1.4-6.9-4.5-8.4-8.4-1.1-2.7-1.1-6.7-1.1-13.5v-22.9c0-6.7,0-10.8,1.1-13.5,1.4-3.9,4.5-6.9,8.4-8.3,2.7-1.1,6.7-1.1,13.5-1.1Z"/>
  </g>
  <g class="st22">
    <g class="st10">
      <text class="st9" transform="translate(256.8 147.8)"><tspan x="0" y="0">EPC</tspan></text>
    </g>
  </g>
  <g class="st23">
    <g>
      <g class="st10">
        <text class="st11" transform="translate(118.7 64.3)"><tspan x="0" y="0">4G/</tspan></text>
        <text class="st11" transform="translate(197.8 64.3)"><tspan x="0" y="0">L</tspan></text>
        <text class="st11" transform="translate(220.1 64.3)"><tspan x="0" y="0">TE - Split 8</tspan></text>
      </g>
      <path class="st13" d="M751.6,966.8h50.4v89.4h-50.4v-89.4h0ZM772.3,958h9c.8,0,1.4.6,1.4,1.4s-.6,1.4-1.4,1.4h-9c-.8,0-1.4-.6-1.4-1.4s.6-1.4,1.4-1.4ZM753.2,950.5c-3.1,0-5.6,2.5-5.6,5.6v109c0,3.1,2.5,5.6,5.6,5.6h47.2c3.1,0,5.6-2.5,5.6-5.6v-109c0-3.1-2.5-5.6-5.6-5.6h-47.2Z"/>
      <path class="st13" d="M685.6,649.1h182.4c6.7,0,10.8,0,13.5,1.1,3.9,1.4,6.9,4.5,8.3,8.3,1.1,2.7,1.1,6.7,1.1,13.5v22.9c0,6.7,0,10.8-1.1,13.5-1.4,3.9-4.5,6.9-8.3,8.3-2.7,1.1-6.7,1.1-13.5,1.1h-182.4c-6.7,0-10.8,0-13.5-1.1-3.9-1.4-6.9-4.5-8.3-8.3-1.1-2.7-1.1-6.7-1.1-13.5v-22.9c0-6.7,0-10.8,1.1-13.5,1.4-3.9,4.5-6.9,8.3-8.3,2.7-1.1,6.7-1.1,13.5-1.1Z"/>
    </g>
  </g>
  <g class="st21">
    <g class="st10">
      <text class="st9" transform="translate(756 695.3)"><tspan x="0" y="0">RF</tspan></text>
    </g>
  </g>
  <g class="st18">
    <g>
      <path class="st13" d="M789.2,827.9l3.3,12.9-14.1-7.3,10.8-5.6h0ZM764.2,827.9l10.8,5.6-14.1,7.3,3.3-12.9h0ZM765.2,826.6h23.1l-11.5,6-11.5-6h0ZM776.7,816.4l11,8.6h-22.1l11-8.6h0ZM784.7,810.2l3.3,13-10-7.8,6.7-5.2h0ZM768.8,810.2l6.7,5.2-10,7.8,3.3-13h0ZM770.2,809.3h13.1l-6.5,5.1-6.5-5.1h0ZM776.7,799.3l6.6,8.5h-13.1l6.6-8.5ZM780.6,794.3l2.9,11.2-5.8-7.5,2.9-3.7h0ZM772.9,794.3l2.9,3.7-5.8,7.5,2.9-11.2h0ZM774,793.2h5.5l-2.8,3.6-2.8-3.6h0ZM776.7,779.2l3.2,12.4h-6.4l3.2-12.4h0ZM776.7,764.2c-2.3,0-4.2,1.9-4.2,4.2s.7,2.6,1.7,3.4l-18.3,71.2h4.3l16.4-8.5,16.4,8.5h4.3l-18.3-71.2c1-.8,1.7-2,1.7-3.4,0-2.3-1.9-4.2-4.2-4.2h0ZM776.7,752.4c-8.8,0-15.9,7.1-15.9,15.9s2.8,10.3,6.9,13.1l.9-3.4c-2.8-2.3-4.5-5.8-4.5-9.7,0-7,5.7-12.6,12.6-12.6s12.6,5.7,12.6,12.6-1.8,7.4-4.5,9.7l.9,3.4c4.2-2.9,6.9-7.7,6.9-13.1,0-8.8-7.1-15.9-15.9-15.9h0ZM776.7,740.5c-15.3,0-27.8,12.5-27.8,27.8s6.4,20.5,15.7,25l.8-3.2c-7.9-4.1-13.3-12.3-13.3-21.8,0-13.5,11-24.5,24.5-24.5s24.5,11,24.5,24.5-5.4,17.7-13.3,21.8l.8,3.2c9.3-4.5,15.7-14,15.7-25s-12.5-27.8-27.8-27.8h0ZM776.8,728.5c-21.9,0-39.7,17.8-39.7,39.7s9.8,30.4,24.7,36.6l.7-3c-13.6-5.7-22.1-18.9-22.1-33.6s16.3-36.4,36.4-36.4,36.4,16.3,36.4,36.4-8.6,28-22.2,33.7l.7,3c14.9-6.2,24.8-20.6,24.8-36.7s-17.8-39.7-39.7-39.7h0Z"/>
      <polyline class="st7" points="776.8 916.3 776.8 914.3 776.8 879.1 776.8 877.1"/>
      <polygon points="785.2 879.1 776.8 862.3 768.4 879.1 785.2 879.1"/>
      <polygon points="768.4 914.3 776.8 931.1 785.2 914.3 768.4 914.3"/>
      <path class="st13" d="M685.6,505.6h182.4c6.7,0,10.8,0,13.5,1.1,3.9,1.4,6.9,4.5,8.3,8.3,1.1,2.7,1.1,6.7,1.1,13.5v22.9c0,6.7,0,10.8-1.1,13.5-1.4,3.9-4.5,6.9-8.3,8.3-2.7,1.1-6.7,1.1-13.5,1.1h-182.4c-6.7,0-10.8,0-13.5-1.1-3.9-1.4-6.9-4.5-8.3-8.3-1.1-2.7-1.1-6.7-1.1-13.5v-22.9c0-6.7,0-10.8,1.1-13.5,1.4-3.9,4.5-6.9,8.3-8.4,2.7-1.1,6.7-1.1,13.5-1.1h0Z"/>
    </g>
  </g>
  <g class="st15">
    <g class="st10">
      <text class="st9" transform="translate(744.2 551.7)"><tspan x="0" y="0">PHY</tspan></text>
    </g>
  </g>
  <g class="st19">
    <path class="st13" d="M685.6,436h182.4c6.7,0,10.8,0,13.5,1.1,3.9,1.4,6.9,4.5,8.3,8.4,1.1,2.7,1.1,6.7,1.1,13.5v22.9c0,6.7,0,10.8-1.1,13.5-1.4,3.9-4.5,6.9-8.3,8.4-2.7,1.1-6.7,1.1-13.5,1.1h-182.4c-6.7,0-10.8,0-13.5-1.1-3.9-1.4-6.9-4.5-8.3-8.4-1.1-2.7-1.1-6.7-1.1-13.5v-22.9c0-6.7,0-10.8,1.1-13.5,1.4-3.9,4.5-6.9,8.3-8.4,2.7-1.1,6.7-1.1,13.5-1.1Z"/>
  </g>
  <g class="st16">
    <g class="st10">
      <text class="st9" transform="translate(740.3 482.1)"><tspan x="0" y="0">MAC</tspan></text>
    </g>
  </g>
  <g class="st54">
    <path class="st13" d="M685.6,362.1h182.4c6.7,0,10.8,0,13.5,1.1,3.9,1.4,6.9,4.5,8.3,8.4,1.1,2.7,1.1,6.7,1.1,13.5v22.9c0,6.7,0,10.8-1.1,13.5-1.4,3.9-4.5,6.9-8.3,8.4-2.7,1.1-6.7,1.1-13.5,1.1h-182.4c-6.7,0-10.8,0-13.5-1.1-3.9-1.4-6.9-4.5-8.3-8.4-1.1-2.7-1.1-6.7-1.1-13.5v-22.9c0-6.7,0-10.8,1.1-13.5,1.4-3.9,4.5-6.9,8.3-8.4,2.7-1.1,6.7-1.1,13.5-1.1Z"/>
  </g>
  <g class="st55">
    <g class="st10">
      <text class="st9" transform="translate(744.8 408.2)"><tspan x="0" y="0">RLC</tspan></text>
    </g>
  </g>
  <g class="st56">
    <path class="st13" d="M685.6,288.2h182.4c6.7,0,10.8,0,13.5,1.1,3.9,1.4,6.9,4.5,8.3,8.4,1.1,2.7,1.1,6.7,1.1,13.5v22.9c0,6.7,0,10.8-1.1,13.5-1.4,3.9-4.5,6.9-8.3,8.4-2.7,1.1-6.7,1.1-13.5,1.1h-182.4c-6.7,0-10.8,0-13.5-1.1-3.9-1.4-6.9-4.5-8.3-8.4-1.1-2.7-1.1-6.7-1.1-13.5v-22.9c0-6.7,0-10.8,1.1-13.5,1.4-3.9,4.5-6.9,8.3-8.4,2.7-1.1,6.7-1.1,13.5-1.1Z"/>
  </g>
  <g class="st57">
    <g class="st10">
      <text class="st9" transform="translate(732.3 334.3)"><tspan x="0" y="0">PDCP</tspan></text>
    </g>
  </g>
  <g class="st58">
    <path class="st13" d="M821.3,214.3h50c6.7,0,10.8,0,13.5,1.1,3.9,1.4,6.9,4.5,8.3,8.4,1.1,2.7,1.1,6.7,1.1,13.5v22.9c0,6.7,0,10.8-1.1,13.5-1.4,3.9-4.5,6.9-8.3,8.4-2.7,1.1-6.7,1.1-13.5,1.1h-50c-6.7,0-10.8,0-13.5-1.1-3.9-1.4-6.9-4.5-8.3-8.4-1.1-2.7-1.1-6.7-1.1-13.5v-22.9c0-6.7,0-10.8,1.1-13.5,1.4-3.9,4.5-6.9,8.3-8.4,2.7-1.1,6.7-1.1,13.5-1.1h0Z"/>
  </g>
  <g class="st59">
    <g class="st10">
      <text class="st9" transform="translate(812.3 259.9)"><tspan x="0" y="0">RRC</tspan></text>
    </g>
  </g>
  <g class="st52">
    <path class="st13" d="M685.6,101.7h182.4c6.7,0,10.8,0,13.5,1.1,3.9,1.4,6.9,4.5,8.3,8.3,1.1,2.7,1.1,6.7,1.1,13.5v22.9c0,6.7,0,10.8-1.1,13.5-1.4,3.9-4.5,6.9-8.3,8.4-2.7,1.1-6.7,1.1-13.5,1.1h-182.4c-6.7,0-10.8,0-13.5-1.1-3.9-1.4-6.9-4.5-8.3-8.4-1.1-2.7-1.1-6.7-1.1-13.5v-22.9c0-6.7,0-10.8,1.1-13.5,1.4-3.9,4.5-6.9,8.3-8.3,2.7-1.1,6.7-1.1,13.5-1.1Z"/>
  </g>
  <g class="st50">
    <g class="st10">
      <text class="st9" transform="translate(744.2 147.8)"><tspan x="0" y="0">5GC</tspan></text>
    </g>
  </g>
  <g class="st53">
    <path class="st13" d="M695.8,210.9h67.2c6.7,0,10.8,0,13.5,1.1,3.9,1.4,6.9,4.5,8.3,8.4,1.1,2.7,1.1,6.7,1.1,13.5v22.9c0,6.7,0,10.8-1.1,13.5-1.4,3.9-4.5,6.9-8.3,8.4-2.7,1.1-6.7,1.1-13.5,1.1h-67.2c-6.7,0-10.8,0-13.5-1.1-3.9-1.4-6.9-4.5-8.3-8.4-1.1-2.7-1.1-6.7-1.1-13.5v-22.9c0-6.7,0-10.8,1.1-13.5,1.4-3.9,4.5-6.9,8.3-8.4,2.7-1.1,6.7-1.1,13.5-1.1Z"/>
  </g>
  <g class="st51">
    <g class="st10">
      <text class="st9" transform="translate(686.1 256.6)"><tspan x="0" y="0">SDAP</tspan></text>
    </g>
  </g>
  <g class="st46">
    <g>
      <g class="st10">
        <text class="st11" transform="translate(612.3 58.7)"><tspan x="0" y="0">5G/NR - Split 8</tspan></text>
      </g>
      <path class="st13" d="M1243.3,972.3h50.4v89.4h-50.4v-89.4ZM1264,963.6h9c.8,0,1.4.6,1.4,1.4s-.6,1.4-1.4,1.4h-9c-.8,0-1.4-.6-1.4-1.4s.6-1.4,1.4-1.4ZM1244.9,956.1c-3.1,0-5.6,2.5-5.6,5.6v109c0,3.1,2.5,5.6,5.6,5.6h47.2c3.1,0,5.6-2.5,5.6-5.6v-109c0-3.1-2.5-5.6-5.6-5.6h-47.2Z"/>
      <path class="st13" d="M1177.3,654.7h182.4c6.7,0,10.8,0,13.5,1.1,3.9,1.4,6.9,4.5,8.3,8.3,1.1,2.7,1.1,6.7,1.1,13.5v22.9c0,6.7,0,10.8-1.1,13.5-1.4,3.9-4.5,6.9-8.3,8.3-2.7,1.1-6.7,1.1-13.5,1.1h-182.4c-6.7,0-10.8,0-13.5-1.1-3.9-1.4-6.9-4.5-8.3-8.3-1.1-2.7-1.1-6.7-1.1-13.5v-22.9c0-6.7,0-10.8,1.1-13.5,1.4-3.9,4.5-6.9,8.3-8.3,2.7-1.1,6.7-1.1,13.5-1.1Z"/>
    </g>
  </g>
  <g class="st40">
    <g class="st10">
      <text class="st9" transform="translate(1247.8 700.8)"><tspan x="0" y="0">RF</tspan></text>
    </g>
  </g>
  <g class="st41">
    <g>
      <path class="st13" d="M1280.9,833.4l3.3,12.9-14.1-7.3,10.8-5.6h0ZM1255.9,833.4l10.8,5.6-14.1,7.3,3.3-12.9h0ZM1256.9,832.2h23.1l-11.5,6-11.5-6h0ZM1268.4,822l11,8.6h-22.1l11-8.6h0ZM1276.4,815.8l3.3,13-10-7.8,6.7-5.2h0ZM1260.5,815.8l6.7,5.2-10,7.8,3.3-13h0ZM1261.9,814.9h13.1l-6.5,5.1-6.5-5.1h0ZM1268.4,804.8l6.6,8.5h-13.1l6.6-8.5h0ZM1272.3,799.8l2.9,11.2-5.8-7.5,2.9-3.7h0ZM1264.6,799.8l2.9,3.7-5.8,7.5,2.9-11.2h0ZM1265.7,798.7h5.5l-2.8,3.6-2.8-3.6h0ZM1268.4,784.7l3.2,12.4h-6.4l3.2-12.4h0ZM1268.4,769.7c-2.3,0-4.2,1.9-4.2,4.2s.7,2.6,1.7,3.4l-18.3,71.2h4.3l16.4-8.5,16.4,8.5h4.3l-18.3-71.2c1.1-.8,1.7-2,1.7-3.4,0-2.3-1.9-4.2-4.2-4.2h0ZM1268.4,758c-8.8,0-15.9,7.1-15.9,15.9s2.8,10.3,6.9,13.1l.9-3.4c-2.8-2.3-4.5-5.8-4.5-9.7,0-7,5.7-12.6,12.6-12.6s12.7,5.7,12.7,12.6-1.8,7.4-4.5,9.7l.9,3.4c4.2-2.9,6.9-7.7,6.9-13.1,0-8.8-7.1-15.9-15.9-15.9h0ZM1268.4,746.1c-15.3,0-27.8,12.5-27.8,27.8s6.4,20.5,15.7,25l.8-3.2c-7.9-4.1-13.3-12.3-13.3-21.8,0-13.5,11-24.5,24.5-24.5s24.5,11,24.5,24.5-5.4,17.7-13.3,21.8l.8,3.2c9.3-4.5,15.7-14,15.7-25s-12.5-27.8-27.8-27.8h0ZM1268.5,734.1c-21.9,0-39.7,17.8-39.7,39.7s9.8,30.4,24.7,36.6l.7-3c-13.6-5.7-22.1-18.9-22.1-33.6s16.3-36.4,36.4-36.4,36.4,16.3,36.4,36.4-8.6,28-22.2,33.7l.7,3c14.9-6.2,24.8-20.6,24.8-36.7s-17.8-39.7-39.7-39.7h0Z"/>
      <polyline class="st7" points="1268.5 921.8 1268.5 919.8 1268.5 884.6 1268.5 882.6"/>
      <polygon points="1276.9 884.6 1268.5 867.8 1260.1 884.6 1276.9 884.6"/>
      <polygon points="1260.1 919.8 1268.5 936.6 1276.9 919.8 1260.1 919.8"/>
      <path class="st13" d="M1177.3,575.3h182.4c6.7,0,10.8,0,13.5,1.1,3.9,1.4,6.9,4.5,8.3,8.3,1.1,2.7,1.1,6.7,1.1,13.5v22.9c0,6.7,0,10.8-1.1,13.5-1.4,3.9-4.5,6.9-8.3,8.3-2.7,1.1-6.7,1.1-13.5,1.1h-182.4c-6.7,0-10.8,0-13.5-1.1-3.9-1.4-6.9-4.5-8.3-8.3-1.1-2.7-1.1-6.7-1.1-13.5v-22.9c0-6.7,0-10.8,1.1-13.5,1.4-3.9,4.5-6.9,8.3-8.3,2.7-1.1,6.7-1.1,13.5-1.1Z"/>
    </g>
  </g>
  <g class="st42">
    <g class="st10">
      <text class="st9" transform="translate(1235.9 621.5)"><tspan x="0" y="0">PHY</tspan></text>
    </g>
  </g>
  <g class="st43">
    <path class="st13" d="M1177.3,505.7h182.4c6.7,0,10.8,0,13.5,1.1,3.9,1.4,6.9,4.5,8.3,8.4,1.1,2.7,1.1,6.7,1.1,13.5v22.9c0,6.7,0,10.8-1.1,13.5-1.4,3.9-4.5,6.9-8.3,8.3-2.7,1.1-6.7,1.1-13.5,1.1h-182.4c-6.7,0-10.8,0-13.5-1.1-3.9-1.4-6.9-4.5-8.3-8.3-1.1-2.7-1.1-6.7-1.1-13.5v-22.9c0-6.7,0-10.8,1.1-13.5,1.4-3.9,4.5-6.9,8.3-8.4,2.7-1.1,6.7-1.1,13.5-1.1Z"/>
  </g>
  <g class="st44">
    <g class="st10">
      <text class="st9" transform="translate(1232.1 551.8)"><tspan x="0" y="0">MAC</tspan></text>
    </g>
  </g>
  <g class="st47">
    <path class="st13" d="M1177.3,431.8h182.4c6.7,0,10.8,0,13.5,1.1,3.9,1.4,6.9,4.5,8.3,8.4,1.1,2.7,1.1,6.7,1.1,13.5v22.9c0,6.7,0,10.8-1.1,13.5-1.4,3.9-4.5,6.9-8.3,8.4-2.7,1.1-6.7,1.1-13.5,1.1h-182.4c-6.7,0-10.8,0-13.5-1.1-3.9-1.4-6.9-4.5-8.3-8.4-1.1-2.7-1.1-6.7-1.1-13.5v-22.9c0-6.7,0-10.8,1.1-13.5,1.4-3.9,4.5-6.9,8.3-8.4,2.7-1.1,6.7-1.1,13.5-1.1Z"/>
  </g>
  <g class="st48">
    <g class="st10">
      <text class="st9" transform="translate(1236.5 477.9)"><tspan x="0" y="0">RLC</tspan></text>
    </g>
  </g>
  <g class="st49">
    <path class="st13" d="M1177.3,293.7h182.4c6.7,0,10.8,0,13.5,1.1,3.9,1.4,6.9,4.5,8.3,8.4,1.1,2.7,1.1,6.7,1.1,13.5v22.9c0,6.7,0,10.8-1.1,13.5-1.4,3.9-4.5,6.9-8.3,8.4-2.7,1.1-6.7,1.1-13.5,1.1h-182.4c-6.7,0-10.8,0-13.5-1.1-3.9-1.4-6.9-4.5-8.3-8.4-1.1-2.7-1.1-6.7-1.1-13.5v-22.9c0-6.7,0-10.8,1.1-13.5,1.4-3.9,4.5-6.9,8.3-8.4,2.7-1.1,6.7-1.1,13.5-1.1Z"/>
  </g>
  <g class="st45">
    <g class="st10">
      <text class="st9" transform="translate(1224.1 339.9)"><tspan x="0" y="0">PDCP</tspan></text>
    </g>
  </g>
  <g class="st66">
    <path class="st13" d="M1313,219.8h50c6.7,0,10.8,0,13.5,1.1,3.9,1.4,6.9,4.5,8.3,8.4,1.1,2.7,1.1,6.7,1.1,13.5v22.9c0,6.7,0,10.8-1.1,13.5-1.4,3.9-4.5,6.9-8.3,8.4-2.7,1.1-6.7,1.1-13.5,1.1h-50c-6.7,0-10.8,0-13.5-1.1-3.9-1.4-6.9-4.5-8.3-8.4-1.1-2.7-1.1-6.7-1.1-13.5v-22.9c0-6.7,0-10.8,1.1-13.5,1.4-3.9,4.5-6.9,8.3-8.4,2.7-1.1,6.7-1.1,13.5-1.1Z"/>
  </g>
  <g class="st60">
    <g class="st10">
      <text class="st9" transform="translate(1304 265.5)"><tspan x="0" y="0">RRC</tspan></text>
    </g>
  </g>
  <g class="st61">
    <path class="st13" d="M1177.3,107.3h182.4c6.7,0,10.8,0,13.5,1.1,3.9,1.4,6.9,4.5,8.3,8.3,1.1,2.7,1.1,6.7,1.1,13.5v22.9c0,6.7,0,10.8-1.1,13.5-1.4,3.9-4.5,6.9-8.3,8.4-2.7,1.1-6.7,1.1-13.5,1.1h-182.4c-6.7,0-10.8,0-13.5-1.1-3.9-1.4-6.9-4.5-8.3-8.4-1.1-2.7-1.1-6.7-1.1-13.5v-22.9c0-6.7,0-10.8,1.1-13.5,1.4-3.9,4.5-6.9,8.3-8.3,2.7-1.1,6.7-1.1,13.5-1.1Z"/>
  </g>
  <g class="st62">
    <g class="st10">
      <text class="st9" transform="translate(1235.9 153.4)"><tspan x="0" y="0">5GC</tspan></text>
    </g>
  </g>
  <g class="st63">
    <path class="st13" d="M1182.4,219.8h67.2c6.7,0,10.8,0,13.5,1.1,3.9,1.4,6.9,4.5,8.3,8.4,1.1,2.7,1.1,6.7,1.1,13.5v22.9c0,6.7,0,10.8-1.1,13.5-1.4,3.9-4.5,6.9-8.3,8.4-2.7,1.1-6.7,1.1-13.5,1.1h-67.2c-6.7,0-10.8,0-13.5-1.1-3.9-1.4-6.9-4.5-8.3-8.4-1.1-2.7-1.1-6.7-1.1-13.5v-22.9c0-6.7,0-10.8,1.1-13.5,1.4-3.9,4.5-6.9,8.3-8.4,2.7-1.1,6.7-1.1,13.5-1.1Z"/>
  </g>
  <g class="st64">
    <g class="st10">
      <text class="st9" transform="translate(1172.7 265.5)"><tspan x="0" y="0">SDAP</tspan></text>
    </g>
  </g>
  <g class="st67">
    <g>
      <g class="st10">
        <text class="st11" transform="translate(1104 64.3)"><tspan x="0" y="0">5G/NR - Split 2</tspan></text>
      </g>
      <path class="st13" d="M2064,548.1h50.4v89.4h-50.4v-89.4ZM2084.7,539.3h9c.8,0,1.4.6,1.4,1.4s-.6,1.4-1.4,1.4h-9c-.8,0-1.4-.6-1.4-1.4s.6-1.4,1.4-1.4ZM2065.6,531.8c-3.1,0-5.6,2.5-5.6,5.6v109c0,3.1,2.5,5.6,5.6,5.6h47.2c3.1,0,5.6-2.5,5.6-5.6v-109c0-3.1-2.5-5.6-5.6-5.6h-47.2Z"/>
      <path class="st13" d="M1790.7,796.5h182.4c6.7,0,10.8,0,13.5,1.1,3.9,1.4,6.9,4.5,8.3,8.3,1.1,2.7,1.1,6.7,1.1,13.5v22.9c0,6.7,0,10.8-1.1,13.5-1.4,3.9-4.5,6.9-8.3,8.3-2.7,1.1-6.7,1.1-13.5,1.1h-182.4c-6.7,0-10.8,0-13.5-1.1-3.9-1.4-6.9-4.5-8.3-8.3-1.1-2.7-1.1-6.7-1.1-13.5v-22.9c0-6.7,0-10.8,1.1-13.5,1.4-3.9,4.5-6.9,8.3-8.3,2.7-1.1,6.7-1.1,13.5-1.1Z"/>
    </g>
  </g>
  <g class="st68">
    <g class="st10">
      <text class="st9" transform="translate(1861.1 842.7)"><tspan x="0" y="0">RF</tspan></text>
    </g>
  </g>
  <g class="st69">
    <g>
      <path class="st13" d="M2101.6,827.9l3.3,12.9-14.1-7.3,10.8-5.6h0ZM2076.6,827.9l10.8,5.6-14.1,7.3,3.3-12.9ZM2077.6,826.6h23.1l-11.5,6-11.5-6h0ZM2089.1,816.4l11,8.6h-22.1l11-8.6ZM2097.1,810.2l3.4,13-10-7.8,6.7-5.2h0ZM2081.1,810.2l6.7,5.2-10,7.8,3.3-13h0ZM2082.6,809.3h13.1l-6.5,5.1-6.5-5.1ZM2089.1,799.3l6.6,8.5h-13.1l6.6-8.5ZM2093,794.3l2.9,11.2-5.8-7.5,2.9-3.7h0ZM2085.2,794.3l2.9,3.7-5.8,7.5,2.9-11.2h0ZM2086.3,793.2h5.5l-2.8,3.6-2.8-3.6h0ZM2089.1,779.2l3.2,12.4h-6.4l3.2-12.4h0ZM2089.1,764.1c-2.3,0-4.1,1.9-4.1,4.2s.7,2.6,1.7,3.4l-18.2,71.2h4.3l16.4-8.5,16.4,8.5h4.3l-18.3-71.2c1.1-.8,1.7-2,1.7-3.4,0-2.3-1.9-4.2-4.1-4.2h0ZM2089.1,752.4c-8.8,0-15.9,7.1-15.9,15.9s2.8,10.3,6.9,13.1l.9-3.4c-2.8-2.3-4.5-5.8-4.5-9.7,0-7,5.7-12.6,12.6-12.6s12.6,5.7,12.6,12.6-1.8,7.4-4.5,9.7l.9,3.4c4.2-2.9,6.9-7.7,6.9-13.1,0-8.8-7.1-15.9-15.9-15.9h0ZM2089.1,740.5c-15.3,0-27.8,12.5-27.8,27.8s6.4,20.5,15.7,25l.8-3.2c-7.9-4.1-13.3-12.3-13.3-21.8,0-13.5,11-24.5,24.5-24.5s24.5,11,24.5,24.5-5.4,17.7-13.3,21.8l.8,3.2c9.3-4.5,15.7-14,15.7-25s-12.5-27.8-27.8-27.8h0ZM2089.2,728.5c-21.9,0-39.7,17.8-39.7,39.7s9.8,30.4,24.7,36.6l.7-3c-13.6-5.7-22.1-18.9-22.1-33.6s16.4-36.4,36.4-36.4,36.4,16.3,36.4,36.4-8.6,28-22.2,33.7l.7,3c14.9-6.2,24.8-20.6,24.8-36.7s-17.8-39.7-39.7-39.7h0Z"/>
      <polyline class="st7" points="2089.2 709.9 2089.2 707.9 2089.2 672.7 2089.2 670.7"/>
      <polygon points="2097.6 672.7 2089.2 655.9 2080.8 672.7 2097.6 672.7"/>
      <polygon points="2080.8 707.9 2089.2 724.7 2097.6 707.9 2080.8 707.9"/>
      <path class="st13" d="M1790.7,717.2h182.4c6.7,0,10.8,0,13.5,1.1,3.9,1.4,6.9,4.5,8.3,8.3,1.1,2.7,1.1,6.7,1.1,13.5v22.9c0,6.7,0,10.8-1.1,13.5-1.4,3.9-4.5,6.9-8.3,8.3-2.7,1.1-6.7,1.1-13.5,1.1h-182.4c-6.7,0-10.8,0-13.5-1.1-3.9-1.4-6.9-4.5-8.3-8.3-1.1-2.7-1.1-6.7-1.1-13.5v-22.9c0-6.7,0-10.8,1.1-13.5,1.4-3.9,4.5-6.9,8.3-8.3,2.7-1.1,6.7-1.1,13.5-1.1Z"/>
    </g>
  </g>
  <g class="st65">
    <g class="st10">
      <text class="st9" transform="translate(1809 763.3)"><tspan x="0" y="0">High-PHY</tspan></text>
    </g>
  </g>
  <g class="st30">
    <path class="st13" d="M1784.6,514.4h182.4c6.7,0,10.8,0,13.5,1.1,3.9,1.4,6.9,4.5,8.3,8.3,1.1,2.7,1.1,6.7,1.1,13.5v22.9c0,6.7,0,10.8-1.1,13.5-1.4,3.9-4.5,6.9-8.3,8.3-2.7,1.1-6.7,1.1-13.5,1.1h-182.4c-6.7,0-10.8,0-13.5-1.1-3.9-1.4-6.9-4.5-8.3-8.3-1.1-2.7-1.1-6.7-1.1-13.5v-22.9c0-6.7,0-10.8,1.1-13.5,1.4-3.9,4.5-6.9,8.3-8.3,2.7-1.1,6.7-1.1,13.5-1.1Z"/>
  </g>
  <g class="st37">
    <g class="st10">
      <text class="st9" transform="translate(1839.3 560.6)"><tspan x="0" y="0">MAC</tspan></text>
    </g>
  </g>
  <g class="st32">
    <path class="st13" d="M1784.6,440.5h182.4c6.7,0,10.8,0,13.5,1.1,3.9,1.4,6.9,4.5,8.3,8.4,1.1,2.7,1.1,6.7,1.1,13.5v22.9c0,6.7,0,10.8-1.1,13.5-1.4,3.9-4.5,6.9-8.3,8.4-2.7,1.1-6.7,1.1-13.5,1.1h-182.4c-6.7,0-10.8,0-13.5-1.1-3.9-1.4-6.9-4.5-8.3-8.4-1.1-2.7-1.1-6.7-1.1-13.5v-22.9c0-6.7,0-10.8,1.1-13.5,1.4-3.9,4.5-6.9,8.3-8.4,2.7-1.1,6.7-1.1,13.5-1.1Z"/>
  </g>
  <g class="st36">
    <g class="st10">
      <text class="st9" transform="translate(1843.8 486.6)"><tspan x="0" y="0">RLC</tspan></text>
    </g>
  </g>
  <g class="st34">
    <path class="st13" d="M1784.6,287h182.4c6.7,0,10.8,0,13.5,1.1,3.9,1.4,6.9,4.5,8.3,8.4,1.1,2.7,1.1,6.7,1.1,13.5v22.9c0,6.7,0,10.8-1.1,13.5-1.4,3.9-4.5,6.9-8.3,8.4-2.7,1.1-6.7,1.1-13.5,1.1h-182.4c-6.7,0-10.8,0-13.5-1.1-3.9-1.4-6.9-4.5-8.3-8.4-1.1-2.7-1.1-6.7-1.1-13.5v-22.9c0-6.7,0-10.8,1.1-13.5,1.4-3.9,4.5-6.9,8.3-8.4,2.7-1.1,6.7-1.1,13.5-1.1Z"/>
  </g>
  <g class="st31">
    <g class="st10">
      <text class="st9" transform="translate(1831.3 333.1)"><tspan x="0" y="0">PDCP</tspan></text>
    </g>
  </g>
  <g class="st35">
    <path class="st13" d="M1920.3,213.1h50c6.7,0,10.8,0,13.5,1.1,3.9,1.4,6.9,4.5,8.3,8.4,1.1,2.7,1.1,6.7,1.1,13.5v22.9c0,6.7,0,10.8-1.1,13.5-1.4,3.9-4.5,6.9-8.3,8.4-2.7,1.1-6.7,1.1-13.5,1.1h-50c-6.7,0-10.8,0-13.5-1.1-3.9-1.4-6.9-4.5-8.3-8.4-1.1-2.7-1.1-6.7-1.1-13.5v-22.9c0-6.7,0-10.8,1.1-13.5,1.4-3.9,4.5-6.9,8.3-8.4,2.7-1.1,6.7-1.1,13.5-1.1h0Z"/>
  </g>
  <g class="st33">
    <g class="st10">
      <text class="st9" transform="translate(1911.3 258.7)"><tspan x="0" y="0">RRC</tspan></text>
    </g>
  </g>
  <g class="st38">
    <path class="st13" d="M1784.6,100.5h182.4c6.7,0,10.8,0,13.5,1.1,3.9,1.4,6.9,4.5,8.3,8.3,1.1,2.7,1.1,6.7,1.1,13.5v22.9c0,6.7,0,10.8-1.1,13.5-1.4,3.9-4.5,6.9-8.3,8.4-2.7,1.1-6.7,1.1-13.5,1.1h-182.4c-6.7,0-10.8,0-13.5-1.1-3.9-1.4-6.9-4.5-8.3-8.4-1.1-2.7-1.1-6.7-1.1-13.5v-22.9c0-6.7,0-10.8,1.1-13.5,1.4-3.9,4.5-6.9,8.3-8.3,2.7-1.1,6.7-1.1,13.5-1.1Z"/>
  </g>
  <g class="st39">
    <g class="st10">
      <text class="st9" transform="translate(1843.2 146.6)"><tspan x="0" y="0">5GC</tspan></text>
    </g>
  </g>
  <g class="st26">
    <path class="st13" d="M1783.3,210.9h67.2c6.7,0,10.8,0,13.5,1.1,3.9,1.4,6.9,4.5,8.3,8.4,1.1,2.7,1.1,6.7,1.1,13.5v22.9c0,6.7,0,10.8-1.1,13.5-1.4,3.9-4.5,6.9-8.3,8.4-2.7,1.1-6.7,1.1-13.5,1.1h-67.2c-6.7,0-10.8,0-13.5-1.1-3.9-1.4-6.9-4.5-8.3-8.4-1.1-2.7-1.1-6.7-1.1-13.5v-22.9c0-6.7,0-10.8,1.1-13.5,1.4-3.9,4.5-6.9,8.3-8.4,2.7-1.1,6.7-1.1,13.5-1.1Z"/>
  </g>
  <g class="st25">
    <g class="st10">
      <text class="st9" transform="translate(1773.6 256.6)"><tspan x="0" y="0">SDAP</tspan></text>
    </g>
  </g>
  <g class="st27">
    <g>
      <g class="st10">
        <text class="st8" transform="translate(1705.7 44.4)"><tspan x="0" y="0">5G/NR - Split 7.x (Fronthaul)</tspan><tspan x="0" y="36" xml:space="preserve"> &amp; Split 2 (Midhaul)</tspan></text>
      </g>
      <g class="st10">
        <text class="st11" transform="translate(1650.1 298.5)"><tspan x="0" y="0">CU</tspan></text>
      </g>
      <g class="st10">
        <text class="st11" transform="translate(1650.1 557.6)"><tspan x="0" y="0">DU</tspan></text>
      </g>
      <g class="st10">
        <text class="st11" transform="translate(1641.8 815.5)"><tspan x="0" y="0">RU</tspan></text>
      </g>
      <path class="st13" d="M1784.6,591.7h182.4c6.7,0,10.8,0,13.5,1.1,3.9,1.4,6.9,4.5,8.3,8.3,1.1,2.7,1.1,6.7,1.1,13.5v22.9c0,6.7,0,10.8-1.1,13.5-1.4,3.9-4.5,6.9-8.3,8.3-2.7,1.1-6.7,1.1-13.5,1.1h-182.4c-6.7,0-10.8,0-13.5-1.1-3.9-1.4-6.9-4.5-8.3-8.3-1.1-2.7-1.1-6.7-1.1-13.5v-22.9c0-6.7,0-10.8,1.1-13.5,1.4-3.9,4.5-6.9,8.3-8.3,2.7-1.1,6.7-1.1,13.5-1.1Z"/>
    </g>
  </g>
  <g class="st29">
    <g class="st10">
      <text class="st9" transform="translate(1802.9 637.8)"><tspan x="0" y="0">High-PHY</tspan></text>
    </g>
  </g>
  <g class="st28">
    <g>
      <g class="st10">
        <text class="st11" transform="translate(1047.3 298.5)"><tspan x="0" y="0">CU</tspan></text>
      </g>
      <g class="st10">
        <text class="st11" transform="translate(1117.6 639.9) rotate(-90)"><tspan x="0" y="0">DU/RU</tspan></text>
      </g>
      <g class="st10">
        <text class="st11" transform="translate(638.8 473) rotate(-90)"><tspan x="0" y="0">DU/RU</tspan></text>
      </g>
      <g class="st10">
        <text class="st11" transform="translate(142.3 485.2) rotate(-90)"><tspan x="0" y="0">BBU</tspan></text>
      </g>
      <g class="st10">
        <text class="st11" transform="translate(89.5 701.1)"><tspan x="0" y="0">RU</tspan></text>
      </g>
      <g class="st10">
        <text class="st11" transform="translate(559.4 706.7)"><tspan x="0" y="0">RU</tspan></text>
      </g>
      <line class="st3" x1="225.8" y1="281.8" x2="225.8" y2="172.3"/>
      <line class="st3" x1="358.6" y1="212.4" x2="358.6" y2="172.3"/>
      <g class="st10">
        <text class="st11" transform="translate(259.7 210)"><tspan x="0" y="0">S1</tspan></text>
      </g>
      <line class="st3" x1="724.9" y1="212.4" x2="724.9" y2="162.8"/>
      <line class="st3" x1="847.3" y1="213.4" x2="847.3" y2="173.3"/>
      <g class="st10">
        <text class="st12" transform="translate(756 207.3)"><tspan x="0" y="0">NG</tspan></text>
      </g>
      <line class="st3" x1="1213.5" y1="224.2" x2="1213.5" y2="174.6"/>
      <line class="st3" x1="1336" y1="217.8" x2="1336" y2="177.7"/>
      <g class="st10">
        <text class="st12" transform="translate(1244.7 211.7)"><tspan x="0" y="0">NG</tspan></text>
      </g>
      <line class="st3" x1="1824.8" y1="213.5" x2="1824.8" y2="163.9"/>
      <line class="st3" x1="1947.2" y1="214.5" x2="1947.2" y2="174.4"/>
      <g class="st10">
        <text class="st12" transform="translate(1855.8 208.4)"><tspan x="0" y="0">NG</tspan></text>
      </g>
      <line class="st5" x1="289.1" y1="649.3" x2="289.1" y2="580.5"/>
      <line class="st5" x1="772.8" y1="646.2" x2="772.8" y2="577.4"/>
      <line class="st5" x1="1875.8" y1="718.3" x2="1875.8" y2="662.2"/>
      <line class="st2" x1="1875.8" y1="440.7" x2="1875.8" y2="352.4"/>
      <line class="st2" x1="1268.5" y1="443.9" x2="1268.5" y2="355.6"/>
      <g class="st10">
        <text class="st12" transform="translate(1285.8 410)"><tspan x="0" y="0">F1</tspan></text>
      </g>
      <g class="st10">
        <text class="st12" transform="translate(1888 411.4)"><tspan x="0" y="0">F1</tspan></text>
      </g>
      <line class="st1" x1="1706.2" y1="930.9" x2="1647.8" y2="930.9"/>
      <g class="st10">
        <text class="st11" transform="translate(1727.2 945.8)"><tspan x="0" y="0">F</tspan></text>
        <text class="st11" transform="translate(1754.7 945.8)"><tspan x="0" y="0">r</tspan></text>
        <text class="st11" transform="translate(1769.9 945.8)"><tspan x="0" y="0">onthaul</tspan></text>
      </g>
      <line class="st4" x1="1709.6" y1="984.6" x2="1651.2" y2="984.6"/>
      <g class="st10">
        <text class="st11" transform="translate(1730.5 999.5)"><tspan x="0" y="0">Midhaul</tspan></text>
      </g>
      <line class="st6" x1="1708.4" y1="1040.4" x2="1650.1" y2="1040.4"/>
      <g class="st10">
        <text class="st11" transform="translate(1729.4 1055.3)"><tspan x="0" y="0">Midhaul</tspan></text>
      </g>
    </g>
  </g>
</svg>