<?xml version="1.0" encoding="UTF-8"?>
<svg id="Ebene_1" xmlns="http://www.w3.org/2000/svg" version="1.1" viewBox="0 0 1284.4 399.2">
  <!-- Generator: Adobe Illustrator 29.4.0, SVG Export Plug-In . SVG Version: 2.1.0 Build 152)  -->
  <defs>
    <style>
      .st0 {
        fill: #88847e;
      }

      .st1 {
        stroke-width: .7px;
      }

      .st1, .st2, .st3 {
        fill: none;
        stroke: #020203;
      }

      .st4 {
        fill: #4493c3;
      }

      .st5 {
        fill: #fff;
      }

      .st2 {
        stroke-width: 3px;
      }

      .st2, .st3 {
        stroke-dasharray: 3.7 2.9 1.5 3.7 2.9 1.5;
      }

      .st3 {
        stroke-width: 4px;
      }
    </style>
  </defs>
  <rect class="st4" x="3.5" y="57.5" width="566.2" height="317.1"/>
  <rect class="st3" x="3.5" y="57.5" width="566.2" height="317.1"/>
  <rect class="st0" x="71.4" y="159.4" width="419" height="79.3"/>
  <rect class="st1" x="71.4" y="159.4" width="419" height="79.3"/>
  <rect class="st0" x="71.4" y="238.6" width="419" height="79.3"/>
  <rect class="st1" x="71.4" y="238.6" width="419" height="79.3"/>
  <path class="st5" d="M392.5,102.3l4-16.3c.5-2.1,1-2.1,2.9-2.1h5.1c4.2,0,7.2,1.5,7.2,5.3s-.9,7-3.2,9.6c-2.1,2.3-5.1,3.4-8.6,3.4h-7.5ZM377.4,121.9c0,.7.7.7.8.7,2.3,0,4.7-.2,7-.2s4.8.2,7.1.2,1.1,0,1.1-1.1-.4-.8-1.6-.8c-3.4,0-3.4-.5-3.4-1s0-.4.2-1.2l3.6-14.7h9.2c7.5,0,15.5-6.1,15.5-13s-4-8.8-10.5-8.8h-17.8c-1,0-1.6,0-1.6,1.1s.5.7,1.6.7c1.8,0,3.4,0,3.4,1s0,.3-.2,1.1l-8,32.3c-.5,2-.8,2.5-4.9,2.5s-1.6,0-1.6,1.1ZM340,108c0,9.7,6.4,15.9,14.6,15.9s18.1-12.7,18.1-15.6-.6-.6-.9-.6-.8,0-1,.5c-3,10-10.5,13.9-15.4,13.9s-10.2-3.3-10.2-11.8,1.5-13,6.2-19.6c4-5.5,9.5-8.2,14.1-8.2s8.4,5.7,8.4,10.9-.3,3.4-.3,3.6c0,.6.6.6.9.6.7,0,.8,0,1.1-1.1l3.6-14.4c0-.2.1-.6.1-.8s0-.6-.7-.6-.4,0-1,.7l-3.7,4.4c-2.6-4.1-6-5.1-9-5.1-12.2,0-25,13.4-25,27.3ZM314.9,110.6c0,.8.6.8,1.3.8h11.9c.3,0,.7,0,.9-.2.7-.4.8-2.3.8-2.3,0-.8-.7-.8-1.3-.8h-11.8c-.3,0-.5,0-.8.1-.8.3-1,2.4-1,2.4ZM277.7,112.7c0,7.1,5,11.2,10.6,11.2s14.1-7.7,15.8-14.3l5.4-21.8c1-3.8,4.3-4,6-4,.2,0,.9,0,.9-1.1s-.2-.8-.8-.8c-1.8,0-3.7.2-5.6.2s-3.9-.2-5.7-.2-1.1,0-1.1,1.1.5.7,1.1.7c3.1.1,3.6,1.3,3.6,2.6s-.1,1-.2,1.4l-5.3,21.2c-1.9,7.7-8.2,13.1-13.8,13.1s-6.4-2-6.4-7.4.3-3.2.6-4.5l5.9-23.9c.5-1.9,1-2.4,4.7-2.4s1.8,0,1.8-1.1-.4-.8-.8-.8c-2.3,0-4.7.2-7,.2s-4.8-.2-7.1-.2-1.1,0-1.1,1.1.5.7,1.6.7c1.8,0,3.4,0,3.4,1s0,.3-.2,1.1l-5.7,22.9c-.5,1.9-.5,3.2-.5,3.8ZM232.1,108c0,9.7,6.4,15.9,14.6,15.9s18.1-12.7,18.1-15.6-.6-.6-.9-.6-.8,0-1,.5c-3,10-10.5,13.9-15.4,13.9s-10.2-3.3-10.2-11.8,1.5-13,6.2-19.6c4-5.5,9.5-8.2,14.1-8.2s8.4,5.7,8.4,10.9-.3,3.4-.3,3.6c0,.6.6.6.9.6.7,0,.8,0,1.1-1.1l3.6-14.4c0-.2.1-.6.1-.8s0-.6-.7-.6-.4,0-1,.7l-3.7,4.4c-2.6-4.1-6-5.1-9-5.1-12.2,0-25,13.4-25,27.3ZM207,110.6c0,.8.6.8,1.3.8h11.9c.3,0,.7,0,.9-.2.7-.4.8-2.3.8-2.3,0-.8-.7-.8-1.3-.8h-11.8c-.3,0-.5,0-.8.1-.8.3-1,2.4-1,2.4ZM170.5,110.4c0-2.7.8-11.1,5-18.3,3.2-5.6,8.6-9.9,13.7-9.9s8.9,3.6,8.9,11.5-2.1,13.1-5.3,18.5c-3.9,6.6-9.2,10.1-13.6,10.1s-8.7-4.9-8.7-11.9ZM165.1,108.6c0,9,5.6,15.3,13.7,15.3,11.9,0,24.4-13.4,24.4-27.7s-6.1-15.5-13.6-15.5c-12.2,0-24.5,14.1-24.5,27.9Z"/>
  <path class="st5" d="M307.8,198.5c0,12.3,9.6,21.6,20.7,21.6s15.5-8.3,15.5-15.2,0-1-.8-1-.7.4-.7,1c-.5,8.5-6.8,13.4-13.3,13.4s-15.3-2-15.3-19.7,11.6-19.8,15.2-19.8c6.5,0,11.8,5.4,13,14.1.1.8.1,1,1,1s1-.2,1-1.4v-14.1c0-1,0-1.4-.7-1.4s-.5,0-1,.7l-3,4.4c-2.2-2.1-5.2-5.1-10.9-5.1-11.1,0-20.7,9.5-20.7,21.6ZM275.7,197.9v-15.4c0-1.4,0-2.1,1.3-2.3.6-.1,2.3-.1,3.5-.1,5.4,0,12,.2,12,8.9s-1.4,8.9-10.2,8.9h-6.6ZM264.5,218.8c2.1-.2,6.4-.2,8.7-.2s6.5,0,8.7.2v-1.8h-1.4c-4.6,0-4.7-.7-4.7-2.8v-15h6.8c1,0,3.4,0,5.5,2,2.3,2.1,2.3,4,2.3,8s0,6.2,2.4,8.5c2.4,2.1,5.7,2.5,7.5,2.5,4.6,0,5.6-4.9,5.6-6.5s0-1-.8-1-.7.5-.7,1c-.4,4.2-2.4,5.3-3.9,5.3-2.9,0-3.4-3-4.2-8.6l-.8-4.8c-1.1-3.8-4-5.8-7.3-6.9,5.8-1.4,10.4-5.1,10.4-9.7s-6.8-10.7-15.5-10.7h-18.7v1.8h1.4c4.6,0,4.7.7,4.7,2.8v31.3c0,2.1-.1,2.8-4.7,2.8h-1.4v1.8ZM231.9,197.9v-15.4c0-1.4,0-2.1,1.3-2.3.6-.1,2.3-.1,3.5-.1,5.4,0,12,.2,12,8.9s-1.4,8.9-10.2,8.9h-6.6ZM220.7,218.8c2.1-.2,6.4-.2,8.7-.2s6.5,0,8.7.2v-1.8h-1.4c-4.6,0-4.7-.7-4.7-2.8v-15h6.8c1,0,3.4,0,5.5,2,2.3,2.1,2.3,4,2.3,8s0,6.2,2.4,8.5c2.4,2.1,5.7,2.5,7.5,2.5,4.6,0,5.6-4.9,5.6-6.5s0-1-.8-1-.7.5-.7,1c-.4,4.2-2.4,5.3-3.9,5.3-2.9,0-3.4-3-4.2-8.6l-.8-4.8c-1.1-3.8-4-5.8-7.3-6.9,5.8-1.4,10.4-5.1,10.4-9.7s-6.8-10.7-15.5-10.7h-18.7v1.8h1.4c4.6,0,4.7.7,4.7,2.8v31.3c0,2.1-.1,2.8-4.7,2.8h-1.4v1.8Z"/>
  <path class="st5" d="M349.3,277.8v-16.1c0-2,.1-2.4,2.9-2.4h5.3c9.5,0,9.5,6.3,9.5,9.2s0,9.2-9.5,9.2h-8.2ZM338.1,298.1c2.1-.2,6.5-.2,8.7-.2s6.7,0,8.8.2v-1.8h-1.4c-4.6,0-4.7-.7-4.7-2.8v-14.1h10c7.1,0,13.6-4.8,13.6-10.8s-5.9-11.1-14-11.1h-21v1.8h1.4c4.6,0,4.7.7,4.7,2.8v31.3c0,2.1-.1,2.8-4.7,2.8h-1.4v1.8ZM296.4,277.8c0,12.3,9.6,21.6,20.7,21.6s15.5-8.3,15.5-15.2,0-1-.8-1-.7.4-.7,1c-.5,8.5-6.8,13.4-13.3,13.4s-15.3-2-15.3-19.7,11.6-19.8,15.2-19.8c6.5,0,11.8,5.4,13,14.1.1.8.1,1,1,1s1-.2,1-1.4v-14.1c0-1,0-1.4-.7-1.4s-.5,0-1,.7l-3,4.4c-2.2-2.1-5.2-5.1-10.9-5.1-11.1,0-20.7,9.5-20.7,21.6ZM261,293.9v-32.2c0-2,.1-2.4,2.9-2.4h5.9c3.7,0,7.8,1.3,10.8,5.5,2.6,3.5,3.1,8.6,3.1,13.3,0,6.6-1.1,10.2-3.3,13.1-1.2,1.6-4.6,5.1-10.6,5.1h-6c-2.8,0-2.9-.4-2.9-2.4ZM249.8,298.1h21.8c10,0,18.2-8.8,18.2-20s-8-20.6-18.2-20.6h-21.8v1.8h1.4c4.6,0,4.7.7,4.7,2.8v31.3c0,2.1-.1,2.8-4.7,2.8h-1.4v1.8ZM220.6,277.8v-16.1c0-2,.1-2.4,2.9-2.4h5.3c9.5,0,9.5,6.3,9.5,9.2s0,9.2-9.5,9.2h-8.2ZM209.4,298.1c2.1-.2,6.5-.2,8.7-.2s6.7,0,8.8.2v-1.8h-1.4c-4.6,0-4.7-.7-4.7-2.8v-14.1h10c7.1,0,13.6-4.8,13.6-10.8s-5.9-11.1-14-11.1h-21v1.8h1.4c4.6,0,4.7.7,4.7,2.8v31.3c0,2.1-.1,2.8-4.7,2.8h-1.4v1.8Z"/>
  <rect class="st4" x="668.3" y="64.2" width="561.5" height="314.4"/>
  <rect class="st2" x="668.3" y="64.2" width="561.5" height="314.4"/>
  <rect class="st0" x="735.7" y="165.3" width="415.5" height="78.6"/>
  <rect class="st1" x="735.7" y="165.3" width="415.5" height="78.6"/>
  <rect class="st0" x="735.7" y="243.9" width="415.5" height="78.6"/>
  <rect class="st1" x="735.7" y="243.9" width="415.5" height="78.6"/>
  <path class="st5" d="M1055.7,108.6l4-16.2c.5-2.1.9-2.1,2.9-2.1h5.1c4.1,0,7.1,1.5,7.1,5.3s-.9,7-3.1,9.6c-2.1,2.3-5,3.4-8.5,3.4h-7.4ZM1040.7,128.1c0,.7.6.7.8.7,2.2,0,4.7-.2,7-.2s4.8.2,7.1.2,1.1,0,1.1-1.1-.4-.8-1.6-.8c-3.4,0-3.4-.5-3.4-1s0-.4.2-1.2l3.6-14.6h9.1c7.4,0,15.4-6,15.4-12.9s-4-8.7-10.4-8.7h-17.7c-.9,0-1.6,0-1.6,1.1s.5.7,1.6.7c1.8,0,3.4,0,3.4,1s0,.3-.2,1.1l-8,32c-.5,2-.8,2.5-4.8,2.5s-1.6,0-1.6,1.1ZM1005.1,119c0,7.1,5,11.1,10.5,11.1s14-7.7,15.6-14.1l5.4-21.6c.9-3.8,4.2-3.9,6-4,.2,0,.9,0,.9-1.1s-.2-.8-.8-.8c-1.8,0-3.7.2-5.5.2s-3.8-.2-5.7-.2-1.1,0-1.1,1.1.5.7,1.1.7c3.1.1,3.5,1.3,3.5,2.5s-.1.9-.2,1.4l-5.2,21c-1.9,7.6-8.1,13-13.7,13s-6.3-2-6.3-7.4.3-3.2.6-4.5l5.9-23.7c.5-1.9.9-2.4,4.7-2.4s1.8,0,1.8-1.1-.4-.8-.8-.8c-2.2,0-4.7.2-7,.2s-4.8-.2-7.1-.2-1.1,0-1.1,1.1.5.7,1.6.7c1.8,0,3.4,0,3.4,1s0,.3-.2,1.1l-5.7,22.8c-.5,1.9-.5,3.2-.5,3.8ZM977.1,117c0,.8.6.8,1.3.8h11.8c.3,0,.6,0,.9-.2.6-.4.8-2.2.8-2.3,0-.8-.6-.8-1.3-.8h-11.7c-.3,0-.5,0-.8.1-.8.3-1,2.4-1,2.4ZM940.2,119c0,7.1,5,11.1,10.5,11.1s14-7.7,15.6-14.1l5.4-21.6c.9-3.8,4.2-3.9,6-4,.2,0,.9,0,.9-1.1s-.2-.8-.8-.8c-1.8,0-3.7.2-5.5.2s-3.8-.2-5.7-.2-1.1,0-1.1,1.1.5.7,1.1.7c3.1.1,3.5,1.3,3.5,2.5s-.1.9-.2,1.4l-5.2,21c-1.9,7.6-8.1,13-13.7,13s-6.3-2-6.3-7.4.3-3.2.6-4.5l5.9-23.7c.5-1.9.9-2.4,4.7-2.4s1.8,0,1.8-1.1-.4-.8-.8-.8c-2.2,0-4.7.2-7,.2s-4.8-.2-7.1-.2-1.1,0-1.1,1.1.5.7,1.6.7c1.8,0,3.4,0,3.4,1s0,.3-.2,1.1l-5.7,22.8c-.5,1.9-.5,3.2-.5,3.8ZM894.9,114.4c0,9.7,6.3,15.7,14.4,15.7s17.9-12.6,17.9-15.4-.6-.6-.9-.6-.8,0-.9.5c-3,10-10.4,13.7-15.3,13.7s-10.1-3.3-10.1-11.7,1.5-12.9,6.2-19.4c4-5.4,9.4-8.1,14-8.1s8.4,5.7,8.4,10.8-.3,3.4-.3,3.6c0,.6.6.6.9.6.6,0,.8,0,1.1-1.1l3.6-14.3c0-.2.1-.6.1-.8s0-.6-.6-.6-.4,0-.9.6l-3.7,4.4c-2.5-4.1-6-5-8.9-5-12.1,0-24.8,13.3-24.8,27.1ZM870.1,117c0,.8.6.8,1.3.8h11.8c.3,0,.6,0,.9-.2.6-.4.8-2.2.8-2.3,0-.8-.6-.8-1.3-.8h-11.7c-.3,0-.5,0-.8.1-.8.3-1,2.4-1,2.4ZM833.9,116.7c0-2.7.8-11,5-18.2,3.1-5.5,8.5-9.8,13.6-9.8s8.8,3.5,8.8,11.4-2.1,13-5.2,18.4c-3.8,6.5-9.1,10-13.5,10s-8.7-4.8-8.7-11.9ZM828.5,114.9c0,8.9,5.5,15.2,13.6,15.2,11.8,0,24.2-13.3,24.2-27.5s-6-15.4-13.4-15.4c-12.1,0-24.3,14-24.3,27.7Z"/>
  <path class="st5" d="M1003.8,204.1v-15.9c0-1.9.1-2.4,2.9-2.4h5.2c9.4,0,9.4,6.3,9.4,9.1s0,9.1-9.4,9.1h-8.1ZM992.7,224.3c2.1-.2,6.4-.2,8.7-.2s6.7,0,8.7.2v-1.8h-1.4c-4.5,0-4.7-.6-4.7-2.8v-14h10c7.1,0,13.4-4.8,13.4-10.7s-5.8-11-13.9-11h-20.8v1.8h1.4c4.5,0,4.7.6,4.7,2.8v31.1c0,2.1-.1,2.8-4.7,2.8h-1.4v1.8ZM960.1,209l6.6-19.2,6.7,19.2h-13.3ZM948.3,224.3c1.4,0,3.9-.2,6-.2s4.9.1,6.8.2v-1.8c-2.9,0-4.4-1.5-4.4-3s0-.8.1-.9l2.7-7.7h14.6l3.1,9c0,.2.2.6.2.8,0,1.8-3.3,1.8-4.9,1.8v1.8c2.1-.2,6.3-.2,8.5-.2s5.2,0,7.7.2v-1.8h-1.1c-3.5,0-4.4-.4-5-2.4l-12.7-36.8c-.3-.8-.4-1.2-1.4-1.2s-1.1.4-1.4,1.2l-12.2,35.3c-1.1,3-3.4,3.9-6.6,3.9v1.8ZM916.3,220.1v-31.9c0-1.9.1-2.4,2.9-2.4h5.9c3.7,0,7.7,1.3,10.7,5.5,2.5,3.5,3.1,8.5,3.1,13.1,0,6.5-1.1,10.1-3.2,13-1.2,1.6-4.5,5-10.5,5h-6c-2.8,0-2.9-.4-2.9-2.4ZM905.1,224.3h21.6c9.9,0,18-8.7,18-19.8s-8-20.5-18-20.5h-21.6v1.8h1.4c4.5,0,4.7.6,4.7,2.8v31.1c0,2.1-.1,2.8-4.7,2.8h-1.4v1.8ZM873.6,224.1c0,1,0,1.4.6,1.4s.5-.1.9-.8c0,0,.2-.2,2.1-3.4,1.8,2,5.6,4.1,10.8,4.1s11.6-5.8,11.6-12.3-3.9-10.7-8.8-11.9l-7.5-1.8c-3.7-.9-6-4.1-6-7.5s3.2-7.7,7.8-7.7c9.8,0,11.1,9.7,11.5,12.3,0,.4,0,.7.7.7s.8-.3.8-1.4v-11.8c0-1,0-1.4-.6-1.4s-.5,0-.9.8l-2.1,3.4c-1.8-1.7-4.2-4.1-9.4-4.1s-11.5,5.2-11.5,11.4,3.1,9.2,7.7,10.8c.6.2,3.7.9,7.8,1.9,1.6.4,3.4.8,5,3,1.2,1.5,1.8,3.5,1.8,5.4,0,4.2-2.9,8.4-7.9,8.4s-6.2-.3-9.3-3.2c-3.4-3.2-3.6-7-3.7-9.1,0-.6-.5-.6-.7-.6-.8,0-.8.4-.8,1.5v11.8Z"/>
  <path class="st5" d="M1011.2,282.7v-15.9c0-1.9.1-2.4,2.9-2.4h5.2c9.4,0,9.4,6.2,9.4,9.1s0,9.1-9.4,9.1h-8.1ZM1000.1,302.9c2.1-.2,6.4-.2,8.7-.2s6.7,0,8.7.2v-1.8h-1.4c-4.5,0-4.7-.6-4.7-2.8v-14h10c7.1,0,13.4-4.8,13.4-10.7s-5.8-11-13.9-11h-20.8v1.8h1.4c4.5,0,4.7.6,4.7,2.8v31.1c0,2.1-.1,2.8-4.7,2.8h-1.4v1.8ZM958.7,282.7c0,12.2,9.6,21.5,20.5,21.5s15.4-8.2,15.4-15,0-1-.8-1-.6.4-.7.9c-.5,8.4-6.8,13.3-13.2,13.3s-15.2-2-15.2-19.6,11.5-19.6,15.1-19.6c6.4,0,11.7,5.4,12.9,14,.1.8.1,1,.9,1s.9-.2.9-1.4v-14c0-1,0-1.4-.6-1.4s-.5,0-.9.7l-2.9,4.4c-2.2-2.1-5.2-5.1-10.8-5.1-11,0-20.5,9.4-20.5,21.4ZM923.6,298.7v-31.9c0-1.9.1-2.4,2.9-2.4h5.9c3.7,0,7.7,1.3,10.7,5.5,2.5,3.5,3.1,8.5,3.1,13.1,0,6.5-1.1,10.1-3.2,13-1.2,1.6-4.5,5-10.5,5h-6c-2.8,0-2.9-.4-2.9-2.4ZM912.5,302.9h21.6c9.9,0,18-8.7,18-19.8s-8-20.5-18-20.5h-21.6v1.8h1.4c4.5,0,4.7.6,4.7,2.8v31.1c0,2.1-.1,2.8-4.7,2.8h-1.4v1.8ZM883.6,282.7v-15.9c0-1.9.1-2.4,2.9-2.4h5.2c9.4,0,9.4,6.2,9.4,9.1s0,9.1-9.4,9.1h-8.1ZM872.4,302.9c2.1-.2,6.4-.2,8.7-.2s6.7,0,8.7.2v-1.8h-1.4c-4.5,0-4.7-.6-4.7-2.8v-14h10c7.1,0,13.4-4.8,13.4-10.7s-5.8-11-13.9-11h-20.8v1.8h1.4c4.5,0,4.7.6,4.7,2.8v31.1c0,2.1-.1,2.8-4.7,2.8h-1.4v1.8Z"/>
</svg>