<?xml version="1.0" encoding="UTF-8"?>
<svg id="Ebene_1" xmlns="http://www.w3.org/2000/svg" xmlns:xlink="http://www.w3.org/1999/xlink" version="1.1" viewBox="0 0 720 216">
  <!-- Generator: Adobe Illustrator 29.4.0, SVG Export Plug-In . SVG Version: 2.1.0 Build 152)  -->
  <defs>
    <style>
      .st0, .st1, .st2, .st3 {
        fill: none;
      }

      .st4 {
        fill: #fff;
        isolation: isolate;
        opacity: .8;
        stroke: #ccc;
      }

      .st1 {
        stroke: #b0b0b0;
      }

      .st1, .st2, .st5 {
        stroke-linejoin: round;
      }

      .st1, .st2, .st3 {
        stroke-linecap: square;
      }

      .st1, .st5, .st3 {
        stroke-width: .8px;
      }

      .st6 {
        clip-path: url(#clippath-11);
      }

      .st7 {
        clip-path: url(#clippath-10);
      }

      .st8 {
        clip-path: url(#clippath-1);
      }

      .st9 {
        clip-path: url(#clippath-3);
      }

      .st10 {
        clip-path: url(#clippath-4);
      }

      .st11 {
        clip-path: url(#clippath-2);
      }

      .st12 {
        clip-path: url(#clippath-7);
      }

      .st13 {
        clip-path: url(#clippath-6);
      }

      .st14 {
        clip-path: url(#clippath-9);
      }

      .st15 {
        clip-path: url(#clippath-8);
      }

      .st16 {
        clip-path: url(#clippath-5);
      }

      .st2 {
        stroke-width: 2px;
      }

      .st2, .st5, .st3 {
        stroke: #000;
      }

      .st17 {
        clip-path: url(#clippath);
      }
    </style>
    <clipPath id="clippath">
      <rect class="st0" x="46.6" y="25.4" width="662.6" height="148.6"/>
    </clipPath>
    <clipPath id="clippath-1">
      <rect class="st0" x="46.6" y="25.4" width="662.6" height="148.6"/>
    </clipPath>
    <clipPath id="clippath-2">
      <rect class="st0" x="46.6" y="25.4" width="662.6" height="148.6"/>
    </clipPath>
    <clipPath id="clippath-3">
      <rect class="st0" x="46.6" y="25.4" width="662.6" height="148.6"/>
    </clipPath>
    <clipPath id="clippath-4">
      <rect class="st0" x="46.6" y="25.4" width="662.6" height="148.6"/>
    </clipPath>
    <clipPath id="clippath-5">
      <rect class="st0" x="46.6" y="25.4" width="662.6" height="148.6"/>
    </clipPath>
    <clipPath id="clippath-6">
      <rect class="st0" x="46.6" y="25.4" width="662.6" height="148.6"/>
    </clipPath>
    <clipPath id="clippath-7">
      <rect class="st0" x="46.6" y="25.4" width="662.6" height="148.6"/>
    </clipPath>
    <clipPath id="clippath-8">
      <rect class="st0" x="46.6" y="25.4" width="662.6" height="148.6"/>
    </clipPath>
    <clipPath id="clippath-9">
      <rect class="st0" x="46.6" y="25.4" width="662.6" height="148.6"/>
    </clipPath>
    <clipPath id="clippath-10">
      <rect class="st0" x="46.6" y="25.4" width="662.6" height="148.6"/>
    </clipPath>
    <clipPath id="clippath-11">
      <rect class="st0" x="46.6" y="25.4" width="662.6" height="148.6"/>
    </clipPath>
  </defs>
  <g id="figure_1">
    <g id="axes_1">
      <g id="matplotlib.axis_1">
        <g id="xtick_1">
          <g id="line2d_1">
            <g class="st17">
              <path class="st1" d="M76.8,174V25.4"/>
            </g>
          </g>
          <g id="line2d_2">
            <path id="mcd94b9eac1" class="st5" d="M76.8,174v3.5"/>
          </g>
          <g id="text_1">
            <g>
              <path id="DejaVuSans-30" d="M72,182c-.5,0-.9.3-1.1.8-.3.5-.4,1.3-.4,2.3s.1,1.7.4,2.2c.3.5.6.8,1.1.8s.9-.3,1.2-.8c.3-.5.4-1.2.4-2.2s-.1-1.8-.4-2.3c-.3-.5-.6-.8-1.2-.8ZM72,181.2c.8,0,1.4.3,1.9,1,.4.6.6,1.6.6,2.8s-.2,2.2-.6,2.8c-.4.6-1.1,1-1.9,1s-1.4-.3-1.9-1c-.4-.6-.6-1.6-.6-2.8s.2-2.2.6-2.8c.4-.6,1.1-1,1.9-1Z"/>
              <path id="DejaVuSans-2e" d="M76.2,187.4h1v1.2h-1v-1.2Z"/>
              <path id="DejaVuSans-301" data-name="DejaVuSans-30" d="M81.5,182c-.5,0-.9.3-1.1.8-.3.5-.4,1.3-.4,2.3s.1,1.7.4,2.2c.3.5.6.8,1.1.8s.9-.3,1.2-.8c.3-.5.4-1.2.4-2.2s-.1-1.8-.4-2.3c-.3-.5-.6-.8-1.2-.8ZM81.5,181.2c.8,0,1.4.3,1.9,1,.4.6.6,1.6.6,2.8s-.2,2.2-.6,2.8c-.4.6-1.1,1-1.9,1s-1.4-.3-1.9-1c-.4-.6-.6-1.6-.6-2.8s.2-2.2.6-2.8c.4-.6,1.1-1,1.9-1Z"/>
            </g>
          </g>
        </g>
        <g id="xtick_2">
          <g id="line2d_3">
            <g class="st8">
              <path class="st1" d="M197.3,174V25.4"/>
            </g>
          </g>
          <g id="line2d_4">
            <path id="mcd94b9eac11" data-name="mcd94b9eac1" class="st5" d="M197.3,174v3.5"/>
          </g>
          <g id="text_2">
            <g>
              <path id="DejaVuSans-302" data-name="DejaVuSans-30" d="M192.6,182c-.5,0-.9.3-1.1.8-.3.5-.4,1.3-.4,2.3s.1,1.7.4,2.2c.3.5.6.8,1.1.8s.9-.3,1.2-.8c.3-.5.4-1.2.4-2.2s-.1-1.8-.4-2.3c-.3-.5-.6-.8-1.2-.8ZM192.6,181.2c.8,0,1.4.3,1.9,1,.4.6.6,1.6.6,2.8s-.2,2.2-.6,2.8c-.4.6-1.1,1-1.9,1s-1.4-.3-1.9-1c-.4-.6-.6-1.6-.6-2.8s.2-2.2.6-2.8c.4-.6,1.1-1,1.9-1Z"/>
              <path id="DejaVuSans-2e1" data-name="DejaVuSans-2e" d="M196.8,187.4h1v1.2h-1v-1.2Z"/>
              <path id="DejaVuSans-32" d="M200.9,187.8h3.4v.8h-4.6v-.8c.4-.4.9-.9,1.5-1.6.6-.7,1.1-1.1,1.2-1.3.3-.4.5-.7.7-.9.1-.2.2-.5.2-.7,0-.4-.1-.7-.4-.9-.3-.2-.6-.4-1.1-.4s-.6,0-1,.2c-.3.1-.7.3-1.1.5v-1c.4-.2.8-.3,1.1-.4.3,0,.7-.1.9-.1.8,0,1.4.2,1.8.6.4.4.7.9.7,1.5s0,.6-.2.9c-.1.3-.3.6-.6.9,0,0-.3.4-.8.8-.4.5-1.1,1.1-1.8,1.9Z"/>
            </g>
          </g>
        </g>
        <g id="xtick_3">
          <g id="line2d_5">
            <g class="st11">
              <path class="st1" d="M317.9,174V25.4"/>
            </g>
          </g>
          <g id="line2d_6">
            <path id="mcd94b9eac12" data-name="mcd94b9eac1" class="st5" d="M317.9,174v3.5"/>
          </g>
          <g id="text_3">
            <g>
              <path id="DejaVuSans-303" data-name="DejaVuSans-30" d="M313.2,182c-.5,0-.9.3-1.1.8-.3.5-.4,1.3-.4,2.3s.1,1.7.4,2.2c.3.5.6.8,1.1.8s.9-.3,1.2-.8c.3-.5.4-1.2.4-2.2s-.1-1.8-.4-2.3c-.3-.5-.6-.8-1.2-.8ZM313.2,181.2c.8,0,1.4.3,1.9,1,.4.6.6,1.6.6,2.8s-.2,2.2-.6,2.8c-.4.6-1.1,1-1.9,1s-1.4-.3-1.9-1c-.4-.6-.6-1.6-.6-2.8s.2-2.2.6-2.8c.4-.6,1.1-1,1.9-1Z"/>
              <path id="DejaVuSans-2e2" data-name="DejaVuSans-2e" d="M317.4,187.4h1v1.2h-1v-1.2Z"/>
              <path id="DejaVuSans-34" d="M323.3,182.2l-2.5,3.9h2.5v-3.9ZM323,181.3h1.2v4.8h1v.8h-1v1.7h-1v-1.7h-3.3v-1l3-4.6Z"/>
            </g>
          </g>
        </g>
        <g id="xtick_4">
          <g id="line2d_7">
            <g class="st9">
              <path class="st1" d="M438.5,174V25.4"/>
            </g>
          </g>
          <g id="line2d_8">
            <path id="mcd94b9eac13" data-name="mcd94b9eac1" class="st5" d="M438.5,174v3.5"/>
          </g>
          <g id="text_4">
            <g>
              <path id="DejaVuSans-304" data-name="DejaVuSans-30" d="M433.7,182c-.5,0-.9.3-1.1.8-.3.5-.4,1.3-.4,2.3s.1,1.7.4,2.2c.3.5.6.8,1.1.8s.9-.3,1.2-.8c.3-.5.4-1.2.4-2.2s-.1-1.8-.4-2.3c-.3-.5-.6-.8-1.2-.8ZM433.7,181.2c.8,0,1.4.3,1.9,1,.4.6.6,1.6.6,2.8s-.2,2.2-.6,2.8c-.4.6-1.1,1-1.9,1s-1.4-.3-1.9-1c-.4-.6-.6-1.6-.6-2.8s.2-2.2.6-2.8c.4-.6,1.1-1,1.9-1Z"/>
              <path id="DejaVuSans-2e3" data-name="DejaVuSans-2e" d="M438,187.4h1v1.2h-1v-1.2Z"/>
              <path id="DejaVuSans-36" d="M443.4,184.6c-.4,0-.8.2-1.1.5-.3.3-.4.7-.4,1.2s.1.9.4,1.2c.3.3.6.5,1.1.5s.8-.2,1.1-.5c.3-.3.4-.7.4-1.2s-.1-.9-.4-1.2c-.3-.3-.6-.5-1.1-.5ZM445.4,181.5v.9c-.2-.1-.5-.2-.8-.3-.3,0-.5,0-.8,0-.7,0-1.1.2-1.5.7-.3.4-.5,1.1-.6,2,.2-.3.4-.5.7-.7.3-.2.6-.2,1-.2.7,0,1.3.2,1.7.7.4.4.6,1,.6,1.8s-.2,1.4-.7,1.8c-.4.5-1,.7-1.8.7s-1.5-.3-1.9-1c-.4-.6-.7-1.6-.7-2.8s.3-2.1.8-2.8c.5-.7,1.3-1,2.2-1s.5,0,.8,0,.5.1.8.2Z"/>
            </g>
          </g>
        </g>
        <g id="xtick_5">
          <g id="line2d_9">
            <g class="st10">
              <path class="st1" d="M559.1,174V25.4"/>
            </g>
          </g>
          <g id="line2d_10">
            <path id="mcd94b9eac14" data-name="mcd94b9eac1" class="st5" d="M559.1,174v3.5"/>
          </g>
          <g id="text_5">
            <g>
              <path id="DejaVuSans-305" data-name="DejaVuSans-30" d="M554.3,182c-.5,0-.9.3-1.1.8-.3.5-.4,1.3-.4,2.3s.1,1.7.4,2.2c.3.5.6.8,1.1.8s.9-.3,1.2-.8c.3-.5.4-1.2.4-2.2s-.1-1.8-.4-2.3c-.3-.5-.6-.8-1.2-.8ZM554.3,181.2c.8,0,1.4.3,1.9,1,.4.6.6,1.6.6,2.8s-.2,2.2-.6,2.8c-.4.6-1.1,1-1.9,1s-1.4-.3-1.9-1c-.4-.6-.6-1.6-.6-2.8s.2-2.2.6-2.8c.4-.6,1.1-1,1.9-1Z"/>
              <path id="DejaVuSans-2e4" data-name="DejaVuSans-2e" d="M558.6,187.4h1v1.2h-1v-1.2Z"/>
              <path id="DejaVuSans-38" d="M563.9,185.2c-.5,0-.8.1-1.1.4-.3.3-.4.6-.4,1s.1.8.4,1c.3.3.6.4,1.1.4s.8-.1,1.1-.4c.3-.3.4-.6.4-1s-.1-.8-.4-1c-.3-.3-.6-.4-1.1-.4ZM562.9,184.8c-.4-.1-.8-.3-1-.6-.2-.3-.4-.6-.4-1.1s.2-1,.6-1.4c.4-.3,1-.5,1.7-.5s1.3.2,1.7.5.6.8.6,1.4-.1.8-.4,1.1c-.2.3-.6.5-1,.6.5.1.8.3,1.1.7.3.3.4.7.4,1.2,0,.7-.2,1.3-.6,1.6-.4.4-1,.6-1.9.6s-1.4-.2-1.9-.6c-.4-.4-.6-.9-.6-1.6s.1-.9.4-1.2c.3-.3.6-.5,1.1-.7ZM562.5,183.2c0,.4.1.7.4.9.2.2.6.3,1,.3s.8-.1,1-.3c.2-.2.4-.5.4-.9s-.1-.7-.4-.9c-.2-.2-.6-.3-1-.3s-.8.1-1,.3c-.2.2-.4.5-.4.9Z"/>
            </g>
          </g>
        </g>
        <g id="xtick_6">
          <g id="line2d_11">
            <g class="st16">
              <path class="st1" d="M679.7,174V25.4"/>
            </g>
          </g>
          <g id="line2d_12">
            <path id="mcd94b9eac15" data-name="mcd94b9eac1" class="st5" d="M679.7,174v3.5"/>
          </g>
          <g id="text_6">
            <g>
              <path id="DejaVuSans-31" d="M673,187.8h1.6v-5.6l-1.8.4v-.9l1.7-.4h1v6.5h1.6v.8h-4.2v-.8Z"/>
              <path id="DejaVuSans-2e5" data-name="DejaVuSans-2e" d="M679.2,187.4h1v1.2h-1v-1.2Z"/>
              <path id="DejaVuSans-306" data-name="DejaVuSans-30" d="M684.5,182c-.5,0-.9.3-1.1.8-.3.5-.4,1.3-.4,2.3s.1,1.7.4,2.2c.3.5.6.8,1.1.8s.9-.3,1.2-.8c.3-.5.4-1.2.4-2.2s-.1-1.8-.4-2.3c-.3-.5-.6-.8-1.2-.8ZM684.5,181.2c.8,0,1.4.3,1.9,1,.4.6.6,1.6.6,2.8s-.2,2.2-.6,2.8c-.4.6-1.1,1-1.9,1s-1.4-.3-1.9-1c-.4-.6-.6-1.6-.6-2.8s.2-2.2.6-2.8c.4-.6,1.1-1,1.9-1Z"/>
            </g>
          </g>
        </g>
        <g id="text_7">
          <g>
            <path id="DejaVuSans-54" d="M357.6,195h6.2v.8h-2.6v6.5h-1v-6.5h-2.6v-.8Z"/>
            <path id="DejaVuSans-69" d="M364.3,196.8h.9v5.5h-.9v-5.5ZM364.3,194.7h.9v1.1h-.9v-1.1Z"/>
            <path id="DejaVuSans-6d" d="M371.4,197.9c.2-.4.5-.7.8-.9s.7-.3,1.1-.3,1,.2,1.3.6c.3.4.5,1,.5,1.7v3.3h-.9v-3.3c0-.5,0-.9-.3-1.2-.2-.3-.5-.4-.8-.4s-.8.2-1.1.5c-.3.3-.4.7-.4,1.3v3.1h-.9v-3.3c0-.5,0-.9-.3-1.2s-.5-.4-.9-.4-.8.2-1.1.5c-.3.3-.4.7-.4,1.3v3.1h-.9v-5.5h.9v.9c.2-.3.5-.6.7-.7s.6-.2,1-.2.7.1,1,.3c.3.2.5.5.6.9Z"/>
            <path id="DejaVuSans-65" d="M381.5,199.4v.4h-4.1c0,.6.2,1.1.6,1.4.3.3.8.5,1.4.5s.7,0,1-.1.6-.2,1-.4v.9c-.3.1-.7.2-1,.3s-.7.1-1,.1c-.9,0-1.6-.3-2.1-.8-.5-.5-.8-1.2-.8-2.1s.2-1.6.7-2.1c.5-.5,1.1-.8,2-.8s1.3.2,1.7.7c.4.5.6,1.1.6,1.9ZM380.6,199.1c0-.5-.1-.9-.4-1.2-.3-.3-.6-.4-1.1-.4s-.9.1-1.2.4-.5.7-.5,1.2h3.2Z"/>
            <path id="DejaVuSans-20" d="M382.1,202.3"/>
            <path id="DejaVuSans-5b" d="M386.1,194.7h2.1v.7h-1.2v7.5h1.2v.7h-2.1v-8.9Z"/>
            <path id="DejaVuSans-73" d="M393.6,197v.9c-.3-.1-.5-.2-.8-.3-.3,0-.6,0-.9,0-.4,0-.8,0-1,.2-.2.1-.3.3-.3.6s0,.4.2.5.5.2,1,.3h.3c.6.2,1.1.4,1.4.6s.4.6.4,1-.2.9-.6,1.2c-.4.3-1,.4-1.7.4s-.6,0-.9,0c-.3,0-.7-.1-1-.3v-.9c.3.2.7.3,1,.4.3,0,.6.1,1,.1s.7,0,1-.2c.2-.1.3-.3.3-.6s0-.4-.2-.6c-.2-.1-.5-.3-1.1-.4h-.3c-.6-.2-1-.4-1.2-.6-.2-.2-.4-.6-.4-1s.2-.9.5-1.2c.4-.3.9-.4,1.6-.4s.6,0,.9,0c.3,0,.6.1.8.2Z"/>
            <path id="DejaVuSans-5d" d="M397.4,194.7v8.9h-2.1v-.7h1.2v-7.5h-1.2v-.7h2.1Z"/>
          </g>
        </g>
      </g>
      <g id="matplotlib.axis_2">
        <g id="ytick_1">
          <g id="line2d_13">
            <g class="st13">
              <path class="st1" d="M46.6,150.6h662.6"/>
            </g>
          </g>
          <g id="line2d_14">
            <path id="m911e3de79f" class="st5" d="M46.6,150.6h-3.5"/>
          </g>
          <g id="text_8">
            <g>
              <path id="DejaVuSans-2212" d="M26,150.8h6.3v.8h-6.3v-.8Z"/>
              <path id="DejaVuSans-321" data-name="DejaVuSans-32" d="M35.2,153.6h3.4v.8h-4.6v-.8c.4-.4.9-.9,1.5-1.6.6-.7,1.1-1.1,1.2-1.3.3-.4.5-.7.7-.9.1-.2.2-.5.2-.7,0-.4-.1-.7-.4-.9-.3-.2-.6-.4-1.1-.4s-.6,0-1,.2c-.3.1-.7.3-1.1.5v-1c.4-.2.8-.3,1.1-.4.3,0,.7-.1.9-.1.8,0,1.4.2,1.8.6.4.4.7.9.7,1.5s0,.6-.2.9c-.1.3-.3.6-.6.9,0,0-.3.4-.8.8-.4.5-1.1,1.1-1.8,1.9Z"/>
            </g>
          </g>
        </g>
        <g id="ytick_2">
          <g id="line2d_15">
            <g class="st12">
              <path class="st1" d="M46.6,125.2h662.6"/>
            </g>
          </g>
          <g id="line2d_16">
            <path id="m911e3de79f1" data-name="m911e3de79f" class="st5" d="M46.6,125.2h-3.5"/>
          </g>
          <g id="text_9">
            <g>
              <path id="DejaVuSans-22121" data-name="DejaVuSans-2212" d="M26,125.4h6.3v.8h-6.3v-.8Z"/>
              <path id="DejaVuSans-311" data-name="DejaVuSans-31" d="M34.5,128.1h1.6v-5.6l-1.8.4v-.9l1.7-.4h1v6.5h1.6v.8h-4.2v-.8Z"/>
            </g>
          </g>
        </g>
        <g id="ytick_3">
          <g id="line2d_17">
            <g class="st15">
              <path class="st1" d="M46.6,99.7h662.6"/>
            </g>
          </g>
          <g id="line2d_18">
            <path id="m911e3de79f2" data-name="m911e3de79f" class="st5" d="M46.6,99.7h-3.5"/>
          </g>
          <g id="text_10">
            <path id="DejaVuSans-307" data-name="DejaVuSans-30" d="M36.5,96.9c-.5,0-.9.3-1.1.8-.3.5-.4,1.3-.4,2.3s.1,1.7.4,2.2c.3.5.6.8,1.1.8s.9-.3,1.2-.8c.3-.5.4-1.2.4-2.2s-.1-1.8-.4-2.3c-.3-.5-.6-.8-1.2-.8ZM36.5,96.1c.8,0,1.4.3,1.9,1,.4.6.6,1.6.6,2.8s-.2,2.2-.6,2.8c-.4.6-1.1,1-1.9,1s-1.4-.3-1.9-1c-.4-.6-.6-1.6-.6-2.8s.2-2.2.6-2.8c.4-.6,1.1-1,1.9-1Z"/>
          </g>
        </g>
        <g id="ytick_4">
          <g id="line2d_19">
            <g class="st14">
              <path class="st1" d="M46.6,74.3h662.6"/>
            </g>
          </g>
          <g id="line2d_20">
            <path id="m911e3de79f3" data-name="m911e3de79f" class="st5" d="M46.6,74.3h-3.5"/>
          </g>
          <g id="text_11">
            <path id="DejaVuSans-312" data-name="DejaVuSans-31" d="M34.5,77.3h1.6v-5.6l-1.8.4v-.9l1.7-.4h1v6.5h1.6v.8h-4.2v-.8Z"/>
          </g>
        </g>
        <g id="ytick_5">
          <g id="line2d_21">
            <g class="st7">
              <path class="st1" d="M46.6,48.9h662.6"/>
            </g>
          </g>
          <g id="line2d_22">
            <path id="m911e3de79f4" data-name="m911e3de79f" class="st5" d="M46.6,48.9h-3.5"/>
          </g>
          <g id="text_12">
            <path id="DejaVuSans-322" data-name="DejaVuSans-32" d="M35.2,51.9h3.4v.8h-4.6v-.8c.4-.4.9-.9,1.5-1.6.6-.7,1.1-1.1,1.2-1.3.3-.4.5-.7.7-.9.1-.2.2-.5.2-.7,0-.4-.1-.7-.4-.9-.3-.2-.6-.4-1.1-.4s-.6,0-1,.2c-.3.1-.7.3-1.1.5v-1c.4-.2.8-.3,1.1-.4.3,0,.7-.1.9-.1.8,0,1.4.2,1.8.6.4.4.7.9.7,1.5s0,.6-.2.9c-.1.3-.3.6-.6.9,0,0-.3.4-.8.8-.4.5-1.1,1.1-1.8,1.9Z"/>
          </g>
        </g>
        <g id="text_13">
          <g>
            <path id="DejaVuSans-41" d="M12.5,121.9l3.6,1.3v-2.7l-3.6,1.3ZM11.5,122.5v-1.1l7.3-2.8v1l-1.9.7v3.3l1.9.7v1l-7.3-2.8Z"/>
            <path id="DejaVuSans-6d1" data-name="DejaVuSans-6d" d="M14.4,113.3c-.4-.2-.7-.5-.9-.8s-.3-.7-.3-1.1.2-1,.6-1.3c.4-.3,1-.5,1.7-.5h3.3v.9h-3.3c-.5,0-.9,0-1.2.3-.3.2-.4.5-.4.8s.2.8.5,1.1c.3.3.7.4,1.3.4h3.1v.9h-3.3c-.5,0-.9,0-1.2.3s-.4.5-.4.9.2.8.5,1.1c.3.3.7.4,1.3.4h3.1v.9h-5.5v-.9h.9c-.3-.2-.6-.5-.7-.7s-.2-.6-.2-1,.1-.7.3-1c.2-.3.5-.5.9-.6Z"/>
            <path id="DejaVuSans-70" d="M18,107h2.9v.9h-7.5v-.9h.8c-.3-.2-.6-.4-.7-.7-.2-.3-.2-.6-.2-1,0-.7.3-1.2.8-1.6.5-.4,1.2-.6,2.1-.6s1.6.2,2.1.6c.5.4.8,1,.8,1.6s0,.7-.2,1c-.2.3-.4.5-.7.7ZM16.1,103.9c-.7,0-1.2.1-1.6.4s-.6.6-.6,1.1.2.9.6,1.1.9.4,1.6.4,1.2-.1,1.6-.4c.4-.3.6-.6.6-1.1s-.2-.8-.6-1.1c-.4-.3-.9-.4-1.6-.4Z"/>
            <path id="DejaVuSans-6c" d="M11.2,101.5v-.9h7.6v.9h-7.6Z"/>
            <path id="DejaVuSans-691" data-name="DejaVuSans-69" d="M13.3,98.7v-.9h5.5v.9h-5.5ZM11.2,98.7v-.9h1.1v.9h-1.1Z"/>
            <path id="DejaVuSans-74" d="M11.8,95h1.6v-1.9h.7v1.9h3c.4,0,.7,0,.9-.2s.2-.4.2-.7v-.9h.8v.9c0,.7-.1,1.2-.4,1.4-.3.3-.7.4-1.4.4h-3v.7h-.7v-.7h-1.6v-.9Z"/>
            <path id="DejaVuSans-75" d="M16.7,92.1h-3.3v-.9h3.3c.5,0,.9-.1,1.2-.3.3-.2.4-.5.4-.9s-.2-.9-.5-1.1c-.3-.3-.7-.4-1.3-.4h-3.1v-.9h5.5v.9h-.8c.3.2.6.5.7.8.2.3.2.6.2,1,0,.6-.2,1.1-.6,1.4-.4.3-1,.5-1.7.5ZM13.2,89.8h0Z"/>
            <path id="DejaVuSans-64" d="M14.2,82.1h-3v-.9h7.6v.9h-.8c.3.2.6.4.7.7.2.3.2.6.2,1,0,.7-.3,1.2-.8,1.6-.5.4-1.2.6-2.1.6s-1.6-.2-2.1-.6c-.5-.4-.8-1-.8-1.6s0-.8.2-1c.2-.3.4-.5.7-.7ZM16.1,85.1c.7,0,1.2-.1,1.6-.4.4-.3.6-.6.6-1.1s-.2-.8-.6-1.1c-.4-.3-.9-.4-1.6-.4s-1.2.1-1.6.4c-.4.3-.6.6-.6,1.1s.2.8.6,1.1.9.4,1.6.4Z"/>
            <path id="DejaVuSans-651" data-name="DejaVuSans-65" d="M15.9,74.6h.4v4.1c.6,0,1.1-.2,1.4-.6.3-.3.5-.8.5-1.4s0-.7-.1-1-.2-.6-.4-1h.9c.1.3.2.7.3,1s.1.7.1,1c0,.9-.3,1.6-.8,2.1-.5.5-1.2.8-2.1.8s-1.6-.2-2.1-.7c-.5-.5-.8-1.1-.8-2s.2-1.3.7-1.7c.5-.4,1.1-.6,1.9-.6ZM15.6,75.5c-.5,0-.9.1-1.2.4-.3.3-.4.6-.4,1.1s.1.9.4,1.2.7.5,1.2.5v-3.2Z"/>
          </g>
        </g>
      </g>
      <g id="line2d_23">
        <g class="st6">
          <path class="st2" d="M76.8,99.7l1.2-2.8.6-1,.6-.8.6-.5.6-.2h.6s.6.4.6.4l.6.6.6.9.6,1.2,1.2,3.2,1.2,4.2,1.2,5.1,1.8,9,3,16.8,2.4,13,1.2,5.7,1.2,4.9,1.2,3.8.6,1.5.6,1.2.6.9.6.5.6.2.6-.2.6-.5.6-.9.6-1.2.6-1.5,1.2-4.1,1.2-5.3,1.2-6.4,1.8-11.2,2.4-16.9,3.6-25.6,1.8-11.1,1.2-6.4,1.2-5.3,1.2-4.1.6-1.6.6-1.3.6-1,.6-.7.6-.3h.6s.6.3.6.3l.6.6.6.8.6,1.1,1.2,2.9,1.2,3.7,1.8,6.6,4.2,16.3,1.2,3.9,1.2,3.2,1.2,2.3.6.8.6.5.6.2h.6s.6-.4.6-.4l.6-.6.6-.9.6-1.2,1.2-3.2,1.2-4.2,1.2-5.1,1.8-9,3-16.8,2.4-13,1.2-5.7,1.2-4.9,1.2-3.8.6-1.5.6-1.2.6-.9.6-.5.6-.2.6.2.6.5.6.9.6,1.2.6,1.5,1.2,4.1,1.2,5.3,1.2,6.4,1.8,11.2,2.4,16.9,3.6,25.6,1.8,11.1,1.2,6.4,1.2,5.3,1.2,4.1.6,1.6.6,1.3.6,1,.6.7.6.3h.6s.6-.3.6-.3l.6-.6.6-.8.6-1.1,1.2-2.9,1.2-3.7,1.8-6.6,4.2-16.3,1.2-3.9,1.2-3.2,1.2-2.3.6-.8.6-.5.6-.2h.6s.6.4.6.4l.6.6.6.9.6,1.2,1.2,3.2,1.2,4.2,1.2,5.1,1.8,9,3,16.8,2.4,13,1.2,5.7,1.2,4.9,1.2,3.8.6,1.5.6,1.2.6.9.6.5.6.2.6-.2.6-.5.6-.9.6-1.2.6-1.5,1.2-4.1,1.2-5.3,1.2-6.4,1.8-11.2,2.4-16.9,3.6-25.6,1.8-11.1,1.2-6.4,1.2-5.3,1.2-4.1.6-1.6.6-1.3.6-1,.6-.7.6-.3h.6s.6.3.6.3l.6.6.6.8.6,1.1,1.2,2.9,1.2,3.7,1.8,6.6,4.2,16.3,1.2,3.9,1.2,3.2,1.2,2.3.6.8.6.5.6.2h.6s.6-.4.6-.4l.6-.6.6-.9.6-1.2,1.2-3.2,1.2-4.2,1.2-5.1,1.8-9,3-16.8,2.4-13,1.2-5.7,1.2-4.9,1.2-3.8.6-1.5.6-1.2.6-.9.6-.5.6-.2.6.2.6.5.6.9.6,1.2.6,1.5,1.2,4.1,1.2,5.3,1.2,6.4,1.8,11.2,2.4,16.9,3.6,25.6,1.8,11.1,1.2,6.4,1.2,5.3,1.2,4.1.6,1.6.6,1.3.6,1,.6.7.6.3h.6s.6-.3.6-.3l.6-.6.6-.8.6-1.1,1.2-2.9,1.2-3.7,1.8-6.6,4.2-16.3,1.2-3.9,1.2-3.2,1.2-2.3.6-.8.6-.5.6-.2h.6s.6.4.6.4l.6.6.6.9.6,1.2,1.2,3.2,1.2,4.2,1.2,5.1,1.8,9,3,16.8,2.4,13,1.2,5.7,1.2,4.9,1.2,3.8.6,1.5.6,1.2.6.9.6.5.6.2.6-.2.6-.5.6-.9.6-1.2.6-1.5,1.2-4.1,1.2-5.3,1.2-6.4,1.8-11.2,2.4-16.9,3.6-25.6,1.8-11.1,1.2-6.4,1.2-5.3,1.2-4.1.6-1.6.6-1.3.6-1,.6-.7.6-.3h.6s.6.3.6.3l.6.6.6.8.6,1.1,1.2,2.9,1.2,3.7,1.8,6.6,4.2,16.3,1.2,3.9,1.2,3.2,1.2,2.3.6.8.6.5.6.2h.6s.6-.4.6-.4l.6-.6.6-.9.6-1.2,1.2-3.2,1.2-4.2,1.2-5.1,1.8-9,3-16.8,2.4-13,1.2-5.7,1.2-4.9,1.2-3.8.6-1.5.6-1.2.6-.9.6-.5.6-.2.6.2.6.5.6.9.6,1.2.6,1.5,1.2,4.1,1.2,5.3,1.2,6.4,1.8,11.2,2.4,16.9,3.6,25.6,1.8,11.1,1.2,6.4,1.2,5.3,1.2,4.1.6,1.6.6,1.3.6,1,.6.7.6.3h.6s.6-.3.6-.3l.6-.6.6-.8.6-1.1,1.2-2.9,1.2-3.7,1.8-6.6,4.2-16.3,1.2-3.9,1.2-3.2,1.2-2.3.6-.8.6-.5.6-.2h.6s.6.4.6.4l.6.6.6.9.6,1.2,1.2,3.2,1.2,4.2,1.2,5.1,1.8,9,3,16.8,2.4,13,1.2,5.7,1.2,4.9,1.2,3.8.6,1.5.6,1.2.6.9.6.5.6.2.6-.2.6-.5.6-.9.6-1.2.6-1.5,1.2-4.1,1.2-5.3,1.2-6.4,1.8-11.2,2.4-16.9,3.6-25.6,1.8-11.1,1.2-6.4,1.2-5.3,1.2-4.1.6-1.6.6-1.3.6-1,.6-.7.6-.3h.6s.6.3.6.3l.6.6.6.8.6,1.1,1.2,2.9,1.2,3.7,1.8,6.6,4.2,16.3,1.2,3.9,1.2,3.2,1.2,2.3.6.8.6.5.6.2h.6s.6-.4.6-.4l.6-.6.6-.9.6-1.2,1.2-3.2,1.2-4.2,1.2-5.1,1.8-9,3-16.8,2.4-13,1.2-5.7,1.2-4.9,1.2-3.8.6-1.5.6-1.2.6-.9.6-.5.6-.2.6.2.6.5.6.9.6,1.2.6,1.5,1.2,4.1,1.2,5.3,1.2,6.4,1.8,11.2,2.4,16.9,3.6,25.6,1.8,11.1,1.2,6.4,1.2,5.3,1.2,4.1.6,1.6.6,1.3.6,1,.6.7.6.3h.6s.6-.3.6-.3l.6-.6.6-.8.6-1.1,1.2-2.9,1.2-3.7,1.8-6.6,4.2-16.3,1.2-3.9,1.2-3.2,1.2-2.3.6-.8.6-.5.6-.2h.6s.6.4.6.4l.6.6.6.9.6,1.2,1.2,3.2,1.2,4.2,1.2,5.1,1.8,9,3,16.8,2.4,13,1.2,5.7,1.2,4.9,1.2,3.8.6,1.5.6,1.2.6.9.6.5.6.2.6-.2.6-.5.6-.9.6-1.2.6-1.5,1.2-4.1,1.2-5.3,1.2-6.4,1.8-11.2,2.4-16.9,3.6-25.6,1.8-11.1,1.2-6.4,1.2-5.3,1.2-4.1.6-1.6.6-1.3.6-1,.6-.7.6-.3h.6s.6.3.6.3l.6.6.6.8.6,1.1,1.2,2.9,1.2,3.7,1.8,6.6,4.2,16.3,1.2,3.9,1.2,3.2,1.2,2.3.6.8.6.5.6.2h.6s.6-.4.6-.4l.6-.6.6-.9.6-1.2,1.2-3.2,1.2-4.2,1.2-5.1,1.8-9,3-16.8,2.4-13,1.2-5.7,1.2-4.9,1.2-3.8.6-1.5.6-1.2.6-.9.6-.5.6-.2.6.2.6.5.6.9.6,1.2.6,1.5,1.2,4.1,1.2,5.3,1.2,6.4,1.8,11.2,2.4,16.9,3.6,25.6,1.8,11.1,1.2,6.4,1.2,5.3,1.2,4.1.6,1.6.6,1.3.6,1,.6.7.6.3h.6s.6-.3.6-.3l.6-.6.6-.8.6-1.1,1.2-2.9,1.2-3.7,1.8-6.6,4.2-16.3,1.2-3.9h0"/>
        </g>
      </g>
      <g id="patch_3">
        <path class="st3" d="M46.6,174V25.4"/>
      </g>
      <g id="patch_4">
        <path class="st3" d="M709.2,174V25.4"/>
      </g>
      <g id="patch_5">
        <path class="st3" d="M46.6,174h662.6"/>
      </g>
      <g id="patch_6">
        <path class="st3" d="M46.6,25.4h662.6"/>
      </g>
      <g id="text_14">
        <g>
          <path id="DejaVuSans-43" d="M318.4,11.4v1.2c-.4-.4-.8-.6-1.3-.8-.5-.2-.9-.3-1.4-.3-1,0-1.8.3-2.3.9s-.8,1.5-.8,2.7.3,2,.8,2.6,1.3.9,2.3.9,1,0,1.4-.3.9-.5,1.3-.8v1.2c-.4.3-.9.5-1.3.6-.5.1-1,.2-1.5.2-1.3,0-2.4-.4-3.1-1.2-.8-.8-1.1-1.9-1.1-3.3s.4-2.5,1.1-3.3c.8-.8,1.8-1.2,3.1-1.2s1,0,1.5.2c.5.1.9.3,1.3.6Z"/>
          <path id="DejaVuSans-6f" d="M322.7,13.6c-.6,0-1,.2-1.4.7s-.5,1.1-.5,1.9.2,1.4.5,1.9c.3.5.8.7,1.4.7s1-.2,1.4-.7c.3-.5.5-1.1.5-1.9s-.2-1.4-.5-1.8c-.3-.5-.8-.7-1.4-.7ZM322.7,12.7c.9,0,1.7.3,2.2.9.5.6.8,1.5.8,2.5s-.3,1.9-.8,2.5c-.5.6-1.3.9-2.2.9s-1.7-.3-2.2-.9c-.5-.6-.8-1.5-.8-2.5s.3-1.9.8-2.5c.5-.6,1.3-.9,2.2-.9Z"/>
          <path id="DejaVuSans-6d2" data-name="DejaVuSans-6d" d="M332.6,14.1c.3-.5.6-.8,1-1.1s.8-.3,1.3-.3,1.2.2,1.6.7c.4.5.6,1.2.6,2v4h-1.1v-3.9c0-.6-.1-1.1-.3-1.4-.2-.3-.6-.5-1-.5s-1,.2-1.3.6c-.3.4-.5.9-.5,1.5v3.7h-1.1v-3.9c0-.6-.1-1.1-.3-1.4s-.6-.5-1-.5-1,.2-1.3.6c-.3.4-.5.9-.5,1.5v3.7h-1.1v-6.6h1.1v1c.2-.4.5-.7.9-.9s.8-.3,1.2-.3.9.1,1.2.4c.3.2.6.6.7,1.1Z"/>
          <path id="DejaVuSans-62" d="M343.9,16.2c0-.8-.2-1.4-.5-1.9s-.8-.7-1.3-.7-1,.2-1.3.7-.5,1.1-.5,1.9.2,1.4.5,1.9c.3.5.8.7,1.3.7s1-.2,1.3-.7c.3-.5.5-1.1.5-1.9ZM340.3,13.9c.2-.4.5-.7.9-.9.3-.2.8-.3,1.2-.3.8,0,1.4.3,1.9.9.5.6.7,1.5.7,2.5s-.2,1.9-.7,2.5c-.5.6-1.1.9-1.9.9s-.9,0-1.2-.3c-.3-.2-.6-.5-.9-.9v1h-1.1v-9.1h1.1v3.6Z"/>
          <path id="DejaVuSans-692" data-name="DejaVuSans-69" d="M346.8,12.9h1.1v6.6h-1.1v-6.6ZM346.8,10.3h1.1v1.4h-1.1v-1.4Z"/>
          <path id="DejaVuSans-6e" d="M355.6,15.5v4h-1.1v-3.9c0-.6-.1-1.1-.4-1.4-.2-.3-.6-.5-1.1-.5s-1,.2-1.4.6c-.3.4-.5.9-.5,1.5v3.7h-1.1v-6.6h1.1v1c.3-.4.6-.7.9-.9.3-.2.8-.3,1.2-.3.8,0,1.3.2,1.7.7.4.5.6,1.2.6,2.1Z"/>
          <path id="DejaVuSans-652" data-name="DejaVuSans-65" d="M363.4,15.9v.5h-5c0,.7.3,1.3.7,1.7.4.4,1,.6,1.7.6s.8,0,1.2-.2.8-.3,1.2-.5v1c-.4.2-.8.3-1.2.4s-.8.1-1.2.1c-1,0-1.9-.3-2.5-.9-.6-.6-.9-1.4-.9-2.5s.3-1.9.9-2.6c.6-.6,1.4-.9,2.3-.9s1.6.3,2.1.9c.5.6.8,1.3.8,2.3ZM362.3,15.6c0-.6-.2-1.1-.5-1.4-.3-.4-.7-.5-1.3-.5s-1.1.2-1.4.5-.6.8-.6,1.4h3.8Z"/>
          <path id="DejaVuSans-641" data-name="DejaVuSans-64" d="M369.5,13.9v-3.6h1.1v9.1h-1.1v-1c-.2.4-.5.7-.9.9-.3.2-.8.3-1.2.3-.8,0-1.4-.3-1.9-.9-.5-.6-.7-1.5-.7-2.5s.2-1.9.7-2.5c.5-.6,1.1-.9,1.9-.9s.9,0,1.2.3c.3.2.6.5.9.9ZM365.8,16.2c0,.8.2,1.4.5,1.9.3.5.8.7,1.3.7s1-.2,1.3-.7c.3-.5.5-1.1.5-1.9s-.2-1.4-.5-1.9c-.3-.5-.8-.7-1.3-.7s-1,.2-1.3.7-.5,1.1-.5,1.9Z"/>
          <path id="DejaVuSans-201" data-name="DejaVuSans-20" d="M371.6,19.4"/>
          <path id="DejaVuSans-51" d="M380.2,11.5c-.9,0-1.5.3-2,1-.5.6-.8,1.5-.8,2.6s.3,2,.8,2.6c.5.6,1.2,1,2,1s1.5-.3,2-1c.5-.6.8-1.5.8-2.6s-.3-2-.8-2.6c-.5-.6-1.2-1-2-1ZM381.8,19.3l1.6,1.7h-1.4l-1.3-1.4c-.1,0-.2,0-.3,0,0,0-.1,0-.2,0-1.2,0-2.2-.4-3-1.2-.7-.8-1.1-1.9-1.1-3.3s.4-2.5,1.1-3.3c.7-.8,1.7-1.2,3-1.2s2.2.4,2.9,1.2c.7.8,1.1,1.9,1.1,3.3s-.2,1.9-.6,2.6c-.4.7-1,1.3-1.8,1.6Z"/>
          <path id="DejaVuSans-44" d="M387.3,11.7v6.8h1.4c1.2,0,2.1-.3,2.7-.8.6-.5.8-1.4.8-2.6s-.3-2-.8-2.6-1.4-.8-2.7-.8h-1.4ZM386.1,10.7h2.4c1.7,0,2.9.4,3.7,1.1.8.7,1.2,1.8,1.2,3.3s-.4,2.6-1.2,3.3c-.8.7-2,1.1-3.7,1.1h-2.4v-8.7Z"/>
          <path id="DejaVuSans-4d" d="M395.3,10.7h1.8l2.2,6,2.2-6h1.8v8.7h-1.2v-7.7l-2.3,6h-1.2l-2.3-6v7.7h-1.1v-8.7Z"/>
          <path id="DejaVuSans-202" data-name="DejaVuSans-20" d="M404.5,19.4"/>
          <path id="DejaVuSans-53" d="M414.7,11v1.2c-.4-.2-.9-.4-1.3-.5-.4-.1-.8-.2-1.2-.2-.6,0-1.1.1-1.5.4-.3.2-.5.6-.5,1.1s.1.7.3.9c.2.2.7.4,1.3.5h.7c.9.3,1.5.6,2,1s.6,1,.6,1.7-.3,1.5-.9,1.9c-.6.4-1.4.7-2.5.7s-.9,0-1.3-.1c-.5,0-.9-.2-1.4-.4v-1.2c.5.3,1,.5,1.4.6.5.1.9.2,1.4.2.7,0,1.2-.1,1.6-.4.4-.3.6-.6.6-1.1s-.1-.8-.4-1-.7-.4-1.3-.5h-.7c-.9-.3-1.5-.6-1.9-1-.4-.4-.6-.9-.6-1.6s.3-1.4.8-1.8c.5-.4,1.3-.7,2.3-.7s.8,0,1.3.1c.4,0,.9.2,1.3.3Z"/>
          <path id="DejaVuSans-693" data-name="DejaVuSans-69" d="M417.1,12.9h1.1v6.6h-1.1v-6.6ZM417.1,10.3h1.1v1.4h-1.1v-1.4Z"/>
          <path id="DejaVuSans-67" d="M424.7,16.1c0-.8-.2-1.4-.5-1.8-.3-.4-.8-.6-1.4-.6s-1,.2-1.3.6c-.3.4-.5,1-.5,1.8s.2,1.4.5,1.8c.3.4.8.6,1.3.6s1-.2,1.4-.6c.3-.4.5-1,.5-1.8ZM425.8,18.6c0,1.1-.2,1.9-.7,2.5-.5.5-1.3.8-2.3.8s-.7,0-1.1,0-.7-.1-1-.3v-1c.3.2.6.3.9.4.3,0,.6.1.9.1.7,0,1.2-.2,1.6-.6.4-.4.5-.9.5-1.7v-.5c-.2.4-.5.7-.9.9s-.8.3-1.2.3c-.8,0-1.5-.3-1.9-.9-.5-.6-.7-1.4-.7-2.4s.2-1.8.7-2.4c.5-.6,1.1-.9,1.9-.9s.9,0,1.2.3.6.5.9.9v-1h1.1v5.7Z"/>
          <path id="DejaVuSans-6e1" data-name="DejaVuSans-6e" d="M433.5,15.5v4h-1.1v-3.9c0-.6-.1-1.1-.4-1.4-.2-.3-.6-.5-1.1-.5s-1,.2-1.4.6c-.3.4-.5.9-.5,1.5v3.7h-1.1v-6.6h1.1v1c.3-.4.6-.7.9-.9.3-.2.8-.3,1.2-.3.8,0,1.3.2,1.7.7.4.5.6,1.2.6,2.1Z"/>
          <path id="DejaVuSans-61" d="M438.6,16.1c-.9,0-1.5,0-1.8.3s-.5.5-.5,1,.1.7.4.9c.3.2.6.3,1,.3s1.1-.2,1.4-.6.5-1,.5-1.7v-.2h-1.1ZM440.7,15.7v3.7h-1.1v-1c-.2.4-.6.7-.9.9-.4.2-.8.3-1.3.3s-1.2-.2-1.6-.6c-.4-.4-.6-.9-.6-1.5s.2-1.3.7-1.7c.5-.4,1.2-.6,2.2-.6h1.5c0-.6-.2-1-.5-1.3s-.8-.4-1.4-.4-.7,0-1.1.1c-.4,0-.7.2-1,.4v-1c.4-.2.8-.3,1.1-.3.4,0,.7-.1,1.1-.1,1,0,1.7.2,2.1.7.5.5.7,1.2.7,2.2Z"/>
          <path id="DejaVuSans-6c1" data-name="DejaVuSans-6c" d="M443,10.3h1.1v9.1h-1.1v-9.1Z"/>
        </g>
      </g>
      <g id="legend_1">
        <g id="patch_7">
          <path class="st4" d="M558.1,48.1h144.1c1.3,0,2-.7,2-2v-13.7c0-1.3-.7-2-2-2h-144.1c-1.3,0-2,.7-2,2v13.7c0,1.3.7,2,2,2Z"/>
        </g>
        <g id="line2d_24">
          <path class="st2" d="M560.1,38.5h20"/>
        </g>
        <g id="text_15">
          <g>
            <path id="DejaVuSans-431" data-name="DejaVuSans-43" d="M594.6,35.3v1c-.3-.3-.7-.5-1.1-.7-.4-.2-.8-.2-1.2-.2-.8,0-1.5.3-1.9.8s-.7,1.2-.7,2.2.2,1.7.7,2.2,1.1.8,1.9.8.8,0,1.2-.2.7-.4,1.1-.7v1c-.3.2-.7.4-1.1.5-.4.1-.8.2-1.2.2-1.1,0-2-.3-2.6-1-.6-.7-1-1.6-1-2.8s.3-2.1,1-2.8c.6-.7,1.5-1,2.6-1s.8,0,1.2.2c.4.1.7.3,1.1.5Z"/>
            <path id="DejaVuSans-6f1" data-name="DejaVuSans-6f" d="M598.2,37.2c-.5,0-.9.2-1.1.6s-.4.9-.4,1.5.1,1.2.4,1.5c.3.4.7.6,1.1.6s.9-.2,1.1-.6c.3-.4.4-.9.4-1.5s-.1-1.2-.4-1.5c-.3-.4-.7-.6-1.1-.6ZM598.2,36.4c.8,0,1.4.3,1.8.8.4.5.7,1.2.7,2.1s-.2,1.6-.7,2.1c-.4.5-1.1.8-1.8.8s-1.4-.3-1.8-.8c-.4-.5-.7-1.2-.7-2.1s.2-1.6.7-2.1c.4-.5,1.1-.8,1.8-.8Z"/>
            <path id="DejaVuSans-6d3" data-name="DejaVuSans-6d" d="M606.4,37.6c.2-.4.5-.7.8-.9s.7-.3,1.1-.3,1,.2,1.3.6c.3.4.5,1,.5,1.7v3.3h-.9v-3.3c0-.5,0-.9-.3-1.2-.2-.3-.5-.4-.8-.4s-.8.2-1.1.5c-.3.3-.4.7-.4,1.3v3.1h-.9v-3.3c0-.5,0-.9-.3-1.2s-.5-.4-.9-.4-.8.2-1.1.5c-.3.3-.4.7-.4,1.3v3.1h-.9v-5.5h.9v.9c.2-.3.5-.6.7-.7s.6-.2,1-.2.7.1,1,.3c.3.2.5.5.6.9Z"/>
            <path id="DejaVuSans-621" data-name="DejaVuSans-62" d="M615.8,39.3c0-.7-.1-1.2-.4-1.6s-.6-.6-1.1-.6-.9.2-1.1.6-.4.9-.4,1.6.1,1.2.4,1.6c.3.4.6.6,1.1.6s.8-.2,1.1-.6c.3-.4.4-.9.4-1.6ZM612.8,37.4c.2-.3.4-.6.7-.7.3-.2.6-.2,1-.2.7,0,1.2.3,1.6.8.4.5.6,1.2.6,2.1s-.2,1.6-.6,2.1c-.4.5-1,.8-1.6.8s-.7,0-1-.2c-.3-.2-.5-.4-.7-.7v.8h-.9v-7.6h.9v3Z"/>
            <path id="DejaVuSans-694" data-name="DejaVuSans-69" d="M618.2,36.6h.9v5.5h-.9v-5.5ZM618.2,34.4h.9v1.1h-.9v-1.1Z"/>
            <path id="DejaVuSans-6e2" data-name="DejaVuSans-6e" d="M625.6,38.7v3.3h-.9v-3.3c0-.5-.1-.9-.3-1.2-.2-.3-.5-.4-.9-.4s-.9.2-1.1.5c-.3.3-.4.7-.4,1.3v3.1h-.9v-5.5h.9v.9c.2-.3.5-.6.8-.7.3-.2.6-.2,1-.2.6,0,1.1.2,1.4.6.3.4.5,1,.5,1.7Z"/>
            <path id="DejaVuSans-653" data-name="DejaVuSans-65" d="M632,39.1v.4h-4.1c0,.6.2,1.1.6,1.4.3.3.8.5,1.4.5s.7,0,1-.1.6-.2,1-.4v.9c-.3.1-.7.2-1,.3s-.7.1-1,.1c-.9,0-1.6-.3-2.1-.8-.5-.5-.8-1.2-.8-2.1s.2-1.6.7-2.1c.5-.5,1.1-.8,2-.8s1.3.2,1.7.7c.4.5.6,1.1.6,1.9ZM631.1,38.8c0-.5-.1-.9-.4-1.2-.3-.3-.6-.4-1.1-.4s-.9.1-1.2.4-.5.7-.5,1.2h3.2Z"/>
            <path id="DejaVuSans-642" data-name="DejaVuSans-64" d="M637.1,37.4v-3h.9v7.6h-.9v-.8c-.2.3-.4.6-.7.7-.3.2-.6.2-1,.2-.7,0-1.2-.3-1.6-.8-.4-.5-.6-1.2-.6-2.1s.2-1.6.6-2.1c.4-.5,1-.8,1.6-.8s.8,0,1,.2c.3.2.5.4.7.7ZM634.1,39.3c0,.7.1,1.2.4,1.6.3.4.6.6,1.1.6s.8-.2,1.1-.6c.3-.4.4-.9.4-1.6s-.1-1.2-.4-1.6c-.3-.4-.6-.6-1.1-.6s-.8.2-1.1.6-.4.9-.4,1.6Z"/>
            <path id="DejaVuSans-203" data-name="DejaVuSans-20" d="M638.9,42"/>
            <path id="DejaVuSans-511" data-name="DejaVuSans-51" d="M646,35.4c-.7,0-1.3.3-1.7.8-.4.5-.6,1.3-.6,2.2s.2,1.6.6,2.2c.4.5,1,.8,1.7.8s1.3-.3,1.7-.8c.4-.5.6-1.3.6-2.2s-.2-1.6-.6-2.2c-.4-.5-1-.8-1.7-.8ZM647.4,41.9l1.3,1.4h-1.2l-1.1-1.2c-.1,0-.2,0-.2,0,0,0-.1,0-.2,0-1,0-1.8-.3-2.5-1-.6-.7-.9-1.6-.9-2.8s.3-2.1.9-2.8c.6-.7,1.4-1,2.5-1s1.8.3,2.5,1c.6.7.9,1.6.9,2.8s-.2,1.6-.5,2.2c-.3.6-.8,1-1.5,1.3Z"/>
            <path id="DejaVuSans-441" data-name="DejaVuSans-44" d="M651.9,35.6v5.7h1.2c1,0,1.7-.2,2.2-.7.5-.5.7-1.2.7-2.2s-.2-1.7-.7-2.1-1.2-.7-2.2-.7h-1.2ZM651,34.7h2c1.4,0,2.4.3,3.1.9.7.6,1,1.5,1,2.8s-.3,2.2-1,2.8c-.7.6-1.7.9-3.1.9h-2v-7.3Z"/>
            <path id="DejaVuSans-4d1" data-name="DejaVuSans-4d" d="M658.7,34.7h1.5l1.9,5,1.9-5h1.5v7.3h-1v-6.4l-1.9,5h-1l-1.9-5v6.4h-1v-7.3Z"/>
            <path id="DejaVuSans-204" data-name="DejaVuSans-20" d="M666.3,42"/>
            <path id="DejaVuSans-531" data-name="DejaVuSans-53" d="M674.8,35v1c-.4-.2-.7-.3-1.1-.4-.3,0-.7-.1-1-.1-.5,0-1,.1-1.2.3-.3.2-.4.5-.4.9s0,.6.3.7c.2.2.6.3,1.1.4h.6c.7.3,1.3.5,1.6.9s.5.8.5,1.4-.2,1.2-.7,1.6c-.5.4-1.2.5-2.1.5s-.7,0-1.1-.1c-.4,0-.8-.2-1.2-.3v-1c.4.2.8.4,1.2.5.4.1.8.2,1.1.2.6,0,1-.1,1.3-.3.3-.2.5-.5.5-.9s-.1-.6-.3-.8-.6-.4-1.1-.5h-.6c-.7-.3-1.3-.5-1.6-.8-.3-.3-.5-.7-.5-1.3s.2-1.2.7-1.5c.5-.4,1.1-.6,1.9-.6s.7,0,1,0c.4,0,.7.2,1.1.3Z"/>
            <path id="DejaVuSans-695" data-name="DejaVuSans-69" d="M676.8,36.6h.9v5.5h-.9v-5.5ZM676.8,34.4h.9v1.1h-.9v-1.1Z"/>
            <path id="DejaVuSans-671" data-name="DejaVuSans-67" d="M683.1,39.2c0-.7-.1-1.2-.4-1.5-.3-.4-.6-.5-1.1-.5s-.9.2-1.1.5c-.3.4-.4.9-.4,1.5s.1,1.2.4,1.5c.3.4.6.5,1.1.5s.9-.2,1.1-.5c.3-.4.4-.9.4-1.5ZM684,41.4c0,.9-.2,1.6-.6,2.1-.4.5-1,.7-1.9.7s-.6,0-.9,0-.6-.1-.8-.2v-.9c.3.1.5.2.8.3.3,0,.5.1.8.1.6,0,1-.2,1.3-.5.3-.3.4-.8.4-1.4v-.4c-.2.3-.4.6-.7.7s-.6.2-1,.2c-.7,0-1.2-.3-1.6-.8-.4-.5-.6-1.2-.6-2s.2-1.5.6-2c.4-.5,1-.8,1.6-.8s.8,0,1,.2.5.4.7.7v-.8h.9v4.8Z"/>
            <path id="DejaVuSans-6e3" data-name="DejaVuSans-6e" d="M690.4,38.7v3.3h-.9v-3.3c0-.5-.1-.9-.3-1.2-.2-.3-.5-.4-.9-.4s-.9.2-1.1.5c-.3.3-.4.7-.4,1.3v3.1h-.9v-5.5h.9v.9c.2-.3.5-.6.8-.7.3-.2.6-.2,1-.2.6,0,1.1.2,1.4.6.3.4.5,1,.5,1.7Z"/>
            <path id="DejaVuSans-611" data-name="DejaVuSans-61" d="M694.7,39.3c-.7,0-1.2,0-1.5.2s-.4.4-.4.9.1.6.3.8c.2.2.5.3.9.3s.9-.2,1.2-.5.5-.8.5-1.4v-.2h-.9ZM696.5,38.9v3.1h-.9v-.8c-.2.3-.5.6-.8.7-.3.2-.7.2-1.1.2s-1-.2-1.3-.5c-.3-.3-.5-.7-.5-1.3s.2-1.1.6-1.4c.4-.3,1-.5,1.8-.5h1.3c0-.5-.1-.8-.4-1s-.7-.3-1.1-.3-.6,0-.9.1c-.3,0-.6.2-.9.3v-.8c.3-.1.6-.2,1-.3.3,0,.6,0,.9,0,.8,0,1.4.2,1.8.6.4.4.6,1,.6,1.9Z"/>
            <path id="DejaVuSans-6c2" data-name="DejaVuSans-6c" d="M698.4,34.4h.9v7.6h-.9v-7.6Z"/>
          </g>
        </g>
      </g>
    </g>
  </g>
</svg>