<?xml version="1.0" encoding="UTF-8"?>
<svg id="Ebene_1" xmlns="http://www.w3.org/2000/svg" xmlns:xlink="http://www.w3.org/1999/xlink" version="1.1" viewBox="0 0 1920 1037.3">
  <!-- Generator: Adobe Illustrator 29.4.0, SVG Export Plug-In . SVG Version: 2.1.0 Build 152)  -->
  <defs>
    <style>
      .st0, .st1, .st2, .st3, .st4, .st5, .st6, .st7, .st8, .st9, .st10, .st11 {
        fill: none;
      }

      .st1, .st2, .st3, .st4, .st5, .st6, .st7, .st8, .st9, .st10, .st11 {
        stroke: #000;
      }

      .st1, .st4 {
        stroke-width: 2.3px;
      }

      .st2 {
        stroke-width: 2.4px;
      }

      .st12 {
        fill: #89847e;
      }

      .st13 {
        font-family: HelveticaNeue, 'Helvetica Neue';
        font-size: 28.7px;
      }

      .st3 {
        stroke-dasharray: 12.2 9.8 4.9 12.2 9.8 4.9;
      }

      .st3, .st8 {
        stroke-width: 2.4px;
      }

      .st4 {
        stroke-dasharray: 11.4 9.1 4.6 11.4 9.1 4.6;
      }

      .st14 {
        fill: #4493c3;
      }

      .st15 {
        clip-path: url(#clippath-17);
      }

      .st16 {
        clip-path: url(#clippath-19);
      }

      .st17 {
        clip-path: url(#clippath-11);
      }

      .st18 {
        clip-path: url(#clippath-16);
      }

      .st19 {
        clip-path: url(#clippath-18);
      }

      .st20 {
        clip-path: url(#clippath-10);
      }

      .st21 {
        clip-path: url(#clippath-15);
      }

      .st22 {
        clip-path: url(#clippath-13);
      }

      .st23 {
        clip-path: url(#clippath-14);
      }

      .st24 {
        clip-path: url(#clippath-12);
      }

      .st25 {
        clip-path: url(#clippath-31);
      }

      .st26 {
        clip-path: url(#clippath-32);
      }

      .st27 {
        clip-path: url(#clippath-33);
      }

      .st28 {
        clip-path: url(#clippath-34);
      }

      .st29 {
        clip-path: url(#clippath-35);
      }

      .st30 {
        clip-path: url(#clippath-39);
      }

      .st31 {
        clip-path: url(#clippath-30);
      }

      .st32 {
        clip-path: url(#clippath-36);
      }

      .st33 {
        clip-path: url(#clippath-37);
      }

      .st34 {
        clip-path: url(#clippath-38);
      }

      .st35 {
        clip-path: url(#clippath-27);
      }

      .st36 {
        clip-path: url(#clippath-29);
      }

      .st37 {
        clip-path: url(#clippath-26);
      }

      .st38 {
        clip-path: url(#clippath-28);
      }

      .st39 {
        clip-path: url(#clippath-20);
      }

      .st40 {
        clip-path: url(#clippath-21);
      }

      .st41 {
        clip-path: url(#clippath-22);
      }

      .st42 {
        clip-path: url(#clippath-23);
      }

      .st43 {
        clip-path: url(#clippath-24);
      }

      .st44 {
        clip-path: url(#clippath-25);
      }

      .st45 {
        clip-path: url(#clippath-1);
      }

      .st46 {
        clip-path: url(#clippath-3);
      }

      .st47 {
        clip-path: url(#clippath-4);
      }

      .st48 {
        clip-path: url(#clippath-2);
      }

      .st49 {
        clip-path: url(#clippath-7);
      }

      .st50 {
        clip-path: url(#clippath-6);
      }

      .st51 {
        clip-path: url(#clippath-9);
      }

      .st52 {
        clip-path: url(#clippath-8);
      }

      .st53 {
        clip-path: url(#clippath-5);
      }

      .st5 {
        stroke-dasharray: 12.2 9.8 4.9 12.2 9.8 4.9;
      }

      .st5, .st9 {
        stroke-width: 2.4px;
      }

      .st54 {
        fill: #fff;
      }

      .st6, .st7 {
        stroke-miterlimit: 10;
      }

      .st55 {
        fill: #c5c3ba;
      }

      .st7 {
        stroke-width: 5px;
      }

      .st10 {
        stroke-width: 3.2px;
      }

      .st11 {
        stroke-width: 3px;
      }

      .st56 {
        clip-path: url(#clippath);
      }
    </style>
    <clipPath id="clippath">
      <rect class="st6" x="1081.2" y="318.9" width="707.5" height="268.4"/>
    </clipPath>
    <clipPath id="clippath-1">
      <rect class="st6" x="127" y="721.9" width="354.7" height="200.2"/>
    </clipPath>
    <clipPath id="clippath-2">
      <rect class="st6" x="127" y="721.9" width="354.7" height="200.2"/>
    </clipPath>
    <clipPath id="clippath-3">
      <rect class="st6" x="127" y="721.9" width="354.7" height="200.2"/>
    </clipPath>
    <clipPath id="clippath-4">
      <rect class="st6" x="127" y="721.9" width="354.7" height="200.2"/>
    </clipPath>
    <clipPath id="clippath-5">
      <rect class="st6" x="86.8" y="629.7" width="806.3" height="367.2"/>
    </clipPath>
    <clipPath id="clippath-6">
      <rect class="st0" x="350.3" y="654.5" width="319.7" height="51.6"/>
    </clipPath>
    <clipPath id="clippath-7">
      <rect class="st6" x="498.3" y="721.9" width="354.7" height="200.2"/>
    </clipPath>
    <clipPath id="clippath-8">
      <rect class="st6" x="498.3" y="721.9" width="354.7" height="200.2"/>
    </clipPath>
    <clipPath id="clippath-9">
      <rect class="st6" x="498.3" y="721.9" width="354.7" height="200.2"/>
    </clipPath>
    <clipPath id="clippath-10">
      <rect class="st6" x="498.3" y="721.9" width="354.7" height="200.2"/>
    </clipPath>
    <clipPath id="clippath-11">
      <rect class="st0" x="195.7" y="937" width="217.2" height="51.6"/>
    </clipPath>
    <clipPath id="clippath-12">
      <rect class="st0" x="587.1" y="937" width="177.1" height="51.6"/>
    </clipPath>
    <clipPath id="clippath-13">
      <rect class="st6" x="939.1" y="629.7" width="430.7" height="367.2"/>
    </clipPath>
    <clipPath id="clippath-14">
      <rect class="st0" x="980.3" y="654.5" width="348.4" height="51.6"/>
    </clipPath>
    <clipPath id="clippath-15">
      <rect class="st6" x="65.2" y="618.3" width="1323.6" height="402.8"/>
    </clipPath>
    <clipPath id="clippath-16">
      <rect class="st6" x="964.2" y="712.1" width="354.6" height="235.2"/>
    </clipPath>
    <clipPath id="clippath-17">
      <rect class="st6" x="964.2" y="712.1" width="354.6" height="235.2"/>
    </clipPath>
    <clipPath id="clippath-18">
      <rect class="st6" x="964.2" y="712.1" width="354.6" height="235.2"/>
    </clipPath>
    <clipPath id="clippath-19">
      <rect class="st6" x="964.2" y="712.1" width="354.6" height="235.2"/>
    </clipPath>
    <clipPath id="clippath-20">
      <rect class="st6" x="1461.9" y="727.9" width="354.6" height="203.6"/>
    </clipPath>
    <clipPath id="clippath-21">
      <rect class="st6" x="1461.9" y="727.9" width="354.6" height="203.6"/>
    </clipPath>
    <clipPath id="clippath-22">
      <rect class="st6" x="1461.9" y="727.9" width="354.6" height="203.6"/>
    </clipPath>
    <clipPath id="clippath-23">
      <rect class="st6" x="1461.9" y="727.9" width="354.6" height="203.6"/>
    </clipPath>
    <clipPath id="clippath-24">
      <rect class="st6" x="682.7" y="588.1" width="7.2" height="137.1"/>
    </clipPath>
    <clipPath id="clippath-25">
      <rect class="st6" x="-853.1" y="-471.5" width="2758.2" height="1551.5"/>
    </clipPath>
    <clipPath id="clippath-26">
      <rect class="st6" x="1423.9" y="629.7" width="430.7" height="367.2"/>
    </clipPath>
    <clipPath id="clippath-27">
      <rect class="st0" x="1465" y="654.5" width="348.4" height="51.6"/>
    </clipPath>
    <clipPath id="clippath-28">
      <rect class="st6" x="305" y="587" width="7.2" height="137.1"/>
    </clipPath>
    <clipPath id="clippath-29">
      <rect class="st6" x="-853.1" y="-471.5" width="2758.2" height="1551.5"/>
    </clipPath>
    <clipPath id="clippath-30">
      <rect class="st6" x="970.2" y="587" width="7.2" height="126.5"/>
    </clipPath>
    <clipPath id="clippath-31">
      <rect class="st6" x="-853.1" y="-471.5" width="2758.2" height="1551.5"/>
    </clipPath>
    <clipPath id="clippath-32">
      <rect class="st6" x="306.8" y="584.8" width="669.4" height="7.2"/>
    </clipPath>
    <clipPath id="clippath-33">
      <rect class="st6" x="756.1" y="440.4" width="7.2" height="150.2"/>
    </clipPath>
    <clipPath id="clippath-34">
      <rect class="st6" x="-853.1" y="-471.5" width="2758.2" height="1551.5"/>
    </clipPath>
    <clipPath id="clippath-35">
      <rect class="st6" x="1313.1" y="816.1" width="153.1" height="7.2"/>
    </clipPath>
    <clipPath id="clippath-36">
      <rect class="st6" x="756.3" y="435" width="328.4" height="7.2"/>
    </clipPath>
    <clipPath id="clippath-37">
      <rect class="st6" x="-853.1" y="-471.5" width="2758.2" height="1551.5"/>
    </clipPath>
    <clipPath id="clippath-38">
      <rect class="st6" x="1100.4" y="23.4" width="683.8" height="265.4"/>
    </clipPath>
    <clipPath id="clippath-39">
      <rect class="st0" x="-853.1" y="-471.5" width="2758.2" height="1551.5"/>
    </clipPath>
  </defs>
  <g>
    <g class="st56">
      <rect class="st10" x="1083.5" y="321.3" width="702.9" height="263.8"/>
      <rect class="st2" x="1083.5" y="321.3" width="702.9" height="263.8"/>
      <rect class="st14" x="1145.5" y="408.5" width="162.9" height="56.2"/>
      <rect class="st2" x="1145.5" y="408.5" width="162.9" height="56.2"/>
      <rect class="st14" x="1359.8" y="408.5" width="162.9" height="56.2"/>
      <rect class="st2" x="1359.8" y="408.5" width="162.9" height="56.2"/>
      <rect class="st14" x="1569.9" y="408.5" width="162.9" height="56.2"/>
      <rect class="st2" x="1569.9" y="408.5" width="162.9" height="56.2"/>
      <rect class="st14" x="1145.5" y="491" width="294.9" height="56.2"/>
      <rect class="st2" x="1145.5" y="491" width="294.9" height="56.2"/>
      <rect class="st14" x="1478.3" y="491" width="257.9" height="56.2"/>
      <rect class="st2" x="1478.3" y="491" width="257.9" height="56.2"/>
      <path d="M1573,361.6c0,7.4,5.8,12.9,12.4,12.9s9.3-4.9,9.3-9.1,0-.6-.5-.6-.4.2-.4.6c-.3,5.1-4.1,8-8,8s-9.1-1.2-9.1-11.8,6.9-11.8,9.1-11.8c3.9,0,7,3.2,7.8,8.4,0,.5,0,.6.6.6s.6-.1.6-.9v-8.4c0-.6,0-.9-.4-.9s-.3,0-.6.4l-1.8,2.6c-1.3-1.3-3.1-3.1-6.5-3.1-6.7,0-12.4,5.7-12.4,12.9M1559.1,373.7c1.2-.1,4.1-.1,5.4-.1s4.2,0,5.4.1v-1.1h-.9c-2.8,0-2.9-.4-2.9-1.7v-18.7c0-1.3.1-1.7,2.9-1.7h.9v-1.1c-1.2.1-4.1.1-5.4.1s-4.2,0-5.4-.1v1.1h.9c2.8,0,2.9.4,2.9,1.7v18.7c0,1.3-.1,1.7-2.9,1.7h-.9v1.1ZM1539.9,361.2v-9.2c0-.8,0-1.2.8-1.4.4,0,1.4,0,2.1,0,3.2,0,7.2.1,7.2,5.3s-.9,5.3-6.1,5.3h-3.9ZM1533.2,373.7c1.3-.1,3.8-.1,5.2-.1s3.9,0,5.2.1v-1.1h-.9c-2.7,0-2.8-.4-2.8-1.7v-9h4.1c.6,0,2.1,0,3.3,1.2,1.4,1.3,1.4,2.4,1.4,4.8s0,3.7,1.5,5.1c1.5,1.3,3.4,1.5,4.5,1.5,2.8,0,3.4-2.9,3.4-3.9s0-.6-.5-.6-.4.3-.4.6c-.2,2.5-1.5,3.2-2.3,3.2-1.7,0-2-1.8-2.5-5.1l-.5-2.8c-.6-2.3-2.4-3.5-4.3-4.1,3.5-.9,6.2-3,6.2-5.8s-4.1-6.4-9.3-6.4h-11.2v1.1h.9c2.7,0,2.8.4,2.8,1.7v18.7c0,1.3,0,1.7-2.8,1.7h-.9v1.1ZM1508.3,364.8c.2-5.3,3.2-6.2,4.4-6.2,3.7,0,4,4.8,4,6.2h-8.4ZM1505.3,365.9c0,4.8,3.7,8.2,7.8,8.2s5.9-3.9,5.9-4.6-.3-.4-.5-.4c-.3,0-.4.2-.5.5-1.2,3.7-4.4,3.7-4.8,3.7-1.8,0-3.2-1.1-4-2.4-1.1-1.7-1.1-4.1-1.1-5.3h9.9c.8,0,.9,0,.9-.7,0-3.5-1.9-7-6.4-7s-7.4,3.7-7.4,8.1M1475.8,373.7c1.2,0,3.1-.1,4-.1s2.8,0,4,.1v-1.1c-2.4,0-2.8,0-2.8-1.6v-6.5c0-3.7,2.5-5.7,4.8-5.7s2.6,1.9,2.6,3.9v8.3c0,1.6-.4,1.6-2.8,1.6v1.1c1.2,0,3.1-.1,4-.1s2.8,0,4,.1v-1.1c-2.4,0-2.8,0-2.8-1.6v-6.5c0-3.7,2.5-5.7,4.8-5.7s2.6,1.9,2.6,3.9v8.3c0,1.6-.4,1.6-2.8,1.6v1.1c1.2,0,3.1-.1,4-.1s2.8,0,4,.1v-1.1c-1.9,0-2.7,0-2.8-1.1v-6.8c0-3.1,0-4.2-1.1-5.4-.5-.6-1.7-1.3-3.7-1.3-3,0-4.6,2.1-5.2,3.5-.5-3.1-3.1-3.5-4.7-3.5-2.6,0-4.3,1.5-5.3,3.7v-3.7l-5,.4v1.1c2.5,0,2.8.2,2.8,2v9.5c0,1.6-.4,1.6-2.8,1.6v1.1ZM1466,373.7c1.1,0,3.1-.1,3.9-.1,1.2,0,2.5,0,3.7.1v-1.1c-2.4,0-2.5-.2-2.5-1.6v-13.1l-5,.4v1.1c2.3,0,2.6.2,2.6,2v9.6c0,1.6-.4,1.6-2.8,1.6v1.1ZM1467.5,351.8c0,1,.8,1.9,1.9,1.9s1.9-.7,1.9-1.9-.9-1.9-1.9-1.9-1.9,1-1.9,1.9M1451.7,359.5h3v9.8c0,4.4,3.3,4.8,4.6,4.8,2.5,0,3.5-2.5,3.5-4.8v-2h-.9v2c0,2.6-1.1,4-2.4,4-2.4,0-2.4-3.2-2.4-3.8v-9.9h5.1v-1.1h-5.1v-6.5h-.9c0,2.9-1.1,6.7-4.6,6.9v.8ZM1439.6,367.1h9.5v-2.1h-9.5v2.1ZM1430.5,373.7c1.2,0,3.1-.1,3.9-.1s2.6,0,4,.1v-1.1c-2.4,0-2.8,0-2.8-1.6v-22l-5.1.4v1.1c2.5,0,2.8.2,2.8,2v18.5c0,1.6-.4,1.6-2.8,1.6v1.1ZM1415.8,370.3c0-2,1.5-4.9,7.4-5.1v3.6c0,3.4-2.6,4.6-4.2,4.6s-3.2-1.2-3.2-3M1413.1,370.4c0,2.9,3.4,3.8,5.7,3.8s4-1.4,4.7-3.1c.1,1.4,1.1,2.9,2.8,2.9s2.9-.5,2.9-3.4v-2h-.9v2c0,2.1-.9,2.3-1.3,2.3-1.2,0-1.3-1.6-1.3-1.8v-7.1c0-1.5,0-2.9-1.3-4.2-1.4-1.4-3.2-2-4.9-2-2.9,0-5.4,1.7-5.4,4s.7,1.7,1.6,1.7,1.6-.7,1.6-1.6-.2-1.6-1.8-1.6c1-1.2,2.7-1.6,3.8-1.6,1.7,0,3.8,1.4,3.8,4.6v1.3c-1.8.1-4.3.2-6.5,1.3-2.7,1.2-3.6,3.1-3.6,4.6M1399.8,364.8c.2-5.3,3.2-6.2,4.4-6.2,3.7,0,4,4.8,4,6.2h-8.4ZM1396.8,365.9c0,4.8,3.7,8.2,7.8,8.2s5.9-3.9,5.9-4.6-.3-.4-.5-.4c-.3,0-.4.2-.5.5-1.2,3.7-4.4,3.7-4.8,3.7-1.8,0-3.2-1.1-4-2.4-1.1-1.7-1.1-4.1-1.1-5.3h9.9c.8,0,.9,0,.9-.7,0-3.5-1.9-7-6.4-7s-7.4,3.7-7.4,8.1M1382.9,373.7c1.4,0,3.1-.1,4.1-.1,1.4,0,3.1,0,4.5.1v-1.1h-.7c-2.6,0-2.7-.4-2.7-1.7v-5.5c0-3.5,1.5-6.7,4.2-6.7s.3,0,.4,0c-.1,0-.8.5-.8,1.4s.7,1.5,1.5,1.5,1.5-.4,1.5-1.6-1.1-2.2-2.6-2.2c-2.6,0-3.9,2.4-4.4,3.9v-3.9l-4.9.4v1.1c2.5,0,2.8.2,2.8,2v9.5c0,1.6-.4,1.6-2.8,1.6v1.1ZM1370.4,367.1h9.5v-2.1h-9.5v2.1ZM1357.1,373.7c1.4,0,3.1-.1,4.1-.1,1.4,0,3.1,0,4.5.1v-1.1h-.7c-2.6,0-2.7-.4-2.7-1.7v-5.5c0-3.5,1.5-6.7,4.2-6.7s.3,0,.4,0c-.1,0-.8.5-.8,1.4s.7,1.5,1.5,1.5,1.5-.4,1.5-1.6-1.1-2.2-2.6-2.2c-2.6,0-3.9,2.4-4.4,3.9v-3.9l-4.9.4v1.1c2.5,0,2.8.2,2.8,2v9.5c0,1.6-.4,1.6-2.8,1.6v1.1ZM1342.6,370.3c0-2,1.5-4.9,7.4-5.1v3.6c0,3.4-2.6,4.6-4.2,4.6s-3.2-1.2-3.2-3M1339.8,370.4c0,2.9,3.5,3.8,5.7,3.8s4-1.4,4.7-3.1c.1,1.4,1.1,2.9,2.8,2.9s2.9-.5,2.9-3.4v-2h-.9v2c0,2.1-.9,2.3-1.3,2.3-1.2,0-1.3-1.6-1.3-1.8v-7.1c0-1.5,0-2.9-1.3-4.2-1.4-1.4-3.2-2-4.9-2-2.9,0-5.4,1.7-5.4,4s.7,1.7,1.6,1.7,1.6-.7,1.6-1.6-.2-1.6-1.8-1.6c1-1.2,2.7-1.6,3.8-1.6,1.7,0,3.8,1.4,3.8,4.6v1.3c-1.8.1-4.3.2-6.5,1.3-2.7,1.2-3.6,3.1-3.6,4.6M1326.5,364.8c.2-5.3,3.2-6.2,4.4-6.2,3.7,0,4,4.8,4,6.2h-8.4ZM1323.5,365.9c0,4.8,3.7,8.2,7.8,8.2s5.9-3.9,5.9-4.6-.3-.4-.5-.4c-.3,0-.4.2-.5.5-1.2,3.7-4.4,3.7-4.8,3.7-1.8,0-3.2-1.1-4-2.4-1.1-1.7-1.1-4.1-1.1-5.3h9.9c.8,0,.9,0,.9-.7,0-3.5-1.9-7-6.4-7s-7.4,3.7-7.4,8.1M1297,373.7c1.2,0,3-.1,4.2-.1s2.9,0,4.2.1v-1.1c-3.7,0-3.7-1.7-3.7-2.6v-18.5c.2.2.2.2.4.4l14.5,21.3c.3.4.4.5.6.5.5,0,.5-.2.5-.9v-19.6c0-1,0-2.6,3.7-2.6v-1.1c-1.2,0-3,.1-4.2.1s-2.9,0-4.2-.1v1.1c3.7,0,3.7,1.7,3.7,2.6v15.2l-12.6-18.5c-.3-.4-.4-.5-1-.5h-6v1.1h1c.5,0,1.2,0,1.8,0,.8.1.9.1.9.8v18.6c0,1,0,2.6-3.7,2.6v1.1Z"/>
      <path class="st54" d="M1250.4,438.5c.8-4.6,4.7-9.4,7.7-9.4s1.4.8,1.4,2.5c0,2.9-1.4,7.3-3.4,10-.7,1.1-1.9,1.6-3.4,1.6s-2-.3-3-.8l.6-3.8ZM1251.6,444.9c2,0,6.2-2.7,7.8-4.9,1.5-2.2,2.7-6.2,2.7-8.9s-.8-4-2.1-4-3.4.9-5.3,2.6c-1.5,1.3-2.2,2.2-3.5,4.4l.9-4.3c.1-.6.2-1.2.2-1.6,0-.7-.3-1.1-.8-1.1-.8,0-2.1.8-4.8,2.7l-1,.7.3.7,1.2-.8c1-.7,1.4-.8,1.7-.8s.6.3.6.8,0,1-.1,1.4l-2.1,12.4c-.4,2.2-1.1,5.5-1.8,8.7l-.3,1.3.3.2c.8-.3,1.5-.4,2.6-.6l1.5-9.5c.8.3,1.6.5,2.2.5M1232.3,438.5c.8-4.6,4.7-9.4,7.7-9.4s1.4.8,1.4,2.5c0,2.9-1.5,7.3-3.4,10-.7,1.1-1.9,1.6-3.4,1.6s-2-.3-3-.8l.7-3.8ZM1233.5,444.9c2,0,6.2-2.7,7.8-4.9,1.5-2.2,2.7-6.2,2.7-8.9s-.8-4-2.1-4-3.4.9-5.3,2.6c-1.5,1.3-2.2,2.2-3.5,4.4l.9-4.3c.1-.6.2-1.2.2-1.6,0-.7-.3-1.1-.8-1.1-.8,0-2.1.8-4.8,2.7l-1,.7.3.7,1.2-.8c1-.7,1.4-.8,1.7-.8s.6.3.6.8,0,1-.1,1.4l-2.1,12.4c-.4,2.2-1.1,5.5-1.8,8.7l-.3,1.3.3.2c.8-.3,1.5-.4,2.7-.6l1.5-9.5c.8.3,1.6.5,2.2.5M1217.9,422.7l1.3,10.5h-7.8l6.5-10.5ZM1220.4,442.5c0,.6-.5.9-1.6,1h-1.6v1.1q3.7-.1,4.4-.1t4.4.1v-1h-.9c-1.7-.4-1.7-.4-2-2l-3.2-22.7h-1.7l-13.5,21.5c-1.3,2-2,2.6-3.2,2.9l-.7.2v1.1q3.3-.1,4.1-.1c.7,0,.8,0,3.9.1v-1h-1.9c-.6-.1-1.1-.5-1.1-.8s.3-.8.9-2l3.7-6.3h8.9l.9,6.8h0c0,.2.1.7.1,1.2M1182.1,444.4c.5.3,1.1.4,1.6.4,1.2,0,2.6-1.1,3.7-2.8l2.8-4.2.4,2.5c.5,3.1,1.3,4.5,2.6,4.5s2-.6,3.1-1.7l1.8-1.6-.3-.7c-1.3,1.1-2.2,1.6-2.8,1.6s-1-.4-1.4-1.1c-.3-.7-.7-2-.9-3.1l-.7-3.7,1.3-1.8c1.7-2.4,2.7-3.2,3.8-3.2s1,.3,1.2.8h.5c0-.1.5-3.2.5-3.2-.4-.3-.8-.4-1.1-.4-1.5,0-2.9,1.3-5.1,4.6l-1.3,2-.2-1.7c-.4-3.6-1.4-4.9-3.6-4.9s-1.7.3-2.1.8l-2.1,3,.6.4c1.1-1.2,1.8-1.7,2.5-1.7,1.2,0,2,1.5,2.6,5l.4,2.2-1.5,2.2c-1.6,2.4-2.8,3.6-3.8,3.6s-.9-.1-1-.3l-.4-1h-.7c0,1.4-.3,2.3-.4,3.3"/>
      <path class="st54" d="M1275,454.4v-.8h-1.3c-1.4-.2-1.7-.4-1.7-1.8v-15.3l-6.1,2.6.2,1.3,3.8-1.7v13.2c0,1.3-.3,1.6-1.7,1.7h-1.4v.8q3.9,0,4.2,0c.8,0,3.6,0,4,0"/>
      <path class="st54" d="M1467.2,440.7c.8-4.6,4.7-9.4,7.7-9.4s1.4.8,1.4,2.5c0,2.9-1.4,7.3-3.4,10-.7,1.1-1.9,1.6-3.4,1.6s-2-.3-3-.8l.7-3.8ZM1468.4,447.1c2,0,6.2-2.6,7.8-4.9,1.5-2.2,2.7-6.2,2.7-8.9s-.8-4-2.1-4-3.4.9-5.3,2.6c-1.5,1.3-2.2,2.2-3.5,4.4l.9-4.3c.1-.6.2-1.2.2-1.6,0-.7-.3-1.1-.8-1.1-.8,0-2.1.8-4.8,2.7l-1,.7.3.7,1.2-.8c1-.7,1.4-.8,1.7-.8s.6.3.6.8,0,1-.1,1.4l-2.1,12.4c-.4,2.2-1.1,5.5-1.8,8.7l-.3,1.3.3.2c.8-.3,1.5-.4,2.6-.6l1.5-9.5c.8.3,1.6.5,2.2.5M1449.1,440.7c.8-4.6,4.7-9.4,7.7-9.4s1.4.8,1.4,2.5c0,2.9-1.5,7.3-3.4,10-.7,1.1-1.9,1.6-3.4,1.6s-2-.3-3-.8l.6-3.8ZM1450.3,447.1c2,0,6.2-2.6,7.8-4.9,1.5-2.2,2.7-6.2,2.7-8.9s-.8-4-2.1-4-3.4.9-5.3,2.6c-1.5,1.3-2.2,2.2-3.5,4.4l.9-4.3c.1-.6.2-1.2.2-1.6,0-.7-.3-1.1-.8-1.1-.8,0-2.1.8-4.8,2.7l-1,.7.3.7,1.2-.8c1-.7,1.4-.8,1.7-.8s.6.3.6.8,0,1-.1,1.4l-2.1,12.4c-.4,2.2-1.1,5.5-1.8,8.7l-.3,1.3.3.2c.8-.3,1.5-.4,2.7-.6l1.5-9.5c.8.3,1.6.5,2.2.5M1434.7,424.9l1.3,10.5h-7.8l6.5-10.5ZM1437.2,444.7c0,.6-.5.9-1.6,1h-1.6v1.1q3.7-.1,4.4-.1t4.4.1v-1h-.9c-1.7-.4-1.7-.4-2-2l-3.2-22.7h-1.7l-13.5,21.5c-1.3,2-2,2.6-3.2,2.9l-.7.2v1.1q3.3-.1,4.1-.1c.7,0,.8,0,3.9.1v-1h-1.9c-.6-.1-1.1-.5-1.1-.8s.3-.8.9-2l3.7-6.3h8.9l.9,6.8h0c0,.2.1.7.1,1.2M1398.9,446.7c.5.3,1.1.4,1.6.4,1.2,0,2.6-1.1,3.7-2.8l2.8-4.2.4,2.5c.5,3.1,1.3,4.5,2.6,4.5s2-.6,3.1-1.7l1.8-1.6-.3-.7c-1.3,1.1-2.2,1.6-2.8,1.6s-1-.4-1.4-1.1c-.3-.7-.7-2-.9-3.1l-.7-3.7,1.3-1.8c1.7-2.4,2.7-3.2,3.8-3.2s1,.3,1.2.8h.5c0-.1.5-3.2.5-3.2-.4-.3-.8-.4-1.1-.4-1.5,0-2.9,1.3-5.2,4.6l-1.3,2-.2-1.7c-.4-3.6-1.4-4.9-3.6-4.9s-1.7.3-2.1.8l-2.1,3,.6.4c1.1-1.2,1.8-1.7,2.5-1.7,1.2,0,2,1.5,2.6,5l.4,2.2-1.5,2.2c-1.6,2.4-2.8,3.6-3.8,3.6s-.9-.1-1-.3l-.4-1h-.7c0,1.4-.3,2.3-.4,3.3"/>
      <path class="st54" d="M1481.5,455.9v.7c4.7,0,4.7,0,5.7,0s.9,0,5.8,0v-2.2c-2.9.1-4.1,0-8.8.1l4.6-4.9c2.5-2.6,3.2-4,3.2-5.9,0-2.9-2-4.7-5.2-4.7s-3.1.5-4.3,1.8l-.4,3.5h.7l.3-1.2c.4-1.5,1.3-2.1,3-2.1s3.6,1.4,3.6,3.5-1.1,3.8-3.9,6.8l-4.3,4.6Z"/>
      <path class="st54" d="M1677.2,440.7c.8-4.6,4.7-9.4,7.7-9.4s1.4.8,1.4,2.5c0,2.9-1.5,7.3-3.4,10-.7,1.1-1.9,1.6-3.4,1.6s-2-.3-3-.8l.6-3.8ZM1678.4,447.1c2,0,6.2-2.6,7.8-4.9,1.5-2.2,2.7-6.2,2.7-8.9s-.8-4-2.1-4-3.4.9-5.3,2.6c-1.5,1.3-2.2,2.2-3.5,4.4l.9-4.3c.1-.6.2-1.2.2-1.6,0-.7-.3-1.1-.8-1.1-.8,0-2.1.8-4.8,2.7l-1,.7.3.7,1.2-.8c1-.7,1.4-.8,1.7-.8s.6.3.6.8,0,1-.1,1.4l-2.1,12.4c-.4,2.2-1.1,5.5-1.8,8.7l-.3,1.3.3.2c.8-.3,1.5-.4,2.6-.6l1.5-9.5c.8.3,1.6.5,2.2.5M1659.1,440.7c.8-4.6,4.7-9.4,7.7-9.4s1.4.8,1.4,2.5c0,2.9-1.5,7.3-3.4,10-.7,1.1-1.9,1.6-3.4,1.6s-2-.3-3-.8l.7-3.8ZM1660.3,447.1c2,0,6.2-2.6,7.8-4.9,1.5-2.2,2.7-6.2,2.7-8.9s-.8-4-2.1-4-3.4.9-5.3,2.6c-1.5,1.3-2.2,2.2-3.5,4.4l.9-4.3c.1-.6.2-1.2.2-1.6,0-.7-.3-1.1-.8-1.1-.8,0-2.1.8-4.8,2.7l-1,.7.3.7,1.2-.8c1-.7,1.4-.8,1.7-.8s.6.3.6.8,0,1-.1,1.4l-2.1,12.4c-.4,2.2-1.1,5.5-1.8,8.7l-.3,1.3.3.2c.8-.3,1.5-.4,2.6-.6l1.5-9.5c.8.3,1.6.5,2.2.5M1644.7,424.9l1.3,10.5h-7.8l6.5-10.5ZM1647.3,444.7c0,.6-.5.9-1.6,1h-1.6v1.1q3.7-.1,4.4-.1t4.4.1v-1h-.9c-1.7-.4-1.7-.4-2-2l-3.2-22.7h-1.7l-13.5,21.5c-1.3,2-2,2.6-3.2,2.9l-.7.2v1.1q3.3-.1,4.1-.1c.7,0,.8,0,3.9.1v-1h-1.9c-.6-.1-1.1-.5-1.1-.8s.3-.8.9-2l3.7-6.3h8.9l.9,6.8h0c0,.2.1.7.1,1.2M1608.9,446.7c.5.3,1.1.4,1.6.4,1.2,0,2.6-1.1,3.7-2.8l2.8-4.2.4,2.5c.5,3.1,1.3,4.5,2.6,4.5s2-.6,3.1-1.7l1.8-1.6-.3-.7c-1.3,1.1-2.2,1.6-2.8,1.6s-1-.4-1.4-1.1c-.3-.7-.7-2-.9-3.1l-.7-3.7,1.3-1.8c1.7-2.4,2.7-3.2,3.8-3.2s1,.3,1.2.8h.5c0-.1.5-3.2.5-3.2-.4-.3-.8-.4-1.1-.4-1.5,0-2.9,1.3-5.2,4.6l-1.3,2-.2-1.7c-.4-3.6-1.4-4.9-3.6-4.9s-1.7.3-2.1.8l-2.1,3,.6.4c1.1-1.2,1.8-1.7,2.5-1.7,1.2,0,2,1.5,2.6,5l.4,2.2-1.5,2.2c-1.6,2.4-2.8,3.6-3.8,3.6s-.9-.1-1-.3l-.4-1h-.7c0,1.4-.3,2.3-.4,3.3"/>
      <path class="st54" d="M1702.9,450.8c0-3.1-2.7-3.6-3.9-3.8,2-1.6,2.8-2.7,2.8-4.2,0-2.3-1.9-3.8-4.7-3.8s-2.9.5-4.1,1.7l-.7,3.2h.8l.5-1.4c.3-.9,1.9-1.7,3.2-1.7s3,1.3,3,3-1.5,3.5-3.3,3.5-.5,0-.8,0h-.4s-.3,1.3-.3,1.3l.2.2c1-.4,1.4-.6,2.1-.6,2.1,0,3.3,1.3,3.3,3.7s-1.5,4.3-3.9,4.3-2.2-.4-3-1.1c-.6-.6-.9-1.1-1.4-2.5l-.7.3c.5,1.5.7,2.5.9,3.7,1.3.5,2.5.7,3.4.7,3.1,0,7.1-2.7,7.1-6.2"/>
      <path class="st54" d="M1388,516.2l.3.7,1.2-.8c1.3-.8,1.5-.9,1.7-.9.4,0,.7.4.7.9,0,1.9-1.5,8.9-3,14l.3.4c.9-.3,1.7-.5,2.5-.6.7-4.6,1.5-6.9,3.1-9.4,2-3,4.7-5.3,6.3-5.3s.6.3.6.9-.1,1.4-.4,2.6l-1.9,7.7c-.3,1.3-.5,2.2-.5,2.8,0,.9.4,1.5,1.1,1.5s2.2-.8,5.8-3.4l-.4-.7-.9.6c-1.1.7-1.8,1.1-2.2,1.1s-.5-.3-.5-.7,0-.6,0-.7l2.4-10c.3-1.1.4-2.1.4-2.7s-.4-1.3-1.1-1.3c-1.5,0-4,1.4-6.2,3.4-1.4,1.3-2.4,2.5-4.3,5.2l1.4-5.8c.1-.7.2-1.1.2-1.5,0-.8-.3-1.2-.8-1.2s-2.2.8-4.8,2.7l-1,.7ZM1379.8,514.2c2.2,0,3.4,1.6,3.4,4.7s-1.1,7.3-2.7,9.2c-.6.8-1.6,1.2-2.7,1.2-2.1,0-3.3-1.6-3.3-4.5,0-4.1,1.4-8.6,3.2-10,.5-.4,1.3-.6,2.2-.6M1371.7,524.8c0,3.8,1.6,5.9,4.6,5.9s4.2-.9,5.8-2.5c2.2-2.1,3.8-6.3,3.8-9.9s-1.8-5.5-4.8-5.5-9.5,3.6-9.5,12M1369.3,504.4c-1.1,0-2.1,1.2-2.1,2.4s.5,1.5,1.4,1.5,2-1.1,2-2.4-.5-1.5-1.3-1.5M1362.3,516.2l.3.7,1.2-.8c1.3-.8,1.5-.9,1.7-.9s.6.4.6.8-.1,1.1-.3,1.6l-2.4,8.7c-.3,1.1-.5,2.1-.5,2.8s.4,1.4,1.1,1.4,2.2-.8,5.8-3.4l-.4-.7-.9.6c-1.1.7-1.9,1.1-2.2,1.1s-.5-.4-.5-.7,0-.7.3-1.4l2.8-11c.1-.6.2-1,.2-1.3,0-.6-.3-.9-.9-.9s-2.1.8-4.9,2.7l-1,.7ZM1353.5,516.1l-2,10.3c0,.3-.5,1.7-.5,2.8s.4,1.5,1.1,1.5c1.3,0,2.5-.7,5.4-3l1.1-.9-.4-.7-1.6,1.1c-1.1.7-1.8,1.1-2.2,1.1s-.5-.3-.5-.7c0-.9.5-3.9,1.6-9.1l.5-2.2h3.9l.4-1.8c-1.4.1-2.6.2-4,.2.6-3.4,1-5.2,1.6-7.1l-.4-.5c-.7.4-1.7.9-2.8,1.3l-.9,6.2c-1.6.8-2.5,1.2-3.2,1.3v.5c0,0,3,0,3,0ZM1344.5,515.3c-.8,4-1.5,5.8-2.7,7.7-2.1,3-4.3,5.1-5.4,5.1s-.6-.5-.6-1.5c0-2.3,1-6.6,2.3-9.5.9-2,1.7-2.6,3.4-2.6s1.5.1,3.1.7M1342.8,522.9l-1.1,4.6c-.1.6-.2,1.3-.2,1.9s.3,1.3.9,1.3c.8,0,2.3-.9,5.3-3.4l-.3-.8c-.9.7-1.9,1.7-2.7,1.7s-.5-.3-.5-.8,0-.3,0-.4l3.3-13.8-.4-.3-1.2.7c-1.5-.5-2.1-.7-3.1-.7s-1.7.2-2.7.7c-2.2,1.1-3.4,2.2-4.4,4-1.6,3.2-2.7,7.6-2.7,10.4s.5,2.8,1.2,2.8c1.3,0,4.2-1.9,8.5-7.8M1313.7,516.2l.3.7,1.2-.8c1.3-.8,1.4-.9,1.7-.9.4,0,.6.4.6.9,0,1.9-1.5,8.9-3,14l.3.4c.9-.3,1.7-.5,2.5-.6.7-4.6,1.5-6.9,3.1-9.4,2-3,4.7-5.3,6.3-5.3s.6.3.6.9-.1,1.4-.4,2.6l-1.9,7.7c-.3,1.3-.5,2.2-.5,2.8,0,.9.4,1.5,1.1,1.5s2.3-.8,5.8-3.4l-.4-.7-.9.6c-1.1.7-1.9,1.1-2.2,1.1s-.5-.3-.5-.7,0-.6,0-.7l2.4-10c.3-1.1.4-2.1.4-2.7s-.4-1.3-1.1-1.3c-1.5,0-4,1.4-6.2,3.4-1.4,1.3-2.4,2.5-4.3,5.2l1.4-5.8c.1-.7.2-1.1.2-1.5,0-.8-.3-1.2-.8-1.2s-2.2.8-4.8,2.7l-1,.7ZM1311,504.4c-1.1,0-2.1,1.2-2.1,2.4s.5,1.5,1.4,1.5,2-1.1,2-2.4-.5-1.5-1.3-1.5M1304,516.2l.3.7,1.2-.8c1.3-.8,1.4-.9,1.7-.9.4,0,.7.4.7.8s-.1,1.1-.3,1.6l-2.4,8.7c-.3,1.1-.5,2.1-.5,2.8s.4,1.4,1.1,1.4,2.2-.8,5.8-3.4l-.4-.7-.9.6c-1.1.7-1.9,1.1-2.2,1.1s-.5-.4-.5-.7,0-.7.3-1.4l2.8-11c.1-.6.2-1,.2-1.3,0-.6-.3-.9-.9-.9s-2.1.8-4.9,2.7l-1,.7ZM1301,526.5l-.9.6c-1.1.7-1.9,1.1-2.2,1.1s-.5-.3-.5-.7,0-.7.3-1.4l2.7-10.8c.1-.6.3-1.2.3-1.5,0-.6-.4-1-.9-1-1.1,0-2.4.7-4.6,2.2-2.3,1.6-3.6,2.9-5.3,5.4l1.1-5c.1-.7.3-1.3.3-1.5,0-.7-.4-1.1-.9-1.1-1.1,0-2.8.8-4.8,2.3-1.6,1.2-2.3,2-4.7,5.2l1.2-4.8c.1-.6.2-1.1.2-1.6,0-.7-.3-1.1-.8-1.1-.8,0-2.1.8-4.8,2.7l-1,.7.2.7c1.3-.8,2.6-1.7,2.9-1.7.4,0,.7.4.7.9,0,1.9-1.5,8.9-3,14v.4c.1,0,2.6-.5,2.6-.5l.8-3.7c.9-4,1.9-6.2,3.8-8.3,1.5-1.7,3.2-2.8,4.2-2.8s.4.3.4.8c0,1.3-.8,5.4-2.3,11.8l-.6,2.4.2.4,2.5-.5.8-3.9c.6-2.9,1.8-5.7,3.4-7.4,2-2.2,3.8-3.5,5-3.5s.5.3.5.9c0,.9-.1,1.4-.9,4.5-1.4,5.8-2,6.5-2,8.5s.4,1.5,1.1,1.5,2.2-.8,5.8-3.4l-.4-.7ZM1273.8,517c.1-1.4.3-2.5.6-4-.4-.2-.5-.2-.7-.2-1.1,0-2.2.9-3.6,2.7-1.4,2-2.8,4.2-3.4,5.5l1.2-5.5c.1-.6.2-1.1.2-1.5,0-.7-.3-1.2-.8-1.2s-2.1.8-4.8,2.7l-1,.7.3.7,1.2-.8c1-.7,1.4-.8,1.7-.8s.6.3.6.8c0,2.1-1.6,9.6-3,14.2l.4.3c.5-.2,1.1-.3,2-.5h.5c0,0,.9-4.4.9-4.4.6-3,1.5-4.9,3.1-7,1.2-1.6,2.2-2.4,3-2.4s.9.2,1.3.7h.5ZM1250.5,520.3c.6-2.5,1.3-4.1,2.4-5,.7-.6,1.8-1,2.6-1s1.7.7,1.7,1.9-1.3,3.3-3.2,4.2c-1,.5-2.3.9-4,1.3l.3-1.3ZM1258.3,526.2l-.9.6c-1.9,1.4-3.7,2.1-5,2.1s-2.8-1.3-2.8-3.5.1-1.9.3-2.9c.6-.1,4.6-1.2,5.5-1.6,3.1-1.3,4.5-3,4.5-5.3s-1.2-2.8-3-2.8c-2.5-.5-6.5,2.1-7.8,4.8-1.1,1.8-2.2,6.1-2.2,8.6s1.6,4.5,4.2,4.5,4.1-1,7.4-3.7l-.3-.7ZM1238.4,506.8h2.6c2.8,0,4.1.2,4.2.6.1.3.2,1,.1,1.3v2.3c-.1,0,.9,0,.9,0l1-5.9h-3.3c-3.2,0-5.7.1-6.9.1s-3.7,0-6.8,0h-3.4s-.7,5.9-.7,5.9h1.1l.5-2.2c.2-.8.4-1.4.6-1.6.2-.3,1.6-.5,2.9-.5h4.1l-3.1,18.9c-.6,3.3-.7,3.4-2.1,3.5h-1.8c0,.1-.1,1.1-.1,1.1h2.1c1.5,0,2.5-.1,3.1-.1s1.8,0,3.2,0h1.6s.1-1,.1-1h-2.1c-.9-.1-1.3-.4-1.3-1.2s0-.6.1-1.3l3.4-20.1ZM1197.7,529.4v.9c6.8,0,6.8-.1,8.1-.1s1.3.1,8.3.1v-3.1c-4.2.2-5.8,0-12.6.2l6.6-7c3.5-3.7,4.6-5.7,4.6-8.5,0-4.2-2.8-6.7-7.4-6.7s-4.4.7-6.2,2.5l-.6,4.9h1.1l.5-1.7c.6-2.1,1.9-3,4.3-3s5.1,2,5.1,5-1.5,5.4-5.6,9.8l-6.2,6.6ZM1183,518.2h9c0,.1.7-1.5.7-1.5v-.3c-3.1.1-5.3.2-8.1.2h-1.3l1.7-9.8c1.2,0,4.2-.1,5-.1,2.3,0,3.7.3,3.8.9l.3,3.2h.9c.1-2.3.4-4.1.8-5.5-.8,0-1.8-.1-2.5-.1s-.5,0-1.4,0h-4.4c-.3,0-6.6,0-7,0h-1.6s-.1,1-.1,1h2c.9.1,1.3.4,1.3,1.1s-.1,1.7-.3,2.8l-3.2,18.3c-.1.7-.6.9-2.2,1.2l-.2.9h1.5c1.1,0,3.4-.1,4.1-.1h8.2c.5.1,1.4,0,2.6,0h1.2s.1-1.3.1-1.3c0-.7.3-1.8.6-3.6l.2-.9h-1l-.6,2.2c-.4,1.3-.7,1.7-1.5,1.9-.7.1-3.4.3-5.3.3s-2.5,0-5-.3l1.8-10.4Z"/>
      <path class="st54" d="M1658.6,520.3c.6-2.5,1.3-4.1,2.4-5,.6-.6,1.8-1,2.6-1s1.7.7,1.7,1.9-1.3,3.3-3.2,4.2c-1,.5-2.3.9-4,1.3l.3-1.3ZM1666.4,526.2l-.9.6c-1.9,1.4-3.7,2.1-5,2.1s-2.8-1.3-2.8-3.5.1-1.9.3-2.9c.6-.1,4.6-1.2,5.5-1.6,3.1-1.3,4.5-3,4.5-5.3s-1.2-2.8-3-2.8c-2.5-.5-6.5,2.1-7.8,4.8-1.1,1.8-2.2,6.1-2.2,8.6s1.6,4.5,4.2,4.5,4.1-1,7.4-3.7l-.3-.7ZM1641.5,524.9c-.2,1.8-.4,3.1-.8,4.8,1.4.7,2.6,1,3.9,1s3.4-.7,5.3-2.1c1.9-1.5,2.6-2.8,2.6-4.6s-1.2-3-3.8-3.5l-1.6-.3c-2.2-.4-2.9-1-2.9-2.5s1.6-3.4,3.7-3.4,2.9.7,3.4,1.6v2h.8c.1-1.3.3-2.2.7-4.1-1.4-.7-2.4-1-3.6-1-1.9,0-4.1,1.1-5.8,2.8-.9,1-1.3,1.9-1.3,3.2,0,2,1.1,3.2,3.5,3.7l2.3.4c1.6.3,2.2.9,2.2,2.4,0,2.4-1.7,4-4.2,4s-2.4-.4-3.4-1.3v-3h-.9ZM1635.9,515.3c-.8,4-1.5,5.8-2.7,7.7-2.1,3-4.3,5.1-5.4,5.1s-.7-.5-.7-1.5c0-2.3,1-6.6,2.3-9.5.9-2,1.7-2.6,3.4-2.6s1.5.1,3.1.7M1634.2,522.9l-1.1,4.6c-.1.6-.2,1.3-.2,1.9s.3,1.3.9,1.3c.8,0,2.3-.9,5.3-3.4l-.3-.8c-.9.7-1.9,1.7-2.7,1.7s-.5-.3-.5-.8,0-.3,0-.4l3.3-13.8-.4-.3-1.2.7c-1.5-.5-2.1-.7-3.1-.7s-1.7.2-2.7.7c-2.2,1.1-3.4,2.2-4.4,4-1.6,3.2-2.7,7.6-2.7,10.4s.5,2.8,1.2,2.8c1.3,0,4.2-1.9,8.5-7.8M1619.2,514.9c.9,0,1.4.8,1.4,2.6s-.8,5.4-1.9,7.8c-1.2,2.5-2.6,3.7-4.6,3.7s-2.6-.8-2.6-2.4.5-6.4,3.5-9.4c1.2-1.2,3.1-2.3,4.1-2.3M1616.1,504.1l-.4-.4c-1.9.9-3.2,1.3-5.8,1.5v.8c-.1,0,1.6,0,1.6,0,.9,0,1.2.3,1.2.9s0,.7,0,.9l-3.7,20c0,.1,0,.3,0,.4,0,1.4,1.7,2.6,3.7,2.6s3.2-.7,4.8-1.8c3.5-2.5,5.9-7.4,5.9-12.2s-.3-2.8-.8-3.3c-.3-.3-.7-.5-1.3-.5-.9,0-2,.3-3,.8-1.8,1-3,2.1-5.3,4.9l3.1-14.4ZM1603.1,515.3c-.8,4-1.5,5.8-2.7,7.7-2.1,3-4.3,5.1-5.4,5.1s-.6-.5-.6-1.5c0-2.3,1-6.6,2.3-9.5.9-2,1.7-2.6,3.4-2.6s1.5.1,3.1.7M1601.3,522.9l-1.1,4.6c-.1.6-.2,1.3-.2,1.9s.3,1.3.9,1.3c.8,0,2.3-.9,5.3-3.4l-.3-.8c-.9.7-1.9,1.7-2.7,1.7s-.5-.3-.5-.8,0-.3,0-.4l3.3-13.8-.4-.3-1.2.7c-1.5-.5-2.1-.7-3.1-.7s-1.7.2-2.7.7c-2.2,1.1-3.4,2.2-4.4,4-1.6,3.2-2.7,7.6-2.7,10.4s.5,2.8,1.2,2.8c1.3,0,4.2-1.9,8.5-7.8M1584,516.1l-2,10.3c0,.3-.5,1.7-.5,2.8s.4,1.5,1.1,1.5c1.3,0,2.5-.7,5.4-3l1.1-.9-.4-.7-1.6,1.1c-1.1.7-1.8,1.1-2.2,1.1s-.5-.3-.5-.7c0-.9.5-3.9,1.6-9.1l.5-2.2h3.9l.4-1.8c-1.4.1-2.6.2-4,.2.6-3.4,1-5.2,1.6-7.1l-.4-.5c-.7.4-1.7.9-2.8,1.3l-.9,6.2c-1.6.8-2.5,1.2-3.2,1.3v.5c0,0,3,0,3,0ZM1574.9,515.3c-.8,4-1.5,5.8-2.7,7.7-2.1,3-4.3,5.1-5.4,5.1s-.7-.5-.7-1.5c0-2.3,1-6.6,2.3-9.5.9-2,1.7-2.6,3.4-2.6s1.5.1,3.1.7M1573.2,522.9l-1.1,4.6c-.1.6-.2,1.3-.2,1.9s.3,1.3.9,1.3c.8,0,2.3-.9,5.3-3.4l-.3-.8c-.9.7-1.9,1.7-2.7,1.7s-.5-.3-.5-.8,0-.3,0-.4l3.3-13.8-.4-.3-1.2.7c-1.5-.5-2.1-.7-3.1-.7s-1.7.2-2.7.7c-2.2,1.1-3.4,2.2-4.4,4-1.6,3.2-2.7,7.6-2.7,10.4s.5,2.8,1.2,2.8c1.3,0,4.2-1.9,8.4-7.8M1549.1,506.5c6.6,0,9.6,2.8,9.6,8.7s-3.6,13.6-11.6,13.6-3.4-.2-5.8-.5c0-.4,0-.7.1-1.3l3.5-20.2c.8,0,2.9-.2,4.2-.2M1546.7,530.4c2.6,0,4.4-.4,6.3-1.3,5.7-2.9,9.1-8.4,9.1-14.4s-1.1-6.1-3.3-7.7c-1.7-1.2-4.7-1.8-8.2-1.8h-7.4c0,.1-.4.1-.4.1-.3,0-.4,0-4.1-.1v1c-.1,0,1.8,0,1.8,0,.9,0,1.3.3,1.3,1s-.1,1.7-.3,2.8l-3.2,18.3c-.2.9-1.1.9-1.9,1.2l-.2.9h3.4c0-.1,2-.1,2-.1,1.3,0,3.8.1,5.1.1"/>
    </g>
    <rect class="st6" x="1081.2" y="318.9" width="707.5" height="268.4"/>
  </g>
  <g>
    <g class="st45">
      <rect class="st14" x="128.7" y="723.6" width="351.2" height="196.7"/>
    </g>
    <rect class="st6" x="127" y="721.9" width="354.7" height="200.2"/>
  </g>
  <g>
    <g class="st48">
      <rect class="st5" x="128.7" y="723.6" width="351.2" height="196.7"/>
    </g>
    <rect class="st6" x="127" y="721.9" width="354.7" height="200.2"/>
  </g>
  <g>
    <g class="st46">
      <rect class="st12" x="170.9" y="786.8" width="259.9" height="49.2"/>
      <rect class="st9" x="170.9" y="786.8" width="259.9" height="49.2"/>
      <rect class="st12" x="170.9" y="836" width="259.9" height="49.2"/>
      <rect class="st9" x="170.9" y="836" width="259.9" height="49.2"/>
    </g>
    <rect class="st6" x="127" y="721.9" width="354.7" height="200.2"/>
  </g>
  <g>
    <g class="st47">
      <path class="st54" d="M370,751.4l2.5-10.1c.3-1.3.6-1.3,1.8-1.3h3.2c2.6,0,4.5,1,4.5,3.3s-.6,4.3-2,6c-1.3,1.4-3.1,2.1-5.3,2.1h-4.6ZM360.6,763.6c0,.4.4.4.5.4,1.4,0,2.9-.1,4.3-.1s3,.1,4.4.1.7,0,.7-.7-.3-.5-1-.5c-2.1,0-2.1-.3-2.1-.6s0-.2.1-.7l2.3-9.1h5.7c4.6,0,9.6-3.8,9.6-8.1s-2.5-5.5-6.5-5.5h-11.1c-.6,0-1,0-1,.7s.3.4,1,.4c1.1,0,2.1,0,2.1.6s0,.2-.1.7l-5,20c-.3,1.3-.5,1.6-3,1.6s-1,0-1,.7M337.5,755c0,6.1,3.9,9.8,9,9.8s11.2-7.9,11.2-9.7-.4-.4-.6-.4-.5,0-.6.3c-1.9,6.2-6.5,8.6-9.5,8.6s-6.3-2.1-6.3-7.3.9-8.1,3.9-12.1c2.5-3.4,5.9-5.1,8.7-5.1s5.2,3.5,5.2,6.7-.2,2.1-.2,2.2c0,.4.4.4.5.4.4,0,.5,0,.7-.7l2.3-9c0-.1,0-.4,0-.5s0-.4-.4-.4-.3,0-.6.4l-2.3,2.7c-1.6-2.5-3.7-3.1-5.6-3.1-7.6,0-15.5,8.3-15.5,17M321.9,756.6c0,.5.4.5.8.5h7.4c.2,0,.4,0,.6-.1.4-.2.5-1.4.5-1.4,0-.5-.4-.5-.8-.5h-7.3c-.2,0-.3,0-.5,0-.5.2-.6,1.5-.6,1.5M298.8,757.9c0,4.4,3.1,6.9,6.6,6.9s8.8-4.8,9.8-8.8l3.4-13.5c.6-2.4,2.7-2.5,3.7-2.5.1,0,.6,0,.6-.7s-.1-.5-.5-.5c-1.1,0-2.3.1-3.5.1s-2.4-.1-3.5-.1-.7,0-.7.7.3.4.7.4c1.9,0,2.2.8,2.2,1.6s0,.6-.1.9l-3.3,13.1c-1.2,4.8-5.1,8.1-8.6,8.1s-3.9-1.3-3.9-4.6.2-2,.4-2.8l3.7-14.8c.3-1.2.6-1.5,2.9-1.5s1.1,0,1.1-.7-.3-.5-.5-.5c-1.4,0-2.9.1-4.3.1s-3-.1-4.4-.1-.7,0-.7.7.3.4,1,.4c1.1,0,2.1,0,2.1.6s0,.2-.1.7l-3.5,14.2c-.3,1.2-.3,2-.3,2.4M270.5,755c0,6.1,3.9,9.8,9,9.8,7.2,0,11.2-7.9,11.2-9.7s-.4-.4-.6-.4-.5,0-.6.3c-1.9,6.2-6.5,8.6-9.5,8.6s-6.3-2.1-6.3-7.3.9-8.1,3.9-12.1c2.5-3.4,5.9-5.1,8.7-5.1s5.2,3.5,5.2,6.7-.2,2.1-.2,2.2c0,.4.4.4.6.4.4,0,.5,0,.7-.7l2.2-9c0-.1,0-.4,0-.5s0-.4-.4-.4-.3,0-.6.4l-2.3,2.7c-1.6-2.5-3.7-3.1-5.6-3.1-7.6,0-15.5,8.3-15.5,17M255,756.6c0,.5.4.5.8.5h7.4c.2,0,.4,0,.6-.1.4-.2.5-1.4.5-1.4,0-.5-.4-.5-.8-.5h-7.3c-.2,0-.3,0-.5,0-.5.2-.6,1.5-.6,1.5M232.3,756.5c0-1.7.5-6.9,3.1-11.4,2-3.5,5.3-6.2,8.5-6.2s5.5,2.2,5.5,7.2-1.3,8.1-3.3,11.5c-2.4,4.1-5.7,6.3-8.4,6.3s-5.4-3-5.4-7.4M229,755.3c0,5.6,3.5,9.5,8.5,9.5,7.4,0,15.1-8.3,15.1-17.2s-3.8-9.6-8.4-9.6c-7.6,0-15.2,8.7-15.2,17.3"/>
      <path class="st54" d="M317.5,811.1c0,7.6,6,13.4,12.8,13.4s9.6-5.1,9.6-9.4,0-.6-.5-.6-.4.2-.4.6c-.3,5.3-4.2,8.3-8.3,8.3s-9.5-1.3-9.5-12.2,7.2-12.3,9.4-12.3c4,0,7.3,3.4,8,8.7,0,.5,0,.6.6.6s.6-.1.6-.9v-8.7c0-.6,0-.9-.4-.9s-.3,0-.6.4l-1.8,2.7c-1.4-1.3-3.2-3.2-6.8-3.2-6.9,0-12.8,5.9-12.8,13.4M297.6,810.7v-9.6c0-.8,0-1.3.8-1.4.4,0,1.4,0,2.2,0,3.3,0,7.5.1,7.5,5.5s-.9,5.5-6.3,5.5h-4.1ZM290.6,823.7c1.3-.1,3.9-.1,5.4-.1s4.1,0,5.4.1v-1.1h-.9c-2.8,0-2.9-.4-2.9-1.7v-9.3h4.2c.6,0,2.1,0,3.4,1.3,1.4,1.3,1.4,2.5,1.4,4.9s0,3.9,1.5,5.3c1.5,1.3,3.5,1.5,4.6,1.5,2.9,0,3.5-3,3.5-4.1s0-.6-.5-.6-.4.3-.4.6c-.2,2.6-1.5,3.3-2.4,3.3-1.8,0-2.1-1.9-2.6-5.3l-.5-2.9c-.7-2.4-2.5-3.6-4.5-4.3,3.6-.9,6.5-3.1,6.5-6s-4.2-6.6-9.6-6.6h-11.6v1.1h.9c2.8,0,2.9.4,2.9,1.7v19.4c0,1.3,0,1.7-2.9,1.7h-.9v1.1ZM270.4,810.7v-9.6c0-.8,0-1.3.8-1.4.4,0,1.4,0,2.2,0,3.3,0,7.5.1,7.5,5.5s-.9,5.5-6.3,5.5h-4.1ZM263.5,823.7c1.3-.1,3.9-.1,5.4-.1s4.1,0,5.4.1v-1.1h-.9c-2.8,0-2.9-.4-2.9-1.7v-9.3h4.2c.6,0,2.1,0,3.4,1.3,1.4,1.3,1.4,2.5,1.4,4.9s0,3.9,1.5,5.3c1.5,1.3,3.5,1.5,4.7,1.5,2.9,0,3.5-3,3.5-4.1s0-.6-.5-.6-.4.3-.4.6c-.2,2.6-1.5,3.3-2.4,3.3-1.8,0-2.1-1.9-2.6-5.3l-.5-2.9c-.7-2.4-2.5-3.6-4.5-4.3,3.6-.9,6.5-3.1,6.5-6s-4.2-6.6-9.6-6.6h-11.6v1.1h.9c2.8,0,2.9.4,2.9,1.7v19.4c0,1.3,0,1.7-2.9,1.7h-.9v1.1Z"/>
      <path class="st54" d="M343.2,860.3v-10c0-1.2,0-1.5,1.8-1.5h3.3c5.9,0,5.9,3.9,5.9,5.7s0,5.7-5.9,5.7h-5.1ZM336.3,872.9c1.3-.1,4-.1,5.4-.1s4.2,0,5.5.1v-1.1h-.9c-2.8,0-2.9-.4-2.9-1.7v-8.8h6.2c4.4,0,8.4-3,8.4-6.7s-3.6-6.9-8.7-6.9h-13v1.1h.9c2.8,0,2.9.4,2.9,1.7v19.4c0,1.3,0,1.7-2.9,1.7h-.9v1.1ZM310.4,860.3c0,7.6,6,13.4,12.8,13.4s9.6-5.1,9.6-9.4,0-.6-.5-.6-.4.2-.4.6c-.3,5.3-4.2,8.3-8.3,8.3s-9.5-1.3-9.5-12.2,7.2-12.3,9.4-12.3c4,0,7.3,3.4,8,8.7,0,.5,0,.6.6.6s.6-.1.6-.9v-8.7c0-.6,0-.9-.4-.9s-.3,0-.6.4l-1.8,2.7c-1.4-1.3-3.2-3.2-6.8-3.2-6.9,0-12.8,5.9-12.8,13.4M288.5,870.3v-19.9c0-1.2,0-1.5,1.8-1.5h3.7c2.3,0,4.8.8,6.7,3.4,1.6,2.2,1.9,5.3,1.9,8.2,0,4.1-.7,6.3-2,8.1-.7,1-2.8,3.1-6.6,3.1h-3.7c-1.7,0-1.8-.3-1.8-1.5M281.5,872.9h13.5c6.2,0,11.3-5.5,11.3-12.4s-5-12.8-11.3-12.8h-13.5v1.1h.9c2.8,0,2.9.4,2.9,1.7v19.4c0,1.3,0,1.7-2.9,1.7h-.9v1.1ZM263.4,860.3v-10c0-1.2,0-1.5,1.8-1.5h3.3c5.9,0,5.9,3.9,5.9,5.7s0,5.7-5.9,5.7h-5.1ZM256.4,872.9c1.3-.1,4-.1,5.4-.1s4.2,0,5.5.1v-1.1h-.9c-2.8,0-2.9-.4-2.9-1.7v-8.8h6.2c4.4,0,8.4-3,8.4-6.7s-3.7-6.9-8.7-6.9h-13v1.1h.9c2.8,0,2.9.4,2.9,1.7v19.4c0,1.3,0,1.7-2.9,1.7h-.9v1.1Z"/>
    </g>
    <rect class="st6" x="127" y="721.9" width="354.7" height="200.2"/>
  </g>
  <g>
    <g class="st53">
      <rect class="st11" x="90.4" y="633.3" width="799.1" height="360.1"/>
    </g>
    <rect class="st6" x="86.8" y="629.7" width="806.3" height="367.2"/>
  </g>
  <g class="st50">
    <g>
      <path d="M369.3,691c-1.9,0-3.5-.4-4.9-1.3-1.4-.9-2.5-2.1-3.2-3.6-.8-1.6-1.1-3.4-1.1-5.5h0c0-2.1.4-4,1.1-5.5.8-1.6,1.8-2.8,3.2-3.6,1.4-.9,3-1.3,4.9-1.3s2.7.3,3.8.8c1.2.5,2.1,1.3,2.9,2.2s1.3,2.1,1.5,3.4h0c0,.1-2.6.1-2.6.1v-.3c-.4-.8-.8-1.5-1.3-2.1s-1.2-1-1.9-1.3c-.7-.3-1.6-.5-2.6-.5s-2.5.3-3.5,1c-1,.7-1.8,1.6-2.3,2.8-.5,1.2-.8,2.6-.8,4.3h0c0,1.7.3,3.1.8,4.3.5,1.2,1.3,2.2,2.3,2.8,1,.7,2.2,1,3.5,1s1.8-.2,2.5-.5,1.4-.8,1.9-1.4c.5-.6.9-1.3,1.2-2.2h0c0-.1,2.6-.1,2.6-.1h0c-.3,1.4-.8,2.6-1.5,3.5-.8,1-1.7,1.7-2.9,2.2-1.1.5-2.4.8-3.8.8Z"/>
      <path d="M385.6,690.9c-1.3,0-2.5-.3-3.5-.9s-1.8-1.5-2.4-2.6c-.6-1.1-.8-2.5-.8-4h0c0-1.6.3-2.9.8-4,.6-1.1,1.4-2,2.4-2.6,1-.6,2.2-.9,3.5-.9s2.5.3,3.5.9c1,.6,1.8,1.5,2.4,2.6.6,1.1.8,2.5.8,4h0c0,1.6-.3,2.9-.8,4.1s-1.4,2-2.4,2.6-2.2.9-3.5.9ZM385.6,688.8c.9,0,1.6-.2,2.2-.6.6-.4,1.1-1,1.5-1.9.4-.8.5-1.8.5-2.9h0c0-1.2-.2-2.1-.5-2.9-.4-.8-.8-1.4-1.5-1.8s-1.4-.6-2.3-.6-1.6.2-2.2.6c-.6.4-1.1,1-1.5,1.8-.4.8-.5,1.8-.5,2.9h0c0,1.2.2,2.1.5,3,.4.8.9,1.4,1.5,1.9.6.4,1.4.6,2.3.6Z"/>
      <path d="M394.2,690.7v-14.6h2.4v2.1h0c.4-.7,1-1.2,1.7-1.7.7-.4,1.7-.7,2.8-.7,1.6,0,2.8.5,3.7,1.5.9,1,1.3,2.3,1.3,3.9v9.5h-2.4v-9c0-1.2-.3-2.1-.8-2.7-.6-.6-1.4-.9-2.5-.9s-1.4.2-2,.5c-.6.3-1,.8-1.3,1.4s-.5,1.3-.5,2.2v8.6h-2.4Z"/>
      <path d="M413.4,690.9c-1.3,0-2.3-.3-3-1-.7-.6-1-1.7-1-3v-8.9h-2.1v-2h2.1v-3.9h2.5v3.9h2.8v2h-2.8v8.8c0,.8.2,1.3.5,1.6.3.3.8.4,1.5.4s.3,0,.4,0c.1,0,.3,0,.4,0v2c-.1,0-.3,0-.6,0-.2,0-.5,0-.7,0Z"/>
      <path d="M416.7,690.7v-14.6h2.4v2.5h0c.2-.8.7-1.5,1.3-2,.6-.5,1.3-.7,2.1-.7s.4,0,.6,0c.2,0,.3,0,.4,0v2.4c0,0-.3,0-.5,0-.2,0-.5,0-.8,0-.6,0-1.2.1-1.6.4s-.8.7-1.1,1.2-.4,1.2-.4,1.9v9h-2.4Z"/>
      <path d="M430.5,690.9c-1.3,0-2.5-.3-3.5-.9s-1.8-1.5-2.4-2.6c-.6-1.1-.8-2.5-.8-4h0c0-1.6.3-2.9.8-4,.6-1.1,1.4-2,2.4-2.6,1-.6,2.2-.9,3.5-.9s2.5.3,3.5.9c1,.6,1.8,1.5,2.4,2.6.6,1.1.8,2.5.8,4h0c0,1.6-.3,2.9-.8,4.1s-1.4,2-2.4,2.6-2.2.9-3.5.9ZM430.5,688.8c.9,0,1.6-.2,2.2-.6.6-.4,1.1-1,1.5-1.9.4-.8.5-1.8.5-2.9h0c0-1.2-.2-2.1-.5-2.9-.4-.8-.8-1.4-1.5-1.8s-1.4-.6-2.3-.6-1.6.2-2.2.6c-.6.4-1.1,1-1.5,1.8-.4.8-.5,1.8-.5,2.9h0c0,1.2.2,2.1.5,3,.4.8.9,1.4,1.5,1.9.6.4,1.4.6,2.3.6Z"/>
      <path d="M439.2,690.7v-20.2h2.4v20.2h-2.4Z"/>
      <path d="M458,691c-1.7,0-3.1-.3-4.3-.9-1.2-.6-2.1-1.5-2.8-2.6-.6-1.1-1-2.4-1-3.9v-13.1h2.5v13c0,1,.2,2,.7,2.7.4.8,1.1,1.4,1.9,1.9.8.4,1.8.7,3,.7s2.2-.2,3-.7c.8-.4,1.4-1.1,1.9-1.9.4-.8.6-1.7.6-2.7v-13h2.5v13.1c0,1.5-.3,2.8-1,3.9-.6,1.1-1.6,2-2.8,2.6-1.2.6-2.6.9-4.3.9Z"/>
      <path d="M469,690.7v-14.6h2.4v2.1h0c.4-.7,1-1.2,1.7-1.7.7-.4,1.7-.7,2.8-.7,1.6,0,2.8.5,3.7,1.5.9,1,1.3,2.3,1.3,3.9v9.5h-2.4v-9c0-1.2-.3-2.1-.8-2.7-.6-.6-1.4-.9-2.5-.9s-1.4.2-2,.5c-.6.3-1,.8-1.3,1.4s-.5,1.3-.5,2.2v8.6h-2.4Z"/>
      <path d="M484.8,673.6c-.4,0-.8-.2-1.1-.4-.3-.3-.4-.7-.4-1.1s.1-.8.4-1.1c.3-.3.7-.4,1.1-.4s.8.1,1.1.4c.3.3.4.7.4,1.1s-.1.8-.4,1.1c-.3.3-.7.4-1.1.4ZM483.6,690.7v-14.6h2.4v14.6h-2.4Z"/>
      <path d="M493.5,690.9c-1.3,0-2.3-.3-3-1-.7-.6-1-1.7-1-3v-8.9h-2.1v-2h2.1v-3.9h2.5v3.9h2.8v2h-2.8v8.8c0,.8.2,1.3.5,1.6.3.3.8.4,1.5.4s.3,0,.4,0c.1,0,.3,0,.4,0v2c-.1,0-.3,0-.6,0-.2,0-.5,0-.7,0Z"/>
      <path d="M507.1,695.6c-.9-1.2-1.7-2.4-2.3-3.7s-1-2.7-1.3-4.2-.4-3-.4-4.7.1-3.2.4-4.7c.3-1.5.7-2.9,1.3-4.2.6-1.3,1.3-2.5,2.2-3.7h2c-.5.6-1,1.4-1.4,2.3-.4.9-.8,2-1.1,3.1-.3,1.1-.6,2.3-.8,3.6-.2,1.2-.3,2.4-.3,3.6s0,2.4.3,3.6.4,2.4.8,3.6.7,2.2,1.1,3.1c.4.9.9,1.7,1.4,2.3h-2Z"/>
      <path d="M519.6,691c-1.9,0-3.6-.4-5-1.3-1.4-.9-2.5-2.1-3.2-3.6-.8-1.6-1.1-3.4-1.1-5.6h0c0-2.2.4-4,1.1-5.6.8-1.6,1.8-2.8,3.2-3.6,1.4-.9,3.1-1.3,5-1.3s3.6.4,5,1.3c1.4.9,2.5,2.1,3.2,3.6.8,1.6,1.1,3.4,1.1,5.5h0c0,2.2-.4,4-1.1,5.6-.8,1.6-1.8,2.8-3.2,3.6-1.4.9-3,1.3-5,1.3ZM519.6,688.7c1.4,0,2.6-.3,3.6-1s1.8-1.6,2.3-2.8c.5-1.2.8-2.6.8-4.3h0c0-1.7-.3-3.1-.8-4.3-.5-1.2-1.3-2.2-2.3-2.8-1-.7-2.2-1-3.6-1s-2.6.3-3.6,1c-1,.7-1.8,1.6-2.4,2.8-.6,1.2-.8,2.6-.8,4.3h0c0,1.7.3,3.1.8,4.3s1.3,2.2,2.3,2.8c1,.7,2.2,1,3.6,1Z"/>
      <path d="M531.1,683.6v-2.3h9v2.3h-9Z"/>
      <path d="M551.6,691c-1.9,0-3.5-.4-4.9-1.3-1.4-.9-2.5-2.1-3.2-3.6-.8-1.6-1.1-3.4-1.1-5.5h0c0-2.1.4-4,1.1-5.5.8-1.6,1.8-2.8,3.2-3.6,1.4-.9,3-1.3,4.9-1.3s2.7.3,3.8.8c1.2.5,2.1,1.3,2.9,2.2s1.3,2.1,1.5,3.4h0c0,.1-2.6.1-2.6.1v-.3c-.4-.8-.8-1.5-1.3-2.1s-1.2-1-1.9-1.3c-.7-.3-1.6-.5-2.6-.5s-2.5.3-3.5,1c-1,.7-1.8,1.6-2.3,2.8-.5,1.2-.8,2.6-.8,4.3h0c0,1.7.3,3.1.8,4.3.5,1.2,1.3,2.2,2.3,2.8,1,.7,2.2,1,3.5,1s1.8-.2,2.5-.5,1.4-.8,1.9-1.4c.5-.6.9-1.3,1.2-2.2h0c0-.1,2.6-.1,2.6-.1h0c-.3,1.4-.8,2.6-1.5,3.5-.8,1-1.7,1.7-2.9,2.2-1.1.5-2.4.8-3.8.8Z"/>
      <path d="M570.2,691c-1.7,0-3.1-.3-4.3-.9-1.2-.6-2.1-1.5-2.8-2.6-.6-1.1-1-2.4-1-3.9v-13.1h2.5v13c0,1,.2,2,.7,2.7.4.8,1.1,1.4,1.9,1.9.8.4,1.8.7,3,.7s2.2-.2,3-.7c.8-.4,1.4-1.1,1.9-1.9.4-.8.6-1.7.6-2.7v-13h2.5v13.1c0,1.5-.3,2.8-1,3.9-.6,1.1-1.6,2-2.8,2.6-1.2.6-2.6.9-4.3.9Z"/>
      <path d="M582.2,695.6h-2c.5-.6,1-1.4,1.4-2.3.4-.9.8-2,1.1-3.1s.6-2.3.8-3.6.3-2.4.3-3.6,0-2.4-.3-3.6c-.2-1.2-.4-2.4-.8-3.6-.3-1.1-.7-2.2-1.1-3.1-.4-.9-.9-1.7-1.4-2.3h2c.9,1.2,1.7,2.4,2.3,3.7s1,2.7,1.3,4.2c.3,1.5.4,3,.4,4.7s-.1,3.2-.4,4.7-.7,2.9-1.3,4.2-1.3,2.5-2.3,3.7Z"/>
    </g>
  </g>
  <g>
    <g class="st49">
      <rect class="st14" x="500" y="723.6" width="351.2" height="196.7"/>
    </g>
    <rect class="st6" x="498.3" y="721.9" width="354.7" height="200.2"/>
  </g>
  <g>
    <g class="st52">
      <rect class="st5" x="500" y="723.6" width="351.2" height="196.7"/>
    </g>
    <rect class="st6" x="498.3" y="721.9" width="354.7" height="200.2"/>
  </g>
  <g>
    <g class="st51">
      <rect class="st12" x="542.2" y="786.8" width="259.9" height="49.2"/>
      <rect class="st9" x="542.2" y="786.8" width="259.9" height="49.2"/>
      <rect class="st12" x="542.2" y="836" width="259.9" height="49.2"/>
      <rect class="st9" x="542.2" y="836" width="259.9" height="49.2"/>
    </g>
    <rect class="st6" x="498.3" y="721.9" width="354.7" height="200.2"/>
  </g>
  <g>
    <g class="st20">
      <path class="st54" d="M742.4,751.4l2.5-10.1c.3-1.3.6-1.3,1.8-1.3h3.2c2.6,0,4.5,1,4.5,3.3s-.6,4.3-2,6c-1.3,1.4-3.1,2.1-5.3,2.1h-4.6ZM732.9,763.6c0,.4.4.4.5.4,1.4,0,2.9-.1,4.3-.1s3,.1,4.4.1.7,0,.7-.7-.3-.5-1-.5c-2.1,0-2.1-.3-2.1-.6s0-.2.1-.7l2.3-9.1h5.7c4.6,0,9.6-3.8,9.6-8.1s-2.5-5.5-6.5-5.5h-11.1c-.6,0-1,0-1,.7s.3.4,1,.4c1.1,0,2.1,0,2.1.6s0,.2-.1.7l-5,20c-.3,1.3-.5,1.6-3,1.6s-1,0-1,.7M710.7,757.9c0,4.4,3.1,6.9,6.6,6.9s8.8-4.8,9.8-8.8l3.4-13.5c.6-2.4,2.7-2.5,3.7-2.5.1,0,.6,0,.6-.7s-.1-.5-.5-.5c-1.1,0-2.3.1-3.5.1s-2.4-.1-3.5-.1-.7,0-.7.7.3.4.7.4c1.9,0,2.2.8,2.2,1.6s0,.6-.1.9l-3.3,13.1c-1.2,4.8-5.1,8.1-8.6,8.1s-3.9-1.3-3.9-4.6.2-2,.4-2.8l3.7-14.8c.3-1.2.6-1.5,2.9-1.5s1.1,0,1.1-.7-.3-.5-.5-.5c-1.4,0-2.9.1-4.3.1s-3-.1-4.4-.1-.7,0-.7.7.3.4,1,.4c1.1,0,2.1,0,2.1.6s0,.2-.1.7l-3.5,14.2c-.3,1.2-.3,2-.3,2.4M693.2,756.6c0,.5.4.5.8.5h7.4c.2,0,.4,0,.6-.1.4-.2.5-1.4.5-1.4,0-.5-.4-.5-.8-.5h-7.3c-.2,0-.3,0-.5,0-.5.2-.6,1.5-.6,1.5M670.1,757.9c0,4.4,3.1,6.9,6.6,6.9s8.8-4.8,9.8-8.8l3.4-13.5c.6-2.4,2.7-2.5,3.7-2.5.1,0,.6,0,.6-.7s-.1-.5-.5-.5c-1.1,0-2.3.1-3.5.1s-2.4-.1-3.5-.1-.7,0-.7.7.3.4.7.4c1.9,0,2.2.8,2.2,1.6s0,.6-.1.9l-3.3,13.1c-1.2,4.8-5.1,8.1-8.6,8.1s-3.9-1.3-3.9-4.6.2-2,.4-2.8l3.7-14.8c.3-1.2.6-1.5,2.9-1.5s1.1,0,1.1-.7-.3-.5-.5-.5c-1.4,0-2.9.1-4.3.1s-3-.1-4.4-.1-.7,0-.7.7.3.4,1,.4c1.1,0,2.1,0,2.1.6s0,.2-.1.7l-3.5,14.2c-.3,1.2-.3,2-.3,2.4M641.8,755c0,6.1,3.9,9.8,9,9.8,7.2,0,11.2-7.9,11.2-9.7s-.4-.4-.6-.4-.5,0-.6.3c-1.9,6.2-6.5,8.6-9.5,8.6s-6.3-2.1-6.3-7.3.9-8.1,3.9-12.1c2.5-3.4,5.9-5.1,8.7-5.1s5.2,3.5,5.2,6.7-.2,2.1-.2,2.2c0,.4.4.4.6.4.4,0,.5,0,.7-.7l2.2-9c0-.1,0-.4,0-.5s0-.4-.4-.4-.3,0-.6.4l-2.3,2.7c-1.6-2.5-3.7-3.1-5.6-3.1-7.6,0-15.5,8.3-15.5,17M626.2,756.6c0,.5.4.5.8.5h7.4c.2,0,.4,0,.6-.1.4-.2.5-1.4.5-1.4,0-.5-.4-.5-.8-.5h-7.3c-.2,0-.3,0-.5,0-.5.2-.6,1.5-.6,1.5M603.6,756.5c0-1.7.5-6.9,3.1-11.4,2-3.5,5.3-6.2,8.5-6.2s5.5,2.2,5.5,7.2-1.3,8.1-3.3,11.5c-2.4,4.1-5.7,6.3-8.4,6.3s-5.4-3-5.4-7.4M600.3,755.3c0,5.6,3.5,9.5,8.5,9.5,7.4,0,15.1-8.3,15.1-17.2s-3.8-9.6-8.4-9.6c-7.6,0-15.2,8.7-15.2,17.3"/>
      <path class="st54" d="M709.9,811.1v-10c0-1.2,0-1.5,1.8-1.5h3.3c5.9,0,5.9,3.9,5.9,5.7s0,5.7-5.9,5.7h-5.1ZM702.9,823.7c1.3-.1,4-.1,5.4-.1s4.2,0,5.5.1v-1.1h-.9c-2.8,0-2.9-.4-2.9-1.7v-8.8h6.2c4.4,0,8.4-3,8.4-6.7s-3.7-6.9-8.7-6.9h-13v1.1h.9c2.8,0,2.9.4,2.9,1.7v19.4c0,1.3,0,1.7-2.9,1.7h-.9v1.1ZM682.6,814.2l4.1-12,4.2,12h-8.3ZM675.2,823.7c.9,0,2.4-.1,3.8-.1s3.1,0,4.2.1v-1.1c-1.8,0-2.8-.9-2.8-1.9s0-.5,0-.6l1.7-4.8h9.1l2,5.6c0,.1.1.4.1.5,0,1.1-2.1,1.1-3.1,1.1v1.1c1.3-.1,3.9-.1,5.3-.1s3.3,0,4.8.1v-1.1h-.7c-2.2,0-2.7-.3-3.1-1.5l-8-23c-.2-.5-.3-.7-.8-.7s-.7.2-.9.7l-7.6,22c-.7,1.9-2.1,2.4-4.1,2.5v1.1ZM655.1,821.1v-19.9c0-1.2,0-1.5,1.8-1.5h3.7c2.3,0,4.8.8,6.7,3.4,1.6,2.2,1.9,5.3,1.9,8.2,0,4.1-.7,6.3-2,8.1-.7,1-2.8,3.1-6.6,3.1h-3.7c-1.7,0-1.8-.3-1.8-1.5M648.2,823.7h13.5c6.2,0,11.3-5.5,11.3-12.4s-5-12.8-11.3-12.8h-13.5v1.1h.9c2.8,0,2.9.4,2.9,1.7v19.4c0,1.3,0,1.7-2.9,1.7h-.9v1.1ZM628.5,823.6c0,.6,0,.9.4.9s.3,0,.6-.5c0,0,.1-.1,1.3-2.1,1.1,1.3,3.5,2.6,6.8,2.6s7.3-3.6,7.3-7.7-2.4-6.7-5.5-7.4l-4.7-1.1c-2.3-.6-3.7-2.5-3.7-4.7s2-4.8,4.9-4.8c6.2,0,7,6.1,7.2,7.7,0,.2,0,.4.4.4s.5-.2.5-.9v-7.4c0-.6,0-.9-.4-.9s-.3,0-.6.5l-1.3,2.1c-1.1-1.1-2.6-2.6-5.9-2.6s-7.2,3.2-7.2,7.2,2,5.8,4.8,6.7c.4.1,2.3.6,4.9,1.2,1,.3,2.1.5,3.1,1.9.8,1,1.1,2.2,1.1,3.4,0,2.6-1.8,5.3-4.9,5.3s-3.9-.2-5.8-2c-2.1-2-2.2-4.3-2.3-5.7,0-.4-.3-.4-.4-.4-.5,0-.5.3-.5.9v7.4Z"/>
      <path class="st54" d="M714.5,860.3v-10c0-1.2,0-1.5,1.8-1.5h3.3c5.9,0,5.9,3.9,5.9,5.7s0,5.7-5.9,5.7h-5.1ZM707.5,872.9c1.3-.1,4-.1,5.4-.1s4.2,0,5.5.1v-1.1h-.9c-2.8,0-2.9-.4-2.9-1.7v-8.8h6.2c4.4,0,8.4-3,8.4-6.7s-3.6-6.9-8.7-6.9h-13v1.1h.9c2.8,0,2.9.4,2.9,1.7v19.4c0,1.3,0,1.7-2.9,1.7h-.9v1.1ZM681.7,860.3c0,7.6,6,13.4,12.8,13.4s9.6-5.1,9.6-9.4,0-.6-.5-.6-.4.2-.4.6c-.3,5.3-4.2,8.3-8.3,8.3s-9.5-1.3-9.5-12.2,7.2-12.3,9.4-12.3c4,0,7.3,3.4,8,8.7,0,.5,0,.6.6.6s.6-.1.6-.9v-8.7c0-.6,0-.9-.4-.9s-.3,0-.6.4l-1.8,2.7c-1.4-1.3-3.2-3.2-6.8-3.2-6.9,0-12.8,5.9-12.8,13.4M659.8,870.3v-19.9c0-1.2,0-1.5,1.8-1.5h3.7c2.3,0,4.8.8,6.7,3.4,1.6,2.2,1.9,5.3,1.9,8.2,0,4.1-.7,6.3-2,8.1-.7,1-2.8,3.1-6.6,3.1h-3.7c-1.7,0-1.8-.3-1.8-1.5M652.8,872.9h13.5c6.2,0,11.3-5.5,11.3-12.4s-5-12.8-11.3-12.8h-13.5v1.1h.9c2.8,0,2.9.4,2.9,1.7v19.4c0,1.3,0,1.7-2.9,1.7h-.9v1.1ZM634.7,860.3v-10c0-1.2,0-1.5,1.8-1.5h3.3c5.9,0,5.9,3.9,5.9,5.7s0,5.7-5.9,5.7h-5.1ZM627.7,872.9c1.3-.1,4-.1,5.4-.1s4.2,0,5.5.1v-1.1h-.9c-2.8,0-2.9-.4-2.9-1.7v-8.8h6.2c4.4,0,8.4-3,8.4-6.7s-3.7-6.9-8.7-6.9h-13v1.1h.9c2.8,0,2.9.4,2.9,1.7v19.4c0,1.3,0,1.7-2.9,1.7h-.9v1.1Z"/>
    </g>
    <rect class="st6" x="498.3" y="721.9" width="354.7" height="200.2"/>
  </g>
  <g class="st17">
    <g>
      <path d="M214.7,973.5c-1.9,0-3.5-.4-4.9-1.3-1.4-.9-2.5-2.1-3.2-3.6-.8-1.6-1.1-3.4-1.1-5.5h0c0-2.1.4-4,1.1-5.5.8-1.6,1.8-2.8,3.2-3.6,1.4-.9,3-1.3,4.9-1.3s2.7.3,3.8.8c1.2.5,2.1,1.3,2.9,2.2s1.3,2.1,1.5,3.4h0c0,.1-2.6.1-2.6.1v-.3c-.4-.8-.8-1.5-1.3-2.1s-1.2-1-1.9-1.3c-.7-.3-1.6-.5-2.6-.5s-2.5.3-3.5,1c-1,.7-1.8,1.6-2.3,2.8-.5,1.2-.8,2.6-.8,4.3h0c0,1.7.3,3.1.8,4.3.5,1.2,1.3,2.2,2.3,2.8,1,.7,2.2,1,3.5,1s1.8-.2,2.5-.5,1.4-.8,1.9-1.4c.5-.6.9-1.3,1.2-2.2h0c0-.1,2.6-.1,2.6-.1h0c-.3,1.4-.8,2.6-1.5,3.5-.8,1-1.7,1.7-2.9,2.2-1.1.5-2.4.8-3.8.8Z"/>
      <path d="M231,973.4c-1.3,0-2.5-.3-3.5-.9s-1.8-1.5-2.4-2.6c-.6-1.1-.8-2.5-.8-4h0c0-1.6.3-2.9.8-4,.6-1.1,1.4-2,2.4-2.6,1-.6,2.2-.9,3.5-.9s2.5.3,3.5.9c1,.6,1.8,1.5,2.4,2.6.6,1.1.8,2.5.8,4h0c0,1.6-.3,2.9-.8,4.1s-1.4,2-2.4,2.6-2.2.9-3.5.9ZM231,971.3c.9,0,1.6-.2,2.2-.6.6-.4,1.1-1,1.5-1.9.4-.8.5-1.8.5-2.9h0c0-1.2-.2-2.1-.5-2.9-.4-.8-.8-1.4-1.5-1.8s-1.4-.6-2.3-.6-1.6.2-2.2.6c-.6.4-1.1,1-1.5,1.8-.4.8-.5,1.8-.5,2.9h0c0,1.2.2,2.1.5,3,.4.8.9,1.4,1.5,1.9.6.4,1.4.6,2.3.6Z"/>
      <path d="M239.5,973.2v-14.6h2.4v2.1h0c.4-.7,1-1.2,1.7-1.7.7-.4,1.7-.7,2.8-.7,1.6,0,2.8.5,3.7,1.5.9,1,1.3,2.3,1.3,3.9v9.5h-2.4v-9c0-1.2-.3-2.1-.8-2.7-.6-.6-1.4-.9-2.5-.9s-1.4.2-2,.5c-.6.3-1,.8-1.3,1.4s-.5,1.3-.5,2.2v8.6h-2.4Z"/>
      <path d="M258.8,973.4c-1.3,0-2.3-.3-3-1-.7-.6-1-1.7-1-3v-8.9h-2.1v-2h2.1v-3.9h2.5v3.9h2.8v2h-2.8v8.8c0,.8.2,1.3.5,1.6.3.3.8.4,1.5.4s.3,0,.4,0c.1,0,.3,0,.4,0v2c-.1,0-.3,0-.6,0-.2,0-.5,0-.7,0Z"/>
      <path d="M262,973.2v-14.6h2.4v2.5h0c.2-.8.7-1.5,1.3-2,.6-.5,1.3-.7,2.1-.7s.4,0,.6,0c.2,0,.3,0,.4,0v2.4c0,0-.3,0-.5,0-.2,0-.5,0-.8,0-.6,0-1.2.1-1.6.4s-.8.7-1.1,1.2-.4,1.2-.4,1.9v9h-2.4Z"/>
      <path d="M275.8,973.4c-1.3,0-2.5-.3-3.5-.9s-1.8-1.5-2.4-2.6c-.6-1.1-.8-2.5-.8-4h0c0-1.6.3-2.9.8-4,.6-1.1,1.4-2,2.4-2.6,1-.6,2.2-.9,3.5-.9s2.5.3,3.5.9c1,.6,1.8,1.5,2.4,2.6.6,1.1.8,2.5.8,4h0c0,1.6-.3,2.9-.8,4.1s-1.4,2-2.4,2.6-2.2.9-3.5.9ZM275.8,971.3c.9,0,1.6-.2,2.2-.6.6-.4,1.1-1,1.5-1.9.4-.8.5-1.8.5-2.9h0c0-1.2-.2-2.1-.5-2.9-.4-.8-.8-1.4-1.5-1.8s-1.4-.6-2.3-.6-1.6.2-2.2.6c-.6.4-1.1,1-1.5,1.8-.4.8-.5,1.8-.5,2.9h0c0,1.2.2,2.1.5,3,.4.8.9,1.4,1.5,1.9.6.4,1.4.6,2.3.6Z"/>
      <path d="M284.5,973.2v-20.2h2.4v20.2h-2.4Z"/>
      <path d="M295.3,973.2v-20.2h2.5v20.2h-2.5ZM296.6,965.9v-2.2h5.3c1.4,0,2.6-.4,3.4-1.1s1.2-1.8,1.2-3.1h0c0-1.4-.4-2.4-1.2-3.2-.8-.7-1.9-1.1-3.4-1.1h-5.3v-2.2h5.9c1.3,0,2.4.3,3.4.8,1,.5,1.7,1.3,2.3,2.3.6,1,.8,2.1.8,3.4h0c0,1.3-.3,2.4-.8,3.4-.6,1-1.3,1.7-2.3,2.3-1,.6-2.1.8-3.4.8h-5.9Z"/>
      <path d="M311,973.2v-20.2h2.4v20.2h-2.4Z"/>
      <path d="M320.4,973.4c-1,0-1.8-.2-2.5-.5-.7-.4-1.3-.9-1.7-1.5s-.6-1.4-.6-2.3h0c0-.9.2-1.6.6-2.2.4-.6,1-1.1,1.8-1.4.8-.4,1.7-.6,2.9-.6l5.4-.3v1.9l-5.1.3c-1,0-1.7.3-2.3.7-.5.4-.8,1-.8,1.6h0c0,.7.3,1.3.8,1.7.5.4,1.2.6,2.1.6s1.5-.2,2.1-.5c.6-.3,1.1-.8,1.5-1.3s.5-1.2.5-1.9v-4.3c0-.9-.3-1.6-.8-2.1-.6-.5-1.3-.8-2.4-.8s-1.7.2-2.3.6c-.6.4-.9.9-1.1,1.6h0c0,.1-2.4.1-2.4.1v-.2c0-.8.4-1.5.8-2.2.5-.7,1.1-1.2,2-1.6.8-.4,1.8-.6,3-.6s2.1.2,3,.6c.8.4,1.5.9,1.9,1.7.5.7.7,1.6.7,2.5v10.1h-2.4v-2.4h0c-.3.5-.7,1-1.1,1.4s-1,.7-1.6.9c-.6.2-1.2.3-1.9.3Z"/>
      <path d="M330,973.2v-14.6h2.4v2.1h0c.4-.7,1-1.2,1.7-1.7.7-.4,1.7-.7,2.8-.7,1.6,0,2.8.5,3.7,1.5.9,1,1.3,2.3,1.3,3.9v9.5h-2.4v-9c0-1.2-.3-2.1-.8-2.7-.6-.6-1.4-.9-2.5-.9s-1.4.2-2,.5c-.6.3-1,.8-1.3,1.4s-.5,1.3-.5,2.2v8.6h-2.4Z"/>
      <path d="M350.4,973.4c-1.4,0-2.6-.3-3.6-.9s-1.8-1.5-2.3-2.6c-.5-1.1-.8-2.5-.8-4h0c0-1.5.3-2.8.8-4,.5-1.1,1.3-2,2.3-2.7s2.1-1,3.5-1,2.5.3,3.4.9c1,.6,1.7,1.5,2.2,2.6.5,1.1.8,2.4.8,3.8v.9h-11.8v-1.9h10.5l-1.2,1.8v-.9c0-1.1-.2-2.1-.5-2.8-.3-.7-.8-1.3-1.4-1.6s-1.3-.5-2.1-.5-1.5.2-2.1.6-1.1.9-1.5,1.7c-.4.7-.5,1.7-.5,2.7v.9c0,1,.2,1.9.5,2.6.4.7.8,1.3,1.5,1.7.6.4,1.4.6,2.3.6s1.2,0,1.7-.3c.5-.2.9-.4,1.2-.8.3-.3.6-.7.7-1.1h0c0-.1,2.4-.1,2.4-.1h0c-.1.7-.4,1.3-.7,1.8-.3.5-.8,1-1.3,1.4s-1.1.7-1.8.9-1.4.3-2.2.3Z"/>
    </g>
  </g>
  <g class="st24">
    <g>
      <path d="M605.7,973.5c-1.7,0-3.1-.3-4.3-.9-1.2-.6-2.1-1.5-2.8-2.6-.6-1.1-1-2.4-1-3.9v-13.1h2.5v13c0,1,.2,2,.7,2.7.4.8,1.1,1.4,1.9,1.9.8.4,1.8.7,3,.7s2.2-.2,3-.7c.8-.4,1.4-1.1,1.9-1.9.4-.8.6-1.7.6-2.7v-13h2.5v13.1c0,1.5-.3,2.8-1,3.9-.6,1.1-1.6,2-2.8,2.6-1.2.6-2.6.9-4.3.9Z"/>
      <path d="M621.7,973.4c-1.1,0-2.1-.2-3-.5-.8-.4-1.5-.9-2-1.5-.5-.7-.8-1.4-.9-2.3h0c0-.1,2.4-.1,2.4-.1h0c.1.9.5,1.4,1.1,1.8.6.4,1.3.6,2.3.6s1.2,0,1.7-.3c.5-.2.8-.4,1.1-.7.3-.3.4-.7.4-1.1h0c0-.5-.2-1-.5-1.3-.3-.3-.9-.6-1.7-.8l-2.3-.6c-.9-.2-1.7-.5-2.3-.9-.6-.4-1.1-.8-1.4-1.3-.3-.5-.4-1.1-.4-1.8h0c0-.9.2-1.6.7-2.2s1.1-1.2,1.9-1.5c.8-.4,1.7-.5,2.8-.5s2,.2,2.8.6c.8.4,1.4.9,1.9,1.5.5.6.7,1.4.8,2.2v.2s-2.3,0-2.3,0h0c0-.8-.4-1.4-.9-1.8-.5-.4-1.2-.6-2.2-.6s-1.1,0-1.5.3c-.4.2-.8.4-1,.8-.2.3-.3.7-.3,1.1h0c0,.3,0,.6.2.9s.4.5.7.7.8.4,1.3.5l2.3.6c1.5.4,2.5.8,3.1,1.5.6.6.9,1.5.9,2.5h0c0,.9-.2,1.6-.7,2.3-.5.7-1.2,1.2-2,1.5s-1.8.6-2.9.6Z"/>
      <path d="M635.3,973.4c-1.4,0-2.6-.3-3.6-.9s-1.8-1.5-2.3-2.6c-.5-1.1-.8-2.5-.8-4h0c0-1.5.3-2.8.8-4,.5-1.1,1.3-2,2.3-2.7s2.1-1,3.5-1,2.5.3,3.4.9c1,.6,1.7,1.5,2.2,2.6.5,1.1.8,2.4.8,3.8v.9h-11.8v-1.9h10.5l-1.2,1.8v-.9c0-1.1-.2-2.1-.5-2.8-.3-.7-.8-1.3-1.4-1.6s-1.3-.5-2.1-.5-1.5.2-2.1.6-1.1.9-1.5,1.7c-.4.7-.5,1.7-.5,2.7v.9c0,1,.2,1.9.5,2.6.4.7.8,1.3,1.5,1.7.6.4,1.4.6,2.3.6s1.2,0,1.7-.3c.5-.2.9-.4,1.2-.8.3-.3.6-.7.7-1.1h0c0-.1,2.4-.1,2.4-.1h0c-.1.7-.4,1.3-.7,1.8-.3.5-.8,1-1.3,1.4s-1.1.7-1.8.9-1.4.3-2.2.3Z"/>
      <path d="M643.4,973.2v-14.6h2.4v2.5h0c.2-.8.7-1.5,1.3-2,.6-.5,1.3-.7,2.1-.7s.4,0,.6,0c.2,0,.3,0,.4,0v2.4c0,0-.3,0-.5,0-.2,0-.5,0-.8,0-.6,0-1.2.1-1.6.4s-.8.7-1.1,1.2-.4,1.2-.4,1.9v9h-2.4Z"/>
      <path d="M657.2,973.2v-20.2h2.5v20.2h-2.5ZM658.5,965.9v-2.2h5.3c1.4,0,2.6-.4,3.4-1.1s1.2-1.8,1.2-3.1h0c0-1.4-.4-2.4-1.2-3.2-.8-.7-1.9-1.1-3.4-1.1h-5.3v-2.2h5.9c1.3,0,2.4.3,3.4.8,1,.5,1.7,1.3,2.3,2.3.6,1,.8,2.1.8,3.4h0c0,1.3-.3,2.4-.8,3.4-.6,1-1.3,1.7-2.3,2.3-1,.6-2.1.8-3.4.8h-5.9Z"/>
      <path d="M672.9,973.2v-20.2h2.4v20.2h-2.4Z"/>
      <path d="M682.3,973.4c-1,0-1.8-.2-2.5-.5-.7-.4-1.3-.9-1.7-1.5s-.6-1.4-.6-2.3h0c0-.9.2-1.6.6-2.2.4-.6,1-1.1,1.8-1.4.8-.4,1.7-.6,2.9-.6l5.4-.3v1.9l-5.1.3c-1,0-1.7.3-2.3.7-.5.4-.8,1-.8,1.6h0c0,.7.3,1.3.8,1.7.5.4,1.2.6,2.1.6s1.5-.2,2.1-.5c.6-.3,1.1-.8,1.5-1.3s.5-1.2.5-1.9v-4.3c0-.9-.3-1.6-.8-2.1-.6-.5-1.3-.8-2.4-.8s-1.7.2-2.3.6c-.6.4-.9.9-1.1,1.6h0c0,.1-2.4.1-2.4.1v-.2c0-.8.4-1.5.8-2.2.5-.7,1.1-1.2,2-1.6.8-.4,1.8-.6,3-.6s2.1.2,3,.6c.8.4,1.5.9,1.9,1.7.5.7.7,1.6.7,2.5v10.1h-2.4v-2.4h0c-.3.5-.7,1-1.1,1.4s-1,.7-1.6.9c-.6.2-1.2.3-1.9.3Z"/>
      <path d="M691.8,973.2v-14.6h2.4v2.1h0c.4-.7,1-1.2,1.7-1.7.7-.4,1.7-.7,2.8-.7,1.6,0,2.8.5,3.7,1.5.9,1,1.3,2.3,1.3,3.9v9.5h-2.4v-9c0-1.2-.3-2.1-.8-2.7-.6-.6-1.4-.9-2.5-.9s-1.4.2-2,.5c-.6.3-1,.8-1.3,1.4s-.5,1.3-.5,2.2v8.6h-2.4Z"/>
      <path d="M712.3,973.4c-1.4,0-2.6-.3-3.6-.9s-1.8-1.5-2.3-2.6c-.5-1.1-.8-2.5-.8-4h0c0-1.5.3-2.8.8-4,.5-1.1,1.3-2,2.3-2.7s2.1-1,3.5-1,2.5.3,3.4.9c1,.6,1.7,1.5,2.2,2.6.5,1.1.8,2.4.8,3.8v.9h-11.8v-1.9h10.5l-1.2,1.8v-.9c0-1.1-.2-2.1-.5-2.8-.3-.7-.8-1.3-1.4-1.6s-1.3-.5-2.1-.5-1.5.2-2.1.6-1.1.9-1.5,1.7c-.4.7-.5,1.7-.5,2.7v.9c0,1,.2,1.9.5,2.6.4.7.8,1.3,1.5,1.7.6.4,1.4.6,2.3.6s1.2,0,1.7-.3c.5-.2.9-.4,1.2-.8.3-.3.6-.7.7-1.1h0c0-.1,2.4-.1,2.4-.1h0c-.1.7-.4,1.3-.7,1.8-.3.5-.8,1-1.3,1.4s-1.1.7-1.8.9-1.4.3-2.2.3Z"/>
    </g>
  </g>
  <g>
    <g class="st22">
      <rect class="st11" x="942.7" y="633.3" width="423.6" height="360.1"/>
    </g>
    <rect class="st6" x="939.1" y="629.7" width="430.7" height="367.2"/>
  </g>
  <g class="st23">
    <g>
      <path d="M990.8,690.7v-20.2h6.8c2,0,3.7.4,5.1,1.2s2.5,2,3.3,3.5c.8,1.5,1.1,3.3,1.1,5.4h0c0,2.2-.4,4-1.1,5.5-.8,1.5-1.8,2.7-3.3,3.5-1.4.8-3.1,1.2-5.1,1.2h-6.8ZM993.4,688.4h4.1c1.5,0,2.8-.3,3.9-.9,1.1-.6,1.9-1.5,2.4-2.7.6-1.2.8-2.6.8-4.3h0c0-1.7-.3-3.1-.8-4.3-.6-1.2-1.4-2.1-2.4-2.7-1.1-.6-2.4-.9-3.9-.9h-4.1v15.7Z"/>
      <path d="M1010.7,673.6c-.4,0-.8-.2-1.1-.4s-.4-.7-.4-1.1.1-.8.4-1.1c.3-.3.7-.4,1.1-.4s.8.1,1.1.4.4.7.4,1.1-.1.8-.4,1.1c-.3.3-.7.4-1.1.4ZM1009.5,690.7v-14.6h2.4v14.6h-2.4Z"/>
      <path d="M1019.8,690.9c-1.1,0-2.1-.2-3-.5-.8-.4-1.5-.9-2-1.5-.5-.7-.8-1.4-.9-2.3h0c0-.1,2.4-.1,2.4-.1h0c.1.9.5,1.4,1.1,1.8.6.4,1.3.6,2.3.6s1.2,0,1.7-.3c.5-.2.8-.4,1.1-.7.3-.3.4-.7.4-1.1h0c0-.5-.2-1-.5-1.3s-.9-.6-1.7-.8l-2.3-.6c-.9-.2-1.7-.5-2.3-.9-.6-.4-1.1-.8-1.4-1.3-.3-.5-.4-1.1-.4-1.8h0c0-.9.2-1.6.7-2.2.5-.6,1.1-1.2,1.9-1.5.8-.4,1.7-.5,2.8-.5s2,.2,2.8.6,1.4.9,1.9,1.5c.5.6.7,1.4.8,2.2v.2s-2.3,0-2.3,0h0c0-.8-.4-1.4-.9-1.8-.5-.4-1.2-.6-2.2-.6s-1.1,0-1.5.3c-.4.2-.8.4-1,.8-.2.3-.3.7-.3,1.1h0c0,.3,0,.6.2.9s.4.5.7.7.8.4,1.3.5l2.3.6c1.5.4,2.5.8,3.1,1.5s.9,1.5.9,2.5h0c0,.9-.2,1.6-.7,2.3-.5.7-1.2,1.2-2,1.5s-1.8.6-2.9.6Z"/>
      <path d="M1032,690.9c-1.3,0-2.3-.3-3-1-.7-.6-1-1.7-1-3v-8.9h-2.1v-2h2.1v-3.9h2.5v3.9h2.8v2h-2.8v8.8c0,.8.2,1.3.5,1.6.3.3.8.4,1.5.4s.3,0,.4,0c.1,0,.3,0,.4,0v2c-.1,0-.3,0-.6,0-.2,0-.5,0-.7,0Z"/>
      <path d="M1035.3,690.7v-14.6h2.4v2.5h0c.2-.8.7-1.5,1.3-2s1.3-.7,2.1-.7.4,0,.6,0c.2,0,.3,0,.4,0v2.4c0,0-.3,0-.5,0-.2,0-.5,0-.8,0-.6,0-1.2.1-1.6.4-.5.3-.8.7-1.1,1.2-.3.5-.4,1.2-.4,1.9v9h-2.4Z"/>
      <path d="M1044.9,673.6c-.4,0-.8-.2-1.1-.4s-.4-.7-.4-1.1.1-.8.4-1.1c.3-.3.7-.4,1.1-.4s.8.1,1.1.4.4.7.4,1.1-.1.8-.4,1.1c-.3.3-.7.4-1.1.4ZM1043.7,690.7v-14.6h2.4v14.6h-2.4Z"/>
      <path d="M1056.1,690.9c-.7,0-1.3-.1-1.9-.3-.6-.2-1.1-.5-1.6-.9-.5-.4-.8-.9-1.1-1.5h0v2.5h-2.4v-20.2h2.4v8.1h0c.3-.6.7-1,1.2-1.5.5-.4,1-.7,1.6-.9s1.2-.3,1.9-.3c1.2,0,2.3.3,3.2.9s1.6,1.5,2.2,2.6c.5,1.1.8,2.5.8,4h0c0,1.5-.3,2.9-.8,4-.5,1.1-1.2,2-2.2,2.6s-2,.9-3.3.9ZM1055.6,688.8c.9,0,1.6-.2,2.2-.7.6-.4,1.1-1.1,1.4-1.9.3-.8.5-1.8.5-2.9h0c0-1.1-.2-2.1-.5-2.9-.3-.8-.8-1.4-1.4-1.9-.6-.4-1.4-.7-2.2-.7s-1.6.2-2.2.7c-.6.4-1.1,1.1-1.5,1.9-.4.8-.5,1.8-.5,2.8h0c0,1.1.2,2,.5,2.9.4.8.9,1.4,1.5,1.9.6.4,1.4.7,2.2.7Z"/>
      <path d="M1069.1,690.9c-1.1,0-2-.2-2.7-.7s-1.3-1.1-1.7-1.9c-.4-.8-.6-1.8-.6-2.9v-9.5h2.4v9c0,1.2.3,2.1.8,2.7.6.6,1.4.9,2.5.9s1.1,0,1.6-.3.9-.5,1.2-.8c.3-.4.6-.8.8-1.3.2-.5.3-1.1.3-1.7v-8.6h2.4v14.6h-2.4v-2.1h0c-.3.4-.6.9-1,1.2-.4.4-.9.6-1.5.8-.6.2-1.2.3-2,.3Z"/>
      <path d="M1083.3,690.9c-1.3,0-2.3-.3-3-1-.7-.6-1-1.7-1-3v-8.9h-2.1v-2h2.1v-3.9h2.5v3.9h2.8v2h-2.8v8.8c0,.8.2,1.3.5,1.6.3.3.8.4,1.5.4s.3,0,.4,0c.1,0,.3,0,.4,0v2c-.1,0-.3,0-.6,0-.2,0-.5,0-.7,0Z"/>
      <path d="M1088,673.6c-.4,0-.8-.2-1.1-.4s-.4-.7-.4-1.1.1-.8.4-1.1c.3-.3.7-.4,1.1-.4s.8.1,1.1.4.4.7.4,1.1-.1.8-.4,1.1c-.3.3-.7.4-1.1.4ZM1086.8,690.7v-14.6h2.4v14.6h-2.4Z"/>
      <path d="M1097.9,690.9c-1.3,0-2.5-.3-3.5-.9-1-.6-1.8-1.5-2.4-2.6-.6-1.1-.8-2.5-.8-4h0c0-1.6.3-2.9.8-4,.6-1.1,1.4-2,2.4-2.6,1-.6,2.2-.9,3.5-.9s2.5.3,3.5.9c1,.6,1.8,1.5,2.4,2.6.6,1.1.8,2.5.8,4h0c0,1.6-.3,2.9-.8,4.1-.6,1.1-1.4,2-2.4,2.6s-2.2.9-3.5.9ZM1098,688.8c.9,0,1.6-.2,2.2-.6.6-.4,1.1-1,1.5-1.9.4-.8.5-1.8.5-2.9h0c0-1.2-.2-2.1-.5-2.9-.4-.8-.8-1.4-1.5-1.8s-1.4-.6-2.3-.6-1.6.2-2.2.6c-.6.4-1.1,1-1.5,1.8-.4.8-.5,1.8-.5,2.9h0c0,1.2.2,2.1.5,3,.4.8.9,1.4,1.5,1.9.6.4,1.4.6,2.3.6Z"/>
      <path d="M1106.5,690.7v-14.6h2.4v2.1h0c.4-.7,1-1.2,1.7-1.7s1.7-.7,2.8-.7c1.6,0,2.8.5,3.7,1.5.9,1,1.3,2.3,1.3,3.9v9.5h-2.4v-9c0-1.2-.3-2.1-.8-2.7-.6-.6-1.4-.9-2.5-.9s-1.4.2-2,.5c-.6.3-1,.8-1.3,1.4s-.5,1.3-.5,2.2v8.6h-2.4Z"/>
      <path d="M1134.7,691c-1.7,0-3.1-.3-4.3-.9-1.2-.6-2.1-1.5-2.8-2.6-.6-1.1-1-2.4-1-3.9v-13.1h2.5v13c0,1,.2,2,.7,2.7.4.8,1.1,1.4,1.9,1.9.8.4,1.8.7,3,.7s2.2-.2,3-.7c.8-.4,1.4-1.1,1.9-1.9.4-.8.6-1.7.6-2.7v-13h2.5v13.1c0,1.5-.3,2.8-1,3.9-.6,1.1-1.6,2-2.8,2.6-1.2.6-2.6.9-4.3.9Z"/>
      <path d="M1145.6,690.7v-14.6h2.4v2.1h0c.4-.7,1-1.2,1.7-1.7s1.7-.7,2.8-.7c1.6,0,2.8.5,3.7,1.5.9,1,1.3,2.3,1.3,3.9v9.5h-2.4v-9c0-1.2-.3-2.1-.8-2.7-.6-.6-1.4-.9-2.5-.9s-1.4.2-2,.5c-.6.3-1,.8-1.3,1.4s-.5,1.3-.5,2.2v8.6h-2.4Z"/>
      <path d="M1161.5,673.6c-.4,0-.8-.2-1.1-.4s-.4-.7-.4-1.1.1-.8.4-1.1c.3-.3.7-.4,1.1-.4s.8.1,1.1.4.4.7.4,1.1-.1.8-.4,1.1c-.3.3-.7.4-1.1.4ZM1160.3,690.7v-14.6h2.4v14.6h-2.4Z"/>
      <path d="M1170.2,690.9c-1.3,0-2.3-.3-3-1-.7-.6-1-1.7-1-3v-8.9h-2.1v-2h2.1v-3.9h2.5v3.9h2.8v2h-2.8v8.8c0,.8.2,1.3.5,1.6.3.3.8.4,1.5.4s.3,0,.4,0c.1,0,.3,0,.4,0v2c-.1,0-.3,0-.6,0-.2,0-.5,0-.7,0Z"/>
      <path d="M1183.8,695.6c-.9-1.2-1.7-2.4-2.3-3.7-.6-1.3-1-2.7-1.3-4.2-.3-1.5-.4-3-.4-4.7s.1-3.2.4-4.7c.3-1.5.7-2.9,1.3-4.2.6-1.3,1.3-2.5,2.2-3.7h2c-.5.6-1,1.4-1.4,2.3-.4.9-.8,2-1.1,3.1-.3,1.1-.6,2.3-.8,3.6-.2,1.2-.3,2.4-.3,3.6s0,2.4.3,3.6.4,2.4.8,3.6c.3,1.1.7,2.2,1.1,3.1.4.9.9,1.7,1.4,2.3h-2Z"/>
      <path d="M1196.3,691c-1.9,0-3.6-.4-5-1.3-1.4-.9-2.5-2.1-3.2-3.6-.8-1.6-1.1-3.4-1.1-5.6h0c0-2.2.4-4,1.1-5.6.8-1.6,1.8-2.8,3.2-3.6,1.4-.9,3.1-1.3,5-1.3s3.6.4,5,1.3c1.4.9,2.5,2.1,3.2,3.6.8,1.6,1.1,3.4,1.1,5.5h0c0,2.2-.4,4-1.1,5.6-.8,1.6-1.8,2.8-3.2,3.6-1.4.9-3,1.3-5,1.3ZM1196.3,688.7c1.4,0,2.6-.3,3.6-1,1-.7,1.8-1.6,2.3-2.8.5-1.2.8-2.6.8-4.3h0c0-1.7-.3-3.1-.8-4.3s-1.3-2.2-2.3-2.8c-1-.7-2.2-1-3.6-1s-2.6.3-3.6,1c-1,.7-1.8,1.6-2.3,2.8-.6,1.2-.8,2.6-.8,4.3h0c0,1.7.3,3.1.8,4.3.6,1.2,1.3,2.2,2.3,2.8,1,.7,2.2,1,3.6,1Z"/>
      <path d="M1207.8,683.6v-2.3h9v2.3h-9Z"/>
      <path d="M1219.8,690.7v-20.2h6.8c2,0,3.7.4,5.1,1.2s2.5,2,3.3,3.5c.8,1.5,1.1,3.3,1.1,5.4h0c0,2.2-.4,4-1.1,5.5-.8,1.5-1.8,2.7-3.3,3.5-1.4.8-3.1,1.2-5.1,1.2h-6.8ZM1222.3,688.4h4.1c1.5,0,2.8-.3,3.9-.9,1.1-.6,1.9-1.5,2.4-2.7.6-1.2.8-2.6.8-4.3h0c0-1.7-.3-3.1-.8-4.3-.6-1.2-1.4-2.1-2.4-2.7-1.1-.6-2.4-.9-3.9-.9h-4.1v15.7Z"/>
      <path d="M1246.7,691c-1.7,0-3.1-.3-4.3-.9-1.2-.6-2.1-1.5-2.8-2.6-.6-1.1-1-2.4-1-3.9v-13.1h2.5v13c0,1,.2,2,.7,2.7.4.8,1.1,1.4,1.9,1.9.8.4,1.8.7,3,.7s2.2-.2,3-.7c.8-.4,1.4-1.1,1.9-1.9.4-.8.6-1.7.6-2.7v-13h2.5v13.1c0,1.5-.3,2.8-1,3.9-.6,1.1-1.6,2-2.8,2.6-1.2.6-2.6.9-4.3.9Z"/>
      <path d="M1258.7,695.6h-2c.5-.6,1-1.4,1.4-2.3.4-.9.8-2,1.1-3.1.3-1.2.6-2.3.8-3.6s.3-2.4.3-3.6,0-2.4-.3-3.6c-.2-1.2-.4-2.4-.8-3.6-.3-1.1-.7-2.2-1.1-3.1-.4-.9-.9-1.7-1.4-2.3h2c.9,1.2,1.7,2.4,2.3,3.7.6,1.3,1,2.7,1.3,4.2.3,1.5.4,3,.4,4.7s-.1,3.2-.4,4.7c-.3,1.5-.7,2.9-1.3,4.2-.6,1.3-1.3,2.5-2.3,3.7Z"/>
    </g>
  </g>
  <g>
    <g class="st21">
      <rect class="st11" x="68.8" y="621.9" width="1316.4" height="395.7"/>
    </g>
    <rect class="st6" x="65.2" y="618.3" width="1323.6" height="402.8"/>
  </g>
  <g>
    <g class="st18">
      <rect class="st14" x="966" y="713.8" width="351.1" height="231.7"/>
    </g>
    <rect class="st6" x="964.2" y="712.1" width="354.6" height="235.2"/>
  </g>
  <g>
    <g class="st15">
      <rect class="st3" x="966" y="713.8" width="351.1" height="231.7"/>
    </g>
    <rect class="st6" x="964.2" y="712.1" width="354.6" height="235.2"/>
  </g>
  <g>
    <g class="st19">
      <rect class="st12" x="1008.1" y="777" width="259.8" height="49.2"/>
      <rect class="st8" x="1008.1" y="777" width="259.8" height="49.2"/>
      <rect class="st12" x="1008.1" y="826.2" width="259.8" height="49.2"/>
      <rect class="st8" x="1008.1" y="826.2" width="259.8" height="49.2"/>
      <rect class="st12" x="1008.1" y="875.4" width="259.8" height="49.2"/>
      <rect class="st8" x="1008.1" y="875.4" width="259.8" height="49.2"/>
    </g>
    <rect class="st6" x="964.2" y="712.1" width="354.6" height="235.2"/>
  </g>
  <g>
    <g class="st16">
      <path class="st54" d="M1172.6,751.6c0,4.4,3.1,6.9,6.6,6.9s8.8-4.8,9.8-8.8l3.4-13.5c.6-2.4,2.7-2.5,3.7-2.5.1,0,.6,0,.6-.7s-.1-.5-.5-.5c-1.1,0-2.3.1-3.5.1s-2.4-.1-3.5-.1-.7,0-.7.7.3.4.7.4c1.9,0,2.2.8,2.2,1.6s0,.6-.1.9l-3.3,13.1c-1.2,4.8-5.1,8.1-8.5,8.1s-3.9-1.3-3.9-4.6.2-2,.4-2.8l3.7-14.8c.3-1.2.6-1.5,2.9-1.5s1.1,0,1.1-.7-.3-.5-.5-.5c-1.4,0-2.9.1-4.4.1s-3-.1-4.4-.1-.7,0-.7.7.3.4,1,.4c1.1,0,2.1,0,2.1.6s0,.2-.1.7l-3.5,14.2c-.3,1.2-.3,2-.3,2.4M1146.3,756.2c0-.2.1-.6.1-.8l5.1-20.4c.3-1.3.6-1.3,1.8-1.3h3.6c3,0,5.9,1.7,5.9,6.5s-1.1,9.1-4.2,12.8c-1.8,2.1-4.4,3.7-7.4,3.7h-3.8c-1.1,0-1.1-.1-1.1-.4M1139.7,757.3c0,.4.3.4.9.4h11.3c7,0,14-7.9,14-16.1s-3-9-7.7-9h-11.5c-.6,0-1,0-1,.7s.3.4,1,.4c1.1,0,2.1,0,2.1.6s0,.2-.1.7l-5,20c-.3,1.3-.5,1.5-3,1.5s-1,0-1,.7M1127.3,750.3c0,.5.4.5.8.5h7.4c.2,0,.4,0,.6-.1.4-.2.5-1.4.5-1.4,0-.5-.4-.5-.8-.5h-7.3c-.2,0-.3,0-.5,0-.5.2-.6,1.5-.6,1.5M1104.7,750.1c0-1.7.5-6.9,3.1-11.4,2-3.5,5.3-6.2,8.5-6.2s5.5,2.2,5.5,7.2-1.3,8.1-3.3,11.5c-2.4,4.1-5.7,6.3-8.4,6.3s-5.4-3-5.4-7.4M1101.4,749c0,5.6,3.5,9.5,8.5,9.5,7.4,0,15.1-8.3,15.1-17.2s-3.8-9.6-8.4-9.6c-7.6,0-15.2,8.7-15.2,17.3"/>
      <path class="st54" d="M1161.9,801.3c0,7.6,6,13.4,12.8,13.4s9.6-5.1,9.6-9.4,0-.6-.5-.6-.4.2-.4.6c-.3,5.3-4.2,8.3-8.3,8.3s-9.5-1.3-9.5-12.2,7.2-12.3,9.4-12.3c4,0,7.3,3.4,8,8.7,0,.5,0,.6.6.6s.6-.1.6-.9v-8.7c0-.6,0-.9-.4-.9s-.3,0-.6.4l-1.8,2.7c-1.4-1.3-3.2-3.2-6.8-3.2-6.9,0-12.8,5.9-12.8,13.4M1141.8,804.3l4.1-12,4.2,12h-8.3ZM1134.4,813.9c.8,0,2.4-.1,3.8-.1s3.1,0,4.2.1v-1.1c-1.8,0-2.8-.9-2.8-1.9s0-.5,0-.5l1.7-4.8h9.1l2,5.6c0,.1.1.4.1.5,0,1.1-2.1,1.1-3.1,1.1v1.1c1.3-.1,3.9-.1,5.3-.1s3.3,0,4.8.1v-1.1h-.7c-2.2,0-2.7-.3-3.1-1.5l-8-23c-.2-.5-.3-.7-.8-.7s-.7.2-.9.7l-7.6,22c-.7,1.9-2.1,2.4-4.1,2.5v1.1ZM1100.8,813.9c1.3,0,3.1-.1,4.3-.1s3,0,4.3.1v-1.1c-3.8,0-3.8-1.7-3.8-2.7v-19.9h0l8.9,22.9c.2.5.4.8.7.8s.5-.3.7-.7l9.1-23.3h0v21.2c0,1.3,0,1.7-2.9,1.7h-.9v1.1c1.4-.1,3.9-.1,5.3-.1s3.9,0,5.3.1v-1.1h-.9c-2.8,0-2.9-.4-2.9-1.7v-19.4c0-1.3,0-1.7,2.9-1.7h.9v-1.1h-6.2c-1,0-1,0-1.2.7l-8.1,20.8-8-20.6c-.3-.8-.4-.8-1.3-.8h-6.2v1.1h.9c2.8,0,2.9.4,2.9,1.7v18.4c0,1,0,2.7-3.8,2.7v1.1Z"/>
      <path class="st54" d="M1155.2,851.6c0,7.6,6,13.4,12.8,13.4s9.6-5.1,9.6-9.4,0-.6-.5-.6-.4.2-.4.6c-.3,5.3-4.2,8.3-8.3,8.3s-9.5-1.3-9.5-12.2,7.2-12.3,9.4-12.3c4,0,7.3,3.4,8,8.7,0,.5,0,.6.6.6s.6-.1.6-.9v-8.7c0-.6,0-.9-.4-.9s-.3,0-.6.4l-1.8,2.7c-1.4-1.3-3.2-3.2-6.8-3.2-6.9,0-12.8,5.9-12.8,13.4M1131.3,864.2h19.2l1-9.5h-.9c-.4,3.8-.9,8.4-7.4,8.4h-3c-1.7,0-1.8-.3-1.8-1.5v-19.6c0-1.3,0-1.8,3.5-1.8h1.2v-1.1c-1.3.1-4.7.1-6.2.1s-4.3,0-5.6-.1v1.1h.9c2.8,0,2.9.4,2.9,1.7v19.4c0,1.3,0,1.7-2.9,1.7h-.9v1.1ZM1111.2,851.2v-9.6c0-.8,0-1.3.8-1.4.4,0,1.4,0,2.2,0,3.3,0,7.5.1,7.5,5.5s-.9,5.5-6.3,5.5h-4.1ZM1104.2,864.2c1.3-.1,3.9-.1,5.4-.1s4.1,0,5.4.1v-1.1h-.9c-2.8,0-2.9-.4-2.9-1.7v-9.3h4.2c.6,0,2.1,0,3.4,1.3,1.4,1.3,1.4,2.5,1.4,4.9s0,3.9,1.5,5.3c1.5,1.3,3.5,1.5,4.6,1.5,2.9,0,3.5-3,3.5-4.1s0-.6-.5-.6-.4.3-.4.6c-.2,2.6-1.5,3.3-2.4,3.3-1.8,0-2.1-1.9-2.6-5.3l-.5-2.9c-.7-2.4-2.5-3.6-4.5-4.3,3.6-.9,6.5-3.1,6.5-6s-4.2-6.6-9.6-6.6h-11.6v1.1h.9c2.8,0,2.9.4,2.9,1.7v19.4c0,1.3,0,1.7-2.9,1.7h-.9v1.1Z"/>
      <path class="st54" d="M1210.8,912.2c1.3,0,3.2-.1,4.2-.1s2.9,0,4.1.1v-1.1c-2.5,0-2.9,0-2.9-1.7v-6.8c0-3.8,2.6-5.9,5-5.9s2.7,2,2.7,4.1v8.6c0,1.7-.4,1.7-2.9,1.7v1.1c1.3,0,3.2-.1,4.2-.1s2.9,0,4.1.1v-1.1c-1.9,0-2.8,0-2.9-1.1v-7c0-3.2,0-4.3-1.1-5.6-.5-.6-1.7-1.4-3.9-1.4-3.1,0-4.7,2.2-5.3,3.5h0v-12.8l-5.3.4v1.1c2.6,0,2.9.3,2.9,2.1v19.2c0,1.7-.4,1.7-2.9,1.7v1.1ZM1196.1,901.3c0-1,0-2.2.6-3.1.3-.4,1.1-1.5,2.6-1.5,3.2,0,3.2,3.7,3.2,4.5s0,2.2-.6,3.1c-.3.4-1.1,1.5-2.6,1.5-3.2,0-3.2-3.7-3.2-4.5M1194.1,915.1c0-1.7,1.4-3.1,3-3.2h2.2c3.2,0,7.3,0,7.3,3.2s-2.6,3.8-6.2,3.8-6.3-1.9-6.3-3.8M1192.2,915.1c0,2.7,3.7,4.7,8.1,4.7s8.2-1.9,8.2-4.8-.5-3.2-2.4-4.2c-2-1-4.1-1-6.3-1s-2.5,0-2.8,0c-1.2-.1-2-1.3-2-2.5s0-1,.6-1.7c1.4,1,2.9,1.1,3.7,1.1,3.4,0,6-2.5,6-5.4s-.6-2.7-1.5-3.6c1.3-1.3,2.7-1.4,3.3-1.4s.3,0,.4,0c-.4.1-.6.5-.6,1s.5,1.1,1.1,1.1,1.1-.3,1.1-1.1-.4-1.8-1.9-1.8-2.4.2-3.9,1.7c-1.5-1.2-3.1-1.3-3.9-1.3-3.4,0-6,2.5-6,5.4s.8,3,1.7,3.8c-.5.6-1.1,1.8-1.1,3.1s.5,2.5,1.6,3.3c-2.2.6-3.4,2.2-3.4,3.7M1182.1,912.2c1.2,0,3.2-.1,4.1-.1,1.3,0,2.6,0,3.8.1v-1.1c-2.4,0-2.6-.2-2.6-1.6v-13.5l-5.2.4v1.1c2.4,0,2.7.2,2.7,2v9.9c0,1.7-.4,1.7-2.9,1.7v1.1ZM1183.7,889.5c0,1,.8,2,2,2s1.9-.8,1.9-2-.9-1.9-1.9-1.9-2,1-2,1.9M1161.7,912.2c1.3,0,3.2-.1,4.2-.1s2.9,0,4.1.1v-1.1c-2.5,0-2.9,0-2.9-1.7v-6.8c0-3.8,2.6-5.9,5-5.9s2.7,2,2.7,4.1v8.6c0,1.7-.4,1.7-2.9,1.7v1.1c1.3,0,3.2-.1,4.2-.1s2.9,0,4.1.1v-1.1c-1.9,0-2.8,0-2.9-1.1v-7c0-3.2,0-4.3-1.1-5.6-.5-.6-1.7-1.4-3.9-1.4-3.1,0-4.7,2.2-5.3,3.5h0v-12.8l-5.3.4v1.1c2.6,0,2.9.3,2.9,2.1v19.2c0,1.7-.4,1.7-2.9,1.7v1.1ZM1148.6,905.3h9.8v-2.2h-9.8v2.2ZM1121,888.2h.7c2.5,0,2.8.4,3.4,1.4l7.7,12.6v7.2c0,1.3,0,1.7-2.9,1.7h-.9v1.1c1.3-.1,3.9-.1,5.4-.1s4.1,0,5.4.1v-1.1h-.9c-2.8,0-2.9-.4-2.9-1.8v-7.1l7.1-11.6c1.4-2.2,3.5-2.4,4.7-2.4v-1.1c-1.1,0-2.6.1-3.6.1s-3.3,0-4.2-.1v1.1c1.5,0,2.1.7,2.1,1.4s-.2.9-.4,1.1l-6.1,9.9-6.7-10.9c-.3-.4-.3-.4-.3-.6,0-.8.9-.9,2.6-.9v-1.1c-1.3.1-4,.1-5.5.1s-3.2,0-4.8-.1v1.1ZM1094.1,912.2c1.3-.1,4-.1,5.4-.1s4.2,0,5.5.1v-1.1h-.9c-2.8,0-2.9-.4-2.9-1.7v-9.7h11v9.7c0,1.3,0,1.7-2.9,1.7h-.9v1.1c1.3-.1,4-.1,5.4-.1s4.2,0,5.5.1v-1.1h-.9c-2.8,0-2.9-.4-2.9-1.7v-19.4c0-1.3,0-1.7,2.9-1.7h.9v-1.1c-1.3.1-4,.1-5.4.1s-4.2,0-5.5-.1v1.1h.9c2.8,0,2.9.4,2.9,1.7v8.6h-11v-8.6c0-1.3,0-1.7,2.9-1.7h.9v-1.1c-1.3.1-4,.1-5.4.1s-4.2,0-5.5-.1v1.1h.9c2.8,0,2.9.4,2.9,1.7v19.4c0,1.3,0,1.7-2.9,1.7h-.9v1.1ZM1076.1,899.6v-10c0-1.2,0-1.5,1.8-1.5h3.3c5.9,0,5.9,3.9,5.9,5.7s0,5.7-5.9,5.7h-5.1ZM1069.1,912.2c1.3-.1,4-.1,5.4-.1s4.2,0,5.5.1v-1.1h-.9c-2.8,0-2.9-.4-2.9-1.7v-8.8h6.2c4.4,0,8.4-3,8.4-6.7s-3.7-6.9-8.7-6.9h-13v1.1h.9c2.8,0,2.9.4,2.9,1.7v19.4c0,1.3,0,1.7-2.9,1.7h-.9v1.1Z"/>
    </g>
    <rect class="st6" x="964.2" y="712.1" width="354.6" height="235.2"/>
  </g>
  <g>
    <g class="st39">
      <rect class="st14" x="1463.7" y="729.6" width="351.1" height="200.1"/>
    </g>
    <rect class="st6" x="1461.9" y="727.9" width="354.6" height="203.6"/>
  </g>
  <g>
    <g class="st40">
      <rect class="st3" x="1463.7" y="729.6" width="351.1" height="200.1"/>
    </g>
    <rect class="st6" x="1461.9" y="727.9" width="354.6" height="203.6"/>
  </g>
  <g>
    <g class="st41">
      <rect class="st55" x="1505.8" y="792.8" width="259.8" height="49.2"/>
      <rect class="st8" x="1505.8" y="792.8" width="259.8" height="49.2"/>
      <rect class="st55" x="1505.8" y="842" width="259.8" height="49.2"/>
      <rect class="st8" x="1505.8" y="842" width="259.8" height="49.2"/>
    </g>
    <rect class="st6" x="1461.9" y="727.9" width="354.6" height="203.6"/>
  </g>
  <g>
    <g class="st42">
      <path class="st54" d="M1668.4,767.4c0,4.4,3.1,6.9,6.6,6.9s8.8-4.8,9.8-8.8l3.4-13.5c.6-2.4,2.7-2.5,3.7-2.5.1,0,.6,0,.6-.7s-.1-.5-.5-.5c-1.1,0-2.3.1-3.5.1s-2.4-.1-3.5-.1-.7,0-.7.7.3.4.7.4c1.9,0,2.2.8,2.2,1.6s0,.6-.1.9l-3.3,13.1c-1.2,4.8-5.1,8.1-8.6,8.1s-3.9-1.3-3.9-4.6.2-2,.4-2.8l3.7-14.8c.3-1.2.6-1.5,2.9-1.5s1.1,0,1.1-.7-.3-.5-.5-.5c-1.4,0-2.9.1-4.3.1s-3-.1-4.4-.1-.7,0-.7.7.3.4,1,.4c1.1,0,2.1,0,2.1.6s0,.2-.1.7l-3.5,14.2c-.3,1.2-.3,2-.3,2.4M1646.9,760.5l2.4-9.7c.3-1.1.6-1.2.8-1.3.3,0,1.4,0,2.1,0,2.4,0,6,0,6,3.5s-.1,3.6-2.1,5.6c-1.1,1.1-3,1.9-5.5,1.9h-3.7ZM1637.4,773.1c0,.4.4.4.5.4,1.4,0,2.9-.1,4.3-.1s2.9.1,4.4.1.7,0,.7-.7-.3-.5-1-.5c-2.1,0-2.1-.3-2.1-.6s0-.2.1-.7l2.4-9.7h4c1.5,0,3.5.6,3.5,3.2s-.1.8-.6,2.9c-.4,1.7-.6,2.3-.6,3,0,2.7,2.2,3.9,4.6,3.9s4.2-3.9,4.2-4.2,0-.5-.6-.5-.5.2-.6.6c-.6,2.1-1.7,3.2-2.9,3.2s-1.2-1-1.2-2.2.1-1.8.2-2.8c.1-.8.3-2.5.3-3.2,0-2.1-1.3-3.6-3.2-4.3,5.2-1.3,7.7-4.5,7.7-7.2s-2.8-5.5-7.4-5.5h-9.7c-.6,0-1,0-1,.7s.3.4,1,.4c1.1,0,2.1,0,2.1.6s0,.2-.1.7l-5,20c-.3,1.3-.5,1.5-3,1.5s-1,0-1,.7M1625,766.1c0,.5.4.5.8.5h7.4c.2,0,.4,0,.6-.1.4-.2.5-1.4.5-1.4,0-.5-.4-.5-.8-.5h-7.3c-.2,0-.3,0-.5,0-.5.2-.6,1.5-.6,1.5M1602.4,765.9c0-1.7.5-6.9,3.1-11.4,2-3.5,5.3-6.2,8.5-6.2s5.5,2.2,5.5,7.2-1.3,8.1-3.3,11.5c-2.4,4.1-5.7,6.3-8.4,6.3s-5.4-3-5.4-7.4M1599.1,764.8c0,5.6,3.5,9.5,8.5,9.5,7.4,0,15.1-8.3,15.1-17.2s-3.8-9.6-8.4-9.6c-7.6,0-15.2,8.7-15.2,17.3"/>
      <path class="st54" d="M1689.9,814.9c1.8,0,2.3.1,2.7,1.3l4.6,13c.2.5.3.8.8.8s.6-.2.7-.7l3.7-10.4,3.8,10.5c.1.4.3.7.7.7s.6-.3.7-.7l4.3-12.1c.7-1.8,1.8-2.3,3.1-2.4v-1.1c-.8,0-1.9.1-2.7.1s-2.7,0-3.4-.1v1.1c1.3,0,2.1.7,2.1,1.8s0,.3-.2.8l-3.4,9.4-3.7-10.3c-.1-.4-.2-.5-.2-.7,0-1,1.4-1,2.2-1v-1.1c-1.1,0-2.9.1-3.8.1s-2.2,0-3.3-.1v1.1c1.4,0,2,0,2.3.6.2.2.6,1.3.9,2l-3.2,8.9-3.5-9.8c-.2-.4-.2-.5-.2-.7,0-1,1.4-1,2.2-1v-1.1c-1.1,0-3.2.1-4,.1s-2.1,0-3.4-.1v1.1ZM1676,821.5c0-1.4,0-3.4.9-5.1,1-1.7,2.7-2.5,4.2-2.5s3.2.8,4.2,2.4c1,1.6,1,3.7,1,5.1s0,3.3-.8,4.9c-.8,1.7-2.4,2.7-4.3,2.7s-3.2-.8-4.2-2.5c-.9-1.6-.9-3.9-.9-5.2M1672.9,821.8c0,4.8,3.8,8.3,8.1,8.3s8.2-3.6,8.2-8.3-3.7-8.6-8.1-8.6-8.2,4-8.2,8.6M1662.9,829.7c1.2,0,3.2-.1,4.1-.1s2.7,0,4.1.1v-1.1c-2.5,0-2.9,0-2.9-1.7v-22.8l-5.3.4v1.1c2.6,0,2.9.3,2.9,2.1v19.2c0,1.7-.4,1.7-2.9,1.7v1.1ZM1649.8,822.8h9.8v-2.2h-9.8v2.2ZM1622.1,805.6h.7c2.5,0,2.8.4,3.4,1.4l7.7,12.6v7.2c0,1.3,0,1.7-2.9,1.7h-.9v1.1c1.3-.1,3.9-.1,5.4-.1s4.1,0,5.4.1v-1.1h-.8c-2.8,0-2.9-.4-2.9-1.8v-7.1l7.1-11.6c1.4-2.2,3.5-2.4,4.7-2.4v-1.1c-1.1,0-2.6.1-3.6.1s-3.3,0-4.2-.1v1.1c1.5,0,2.1.7,2.1,1.4s-.2.9-.4,1.1l-6.1,9.9-6.7-10.9c-.3-.4-.3-.4-.3-.6,0-.8.9-.9,2.6-.9v-1.1c-1.3.1-4,.1-5.5.1s-3.2,0-4.8-.1v1.1ZM1595.3,829.7c1.3-.1,4-.1,5.4-.1s4.2,0,5.5.1v-1.1h-.9c-2.8,0-2.9-.4-2.9-1.7v-9.7h11v9.7c0,1.3,0,1.7-2.9,1.7h-.9v1.1c1.3-.1,4-.1,5.4-.1s4.2,0,5.5.1v-1.1h-.9c-2.8,0-2.9-.4-2.9-1.7v-19.4c0-1.3,0-1.7,2.9-1.7h.9v-1.1c-1.3.1-4,.1-5.4.1s-4.2,0-5.5-.1v1.1h.9c2.8,0,2.9.4,2.9,1.7v8.6h-11v-8.6c0-1.3,0-1.7,2.9-1.7h.9v-1.1c-1.3.1-4,.1-5.4.1s-4.2,0-5.5-.1v1.1h.9c2.8,0,2.9.4,2.9,1.7v19.4c0,1.3,0,1.7-2.9,1.7h-.9v1.1ZM1577.3,817.1v-10c0-1.2,0-1.5,1.8-1.5h3.3c5.9,0,5.9,3.9,5.9,5.7s0,5.7-5.9,5.7h-5.1ZM1570.3,829.7c1.3-.1,4-.1,5.4-.1s4.2,0,5.5.1v-1.1h-.9c-2.8,0-2.9-.4-2.9-1.7v-8.8h6.2c4.4,0,8.4-3,8.4-6.7s-3.7-6.9-8.7-6.9h-13v1.1h.9c2.8,0,2.9.4,2.9,1.7v19.4c0,1.3,0,1.7-2.9,1.7h-.9v1.1Z"/>
      <path class="st54" d="M1646.5,878.8c1.3-.1,4.2-.1,5.6-.1s4.9,0,6.2.1v-1.1h-1.2c-3.5,0-3.5-.5-3.5-1.8v-9.1h3.2c3.5,0,3.9,1.2,3.9,4.3h.9v-9.8h-.9c0,3.1-.4,4.3-3.9,4.3h-3.2v-9.3c0-1.2,0-1.5,1.8-1.5h4.4c5.5,0,6.5,2.1,7,7.2h.9l-1-8.3h-20.2v1.1h.9c2.8,0,2.9.4,2.9,1.7v19.3c0,1.3,0,1.7-2.9,1.7h-.9v1.1ZM1626.4,865.8v-9.6c0-.8,0-1.3.8-1.4.4,0,1.4,0,2.2,0,3.3,0,7.5.1,7.5,5.5s-.9,5.5-6.3,5.5h-4.1ZM1619.4,878.8c1.3-.1,3.9-.1,5.4-.1s4.1,0,5.4.1v-1.1h-.9c-2.8,0-2.9-.4-2.9-1.7v-9.3h4.2c.6,0,2.1,0,3.4,1.3,1.4,1.3,1.4,2.5,1.4,4.9s0,3.9,1.5,5.3c1.5,1.3,3.5,1.5,4.7,1.5,2.9,0,3.5-3,3.5-4.1s0-.6-.5-.6-.4.3-.4.6c-.2,2.6-1.5,3.3-2.4,3.3-1.8,0-2.1-1.9-2.6-5.3l-.5-2.9c-.7-2.4-2.5-3.6-4.5-4.3,3.6-.9,6.5-3.1,6.5-6s-4.2-6.6-9.6-6.6h-11.6v1.1h.9c2.8,0,2.9.4,2.9,1.7v19.4c0,1.3,0,1.7-2.9,1.7h-.9v1.1Z"/>
    </g>
    <rect class="st6" x="1461.9" y="727.9" width="354.6" height="203.6"/>
  </g>
  <g>
    <g class="st43">
      <g>
        <g class="st44">
          <line class="st11" x1="686.3" y1="723.7" x2="686.3" y2="589.5"/>
        </g>
        <rect class="st6" x="-853.1" y="-471.5" width="2758.2" height="1551.5"/>
      </g>
    </g>
    <rect class="st6" x="682.7" y="588.1" width="7.2" height="137.1"/>
  </g>
  <g>
    <g class="st37">
      <rect class="st11" x="1427.4" y="633.3" width="423.6" height="360.1"/>
    </g>
    <rect class="st6" x="1423.9" y="629.7" width="430.7" height="367.2"/>
  </g>
  <g class="st35">
    <g>
      <path d="M1527,690.7v-20.2h7.6c1.3,0,2.4.2,3.4.8,1,.5,1.7,1.2,2.3,2.1s.8,2,.8,3.2h0c0,1.4-.4,2.6-1.1,3.7-.7,1-1.7,1.7-3,2.1l4.7,8.4h-3l-4.3-8h-4.8v8h-2.5ZM1529.5,680.4h4.8c1.3,0,2.3-.3,3-1,.7-.7,1.1-1.6,1.1-2.9h0c0-1.2-.4-2.2-1.1-2.9-.7-.7-1.8-1-3.1-1h-4.7v7.8Z"/>
      <path d="M1547.4,690.9c-1,0-1.8-.2-2.5-.5-.7-.4-1.3-.9-1.7-1.5-.4-.7-.6-1.4-.6-2.3h0c0-.9.2-1.6.6-2.2.4-.6,1-1.1,1.8-1.4.8-.4,1.7-.6,2.9-.6l5.4-.3v1.9l-5.1.3c-1,0-1.7.3-2.3.7-.5.4-.8,1-.8,1.6h0c0,.7.3,1.3.8,1.7.5.4,1.2.6,2.1.6s1.5-.2,2.1-.5c.6-.3,1.1-.8,1.5-1.3.4-.6.5-1.2.5-1.9v-4.3c0-.9-.3-1.6-.8-2.1s-1.3-.8-2.4-.8-1.7.2-2.3.6c-.6.4-.9.9-1.1,1.6h0c0,.1-2.4.1-2.4.1v-.2c0-.8.4-1.5.8-2.2.5-.7,1.1-1.2,2-1.6.8-.4,1.8-.6,3-.6s2.1.2,3,.6,1.5.9,1.9,1.7c.5.7.7,1.6.7,2.5v10.1h-2.4v-2.4h0c-.3.5-.7,1-1.1,1.4s-1,.7-1.6.9c-.6.2-1.2.3-1.9.3Z"/>
      <path d="M1562.4,690.9c-1.2,0-2.3-.3-3.3-.9s-1.7-1.5-2.2-2.6c-.5-1.1-.8-2.5-.8-4h0c0-1.5.3-2.9.8-4,.5-1.1,1.2-2,2.2-2.6.9-.6,2-.9,3.2-.9s1.3.1,1.9.3,1.1.5,1.6.9c.5.4.9.9,1.2,1.5h0v-8.1h2.4v20.2h-2.4v-2.5h0c-.3.6-.7,1.1-1.1,1.5-.5.4-1,.7-1.6.9-.6.2-1.2.3-1.9.3ZM1562.9,688.8c.8,0,1.6-.2,2.2-.7.6-.4,1.1-1.1,1.5-1.9.4-.8.5-1.8.5-2.8h0c0-1.1-.2-2-.5-2.9-.4-.8-.9-1.4-1.5-1.9-.6-.4-1.4-.7-2.2-.7s-1.6.2-2.2.7c-.6.4-1.1,1.1-1.4,1.9-.3.8-.5,1.8-.5,2.9h0c0,1.1.2,2.1.5,2.9s.8,1.4,1.4,1.9c.6.4,1.4.7,2.2.7Z"/>
      <path d="M1573.6,673.6c-.4,0-.8-.2-1.1-.4s-.4-.7-.4-1.1.1-.8.4-1.1c.3-.3.7-.4,1.1-.4s.8.1,1.1.4.4.7.4,1.1-.1.8-.4,1.1c-.3.3-.7.4-1.1.4ZM1572.4,690.7v-14.6h2.4v14.6h-2.4Z"/>
      <path d="M1583.6,690.9c-1.3,0-2.5-.3-3.5-.9-1-.6-1.8-1.5-2.4-2.6-.6-1.1-.8-2.5-.8-4h0c0-1.6.3-2.9.8-4,.6-1.1,1.4-2,2.4-2.6,1-.6,2.2-.9,3.5-.9s2.5.3,3.5.9c1,.6,1.8,1.5,2.4,2.6.6,1.1.8,2.5.8,4h0c0,1.6-.3,2.9-.8,4.1-.6,1.1-1.4,2-2.4,2.6s-2.2.9-3.5.9ZM1583.6,688.8c.9,0,1.6-.2,2.2-.6.6-.4,1.1-1,1.5-1.9.4-.8.5-1.8.5-2.9h0c0-1.2-.2-2.1-.5-2.9-.4-.8-.8-1.4-1.5-1.8s-1.4-.6-2.3-.6-1.6.2-2.2.6c-.6.4-1.1,1-1.5,1.8-.4.8-.5,1.8-.5,2.9h0c0,1.2.2,2.1.5,3,.4.8.9,1.4,1.5,1.9.6.4,1.4.6,2.3.6Z"/>
      <path d="M1605.9,691c-1.7,0-3.1-.3-4.3-.9-1.2-.6-2.1-1.5-2.8-2.6-.6-1.1-1-2.4-1-3.9v-13.1h2.5v13c0,1,.2,2,.7,2.7.4.8,1.1,1.4,1.9,1.9.8.4,1.8.7,3,.7s2.2-.2,3-.7c.8-.4,1.4-1.1,1.9-1.9.4-.8.6-1.7.6-2.7v-13h2.5v13.1c0,1.5-.3,2.8-1,3.9-.6,1.1-1.6,2-2.8,2.6-1.2.6-2.6.9-4.3.9Z"/>
      <path d="M1616.8,690.7v-14.6h2.4v2.1h0c.4-.7,1-1.2,1.7-1.7s1.7-.7,2.8-.7c1.6,0,2.8.5,3.7,1.5.9,1,1.3,2.3,1.3,3.9v9.5h-2.4v-9c0-1.2-.3-2.1-.8-2.7-.6-.6-1.4-.9-2.5-.9s-1.4.2-2,.5c-.6.3-1,.8-1.3,1.4s-.5,1.3-.5,2.2v8.6h-2.4Z"/>
      <path d="M1632.7,673.6c-.4,0-.8-.2-1.1-.4s-.4-.7-.4-1.1.1-.8.4-1.1c.3-.3.7-.4,1.1-.4s.8.1,1.1.4.4.7.4,1.1-.1.8-.4,1.1c-.3.3-.7.4-1.1.4ZM1631.5,690.7v-14.6h2.4v14.6h-2.4Z"/>
      <path d="M1641.4,690.9c-1.3,0-2.3-.3-3-1-.7-.6-1-1.7-1-3v-8.9h-2.1v-2h2.1v-3.9h2.5v3.9h2.8v2h-2.8v8.8c0,.8.2,1.3.5,1.6.3.3.8.4,1.5.4s.3,0,.4,0c.1,0,.3,0,.4,0v2c-.1,0-.3,0-.6,0-.2,0-.5,0-.7,0Z"/>
      <path d="M1655,695.6c-.9-1.2-1.7-2.4-2.3-3.7-.6-1.3-1-2.7-1.3-4.2-.3-1.5-.4-3-.4-4.7s.1-3.2.4-4.7c.3-1.5.7-2.9,1.3-4.2.6-1.3,1.3-2.5,2.2-3.7h2c-.5.6-1,1.4-1.4,2.3-.4.9-.8,2-1.1,3.1-.3,1.1-.6,2.3-.8,3.6-.2,1.2-.3,2.4-.3,3.6s0,2.4.3,3.6.4,2.4.8,3.6c.3,1.1.7,2.2,1.1,3.1.4.9.9,1.7,1.4,2.3h-2Z"/>
      <path d="M1667.5,691c-1.9,0-3.6-.4-5-1.3-1.4-.9-2.5-2.1-3.2-3.6-.8-1.6-1.1-3.4-1.1-5.6h0c0-2.2.4-4,1.1-5.6.8-1.6,1.8-2.8,3.2-3.6,1.4-.9,3.1-1.3,5-1.3s3.6.4,5,1.3c1.4.9,2.5,2.1,3.2,3.6.8,1.6,1.1,3.4,1.1,5.5h0c0,2.2-.4,4-1.1,5.6-.8,1.6-1.8,2.8-3.2,3.6-1.4.9-3,1.3-5,1.3ZM1667.5,688.7c1.4,0,2.6-.3,3.6-1,1-.7,1.8-1.6,2.3-2.8.5-1.2.8-2.6.8-4.3h0c0-1.7-.3-3.1-.8-4.3s-1.3-2.2-2.3-2.8c-1-.7-2.2-1-3.6-1s-2.6.3-3.6,1c-1,.7-1.8,1.6-2.3,2.8-.6,1.2-.8,2.6-.8,4.3h0c0,1.7.3,3.1.8,4.3.6,1.2,1.3,2.2,2.3,2.8,1,.7,2.2,1,3.6,1Z"/>
      <path d="M1679.1,683.6v-2.3h9v2.3h-9Z"/>
      <path d="M1691,690.7v-20.2h7.6c1.3,0,2.4.2,3.4.8,1,.5,1.7,1.2,2.3,2.1s.8,2,.8,3.2h0c0,1.4-.4,2.6-1.1,3.7-.7,1-1.7,1.7-3,2.1l4.7,8.4h-3l-4.3-8h-4.8v8h-2.5ZM1693.6,680.4h4.8c1.3,0,2.3-.3,3-1,.7-.7,1.1-1.6,1.1-2.9h0c0-1.2-.4-2.2-1.1-2.9-.7-.7-1.8-1-3.1-1h-4.7v7.8Z"/>
      <path d="M1715.7,691c-1.7,0-3.1-.3-4.3-.9-1.2-.6-2.1-1.5-2.8-2.6-.6-1.1-1-2.4-1-3.9v-13.1h2.5v13c0,1,.2,2,.7,2.7.4.8,1.1,1.4,1.9,1.9.8.4,1.8.7,3,.7s2.2-.2,3-.7c.8-.4,1.4-1.1,1.9-1.9.4-.8.6-1.7.6-2.7v-13h2.5v13.1c0,1.5-.3,2.8-1,3.9-.6,1.1-1.6,2-2.8,2.6-1.2.6-2.6.9-4.3.9Z"/>
      <path d="M1727.7,695.6h-2c.5-.6,1-1.4,1.4-2.3.4-.9.8-2,1.1-3.1.3-1.2.6-2.3.8-3.6s.3-2.4.3-3.6,0-2.4-.3-3.6c-.2-1.2-.4-2.4-.8-3.6-.3-1.1-.7-2.2-1.1-3.1-.4-.9-.9-1.7-1.4-2.3h2c.9,1.2,1.7,2.4,2.3,3.7.6,1.3,1,2.7,1.3,4.2.3,1.5.4,3,.4,4.7s-.1,3.2-.4,4.7c-.3,1.5-.7,2.9-1.3,4.2-.6,1.3-1.3,2.5-2.3,3.7Z"/>
    </g>
  </g>
  <g>
    <g class="st38">
      <g>
        <g class="st36">
          <line class="st11" x1="308.6" y1="722.6" x2="308.6" y2="588.4"/>
        </g>
        <rect class="st6" x="-853.1" y="-471.5" width="2758.2" height="1551.5"/>
      </g>
    </g>
    <rect class="st6" x="305" y="587" width="7.2" height="137.1"/>
  </g>
  <g>
    <g class="st31">
      <g>
        <g class="st25">
          <line class="st11" x1="973.8" y1="712.1" x2="973.8" y2="588.5"/>
        </g>
        <rect class="st6" x="-853.1" y="-471.5" width="2758.2" height="1551.5"/>
      </g>
    </g>
    <rect class="st6" x="970.2" y="587" width="7.2" height="126.5"/>
  </g>
  <g>
    <g class="st26">
      <line class="st11" x1="308.2" y1="588.4" x2="974.8" y2="588.4"/>
    </g>
    <rect class="st6" x="306.8" y="584.8" width="669.4" height="7.2"/>
  </g>
  <g>
    <g class="st27">
      <g>
        <g class="st28">
          <line class="st11" x1="759.7" y1="589.2" x2="759.7" y2="441.9"/>
        </g>
        <rect class="st6" x="-853.1" y="-471.5" width="2758.2" height="1551.5"/>
      </g>
    </g>
    <rect class="st6" x="756.1" y="440.4" width="7.2" height="150.2"/>
  </g>
  <g>
    <g class="st29">
      <line class="st11" x1="1314.6" y1="819.7" x2="1464.8" y2="819.7"/>
    </g>
    <rect class="st6" x="1313.1" y="816.1" width="153.1" height="7.2"/>
  </g>
  <g>
    <g class="st32">
      <g>
        <g class="st33">
          <line class="st11" x1="1083.2" y1="438.6" x2="757.7" y2="438.6"/>
        </g>
        <rect class="st6" x="-853.1" y="-471.5" width="2758.2" height="1551.5"/>
      </g>
    </g>
    <rect class="st6" x="756.3" y="435" width="328.4" height="7.2"/>
  </g>
  <g>
    <g class="st34">
      <rect class="st4" x="1102" y="31.8" width="680.5" height="255.3"/>
      <rect class="st1" x="1142.5" y="102.9" width="604.5" height="147.1"/>
      <rect class="st14" x="1162" y="173.1" width="157.7" height="54.4"/>
      <rect class="st1" x="1162" y="173.1" width="157.7" height="54.4"/>
      <rect class="st14" x="1369.4" y="173.1" width="157.7" height="54.4"/>
      <rect class="st1" x="1369.4" y="173.1" width="157.7" height="54.4"/>
      <rect class="st14" x="1572.8" y="173.1" width="157.7" height="54.4"/>
      <rect class="st1" x="1572.8" y="173.1" width="157.7" height="54.4"/>
      <path d="M1462,67.2c0-8.9,5-11.3,7.9-11.3s7.9,2.4,7.9,11.3-4.7,12-7.9,12-7.9-3-7.9-12M1458.5,67.7c0,7.1,5.3,12.4,11.4,12.4s11.5-5.5,11.5-12.4-5.2-12.6-11.5-12.6-11.4,5.5-11.4,12.6M1426.3,79.3c1.2,0,2.9-.1,4-.1s2.8,0,4,.1v-1.1c-3.5,0-3.5-1.6-3.5-2.5v-18.6h0l8.3,21.4c.2.4.3.8.7.8s.5-.3.6-.7l8.5-21.8h0v19.8c0,1.2,0,1.6-2.7,1.6h-.8v1.1c1.3-.1,3.6-.1,5-.1s3.7,0,4.9.1v-1.1h-.8c-2.7,0-2.7-.4-2.7-1.6v-18.1c0-1.2,0-1.6,2.7-1.6h.8v-1.1h-5.8c-.9,0-.9,0-1.1.7l-7.5,19.4-7.5-19.3c-.3-.8-.4-.8-1.2-.8h-5.8v1.1h.8c2.7,0,2.7.4,2.7,1.6v17.2c0,.9,0,2.5-3.5,2.5v1.1ZM1407.8,79.3c0,.6,0,.8.4.8s.3,0,.5-.4c0,0,.1-.1,1.2-2,1.1,1.2,3.3,2.4,6.3,2.4s6.8-3.4,6.8-7.2-2.3-6.3-5.2-7l-4.4-1.1c-2.1-.5-3.5-2.4-3.5-4.4s1.9-4.5,4.5-4.5c5.8,0,6.5,5.6,6.7,7.2,0,.2,0,.4.4.4s.5-.2.5-.8v-6.9c0-.6,0-.8-.4-.8s-.3,0-.5.4l-1.2,2c-1-1-2.4-2.4-5.5-2.4s-6.7,3-6.7,6.7,1.8,5.4,4.5,6.3c.4.1,2.1.5,4.5,1.1.9.2,2,.5,2.9,1.8.7.9,1.1,2,1.1,3.2,0,2.4-1.7,4.9-4.6,4.9s-3.6-.2-5.4-1.9c-2-1.9-2.1-4.1-2.1-5.3,0-.3-.3-.3-.4-.3-.4,0-.4.2-.4.9v6.9Z"/>
      <path class="st54" d="M1595.9-1.3c0-1.5,0-4,1.3-5.9.9-1.3,2.4-2.6,4.7-2.6s3.2.6,4.5,2.5c.5.7.5.8.5,1.5V2.6c0,.7,0,.8-.5,1.5-1.2,2-3.1,2.9-4.9,2.9s-3.3-1.1-4.3-2.6c-1.1-1.7-1.2-4.1-1.2-5.7M1592.5-1.4c0,5.2,4,9.3,8.8,9.3s4.5-1.4,5.5-2.7v2.7l6.1-.5v-1.3c-2.9,0-3.2-.3-3.2-2.3v-25.1l-6,.5v1.3c2.9,0,3.2.3,3.2,2.3v8.9c-1.2-1.5-3-2.6-5.2-2.6-4.9,0-9.2,4-9.2,9.4M1569.5-9c3.2,0,3.2.1,3.2,3.8V1c0,3.2,0,7,6.3,7s4.1-1.2,5.3-3.7v3.7l5.9-.5v-1.3c-2.9,0-3.2-.3-3.2-2.3v-14.7l-6.1.5v1.3c2.9,0,3.2.3,3.2,2.3V.7c0,3.6-2,6.4-5,6.4s-3.6-1.9-3.6-4.1v-13.7l-6.1.5v1.3ZM1552.1-1.6c0-1.6,0-3.8,1-5.7,1.1-1.9,3.1-2.8,4.7-2.8s3.6.9,4.7,2.7c1.1,1.8,1.1,4.2,1.1,5.7s0,3.7-.9,5.5c-.9,1.9-2.7,3.1-4.8,3.1s-3.6-.9-4.7-2.8c-1-1.8-1-4.3-1-5.8M1548.6-1.3c0,5.3,4.3,9.3,9.1,9.3s9.2-4,9.2-9.3-4.1-9.7-9.1-9.7-9.2,4.5-9.2,9.7M1537.4,7.5c1.4,0,3.6-.1,4.6-.1s3.1,0,4.6.1v-1.3c-2.8,0-3.2,0-3.2-1.9v-25.5l-6,.5v1.3c2.9,0,3.2.3,3.2,2.3V4.4c0,1.9-.5,1.9-3.2,1.9v1.3ZM1508.5-6.6c0,8.6,6.7,15,14.4,15s10.8-5.7,10.8-10.5,0-.7-.5-.7-.5.2-.5.7c-.3,5.9-4.8,9.3-9.3,9.3s-10.6-1.4-10.6-13.7,8.1-13.8,10.6-13.8c4.5,0,8.2,3.8,9,9.8,0,.6,0,.7.7.7s.7-.1.7-1v-9.8c0-.7,0-1-.5-1s-.3,0-.7.5l-2.1,3.1c-1.5-1.5-3.6-3.6-7.6-3.6-7.7,0-14.4,6.6-14.4,15M1492.8-.2h11v-2.4h-11V-.2ZM1466.9-7.1c0-10.7,6-13.5,9.5-13.5s9.5,2.9,9.5,13.5-5.7,14.4-9.5,14.4-9.5-3.6-9.5-14.4M1462.6-6.5c0,8.5,6.4,14.9,13.7,14.9s13.8-6.6,13.8-14.9-6.2-15.1-13.8-15.1-13.7,6.6-13.7,15.1M1436.5,7.5c1.4,0,3.6-.1,4.6-.1s3.1,0,4.6.1v-1.3c-2.8,0-3.2,0-3.2-1.9v-25.5l-5.9.5v1.3c2.9,0,3.2.3,3.2,2.3V4.4c0,1.9-.5,1.9-3.2,1.9v1.3ZM1419.4,3.6c0-2.3,1.7-5.7,8.6-5.9V1.7c0,3.9-3,5.3-4.8,5.3s-3.7-1.4-3.7-3.5M1416.2,3.6c0,3.3,4,4.4,6.6,4.4s4.6-1.7,5.4-3.6c.2,1.7,1.3,3.4,3.2,3.4s3.4-.6,3.4-3.9V1.5h-1v2.3c0,2.4-1,2.6-1.5,2.6-1.4,0-1.5-1.9-1.5-2.1V-3.8c0-1.7,0-3.3-1.5-4.9-1.6-1.6-3.7-2.3-5.7-2.3-3.4,0-6.2,1.9-6.2,4.7s.8,1.9,1.9,1.9,1.9-.8,1.9-1.9-.2-1.9-2.1-1.9c1.1-1.4,3.1-1.9,4.5-1.9,2,0,4.4,1.6,4.4,5.3v1.5c-2.1.1-5,.2-7.6,1.5-3.1,1.4-4.1,3.6-4.1,5.4M1392.8,7.5c1.4,0,3.6-.1,4.7-.1s3.2,0,4.6.1v-1.3c-2.8,0-3.2,0-3.2-1.9V-3.2c0-4.3,2.9-6.6,5.6-6.6s3.1,2.2,3.1,4.6V4.4c0,1.9-.5,1.9-3.2,1.9v1.3c1.4,0,3.6-.1,4.7-.1s3.2,0,4.6.1v-1.3c-2.1,0-3.2,0-3.2-1.2V-2.9c0-3.6,0-4.8-1.3-6.3-.6-.7-1.9-1.5-4.3-1.5s-5,1.8-6.1,4.3v-4.3l-5.8.5v1.3c2.9,0,3.2.3,3.2,2.3V4.4c0,1.9-.5,1.9-3.2,1.9v1.3ZM1375.5-1.6c0-1.6,0-3.8,1-5.7,1.1-1.9,3.1-2.8,4.7-2.8s3.6.9,4.7,2.7c1.1,1.8,1.1,4.2,1.1,5.7s0,3.7-.9,5.5c-.9,1.9-2.7,3.1-4.8,3.1s-3.6-.9-4.7-2.8c-1-1.8-1-4.3-1-5.8M1372-1.3c0,5.3,4.3,9.3,9.1,9.3s9.2-4,9.2-9.3-4.1-9.7-9.1-9.7-9.2,4.5-9.2,9.7M1360.8,7.5c1.3,0,3.6-.1,4.5-.1,1.4,0,2.9,0,4.3.1v-1.3c-2.7,0-2.9-.2-2.9-1.8v-15.2l-5.8.5v1.3c2.7,0,3.1.2,3.1,2.3V4.4c0,1.9-.5,1.9-3.2,1.9v1.3ZM1362.5-17.9c0,1.1.9,2.2,2.2,2.2s2.2-.9,2.2-2.2-1-2.2-2.2-2.2-2.2,1.1-2.2,2.2M1344.3-4.7c0-1.1,0-2.4.7-3.5.3-.5,1.3-1.7,2.9-1.7,3.6,0,3.6,4.1,3.6,5.1s0,2.4-.7,3.5c-.3.5-1.3,1.7-2.9,1.7-3.6,0-3.6-4.1-3.6-5.1M1342.1,10.8c0-1.9,1.6-3.4,3.4-3.6h2.4c3.6,0,8.2,0,8.2,3.6s-2.9,4.3-7,4.3-7-2.1-7-4.3M1339.9,10.8c0,3,4.1,5.2,9.1,5.2s9.2-2.1,9.2-5.3-.6-3.6-2.7-4.7c-2.2-1.2-4.6-1.2-7.1-1.2s-2.8,0-3.1,0c-1.3-.2-2.2-1.4-2.2-2.8s0-1.1.7-1.9c1.6,1.2,3.3,1.3,4.1,1.3,3.8,0,6.7-2.8,6.7-6s-.7-3.1-1.7-4c1.5-1.4,3-1.6,3.7-1.6s.3,0,.4,0c-.5.2-.7.6-.7,1.1,0,.7.5,1.2,1.2,1.2s1.2-.3,1.2-1.2-.5-2-2.1-2-2.6.2-4.4,1.9c-1.7-1.4-3.5-1.5-4.4-1.5-3.8,0-6.7,2.9-6.7,6s.9,3.4,1.9,4.3c-.5.6-1.3,2-1.3,3.4s.5,2.8,1.8,3.7c-2.5.7-3.8,2.5-3.8,4.1M1325-2.9c.2-6.2,3.7-7.2,5.1-7.2,4.3,0,4.7,5.6,4.7,7.2h-9.8ZM1321.6-1.6c0,5.5,4.3,9.5,9.1,9.5s6.9-4.6,6.9-5.4-.3-.5-.5-.5c-.4,0-.5.2-.5.6-1.4,4.3-5.2,4.3-5.6,4.3-2.1,0-3.7-1.2-4.7-2.8-1.2-2-1.2-4.7-1.2-6.2h11.5c.9,0,1,0,1-.9,0-4.1-2.2-8.1-7.4-8.1s-8.6,4.3-8.6,9.4M1299.3-7.1v-10.7c0-1,0-1.4.9-1.6.4,0,1.6,0,2.4,0,3.7,0,8.3.2,8.3,6.2s-1,6.2-7.1,6.2h-4.6ZM1291.4,7.5c1.5-.1,4.4-.1,6-.1s4.5,0,6,.1v-1.3h-1c-3.2,0-3.3-.5-3.3-1.9V-6.2h4.7c.7,0,2.4,0,3.8,1.4,1.6,1.5,1.6,2.8,1.6,5.5s0,4.3,1.7,5.9c1.7,1.5,4,1.7,5.2,1.7,3.2,0,3.9-3.4,3.9-4.5s0-.7-.5-.7-.5.4-.5.7c-.2,2.9-1.7,3.7-2.7,3.7-2,0-2.4-2.1-2.9-5.9l-.5-3.3c-.7-2.6-2.8-4-5-4.8,4-1,7.2-3.5,7.2-6.7s-4.7-7.4-10.8-7.4h-13v1.3h1c3.2,0,3.3.5,3.3,1.9V4.3c0,1.5,0,1.9-3.3,1.9h-1v1.3Z"/>
      <path d="M1569.4,137.5c0,7.1,5.6,12.5,12,12.5s9-4.8,9-8.8,0-.6-.4-.6-.4.2-.4.6c-.3,4.9-4,7.7-7.7,7.7s-8.9-1.2-8.9-11.4,6.7-11.5,8.8-11.5c3.7,0,6.8,3.1,7.5,8.2,0,.5,0,.6.6.6s.6-.1.6-.8v-8.2c0-.6,0-.8-.4-.8s-.3,0-.6.4l-1.7,2.5c-1.3-1.2-3-3-6.3-3-6.4,0-12,5.5-12,12.5M1556,149.3c1.2-.1,3.9-.1,5.2-.1s4.1,0,5.3.1v-1.1h-.9c-2.7,0-2.8-.4-2.8-1.6v-18.1c0-1.2.1-1.6,2.8-1.6h.9v-1.1c-1.2.1-3.9.1-5.2.1s-4.1,0-5.3-.1v1.1h.9c2.7,0,2.8.4,2.8,1.6v18.1c0,1.2-.1,1.6-2.8,1.6h-.9v1.1ZM1537.5,137.1v-8.9c0-.8,0-1.2.8-1.3.3,0,1.3,0,2,0,3.1,0,7,.1,7,5.1s-.8,5.2-5.9,5.2h-3.8ZM1530.9,149.3c1.2-.1,3.7-.1,5-.1s3.8,0,5,.1v-1.1h-.8c-2.7,0-2.7-.4-2.7-1.6v-8.7h4c.5,0,2,0,3.2,1.2,1.3,1.2,1.3,2.3,1.3,4.6s0,3.6,1.4,4.9c1.4,1.2,3.3,1.4,4.3,1.4,2.7,0,3.3-2.8,3.3-3.8s0-.6-.5-.6-.4.3-.4.5c-.2,2.4-1.4,3.1-2.3,3.1-1.7,0-2-1.8-2.4-5l-.4-2.8c-.6-2.2-2.3-3.3-4.2-4,3.3-.8,6-2.9,6-5.6s-3.9-6.2-9-6.2h-10.8v1.1h.8c2.7,0,2.7.4,2.7,1.6v18.1c0,1.2,0,1.6-2.7,1.6h-.8v1.1ZM1506.8,140.6c.2-5.1,3.1-6,4.3-6,3.5,0,3.9,4.7,3.9,6h-8.2ZM1503.9,141.7c0,4.6,3.6,8,7.6,8s5.7-3.8,5.7-4.5-.3-.4-.4-.4c-.3,0-.4.2-.4.5-1.2,3.5-4.3,3.5-4.7,3.5-1.7,0-3.1-1-3.9-2.3-1-1.7-1-3.9-1-5.2h9.6c.8,0,.9,0,.9-.7,0-3.4-1.9-6.7-6.2-6.7s-7.2,3.5-7.2,7.9M1475.4,149.3c1.2,0,3-.1,3.9-.1s2.7,0,3.9.1v-1.1c-2.3,0-2.7,0-2.7-1.5v-6.3c0-3.6,2.4-5.5,4.6-5.5s2.5,1.9,2.5,3.8v8c0,1.5-.4,1.5-2.7,1.5v1.1c1.2,0,3-.1,3.9-.1s2.7,0,3.9.1v-1.1c-2.3,0-2.7,0-2.7-1.5v-6.3c0-3.6,2.4-5.5,4.6-5.5s2.5,1.9,2.5,3.8v8c0,1.5-.4,1.5-2.7,1.5v1.1c1.2,0,3-.1,3.9-.1s2.7,0,3.9.1v-1.1c-1.8,0-2.7,0-2.7-1v-6.6c0-3,0-4-1.1-5.3-.5-.6-1.6-1.3-3.6-1.3-2.9,0-4.4,2.1-5,3.4-.5-3-3-3.4-4.6-3.4-2.5,0-4.1,1.5-5.1,3.6v-3.6l-4.9.4v1.1c2.4,0,2.7.2,2.7,1.9v9.2c0,1.5-.4,1.5-2.7,1.5v1.1ZM1465.9,149.3c1.1,0,3-.1,3.8-.1,1.2,0,2.4,0,3.6.1v-1.1c-2.3,0-2.4-.2-2.4-1.5v-12.6l-4.8.4v1.1c2.2,0,2.5.2,2.5,1.9v9.3c0,1.5-.4,1.5-2.7,1.5v1.1ZM1467.3,128.1c0,.9.8,1.8,1.8,1.8s1.8-.7,1.8-1.8-.9-1.8-1.8-1.8-1.8.9-1.8,1.8M1452.1,135.5h2.9v9.5c0,4.2,3.2,4.7,4.4,4.7,2.4,0,3.4-2.4,3.4-4.7v-2h-.9v1.9c0,2.5-1,3.9-2.3,3.9-2.3,0-2.3-3.1-2.3-3.7v-9.6h4.9v-1.1h-4.9v-6.3h-.9c0,2.8-1.1,6.5-4.4,6.6v.8ZM1440.3,142.9h9.2v-2h-9.2v2ZM1431.5,149.3c1.1,0,3-.1,3.8-.1s2.5,0,3.8.1v-1.1c-2.3,0-2.7,0-2.7-1.5v-21.3l-5,.4v1.1c2.4,0,2.7.2,2.7,1.9v17.9c0,1.5-.4,1.5-2.7,1.5v1.1ZM1417.3,146c0-1.9,1.4-4.7,7.1-5v3.4c0,3.3-2.5,4.4-4,4.4s-3.1-1.2-3.1-2.9M1414.6,146c0,2.8,3.3,3.7,5.5,3.7s3.9-1.4,4.5-3c.1,1.4,1.1,2.8,2.7,2.8s2.8-.5,2.8-3.3v-1.9h-.9v1.9c0,2-.9,2.2-1.2,2.2-1.1,0-1.3-1.5-1.3-1.7v-6.9c0-1.4,0-2.8-1.2-4.1-1.3-1.3-3.1-1.9-4.7-1.9-2.8,0-5.2,1.6-5.2,3.9s.7,1.6,1.6,1.6,1.6-.7,1.6-1.6-.2-1.5-1.8-1.6c.9-1.2,2.6-1.6,3.7-1.6,1.7,0,3.7,1.3,3.7,4.4v1.3c-1.8.1-4.2.2-6.3,1.2-2.6,1.2-3.4,3-3.4,4.5M1401.7,140.6c.2-5.1,3.1-6,4.3-6,3.5,0,3.9,4.7,3.9,6h-8.2ZM1398.9,141.7c0,4.6,3.6,8,7.6,8s5.8-3.8,5.8-4.5-.3-.4-.5-.4c-.3,0-.4.2-.4.5-1.2,3.5-4.3,3.5-4.6,3.5-1.7,0-3.1-1-3.9-2.3-1-1.7-1-3.9-1-5.2h9.6c.8,0,.9,0,.9-.7,0-3.4-1.9-6.7-6.2-6.7s-7.2,3.5-7.2,7.9M1385.4,149.3c1.3,0,3-.1,3.9-.1,1.4,0,3,0,4.4.1v-1.1h-.7c-2.5,0-2.6-.4-2.6-1.6v-5.3c0-3.4,1.4-6.5,4.1-6.5s.3,0,.4,0c-.1,0-.8.5-.8,1.3s.7,1.5,1.5,1.5,1.5-.4,1.5-1.5-1.1-2.1-2.5-2.1c-2.5,0-3.8,2.3-4.2,3.8v-3.8l-4.8.4v1.1c2.4,0,2.7.2,2.7,1.9v9.2c0,1.5-.4,1.5-2.7,1.5v1.1ZM1373.3,142.9h9.2v-2h-9.2v2ZM1354.9,149.3c1.2,0,3-.1,3.9-.1s2.7,0,3.9.1v-1.1c-2.3,0-2.7,0-2.7-1.5v-6.3c0-3.6,2.4-5.5,4.7-5.5s2.5,1.9,2.5,3.8v8c0,1.5-.4,1.5-2.7,1.5v1.1c1.2,0,3-.1,3.9-.1s2.7,0,3.9.1v-1.1c-1.8,0-2.7,0-2.7-1v-6.6c0-3,0-4-1.1-5.3-.5-.6-1.6-1.3-3.6-1.3s-4.1,1.5-5.1,3.6v-3.6l-4.9.4v1.1c2.4,0,2.7.2,2.7,1.9v9.2c0,1.5-.4,1.5-2.7,1.5v1.1ZM1340.5,141.6c0-1.3,0-3.2.8-4.7.9-1.6,2.5-2.3,3.9-2.3s3,.8,3.9,2.2c.9,1.5.9,3.5.9,4.8s0,3.1-.8,4.6c-.8,1.5-2.3,2.5-4,2.5s-3-.7-3.9-2.3c-.9-1.5-.9-3.6-.9-4.9M1337.6,141.9c0,4.4,3.6,7.7,7.6,7.7s7.6-3.4,7.6-7.7-3.4-8.1-7.6-8.1-7.6,3.7-7.6,8.1M1311.9,149.3c1.2,0,2.9-.1,4-.1s2.8,0,4,.1v-1.1c-3.5,0-3.5-1.6-3.5-2.5v-17.9c.2.2.2.2.3.4l14,20.7c.3.4.3.4.6.4.5,0,.5-.2.5-.9v-19c0-.9,0-2.5,3.5-2.5v-1.1c-1.2,0-2.9.1-4,.1s-2.8,0-4-.1v1.1c3.5,0,3.5,1.6,3.5,2.5v14.7l-12.2-17.9c-.3-.4-.3-.5-1-.5h-5.9v1.1h1c.5,0,1.2,0,1.7,0,.8.1.8.1.8.8v18c0,.9,0,2.5-3.5,2.5v1.1Z"/>
      <path class="st54" d="M1259.6,202.1c.8-4.5,4.5-9.1,7.4-9.1s1.3.8,1.3,2.4c0,2.8-1.4,7-3.3,9.7-.7,1-1.8,1.5-3.3,1.5s-2-.2-2.9-.8l.6-3.7ZM1260.8,208.3c2,0,6-2.6,7.5-4.8,1.4-2.1,2.6-6,2.6-8.6s-.8-3.9-2.1-3.9-3.3.9-5.2,2.6c-1.4,1.2-2.1,2.1-3.4,4.2l.8-4.2c.1-.6.2-1.1.2-1.5,0-.7-.3-1.1-.8-1.1-.7,0-2.1.7-4.7,2.6l-1,.7.2.7,1.1-.7c1-.6,1.4-.8,1.7-.8s.6.3.6.8,0,1-.1,1.3l-2,12c-.4,2.1-1,5.3-1.7,8.5l-.3,1.3.2.2c.7-.2,1.4-.4,2.6-.6l1.5-9.2c.7.2,1.5.5,2.1.5M1242.1,202.1c.8-4.5,4.5-9.1,7.4-9.1s1.3.8,1.3,2.4c0,2.8-1.4,7-3.3,9.7-.7,1-1.8,1.5-3.3,1.5s-2-.2-2.9-.8l.6-3.7ZM1243.3,208.3c2,0,6-2.6,7.5-4.8,1.4-2.1,2.6-6,2.6-8.6s-.8-3.9-2.1-3.9-3.3.9-5.2,2.6c-1.4,1.2-2.1,2.1-3.4,4.2l.8-4.2c.1-.6.2-1.1.2-1.5,0-.7-.3-1.1-.8-1.1-.7,0-2.1.7-4.7,2.6l-1,.7.2.7,1.1-.7c1-.6,1.4-.8,1.7-.8s.6.3.6.8,0,1-.1,1.3l-2,12c-.4,2.1-1,5.3-1.7,8.5l-.3,1.3.2.2c.7-.2,1.4-.4,2.6-.6l1.5-9.2c.7.2,1.5.5,2.1.5M1228.1,186.8l1.3,10.1h-7.6l6.3-10.1ZM1230.6,206c0,.6-.5.9-1.5.9h-1.5v1.1q3.6-.1,4.3-.1t4.3.1v-1h-.9c-1.7-.4-1.7-.4-2-1.9l-3.1-22h-1.6l-13.1,20.8c-1.3,2-1.9,2.5-3.1,2.8l-.7.2v1.1q3.2-.1,3.9-.1c.7,0,.7,0,3.8.1v-1h-1.8c-.6-.1-1.1-.5-1.1-.8s.2-.8.9-1.9l3.6-6.1h8.6l.9,6.6h0c0,.2.1.7.1,1.2M1210,195.1c.1-1.3.3-2.5.6-3.9-.4-.2-.5-.2-.7-.2-1.1,0-2.2.8-3.4,2.6-1.4,2-2.7,4.1-3.3,5.3l1.1-5.3c.1-.6.2-1.1.2-1.5,0-.7-.3-1.1-.8-1.1s-2.1.7-4.7,2.6l-1,.7.2.7,1.1-.7c1-.6,1.4-.8,1.7-.8s.6.3.6.8c0,2-1.5,9.3-2.9,13.8l.4.2c.5-.2,1.1-.3,1.9-.5h.5c0,0,.9-4.3.9-4.3.6-2.9,1.4-4.8,3-6.8,1.2-1.5,2.1-2.3,2.9-2.3s.9.2,1.3.7h.5Z"/>
      <path class="st54" d="M1283.4,217.5v-.7h-1.3c-1.4-.1-1.6-.4-1.6-1.7v-14.8l-5.9,2.5.2,1.2,3.7-1.6v12.7c0,1.3-.3,1.5-1.6,1.6h-1.4v.8q3.8,0,4.1,0c.8,0,3.5,0,3.9,0"/>
      <path class="st54" d="M1469.5,204.3c.8-4.5,4.5-9.1,7.4-9.1s1.3.8,1.3,2.4c0,2.8-1.4,7-3.3,9.7-.7,1-1.8,1.5-3.3,1.5s-2-.2-2.9-.8l.6-3.7ZM1470.7,210.5c2,0,6-2.6,7.5-4.8,1.4-2.1,2.6-6,2.6-8.6s-.8-3.9-2.1-3.9-3.3.9-5.2,2.6c-1.4,1.2-2.1,2.1-3.4,4.2l.8-4.2c.1-.6.2-1.1.2-1.5,0-.7-.3-1.1-.8-1.1-.7,0-2.1.7-4.7,2.6l-1,.7.2.7,1.1-.7c1-.6,1.4-.8,1.7-.8s.6.3.6.8,0,1-.1,1.3l-2,12c-.4,2.1-1,5.3-1.7,8.5l-.3,1.3.2.2c.7-.2,1.4-.4,2.6-.6l1.5-9.2c.7.2,1.5.5,2.1.5M1452,204.3c.8-4.5,4.5-9.1,7.4-9.1s1.3.8,1.3,2.4c0,2.8-1.4,7-3.3,9.7-.7,1-1.8,1.5-3.3,1.5s-2-.2-2.9-.8l.6-3.7ZM1453.2,210.5c2,0,6-2.6,7.5-4.8,1.4-2.1,2.6-6,2.6-8.6s-.8-3.9-2.1-3.9-3.3.9-5.2,2.6c-1.4,1.2-2.1,2.1-3.4,4.2l.8-4.2c.1-.6.2-1.1.2-1.5,0-.7-.3-1.1-.8-1.1-.7,0-2.1.7-4.7,2.6l-1,.7.2.7,1.1-.7c1-.6,1.4-.8,1.7-.8s.6.3.6.8,0,1-.1,1.3l-2,12c-.4,2.1-1,5.3-1.7,8.5l-.3,1.3.2.2c.7-.2,1.4-.4,2.6-.6l1.5-9.2c.7.2,1.5.5,2.1.5M1438,189l1.3,10.1h-7.6l6.3-10.1ZM1440.5,208.2c0,.6-.5.9-1.5.9h-1.5v1.1q3.6-.1,4.3-.1t4.3.1v-1h-.9c-1.7-.4-1.7-.4-2-1.9l-3.1-22h-1.6l-13.1,20.8c-1.3,2-1.9,2.5-3.1,2.8l-.7.2v1.1q3.2-.1,3.9-.1c.7,0,.7,0,3.8.1v-1h-1.8c-.6-.1-1.1-.5-1.1-.8s.2-.8.9-1.9l3.6-6.1h8.6l.9,6.6h0c0,.2.1.7.1,1.2M1419.9,197.3c.1-1.3.3-2.5.6-3.9-.4-.2-.5-.2-.7-.2-1.1,0-2.2.8-3.4,2.6-1.4,2-2.7,4.1-3.3,5.3l1.1-5.3c.1-.6.2-1.1.2-1.5,0-.7-.3-1.1-.8-1.1s-2.1.7-4.7,2.6l-1,.7.2.7,1.1-.7c1-.6,1.4-.8,1.7-.8s.6.3.6.8c0,2-1.5,9.3-2.9,13.8l.4.2c.5-.2,1.1-.3,1.9-.5h.5c0,0,.9-4.3.9-4.3.6-2.9,1.4-4.8,3-6.8,1.2-1.5,2.1-2.3,2.9-2.3s.9.2,1.3.7h.5Z"/>
      <path class="st54" d="M1483.4,219v.6c4.6,0,4.6,0,5.5,0s.9,0,5.6,0v-2.1c-2.8.1-4,0-8.5.1l4.5-4.7c2.4-2.5,3.1-3.9,3.1-5.7,0-2.8-1.9-4.6-5-4.6s-3,.5-4.2,1.7l-.4,3.3h.7l.3-1.1c.4-1.4,1.3-2,2.9-2s3.5,1.3,3.5,3.4-1,3.7-3.8,6.6l-4.2,4.4Z"/>
      <path class="st54" d="M1672.9,204.3c.8-4.5,4.5-9.1,7.4-9.1s1.3.8,1.3,2.4c0,2.8-1.4,7-3.3,9.7-.7,1-1.8,1.5-3.3,1.5s-2-.2-2.9-.8l.6-3.7ZM1674,210.5c2,0,6-2.6,7.5-4.8,1.4-2.1,2.6-6,2.6-8.6s-.8-3.9-2.1-3.9-3.3.9-5.2,2.6c-1.4,1.2-2.1,2.1-3.4,4.2l.8-4.2c.1-.6.2-1.1.2-1.5,0-.7-.3-1.1-.8-1.1-.7,0-2.1.7-4.7,2.6l-1,.7.2.7,1.1-.7c1-.6,1.4-.8,1.7-.8s.6.3.6.8,0,1-.1,1.3l-2,12c-.4,2.1-1,5.3-1.7,8.5l-.3,1.3.2.2c.7-.2,1.4-.4,2.6-.6l1.5-9.2c.7.2,1.5.5,2.1.5M1655.3,204.3c.8-4.5,4.5-9.1,7.4-9.1s1.3.8,1.3,2.4c0,2.8-1.4,7-3.3,9.7-.7,1-1.8,1.5-3.3,1.5s-2-.2-2.9-.8l.6-3.7ZM1656.5,210.5c2,0,6-2.6,7.5-4.8,1.4-2.1,2.6-6,2.6-8.6s-.8-3.9-2.1-3.9-3.3.9-5.2,2.6c-1.4,1.2-2.1,2.1-3.4,4.2l.8-4.2c.1-.6.2-1.1.2-1.5,0-.7-.3-1.1-.8-1.1-.7,0-2.1.7-4.7,2.6l-1,.7.2.7,1.1-.7c1-.6,1.4-.8,1.7-.8s.6.3.6.8,0,1-.1,1.3l-2,12c-.4,2.1-1,5.3-1.7,8.5l-.3,1.3.2.2c.7-.2,1.4-.4,2.6-.6l1.5-9.2c.7.2,1.5.5,2.1.5M1641.4,189l1.3,10.1h-7.6l6.3-10.1ZM1643.9,208.2c0,.6-.5.9-1.5.9h-1.5v1.1q3.6-.1,4.3-.1t4.3.1v-1h-.9c-1.7-.4-1.7-.4-2-1.9l-3.1-22h-1.6l-13.1,20.8c-1.3,2-1.9,2.5-3.1,2.8l-.7.2v1.1q3.2-.1,3.9-.1c.7,0,.7,0,3.8.1v-1h-1.8c-.6-.1-1.1-.5-1.1-.8s.2-.8.9-1.9l3.6-6.1h8.6l.9,6.6h0c0,.2.1.7.1,1.2M1623.2,197.3c.1-1.3.3-2.5.6-3.9-.4-.2-.5-.2-.7-.2-1.1,0-2.2.8-3.4,2.6-1.4,2-2.7,4.1-3.3,5.3l1.1-5.3c.1-.6.2-1.1.2-1.5,0-.7-.3-1.1-.8-1.1s-2.1.7-4.7,2.6l-1,.7.2.7,1.1-.7c1-.6,1.4-.8,1.7-.8s.6.3.6.8c0,2-1.5,9.3-2.9,13.8l.4.2c.5-.2,1.1-.3,1.9-.5h.5c0,0,.9-4.3.9-4.3.6-2.9,1.4-4.8,3-6.8,1.2-1.5,2.1-2.3,2.9-2.3s.9.2,1.3.7h.5Z"/>
      <path class="st54" d="M1697.7,214.1c0-3-2.6-3.5-3.8-3.7,2-1.5,2.7-2.7,2.7-4.1,0-2.2-1.8-3.6-4.6-3.6s-2.8.5-4,1.6l-.7,3.1h.8l.4-1.4c.3-.8,1.8-1.7,3.1-1.7s2.9,1.3,2.9,2.9-1.5,3.4-3.2,3.4-.5,0-.8,0h-.4s-.3,1.3-.3,1.3h.2c.9-.3,1.4-.4,2.1-.4,2,0,3.2,1.3,3.2,3.5s-1.5,4.2-3.8,4.2-2.1-.4-2.9-1.1c-.6-.5-.9-1.1-1.4-2.4l-.7.2c.5,1.5.7,2.4.9,3.6,1.3.4,2.4.6,3.3.6,3,0,6.8-2.6,6.8-6"/>
    </g>
    <rect class="st6" x="1100.4" y="23.4" width="683.8" height="265.4"/>
  </g>
  <g class="st30">
    <line class="st7" x1="239.1" y1="513.4" x2="239.1" y2="619.1"/>
    <line class="st7" x1="238" y1="513.8" x2="714.6" y2="513.8"/>
    <line class="st7" x1="711.9" y1="515.1" x2="711.9" y2="56.5"/>
    <line class="st7" x1="1102.1" y1="58.7" x2="712" y2="58.7"/>
    <text class="st13" transform="translate(712.1 37.7)"><tspan x="0" y="0">O2</tspan></text>
    <line class="st0" x1="1102.1" y1="167.8" x2="712" y2="167.8"/>
  </g>
</svg>