<?xml version="1.0" encoding="UTF-8"?>
<svg id="Ebene_1" xmlns="http://www.w3.org/2000/svg" xmlns:xlink="http://www.w3.org/1999/xlink" version="1.1" viewBox="0 0 2200 1080">
  <!-- Generator: Adobe Illustrator 29.4.0, SVG Export Plug-In . SVG Version: 2.1.0 Build 152)  -->
  <defs>
    <style>
      .st0, .st1, .st2, .st3, .st4, .st5, .st6, .st7, .st8, .st9, .st10, .st11, .st12, .st13, .st14, .st15, .st16, .st17, .st18 {
        fill: none;
      }

      .st1 {
        stroke-width: .7px;
      }

      .st1, .st2, .st3, .st5, .st6, .st7, .st8, .st9, .st10, .st11, .st12, .st13, .st14, .st15, .st16, .st17, .st18 {
        stroke-linejoin: round;
      }

      .st1, .st5, .st6, .st7, .st8, .st9, .st10, .st11, .st13, .st14, .st15, .st16 {
        stroke-linecap: square;
      }

      .st1, .st10, .st11 {
        stroke: #d42f00;
      }

      .st2 {
        stroke-dasharray: 2.2 .9;
        stroke-width: .6px;
      }

      .st2, .st18 {
        stroke: #97d6dd;
      }

      .st3 {
        stroke-dasharray: 3.9 1.7;
        stroke-width: 1px;
      }

      .st3, .st12, .st17 {
        stroke: #4cacbb;
      }

      .st19 {
        font-size: 31px;
      }

      .st19, .st20 {
        font-family: STIXGeneral-Regular, STIXGeneral;
      }

      .st4 {
        stroke-width: 2px;
      }

      .st4, .st13 {
        stroke: #000;
      }

      .st5 {
        stroke-width: .7px;
      }

      .st5, .st6, .st7, .st8, .st9 {
        stroke: #2e7a85;
      }

      .st6 {
        stroke-width: .8px;
      }

      .st7 {
        stroke-width: .4px;
      }

      .st8 {
        stroke-width: .5px;
      }

      .st9 {
        stroke-width: .5px;
      }

      .st21 {
        font-size: 20px;
      }

      .st21, .st22, .st23 {
        font-family: HelveticaNeue, 'Helvetica Neue';
      }

      .st22 {
        font-size: 30px;
      }

      .st24 {
        clip-path: url(#clippath-17);
      }

      .st25 {
        clip-path: url(#clippath-19);
      }

      .st26 {
        clip-path: url(#clippath-11);
      }

      .st27 {
        clip-path: url(#clippath-16);
      }

      .st28 {
        clip-path: url(#clippath-18);
      }

      .st29 {
        clip-path: url(#clippath-10);
      }

      .st30 {
        clip-path: url(#clippath-15);
      }

      .st31 {
        clip-path: url(#clippath-13);
      }

      .st32 {
        clip-path: url(#clippath-14);
      }

      .st33 {
        clip-path: url(#clippath-12);
      }

      .st34 {
        clip-path: url(#clippath-31);
      }

      .st35 {
        clip-path: url(#clippath-32);
      }

      .st36 {
        clip-path: url(#clippath-33);
      }

      .st37 {
        clip-path: url(#clippath-34);
      }

      .st38 {
        clip-path: url(#clippath-35);
      }

      .st39 {
        clip-path: url(#clippath-39);
      }

      .st40 {
        clip-path: url(#clippath-30);
      }

      .st41 {
        clip-path: url(#clippath-36);
      }

      .st42 {
        clip-path: url(#clippath-37);
      }

      .st43 {
        clip-path: url(#clippath-38);
      }

      .st44 {
        clip-path: url(#clippath-27);
      }

      .st45 {
        clip-path: url(#clippath-29);
      }

      .st46 {
        clip-path: url(#clippath-26);
      }

      .st47 {
        clip-path: url(#clippath-28);
      }

      .st48 {
        clip-path: url(#clippath-20);
      }

      .st49 {
        clip-path: url(#clippath-21);
      }

      .st50 {
        clip-path: url(#clippath-22);
      }

      .st51 {
        clip-path: url(#clippath-23);
      }

      .st52 {
        clip-path: url(#clippath-24);
      }

      .st53 {
        clip-path: url(#clippath-25);
      }

      .st54 {
        clip-path: url(#clippath-41);
      }

      .st55 {
        clip-path: url(#clippath-42);
      }

      .st56 {
        clip-path: url(#clippath-43);
      }

      .st57 {
        clip-path: url(#clippath-44);
      }

      .st58 {
        clip-path: url(#clippath-45);
      }

      .st59 {
        clip-path: url(#clippath-40);
      }

      .st60 {
        clip-path: url(#clippath-46);
      }

      .st10 {
        stroke-width: .6px;
      }

      .st11 {
        stroke-width: .8px;
      }

      .st61 {
        fill: #4cacbb;
      }

      .st62 {
        clip-path: url(#clippath-1);
      }

      .st63 {
        clip-path: url(#clippath-3);
      }

      .st64 {
        clip-path: url(#clippath-4);
      }

      .st65 {
        clip-path: url(#clippath-2);
      }

      .st66 {
        clip-path: url(#clippath-7);
      }

      .st67 {
        clip-path: url(#clippath-6);
      }

      .st68 {
        clip-path: url(#clippath-9);
      }

      .st69 {
        clip-path: url(#clippath-8);
      }

      .st70 {
        clip-path: url(#clippath-5);
      }

      .st71 {
        letter-spacing: 0em;
      }

      .st12 {
        stroke-dasharray: 3.9 1.7;
        stroke-width: 1px;
      }

      .st13 {
        stroke-width: .9px;
      }

      .st23 {
        font-size: 48px;
      }

      .st72 {
        font-size: 55px;
      }

      .st72, .st73, .st74, .st75 {
        font-family: STIXIntegralsUpD-Regular, STIXIntegralsUpD;
      }

      .st73 {
        font-size: 43px;
      }

      .st74 {
        font-size: 75px;
      }

      .st75 {
        font-size: 60px;
      }

      .st76 {
        letter-spacing: 0em;
      }

      .st77 {
        letter-spacing: 0em;
      }

      .st14 {
        stroke-width: .7px;
      }

      .st14, .st15, .st16 {
        stroke: #69bfcb;
      }

      .st78 {
        letter-spacing: 0em;
      }

      .st15 {
        stroke-width: 1px;
      }

      .st16 {
        stroke-width: 1px;
      }

      .st20 {
        font-size: 44px;
      }

      .st17 {
        stroke-dasharray: 2.8 1.2;
        stroke-width: .8px;
      }

      .st18 {
        stroke-dasharray: 3.3 1.4;
        stroke-width: .9px;
      }
    </style>
    <clipPath id="clippath-1">
      <rect class="st0" x="215.4" y="99.9" width="354.9" height="45.8"/>
    </clipPath>
    <clipPath id="clippath-2">
      <rect class="st0" x="215.4" y="273.6" width="355" height="84.4"/>
    </clipPath>
    <clipPath id="clippath-3">
      <rect class="st0" x="221.4" y="165.5" width="354.8" height="88.3"/>
    </clipPath>
    <clipPath id="clippath-4">
      <rect class="st0" x="221.4" y="374.2" width="354.8" height="64.1"/>
    </clipPath>
    <clipPath id="clippath-5">
      <rect class="st0" x="134.2" y="-9" width="2200" height="1080"/>
    </clipPath>
    <clipPath id="clippath-6">
      <rect class="st0" x="770.4" y="276.2" width="283.8" height="64.9"/>
    </clipPath>
    <clipPath id="clippath-7">
      <rect class="st0" x="732.2" y="169.5" width="36" height="172.2"/>
    </clipPath>
    <clipPath id="clippath-8">
      <rect class="st0" x="899.3" y="242.6" width="26.4" height="26.4"/>
    </clipPath>
    <clipPath id="clippath-9">
      <rect class="st0" x="773.2" y="185.6" width="278.2" height="49.9"/>
    </clipPath>
    <clipPath id="clippath-10">
      <rect class="st0" x="134.2" y="-9" width="2200" height="1080"/>
    </clipPath>
    <clipPath id="clippath-11">
      <rect class="st0" x="232.6" y="784.5" width="355" height="89"/>
    </clipPath>
    <clipPath id="clippath-12">
      <rect class="st0" x="238.6" y="684.2" width="354.8" height="89"/>
    </clipPath>
    <clipPath id="clippath-13">
      <rect class="st0" x="238.6" y="897.6" width="354.8" height="64.1"/>
    </clipPath>
    <clipPath id="clippath-14">
      <rect class="st0" x="134.2" y="-9" width="2200" height="1080"/>
    </clipPath>
    <clipPath id="clippath-15">
      <rect class="st0" x="238.5" y="625.8" width="354.9" height="37.3"/>
    </clipPath>
    <clipPath id="clippath-16">
      <rect class="st0" x="134.2" y="-9" width="2200" height="1080"/>
    </clipPath>
    <clipPath id="clippath-17">
      <rect class="st0" x="238.8" y="496" width="325.3" height="58.3"/>
    </clipPath>
    <clipPath id="clippath-18">
      <rect class="st0" x="920.3" y="513.6" width="19.2" height="19.2"/>
    </clipPath>
    <clipPath id="clippath-19">
      <rect class="st0" x="786.4" y="470.4" width="21.5" height="99.6"/>
    </clipPath>
    <clipPath id="clippath-20">
      <rect class="st0" x="818.4" y="662.3" width="248.8" height="66.6"/>
    </clipPath>
    <clipPath id="clippath-21">
      <rect class="st0" x="925.2" y="656.8" width="19.2" height="19.2"/>
    </clipPath>
    <clipPath id="clippath-22">
      <rect class="st0" x="791.4" y="613.6" width="21.5" height="99.6"/>
    </clipPath>
    <clipPath id="clippath-23">
      <rect class="st0" x="919.7" y="589.9" width="20.2" height="20.2"/>
    </clipPath>
    <clipPath id="clippath-24">
      <rect class="st0" x="805.4" y="540.9" width="248.9" height="28"/>
    </clipPath>
    <clipPath id="clippath-25">
      <rect class="st0" x="925.2" y="786.7" width="19.2" height="19.2"/>
    </clipPath>
    <clipPath id="clippath-26">
      <rect class="st0" x="782.5" y="737.1" width="29.2" height="138.1"/>
    </clipPath>
    <clipPath id="clippath-27">
      <rect class="st0" x="924.7" y="721.9" width="20.2" height="20.2"/>
    </clipPath>
    <clipPath id="clippath-28">
      <rect class="st0" x="815.7" y="464.6" width="228.1" height="40.9"/>
    </clipPath>
    <clipPath id="clippath-29">
      <rect class="st0" x="815.7" y="618.1" width="228.1" height="40.9"/>
    </clipPath>
    <clipPath id="clippath-30">
      <rect class="st0" x="815.7" y="755.4" width="228.1" height="40.9"/>
    </clipPath>
    <clipPath id="clippath-31">
      <rect class="st0" x="810.3" y="813.7" width="248.9" height="60.5"/>
    </clipPath>
    <clipPath id="clippath-32">
      <rect class="st0" x="929.3" y="935" width="19.2" height="19.2"/>
    </clipPath>
    <clipPath id="clippath-33">
      <rect class="st0" x="787.1" y="899.2" width="27" height="126.8"/>
    </clipPath>
    <clipPath id="clippath-34">
      <rect class="st0" x="819.8" y="903.7" width="228.1" height="40.9"/>
    </clipPath>
    <clipPath id="clippath-35">
      <rect class="st0" x="929.1" y="875.8" width="19.2" height="19.2"/>
    </clipPath>
    <clipPath id="clippath-36">
      <rect class="st0" x="819.8" y="974.7" width="237.8" height="43"/>
    </clipPath>
    <clipPath id="clippath-37">
      <rect class="st0" x="134.2" y="-9" width="2200" height="1080"/>
    </clipPath>
    <clipPath id="clippath-38">
      <rect class="st0" x="1502.1" y="523.9" width="19.2" height="19.2"/>
    </clipPath>
    <clipPath id="clippath-39">
      <rect class="st0" x="1368.2" y="480.7" width="21.5" height="99.6"/>
    </clipPath>
    <clipPath id="clippath-40">
      <rect class="st0" x="1501.6" y="600.1" width="20.2" height="20.2"/>
    </clipPath>
    <clipPath id="clippath-41">
      <rect class="st0" x="1387.2" y="557.8" width="248.9" height="22.7"/>
    </clipPath>
    <clipPath id="clippath-42">
      <rect class="st0" x="1397.6" y="474.9" width="228.1" height="40.9"/>
    </clipPath>
    <clipPath id="clippath-43">
      <rect class="st0" x="1501.6" y="703.7" width="20.2" height="20.2"/>
    </clipPath>
    <clipPath id="clippath-44">
      <rect class="st0" x="1501.6" y="794.6" width="20.2" height="20.2"/>
    </clipPath>
    <clipPath id="clippath-45">
      <rect class="st0" x="134.2" y="-9" width="2200" height="1080"/>
    </clipPath>
    <clipPath id="clippath-46">
      <rect class="st0" x="1883.7" y="658" width="248.9" height="25.9"/>
    </clipPath>
  </defs>
  <g class="st62">
    <path class="st6" d="M215.9,145.3h.7s.7-.2.7-.2l.7-.2.7-.3.7-.4,1.1-.8,1.1-.9,1.1-1.1,1.1-1.3,1.1-1.4,1.4-2.1,1.4-2.3,1.8-3.2,2.1-4.1,7.1-13.9,1.8-3.1,1.4-2.3,1.4-2,1.1-1.3,1.1-1.2,1.1-1,1.1-.8.7-.4.7-.3.7-.3.7-.2h.7c0,0,.7,0,.7,0h.7c0,0,.7.3.7.3l.7.3.7.3.7.4,1.1.8,1.1,1,1.1,1.2,1.1,1.3,1.4,2,1.4,2.3,1.8,3.1,2.1,4,3.2,6.3,3.2,6.3,2.1,3.9,1.8,3,1.4,2.1,1.4,1.9,1.1,1.2,1.1,1.1,1.1.9,1.1.7.7.3.7.3.7.2h.7c0,0,.7,0,.7,0h.7c0,0,.7-.3.7-.3l.7-.3.7-.3.7-.4,1.1-.8,1.1-1,1.1-1.2,1.1-1.3,1.4-2,1.4-2.3,1.8-3.1,2.1-4,3.2-6.3,3.2-6.3,2.1-3.9,1.8-3,1.4-2.1,1.4-1.9,1.1-1.2,1.1-1.1,1.1-.9,1.1-.7.7-.3.7-.3.7-.2h.7c0,0,.7,0,.7,0h.7c0,0,.7.3.7.3l.7.3.7.3.7.4,1.1.8,1.1,1,1.1,1.2,1.1,1.3,1.4,2,1.4,2.3,1.8,3.1,2.1,4,3.2,6.3,3.2,6.3,2.1,3.9,1.8,3,1.4,2.1,1.4,1.9,1.1,1.2,1.1,1.1,1.1.9,1.1.7.7.3.7.3.7.2h.7c0,0,.7,0,.7,0h.7c0,0,.7-.3.7-.3l.7-.3.7-.3.7-.4,1.1-.8,1.1-1,1.1-1.2,1.1-1.3,1.4-2,1.4-2.3,1.8-3.1,2.1-4,3.2-6.3,3.2-6.3,2.1-3.9,1.8-3,1.4-2.1,1.4-1.9,1.1-1.2,1.1-1.1,1.1-.9,1.1-.7.7-.3.7-.3.7-.2h.7c0,0,.7,0,.7,0h.7c0,0,.7.3.7.3l.7.3.7.3.7.4,1.1.8,1.1,1,1.1,1.2,1.1,1.3,1.4,2,1.4,2.3,1.8,3.1,2.1,4,3.2,6.3,3.2,6.3,2.1,3.9,1.8,3,1.4,2.1,1.4,1.9,1.1,1.2,1.1,1.1,1.1.9,1.1.7.7.3.7.3.7.2h.7c0,0,.7,0,.7,0h.7c0,0,.7-.3.7-.3l.7-.3.7-.3.7-.4,1.1-.8,1.1-1,1.1-1.2,1.1-1.3,1.4-2,1.4-2.3,1.8-3.1,2.1-4,3.2-6.3,3.2-6.3,2.1-3.9,1.8-3,1.4-2.1,1.4-1.9,1.1-1.2,1.1-1.1,1.1-.9,1.1-.7.7-.3.7-.3.7-.2h.7c0,0,.7,0,.7,0h.7c0,0,.7.3.7.3l.7.3.7.3.7.4,1.1.8,1.1,1,1.1,1.2,1.1,1.3,1.4,2,1.4,2.3,1.8,3.1,2.1,4,3.2,6.3,3.2,6.3,2.1,3.9,1.8,3,1.4,2.1,1.4,1.9,1.1,1.2,1.1,1.1,1.1.9,1.1.7.7.3.7.3.7.2h.7c0,0,.7,0,.7,0h.7c0,0,.7-.3.7-.3l.7-.3.7-.3.7-.4,1.1-.8,1.1-1,1.1-1.2,1.1-1.3,1.4-2,1.4-2.3,1.8-3.1,2.1-4,3.2-6.3,3.2-6.3,2.1-3.9,1.8-3,1.4-2.1,1.4-1.9,1.1-1.2,1.1-1.1,1.1-.9,1.1-.7.7-.3.7-.3.7-.2h.7c0,0,.7,0,.7,0h.7c0,0,.7.3.7.3l.7.3.7.3.7.4,1.1.8,1.1,1,1.1,1.2,1.1,1.3,1.4,2,1.4,2.3,1.8,3.1,2.1,4,3.2,6.3,3.2,6.3,2.1,3.9,1.8,3,1.4,2.1,1.4,1.9,1.1,1.2,1.1,1.1,1.1.9,1.1.7.7.3.7.3.7.2h.7"/>
  </g>
  <g class="st65">
    <polyline class="st16" points="216 274.5 216.3 274.6 216.7 275.2 217 276.1 217.4 277.3 217.7 279 218.5 283.2 219.2 288.5 219.9 294.8 220.9 305.7 223.8 335.9 224.5 342.4 225.2 347.9 225.9 352.3 226.2 354 226.6 355.4 227 356.4 227.3 357.1 227.7 357.4 228 357.4 228.4 356.9 228.7 356.1 229.1 355 229.4 353.5 230.1 349.5 230.9 344.4 231.6 338.2 232.6 327.6 235.8 293.9 236.5 287.8 237.2 282.6 237.9 278.7 238.3 277.2 238.6 276 239 275.2 239.4 274.8 239.7 274.8 240.1 275 240.4 275.7 240.8 276.7 241.1 278.1 241.8 281.9 242.5 286.8 243.3 292.8 244.3 303.3 247.9 340.4 248.6 346.3 249.3 351 250 354.5 250.3 355.8 250.7 356.7 251 357.2 251.4 357.4 251.8 357.2 252.1 356.7 252.5 355.8 252.8 354.5 253.2 352.9 253.9 348.7 254.6 343.3 255.3 337 256.4 326.2 259.2 295.9 259.9 289.5 260.6 284 261.3 279.6 261.7 277.9 262 276.5 262.4 275.5 262.7 274.8 263.1 274.5 263.5 274.5 263.8 274.9 264.2 275.7 264.5 276.9 264.9 278.4 265.6 282.3 266.3 287.5 267 293.6 268.1 304.3 271.2 337.9 272 344.1 272.7 349.2 273.4 353.2 273.7 354.7 274.1 355.8 274.4 356.6 274.8 357 275.1 357 275.5 356.8 275.9 356.1 276.2 355.1 276.6 353.7 277.3 349.9 278 344.9 278.7 338.9 279.7 328.4 283.3 291.3 284 285.5 284.7 280.8 285.4 277.3 285.8 276 286.1 275.1 286.5 274.5 286.8 274.4 287.2 274.5 287.5 275.1 287.9 276 288.3 277.3 288.6 278.9 289.3 283.1 290 288.5 290.7 294.8 291.8 305.6 294.6 335.8 295.3 342.3 296 347.8 296.8 352.2 297.1 353.9 297.5 355.3 297.8 356.3 298.2 357 298.5 357.3 298.9 357.3 299.2 356.8 299.6 356.1 299.9 354.9 300.3 353.4"/>
    <polyline class="st16" points="300.3 353.4 301 349.5 301.7 344.3 302.4 338.2 303.5 327.5 306.7 293.8 307.4 287.7 308.1 282.6 308.8 278.6 309.2 277.1 309.5 275.9 309.9 275.2 310.2 274.7 310.6 274.7 310.9 274.9 311.3 275.6 311.6 276.6 312 278 312.7 281.8 313.4 286.8 314.1 292.7 315.2 303.2 318.7 340.4 319.4 346.2 320.1 350.9 320.8 354.4 321.2 355.7 321.6 356.6 321.9 357.2 322.3 357.3 322.6 357.2 323 356.6 323.3 355.7 323.7 354.4 324 352.8 324.7 348.6 325.5 343.2 326.2 336.9 327.2 326.1 330.1 295.9 330.8 289.4 331.5 283.9 332.2 279.5 332.5 277.8 332.9 276.4 333.2 275.4 333.6 274.7 334 274.4 334.3 274.4 334.7 274.8 335 275.6 335.4 276.8 335.7 278.3 336.4 282.2 337.1 287.4 337.9 293.5 338.9 304.2 342.1 337.9 342.8 344 343.5 349.1 344.2 353.1 344.6 354.6 344.9 355.8 345.3 356.5 345.6 356.9 346 356.9 346.4 356.7 346.7 356 347.1 355 347.4 353.6 348.1 349.8 348.8 344.9 349.5 338.9 350.6 328.4 354.2 291.3 354.9 285.4 355.6 280.7 356.3 277.2 356.6 275.9 357 275 357.3 274.5 357.7 274.3 358.1 274.5 358.4 275 358.8 275.9 359.1 277.2 359.5 278.8 360.2 283 360.9 288.4 361.6 294.7 362.7 305.5 365.5 335.8 366.2 342.2 366.9 347.7 367.6 352.1 368 353.8 368.3 355.2 368.7 356.2 369 356.9 369.4 357.2 369.7 357.2 370.1 356.8 370.5 356 370.8 354.8 371.2 353.3 371.9 349.4 372.6 344.2 373.3 338.1 374.3 327.4 377.5 293.8 378.2 287.6 379 282.5 379.7 278.5 380 277 380.4 275.9 380.7 275.1 381.1 274.6 381.4 274.6 381.8 274.8 382.1 275.5 382.5 276.6 382.9 278 383.6 281.7 384.3 286.7 385 292.7 386 303.2 389.6 340.3 390.3 346.1"/>
    <polyline class="st16" points="390.3 346.1 391 350.9 391.7 354.4 392.1 355.6 392.4 356.5 392.8 357.1 393.1 357.2 393.5 357.1 393.8 356.5 394.2 355.6 394.5 354.4 394.9 352.7 395.6 348.5 396.3 343.2 397 336.8 398.1 326 400.9 295.8 401.6 289.3 402.3 283.8 403 279.4 403.4 277.7 403.8 276.3 404.1 275.3 404.5 274.6 404.8 274.3 405.2 274.3 405.5 274.8 405.9 275.5 406.2 276.7 406.6 278.2 407.3 282.2 408 287.3 408.7 293.4 409.8 304.1 413 337.8 413.7 343.9 414.4 349.1 415.1 353 415.4 354.5 415.8 355.7 416.2 356.5 416.5 356.8 416.9 356.8 417.2 356.6 417.6 355.9 417.9 354.9 418.3 353.5 419 349.8 419.7 344.8 420.4 338.8 421.5 328.3 425 291.2 425.7 285.4 426.4 280.6 427.1 277.1 427.5 275.9 427.8 274.9 428.2 274.4 428.6 274.2 428.9 274.4 429.3 274.9 429.6 275.9 430 277.1 430.3 278.7 431 282.9 431.7 288.3 432.5 294.6 433.5 305.4 436.4 335.7 437.1 342.1 437.8 347.7 438.5 352 438.8 353.7 439.2 355.1 439.5 356.1 439.9 356.8 440.2 357.2 440.6 357.2 441 356.7 441.3 355.9 441.7 354.7 442 353.3 442.7 349.3 443.4 344.2 444.1 338 445.2 327.4 448.4 293.7 449.1 287.5 449.8 282.4 450.5 278.4 450.9 277 451.2 275.8 451.6 275 451.9 274.5 452.3 274.5 452.7 274.8 453 275.5 453.4 276.5 453.7 277.9 454.4 281.6 455.1 286.6 455.8 292.6 456.9 303.1 460.4 340.2 461.2 346 461.9 350.8 462.6 354.3 462.9 355.5 463.3 356.5 463.6 357 464 357.2 464.3 357 464.7 356.5 465.1 355.5 465.4 354.3 465.8 352.6 466.5 348.4 467.2 343.1 467.9 336.8 468.9 326 471.8 295.7 472.5 289.2 473.2 283.7 473.9 279.4 474.3 277.7 474.6 276.2 475 275.2 475.3 274.5"/>
    <polyline class="st16" points="475.3 274.5 475.7 274.2 476 274.2 476.4 274.7 476.7 275.5 477.1 276.6 477.5 278.1 478.2 282.1 478.9 287.2 479.6 293.4 480.6 304 483.8 337.7 484.5 343.9 485.2 349 486 353 486.3 354.4 486.7 355.6 487 356.4 487.4 356.8 487.7 356.8 488.1 356.5 488.4 355.8 488.8 354.8 489.1 353.4 489.9 349.7 490.6 344.7 491.3 338.7 492.3 328.2 495.9 291.1 496.6 285.3 497.3 280.5 498 277 498.4 275.8 498.7 274.8 499.1 274.3 499.4 274.1 499.8 274.3 500.1 274.8 500.5 275.8 500.8 277 501.2 278.7 501.9 282.9 502.6 288.2 503.3 294.5 504.4 305.3 507.2 335.6 507.9 342.1 508.6 347.6 509.3 351.9 509.7 353.7 510 355.1 510.4 356.1 510.8 356.8 511.1 357.1 511.5 357.1 511.8 356.6 512.2 355.8 512.5 354.7 512.9 353.2 513.6 349.2 514.3 344.1 515 337.9 516.1 327.3 519.3 293.6 520 287.5 520.7 282.3 521.4 278.4 521.7 276.9 522.1 275.7 522.4 274.9 522.8 274.5 523.2 274.5 523.5 274.7 523.9 275.4 524.2 276.4 524.6 277.8 525.3 281.5 526 286.5 526.7 292.5 527.8 303 531.3 340.1 532 346 532.7 350.7 533.4 354.2 533.8 355.4 534.1 356.4 534.5 356.9 534.8 357.1 535.2 356.9 535.6 356.4 535.9 355.4 536.3 354.2 536.6 352.6 537.3 348.4 538 343 538.7 336.7 539.8 325.9 542.6 295.6 543.4 289.2 544.1 283.6 544.8 279.3 545.1 277.6 545.5 276.2 545.8 275.2 546.2 274.5 546.5 274.1 546.9 274.1 547.2 274.6 547.6 275.4 548 276.6 548.3 278 549 282 549.7 287.1 550.4 293.3 551.5 303.9 554.7 337.6 555.4 343.8 556.1 348.9 556.8 352.9 557.2 354.4 557.5 355.5 557.9 356.3 558.2 356.7 558.6 356.7 558.9 356.5 559.3 355.8 559.7 354.7 560 353.3"/>
    <polyline class="st16" points="560 353.3 560.7 349.6 561.4 344.6 562.1 338.6 563.2 328.1 566.7 291 567.4 285.2 568.2 280.5 568.9 277 569.2 275.7 569.6 274.8 569.9 274.2"/>
  </g>
  <g class="st63">
    <polyline class="st3" points="221.8 209.6 225.3 223 227.5 230.6 229.2 236.3 230.7 240.4 232.1 244 233.1 246.4 234.2 248.4 235.3 250.2 236.3 251.5 237 252.1 237.7 252.6 238.5 253 239.2 253.1 239.9 253.1 240.6 253 241.3 252.6 242 252.1 242.7 251.5 243.4 250.7 244.5 249.1 245.5 247.2 246.6 244.9 247.7 242.4 249.1 238.5 250.5 234.2 252.3 228.2 254.4 220.5 257.6 208.3 260.8 196.2 262.9 188.6 264.7 182.9 266.1 178.8 267.5 175.2 268.6 172.8 269.6 170.8 270.7 169 271.8 167.7 272.5 167.1 273.2 166.6 273.9 166.2 274.6 166.1 275.3 166.1 276 166.2 276.7 166.6 277.4 167.1 278.1 167.7 278.8 168.5 279.9 170.1 281 172 282 174.3 283.1 176.8 284.5 180.7 285.9 185 287.7 191 289.8 198.7 293 210.9 296.2 223 298.3 230.6 300.1 236.3 301.5 240.4 302.9 244 304 246.4 305.1 248.4 306.1 250.2 307.2 251.5 307.9 252.1 308.6 252.6 309.3 253 310 253.1 310.7 253.1 311.4 253 312.2 252.6 312.9 252.1 313.6 251.5 314.3 250.7 315.3 249.1 316.4 247.2 317.5 244.9 318.5 242.4 319.9 238.5 321.4 234.2 323.1 228.2 325.3 220.5 328.5 208.3 331.6 196.2 333.8 188.6 335.5 182.9 337 178.8 338.4 175.2 339.4 172.8 340.5 170.8 341.6 169 342.6 167.7 343.3 167.1 344 166.6 344.8 166.2 345.5 166.1 346.2 166.1 346.9 166.2 347.6 166.6 348.3 167.1 349 167.7 349.7 168.5 350.8 170.1 351.8 172 352.9 174.3 354 176.8 355.4 180.7 356.8 185 358.6 191 360.7 198.7 363.9 210.9 367.1 223 369.2 230.6 371 236.3 372.4 240.4 373.8 244 374.9 246.4 375.9 248.4 377 250.2 378.1 251.5 378.8 252.1 379.5 252.6 380.2 253 380.9 253.1 381.6 253.1 382.3 253"/>
    <polyline class="st3" points="382.3 253 383 252.6 383.7 252.1 384.4 251.5 385.1 250.7 386.2 249.1 387.3 247.2 388.3 244.9 389.4 242.4 390.8 238.5 392.2 234.2 394 228.2 396.1 220.5 399.3 208.3 402.5 196.2 404.6 188.6 406.4 182.9 407.8 178.8 409.2 175.2 410.3 172.8 411.4 170.8 412.4 169 413.5 167.7 414.2 167.1 414.9 166.6 415.6 166.2 416.3 166.1 417 166.1 417.7 166.2 418.4 166.6 419.2 167.1 419.9 167.7 420.6 168.5 421.6 170.1 422.7 172 423.8 174.3 424.8 176.8 426.2 180.7 427.7 185 429.4 191 431.6 198.7 434.7 210.9 437.9 223 440.1 230.6 441.8 236.3 443.2 240.4 444.7 244 445.7 246.4 446.8 248.4 447.9 250.2 448.9 251.5 449.6 252.1 450.3 252.6 451 253 451.8 253.1 452.5 253.1 453.2 253 453.9 252.6 454.6 252.1 455.3 251.5 456 250.7 457.1 249.1 458.1 247.2 459.2 244.9 460.3 242.4 461.7 238.5 463.1 234.2 464.9 228.2 467 220.5 470.2 208.3 473.4 196.2 475.5 188.6 477.3 182.9 478.7 178.8 480.1 175.2 481.2 172.8 482.2 170.8 483.3 169 484.3 167.7 485.1 167.1 485.8 166.6 486.5 166.2 487.2 166.1 487.9 166.1 488.6 166.2 489.3 166.6 490 167.1 490.7 167.7 491.4 168.5 492.5 170.1 493.6 172 494.6 174.3 495.7 176.8 497.1 180.7 498.5 185 500.3 191 502.4 198.7 505.6 210.9 508.8 223 510.9 230.6 512.7 236.3 514.1 240.4 515.5 244 516.6 246.4 517.7 248.4 518.7 250.2 519.8 251.5 520.5 252.1 521.2 252.6 521.9 253 522.6 253.1 523.3 253.1 524 253 524.7 252.6 525.4 252.1 526.2 251.5 526.9 250.7 527.9 249.1 529 247.2 530.1 244.9 531.1 242.4 532.5 238.5 533.9 234.2 535.7 228.2 537.8 220.5 541 208.3 544.2 196.2 546.4 188.6"/>
    <polyline class="st3" points="546.4 188.6 548.1 182.9 549.5 178.8 551 175.2 552 172.8 553.1 170.8 554.1 169 555.2 167.7 555.9 167.1 556.6 166.6 557.3 166.2 558 166.1 558.8 166.1 559.5 166.2 560.2 166.6 560.9 167.1 561.6 167.7 562.3 168.5 563.4 170.1 564.4 172 565.5 174.3 566.5 176.8 568 180.7 569.4 185 571.2 191 573.3 198.7 575.8 208.2"/>
  </g>
  <g class="st64">
    <polyline class="st18" points="221.8 406.6 223.6 392.3 224.7 385 225.4 381.1 226.1 378.1 226.4 377 226.8 376.1 227.1 375.5 227.5 375.2 227.8 375.2 228.2 375.3 228.5 375.9 228.9 376.6 229.3 377.7 230 380.5 230.7 384.3 231.4 388.9 232.4 396.8 236 425 236.7 429.4 237.4 433 238.1 435.7 238.5 436.6 238.8 437.3 239.2 437.8 239.5 437.9 239.9 437.8 240.2 437.3 240.6 436.6 241 435.7 241.3 434.5 242 431.3 242.7 427.2 243.4 422.4 244.5 414.2 247.3 391.2 248 386.3 248.7 382.1 249.5 378.8 249.8 377.5 250.2 376.5 250.5 375.7 250.9 375.2 251.2 374.9 251.6 374.9 251.9 375.3 252.3 375.9 252.6 376.8 253 377.9 253.7 380.9 254.4 384.8 255.1 389.5 256.2 397.5 259.4 423.1 260.1 427.8 260.8 431.7 261.5 434.7 261.9 435.8 262.2 436.7 262.6 437.3 262.9 437.6 263.3 437.6 263.6 437.4 264 436.9 264.3 436.1 264.7 435 265.4 432.2 266.1 428.4 266.8 423.9 267.9 415.9 271.4 387.7 272.1 383.3 272.8 379.7 273.5 377.1 273.9 376.1 274.3 375.4 274.6 375 275 374.9 275.3 375 275.7 375.4 276 376.1 276.4 377.1 276.7 378.3 277.4 381.5 278.2 385.6 278.9 390.3 279.9 398.5 282.8 421.5 283.5 426.4 284.2 430.6 284.9 433.9 285.2 435.2 285.6 436.3 285.9 437 286.3 437.6 286.7 437.8 287 437.8 287.4 437.5 287.7 436.9 288.1 436 288.4 434.9 289.1 431.9 289.8 428 290.6 423.3 291.6 415.2 294.8 389.6 295.5 385 296.2 381.1 296.9 378.1 297.3 376.9 297.6 376 298 375.5 298.3 375.1 298.7 375.1 299.1 375.3 299.4 375.8 299.8 376.6 300.1 377.6 300.8 380.5 301.5 384.3 302.2 388.8 303.3 396.8 306.9 424.9 307.6 429.4 308.3 433 309 435.6 309.3 436.6 309.7 437.3"/>
    <polyline class="st18" points="309.7 437.3 310 437.7 310.4 437.8 310.7 437.7 311.1 437.3 311.5 436.6 311.8 435.6 312.2 434.4 312.9 431.2 313.6 427.1 314.3 422.3 315.4 414.1 318.2 391.2 318.9 386.3 319.6 382.1 320.3 378.8 320.7 377.5 321 376.4 321.4 375.6 321.7 375.1 322.1 374.9 322.4 374.9 322.8 375.2 323.1 375.8 323.5 376.7 323.9 377.8 324.6 380.8 325.3 384.7 326 389.4 327 397.5 330.2 423.1 330.9 427.7 331.7 431.6 332.4 434.6 332.7 435.7 333.1 436.6 333.4 437.2 333.8 437.5 334.1 437.5 334.5 437.3 334.8 436.8 335.2 436 335.6 435 336.3 432.1 337 428.4 337.7 423.8 338.7 415.8 342.3 387.7 343 383.3 343.7 379.7 344.4 377 344.8 376 345.1 375.3 345.5 374.9 345.8 374.8 346.2 374.9 346.5 375.3 346.9 376 347.2 377 347.6 378.2 348.3 381.4 349 385.5 349.7 390.3 350.8 398.5 353.6 421.5 354.3 426.4 355 430.6 355.7 433.9 356.1 435.2 356.5 436.2 356.8 437 357.2 437.5 357.5 437.8 357.9 437.8 358.2 437.4 358.6 436.8 358.9 435.9 359.3 434.8 360 431.8 360.7 427.9 361.4 423.2 362.5 415.1 365.7 389.6 366.4 384.9 367.1 381 367.8 378 368.1 376.9 368.5 376 368.9 375.4 369.2 375 369.6 375 369.9 375.2 370.3 375.8 370.6 376.5 371 377.6 371.7 380.4 372.4 384.2 373.1 388.7 374.2 396.7 377.7 424.9 378.4 429.3 379.1 432.9 379.8 435.6 380.2 436.5 380.5 437.2 380.9 437.6 381.3 437.8 381.6 437.6 382 437.2 382.3 436.5 382.7 435.6 383 434.3 383.7 431.1 384.4 427.1 385.2 422.3 386.2 414.1 389.1 391.1 389.8 386.2 390.5 382 391.2 378.7 391.5 377.4 391.9 376.3 392.2 375.6 392.6 375 392.9 374.8 393.3 374.8 393.7 375.2 394 375.8"/>
    <polyline class="st18" points="394 375.8 394.4 376.6 394.7 377.8 395.4 380.8 396.1 384.7 396.8 389.3 397.9 397.4 401.1 423 401.8 427.7 402.5 431.6 403.2 434.6 403.6 435.7 403.9 436.6 404.3 437.2 404.6 437.5 405 437.5 405.3 437.3 405.7 436.8 406.1 436 406.4 434.9 407.1 432.1 407.8 428.3 408.5 423.8 409.6 415.8 413.1 387.6 413.9 383.2 414.6 379.6 415.3 376.9 415.6 376 416 375.3 416.3 374.9 416.7 374.8 417 374.9 417.4 375.3 417.7 376 418.1 376.9 418.5 378.2 419.2 381.4 419.9 385.4 420.6 390.2 421.6 398.4 424.5 421.4 425.2 426.3 425.9 430.5 426.6 433.8 427 435.1 427.3 436.2 427.7 436.9 428 437.5 428.4 437.7 428.7 437.7 429.1 437.3 429.4 436.8 429.8 435.9 430.2 434.7 430.9 431.7 431.6 427.8 432.3 423.2 433.3 415.1 436.5 389.5 437.2 384.8 437.9 381 438.7 377.9 439 376.8 439.4 375.9 439.7 375.3 440.1 375 440.4 375 440.8 375.2 441.1 375.7 441.5 376.5 441.8 377.5 442.6 380.4 443.3 384.1 444 388.7 445 396.7 448.6 424.8 449.3 429.3 450 432.9 450.7 435.5 451.1 436.5 451.4 437.2 451.8 437.6 452.1 437.7 452.5 437.6 452.8 437.2 453.2 436.5 453.5 435.5 453.9 434.3 454.6 431.1 455.3 427 456 422.2 457.1 414 459.9 391 460.6 386.1 461.3 382 462 378.6 462.4 377.3 462.7 376.3 463.1 375.5 463.5 375 463.8 374.8 464.2 374.8 464.5 375.1 464.9 375.7 465.2 376.6 465.6 377.7 466.3 380.7 467 384.6 467.7 389.3 468.8 397.4 472 422.9 472.7 427.6 473.4 431.5 474.1 434.5 474.4 435.6 474.8 436.5 475.1 437.1 475.5 437.4 475.9 437.4 476.2 437.2 476.6 436.7 476.9 435.9 477.3 434.9 478 432 478.7 428.3 479.4 423.7 480.5 415.7"/>
    <polyline class="st18" points="480.5 415.7 484 387.6 484.7 383.1 485.4 379.5 486.1 376.9 486.5 375.9 486.8 375.2 487.2 374.8 487.5 374.7 487.9 374.8 488.3 375.2 488.6 375.9 489 376.9 489.3 378.1 490 381.3 490.7 385.4 491.4 390.2 492.5 398.4 495.3 421.3 496.1 426.2 496.8 430.4 497.5 433.7 497.8 435 498.2 436.1 498.5 436.9 498.9 437.4 499.2 437.6 499.6 437.6 499.9 437.3 500.3 436.7 500.7 435.8 501 434.7 501.7 431.7 502.4 427.8 503.1 423.1 504.2 415 507.4 389.5 508.1 384.8 508.8 380.9 509.5 377.9 509.9 376.8 510.2 375.9 510.6 375.3 510.9 374.9 511.3 374.9 511.6 375.1 512 375.6 512.3 376.4 512.7 377.5 513.4 380.3 514.1 384.1 514.8 388.6 515.9 396.6 519.4 424.8 520.1 429.2 520.9 432.8 521.6 435.5 521.9 436.4 522.3 437.1 522.6 437.5 523 437.6 523.3 437.5 523.7 437.1 524 436.4 524.4 435.5 524.8 434.2 525.5 431 526.2 427 526.9 422.2 527.9 414 530.8 391 531.5 386.1 532.2 381.9 532.9 378.6 533.3 377.3 533.6 376.2 534 375.5 534.3 374.9 534.7 374.7 535 374.7 535.4 375 535.7 375.6 536.1 376.5 536.4 377.6 537.2 380.7 537.9 384.6 538.6 389.2 539.6 397.3 542.8 422.9 543.5 427.5 544.2 431.4 544.9 434.5 545.3 435.6 545.7 436.5 546 437 546.4 437.3 546.7 437.3 547.1 437.2 547.4 436.6 547.8 435.9 548.1 434.8 548.8 432 549.6 428.2 550.3 423.6 551.3 415.7 554.9 387.5 555.6 383.1 556.3 379.5 557 376.8 557.3 375.9 557.7 375.2 558.1 374.8 558.4 374.6 558.8 374.8 559.1 375.2 559.5 375.9 559.8 376.8 560.2 378.1 560.9 381.2 561.6 385.3 562.3 390.1 563.4 398.3 566.2 421.3 566.9 426.2 567.6 430.4 568.3 433.7 568.7 435 569 436"/>
    <polyline class="st18" points="569 436 569.4 436.8 569.7 437.3 570.1 437.6 570.5 437.6 570.8 437.2 571.2 436.6 571.5 435.7 571.9 434.6 572.6 431.6 573.3 427.7 574 423.1 575.1 415 575.8 409.2"/>
  </g>
  <g class="st70">
    <polygon class="st61" points="665.7 262.4 665.7 287.6 709.3 255.8 665.7 224 665.7 249.2 632.7 249.2 632.7 262.4 665.7 262.4"/>
    <text class="st21" transform="translate(714.4 396.4)"><tspan x="0" y="0">a) Extracting the amplitudes using a subcarrier </tspan></text>
    <text class="st21" transform="translate(714.4 418)"><tspan x="0" y="0">f</tspan><tspan class="st76" x="5.9" y="0">r</tspan><tspan class="st71" x="12.2" y="0">om the </tspan><tspan class="st76" x="80" y="0">r</tspan><tspan x="86.3" y="0">eceived signal</tspan></text>
  </g>
  <g class="st67">
    <polyline class="st13" points="771 308.6 771.6 307.3 771.8 306.8 772.1 306.4 772.4 306.2 772.7 306.1 773 306.1 773.3 306.3 773.5 306.6 773.8 307 774.1 307.6 774.7 309.1 775.2 311.1 775.8 313.5 776.7 317.7 778.1 325.6 779.2 331.8 779.8 334.5 780.3 336.8 780.9 338.6 781.2 339.3 781.5 339.8 781.7 340.3 782 340.5 782.3 340.6 782.6 340.5 782.9 340.3 783.2 339.8 783.4 339.3 783.7 338.6 784.3 336.6 784.9 334.1 785.4 331.1 786.3 325.8 787.4 317.9 789.1 305.8 790 300.5 790.5 297.5 791.1 295 791.7 293.1 791.9 292.3 792.2 291.7 792.5 291.3 792.8 290.9 793.1 290.8 793.4 290.8 793.6 290.9 793.9 291.2 794.2 291.6 794.5 292.1 795.1 293.5 795.6 295.2 796.5 298.3 798.4 306 799 307.9 799.6 309.4 800.1 310.5 800.4 310.8 800.7 311.1 801 311.2 801.3 311.2 801.6 311 801.8 310.7 802.1 310.3 802.4 309.7 803 308.2 803.5 306.2 804.1 303.8 805 299.6 806.4 291.6 807.5 285.5 808.1 282.8 808.6 280.5 809.2 278.7 809.5 278 809.8 277.4 810.1 277 810.3 276.8 810.6 276.7 810.9 276.8 811.2 277 811.5 277.4 811.7 278 812 278.7 812.6 280.6 813.2 283.1 813.7 286.2 814.6 291.4 815.7 299.4 817.4 311.5 818.3 316.7 818.8 319.7 819.4 322.2 820 324.2 820.2 324.9 820.5 325.5 820.8 326 821.1 326.4 821.4 326.5 821.7 326.5 821.9 326.4 822.2 326.1 822.5 325.7 822.8 325.2 823.4 323.8 823.9 322.1 824.8 318.9 826.8 311.3 827.3 309.4 827.9 307.9 828.4 306.8 828.7 306.4 829 306.2 829.3 306.1 829.6 306.1 829.9 306.3 830.1 306.6 830.4 307 830.7 307.6 831.3 309.1 831.8 311.1 832.4 313.5 833.3 317.7 834.7 325.6 835.8 331.8 836.4 334.5 836.9 336.8 837.5 338.6"/>
    <polyline class="st13" points="837.5 338.6 837.8 339.3 838.1 339.8 838.4 340.3 838.6 340.5 838.9 340.6 839.2 340.5 839.5 340.3 839.8 339.8 840.1 339.3 840.3 338.6 840.9 336.6 841.5 334.1 842 331.1 842.9 325.8 844 317.9 845.7 305.8 846.6 300.5 847.1 297.5 847.7 295 848.3 293.1 848.5 292.3 848.8 291.7 849.1 291.3 849.4 290.9 849.7 290.8 850 290.8 850.2 290.9 850.5 291.2 850.8 291.6 851.1 292.1 851.7 293.5 852.2 295.2 853.1 298.3 855.1 306 855.6 307.9 856.2 309.4 856.8 310.5 857 310.8 857.3 311.1 857.6 311.2 857.9 311.2 858.2 311 858.5 310.7 858.7 310.3 859 309.7 859.6 308.2 860.1 306.2 860.7 303.8 861.6 299.6 863 291.6 864.1 285.5 864.7 282.8 865.2 280.5 865.8 278.7 866.1 278 866.4 277.4 866.7 277 866.9 276.8 867.2 276.7 867.5 276.8 867.8 277 868.1 277.4 868.4 278 868.6 278.7 869.2 280.6 869.8 283.1 870.3 286.2 871.2 291.4 872.3 299.4 874 311.5 874.9 316.7 875.4 319.7 876 322.2 876.6 324.2 876.8 324.9 877.1 325.5 877.4 326 877.7 326.4 878 326.5 878.3 326.5 878.5 326.4 878.8 326.1 879.1 325.7 879.4 325.2 880 323.8 880.5 322.1 881.4 318.9 883.4 311.3 883.9 309.4 884.5 307.9 885.1 306.8 885.3 306.4 885.6 306.2 885.9 306.1 886.2 306.1 886.5 306.3 886.8 306.6 887 307 887.3 307.6 887.9 309.1 888.5 311.1 889 313.5 889.9 317.7 891.3 325.6 892.4 331.8 893 334.5 893.5 336.8 894.1 338.6 894.4 339.3 894.7 339.8 895 340.3 895.2 340.5 895.5 340.6 895.8 340.5 896.1 340.3 896.4 339.8 896.7 339.3 896.9 338.6 897.5 336.6 898.1 334.1 898.6 331.1 899.5 325.8 900.6 317.9 902.3 305.8 903.2 300.5 903.7 297.5 904.3 295"/>
    <polyline class="st13" points="904.3 295 904.9 293.1 905.2 292.3 905.4 291.7 905.7 291.3 906 290.9 906.3 290.8 906.6 290.8 906.9 290.9 907.1 291.2 907.4 291.6 907.7 292.1 908.3 293.5 908.8 295.2 909.7 298.3 911.7 306 912.2 307.9 912.8 309.4 913.4 310.5 913.6 310.8 913.9 311.1 914.2 311.2 914.5 311.2 914.8 311 915.1 310.7 915.3 310.3 915.6 309.7 916.2 308.2 916.8 306.2 917.3 303.8 918.2 299.6 919.6 291.6 920.7 285.5 921.3 282.8 921.9 280.5 922.4 278.7 922.7 278 923 277.4 923.3 277 923.5 276.8 923.8 276.7 924.1 276.8 924.4 277 924.7 277.4 925 278 925.2 278.7 925.8 280.6 926.4 283.1 926.9 286.2 927.8 291.4 928.9 299.4 930.6 311.5 931.5 316.7 932 319.7 932.6 322.2 933.2 324.2 933.5 324.9 933.7 325.5 934 326 934.3 326.4 934.6 326.5 934.9 326.5 935.2 326.4 935.4 326.1 935.7 325.7 936 325.2 936.6 323.8 937.1 322.1 938 318.9 940 311.3 940.5 309.4 941.1 307.9 941.7 306.8 941.9 306.4 942.2 306.2 942.5 306.1 942.8 306.1 943.1 306.3 943.4 306.6 943.6 307 943.9 307.6 944.5 309.1 945.1 311.1 945.6 313.5 946.5 317.7 947.9 325.6 949 331.8 949.6 334.5 950.2 336.8 950.7 338.6 951 339.3 951.3 339.8 951.6 340.3 951.9 340.5 952.1 340.6 952.4 340.5 952.7 340.3 953 339.8 953.3 339.3 953.6 338.6 954.1 336.6 954.7 334.1 955.2 331.1 956.1 325.8 957.2 317.9 958.9 305.8 959.8 300.5 960.3 297.5 960.9 295 961.5 293.1 961.8 292.3 962 291.7 962.3 291.3 962.6 290.9 962.9 290.8 963.2 290.8 963.5 290.9 963.7 291.2 964 291.6 964.3 292.1 964.9 293.5 965.4 295.2 966.3 298.3 968.3 306 968.8 307.9 969.4 309.4 970 310.5 970.3 310.8"/>
    <polyline class="st13" points="970.3 310.8 970.5 311.1 970.8 311.2 971.1 311.2 971.4 311 971.7 310.7 971.9 310.3 972.2 309.7 972.8 308.2 973.4 306.2 973.9 303.8 974.8 299.6 976.2 291.6 977.3 285.5 977.9 282.8 978.5 280.5 979 278.7 979.3 278 979.6 277.4 979.9 277 980.2 276.8 980.4 276.7 980.7 276.8 981 277 981.3 277.4 981.6 278 981.9 278.7 982.4 280.6 983 283.1 983.6 286.2 984.4 291.4 985.5 299.4 987.2 311.5 988.1 316.7 988.6 319.7 989.2 322.2 989.8 324.2 990.1 324.9 990.3 325.5 990.6 326 990.9 326.4 991.2 326.5 991.5 326.5 991.8 326.4 992 326.1 992.3 325.7 992.6 325.2 993.2 323.8 993.7 322.1 994.6 318.9 996.6 311.3 997.1 309.4 997.7 307.9 998.3 306.8 998.6 306.4 998.8 306.2 999.1 306.1 999.4 306.1 999.7 306.3 1000 306.6 1000.3 307 1000.5 307.6 1001.1 309.1 1001.7 311.1 1002.2 313.5 1003.1 317.7 1004.5 325.6 1005.6 331.8 1006.2 334.5 1006.8 336.8 1007.3 338.6 1007.6 339.3 1007.9 339.8 1008.2 340.3 1008.5 340.5 1008.7 340.6 1009 340.5 1009.3 340.3 1009.6 339.8 1009.9 339.3 1010.2 338.6 1010.7 336.6 1011.3 334.1 1011.9 331.1 1012.7 325.8 1013.8 317.9 1015.5 305.8 1016.4 300.5 1017 297.5 1017.5 295 1018.1 293.1 1018.4 292.3 1018.7 291.7 1018.9 291.3 1019.2 290.9 1019.5 290.8 1019.8 290.8 1020.1 290.9 1020.3 291.2 1020.6 291.6 1020.9 292.1 1021.5 293.5 1022 295.2 1022.9 298.3 1024.9 306 1025.4 307.9 1026 309.4 1026.6 310.5 1026.9 310.8 1027.1 311.1 1027.4 311.2 1027.7 311.2 1028 311 1028.3 310.7 1028.6 310.3 1028.8 309.7 1029.4 308.2 1030 306.2 1030.5 303.8 1031.4 299.6 1032.8 291.6 1033.9 285.5 1034.5 282.8 1035.1 280.5 1035.6 278.7 1035.9 278 1036.2 277.4 1036.5 277"/>
    <polyline class="st13" points="1036.5 277 1036.8 276.8 1037 276.7 1037.3 276.8 1037.6 277 1037.9 277.4 1038.2 278 1038.5 278.7 1039 280.6 1039.6 283.1 1040.2 286.2 1041 291.4 1042.1 299.4 1043.8 311.5 1044.7 316.7 1045.3 319.7 1045.8 322.2 1046.4 324.2 1046.7 324.9 1047 325.5 1047.2 326 1047.5 326.4 1047.8 326.5 1048.1 326.5 1048.4 326.4 1048.7 326.1 1048.9 325.7 1049.2 325.2 1049.8 323.8 1050.3 322.1 1051.2 318.9 1053.2 311.3 1053.7 309.4"/>
  </g>
  <g class="st66">
    <text class="st74" transform="translate(728.9 320.5)"><tspan x="0" y="0">∫</tspan></text>
  </g>
  <g class="st69">
    <text class="st20" transform="translate(898.4 266.9)"><tspan x="0" y="0">×</tspan></text>
  </g>
  <g class="st68">
    <path class="st1" d="M773.5,235.1h.6s.6-.2.6-.2l.6-.2.6-.3.6-.4.8-.8.8-1,.8-1.2.8-1.4.8-1.6,1.1-2.3,1.1-2.5,1.4-3.5,1.7-4.4,5.6-15.1,1.4-3.4,1.1-2.5,1.1-2.2.8-1.4.8-1.3.8-1.1.8-.9.6-.5.6-.4.6-.3.6-.2h.6c0,0,.6,0,.6,0h.6c0,0,.6.3.6.3l.6.3.6.4.6.5.8.9.8,1.1.8,1.3.8,1.4,1.1,2.2,1.1,2.5,1.4,3.4,1.7,4.4,2.5,6.9,2.5,6.9,1.7,4.3,1.4,3.2,1.1,2.3,1.1,2,.8,1.3.8,1.2.8,1,.8.7.6.4.6.3.6.2h.6c0,0,.6,0,.6,0h.6c0,0,.6-.3.6-.3l.6-.3.6-.4.6-.5.8-.9.8-1.1.8-1.3.8-1.4,1.1-2.2,1.1-2.5,1.4-3.4,1.7-4.4,2.5-6.9,2.5-6.9,1.7-4.3,1.4-3.2,1.1-2.3,1.1-2,.8-1.3.8-1.2.8-1,.8-.7.6-.4.6-.3.6-.2h.6c0,0,.6,0,.6,0h.6c0,0,.6.3.6.3l.6.3.6.4.6.5.8.9.8,1.1.8,1.3.8,1.4,1.1,2.2,1.1,2.5,1.4,3.4,1.7,4.4,2.5,6.9,2.5,6.9,1.7,4.3,1.4,3.2,1.1,2.3,1.1,2,.8,1.3.8,1.2.8,1,.8.7.6.4.6.3.6.2h.6c0,0,.6,0,.6,0h.6c0,0,.6-.3.6-.3l.6-.3.6-.4.6-.5.8-.9.8-1.1.8-1.3.8-1.4,1.1-2.2,1.1-2.5,1.4-3.4,1.7-4.4,2.5-6.9,2.5-6.9,1.7-4.3,1.4-3.2,1.1-2.3,1.1-2,.8-1.3.8-1.2.8-1,.8-.7.6-.4.6-.3.6-.2h.6c0,0,.6,0,.6,0h.6c0,0,.6.3.6.3l.6.3.6.4.6.5.8.9.8,1.1.8,1.3.8,1.4,1.1,2.2,1.1,2.5,1.4,3.4,1.7,4.4,2.5,6.9,2.5,6.9,1.7,4.3,1.4,3.2,1.1,2.3,1.1,2,.8,1.3.8,1.2.8,1,.8.7.6.4.6.3.6.2h.6c0,0,.6,0,.6,0h.6c0,0,.6-.3.6-.3l.6-.3.6-.4.6-.5.8-.9.8-1.1.8-1.3.8-1.4,1.1-2.2,1.1-2.5,1.4-3.4,1.7-4.4,2.5-6.9,2.5-6.9,1.7-4.3,1.4-3.2,1.1-2.3,1.1-2,.8-1.3.8-1.2.8-1,.8-.7.6-.4.6-.3.6-.2h.6c0,0,.6,0,.6,0h.6c0,0,.6.3.6.3l.6.3.6.4.6.5.8.9.8,1.1.8,1.3.8,1.4,1.1,2.2,1.1,2.5,1.4,3.4,1.7,4.4,2.5,6.9,2.5,6.9,1.7,4.3,1.4,3.2,1.1,2.3,1.1,2,.8,1.3.8,1.2.8,1,.8.7.6.4.6.3.6.2h.6c0,0,.6,0,.6,0h.6c0,0,.6-.3.6-.3l.6-.3.6-.4.6-.5.8-.9.8-1.1.8-1.3.8-1.4,1.1-2.2,1.1-2.5,1.4-3.4,1.7-4.4,2.5-6.9,2.5-6.9,1.7-4.3,1.4-3.2,1.1-2.3,1.1-2,.8-1.3.8-1.2.8-1,.8-.7.6-.4.6-.3.6-.2h.6c0,0,.6,0,.6,0h.6c0,0,.6.3.6.3l.6.3.6.4.6.5.8.9.8,1.1.8,1.3.8,1.4,1.1,2.2,1.1,2.5,1.4,3.4,1.7,4.4,2.5,6.9,2.5,6.9,1.7,4.3,1.4,3.2,1.1,2.3,1.1,2,.8,1.3.8,1.2.8,1,.8.7.6.4.6.3.6.2h.6"/>
  </g>
  <g class="st29">
    <polygon class="st61" points="1111.1 262.4 1111.1 287.6 1154.7 255.8 1111.1 224 1111.1 249.2 1078.1 249.2 1078.1 262.4 1111.1 262.4"/>
  </g>
  <g class="st26">
    <polyline class="st15" points="233.2 785.5 233.5 785.7 233.9 786.2 234.2 787.2 234.6 788.5 234.9 790.2 235.6 794.7 236.3 800.3 237.1 807 238.1 818.4 240.9 850.3 241.7 857.1 242.4 862.9 243.1 867.5 243.4 869.3 243.8 870.7 244.1 871.8 244.5 872.6 244.8 872.9 245.2 872.9 245.6 872.4 245.9 871.6 246.3 870.3 246.6 868.8 247.3 864.6 248 859.2 248.7 852.7 249.8 841.5 253 806 253.7 799.5 254.4 794.1 255.1 789.9 255.5 788.4 255.8 787.1 256.2 786.3 256.5 785.8 256.9 785.8 257.2 786.1 257.6 786.8 258 787.9 258.3 789.3 259 793.3 259.7 798.5 260.4 804.8 261.5 815.9 265 855 265.8 861.2 266.5 866.2 267.2 869.8 267.5 871.2 267.9 872.1 268.2 872.7 268.6 872.9 268.9 872.7 269.3 872.1 269.6 871.2 270 869.8 270.4 868.1 271.1 863.7 271.8 858 272.5 851.4 273.5 840 276.4 808.1 277.1 801.3 277.8 795.5 278.5 790.9 278.9 789.1 279.2 787.6 279.6 786.6 279.9 785.8 280.3 785.5 280.6 785.5 281 786 281.3 786.8 281.7 788 282 789.6 282.8 793.8 283.5 799.2 284.2 805.7 285.2 816.9 288.4 852.4 289.1 858.9 289.8 864.3 290.6 868.5 290.9 870 291.3 871.2 291.6 872.1 292 872.5 292.3 872.5 292.7 872.2 293 871.5 293.4 870.4 293.7 868.9 294.4 865 295.2 859.8 295.9 853.5 296.9 842.4 300.5 803.3 301.2 797.1 301.9 792.1 302.6 788.4 303 787.1 303.3 786.1 303.7 785.6 304 785.4 304.4 785.6 304.7 786.1 305.1 787.1 305.4 788.4 305.8 790.2 306.5 794.6 307.2 800.2 307.9 806.9 309 818.3 311.8 850.2 312.5 857 313.2 862.8 313.9 867.4 314.3 869.2 314.6 870.7 315 871.7 315.4 872.5 315.7 872.8 316.1 872.8 316.4 872.3 316.8 871.5 317.1 870.3 317.5 868.7"/>
    <polyline class="st15" points="317.5 868.7 318.2 864.5 318.9 859.1 319.6 852.6 320.7 841.4 323.9 805.9 324.6 799.4 325.3 794 326 789.8 326.3 788.3 326.7 787 327 786.2 327.4 785.7 327.8 785.7 328.1 786 328.5 786.7 328.8 787.8 329.2 789.3 329.9 793.2 330.6 798.4 331.3 804.8 332.4 815.8 335.9 854.9 336.6 861.1 337.3 866.1 338 869.8 338.4 871.1 338.7 872.1 339.1 872.6 339.4 872.8 339.8 872.6 340.2 872.1 340.5 871.1 340.9 869.8 341.2 868 341.9 863.6 342.6 858 343.3 851.3 344.4 839.9 347.2 808 347.9 801.2 348.7 795.4 349.4 790.8 349.7 789 350.1 787.5 350.4 786.5 350.8 785.7 351.1 785.4 351.5 785.4 351.8 785.9 352.2 786.7 352.6 787.9 352.9 789.5 353.6 793.7 354.3 799.1 355 805.6 356.1 816.8 359.3 852.3 360 858.8 360.7 864.2 361.4 868.4 361.8 869.9 362.1 871.2 362.5 872 362.8 872.4 363.2 872.4 363.5 872.1 363.9 871.4 364.2 870.3 364.6 868.9 365.3 864.9 366 859.7 366.7 853.4 367.8 842.3 371.3 803.2 372 797 372.8 792 373.5 788.4 373.8 787 374.2 786.1 374.5 785.5 374.9 785.3 375.2 785.5 375.6 786.1 375.9 787 376.3 788.4 376.6 790.1 377.4 794.5 378.1 800.2 378.8 806.8 379.8 818.2 382.7 850.1 383.4 856.9 384.1 862.7 384.8 867.3 385.2 869.1 385.5 870.6 385.9 871.7 386.2 872.4 386.6 872.7 386.9 872.7 387.3 872.2 387.6 871.4 388 870.2 388.3 868.6 389.1 864.4 389.8 859 390.5 852.5 391.5 841.3 394.7 805.8 395.4 799.3 396.1 793.9 396.8 789.7 397.2 788.2 397.6 787 397.9 786.1 398.3 785.7 398.6 785.7 399 785.9 399.3 786.6 399.7 787.7 400 789.2 400.7 793.1 401.5 798.4 402.2 804.7 403.2 815.7 406.8 854.8 407.5 861"/>
    <polyline class="st15" points="407.5 861 408.2 866 408.9 869.7 409.2 871 409.6 872 410 872.6 410.3 872.7 410.7 872.6 411 872 411.4 871 411.7 869.7 412.1 868 412.8 863.5 413.5 857.9 414.2 851.2 415.3 839.8 418.1 807.9 418.8 801.1 419.5 795.3 420.2 790.7 420.6 788.9 420.9 787.5 421.3 786.4 421.6 785.7 422 785.3 422.4 785.3 422.7 785.8 423.1 786.6 423.4 787.9 423.8 789.4 424.5 793.6 425.2 799 425.9 805.5 427 816.7 430.1 852.2 430.9 858.7 431.6 864.1 432.3 868.3 432.6 869.8 433 871.1 433.3 871.9 433.7 872.3 434 872.3 434.4 872.1 434.8 871.3 435.1 870.3 435.5 868.8 436.2 864.8 436.9 859.6 437.6 853.3 438.7 842.2 442.2 803.1 442.9 797 443.6 792 444.3 788.3 444.7 787 445 786 445.4 785.4 445.7 785.2 446.1 785.4 446.4 786 446.8 787 447.2 788.3 447.5 790 448.2 794.4 448.9 800.1 449.6 806.7 450.7 818.1 453.5 850 454.2 856.8 455 862.6 455.7 867.2 456 869 456.4 870.5 456.7 871.6 457.1 872.3 457.4 872.6 457.8 872.6 458.1 872.1 458.5 871.3 458.8 870.1 459.2 868.5 459.9 864.4 460.6 858.9 461.3 852.5 462.4 841.2 465.6 805.7 466.3 799.3 467 793.8 467.7 789.7 468.1 788.1 468.4 786.9 468.8 786.1 469.1 785.6 469.5 785.6 469.8 785.8 470.2 786.6 470.5 787.6 470.9 789.1 471.6 793 472.3 798.3 473 804.6 474.1 815.7 477.6 854.8 478.3 860.9 479 865.9 479.8 869.6 480.1 870.9 480.5 871.9 480.8 872.5 481.2 872.6 481.5 872.5 481.9 871.9 482.2 870.9 482.6 869.6 482.9 867.9 483.7 863.5 484.4 857.8 485.1 851.2 486.1 839.8 489 807.9 489.7 801.1 490.4 795.2 491.1 790.7 491.4 788.8 491.8 787.4 492.2 786.3 492.5 785.6"/>
    <polyline class="st15" points="492.5 785.6 492.9 785.2 493.2 785.2 493.6 785.7 493.9 786.6 494.3 787.8 494.6 789.3 495.3 793.5 496.1 798.9 496.8 805.4 497.8 816.6 501 852.1 501.7 858.6 502.4 864 503.1 868.2 503.5 869.8 503.8 871 504.2 871.8 504.6 872.2 504.9 872.2 505.3 872 505.6 871.2 506 870.2 506.3 868.7 507 864.8 507.7 859.5 508.5 853.2 509.5 842.1 513.1 803 513.8 796.9 514.5 791.9 515.2 788.2 515.5 786.9 515.9 785.9 516.2 785.3 516.6 785.2 517 785.3 517.3 785.9 517.7 786.9 518 788.2 518.4 789.9 519.1 794.3 519.8 800 520.5 806.6 521.6 818 524.4 849.9 525.1 856.7 525.8 862.6 526.5 867.1 526.9 868.9 527.2 870.4 527.6 871.5 527.9 872.2 528.3 872.6 528.6 872.6 529 872.1 529.4 871.2 529.7 870 530.1 868.5 530.8 864.3 531.5 858.9 532.2 852.4 533.3 841.2 536.4 805.7 537.1 799.2 537.9 793.8 538.6 789.6 538.9 788 539.3 786.8 539.6 786 540 785.5 540.3 785.5 540.7 785.7 541 786.5 541.4 787.5 541.8 789 542.5 792.9 543.2 798.2 543.9 804.5 544.9 815.6 548.5 854.7 549.2 860.8 549.9 865.8 550.6 869.5 551 870.8 551.3 871.8 551.7 872.4 552 872.6 552.4 872.4 552.7 871.8 553.1 870.8 553.4 869.5 553.8 867.8 554.5 863.4 555.2 857.7 555.9 851.1 557 839.7 559.8 807.8 560.5 801 561.2 795.2 562 790.6 562.3 788.8 562.7 787.3 563 786.2 563.4 785.5 563.7 785.2 564.1 785.2 564.4 785.7 564.8 786.5 565.1 787.7 565.5 789.3 566.2 793.4 566.9 798.8 567.6 805.3 568.7 816.6 571.9 852.1 572.6 858.5 573.3 863.9 574 868.1 574.4 869.7 574.7 870.9 575.1 871.7 575.4 872.1 575.8 872.1 576.1 871.9 576.5 871.2 576.8 870.1 577.2 868.6"/>
    <polyline class="st15" points="577.2 868.6 577.9 864.7 578.6 859.4 579.3 853.1 580.4 842.1 583.9 802.9 584.6 796.8 585.3 791.8 586 788.1 586.4 786.8 586.8 785.8 587.1 785.2"/>
  </g>
  <g class="st33">
    <polyline class="st12" points="239 728.6 242.5 742.2 244.7 749.8 246.4 755.6 247.8 759.7 249.3 763.3 250.3 765.7 251.4 767.8 252.5 769.5 253.5 770.8 254.2 771.5 254.9 772 255.6 772.3 256.3 772.5 257.1 772.5 257.8 772.3 258.5 772 259.2 771.5 259.9 770.8 260.6 770 261.7 768.4 262.7 766.5 263.8 764.2 264.9 761.7 266.3 757.8 267.7 753.4 269.5 747.4 271.6 739.6 274.8 727.3 278 715.1 280.1 707.5 281.9 701.7 283.3 697.6 284.7 693.9 285.8 691.5 286.8 689.5 287.9 687.8 288.9 686.4 289.7 685.8 290.4 685.3 291.1 684.9 291.8 684.8 292.5 684.8 293.2 684.9 293.9 685.3 294.6 685.8 295.3 686.4 296 687.3 297.1 688.8 298.2 690.7 299.2 693 300.3 695.6 301.7 699.5 303.1 703.9 304.9 709.9 307 717.6 310.2 730 313.4 742.2 315.5 749.8 317.3 755.6 318.7 759.7 320.1 763.3 321.2 765.7 322.2 767.8 323.3 769.5 324.4 770.8 325.1 771.5 325.8 772 326.5 772.3 327.2 772.5 327.9 772.5 328.6 772.3 329.3 772 330 771.5 330.8 770.8 331.5 770 332.5 768.4 333.6 766.5 334.7 764.2 335.7 761.7 337.1 757.8 338.5 753.4 340.3 747.4 342.4 739.6 345.6 727.3 348.8 715.1 350.9 707.5 352.7 701.7 354.1 697.6 355.6 693.9 356.6 691.5 357.7 689.5 358.7 687.8 359.8 686.4 360.5 685.8 361.2 685.3 361.9 684.9 362.6 684.8 363.3 684.8 364.1 684.9 364.8 685.3 365.5 685.8 366.2 686.4 366.9 687.3 368 688.8 369 690.7 370.1 693 371.1 695.6 372.6 699.5 374 703.9 375.7 709.9 377.9 717.6 381.1 730 384.3 742.2 386.4 749.8 388.2 755.6 389.6 759.7 391 763.3 392 765.7 393.1 767.8 394.2 769.5 395.2 770.8 395.9 771.5 396.7 772 397.4 772.3 398.1 772.5 398.8 772.5 399.5 772.3"/>
    <polyline class="st12" points="399.5 772.3 400.2 772 400.9 771.5 401.6 770.8 402.3 770 403.4 768.4 404.4 766.5 405.5 764.2 406.6 761.7 408 757.8 409.4 753.4 411.2 747.4 413.3 739.6 416.5 727.3 419.7 715.1 421.8 707.5 423.6 701.7 425 697.6 426.4 693.9 427.5 691.5 428.5 689.5 429.6 687.8 430.7 686.4 431.4 685.8 432.1 685.3 432.8 684.9 433.5 684.8 434.2 684.8 434.9 684.9 435.6 685.3 436.3 685.8 437 686.4 437.8 687.3 438.8 688.8 439.9 690.7 440.9 693 442 695.6 443.4 699.5 444.8 703.9 446.6 709.9 448.7 717.6 451.9 730 455.1 742.2 457.2 749.8 459 755.6 460.4 759.7 461.8 763.3 462.9 765.7 464 767.8 465 769.5 466.1 770.8 466.8 771.5 467.5 772 468.2 772.3 468.9 772.5 469.6 772.5 470.3 772.3 471.1 772 471.8 771.5 472.5 770.8 473.2 770 474.2 768.4 475.3 766.5 476.4 764.2 477.4 761.7 478.9 757.8 480.3 753.4 482 747.4 484.2 739.6 487.4 727.3 490.5 715.1 492.7 707.5 494.4 701.7 495.9 697.6 497.3 693.9 498.3 691.5 499.4 689.5 500.5 687.8 501.5 686.4 502.2 685.8 502.9 685.3 503.7 684.9 504.4 684.8 505.1 684.8 505.8 684.9 506.5 685.3 507.2 685.8 507.9 686.4 508.6 687.3 509.7 688.8 510.7 690.7 511.8 693 512.9 695.6 514.3 699.5 515.7 703.9 517.5 709.9 519.6 717.6 522.8 730 526 742.2 528.1 749.8 529.9 755.6 531.3 759.7 532.7 763.3 533.8 765.7 534.8 767.8 535.9 769.5 537 770.8 537.7 771.5 538.4 772 539.1 772.3 539.8 772.5 540.5 772.5 541.2 772.3 541.9 772 542.6 771.5 543.3 770.8 544 770 545.1 768.4 546.2 766.5 547.2 764.2 548.3 761.7 549.7 757.8 551.1 753.4 552.9 747.4 555 739.6 558.2 727.3 561.4 715.1 563.5 707.5"/>
    <polyline class="st12" points="563.5 707.5 565.3 701.7 566.7 697.6 568.1 693.9 569.2 691.5 570.3 689.5 571.3 687.8 572.4 686.4 573.1 685.8 573.8 685.3 574.5 684.9 575.2 684.8 575.9 684.8 576.6 684.9 577.3 685.3 578.1 685.8 578.8 686.4 579.5 687.3 580.5 688.8 581.6 690.7 582.7 693 583.7 695.6 585.1 699.5 586.6 703.9 588.3 709.9 590.5 717.6 592.9 727.2"/>
  </g>
  <g class="st31">
    <polyline class="st18" points="239 930 240.8 915.7 241.8 908.4 242.5 904.5 243.3 901.5 243.6 900.4 244 899.5 244.3 898.9 244.7 898.6 245 898.6 245.4 898.8 245.7 899.3 246.1 900.1 246.4 901.1 247.1 904 247.9 907.7 248.6 912.3 249.6 920.3 253.2 948.4 253.9 952.8 254.6 956.5 255.3 959.1 255.7 960.1 256 960.8 256.4 961.2 256.7 961.3 257.1 961.2 257.4 960.8 257.8 960.1 258.1 959.1 258.5 957.9 259.2 954.7 259.9 950.6 260.6 945.8 261.7 937.6 264.5 914.6 265.2 909.7 265.9 905.5 266.6 902.2 267 900.9 267.3 899.9 267.7 899.1 268.1 898.6 268.4 898.3 268.8 898.3 269.1 898.7 269.5 899.3 269.8 900.2 270.2 901.3 270.9 904.3 271.6 908.2 272.3 912.9 273.4 921 276.6 946.5 277.3 951.2 278 955.1 278.7 958.1 279 959.2 279.4 960.1 279.7 960.7 280.1 961 280.5 961 280.8 960.8 281.2 960.3 281.5 959.5 281.9 958.5 282.6 955.6 283.3 951.8 284 947.3 285.1 939.3 288.6 911.2 289.3 906.7 290 903.1 290.7 900.5 291.1 899.5 291.4 898.8 291.8 898.4 292.1 898.3 292.5 898.4 292.9 898.8 293.2 899.5 293.6 900.5 293.9 901.7 294.6 904.9 295.3 909 296 913.8 297.1 922 299.9 944.9 300.6 949.8 301.4 954 302.1 957.3 302.4 958.6 302.8 959.7 303.1 960.5 303.5 961 303.8 961.2 304.2 961.2 304.5 960.9 304.9 960.3 305.3 959.4 305.6 958.3 306.3 955.3 307 951.4 307.7 946.7 308.8 938.6 312 913 312.7 908.4 313.4 904.5 314.1 901.5 314.5 900.4 314.8 899.5 315.2 898.9 315.5 898.5 315.9 898.5 316.2 898.7 316.6 899.2 316.9 900 317.3 901.1 318 903.9 318.7 907.7 319.4 912.2 320.5 920.2 324 948.4 324.7 952.8 325.5 956.4 326.2 959 326.5 960 326.9 960.7"/>
    <polyline class="st18" points="326.9 960.7 327.2 961.1 327.6 961.2 327.9 961.1 328.3 960.7 328.6 960 329 959 329.3 957.8 330.1 954.6 330.8 950.5 331.5 945.8 332.5 937.6 335.4 914.6 336.1 909.7 336.8 905.5 337.5 902.2 337.9 900.9 338.2 899.8 338.6 899.1 338.9 898.5 339.3 898.3 339.6 898.3 340 898.6 340.3 899.2 340.7 900.1 341 901.2 341.7 904.3 342.5 908.1 343.2 912.8 344.2 920.9 347.4 946.5 348.1 951.1 348.8 955 349.5 958 349.9 959.2 350.3 960.1 350.6 960.6 351 960.9 351.3 960.9 351.7 960.8 352 960.2 352.4 959.5 352.7 958.4 353.4 955.6 354.1 951.8 354.9 947.2 355.9 939.3 359.5 911.1 360.2 906.7 360.9 903.1 361.6 900.4 361.9 899.5 362.3 898.8 362.7 898.3 363 898.2 363.4 898.3 363.7 898.8 364.1 899.5 364.4 900.4 364.8 901.7 365.5 904.8 366.2 908.9 366.9 913.7 368 921.9 370.8 944.9 371.5 949.8 372.2 954 372.9 957.3 373.3 958.6 373.6 959.6 374 960.4 374.3 960.9 374.7 961.2 375.1 961.2 375.4 960.8 375.8 960.2 376.1 959.3 376.5 958.2 377.2 955.2 377.9 951.3 378.6 946.6 379.7 938.6 382.8 913 383.6 908.3 384.3 904.4 385 901.4 385.3 900.3 385.7 899.4 386 898.8 386.4 898.5 386.7 898.5 387.1 898.6 387.5 899.2 387.8 899.9 388.2 901 388.9 903.8 389.6 907.6 390.3 912.2 391.4 920.1 394.9 948.3 395.6 952.7 396.3 956.3 397 959 397.4 959.9 397.7 960.6 398.1 961.1 398.4 961.2 398.8 961.1 399.1 960.6 399.5 959.9 399.9 959 400.2 957.8 400.9 954.6 401.6 950.5 402.3 945.7 403.4 937.5 406.2 914.5 406.9 909.6 407.6 905.4 408.4 902.1 408.7 900.8 409.1 899.8 409.4 899 409.8 898.5 410.1 898.2 410.5 898.2 410.8 898.6 411.2 899.2"/>
    <polyline class="st18" points="411.2 899.2 411.5 900.1 411.9 901.2 412.6 904.2 413.3 908.1 414 912.8 415.1 920.8 418.3 946.4 419 951.1 419.7 955 420.4 958 420.8 959.1 421.1 960 421.5 960.6 421.8 960.9 422.2 960.9 422.5 960.7 422.9 960.2 423.2 959.4 423.6 958.3 424.3 955.5 425 951.7 425.7 947.2 426.8 939.2 430.3 911 431 906.6 431.7 903 432.5 900.4 432.8 899.4 433.2 898.7 433.5 898.3 433.9 898.2 434.2 898.3 434.6 898.7 434.9 899.4 435.3 900.4 435.6 901.6 436.3 904.8 437.1 908.9 437.8 913.6 438.8 921.8 441.7 944.8 442.4 949.7 443.1 953.9 443.8 957.2 444.1 958.5 444.5 959.6 444.9 960.3 445.2 960.9 445.6 961.1 445.9 961.1 446.3 960.8 446.6 960.2 447 959.3 447.3 958.2 448 955.2 448.7 951.3 449.5 946.6 450.5 938.5 453.7 912.9 454.4 908.3 455.1 904.4 455.8 901.4 456.2 900.2 456.5 899.3 456.9 898.8 457.3 898.4 457.6 898.4 458 898.6 458.3 899.1 458.7 899.9 459 900.9 459.7 903.8 460.4 907.6 461.1 912.1 462.2 920.1 465.8 948.2 466.5 952.7 467.2 956.3 467.9 958.9 468.2 959.9 468.6 960.6 468.9 961 469.3 961.1 469.7 961 470 960.6 470.4 959.9 470.7 958.9 471.1 957.7 471.8 954.5 472.5 950.4 473.2 945.6 474.3 937.4 477.1 914.5 477.8 909.6 478.5 905.4 479.2 902.1 479.6 900.8 479.9 899.7 480.3 898.9 480.6 898.4 481 898.2 481.3 898.2 481.7 898.5 482.1 899.1 482.4 900 482.8 901.1 483.5 904.1 484.2 908 484.9 912.7 486 920.8 489.1 946.4 489.8 951 490.6 954.9 491.3 957.9 491.6 959 492 959.9 492.3 960.5 492.7 960.8 493 960.8 493.4 960.6 493.7 960.1 494.1 959.3 494.5 958.3 495.2 955.4 495.9 951.7 496.6 947.1 497.6 939.1"/>
    <polyline class="st18" points="497.6 939.1 501.2 911 501.9 906.6 502.6 903 503.3 900.3 503.7 899.3 504 898.6 504.4 898.2 504.7 898.1 505.1 898.2 505.4 898.6 505.8 899.3 506.1 900.3 506.5 901.5 507.2 904.7 507.9 908.8 508.6 913.6 509.7 921.8 512.5 944.8 513.2 949.7 513.9 953.9 514.7 957.2 515 958.5 515.4 959.5 515.7 960.3 516.1 960.8 516.4 961.1 516.8 961.1 517.1 960.7 517.5 960.1 517.8 959.2 518.2 958.1 518.9 955.1 519.6 951.2 520.3 946.5 521.4 938.4 524.6 912.9 525.3 908.2 526 904.3 526.7 901.3 527.1 900.2 527.4 899.3 527.8 898.7 528.1 898.3 528.5 898.3 528.8 898.5 529.2 899.1 529.5 899.8 529.9 900.9 530.6 903.7 531.3 907.5 532 912 533.1 920 536.6 948.2 537.3 952.6 538 956.2 538.7 958.9 539.1 959.8 539.5 960.5 539.8 960.9 540.2 961.1 540.5 960.9 540.9 960.5 541.2 959.8 541.6 958.9 541.9 957.6 542.6 954.4 543.3 950.4 544.1 945.6 545.1 937.4 548 914.4 548.7 909.5 549.4 905.3 550.1 902 550.4 900.7 550.8 899.6 551.1 898.9 551.5 898.3 551.9 898.1 552.2 898.1 552.6 898.5 552.9 899.1 553.3 899.9 553.6 901.1 554.3 904.1 555 908 555.7 912.6 556.8 920.7 560 946.3 560.7 951 561.4 954.9 562.1 957.9 562.5 959 562.8 959.9 563.2 960.5 563.5 960.8 563.9 960.8 564.3 960.6 564.6 960.1 565 959.3 565.3 958.2 566 955.4 566.7 951.6 567.4 947.1 568.5 939.1 572 910.9 572.8 906.5 573.5 902.9 574.2 900.2 574.5 899.3 574.9 898.6 575.2 898.2 575.6 898.1 575.9 898.2 576.3 898.6 576.7 899.3 577 900.2 577.4 901.5 578.1 904.7 578.8 908.7 579.5 913.5 580.6 921.7 583.4 944.7 584.1 949.6 584.8 953.8 585.5 957.1 585.9 958.4 586.2 959.5"/>
    <polyline class="st18" points="586.2 959.5 586.6 960.2 586.9 960.8 587.3 961 587.6 961 588 960.6 588.3 960.1 588.7 959.2 589.1 958 589.8 955 590.5 951.1 591.2 946.5 592.2 938.4 593 932.6"/>
  </g>
  <g class="st32">
    <text class="st20" transform="translate(387.4 594.6)"><tspan x="0" y="0">×</tspan></text>
    <text class="st74" transform="translate(176.6 641.9)"><tspan x="0" y="0">∫</tspan></text>
    <path class="st4" d="M220.1,967c-26.7-124.5-23-242.7,11.2-354.8"/>
    <text class="st20" transform="translate(395.7 790.6)"><tspan x="0" y="0">+</tspan></text>
    <text class="st20" transform="translate(400.9 890.5)"><tspan x="0" y="0">+</tspan></text>
    <text class="st21" transform="translate(369.5 1041)"><tspan x="0" y="0">b) </tspan><tspan class="st76" x="22.6" y="0">V</tspan><tspan x="34.5" y="0">isualization with all the contributions of the other subcarriers</tspan></text>
  </g>
  <g class="st30">
    <path class="st5" d="M239,662.8h.7s.7-.1.7-.1l.7-.2.7-.2.7-.3,1.1-.6,1.1-.8,1.1-.9,1.1-1,1.1-1.2,1.4-1.7,1.4-1.9,1.8-2.6,2.1-3.3,7.1-11.3,1.8-2.5,1.4-1.8,1.4-1.6,1.1-1.1,1.1-1,1.1-.8,1.1-.7.7-.3.7-.3.7-.2h.7c0-.1.7-.2.7-.2h1.4c0,0,.7.2.7.2l.7.2.7.3.7.3,1.1.7,1.1.8,1.1,1,1.1,1.1,1.4,1.6,1.4,1.8,1.8,2.5,2.1,3.3,3.2,5.2,3.2,5.1,2.1,3.2,1.8,2.4,1.4,1.7,1.4,1.5,1.1,1,1.1.9,1.1.7,1.1.6.7.3.7.2h.7c0,.1.7.2.7.2h1.4c0,0,.7-.2.7-.2l.7-.2.7-.3.7-.3,1.1-.7,1.1-.8,1.1-1,1.1-1.1,1.4-1.6,1.4-1.8,1.8-2.5,2.1-3.3,3.2-5.2,3.2-5.1,2.1-3.2,1.8-2.4,1.4-1.7,1.4-1.5,1.1-1,1.1-.9,1.1-.7,1.1-.6.7-.3.7-.2h.7c0-.1.7-.2.7-.2h1.4c0,0,.7.2.7.2l.7.2.7.3.7.3,1.1.7,1.1.8,1.1,1,1.1,1.1,1.4,1.6,1.4,1.8,1.8,2.5,2.1,3.3,3.2,5.2,3.2,5.1,2.1,3.2,1.8,2.4,1.4,1.7,1.4,1.5,1.1,1,1.1.9,1.1.7,1.1.6.7.3.7.2h.7c0,.1.7.2.7.2h1.4c0,0,.7-.2.7-.2l.7-.2.7-.3.7-.3,1.1-.7,1.1-.8,1.1-1,1.1-1.1,1.4-1.6,1.4-1.8,1.8-2.5,2.1-3.3,3.2-5.2,3.2-5.1,2.1-3.2,1.8-2.4,1.4-1.7,1.4-1.5,1.1-1,1.1-.9,1.1-.7,1.1-.6.7-.3.7-.2h.7c0-.1.7-.2.7-.2h1.4c0,0,.7.2.7.2l.7.2.7.3.7.3,1.1.7,1.1.8,1.1,1,1.1,1.1,1.4,1.6,1.4,1.8,1.8,2.5,2.1,3.3,3.2,5.2,3.2,5.1,2.1,3.2,1.8,2.4,1.4,1.7,1.4,1.5,1.1,1,1.1.9,1.1.7,1.1.6.7.3.7.2h.7c0,.1.7.2.7.2h1.4c0,0,.7-.2.7-.2l.7-.2.7-.3.7-.3,1.1-.7,1.1-.8,1.1-1,1.1-1.1,1.4-1.6,1.4-1.8,1.8-2.5,2.1-3.3,3.2-5.2,3.2-5.1,2.1-3.2,1.8-2.4,1.4-1.7,1.4-1.5,1.1-1,1.1-.9,1.1-.7,1.1-.6.7-.3.7-.2h.7c0-.1.7-.2.7-.2h1.4c0,0,.7.2.7.2l.7.2.7.3.7.3,1.1.7,1.1.8,1.1,1,1.1,1.1,1.4,1.6,1.4,1.8,1.8,2.5,2.1,3.3,3.2,5.2,3.2,5.1,2.1,3.2,1.8,2.4,1.4,1.7,1.4,1.5,1.1,1,1.1.9,1.1.7,1.1.6.7.3.7.2h.7c0,.1.7.2.7.2h1.4c0,0,.7-.2.7-.2l.7-.2.7-.3.7-.3,1.1-.7,1.1-.8,1.1-1,1.1-1.1,1.4-1.6,1.4-1.8,1.8-2.5,2.1-3.3,3.2-5.2,3.2-5.1,2.1-3.2,1.8-2.4,1.4-1.7,1.4-1.5,1.1-1,1.1-.9,1.1-.7,1.1-.6.7-.3.7-.2h.7c0-.1.7-.2.7-.2h1.4c0,0,.7.2.7.2l.7.2.7.3.7.3,1.1.7,1.1.8,1.1,1,1.1,1.1,1.4,1.6,1.4,1.8,1.8,2.5,2.1,3.3,3.2,5.2,3.2,5.1,2.1,3.2,1.8,2.4,1.4,1.7,1.4,1.5,1.1,1,1.1.9,1.1.7,1.1.6.7.3.7.2h.7c0,.1.7.2.7.2"/>
  </g>
  <g class="st27">
    <text class="st20" transform="translate(395 692.2)"><tspan x="0" y="0">+</tspan></text>
    <path class="st4" d="M601.5,967c26.7-124.5,23-242.7-11.2-354.8"/>
    <polyline class="st4" points="1128.8 163.4 1061.7 184.9 1060.8 185.2"/>
    <polygon points="1060.3 180.3 1052.6 187.8 1063.2 189.5 1060.3 180.3"/>
    <text class="st21" transform="translate(1154.8 166.8)"><tspan class="st78" x="0" y="0">W</tspan><tspan x="17.8" y="0">ave carrier 1</tspan></text>
  </g>
  <g class="st24">
    <path class="st11" d="M239.3,553.8h.6c0,0,.6-.2.6-.2l.6-.3.6-.4.6-.5,1-1,1-1.2,1-1.4,1-1.6,1-1.8,1.3-2.7,1.3-3,1.6-4.1,1.9-5.2,6.6-17.6,1.6-4,1.3-2.9,1.3-2.5,1-1.7,1-1.5,1-1.2,1-1,.6-.5.6-.4.6-.3.6-.2h.6c0-.1.6-.1.6-.1h.6c0,.1.6.3.6.3l.6.3.6.4.6.5,1,1,1,1.2,1,1.5,1,1.7,1.3,2.5,1.3,2.9,1.6,4,1.9,5.1,2.9,8.1,2.9,8,1.9,5,1.6,3.8,1.3,2.7,1.3,2.4,1,1.6,1,1.4,1,1.1,1,.9.6.4.6.3.6.2h.6c0,.1.6.1.6.1h.6c0-.1.6-.3.6-.3l.6-.3.6-.4.6-.5,1-1,1-1.2,1-1.5,1-1.7,1.3-2.5,1.3-2.9,1.6-4,1.9-5.1,2.9-8.1,2.9-8,1.9-5,1.6-3.8,1.3-2.7,1.3-2.4,1-1.6,1-1.4,1-1.1,1-.9.6-.4.6-.3.6-.2h.6c0-.1.6-.1.6-.1h.6c0,.1.6.3.6.3l.6.3.6.4.6.5,1,1,1,1.2,1,1.5,1,1.7,1.3,2.5,1.3,2.9,1.6,4,1.9,5.1,2.9,8.1,2.9,8,1.9,5,1.6,3.8,1.3,2.7,1.3,2.4,1,1.6,1,1.4,1,1.1,1,.9.6.4.6.3.6.2h.6c0,.1.6.1.6.1h.6c0-.1.6-.3.6-.3l.6-.3.6-.4.6-.5,1-1,1-1.2,1-1.5,1-1.7,1.3-2.5,1.3-2.9,1.6-4,1.9-5.1,2.9-8.1,2.9-8,1.9-5,1.6-3.8,1.3-2.7,1.3-2.4,1-1.6,1-1.4,1-1.1,1-.9.6-.4.6-.3.6-.2h.6c0-.1.6-.1.6-.1h.6c0,.1.6.3.6.3l.6.3.6.4.6.5,1,1,1,1.2,1,1.5,1,1.7,1.3,2.5,1.3,2.9,1.6,4,1.9,5.1,2.9,8.1,2.9,8,1.9,5,1.6,3.8,1.3,2.7,1.3,2.4,1,1.6,1,1.4,1,1.1,1,.9.6.4.6.3.6.2h.6c0,.1.6.1.6.1h.6c0-.1.6-.3.6-.3l.6-.3.6-.4.6-.5,1-1,1-1.2,1-1.5,1-1.7,1.3-2.5,1.3-2.9,1.6-4,1.9-5.1,2.9-8.1,2.9-8,1.9-5,1.6-3.8,1.3-2.7,1.3-2.4,1-1.6,1-1.4,1-1.1,1-.9.6-.4.6-.3.6-.2h.6c0-.1.6-.1.6-.1h.6c0,.1.6.3.6.3l.6.3.6.4.6.5,1,1,1,1.2,1,1.5,1,1.7,1.3,2.5,1.3,2.9,1.6,4,1.9,5.1,2.9,8.1,2.9,8,1.9,5,1.6,3.8,1.3,2.7,1.3,2.4,1,1.6,1,1.4,1,1.1,1,.9.6.4.6.3.6.2h.6c0,.1.6.1.6.1h.6c0-.1.6-.3.6-.3l.6-.3.6-.4.6-.5,1-1,1-1.2,1-1.5,1-1.7,1.3-2.5,1.3-2.9,1.6-4,1.9-5.1,2.9-8.1,2.9-8,1.9-5,1.6-3.8,1.3-2.7,1.3-2.4,1-1.6,1-1.4,1-1.1,1-.9.6-.4.6-.3.6-.2h.6c0-.1.6-.1.6-.1h.6c0,.1.6.3.6.3l.6.3.6.4.6.5,1,1,1,1.2,1,1.5,1,1.7,1.3,2.5,1.3,2.9,1.6,4,1.9,5.1,2.9,8.1,2.9,8,1.9,5,1.6,3.8,1.3,2.7,1.3,2.4,1,1.6,1,1.4,1,1.1,1,.9.6.4.6.3.6.2h.6"/>
  </g>
  <g class="st28">
    <text class="st19" transform="translate(919.9 531)"><tspan x="0" y="0">×</tspan></text>
  </g>
  <g class="st25">
    <text class="st73" transform="translate(784.9 557.4)"><tspan x="0" y="0">∫</tspan></text>
  </g>
  <g class="st48">
    <polyline class="st17" points="818.6 695.6 821.1 705.8 822.6 711.5 823.9 715.8 824.9 718.9 825.9 721.6 826.6 723.4 827.3 724.9 828.1 726.2 828.8 727.2 829.3 727.7 829.8 728.1 830.3 728.3 830.8 728.5 831.3 728.5 831.8 728.3 832.3 728.1 832.8 727.7 833.3 727.2 833.8 726.6 834.5 725.4 835.3 724 836 722.3 836.8 720.4 837.8 717.5 838.8 714.2 840 709.7 841.5 703.9 843.7 694.6 846 685.5 847.5 679.8 848.7 675.5 849.7 672.4 850.7 669.7 851.4 667.9 852.2 666.3 852.9 665 853.7 664 854.2 663.5 854.7 663.2 855.2 662.9 855.7 662.8 856.2 662.8 856.7 662.9 857.2 663.2 857.7 663.5 858.2 664 858.6 664.6 859.4 665.8 860.1 667.2 860.9 669 861.6 670.9 862.6 673.8 863.6 677.1 864.9 681.6 866.3 687.4 868.6 696.6 870.8 705.8 872.3 711.5 873.6 715.8 874.5 718.9 875.5 721.6 876.3 723.4 877 724.9 877.8 726.2 878.5 727.2 879 727.7 879.5 728.1 880 728.3 880.5 728.5 881 728.5 881.5 728.3 882 728.1 882.5 727.7 883 727.2 883.5 726.6 884.2 725.4 885 724 885.7 722.3 886.5 720.4 887.5 717.5 888.5 714.2 889.7 709.7 891.2 703.9 893.4 694.6 895.7 685.5 897.2 679.8 898.4 675.5 899.4 672.4 900.4 669.7 901.1 667.9 901.9 666.3 902.6 665 903.4 664 903.9 663.5 904.4 663.2 904.9 662.9 905.4 662.8 905.9 662.8 906.3 662.9 906.8 663.2 907.3 663.5 907.8 664 908.3 664.6 909.1 665.8 909.8 667.2 910.6 669 911.3 670.9 912.3 673.8 913.3 677.1 914.5 681.6 916 687.4 918.3 696.6 920.5 705.8 922 711.5 923.2 715.8 924.2 718.9 925.2 721.6 926 723.4 926.7 724.9 927.5 726.2 928.2 727.2 928.7 727.7 929.2 728.1 929.7 728.3 930.2 728.5 930.7 728.5 931.2 728.3"/>
    <polyline class="st17" points="931.2 728.3 931.7 728.1 932.2 727.7 932.7 727.2 933.2 726.6 933.9 725.4 934.7 724 935.4 722.3 936.2 720.4 937.2 717.5 938.1 714.2 939.4 709.7 940.9 703.9 943.1 694.6 945.4 685.5 946.8 679.8 948.1 675.5 949.1 672.4 950.1 669.7 950.8 667.9 951.6 666.3 952.3 665 953.1 664 953.6 663.5 954 663.2 954.5 662.9 955 662.8 955.5 662.8 956 662.9 956.5 663.2 957 663.5 957.5 664 958 664.6 958.8 665.8 959.5 667.2 960.3 669 961 670.9 962 673.8 963 677.1 964.2 681.6 965.7 687.4 968 696.6 970.2 705.8 971.7 711.5 972.9 715.8 973.9 718.9 974.9 721.6 975.7 723.4 976.4 724.9 977.2 726.2 977.9 727.2 978.4 727.7 978.9 728.1 979.4 728.3 979.9 728.5 980.4 728.5 980.9 728.3 981.4 728.1 981.9 727.7 982.4 727.2 982.9 726.6 983.6 725.4 984.4 724 985.1 722.3 985.8 720.4 986.8 717.5 987.8 714.2 989.1 709.7 990.6 703.9 992.8 694.6 995 685.5 996.5 679.8 997.8 675.5 998.8 672.4 999.8 669.7 1000.5 667.9 1001.3 666.3 1002 665 1002.7 664 1003.2 663.5 1003.7 663.2 1004.2 662.9 1004.7 662.8 1005.2 662.8 1005.7 662.9 1006.2 663.2 1006.7 663.5 1007.2 664 1007.7 664.6 1008.5 665.8 1009.2 667.2 1009.9 669 1010.7 670.9 1011.7 673.8 1012.7 677.1 1013.9 681.6 1015.4 687.4 1017.6 696.6 1019.9 705.8 1021.4 711.5 1022.6 715.8 1023.6 718.9 1024.6 721.6 1025.4 723.4 1026.1 724.9 1026.8 726.2 1027.6 727.2 1028.1 727.7 1028.6 728.1 1029.1 728.3 1029.6 728.5 1030.1 728.5 1030.6 728.3 1031.1 728.1 1031.6 727.7 1032.1 727.2 1032.6 726.6 1033.3 725.4 1034 724 1034.8 722.3 1035.5 720.4 1036.5 717.5 1037.5 714.2 1038.8 709.7 1040.3 703.9 1042.5 694.6 1044.7 685.5 1046.2 679.8"/>
    <polyline class="st17" points="1046.2 679.8 1047.5 675.5 1048.5 672.4 1049.5 669.7 1050.2 667.9 1050.9 666.3 1051.7 665 1052.4 664 1052.9 663.5 1053.4 663.2 1053.9 662.9 1054.4 662.8 1054.9 662.8 1055.4 662.9 1055.9 663.2 1056.4 663.5 1056.9 664 1057.4 664.6 1058.1 665.8 1058.9 667.2 1059.6 669 1060.4 670.9 1061.4 673.8 1062.4 677.1 1063.6 681.6 1065.1 687.4 1066.8 694.6"/>
  </g>
  <g class="st49">
    <text class="st19" transform="translate(924.9 674.2)"><tspan x="0" y="0">×</tspan></text>
  </g>
  <g class="st50">
    <text class="st73" transform="translate(789.9 700.6)"><tspan x="0" y="0">∫</tspan></text>
  </g>
  <g class="st51">
    <text class="st19" transform="translate(919.3 607.8)"><tspan x="0" y="0">+</tspan></text>
  </g>
  <g class="st52">
    <path class="st9" d="M805.7,568.7h.5s.5-.1.5-.1h.5c0-.1.5-.3.5-.3l.5-.2.7-.5.7-.6.7-.7.7-.8.7-.9,1-1.3,1-1.4,1.2-2,1.5-2.5,5-8.5,1.2-1.9,1-1.4,1-1.2.7-.8.7-.7.7-.6.7-.5.5-.3.5-.2.5-.2h.5c0-.1.5-.2.5-.2h1c0,0,.5.2.5.2l.5.2.5.2.5.3.7.5.7.6.7.7.7.8,1,1.2,1,1.4,1.2,1.9,1.5,2.4,2.2,3.9,2.2,3.9,1.5,2.4,1.2,1.8,1,1.3,1,1.1.7.8.7.7.7.5.7.4.5.2.5.2h.5c0,.1.5.2.5.2h1c0,0,.5-.2.5-.2l.5-.2.5-.2.5-.3.7-.5.7-.6.7-.7.7-.8,1-1.2,1-1.4,1.2-1.9,1.5-2.4,2.2-3.9,2.2-3.9,1.5-2.4,1.2-1.8,1-1.3,1-1.1.7-.8.7-.7.7-.5.7-.4.5-.2.5-.2h.5c0-.1.5-.2.5-.2h1c0,0,.5.2.5.2l.5.2.5.2.5.3.7.5.7.6.7.7.7.8,1,1.2,1,1.4,1.2,1.9,1.5,2.4,2.2,3.9,2.2,3.9,1.5,2.4,1.2,1.8,1,1.3,1,1.1.7.8.7.7.7.5.7.4.5.2.5.2h.5c0,.1.5.2.5.2h1c0,0,.5-.2.5-.2l.5-.2.5-.2.5-.3.7-.5.7-.6.7-.7.7-.8,1-1.2,1-1.4,1.2-1.9,1.5-2.4,2.2-3.9,2.2-3.9,1.5-2.4,1.2-1.8,1-1.3,1-1.1.7-.8.7-.7.7-.5.7-.4.5-.2.5-.2h.5c0-.1.5-.2.5-.2h1c0,0,.5.2.5.2l.5.2.5.2.5.3.7.5.7.6.7.7.7.8,1,1.2,1,1.4,1.2,1.9,1.5,2.4,2.2,3.9,2.2,3.9,1.5,2.4,1.2,1.8,1,1.3,1,1.1.7.8.7.7.7.5.7.4.5.2.5.2h.5c0,.1.5.2.5.2h1c0,0,.5-.2.5-.2l.5-.2.5-.2.5-.3.7-.5.7-.6.7-.7.7-.8,1-1.2,1-1.4,1.2-1.9,1.5-2.4,2.2-3.9,2.2-3.9,1.5-2.4,1.2-1.8,1-1.3,1-1.1.7-.8.7-.7.7-.5.7-.4.5-.2.5-.2h.5c0-.1.5-.2.5-.2h1c0,0,.5.2.5.2l.5.2.5.2.5.3.7.5.7.6.7.7.7.8,1,1.2,1,1.4,1.2,1.9,1.5,2.4,2.2,3.9,2.2,3.9,1.5,2.4,1.2,1.8,1,1.3,1,1.1.7.8.7.7.7.5.7.4.5.2.5.2h.5c0,.1.5.2.5.2h1c0,0,.5-.2.5-.2l.5-.2.5-.2.5-.3.7-.5.7-.6.7-.7.7-.8,1-1.2,1-1.4,1.2-1.9,1.5-2.4,2.2-3.9,2.2-3.9,1.5-2.4,1.2-1.8,1-1.3,1-1.1.7-.8.7-.7.7-.5.7-.4.5-.2.5-.2h.5c0-.1.5-.2.5-.2h1c0,0,.5.2.5.2l.5.2.5.2.5.3.7.5.7.6.7.7.7.8,1,1.2,1,1.4,1.2,1.9,1.5,2.4,2.2,3.9,2.2,3.9,1.5,2.4,1.2,1.8,1,1.3,1,1.1.7.8.7.7.7.5.7.4.5.2.5.2h.5c0,.1.5.2.5.2"/>
  </g>
  <g class="st53">
    <text class="st19" transform="translate(924.9 804.1)"><tspan x="0" y="0">×</tspan></text>
  </g>
  <g class="st46">
    <text class="st75" transform="translate(780 858.1)"><tspan x="0" y="0">∫</tspan></text>
  </g>
  <g class="st44">
    <text class="st19" transform="translate(924.2 739.8)"><tspan x="0" y="0">+</tspan></text>
  </g>
  <g class="st47">
    <path class="st10" d="M816,505.2h.5s.5-.2.5-.2l.5-.2.5-.3.5-.3.7-.7.7-.8.7-1,.7-1.1.7-1.3.9-1.9.9-2.1,1.1-2.8,1.4-3.6,4.6-12.4,1.1-2.8.9-2,.9-1.8.7-1.2.7-1.1.7-.9.7-.7.5-.4.5-.3.5-.2.5-.2h.5c0,0,.5,0,.5,0h.5c0,0,.5.2.5.2l.5.2.5.3.5.4.7.7.7.9.7,1.1.7,1.2.9,1.8.9,2,1.1,2.8,1.4,3.6,2,5.7,2,5.6,1.4,3.5,1.1,2.7.9,1.9.9,1.7.7,1.1.7.9.7.8.7.6.5.3.5.2.5.2h.5c0,0,.5,0,.5,0h.5c0,0,.5-.2.5-.2l.5-.2.5-.3.5-.4.7-.7.7-.9.7-1.1.7-1.2.9-1.8.9-2,1.1-2.8,1.4-3.6,2-5.7,2-5.6,1.4-3.5,1.1-2.7.9-1.9.9-1.7.7-1.1.7-.9.7-.8.7-.6.5-.3.5-.2.5-.2h.5c0,0,.5,0,.5,0h.5c0,0,.5.2.5.2l.5.2.5.3.5.4.7.7.7.9.7,1.1.7,1.2.9,1.8.9,2,1.1,2.8,1.4,3.6,2,5.7,2,5.6,1.4,3.5,1.1,2.7.9,1.9.9,1.7.7,1.1.7.9.7.8.7.6.5.3.5.2.5.2h.5c0,0,.5,0,.5,0h.5c0,0,.5-.2.5-.2l.5-.2.5-.3.5-.4.7-.7.7-.9.7-1.1.7-1.2.9-1.8.9-2,1.1-2.8,1.4-3.6,2-5.7,2-5.6,1.4-3.5,1.1-2.7.9-1.9.9-1.7.7-1.1.7-.9.7-.8.7-.6.5-.3.5-.2.5-.2h.5c0,0,.5,0,.5,0h.5c0,0,.5.2.5.2l.5.2.5.3.5.4.7.7.7.9.7,1.1.7,1.2.9,1.8.9,2,1.1,2.8,1.4,3.6,2,5.7,2,5.6,1.4,3.5,1.1,2.7.9,1.9.9,1.7.7,1.1.7.9.7.8.7.6.5.3.5.2.5.2h.5c0,0,.5,0,.5,0h.5c0,0,.5-.2.5-.2l.5-.2.5-.3.5-.4.7-.7.7-.9.7-1.1.7-1.2.9-1.8.9-2,1.1-2.8,1.4-3.6,2-5.7,2-5.6,1.4-3.5,1.1-2.7.9-1.9.9-1.7.7-1.1.7-.9.7-.8.7-.6.5-.3.5-.2.5-.2h.5c0,0,.5,0,.5,0h.5c0,0,.5.2.5.2l.5.2.5.3.5.4.7.7.7.9.7,1.1.7,1.2.9,1.8.9,2,1.1,2.8,1.4,3.6,2,5.7,2,5.6,1.4,3.5,1.1,2.7.9,1.9.9,1.7.7,1.1.7.9.7.8.7.6.5.3.5.2.5.2h.5c0,0,.5,0,.5,0h.5c0,0,.5-.2.5-.2l.5-.2.5-.3.5-.4.7-.7.7-.9.7-1.1.7-1.2.9-1.8.9-2,1.1-2.8,1.4-3.6,2-5.7,2-5.6,1.4-3.5,1.1-2.7.9-1.9.9-1.7.7-1.1.7-.9.7-.8.7-.6.5-.3.5-.2.5-.2h.5c0,0,.5,0,.5,0h.5c0,0,.5.2.5.2l.5.2.5.3.5.4.7.7.7.9.7,1.1.7,1.2.9,1.8.9,2,1.1,2.8,1.4,3.6,2,5.7,2,5.6,1.4,3.5,1.1,2.7.9,1.9.9,1.7.7,1.1.7.9.7.8.7.6.5.3.5.2.5.2h.5"/>
  </g>
  <g class="st45">
    <path class="st10" d="M816,658.6h.5s.5-.2.5-.2l.5-.2.5-.3.5-.3.7-.7.7-.8.7-1,.7-1.1.7-1.3.9-1.9.9-2.1,1.1-2.8,1.4-3.6,4.6-12.4,1.1-2.8.9-2,.9-1.8.7-1.2.7-1.1.7-.9.7-.7.5-.4.5-.3.5-.2.5-.2h.5c0,0,.5,0,.5,0h.5c0,0,.5.2.5.2l.5.2.5.3.5.4.7.7.7.9.7,1.1.7,1.2.9,1.8.9,2,1.1,2.8,1.4,3.6,2,5.7,2,5.6,1.4,3.5,1.1,2.7.9,1.9.9,1.7.7,1.1.7.9.7.8.7.6.5.3.5.2.5.2h.5c0,0,.5,0,.5,0h.5c0,0,.5-.2.5-.2l.5-.2.5-.3.5-.4.7-.7.7-.9.7-1.1.7-1.2.9-1.8.9-2,1.1-2.8,1.4-3.6,2-5.7,2-5.6,1.4-3.5,1.1-2.7.9-1.9.9-1.7.7-1.1.7-.9.7-.8.7-.6.5-.3.5-.2.5-.2h.5c0,0,.5,0,.5,0h.5c0,0,.5.2.5.2l.5.2.5.3.5.4.7.7.7.9.7,1.1.7,1.2.9,1.8.9,2,1.1,2.8,1.4,3.6,2,5.7,2,5.6,1.4,3.5,1.1,2.7.9,1.9.9,1.7.7,1.1.7.9.7.8.7.6.5.3.5.2.5.2h.5c0,0,.5,0,.5,0h.5c0,0,.5-.2.5-.2l.5-.2.5-.3.5-.4.7-.7.7-.9.7-1.1.7-1.2.9-1.8.9-2,1.1-2.8,1.4-3.6,2-5.7,2-5.6,1.4-3.5,1.1-2.7.9-1.9.9-1.7.7-1.1.7-.9.7-.8.7-.6.5-.3.5-.2.5-.2h.5c0,0,.5,0,.5,0h.5c0,0,.5.2.5.2l.5.2.5.3.5.4.7.7.7.9.7,1.1.7,1.2.9,1.8.9,2,1.1,2.8,1.4,3.6,2,5.7,2,5.6,1.4,3.5,1.1,2.7.9,1.9.9,1.7.7,1.1.7.9.7.8.7.6.5.3.5.2.5.2h.5c0,0,.5,0,.5,0h.5c0,0,.5-.2.5-.2l.5-.2.5-.3.5-.4.7-.7.7-.9.7-1.1.7-1.2.9-1.8.9-2,1.1-2.8,1.4-3.6,2-5.7,2-5.6,1.4-3.5,1.1-2.7.9-1.9.9-1.7.7-1.1.7-.9.7-.8.7-.6.5-.3.5-.2.5-.2h.5c0,0,.5,0,.5,0h.5c0,0,.5.2.5.2l.5.2.5.3.5.4.7.7.7.9.7,1.1.7,1.2.9,1.8.9,2,1.1,2.8,1.4,3.6,2,5.7,2,5.6,1.4,3.5,1.1,2.7.9,1.9.9,1.7.7,1.1.7.9.7.8.7.6.5.3.5.2.5.2h.5c0,0,.5,0,.5,0h.5c0,0,.5-.2.5-.2l.5-.2.5-.3.5-.4.7-.7.7-.9.7-1.1.7-1.2.9-1.8.9-2,1.1-2.8,1.4-3.6,2-5.7,2-5.6,1.4-3.5,1.1-2.7.9-1.9.9-1.7.7-1.1.7-.9.7-.8.7-.6.5-.3.5-.2.5-.2h.5c0,0,.5,0,.5,0h.5c0,0,.5.2.5.2l.5.2.5.3.5.4.7.7.7.9.7,1.1.7,1.2.9,1.8.9,2,1.1,2.8,1.4,3.6,2,5.7,2,5.6,1.4,3.5,1.1,2.7.9,1.9.9,1.7.7,1.1.7.9.7.8.7.6.5.3.5.2.5.2h.5"/>
  </g>
  <g class="st40">
    <path class="st10" d="M816,796h.5s.5-.2.5-.2l.5-.2.5-.3.5-.3.7-.7.7-.8.7-1,.7-1.1.7-1.3.9-1.9.9-2.1,1.1-2.8,1.4-3.6,4.6-12.4,1.1-2.8.9-2,.9-1.8.7-1.2.7-1.1.7-.9.7-.7.5-.4.5-.3.5-.2.5-.2h.5c0,0,.5,0,.5,0h.5c0,0,.5.2.5.2l.5.2.5.3.5.4.7.7.7.9.7,1.1.7,1.2.9,1.8.9,2,1.1,2.8,1.4,3.6,2,5.7,2,5.6,1.4,3.5,1.1,2.7.9,1.9.9,1.7.7,1.1.7.9.7.8.7.6.5.3.5.2.5.2h.5c0,0,.5,0,.5,0h.5c0,0,.5-.2.5-.2l.5-.2.5-.3.5-.4.7-.7.7-.9.7-1.1.7-1.2.9-1.8.9-2,1.1-2.8,1.4-3.6,2-5.7,2-5.6,1.4-3.5,1.1-2.7.9-1.9.9-1.7.7-1.1.7-.9.7-.8.7-.6.5-.3.5-.2.5-.2h.5c0,0,.5,0,.5,0h.5c0,0,.5.2.5.2l.5.2.5.3.5.4.7.7.7.9.7,1.1.7,1.2.9,1.8.9,2,1.1,2.8,1.4,3.6,2,5.7,2,5.6,1.4,3.5,1.1,2.7.9,1.9.9,1.7.7,1.1.7.9.7.8.7.6.5.3.5.2.5.2h.5c0,0,.5,0,.5,0h.5c0,0,.5-.2.5-.2l.5-.2.5-.3.5-.4.7-.7.7-.9.7-1.1.7-1.2.9-1.8.9-2,1.1-2.8,1.4-3.6,2-5.7,2-5.6,1.4-3.5,1.1-2.7.9-1.9.9-1.7.7-1.1.7-.9.7-.8.7-.6.5-.3.5-.2.5-.2h.5c0,0,.5,0,.5,0h.5c0,0,.5.2.5.2l.5.2.5.3.5.4.7.7.7.9.7,1.1.7,1.2.9,1.8.9,2,1.1,2.8,1.4,3.6,2,5.7,2,5.6,1.4,3.5,1.1,2.7.9,1.9.9,1.7.7,1.1.7.9.7.8.7.6.5.3.5.2.5.2h.5c0,0,.5,0,.5,0h.5c0,0,.5-.2.5-.2l.5-.2.5-.3.5-.4.7-.7.7-.9.7-1.1.7-1.2.9-1.8.9-2,1.1-2.8,1.4-3.6,2-5.7,2-5.6,1.4-3.5,1.1-2.7.9-1.9.9-1.7.7-1.1.7-.9.7-.8.7-.6.5-.3.5-.2.5-.2h.5c0,0,.5,0,.5,0h.5c0,0,.5.2.5.2l.5.2.5.3.5.4.7.7.7.9.7,1.1.7,1.2.9,1.8.9,2,1.1,2.8,1.4,3.6,2,5.7,2,5.6,1.4,3.5,1.1,2.7.9,1.9.9,1.7.7,1.1.7.9.7.8.7.6.5.3.5.2.5.2h.5c0,0,.5,0,.5,0h.5c0,0,.5-.2.5-.2l.5-.2.5-.3.5-.4.7-.7.7-.9.7-1.1.7-1.2.9-1.8.9-2,1.1-2.8,1.4-3.6,2-5.7,2-5.6,1.4-3.5,1.1-2.7.9-1.9.9-1.7.7-1.1.7-.9.7-.8.7-.6.5-.3.5-.2.5-.2h.5c0,0,.5,0,.5,0h.5c0,0,.5.2.5.2l.5.2.5.3.5.4.7.7.7.9.7,1.1.7,1.2.9,1.8.9,2,1.1,2.8,1.4,3.6,2,5.7,2,5.6,1.4,3.5,1.1,2.7.9,1.9.9,1.7.7,1.1.7.9.7.8.7.6.5.3.5.2.5.2h.5"/>
  </g>
  <g class="st34">
    <polyline class="st14" points="810.7 814.4 811 814.5 811.2 814.9 811.5 815.6 811.7 816.4 812 817.6 812.5 820.6 813 824.5 813.5 829 814.2 836.7 816.2 858.4 816.7 863 817.2 867 817.7 870.1 817.9 871.3 818.2 872.3 818.4 873.1 818.7 873.6 818.9 873.8 819.2 873.8 819.4 873.4 819.7 872.9 819.9 872 820.2 871 820.7 868.1 821.2 864.5 821.7 860.1 822.4 852.4 824.6 828.3 825.1 823.9 825.6 820.2 826.1 817.4 826.4 816.3 826.6 815.5 826.9 814.9 827.1 814.6 827.4 814.6 827.6 814.8 827.9 815.3 828.1 816 828.4 817 828.9 819.7 829.4 823.2 829.9 827.5 830.6 835.1 833.1 861.6 833.6 865.8 834.1 869.2 834.6 871.7 834.8 872.6 835.1 873.3 835.3 873.7 835.6 873.8 835.8 873.7 836.1 873.3 836.3 872.6 836.6 871.7 836.8 870.5 837.3 867.5 837.8 863.7 838.3 859.2 839.1 851.4 841 829.8 841.5 825.1 842 821.2 842.5 818.1 842.8 816.8 843 815.8 843.3 815.1 843.5 814.6 843.8 814.4 844 814.4 844.3 814.7 844.5 815.3 844.8 816.1 845 817.2 845.5 820 846 823.7 846.5 828.1 847.3 835.7 849.5 859.8 850 864.2 850.5 867.9 851 870.8 851.2 871.8 851.5 872.7 851.7 873.2 852 873.5 852.2 873.5 852.5 873.3 852.7 872.8 853 872.1 853.2 871.1 853.7 868.4 854.2 864.9 854.7 860.6 855.5 853.1 857.9 826.5 858.4 822.3 858.9 818.9 859.4 816.4 859.7 815.5 859.9 814.8 860.2 814.4 860.4 814.3 860.7 814.4 860.9 814.8 861.2 815.5 861.4 816.4 861.7 817.6 862.2 820.6 862.7 824.4 863.2 828.9 863.9 836.7 865.9 858.3 866.4 863 866.9 866.9 867.4 870 867.6 871.3 867.9 872.3 868.1 873 868.4 873.5 868.6 873.7 868.9 873.7 869.1 873.4 869.4 872.8 869.6 872 869.9 870.9"/>
    <polyline class="st14" points="869.9 870.9 870.4 868.1 870.9 864.4 871.4 860 872.1 852.4 874.3 828.3 874.8 823.9 875.3 820.2 875.8 817.3 876.1 816.3 876.3 815.4 876.6 814.9 876.8 814.6 877.1 814.6 877.3 814.7 877.6 815.2 877.8 815.9 878.1 816.9 878.6 819.6 879.1 823.2 879.5 827.5 880.3 835 882.8 861.6 883.3 865.8 883.8 869.2 884.3 871.7 884.5 872.6 884.8 873.2 885 873.6 885.3 873.7 885.5 873.6 885.8 873.2 886 872.6 886.3 871.7 886.5 870.5 887 867.5 887.5 863.6 888 859.1 888.7 851.4 890.7 829.7 891.2 825.1 891.7 821.1 892.2 818 892.5 816.8 892.7 815.8 893 815.1 893.2 814.6 893.5 814.3 893.7 814.3 894 814.7 894.2 815.2 894.5 816.1 894.7 817.1 895.2 820 895.7 823.6 896.2 828 896.9 835.7 899.2 859.8 899.7 864.2 900.2 867.9 900.7 870.7 900.9 871.8 901.2 872.6 901.4 873.2 901.7 873.4 901.9 873.4 902.2 873.3 902.4 872.8 902.7 872 902.9 871 903.4 868.4 903.9 864.8 904.4 860.5 905.1 853 907.6 826.4 908.1 822.2 908.6 818.8 909.1 816.3 909.4 815.4 909.6 814.8 909.9 814.4 910.1 814.3 910.4 814.4 910.6 814.8 910.9 815.4 911.1 816.3 911.3 817.5 911.8 820.5 912.3 824.4 912.8 828.9 913.6 836.6 915.6 858.3 916.1 862.9 916.6 866.9 917.1 870 917.3 871.2 917.6 872.2 917.8 872.9 918.1 873.4 918.3 873.7 918.6 873.7 918.8 873.3 919.1 872.8 919.3 871.9 919.5 870.9 920 868 920.5 864.4 921 860 921.8 852.3 924 828.2 924.5 823.8 925 820.1 925.5 817.3 925.8 816.2 926 815.4 926.3 814.8 926.5 814.5 926.8 814.5 927 814.7 927.2 815.2 927.5 815.9 927.7 816.9 928.2 819.6 928.7 823.1 929.2 827.4 930 834.9 932.5 861.5 933 865.7"/>
    <polyline class="st14" points="933 865.7 933.5 869.1 934 871.6 934.2 872.5 934.5 873.2 934.7 873.6 935 873.7 935.2 873.6 935.4 873.2 935.7 872.5 935.9 871.6 936.2 870.4 936.7 867.4 937.2 863.6 937.7 859.1 938.4 851.3 940.4 829.6 940.9 825 941.4 821.1 941.9 817.9 942.2 816.7 942.4 815.7 942.7 815 942.9 814.5 943.2 814.3 943.4 814.3 943.6 814.6 943.9 815.2 944.1 816 944.4 817.1 944.9 819.9 945.4 823.6 945.9 828 946.6 835.6 948.9 859.7 949.4 864.1 949.9 867.8 950.4 870.7 950.6 871.7 950.9 872.6 951.1 873.1 951.3 873.4 951.6 873.4 951.8 873.2 952.1 872.7 952.3 872 952.6 871 953.1 868.3 953.6 864.8 954.1 860.5 954.8 852.9 957.3 826.4 957.8 822.2 958.3 818.8 958.8 816.3 959.1 815.4 959.3 814.7 959.5 814.3 959.8 814.2 960 814.3 960.3 814.7 960.5 815.4 960.8 816.3 961 817.4 961.5 820.5 962 824.3 962.5 828.8 963.3 836.6 965.3 858.2 965.8 862.9 966.3 866.8 966.8 869.9 967 871.2 967.2 872.2 967.5 872.9 967.7 873.4 968 873.6 968.2 873.6 968.5 873.3 968.7 872.7 969 871.9 969.2 870.8 969.7 868 970.2 864.3 970.7 859.9 971.5 852.3 973.7 828.1 974.2 823.7 974.7 820.1 975.2 817.2 975.4 816.2 975.7 815.3 975.9 814.8 976.2 814.4 976.4 814.4 976.7 814.6 976.9 815.1 977.2 815.8 977.4 816.8 977.9 819.5 978.4 823.1 978.9 827.4 979.7 834.9 982.2 861.5 982.7 865.6 983.1 869 983.6 871.5 983.9 872.4 984.1 873.1 984.4 873.5 984.6 873.6 984.9 873.5 985.1 873.1 985.4 872.4 985.6 871.5 985.9 870.4 986.4 867.4 986.9 863.5 987.4 859 988.1 851.3 990.1 829.6 990.6 825 991.1 821 991.6 817.9 991.8 816.7 992.1 815.7 992.3 814.9 992.6 814.4"/>
    <polyline class="st14" points="992.6 814.4 992.8 814.2 993.1 814.2 993.3 814.6 993.6 815.1 993.8 815.9 994.1 817 994.6 819.8 995.1 823.5 995.6 827.9 996.3 835.6 998.6 859.7 999 864.1 999.5 867.8 1000 870.6 1000.3 871.7 1000.5 872.5 1000.8 873.1 1001 873.3 1001.3 873.3 1001.5 873.2 1001.8 872.7 1002 871.9 1002.3 870.9 1002.8 868.3 1003.3 864.7 1003.8 860.4 1004.5 852.9 1007 826.3 1007.5 822.1 1008 818.7 1008.5 816.2 1008.7 815.3 1009 814.7 1009.2 814.3 1009.5 814.2 1009.7 814.3 1010 814.7 1010.2 815.3 1010.5 816.2 1010.7 817.4 1011.2 820.4 1011.7 824.2 1012.2 828.8 1013 836.5 1014.9 858.2 1015.4 862.8 1015.9 866.8 1016.4 869.9 1016.7 871.1 1016.9 872.1 1017.2 872.8 1017.4 873.3 1017.7 873.6 1017.9 873.6 1018.2 873.2 1018.4 872.7 1018.7 871.8 1018.9 870.8 1019.4 867.9 1019.9 864.2 1020.4 859.8 1021.2 852.2 1023.4 828.1 1023.9 823.7 1024.4 820 1024.9 817.2 1025.1 816.1 1025.4 815.3 1025.6 814.7 1025.9 814.4 1026.1 814.4 1026.4 814.6 1026.6 815.1 1026.9 815.8 1027.1 816.8 1027.6 819.5 1028.1 823 1028.6 827.3 1029.4 834.8 1031.8 861.4 1032.3 865.6 1032.8 869 1033.3 871.5 1033.6 872.4 1033.8 873.1 1034.1 873.4 1034.3 873.6 1034.6 873.4 1034.8 873.1 1035.1 872.4 1035.3 871.5 1035.6 870.3 1036.1 867.3 1036.6 863.5 1037.1 859 1037.8 851.2 1039.8 829.5 1040.3 824.9 1040.8 821 1041.3 817.8 1041.5 816.6 1041.8 815.6 1042 814.9 1042.3 814.4 1042.5 814.2 1042.8 814.2 1043 814.5 1043.3 815.1 1043.5 815.9 1043.8 816.9 1044.3 819.8 1044.8 823.5 1045.3 827.9 1046 835.5 1048.2 859.6 1048.7 864 1049.2 867.7 1049.7 870.5 1050 871.6 1050.2 872.4 1050.5 873 1050.7 873.3 1051 873.3 1051.2 873.1 1051.5 872.6 1051.7 871.9 1052 870.9"/>
    <polyline class="st14" points="1052 870.9 1052.5 868.2 1053 864.6 1053.5 860.3 1054.2 852.8 1056.7 826.3 1057.2 822.1 1057.7 818.7 1058.2 816.2 1058.4 815.3 1058.7 814.6 1058.9 814.2"/>
  </g>
  <g class="st35">
    <text class="st19" transform="translate(929 952.4)"><tspan x="0" y="0">×</tspan></text>
  </g>
  <g class="st36">
    <text class="st72" transform="translate(784.9 1010.2)"><tspan x="0" y="0">∫</tspan></text>
  </g>
  <g class="st37">
    <path class="st10" d="M820.1,944.3h.5s.5-.2.5-.2l.5-.2.5-.3.5-.3.7-.7.7-.8.7-1,.7-1.1.7-1.3.9-1.9.9-2.1,1.1-2.8,1.4-3.6,4.6-12.4,1.1-2.8.9-2,.9-1.8.7-1.2.7-1.1.7-.9.7-.7.5-.4.5-.3.5-.2.5-.2h.5c0,0,.5,0,.5,0h.5c0,0,.5.2.5.2l.5.2.5.3.5.4.7.7.7.9.7,1.1.7,1.2.9,1.8.9,2,1.1,2.8,1.4,3.6,2,5.7,2,5.6,1.4,3.5,1.1,2.7.9,1.9.9,1.7.7,1.1.7.9.7.8.7.6.5.3.5.2.5.2h.5c0,0,.5,0,.5,0h.5c0,0,.5-.2.5-.2l.5-.2.5-.3.5-.4.7-.7.7-.9.7-1.1.7-1.2.9-1.8.9-2,1.1-2.8,1.4-3.6,2-5.7,2-5.6,1.4-3.5,1.1-2.7.9-1.9.9-1.7.7-1.1.7-.9.7-.8.7-.6.5-.3.5-.2.5-.2h.5c0,0,.5,0,.5,0h.5c0,0,.5.2.5.2l.5.2.5.3.5.4.7.7.7.9.7,1.1.7,1.2.9,1.8.9,2,1.1,2.8,1.4,3.6,2,5.7,2,5.6,1.4,3.5,1.1,2.7.9,1.9.9,1.7.7,1.1.7.9.7.8.7.6.5.3.5.2.5.2h.5c0,0,.5,0,.5,0h.5c0,0,.5-.2.5-.2l.5-.2.5-.3.5-.4.7-.7.7-.9.7-1.1.7-1.2.9-1.8.9-2,1.1-2.8,1.4-3.6,2-5.7,2-5.6,1.4-3.5,1.1-2.7.9-1.9.9-1.7.7-1.1.7-.9.7-.8.7-.6.5-.3.5-.2.5-.2h.5c0,0,.5,0,.5,0h.5c0,0,.5.2.5.2l.5.2.5.3.5.4.7.7.7.9.7,1.1.7,1.2.9,1.8.9,2,1.1,2.8,1.4,3.6,2,5.7,2,5.6,1.4,3.5,1.1,2.7.9,1.9.9,1.7.7,1.1.7.9.7.8.7.6.5.3.5.2.5.2h.5c0,0,.5,0,.5,0h.5c0,0,.5-.2.5-.2l.5-.2.5-.3.5-.4.7-.7.7-.9.7-1.1.7-1.2.9-1.8.9-2,1.1-2.8,1.4-3.6,2-5.7,2-5.6,1.4-3.5,1.1-2.7.9-1.9.9-1.7.7-1.1.7-.9.7-.8.7-.6.5-.3.5-.2.5-.2h.5c0,0,.5,0,.5,0h.5c0,0,.5.2.5.2l.5.2.5.3.5.4.7.7.7.9.7,1.1.7,1.2.9,1.8.9,2,1.1,2.8,1.4,3.6,2,5.7,2,5.6,1.4,3.5,1.1,2.7.9,1.9.9,1.7.7,1.1.7.9.7.8.7.6.5.3.5.2.5.2h.5c0,0,.5,0,.5,0h.5c0,0,.5-.2.5-.2l.5-.2.5-.3.5-.4.7-.7.7-.9.7-1.1.7-1.2.9-1.8.9-2,1.1-2.8,1.4-3.6,2-5.7,2-5.6,1.4-3.5,1.1-2.7.9-1.9.9-1.7.7-1.1.7-.9.7-.8.7-.6.5-.3.5-.2.5-.2h.5c0,0,.5,0,.5,0h.5c0,0,.5.2.5.2l.5.2.5.3.5.4.7.7.7.9.7,1.1.7,1.2.9,1.8.9,2,1.1,2.8,1.4,3.6,2,5.7,2,5.6,1.4,3.5,1.1,2.7.9,1.9.9,1.7.7,1.1.7.9.7.8.7.6.5.3.5.2.5.2h.5"/>
  </g>
  <g class="st38">
    <text class="st19" transform="translate(928.8 893.2)"><tspan x="0" y="0">×</tspan></text>
  </g>
  <g class="st41">
    <polyline class="st2" points="820.1 996.4 821.3 986.9 822 982 822.5 979.4 822.9 977.4 823.2 976.6 823.4 976 823.7 975.6 823.9 975.4 824.1 975.4 824.4 975.5 824.6 975.9 824.8 976.4 825.1 977.1 825.6 979 826 981.5 826.5 984.6 827.2 989.9 829.6 1008.8 830.1 1011.8 830.5 1014.2 831 1016 831.3 1016.6 831.5 1017.1 831.7 1017.3 832 1017.4 832.2 1017.3 832.4 1017.1 832.7 1016.6 832.9 1016 833.2 1015.1 833.6 1013 834.1 1010.3 834.6 1007 835.3 1001.5 837.2 986.2 837.7 982.9 838.1 980.1 838.6 977.8 838.9 977 839.1 976.3 839.3 975.7 839.6 975.4 839.8 975.2 840 975.2 840.3 975.5 840.5 975.9 840.8 976.5 841 977.2 841.5 979.2 841.9 981.8 842.4 985 843.1 990.4 845.3 1007.5 845.7 1010.6 846.2 1013.3 846.7 1015.3 846.9 1016 847.2 1016.6 847.4 1017 847.6 1017.2 847.9 1017.2 848.1 1017.1 848.4 1016.7 848.6 1016.2 848.8 1015.5 849.3 1013.6 849.8 1011.1 850.3 1008 851 1002.7 853.3 983.8 853.8 980.8 854.3 978.4 854.8 976.7 855 976 855.2 975.5 855.5 975.3 855.7 975.2 856 975.3 856.2 975.5 856.4 976 856.7 976.7 856.9 977.5 857.4 979.6 857.9 982.4 858.3 985.6 859 991.1 860.9 1006.5 861.4 1009.7 861.9 1012.5 862.4 1014.8 862.6 1015.6 862.8 1016.3 863.1 1016.9 863.3 1017.2 863.5 1017.4 863.8 1017.4 864 1017.1 864.3 1016.7 864.5 1016.1 864.7 1015.4 865.2 1013.4 865.7 1010.8 866.2 1007.6 866.9 1002.2 869 985.1 869.5 982 870 979.3 870.4 977.3 870.7 976.6 870.9 976 871.1 975.6 871.4 975.3 871.6 975.3 871.9 975.5 872.1 975.8 872.3 976.3 872.6 977 873 978.9 873.5 981.5 874 984.5 874.7 989.9 877.1 1008.7 877.6 1011.7 878 1014.1 878.5 1015.9 878.7 1016.5 879 1017"/>
    <polyline class="st2" points="879 1017 879.2 1017.3 879.5 1017.4 879.7 1017.3 879.9 1017 880.2 1016.5 880.4 1015.9 880.6 1015.1 881.1 1012.9 881.6 1010.2 882.1 1007 882.8 1001.5 884.7 986.1 885.2 982.8 885.6 980 886.1 977.8 886.3 976.9 886.6 976.2 886.8 975.7 887.1 975.3 887.3 975.2 887.5 975.2 887.8 975.4 888 975.8 888.2 976.4 888.5 977.2 889 979.2 889.4 981.8 889.9 984.9 890.6 990.3 892.8 1007.5 893.2 1010.6 893.7 1013.2 894.2 1015.2 894.4 1016 894.7 1016.6 894.9 1017 895.1 1017.2 895.4 1017.2 895.6 1017.1 895.8 1016.7 896.1 1016.2 896.3 1015.5 896.8 1013.6 897.3 1011 897.7 1008 898.5 1002.7 900.8 983.8 901.3 980.8 901.8 978.4 902.3 976.6 902.5 976 902.7 975.5 903 975.2 903.2 975.1 903.4 975.2 903.7 975.5 903.9 976 904.2 976.6 904.4 977.4 904.9 979.6 905.3 982.3 905.8 985.5 906.5 991 908.4 1006.4 908.9 1009.7 909.4 1012.5 909.9 1014.7 910.1 1015.6 910.3 1016.3 910.6 1016.8 910.8 1017.2 911 1017.3 911.3 1017.3 911.5 1017.1 911.8 1016.7 912 1016.1 912.2 1015.4 912.7 1013.3 913.2 1010.7 913.7 1007.6 914.4 1002.2 916.5 985 917 981.9 917.5 979.3 917.9 977.3 918.2 976.5 918.4 975.9 918.6 975.5 918.9 975.3 919.1 975.3 919.4 975.4 919.6 975.8 919.8 976.3 920.1 977 920.5 978.9 921 981.4 921.5 984.5 922.2 989.8 924.6 1008.7 925 1011.7 925.5 1014.1 926 1015.9 926.2 1016.5 926.5 1017 926.7 1017.3 926.9 1017.3 927.2 1017.3 927.4 1017 927.7 1016.5 927.9 1015.9 928.1 1015 928.6 1012.9 929.1 1010.2 929.6 1007 930.3 1001.5 932.2 986.1 932.6 982.8 933.1 980 933.6 977.8 933.8 976.9 934.1 976.2 934.3 975.7 934.5 975.3 934.8 975.1 935 975.1 935.3 975.4 935.5 975.8"/>
    <polyline class="st2" points="935.5 975.8 935.7 976.4 936 977.1 936.4 979.1 936.9 981.8 937.4 984.9 938.1 990.3 940.2 1007.4 940.7 1010.6 941.2 1013.2 941.7 1015.2 941.9 1016 942.1 1016.5 942.4 1016.9 942.6 1017.1 942.9 1017.1 943.1 1017 943.3 1016.7 943.6 1016.1 943.8 1015.4 944.3 1013.5 944.8 1011 945.2 1008 945.9 1002.6 948.3 983.7 948.8 980.8 949.3 978.4 949.7 976.6 950 975.9 950.2 975.5 950.5 975.2 950.7 975.1 950.9 975.2 951.2 975.5 951.4 975.9 951.6 976.6 951.9 977.4 952.4 979.5 952.8 982.3 953.3 985.5 954 991 955.9 1006.4 956.4 1009.7 956.9 1012.5 957.3 1014.7 957.6 1015.6 957.8 1016.3 958.1 1016.8 958.3 1017.1 958.5 1017.3 958.8 1017.3 959 1017.1 959.2 1016.7 959.5 1016.1 959.7 1015.3 960.2 1013.3 960.7 1010.7 961.1 1007.6 961.9 1002.1 964 985 964.5 981.9 964.9 979.3 965.4 977.2 965.7 976.5 965.9 975.9 966.1 975.5 966.4 975.3 966.6 975.3 966.8 975.4 967.1 975.7 967.3 976.3 967.6 977 968 978.9 968.5 981.4 969 984.4 969.7 989.8 972.1 1008.7 972.5 1011.6 973 1014.1 973.5 1015.8 973.7 1016.5 974 1016.9 974.2 1017.2 974.4 1017.3 974.7 1017.2 974.9 1016.9 975.2 1016.5 975.4 1015.8 975.6 1015 976.1 1012.9 976.6 1010.1 977.1 1006.9 977.8 1001.4 979.7 986 980.1 982.7 980.6 979.9 981.1 977.7 981.3 976.9 981.6 976.1 981.8 975.6 982 975.3 982.3 975.1 982.5 975.1 982.7 975.3 983 975.7 983.2 976.3 983.5 977.1 983.9 979.1 984.4 981.7 984.9 984.8 985.6 990.3 987.7 1007.4 988.2 1010.5 988.7 1013.1 989.2 1015.2 989.4 1015.9 989.6 1016.5 989.9 1016.9 990.1 1017.1 990.3 1017.1 990.6 1017 990.8 1016.6 991.1 1016.1 991.3 1015.4 991.8 1013.5 992.2 1011 992.7 1007.9 993.4 1002.6"/>
    <polyline class="st2" points="993.4 1002.6 995.8 983.7 996.3 980.7 996.8 978.3 997.2 976.5 997.5 975.9 997.7 975.4 997.9 975.1 998.2 975.1 998.4 975.1 998.7 975.4 998.9 975.9 999.1 976.5 999.4 977.4 999.8 979.5 1000.3 982.2 1000.8 985.4 1001.5 990.9 1003.4 1006.3 1003.9 1009.6 1004.4 1012.4 1004.8 1014.6 1005.1 1015.5 1005.3 1016.2 1005.5 1016.7 1005.8 1017.1 1006 1017.3 1006.3 1017.3 1006.5 1017 1006.7 1016.6 1007 1016 1007.2 1015.3 1007.7 1013.3 1008.2 1010.6 1008.6 1007.5 1009.3 1002.1 1011.5 985 1012 981.8 1012.4 979.2 1012.9 977.2 1013.1 976.5 1013.4 975.9 1013.6 975.5 1013.9 975.2 1014.1 975.2 1014.3 975.3 1014.6 975.7 1014.8 976.2 1015 976.9 1015.5 978.8 1016 981.4 1016.5 984.4 1017.2 989.8 1019.6 1008.6 1020 1011.6 1020.5 1014 1021 1015.8 1021.2 1016.4 1021.5 1016.9 1021.7 1017.2 1021.9 1017.3 1022.2 1017.2 1022.4 1016.9 1022.6 1016.4 1022.9 1015.8 1023.1 1015 1023.6 1012.8 1024.1 1010.1 1024.5 1006.9 1025.3 1001.4 1027.2 986 1027.6 982.7 1028.1 979.9 1028.6 977.7 1028.8 976.8 1029.1 976.1 1029.3 975.6 1029.5 975.2 1029.8 975.1 1030 975.1 1030.2 975.3 1030.5 975.7 1030.7 976.3 1031 977 1031.4 979.1 1031.9 981.7 1032.4 984.8 1033.1 990.2 1035.2 1007.4 1035.7 1010.5 1036.2 1013.1 1036.7 1015.1 1036.9 1015.9 1037.1 1016.5 1037.4 1016.9 1037.6 1017.1 1037.8 1017.1 1038.1 1016.9 1038.3 1016.6 1038.6 1016.1 1038.8 1015.4 1039.3 1013.5 1039.7 1010.9 1040.2 1007.9 1040.9 1002.5 1043.3 983.7 1043.8 980.7 1044.2 978.3 1044.7 976.5 1045 975.9 1045.2 975.4 1045.4 975.1 1045.7 975 1045.9 975.1 1046.1 975.4 1046.4 975.9 1046.6 976.5 1046.9 977.3 1047.3 979.5 1047.8 982.2 1048.3 985.4 1049 990.9 1050.9 1006.3 1051.4 1009.6 1051.8 1012.4 1052.3 1014.6 1052.6 1015.5 1052.8 1016.2"/>
    <polyline class="st2" points="1052.8 1016.2 1053 1016.7 1053.3 1017.1 1053.5 1017.2 1053.7 1017.2 1054 1017 1054.2 1016.6 1054.5 1016 1054.7 1015.2 1055.2 1013.2 1055.6 1010.6 1056.1 1007.5 1056.8 1002.1 1057.3 998.2"/>
  </g>
  <g class="st42">
    <polygon class="st61" points="685.1 735.2 685.1 760.5 728.7 728.6 685.1 696.8 685.1 722 652.1 722 652.1 735.2 685.1 735.2"/>
    <polygon class="st61" points="1290.3 687.7 1290.3 712.9 1333.9 681.1 1290.3 649.3 1290.3 674.5 1257.3 674.5 1257.3 687.7 1290.3 687.7"/>
    <text class="st21" transform="translate(1234.6 926.1)"><tspan x="0" y="0">c) Contribution of other subcarriers vanish to ze</tspan><tspan class="st77" x="424.5" y="0">r</tspan><tspan x="430.8" y="0">o </tspan><tspan class="st77" x="447.8" y="0">r</tspan><tspan x="454.1" y="0">esulting in the </tspan></text>
    <text class="st21" transform="translate(1234.6 947.8)"><tspan x="0" y="0">amplitude of the subcarrier f</tspan><tspan class="st77" x="251.9" y="0">r</tspan><tspan x="258.2" y="0">om the </tspan><tspan class="st77" x="326" y="0">r</tspan><tspan x="332.4" y="0">eceived signal. </tspan></text>
  </g>
  <g class="st43">
    <text class="st19" transform="translate(1501.8 541.3)"><tspan x="0" y="0">×</tspan></text>
  </g>
  <g class="st39">
    <text class="st73" transform="translate(1366.7 567.7)"><tspan x="0" y="0">∫</tspan></text>
  </g>
  <g class="st59">
    <text class="st19" transform="translate(1501.1 618.1)"><tspan x="0" y="0">+</tspan></text>
  </g>
  <g class="st54">
    <path class="st7" d="M1387.5,580.3h.5s.5,0,.5,0h.5c0-.1.5-.3.5-.3l.5-.2.7-.4.7-.5.7-.5.7-.6.7-.7,1-1.1,1-1.2,1.2-1.6,1.5-2,5-6.9,1.2-1.5,1-1.1,1-1,.7-.7.7-.6.7-.5.7-.4.5-.2.5-.2h.5c0-.1.5-.2.5-.2h.5s.5,0,.5,0h.5s.5.1.5.1h.5c0,.1.5.3.5.3l.5.2.7.4.7.5.7.6.7.7,1,1,1,1.1,1.2,1.5,1.5,2,2.2,3.1,2.2,3.1,1.5,1.9,1.2,1.5,1,1.1,1,.9.7.6.7.5.7.4.7.3.5.2h.5c0,.1.5.2.5.2h.5s.5,0,.5,0h.5s.5-.1.5-.1h.5c0-.1.5-.3.5-.3l.5-.2.7-.4.7-.5.7-.6.7-.7,1-1,1-1.1,1.2-1.5,1.5-2,2.2-3.1,2.2-3.1,1.5-1.9,1.2-1.5,1-1.1,1-.9.7-.6.7-.5.7-.4.7-.3.5-.2h.5c0-.1.5-.2.5-.2h.5s.5,0,.5,0h.5s.5.1.5.1h.5c0,.1.5.3.5.3l.5.2.7.4.7.5.7.6.7.7,1,1,1,1.1,1.2,1.5,1.5,2,2.2,3.1,2.2,3.1,1.5,1.9,1.2,1.5,1,1.1,1,.9.7.6.7.5.7.4.7.3.5.2h.5c0,.1.5.2.5.2h.5s.5,0,.5,0h.5s.5-.1.5-.1h.5c0-.1.5-.3.5-.3l.5-.2.7-.4.7-.5.7-.6.7-.7,1-1,1-1.1,1.2-1.5,1.5-2,2.2-3.1,2.2-3.1,1.5-1.9,1.2-1.5,1-1.1,1-.9.7-.6.7-.5.7-.4.7-.3.5-.2h.5c0-.1.5-.2.5-.2h.5s.5,0,.5,0h.5s.5.1.5.1h.5c0,.1.5.3.5.3l.5.2.7.4.7.5.7.6.7.7,1,1,1,1.1,1.2,1.5,1.5,2,2.2,3.1,2.2,3.1,1.5,1.9,1.2,1.5,1,1.1,1,.9.7.6.7.5.7.4.7.3.5.2h.5c0,.1.5.2.5.2h.5s.5,0,.5,0h.5s.5-.1.5-.1h.5c0-.1.5-.3.5-.3l.5-.2.7-.4.7-.5.7-.6.7-.7,1-1,1-1.1,1.2-1.5,1.5-2,2.2-3.1,2.2-3.1,1.5-1.9,1.2-1.5,1-1.1,1-.9.7-.6.7-.5.7-.4.7-.3.5-.2h.5c0-.1.5-.2.5-.2h.5s.5,0,.5,0h.5s.5.1.5.1h.5c0,.1.5.3.5.3l.5.2.7.4.7.5.7.6.7.7,1,1,1,1.1,1.2,1.5,1.5,2,2.2,3.1,2.2,3.1,1.5,1.9,1.2,1.5,1,1.1,1,.9.7.6.7.5.7.4.7.3.5.2h.5c0,.1.5.2.5.2h.5s.5,0,.5,0h.5s.5-.1.5-.1h.5c0-.1.5-.3.5-.3l.5-.2.7-.4.7-.5.7-.6.7-.7,1-1,1-1.1,1.2-1.5,1.5-2,2.2-3.1,2.2-3.1,1.5-1.9,1.2-1.5,1-1.1,1-.9.7-.6.7-.5.7-.4.7-.3.5-.2h.5c0-.1.5-.2.5-.2h.5s.5,0,.5,0h.5s.5.1.5.1h.5c0,.1.5.3.5.3l.5.2.7.4.7.5.7.6.7.7,1,1,1,1.1,1.2,1.5,1.5,2,2.2,3.1,2.2,3.1,1.5,1.9,1.2,1.5,1,1.1,1,.9.7.6.7.5.7.4.7.3.5.2h.5c0,.1.5.2.5.2h.5"/>
  </g>
  <g class="st55">
    <path class="st10" d="M1397.9,515.5h.5s.5-.2.5-.2l.5-.2.5-.3.5-.3.7-.7.7-.8.7-1,.7-1.1.7-1.3.9-1.9.9-2.1,1.1-2.8,1.4-3.6,4.6-12.4,1.1-2.8.9-2,.9-1.8.7-1.2.7-1.1.7-.9.7-.7.5-.4.5-.3.5-.2.5-.2h.5c0,0,.5,0,.5,0h.5c0,0,.5.2.5.2l.5.2.5.3.5.4.7.7.7.9.7,1.1.7,1.2.9,1.8.9,2,1.1,2.8,1.4,3.6,2,5.7,2,5.6,1.4,3.5,1.1,2.7.9,1.9.9,1.7.7,1.1.7.9.7.8.7.6.5.3.5.2.5.2h.5c0,0,.5,0,.5,0h.5c0,0,.5-.2.5-.2l.5-.2.5-.3.5-.4.7-.7.7-.9.7-1.1.7-1.2.9-1.8.9-2,1.1-2.8,1.4-3.6,2-5.7,2-5.6,1.4-3.5,1.1-2.7.9-1.9.9-1.7.7-1.1.7-.9.7-.8.7-.6.5-.3.5-.2.5-.2h.5c0,0,.5,0,.5,0h.5c0,0,.5.2.5.2l.5.2.5.3.5.4.7.7.7.9.7,1.1.7,1.2.9,1.8.9,2,1.1,2.8,1.4,3.6,2,5.7,2,5.6,1.4,3.5,1.1,2.7.9,1.9.9,1.7.7,1.1.7.9.7.8.7.6.5.3.5.2.5.2h.5c0,0,.5,0,.5,0h.5c0,0,.5-.2.5-.2l.5-.2.5-.3.5-.4.7-.7.7-.9.7-1.1.7-1.2.9-1.8.9-2,1.1-2.8,1.4-3.6,2-5.7,2-5.6,1.4-3.5,1.1-2.7.9-1.9.9-1.7.7-1.1.7-.9.7-.8.7-.6.5-.3.5-.2.5-.2h.5c0,0,.5,0,.5,0h.5c0,0,.5.2.5.2l.5.2.5.3.5.4.7.7.7.9.7,1.1.7,1.2.9,1.8.9,2,1.1,2.8,1.4,3.6,2,5.7,2,5.6,1.4,3.5,1.1,2.7.9,1.9.9,1.7.7,1.1.7.9.7.8.7.6.5.3.5.2.5.2h.5c0,0,.5,0,.5,0h.5c0,0,.5-.2.5-.2l.5-.2.5-.3.5-.4.7-.7.7-.9.7-1.1.7-1.2.9-1.8.9-2,1.1-2.8,1.4-3.6,2-5.7,2-5.6,1.4-3.5,1.1-2.7.9-1.9.9-1.7.7-1.1.7-.9.7-.8.7-.6.5-.3.5-.2.5-.2h.5c0,0,.5,0,.5,0h.5c0,0,.5.2.5.2l.5.2.5.3.5.4.7.7.7.9.7,1.1.7,1.2.9,1.8.9,2,1.1,2.8,1.4,3.6,2,5.7,2,5.6,1.4,3.5,1.1,2.7.9,1.9.9,1.7.7,1.1.7.9.7.8.7.6.5.3.5.2.5.2h.5c0,0,.5,0,.5,0h.5c0,0,.5-.2.5-.2l.5-.2.5-.3.5-.4.7-.7.7-.9.7-1.1.7-1.2.9-1.8.9-2,1.1-2.8,1.4-3.6,2-5.7,2-5.6,1.4-3.5,1.1-2.7.9-1.9.9-1.7.7-1.1.7-.9.7-.8.7-.6.5-.3.5-.2.5-.2h.5c0,0,.5,0,.5,0h.5c0,0,.5.2.5.2l.5.2.5.3.5.4.7.7.7.9.7,1.1.7,1.2.9,1.8.9,2,1.1,2.8,1.4,3.6,2,5.7,2,5.6,1.4,3.5,1.1,2.7.9,1.9.9,1.7.7,1.1.7.9.7.8.7.6.5.3.5.2.5.2h.5"/>
  </g>
  <g class="st56">
    <text class="st19" transform="translate(1501.1 721.7)"><tspan x="0" y="0">+</tspan></text>
  </g>
  <g class="st57">
    <text class="st19" transform="translate(1501.1 812.5)"><tspan x="0" y="0">+</tspan></text>
  </g>
  <g class="st58">
    <text class="st23" transform="translate(1499.8 688.5)"><tspan x="0" y="0">0</tspan></text>
    <text class="st23" transform="translate(1499.8 772.7)"><tspan x="0" y="0">0</tspan></text>
    <text class="st23" transform="translate(1499.8 873.1)"><tspan x="0" y="0">0</tspan></text>
    <polygon class="st61" points="1754.6 677.5 1754.6 702.7 1798.2 670.9 1754.6 639.1 1754.6 664.3 1721.6 664.3 1721.6 677.5 1754.6 677.5"/>
  </g>
  <g class="st60">
    <path class="st8" d="M1884,683.6h.5s.5,0,.5,0h.5c0-.1.5-.3.5-.3l.5-.2.7-.4.7-.5.7-.6.7-.7.7-.8,1-1.2,1-1.3,1.2-1.8,1.5-2.3,5-7.8,1.2-1.8,1-1.3,1-1.1.7-.7.7-.7.7-.6.7-.5.5-.2.5-.2h.5c0-.1.5-.2.5-.2h.5s.5,0,.5,0h.5s.5.1.5.1h.5c0,.1.5.3.5.3l.5.2.7.5.7.6.7.7.7.7,1,1.1,1,1.3,1.2,1.8,1.5,2.3,2.2,3.6,2.2,3.6,1.5,2.2,1.2,1.7,1,1.2,1,1.1.7.7.7.6.7.5.7.4.5.2h.5c0,.1.5.2.5.2h.5s.5,0,.5,0h.5s.5-.1.5-.1h.5c0-.1.5-.3.5-.3l.5-.2.7-.5.7-.6.7-.7.7-.7,1-1.1,1-1.3,1.2-1.8,1.5-2.3,2.2-3.6,2.2-3.6,1.5-2.2,1.2-1.7,1-1.2,1-1.1.7-.7.7-.6.7-.5.7-.4.5-.2h.5c0-.1.5-.2.5-.2h.5s.5,0,.5,0h.5s.5.1.5.1h.5c0,.1.5.3.5.3l.5.2.7.5.7.6.7.7.7.7,1,1.1,1,1.3,1.2,1.8,1.5,2.3,2.2,3.6,2.2,3.6,1.5,2.2,1.2,1.7,1,1.2,1,1.1.7.7.7.6.7.5.7.4.5.2h.5c0,.1.5.2.5.2h.5s.5,0,.5,0h.5s.5-.1.5-.1h.5c0-.1.5-.3.5-.3l.5-.2.7-.5.7-.6.7-.7.7-.7,1-1.1,1-1.3,1.2-1.8,1.5-2.3,2.2-3.6,2.2-3.6,1.5-2.2,1.2-1.7,1-1.2,1-1.1.7-.7.7-.6.7-.5.7-.4.5-.2h.5c0-.1.5-.2.5-.2h.5s.5,0,.5,0h.5s.5.1.5.1h.5c0,.1.5.3.5.3l.5.2.7.5.7.6.7.7.7.7,1,1.1,1,1.3,1.2,1.8,1.5,2.3,2.2,3.6,2.2,3.6,1.5,2.2,1.2,1.7,1,1.2,1,1.1.7.7.7.6.7.5.7.4.5.2h.5c0,.1.5.2.5.2h.5s.5,0,.5,0h.5s.5-.1.5-.1h.5c0-.1.5-.3.5-.3l.5-.2.7-.5.7-.6.7-.7.7-.7,1-1.1,1-1.3,1.2-1.8,1.5-2.3,2.2-3.6,2.2-3.6,1.5-2.2,1.2-1.7,1-1.2,1-1.1.7-.7.7-.6.7-.5.7-.4.5-.2h.5c0-.1.5-.2.5-.2h.5s.5,0,.5,0h.5s.5.1.5.1h.5c0,.1.5.3.5.3l.5.2.7.5.7.6.7.7.7.7,1,1.1,1,1.3,1.2,1.8,1.5,2.3,2.2,3.6,2.2,3.6,1.5,2.2,1.2,1.7,1,1.2,1,1.1.7.7.7.6.7.5.7.4.5.2h.5c0,.1.5.2.5.2h.5s.5,0,.5,0h.5s.5-.1.5-.1h.5c0-.1.5-.3.5-.3l.5-.2.7-.5.7-.6.7-.7.7-.7,1-1.1,1-1.3,1.2-1.8,1.5-2.3,2.2-3.6,2.2-3.6,1.5-2.2,1.2-1.7,1-1.2,1-1.1.7-.7.7-.6.7-.5.7-.4.5-.2h.5c0-.1.5-.2.5-.2h.5s.5,0,.5,0h.5s.5.1.5.1h.5c0,.1.5.3.5.3l.5.2.7.5.7.6.7.7.7.7,1,1.1,1,1.3,1.2,1.8,1.5,2.3,2.2,3.6,2.2,3.6,1.5,2.2,1.2,1.7,1,1.2,1,1.1.7.7.7.6.7.5.7.4.5.2h.5c0,.1.5.2.5.2h.5"/>
  </g>
  <g>
    <text class="st22" transform="translate(165.6 124.7)"><tspan x="0" y="0">01</tspan></text>
    <text class="st22" transform="translate(165.6 231.6)"><tspan x="0" y="0">11</tspan></text>
    <text class="st22" transform="translate(165.6 320.4)"><tspan x="0" y="0">11</tspan></text>
    <text class="st22" transform="translate(165.6 409.3)"><tspan x="0" y="0">10</tspan></text>
  </g>
</svg>