<?xml version="1.0" encoding="UTF-8"?>
<svg id="Ebene_1" xmlns="http://www.w3.org/2000/svg" xmlns:xlink="http://www.w3.org/1999/xlink" version="1.1" viewBox="0 0 720 360">
  <!-- Generator: Adobe Illustrator 29.4.0, SVG Export Plug-In . SVG Version: 2.1.0 Build 152)  -->
  <defs>
    <style>
      .st0, .st1, .st2, .st3, .st4, .st5, .st6 {
        fill: none;
      }

      .st1 {
        stroke: #2e7a85;
      }

      .st1, .st2, .st7, .st3, .st5, .st6 {
        stroke-linejoin: round;
      }

      .st1, .st2, .st3, .st4 {
        stroke-linecap: square;
      }

      .st1, .st3, .st5, .st6 {
        stroke-width: 1.5px;
      }

      .st8 {
        fill: #fff;
        isolation: isolate;
        opacity: .8;
        stroke: #ccc;
      }

      .st2 {
        stroke: #b0b0b0;
      }

      .st2, .st7, .st4 {
        stroke-width: .8px;
      }

      .st9 {
        clip-path: url(#clippath-11);
      }

      .st10 {
        clip-path: url(#clippath-10);
      }

      .st11 {
        clip-path: url(#clippath-13);
      }

      .st12 {
        clip-path: url(#clippath-14);
      }

      .st13 {
        clip-path: url(#clippath-12);
      }

      .st14 {
        clip-path: url(#clippath-1);
      }

      .st15 {
        clip-path: url(#clippath-3);
      }

      .st16 {
        clip-path: url(#clippath-4);
      }

      .st17 {
        clip-path: url(#clippath-2);
      }

      .st18 {
        clip-path: url(#clippath-7);
      }

      .st19 {
        clip-path: url(#clippath-6);
      }

      .st20 {
        clip-path: url(#clippath-9);
      }

      .st21 {
        clip-path: url(#clippath-8);
      }

      .st22 {
        clip-path: url(#clippath-5);
      }

      .st7, .st4 {
        stroke: #000;
      }

      .st3 {
        stroke: #69bfcb;
      }

      .st5 {
        stroke: #4cacbb;
      }

      .st5, .st6 {
        stroke-dasharray: 5.6 2.4;
      }

      .st23 {
        clip-path: url(#clippath);
      }

      .st6 {
        stroke: #97d6dd;
      }
    </style>
    <clipPath id="clippath">
      <rect class="st0" x="46.6" y="25.4" width="662.6" height="292.6"/>
    </clipPath>
    <clipPath id="clippath-1">
      <rect class="st0" x="46.6" y="25.4" width="662.6" height="292.6"/>
    </clipPath>
    <clipPath id="clippath-2">
      <rect class="st0" x="46.6" y="25.4" width="662.6" height="292.6"/>
    </clipPath>
    <clipPath id="clippath-3">
      <rect class="st0" x="46.6" y="25.4" width="662.6" height="292.6"/>
    </clipPath>
    <clipPath id="clippath-4">
      <rect class="st0" x="46.6" y="25.4" width="662.6" height="292.6"/>
    </clipPath>
    <clipPath id="clippath-5">
      <rect class="st0" x="46.6" y="25.4" width="662.6" height="292.6"/>
    </clipPath>
    <clipPath id="clippath-6">
      <rect class="st0" x="46.6" y="25.4" width="662.6" height="292.6"/>
    </clipPath>
    <clipPath id="clippath-7">
      <rect class="st0" x="46.6" y="25.4" width="662.6" height="292.6"/>
    </clipPath>
    <clipPath id="clippath-8">
      <rect class="st0" x="46.6" y="25.4" width="662.6" height="292.6"/>
    </clipPath>
    <clipPath id="clippath-9">
      <rect class="st0" x="46.6" y="25.4" width="662.6" height="292.6"/>
    </clipPath>
    <clipPath id="clippath-10">
      <rect class="st0" x="46.6" y="25.4" width="662.6" height="292.6"/>
    </clipPath>
    <clipPath id="clippath-11">
      <rect class="st0" x="46.6" y="25.4" width="662.6" height="292.6"/>
    </clipPath>
    <clipPath id="clippath-12">
      <rect class="st0" x="46.6" y="25.4" width="662.6" height="292.6"/>
    </clipPath>
    <clipPath id="clippath-13">
      <rect class="st0" x="46.6" y="25.4" width="662.6" height="292.6"/>
    </clipPath>
    <clipPath id="clippath-14">
      <rect class="st0" x="46.6" y="25.4" width="662.6" height="292.6"/>
    </clipPath>
  </defs>
  <g id="figure_1">
    <g id="axes_1">
      <g id="matplotlib.axis_1">
        <g id="xtick_1">
          <g id="line2d_1">
            <g class="st23">
              <path class="st2" d="M76.8,318V25.4"/>
            </g>
          </g>
          <g id="line2d_2">
            <path id="m8d8891d899" class="st7" d="M76.8,318v3.5"/>
          </g>
          <g id="text_1">
            <g>
              <path id="DejaVuSans-30" d="M72,326c-.5,0-.9.3-1.1.8-.3.5-.4,1.3-.4,2.3s0,1.7.4,2.2.6.8,1.1.8.9-.3,1.2-.8c.3-.5.4-1.2.4-2.2s0-1.8-.4-2.3-.6-.8-1.2-.8ZM72,325.2c.8,0,1.4.3,1.9,1,.4.6.6,1.6.6,2.8s-.2,2.2-.6,2.8c-.4.6-1.1,1-1.9,1s-1.4-.3-1.9-1c-.4-.6-.6-1.6-.6-2.8s.2-2.2.6-2.8c.4-.6,1.1-1,1.9-1Z"/>
              <path id="DejaVuSans-2e" d="M76.2,331.4h1v1.2h-1v-1.2Z"/>
              <path id="DejaVuSans-301" d="M81.5,326c-.5,0-.9.3-1.1.8-.3.5-.4,1.3-.4,2.3s0,1.7.4,2.2.6.8,1.1.8.9-.3,1.2-.8c.3-.5.4-1.2.4-2.2s0-1.8-.4-2.3-.6-.8-1.2-.8ZM81.5,325.2c.8,0,1.4.3,1.9,1,.4.6.6,1.6.6,2.8s-.2,2.2-.6,2.8c-.4.6-1.1,1-1.9,1s-1.4-.3-1.9-1c-.4-.6-.6-1.6-.6-2.8s.2-2.2.6-2.8c.4-.6,1.1-1,1.9-1Z"/>
            </g>
          </g>
        </g>
        <g id="xtick_2">
          <g id="line2d_3">
            <g class="st14">
              <path class="st2" d="M197.3,318V25.4"/>
            </g>
          </g>
          <g id="line2d_4">
            <path id="m8d8891d8991" class="st7" d="M197.3,318v3.5"/>
          </g>
          <g id="text_2">
            <g>
              <path id="DejaVuSans-302" d="M192.6,326c-.5,0-.9.3-1.1.8-.3.5-.4,1.3-.4,2.3s.1,1.7.4,2.2c.3.5.6.8,1.1.8s.9-.3,1.2-.8.4-1.2.4-2.2-.1-1.8-.4-2.3c-.3-.5-.6-.8-1.2-.8ZM192.6,325.2c.8,0,1.4.3,1.9,1,.4.6.6,1.6.6,2.8s-.2,2.2-.6,2.8c-.4.6-1.1,1-1.9,1s-1.4-.3-1.9-1c-.4-.6-.6-1.6-.6-2.8s.2-2.2.6-2.8c.4-.6,1.1-1,1.9-1Z"/>
              <path id="DejaVuSans-2e1" d="M196.8,331.4h1v1.2h-1v-1.2Z"/>
              <path id="DejaVuSans-32" d="M200.9,331.8h3.4v.8h-4.6v-.8c.4-.4.9-.9,1.5-1.6s1.1-1.1,1.2-1.3c.3-.4.5-.7.7-.9.1-.2.2-.5.2-.7,0-.4-.1-.7-.4-.9-.3-.2-.6-.4-1.1-.4s-.6,0-1,.2c-.3.1-.7.3-1.1.5v-1c.4-.2.8-.3,1.1-.4.3,0,.7-.1.9-.1.8,0,1.4.2,1.8.6.4.4.7.9.7,1.5s0,.6-.2.9c-.1.3-.3.6-.6.9,0,0-.3.4-.8.8-.4.5-1.1,1.1-1.8,1.9h.1Z"/>
            </g>
          </g>
        </g>
        <g id="xtick_3">
          <g id="line2d_5">
            <g class="st17">
              <path class="st2" d="M317.9,318V25.4"/>
            </g>
          </g>
          <g id="line2d_6">
            <path id="m8d8891d8992" class="st7" d="M317.9,318v3.5"/>
          </g>
          <g id="text_3">
            <g>
              <path id="DejaVuSans-303" d="M313.2,326c-.5,0-.9.3-1.1.8-.3.5-.4,1.3-.4,2.3s.1,1.7.4,2.2.6.8,1.1.8.9-.3,1.2-.8c.3-.5.4-1.2.4-2.2s-.1-1.8-.4-2.3-.6-.8-1.2-.8ZM313.2,325.2c.8,0,1.4.3,1.9,1,.4.6.6,1.6.6,2.8s-.2,2.2-.6,2.8c-.4.6-1.1,1-1.9,1s-1.4-.3-1.9-1c-.4-.6-.6-1.6-.6-2.8s.2-2.2.6-2.8c.4-.6,1.1-1,1.9-1Z"/>
              <path id="DejaVuSans-2e2" d="M317.4,331.4h1v1.2h-1v-1.2Z"/>
              <path id="DejaVuSans-34" d="M323.3,326.2l-2.5,3.9h2.5v-3.9ZM323,325.3h1.2v4.8h1v.8h-1v1.7h-1v-1.7h-3.3v-1l3-4.6h0Z"/>
            </g>
          </g>
        </g>
        <g id="xtick_4">
          <g id="line2d_7">
            <g class="st15">
              <path class="st2" d="M438.5,318V25.4"/>
            </g>
          </g>
          <g id="line2d_8">
            <path id="m8d8891d8993" class="st7" d="M438.5,318v3.5"/>
          </g>
          <g id="text_4">
            <g>
              <path id="DejaVuSans-304" d="M433.7,326c-.5,0-.9.3-1.1.8-.3.5-.4,1.3-.4,2.3s.1,1.7.4,2.2.6.8,1.1.8.9-.3,1.2-.8c.3-.5.4-1.2.4-2.2s-.1-1.8-.4-2.3-.6-.8-1.2-.8ZM433.7,325.2c.8,0,1.4.3,1.9,1,.4.6.6,1.6.6,2.8s-.2,2.2-.6,2.8c-.4.6-1.1,1-1.9,1s-1.4-.3-1.9-1c-.4-.6-.6-1.6-.6-2.8s.2-2.2.6-2.8c.4-.6,1.1-1,1.9-1Z"/>
              <path id="DejaVuSans-2e3" d="M438,331.4h1v1.2h-1v-1.2Z"/>
              <path id="DejaVuSans-36" d="M443.4,328.6c-.4,0-.8.2-1.1.5-.3.3-.4.7-.4,1.2s.1.9.4,1.2c.3.3.6.5,1.1.5s.8-.2,1.1-.5c.3-.3.4-.7.4-1.2s-.1-.9-.4-1.2c-.3-.3-.6-.5-1.1-.5ZM445.4,325.5v.9c-.2-.1-.5-.2-.8-.3h-.8c-.7,0-1.1.2-1.5.7-.3.4-.5,1.1-.6,2,.2-.3.4-.5.7-.7.3-.2.6-.2,1-.2.7,0,1.3.2,1.7.7.4.4.6,1,.6,1.8s-.2,1.4-.7,1.8c-.4.5-1,.7-1.8.7s-1.5-.3-1.9-1c-.4-.6-.7-1.6-.7-2.8s.3-2.1.8-2.8c.5-.7,1.3-1,2.2-1s.5,0,.8,0,.5.1.8.2h.2Z"/>
            </g>
          </g>
        </g>
        <g id="xtick_5">
          <g id="line2d_9">
            <g class="st16">
              <path class="st2" d="M559.1,318V25.4"/>
            </g>
          </g>
          <g id="line2d_10">
            <path id="m8d8891d8994" class="st7" d="M559.1,318v3.5"/>
          </g>
          <g id="text_5">
            <g>
              <path id="DejaVuSans-305" d="M554.3,326c-.5,0-.9.3-1.1.8-.3.5-.4,1.3-.4,2.3s0,1.7.4,2.2c.3.5.6.8,1.1.8s.9-.3,1.2-.8.4-1.2.4-2.2,0-1.8-.4-2.3c-.3-.5-.6-.8-1.2-.8ZM554.3,325.2c.8,0,1.4.3,1.9,1,.4.6.6,1.6.6,2.8s-.2,2.2-.6,2.8c-.4.6-1.1,1-1.9,1s-1.4-.3-1.9-1c-.4-.6-.6-1.6-.6-2.8s.2-2.2.6-2.8c.4-.6,1.1-1,1.9-1Z"/>
              <path id="DejaVuSans-2e4" d="M558.6,331.4h1v1.2h-1v-1.2Z"/>
              <path id="DejaVuSans-38" d="M563.9,329.2c-.5,0-.8.1-1.1.4s-.4.6-.4,1,0,.8.4,1c.3.3.6.4,1.1.4s.8-.1,1.1-.4.4-.6.4-1,0-.8-.4-1c-.3-.3-.6-.4-1.1-.4ZM562.9,328.8c-.4-.1-.8-.3-1-.6-.2-.3-.4-.6-.4-1.1s.2-1,.6-1.4c.4-.3,1-.5,1.7-.5s1.3.2,1.7.5.6.8.6,1.4,0,.8-.4,1.1c-.2.3-.6.5-1,.6.5.1.8.3,1.1.7.3.3.4.7.4,1.2s-.2,1.3-.6,1.6c-.4.4-1,.6-1.9.6s-1.4-.2-1.9-.6c-.4-.4-.6-.9-.6-1.6s0-.9.4-1.2c.3-.3.6-.5,1.1-.7h.2ZM562.5,327.2c0,.4,0,.7.4.9.2.2.6.3,1,.3s.8-.1,1-.3c.2-.2.4-.5.4-.9s0-.7-.4-.9c-.2-.2-.6-.3-1-.3s-.8.1-1,.3c-.2.2-.4.5-.4.9Z"/>
            </g>
          </g>
        </g>
        <g id="xtick_6">
          <g id="line2d_11">
            <g class="st22">
              <path class="st2" d="M679.7,318V25.4"/>
            </g>
          </g>
          <g id="line2d_12">
            <path id="m8d8891d8995" class="st7" d="M679.7,318v3.5"/>
          </g>
          <g id="text_6">
            <g>
              <path id="DejaVuSans-31" d="M673,331.8h1.6v-5.6l-1.8.4v-.9l1.7-.4h1v6.5h1.6v.8h-4.2v-.8h.1Z"/>
              <path id="DejaVuSans-2e5" d="M679.2,331.4h1v1.2h-1v-1.2Z"/>
              <path id="DejaVuSans-306" d="M684.5,326c-.5,0-.9.3-1.1.8-.3.5-.4,1.3-.4,2.3s0,1.7.4,2.2c.3.5.6.8,1.1.8s.9-.3,1.2-.8.4-1.2.4-2.2,0-1.8-.4-2.3c-.3-.5-.6-.8-1.2-.8ZM684.5,325.2c.8,0,1.4.3,1.9,1,.4.6.6,1.6.6,2.8s-.2,2.2-.6,2.8c-.4.6-1.1,1-1.9,1s-1.4-.3-1.9-1c-.4-.6-.6-1.6-.6-2.8s.2-2.2.6-2.8c.4-.6,1.1-1,1.9-1Z"/>
            </g>
          </g>
        </g>
        <g id="text_7">
          <g>
            <path id="DejaVuSans-54" d="M357.6,339h6.2v.8h-2.6v6.5h-1v-6.5h-2.6v-.8Z"/>
            <path id="DejaVuSans-69" d="M364.3,340.8h.9v5.5h-.9v-5.5ZM364.3,338.7h.9v1.1h-.9v-1.1Z"/>
            <path id="DejaVuSans-6d" d="M371.4,341.9c.2-.4.5-.7.8-.9s.7-.3,1.1-.3,1,.2,1.3.6.5,1,.5,1.7v3.3h-.9v-3.3c0-.5,0-.9-.3-1.2-.2-.3-.5-.4-.8-.4s-.8.2-1.1.5c-.3.3-.4.7-.4,1.3v3.1h-.9v-3.3c0-.5,0-.9-.3-1.2s-.5-.4-.9-.4-.8.2-1.1.5c-.3.3-.4.7-.4,1.3v3.1h-.9v-5.5h.9v.9c.2-.3.5-.6.7-.7s.6-.2,1-.2.7.1,1,.3c.3.2.5.5.6.9h0Z"/>
            <path id="DejaVuSans-65" d="M381.5,343.4v.4h-4.1c0,.6.2,1.1.6,1.4.3.3.8.5,1.4.5s.7,0,1-.1.6-.2,1-.4v.9c-.3.1-.7.2-1,.3s-.7.1-1,.1c-.9,0-1.6-.3-2.1-.8s-.8-1.2-.8-2.1.2-1.6.7-2.1,1.1-.8,2-.8,1.3.2,1.7.7c.4.5.6,1.1.6,1.9h0ZM380.6,343.1c0-.5-.1-.9-.4-1.2-.3-.3-.6-.4-1.1-.4s-.9.1-1.2.4-.5.7-.5,1.2h3.2Z"/>
            <path id="DejaVuSans-20" d="M382.1,346.3"/>
            <path id="DejaVuSans-5b" d="M386.1,338.7h2.1v.7h-1.2v7.5h1.2v.7h-2.1v-8.9h0Z"/>
            <path id="DejaVuSans-73" d="M393.6,341v.9c-.3-.1-.5-.2-.8-.3h-.9c-.4,0-.8,0-1,.2-.2.1-.3.3-.3.6s0,.4.2.5.5.2,1,.3h.3c.6.2,1.1.4,1.4.6s.4.6.4,1-.2.9-.6,1.2c-.4.3-1,.4-1.7.4h-.9c-.3,0-.7-.1-1-.3v-.9c.3.2.7.3,1,.4.3,0,.6.1,1,.1s.7,0,1-.2c.2-.1.3-.3.3-.6s0-.4-.2-.6c-.2-.1-.5-.3-1.1-.4h-.3c-.6-.2-1-.4-1.2-.6s-.4-.6-.4-1,.2-.9.5-1.2c.4-.3.9-.4,1.6-.4h.9c.3,0,.6.1.8.2h0Z"/>
            <path id="DejaVuSans-5d" d="M397.4,338.7v8.9h-2.1v-.7h1.2v-7.5h-1.2v-.7h2.1Z"/>
          </g>
        </g>
      </g>
      <g id="matplotlib.axis_2">
        <g id="ytick_1">
          <g id="line2d_13">
            <g class="st19">
              <path class="st2" d="M46.6,278.1h662.6"/>
            </g>
          </g>
          <g id="line2d_14">
            <path id="m42e6338025" class="st7" d="M46.6,278.1h-3.5"/>
          </g>
          <g id="text_8">
            <g>
              <path id="DejaVuSans-2212" d="M26,278.4h6.3v.8h-6.3v-.8Z"/>
              <path id="DejaVuSans-321" d="M35.2,281.1h3.4v.8h-4.6v-.8c.4-.4.9-.9,1.5-1.6s1.1-1.1,1.2-1.3c.3-.4.5-.7.7-.9,0-.2.2-.5.2-.7,0-.4,0-.7-.4-.9-.3-.2-.6-.4-1.1-.4s-.6,0-1,.2c-.3.1-.7.3-1.1.5v-1c.4-.2.8-.3,1.1-.4.3,0,.7-.1.9-.1.8,0,1.4.2,1.8.6.4.4.7.9.7,1.5s0,.6-.2.9c0,.3-.3.6-.6.9,0,0-.3.4-.8.8-.4.5-1.1,1.1-1.8,1.9h0Z"/>
            </g>
          </g>
        </g>
        <g id="ytick_2">
          <g id="line2d_15">
            <g class="st18">
              <path class="st2" d="M46.6,224.9h662.6"/>
            </g>
          </g>
          <g id="line2d_16">
            <path id="m42e63380251" class="st7" d="M46.6,224.9h-3.5"/>
          </g>
          <g id="text_9">
            <g>
              <path id="DejaVuSans-22121" d="M26,225.2h6.3v.8h-6.3v-.8Z"/>
              <path id="DejaVuSans-311" d="M34.5,227.9h1.6v-5.6l-1.8.4v-.9l1.7-.4h1v6.5h1.6v.8h-4.2v-.8h.1Z"/>
            </g>
          </g>
        </g>
        <g id="ytick_3">
          <g id="line2d_17">
            <g class="st21">
              <path class="st2" d="M46.6,171.7h662.6"/>
            </g>
          </g>
          <g id="line2d_18">
            <path id="m42e63380252" class="st7" d="M46.6,171.7h-3.5"/>
          </g>
          <g id="text_10">
            <path id="DejaVuSans-307" d="M36.5,168.9c-.5,0-.9.3-1.1.8-.3.5-.4,1.3-.4,2.3s0,1.7.4,2.2c.3.5.6.8,1.1.8s.9-.3,1.2-.8.4-1.2.4-2.2,0-1.8-.4-2.3c-.3-.5-.6-.8-1.2-.8ZM36.5,168.1c.8,0,1.4.3,1.9,1,.4.6.6,1.6.6,2.8s-.2,2.2-.6,2.8c-.4.6-1.1,1-1.9,1s-1.4-.3-1.9-1c-.4-.6-.6-1.6-.6-2.8s.2-2.2.6-2.8c.4-.6,1.1-1,1.9-1Z"/>
          </g>
        </g>
        <g id="ytick_4">
          <g id="line2d_19">
            <g class="st20">
              <path class="st2" d="M46.6,118.5h662.6"/>
            </g>
          </g>
          <g id="line2d_20">
            <path id="m42e63380253" class="st7" d="M46.6,118.5h-3.5"/>
          </g>
          <g id="text_11">
            <path id="DejaVuSans-312" d="M34.5,121.5h1.6v-5.6l-1.8.4v-.9l1.7-.4h1v6.5h1.6v.8h-4.2v-.8h.1Z"/>
          </g>
        </g>
        <g id="ytick_5">
          <g id="line2d_21">
            <g class="st10">
              <path class="st2" d="M46.6,65.3h662.6"/>
            </g>
          </g>
          <g id="line2d_22">
            <path id="m42e63380254" class="st7" d="M46.6,65.3h-3.5"/>
          </g>
          <g id="text_12">
            <path id="DejaVuSans-322" d="M35.2,68.3h3.4v.8h-4.6v-.8c.4-.4.9-.9,1.5-1.6s1.1-1.1,1.2-1.3c.3-.4.5-.7.7-.9,0-.2.2-.5.2-.7,0-.4,0-.7-.4-.9-.3-.2-.6-.4-1.1-.4s-.6,0-1,.2c-.3,0-.7.3-1.1.5v-1c.4-.2.8-.3,1.1-.4.3,0,.7,0,.9,0,.8,0,1.4.2,1.8.6s.7.9.7,1.5,0,.6-.2.9c0,.3-.3.6-.6.9,0,0-.3.4-.8.8-.4.5-1.1,1.1-1.8,1.9h0Z"/>
          </g>
        </g>
        <g id="text_13">
          <g>
            <path id="DejaVuSans-41" d="M12.5,213.7l3.6,1.3v-2.7l-3.6,1.3h0ZM11.5,214.2v-1.1l7.3-2.8v1l-1.9.7v3.3l1.9.7v1l-7.3-2.8h0Z"/>
            <path id="DejaVuSans-6d1" d="M14.4,205c-.4-.2-.7-.5-.9-.8s-.3-.7-.3-1.1.2-1,.6-1.3c.4-.3,1-.5,1.7-.5h3.3v.9h-3.3c-.5,0-.9,0-1.2.3-.3.2-.4.5-.4.8s.2.8.5,1.1.7.4,1.3.4h3.1v.9h-3.3c-.5,0-.9,0-1.2.3s-.4.5-.4.9.2.8.5,1.1.7.4,1.3.4h3.1v.9h-5.5v-.9h.9c-.3-.2-.6-.5-.7-.7s-.2-.6-.2-1,.1-.7.3-1,.5-.5.9-.6h0Z"/>
            <path id="DejaVuSans-70" d="M18,198.7h2.9v.9h-7.5v-.9h.8c-.3-.2-.6-.4-.7-.7-.2-.3-.2-.6-.2-1,0-.7.3-1.2.8-1.6.5-.4,1.2-.6,2.1-.6s1.6.2,2.1.6c.5.4.8,1,.8,1.6s0,.7-.2,1-.4.5-.7.7h-.2ZM16.1,195.6c-.7,0-1.2.1-1.6.4s-.6.6-.6,1.1.2.9.6,1.1.9.4,1.6.4,1.2-.1,1.6-.4c.4-.3.6-.6.6-1.1s-.2-.8-.6-1.1-.9-.4-1.6-.4Z"/>
            <path id="DejaVuSans-6c" d="M11.2,193.2v-.9h7.6v.9s-7.6,0-7.6,0Z"/>
            <path id="DejaVuSans-691" d="M13.3,190.4v-.9h5.5v.9s-5.5,0-5.5,0ZM11.2,190.4v-.9h1.1v.9h-1.1Z"/>
            <path id="DejaVuSans-74" d="M11.8,186.8h1.6v-1.9h.7v1.9h3c.4,0,.7,0,.9-.2s.2-.4.2-.7v-.9h.8v.9c0,.7-.1,1.2-.4,1.4-.3.3-.7.4-1.4.4h-3v.7h-.7v-.7h-1.6v-.9h-.1Z"/>
            <path id="DejaVuSans-75" d="M16.7,183.8h-3.3v-.9h3.3c.5,0,.9-.1,1.2-.3.3-.2.4-.5.4-.9s-.2-.9-.5-1.1c-.3-.3-.7-.4-1.3-.4h-3.1v-.9h5.5v.9h-.8c.3.2.6.5.7.8.2.3.2.6.2,1,0,.6-.2,1.1-.6,1.4-.4.3-1,.5-1.7.5h0ZM13.2,181.6h0Z"/>
            <path id="DejaVuSans-64" d="M14.2,173.8h-3v-.9h7.6v.9h-.8c.3.2.6.4.7.7.2.3.2.6.2,1,0,.7-.3,1.2-.8,1.6-.5.4-1.2.6-2.1.6s-1.6-.2-2.1-.6c-.5-.4-.8-1-.8-1.6s0-.8.2-1c.2-.3.4-.5.7-.7h.2ZM16.1,176.8c.7,0,1.2-.1,1.6-.4.4-.3.6-.6.6-1.1s-.2-.8-.6-1.1-.9-.4-1.6-.4-1.2.1-1.6.4c-.4.3-.6.6-.6,1.1s.2.8.6,1.1.9.4,1.6.4Z"/>
            <path id="DejaVuSans-651" d="M15.9,166.4h.4v4.1c.6,0,1.1-.2,1.4-.6.3-.3.5-.8.5-1.4s0-.7-.1-1-.2-.6-.4-1h.9c.1.3.2.7.3,1s.1.7.1,1c0,.9-.3,1.6-.8,2.1s-1.2.8-2.1.8-1.6-.2-2.1-.7-.8-1.1-.8-2,.2-1.3.7-1.7,1.1-.6,1.9-.6h.1ZM15.6,167.3c-.5,0-.9.1-1.2.4-.3.3-.4.6-.4,1.1s.1.9.4,1.2.7.5,1.2.5v-3.2Z"/>
            <path id="DejaVuSans-201" d="M18.8,165.8"/>
            <path id="DejaVuSans-28" d="M11.2,159.6c.7.4,1.5.8,2.2,1s1.5.3,2.2.3,1.5-.1,2.2-.3,1.5-.5,2.2-1v.8c-.8.5-1.5.9-2.3,1.1-.7.2-1.5.4-2.2.4s-1.5-.1-2.2-.4c-.7-.2-1.5-.6-2.3-1.1v-.8h.2Z"/>
            <path id="DejaVuSans-6f" d="M14,155.7c0,.5.2.9.6,1.1s.9.4,1.5.4,1.2-.1,1.5-.4c.4-.3.6-.7.6-1.1s-.2-.9-.6-1.1c-.4-.3-.9-.4-1.5-.4s-1.2.1-1.5.4c-.4.3-.6.7-.6,1.1ZM13.2,155.7c0-.8.3-1.4.8-1.8.5-.4,1.2-.7,2.1-.7s1.6.2,2.1.7c.5.4.8,1.1.8,1.8s-.3,1.4-.8,1.8c-.5.4-1.2.7-2.1.7s-1.6-.2-2.1-.7c-.5-.4-.8-1.1-.8-1.8Z"/>
            <path id="DejaVuSans-66" d="M11.2,148.9h.7v.9c0,.3,0,.5.2.7.1.1.4.2.7.2h.5v-1.5h.7v1.5h4.8v.9h-4.8v.9h-.7v-.9h-.4c-.6,0-1.1-.1-1.3-.4-.3-.3-.4-.7-.4-1.3v-.9h0Z"/>
            <path id="DejaVuSans-661" d="M11.2,145.4h.7v.9c0,.3,0,.5.2.7.1.1.4.2.7.2h.5v-1.5h.7v1.5h4.8v.9h-4.8v.9h-.7v-.9h-.4c-.6,0-1.1-.1-1.3-.4-.3-.3-.4-.7-.4-1.3v-.9h0Z"/>
            <path id="DejaVuSans-731" d="M13.5,141.2h.9c-.1.3-.2.5-.3.8v.9c0,.4,0,.8.2,1,.1.2.3.3.6.3s.4,0,.5-.2.2-.5.3-1v-.3c.2-.6.4-1.1.6-1.4s.6-.4,1-.4.9.2,1.2.6c.3.4.4,1,.4,1.7v.9c0,.3-.1.7-.3,1h-.9c.2-.3.3-.7.4-1,0-.3.1-.6.1-1s0-.7-.2-1c-.1-.2-.3-.3-.6-.3s-.4,0-.6.2c-.1.2-.3.5-.4,1.1v.3c-.2.6-.4,1-.6,1.2-.2.2-.6.4-1,.4s-.9-.2-1.2-.5c-.3-.4-.4-.9-.4-1.6v-.9c0-.3.1-.6.2-.8h.1Z"/>
            <path id="DejaVuSans-652" d="M15.9,134.8h.4v4.1c.6,0,1.1-.2,1.4-.6.3-.3.5-.8.5-1.4s0-.7-.1-1-.2-.6-.4-1h.9c.1.3.2.7.3,1s.1.7.1,1c0,.9-.3,1.6-.8,2.1s-1.2.8-2.1.8-1.6-.2-2.1-.7-.8-1.1-.8-2,.2-1.3.7-1.7,1.1-.6,1.9-.6h.1ZM15.6,135.7c-.5,0-.9.1-1.2.4-.3.3-.4.6-.4,1.1s.1.9.4,1.2.7.5,1.2.5v-3.2Z"/>
            <path id="DejaVuSans-741" d="M11.8,132.4h1.6v-1.9h.7v1.9h3c.4,0,.7,0,.9-.2s.2-.4.2-.7v-.9h.8v.9c0,.7-.1,1.2-.4,1.4-.3.3-.7.4-1.4.4h-3v.7h-.7v-.7h-1.6v-.9h-.1Z"/>
            <path id="DejaVuSans-29" d="M11.2,129.5v-.8c.8-.5,1.5-.9,2.3-1.1.7-.2,1.5-.4,2.2-.4s1.5,0,2.2.4c.7.2,1.5.6,2.3,1.1v.8c-.7-.4-1.5-.8-2.2-1s-1.5-.3-2.2-.3-1.5.1-2.2.3-1.5.5-2.2,1h-.2Z"/>
          </g>
        </g>
      </g>
      <g id="line2d_23">
        <g class="st9">
          <path class="st1" d="M76.8,145.1h1.2c0-.1,1.2-.4,1.2-.4l1.2-.5,1.2-.7,1.2-.9,1.8-1.8,1.8-2.2,1.8-2.6,1.8-3,1.8-3.4,2.4-5,2.4-5.5,3-7.5,3.6-9.6,12.1-32.6,3-7.3,2.4-5.3,2.4-4.7,1.8-3.1,1.8-2.8,1.8-2.3,1.8-1.9,1.2-1,1.2-.8,1.2-.6,1.2-.4,1.2-.2h1.2l1.2.2,1.2.4,1.2.6,1.2.8,1.2,1,1.8,1.9,1.8,2.3,1.8,2.8,1.8,3.1,2.4,4.7,2.4,5.3,3,7.3,3.6,9.4,5.4,14.9,5.4,14.8,3.6,9.2,3,7,2.4,5,2.4,4.4,1.8,2.9,1.8,2.5,1.8,2.1,1.8,1.6,1.2.8,1.2.6,1.2.4,1.2.2h1.2l1.2-.2,1.2-.4,1.2-.6,1.2-.8,1.2-1,1.8-1.9,1.8-2.3,1.8-2.8,1.8-3.1,2.4-4.7,2.4-5.3,3-7.3,3.6-9.4,5.4-14.9,5.4-14.8,3.6-9.2,3-7,2.4-5,2.4-4.4,1.8-2.9,1.8-2.5,1.8-2.1,1.8-1.6,1.2-.8,1.2-.6,1.2-.4,1.2-.2h1.2l1.2.2,1.2.4,1.2.6,1.2.8,1.2,1,1.8,1.9,1.8,2.3,1.8,2.8,1.8,3.1,2.4,4.7,2.4,5.3,3,7.3,3.6,9.4,5.4,14.9,5.4,14.8,3.6,9.2,3,7,2.4,5,2.4,4.4,1.8,2.9,1.8,2.5,1.8,2.1,1.8,1.6,1.2.8,1.2.6,1.2.4,1.2.2h1.2l1.2-.2,1.2-.4,1.2-.6,1.2-.8,1.2-1,1.8-1.9,1.8-2.3,1.8-2.8,1.8-3.1,2.4-4.7,2.4-5.3,3-7.3,3.6-9.4,5.4-14.9,5.4-14.8,3.6-9.2,3-7,2.4-5,2.4-4.4,1.8-2.9,1.8-2.5,1.8-2.1,1.8-1.6,1.2-.8,1.2-.6,1.2-.4,1.2-.2h1.2l1.2.2,1.2.4,1.2.6,1.2.8,1.2,1,1.8,1.9,1.8,2.3,1.8,2.8,1.8,3.1,2.4,4.7,2.4,5.3,3,7.3,3.6,9.4,5.4,14.9,5.4,14.8,3.6,9.2,3,7,2.4,5,2.4,4.4,1.8,2.9,1.8,2.5,1.8,2.1,1.8,1.6,1.2.8,1.2.6,1.2.4,1.2.2h1.2l1.2-.2,1.2-.4,1.2-.6,1.2-.8,1.2-1,1.8-1.9,1.8-2.3,1.8-2.8,1.8-3.1,2.4-4.7,2.4-5.3,3-7.3,3.6-9.4,5.4-14.9,5.4-14.8,3.6-9.2,3-7,2.4-5,2.4-4.4,1.8-2.9,1.8-2.5,1.8-2.1,1.8-1.6,1.2-.8,1.2-.6,1.2-.4,1.2-.2h1.2l1.2.2,1.2.4,1.2.6,1.2.8,1.2,1,1.8,1.9,1.8,2.3,1.8,2.8,1.8,3.1,2.4,4.7,2.4,5.3,3,7.3,3.6,9.4,5.4,14.9,5.4,14.8,3.6,9.2,3,7,2.4,5,2.4,4.4,1.8,2.9,1.8,2.5,1.8,2.1,1.8,1.6,1.2.8,1.2.6,1.2.4,1.2.2h1.2l1.2-.2,1.2-.4,1.2-.6,1.2-.8,1.2-1,1.8-1.9,1.8-2.3,1.8-2.8,1.8-3.1,2.4-4.7,2.4-5.3,3-7.3,3.6-9.4,5.4-14.9,5.4-14.8,3.6-9.2,3-7,2.4-5,2.4-4.4,1.8-2.9,1.8-2.5,1.8-2.1,1.8-1.6,1.2-.8,1.2-.6,1.2-.4,1.2-.2h1.2l1.2.2,1.2.4,1.2.6,1.2.8,1.2,1,1.8,1.9,1.8,2.3,1.8,2.8,1.8,3.1,2.4,4.7,2.4,5.3,3,7.3,3.6,9.4,5.4,14.9,5.4,14.8,3.6,9.2,3,7,2.4,5,2.4,4.4,1.8,2.9,1.8,2.5,1.8,2.1,1.8,1.6,1.2.8,1.2.6,1.2.4,1.2.2h0"/>
        </g>
      </g>
      <g id="line2d_24">
        <g class="st13">
          <path class="st5" d="M76.8,91.9l6,16.4,3.6,9.2,3,7,2.4,5,2.4,4.4,1.8,2.9,1.8,2.5,1.8,2.1,1.8,1.6,1.2.8,1.2.6,1.2.4,1.2.2h1.2l1.2-.2,1.2-.4,1.2-.6,1.2-.8,1.2-1,1.8-1.9,1.8-2.3,1.8-2.8,1.8-3.1,2.4-4.7,2.4-5.3,3-7.3,3.6-9.4,5.4-14.9,5.4-14.8,3.6-9.2,3-7,2.4-5,2.4-4.4,1.8-2.9,1.8-2.5,1.8-2.1,1.8-1.6,1.2-.8,1.2-.6,1.2-.4,1.2-.2h1.2l1.2.2,1.2.4,1.2.6,1.2.8,1.2,1,1.8,1.9,1.8,2.3,1.8,2.8,1.8,3.1,2.4,4.7,2.4,5.3,3,7.3,3.6,9.4,5.4,14.9,5.4,14.8,3.6,9.2,3,7,2.4,5,2.4,4.4,1.8,2.9,1.8,2.5,1.8,2.1,1.8,1.6,1.2.8,1.2.6,1.2.4,1.2.2h1.2l1.2-.2,1.2-.4,1.2-.6,1.2-.8,1.2-1,1.8-1.9,1.8-2.3,1.8-2.8,1.8-3.1,2.4-4.7,2.4-5.3,3-7.3,3.6-9.4,5.4-14.9,5.4-14.8,3.6-9.2,3-7,2.4-5,2.4-4.4,1.8-2.9,1.8-2.5,1.8-2.1,1.8-1.6,1.2-.8,1.2-.6,1.2-.4,1.2-.2h1.2l1.2.2,1.2.4,1.2.6,1.2.8,1.2,1,1.8,1.9,1.8,2.3,1.8,2.8,1.8,3.1,2.4,4.7,2.4,5.3,3,7.3,3.6,9.4,5.4,14.9,5.4,14.8,3.6,9.2,3,7,2.4,5,2.4,4.4,1.8,2.9,1.8,2.5,1.8,2.1,1.8,1.6,1.2.8,1.2.6,1.2.4,1.2.2h1.2l1.2-.2,1.2-.4,1.2-.6,1.2-.8,1.2-1,1.8-1.9,1.8-2.3,1.8-2.8,1.8-3.1,2.4-4.7,2.4-5.3,3-7.3,3.6-9.4,5.4-14.9,5.4-14.8,3.6-9.2,3-7,2.4-5,2.4-4.4,1.8-2.9,1.8-2.5,1.8-2.1,1.8-1.6,1.2-.8,1.2-.6,1.2-.4,1.2-.2h1.2l1.2.2,1.2.4,1.2.6,1.2.8,1.2,1,1.8,1.9,1.8,2.3,1.8,2.8,1.8,3.1,2.4,4.7,2.4,5.3,3,7.3,3.6,9.4,5.4,14.9,5.4,14.8,3.6,9.2,3,7,2.4,5,2.4,4.4,1.8,2.9,1.8,2.5,1.8,2.1,1.8,1.6,1.2.8,1.2.6,1.2.4,1.2.2h1.2l1.2-.2,1.2-.4,1.2-.6,1.2-.8,1.2-1,1.8-1.9,1.8-2.3,1.8-2.8,1.8-3.1,2.4-4.7,2.4-5.3,3-7.3,3.6-9.4,5.4-14.9,5.4-14.8,3.6-9.2,3-7,2.4-5,2.4-4.4,1.8-2.9,1.8-2.5,1.8-2.1,1.8-1.6,1.2-.8,1.2-.6,1.2-.4,1.2-.2h1.2l1.2.2,1.2.4,1.2.6,1.2.8,1.2,1,1.8,1.9,1.8,2.3,1.8,2.8,1.8,3.1,2.4,4.7,2.4,5.3,3,7.3,3.6,9.4,5.4,14.9,5.4,14.8,3.6,9.2,3,7,2.4,5,2.4,4.4,1.8,2.9,1.8,2.5,1.8,2.1,1.8,1.6,1.2.8,1.2.6,1.2.4,1.2.2h1.2l1.2-.2,1.2-.4,1.2-.6,1.2-.8,1.2-1,1.8-1.9,1.8-2.3,1.8-2.8,1.8-3.1,2.4-4.7,2.4-5.3,3-7.3,3.6-9.4,5.4-14.9,5.4-14.8,3.6-9.2,3-7,2.4-5,2.4-4.4,1.8-2.9,1.8-2.5,1.8-2.1,1.8-1.6,1.2-.8,1.2-.6,1.2-.4,1.2-.2h1.2l1.2.2,1.2.4,1.2.6,1.2.8,1.2,1,1.8,1.9,1.8,2.3,1.8,2.8,1.8,3.1,2.4,4.7,2.4,5.3,3,7.3,3.6,9.4,4.2,11.6h0"/>
        </g>
      </g>
      <g id="line2d_25">
        <g class="st11">
          <path class="st3" d="M76.8,198.3l.6.2.6.7.6,1.2.6,1.6.6,2.1,1.2,5.4,1.2,6.9,1.2,8.1,1.8,13.9,4.8,38.9,1.2,8.3,1.2,7.1,1.2,5.6.6,2.2.6,1.8.6,1.3.6.9.6.4h.6l.6-.6.6-1,.6-1.5.6-1.9,1.2-5.1,1.2-6.6,1.2-7.9,1.8-13.7,5.4-43.3,1.2-7.9,1.2-6.6,1.2-5.1.6-1.9.6-1.5.6-1,.6-.6h.6l.6.3.6.9.6,1.3.6,1.8,1.2,4.8,1.2,6.4,1.2,7.7,1.8,13.5,6,47.7,1.2,7.5,1.2,6.1,1.2,4.5.6,1.6.6,1.2.6.7.6.2.6-.2.6-.7.6-1.2.6-1.6.6-2.1,1.2-5.4,1.2-6.9,1.2-8.1,1.8-13.9,4.8-38.9,1.2-8.3,1.2-7.1,1.2-5.6.6-2.2.6-1.8.6-1.3.6-.9.6-.4h.6l.6.6.6,1,.6,1.5.6,1.9,1.2,5.1,1.2,6.6,1.2,7.9,1.8,13.7,5.4,43.3,1.2,7.9,1.2,6.6,1.2,5.1.6,1.9.6,1.5.6,1,.6.5h.6l.6-.3.6-.9.6-1.3.6-1.8,1.2-4.8,1.2-6.4,1.2-7.7,1.8-13.5,6-47.7,1.2-7.5,1.2-6.1,1.2-4.5.6-1.6.6-1.2.6-.7.6-.2.6.2.6.7.6,1.2.6,1.6.6,2.1,1.2,5.4,1.2,6.9,1.2,8.1,1.8,13.9,4.8,38.9,1.2,8.3,1.2,7.1,1.2,5.6.6,2.2.6,1.8.6,1.3.6.9.6.4h.6l.6-.6.6-1,.6-1.5.6-1.9,1.2-5.1,1.2-6.6,1.2-7.9,1.8-13.7,5.4-43.3,1.2-7.9,1.2-6.6,1.2-5.1.6-1.9.6-1.5.6-1,.6-.6h.6l.6.3.6.9.6,1.3.6,1.8,1.2,4.8,1.2,6.4,1.2,7.7,1.8,13.5,6,47.7,1.2,7.5,1.2,6.1,1.2,4.5.6,1.6.6,1.2.6.7.6.2.6-.2.6-.7.6-1.2.6-1.6.6-2.1,1.2-5.4,1.2-6.9,1.2-8.1,1.8-13.9,4.8-38.9,1.2-8.3,1.2-7.1,1.2-5.6.6-2.2.6-1.8.6-1.3.6-.9.6-.4h.6l.6.6.6,1,.6,1.5.6,1.9,1.2,5.1,1.2,6.6,1.2,7.9,1.8,13.7,5.4,43.3,1.2,7.9,1.2,6.6,1.2,5.1.6,1.9.6,1.5.6,1,.6.5h.6l.6-.3.6-.9.6-1.3.6-1.8,1.2-4.8,1.2-6.4,1.2-7.7,1.8-13.5,6-47.7,1.2-7.5,1.2-6.1,1.2-4.5.6-1.6.6-1.2.6-.7.6-.2.6.2.6.7.6,1.2.6,1.6.6,2.1,1.2,5.4,1.2,6.9,1.2,8.1,1.8,13.9,4.8,38.9,1.2,8.3,1.2,7.1,1.2,5.6.6,2.2.6,1.8.6,1.3.6.9.6.4h.6l.6-.6.6-1,.6-1.5.6-1.9,1.2-5.1,1.2-6.6,1.2-7.9,1.8-13.7,5.4-43.3,1.2-7.9,1.2-6.6,1.2-5.1.6-1.9.6-1.5.6-1,.6-.6h.6l.6.3.6.9.6,1.3.6,1.8,1.2,4.8,1.2,6.4,1.2,7.7,1.8,13.5,6,47.7,1.2,7.5,1.2,6.1,1.2,4.5.6,1.6.6,1.2.6.7.6.2.6-.2.6-.7.6-1.2.6-1.6.6-2.1,1.2-5.4,1.2-6.9,1.2-8.1,1.8-13.9,4.8-38.9,1.2-8.3,1.2-7.1,1.2-5.6.6-2.2.6-1.8.6-1.3.6-.9.6-.4h.6l.6.6.6,1,.6,1.5.6,1.9,1.2,5.1,1.2,6.6,1.2,7.9,1.8,13.7,5.4,43.3,1.2,7.9,1.2,6.6,1.2,5.1.6,1.9.6,1.5.6,1,.6.5h.6l.6-.3.6-.9.6-1.3.6-1.8,1.2-4.8,1.2-6.4,1.2-7.7,1.8-13.5,6-47.7,1.2-7.5,1.2-6.1,1.2-4.5.6-1.6.6-1.2.6-.7.6-.2.6.2.6.7.6,1.2.6,1.6.6,2.1,1.2,5.4,1.2,6.9,1.2,8.1,1.8,13.9,4.8,38.9,1.2,8.3,1.2,7.1,1.2,5.6.6,2.2.6,1.8.6,1.3.6.9.6.4h.6l.6-.6.6-1,.6-1.5.6-1.9,1.2-5.1,1.2-6.6,1.2-7.9,1.8-13.7,5.4-43.3,1.2-7.9,1.2-6.6,1.2-5.1.6-1.9.6-1.5.6-1,.6-.6h.6l.6.3.6.9.6,1.3.6,1.8,1.2,4.8,1.2,6.4,1.2,7.7,1.8,13.5,6,47.7,1.2,7.5,1.2,6.1,1.2,4.5.6,1.6.6,1.2.6.7.6.2.6-.2.6-.7.6-1.2.6-1.6.6-2.1,1.2-5.4,1.2-6.9,1.2-8.1,1.8-13.9,4.8-38.9,1.2-8.3,1.2-7.1,1.2-5.6.6-2.2.6-1.8.6-1.3.6-.9.6-.4h.6l.6.6.6,1,.6,1.5.6,1.9,1.2,5.1,1.2,6.6,1.2,7.9,1.8,13.7,5.4,43.3,1.2,7.9,1.2,6.6,1.2,5.1.6,1.9.6,1.5.6,1,.6.5h.6l.6-.3.6-.9.6-1.3.6-1.8,1.2-4.8,1.2-6.4,1.2-7.7,1.8-13.5,6-47.7,1.2-7.5,1.2-6.1,1.2-4.5.6-1.6.6-1.2.6-.7.6-.2.6.2.6.7.6,1.2.6,1.6.6,2.1,1.2,5.4,1.2,6.9,1.2,8.1,1.8,13.9,4.8,38.9,1.2,8.3,1.2,7.1,1.2,5.6.6,2.2.6,1.8.6,1.3.6.9.6.4h.6l.6-.6.6-1,.6-1.5.6-1.9,1.2-5.1,1.2-6.6,1.2-7.9,1.8-13.7,5.4-43.3,1.2-7.9,1.2-6.6,1.2-5.1.6-1.9.6-1.5.6-1,.6-.6h.6l.6.3.6.9.6,1.3.6,1.8,1.2,4.8,1.2,6.4,1.2,7.7,1.8,13.5,6,47.7,1.2,7.5,1.2,6.1,1.2,4.5.6,1.6.6,1.2.6.7.6.2.6-.2.6-.7.6-1.2.6-1.6.6-2.1,1.2-5.4,1.2-6.9,1.2-8.1,1.8-13.9,4.8-38.9,1.2-8.3,1.2-7.1,1.2-5.6.6-2.2.6-1.8.6-1.3.6-.9.6-.4h.6l.6.6.6,1,.6,1.5.6,1.9,1.2,5.1,1.2,6.6,1.2,7.9,1.8,13.7,5.4,43.3,1.2,7.9,1.2,6.6,1.2,5.1.6,1.9.6,1.5.6,1,.6.5h.6l.6-.3.6-.9.6-1.3.6-1.8,1.2-4.8,1.2-6.4,1.2-7.7,1.8-13.5,6-47.7,1.2-7.5,1.2-6.1,1.2-4.5.6-1.6.6-1.2.6-.7h0"/>
        </g>
      </g>
      <g id="line2d_26">
        <g class="st12">
          <path class="st6" d="M76.8,251.5l3-24.2,1.8-12.3,1.2-6.6,1.2-5.1.6-1.9.6-1.5.6-1,.6-.6h.6l.6.3.6.9.6,1.3.6,1.8,1.2,4.8,1.2,6.4,1.2,7.7,1.8,13.5,6,47.7,1.2,7.5,1.2,6.1,1.2,4.5.6,1.6.6,1.2.6.7.6.2.6-.2.6-.7.6-1.2.6-1.6.6-2.1,1.2-5.4,1.2-6.9,1.2-8.1,1.8-13.9,4.8-38.9,1.2-8.3,1.2-7.1,1.2-5.6.6-2.2.6-1.8.6-1.3.6-.9.6-.4h.6l.6.6.6,1,.6,1.5.6,1.9,1.2,5.1,1.2,6.6,1.2,7.9,1.8,13.7,5.4,43.3,1.2,7.9,1.2,6.6,1.2,5.1.6,1.9.6,1.5.6,1,.6.5h.6l.6-.3.6-.9.6-1.3.6-1.8,1.2-4.8,1.2-6.4,1.2-7.7,1.8-13.5,6-47.7,1.2-7.5,1.2-6.1,1.2-4.5.6-1.6.6-1.2.6-.7.6-.2.6.2.6.7.6,1.2.6,1.6.6,2.1,1.2,5.4,1.2,6.9,1.2,8.1,1.8,13.9,4.8,38.9,1.2,8.3,1.2,7.1,1.2,5.6.6,2.2.6,1.8.6,1.3.6.9.6.4h.6l.6-.6.6-1,.6-1.5.6-1.9,1.2-5.1,1.2-6.6,1.2-7.9,1.8-13.7,5.4-43.3,1.2-7.9,1.2-6.6,1.2-5.1.6-1.9.6-1.5.6-1,.6-.6h.6l.6.3.6.9.6,1.3.6,1.8,1.2,4.8,1.2,6.4,1.2,7.7,1.8,13.5,6,47.7,1.2,7.5,1.2,6.1,1.2,4.5.6,1.6.6,1.2.6.7.6.2.6-.2.6-.7.6-1.2.6-1.6.6-2.1,1.2-5.4,1.2-6.9,1.2-8.1,1.8-13.9,4.8-38.9,1.2-8.3,1.2-7.1,1.2-5.6.6-2.2.6-1.8.6-1.3.6-.9.6-.4h.6l.6.6.6,1,.6,1.5.6,1.9,1.2,5.1,1.2,6.6,1.2,7.9,1.8,13.7,5.4,43.3,1.2,7.9,1.2,6.6,1.2,5.1.6,1.9.6,1.5.6,1,.6.5h.6l.6-.3.6-.9.6-1.3.6-1.8,1.2-4.8,1.2-6.4,1.2-7.7,1.8-13.5,6-47.7,1.2-7.5,1.2-6.1,1.2-4.5.6-1.6.6-1.2.6-.7.6-.2.6.2.6.7.6,1.2.6,1.6.6,2.1,1.2,5.4,1.2,6.9,1.2,8.1,1.8,13.9,4.8,38.9,1.2,8.3,1.2,7.1,1.2,5.6.6,2.2.6,1.8.6,1.3.6.9.6.4h.6l.6-.6.6-1,.6-1.5.6-1.9,1.2-5.1,1.2-6.6,1.2-7.9,1.8-13.7,5.4-43.3,1.2-7.9,1.2-6.6,1.2-5.1.6-1.9.6-1.5.6-1,.6-.6h.6l.6.3.6.9.6,1.3.6,1.8,1.2,4.8,1.2,6.4,1.2,7.7,1.8,13.5,6,47.7,1.2,7.5,1.2,6.1,1.2,4.5.6,1.6.6,1.2.6.7.6.2.6-.2.6-.7.6-1.2.6-1.6.6-2.1,1.2-5.4,1.2-6.9,1.2-8.1,1.8-13.9,4.8-38.9,1.2-8.3,1.2-7.1,1.2-5.6.6-2.2.6-1.8.6-1.3.6-.9.6-.4h.6l.6.6.6,1,.6,1.5.6,1.9,1.2,5.1,1.2,6.6,1.2,7.9,1.8,13.7,5.4,43.3,1.2,7.9,1.2,6.6,1.2,5.1.6,1.9.6,1.5.6,1,.6.5h.6l.6-.3.6-.9.6-1.3.6-1.8,1.2-4.8,1.2-6.4,1.2-7.7,1.8-13.5,6-47.7,1.2-7.5,1.2-6.1,1.2-4.5.6-1.6.6-1.2.6-.7.6-.2.6.2.6.7.6,1.2.6,1.6.6,2.1,1.2,5.4,1.2,6.9,1.2,8.1,1.8,13.9,4.8,38.9,1.2,8.3,1.2,7.1,1.2,5.6.6,2.2.6,1.8.6,1.3.6.9.6.4h.6l.6-.6.6-1,.6-1.5.6-1.9,1.2-5.1,1.2-6.6,1.2-7.9,1.8-13.7,5.4-43.3,1.2-7.9,1.2-6.6,1.2-5.1.6-1.9.6-1.5.6-1,.6-.6h.6l.6.3.6.9.6,1.3.6,1.8,1.2,4.8,1.2,6.4,1.2,7.7,1.8,13.5,6,47.7,1.2,7.5,1.2,6.1,1.2,4.5.6,1.6.6,1.2.6.7.6.2.6-.2.6-.7.6-1.2.6-1.6.6-2.1,1.2-5.4,1.2-6.9,1.2-8.1,1.8-13.9,4.8-38.9,1.2-8.3,1.2-7.1,1.2-5.6.6-2.2.6-1.8.6-1.3.6-.9.6-.4h.6l.6.6.6,1,.6,1.5.6,1.9,1.2,5.1,1.2,6.6,1.2,7.9,1.8,13.7,5.4,43.3,1.2,7.9,1.2,6.6,1.2,5.1.6,1.9.6,1.5.6,1,.6.5h.6l.6-.3.6-.9.6-1.3.6-1.8,1.2-4.8,1.2-6.4,1.2-7.7,1.8-13.5,6-47.7,1.2-7.5,1.2-6.1,1.2-4.5.6-1.6.6-1.2.6-.7.6-.2.6.2.6.7.6,1.2.6,1.6.6,2.1,1.2,5.4,1.2,6.9,1.2,8.1,1.8,13.9,4.8,38.9,1.2,8.3,1.2,7.1,1.2,5.6.6,2.2.6,1.8.6,1.3.6.9.6.4h.6l.6-.6.6-1,.6-1.5.6-1.9,1.2-5.1,1.2-6.6,1.2-7.9,1.8-13.7,5.4-43.3,1.2-7.9,1.2-6.6,1.2-5.1.6-1.9.6-1.5.6-1,.6-.6h.6l.6.3.6.9.6,1.3.6,1.8,1.2,4.8,1.2,6.4,1.2,7.7,1.8,13.5,6,47.7,1.2,7.5,1.2,6.1,1.2,4.5.6,1.6.6,1.2.6.7.6.2.6-.2.6-.7.6-1.2.6-1.6.6-2.1,1.2-5.4,1.2-6.9,1.2-8.1,1.8-13.9,4.8-38.9,1.2-8.3,1.2-7.1,1.2-5.6.6-2.2.6-1.8.6-1.3.6-.9.6-.4h.6l.6.6.6,1,.6,1.5.6,1.9,1.2,5.1,1.2,6.6,1.2,7.9,1.8,13.7,5.4,43.3,1.2,7.9,1.2,6.6,1.2,5.1.6,1.9.6,1.5.6,1,.6.5h.6l.6-.3.6-.9.6-1.3.6-1.8,1.2-4.8,1.2-6.4,1.2-7.7,1.8-13.5,6-47.7,1.2-7.5,1.2-6.1,1.2-4.5.6-1.6.6-1.2.6-.7.6-.2.6.2.6.7.6,1.2.6,1.6.6,2.1,1.2,5.4,1.2,6.9,1.2,8.1,1.8,13.9,4.8,38.9,1.2,8.3,1.2,7.1,1.2,5.6.6,2.2.6,1.8.6,1.3.6.9.6.4h.6l.6-.6.6-1,.6-1.5.6-1.9,1.2-5.1,1.2-6.6,1.2-7.9,1.8-13.7,1.2-9.8h0"/>
        </g>
      </g>
      <g id="patch_3">
        <path class="st4" d="M46.6,318V25.4"/>
      </g>
      <g id="patch_4">
        <path class="st4" d="M709.2,318V25.4"/>
      </g>
      <g id="patch_5">
        <path class="st4" d="M46.6,318h662.6"/>
      </g>
      <g id="patch_6">
        <path class="st4" d="M46.6,25.4h662.6"/>
      </g>
      <g id="text_14">
        <g>
          <path id="DejaVuSans-49" d="M196.3,10.7h1.2v8.7h-1.2v-8.7Z"/>
          <path id="DejaVuSans-6e" d="M205.2,15.5v4h-1.1v-3.9c0-.6-.1-1.1-.4-1.4-.2-.3-.6-.5-1.1-.5s-1,.2-1.4.6c-.3.4-.5.9-.5,1.5v3.7h-1.1v-6.6h1.1v1c.3-.4.6-.7.9-.9.3-.2.8-.3,1.2-.3.8,0,1.3.2,1.7.7s.6,1.2.6,2.1h.1Z"/>
          <path id="DejaVuSans-641" d="M211.7,13.9v-3.6h1.1v9.1h-1.1v-1c-.2.4-.5.7-.9.9-.3.2-.8.3-1.2.3-.8,0-1.4-.3-1.9-.9s-.7-1.5-.7-2.5.2-1.9.7-2.5,1.1-.9,1.9-.9.9,0,1.2.3c.3.2.6.5.9.9h0ZM208,16.2c0,.8.2,1.4.5,1.9s.8.7,1.3.7,1-.2,1.3-.7.5-1.1.5-1.9-.2-1.4-.5-1.9-.8-.7-1.3-.7-1,.2-1.3.7-.5,1.1-.5,1.9Z"/>
          <path id="DejaVuSans-692" d="M215,12.9h1.1v6.6h-1.1v-6.6ZM215,10.3h1.1v1.4h-1.1v-1.4Z"/>
          <path id="DejaVuSans-76" d="M217.5,12.9h1.1l2.1,5.5,2.1-5.5h1.1l-2.5,6.6h-1.5l-2.5-6.6h0Z"/>
          <path id="DejaVuSans-693" d="M225.4,12.9h1.1v6.6h-1.1v-6.6ZM225.4,10.3h1.1v1.4h-1.1v-1.4Z"/>
          <path id="DejaVuSans-642" d="M233.1,13.9v-3.6h1.1v9.1h-1.1v-1c-.2.4-.5.7-.9.9-.3.2-.8.3-1.2.3-.8,0-1.4-.3-1.9-.9s-.7-1.5-.7-2.5.2-1.9.7-2.5,1.1-.9,1.9-.9.9,0,1.2.3c.3.2.6.5.9.9h0ZM229.4,16.2c0,.8.2,1.4.5,1.9s.8.7,1.3.7,1-.2,1.3-.7.5-1.1.5-1.9-.2-1.4-.5-1.9-.8-.7-1.3-.7-1,.2-1.3.7-.5,1.1-.5,1.9Z"/>
          <path id="DejaVuSans-751" d="M236.2,16.9v-4h1.1v3.9c0,.6.1,1.1.4,1.4.2.3.6.5,1.1.5s1-.2,1.4-.6c.3-.4.5-.9.5-1.5v-3.7h1.1v6.6h-1.1v-1c-.3.4-.6.7-.9.9-.3.2-.7.3-1.2.3-.8,0-1.3-.2-1.7-.7s-.6-1.2-.6-2.1h-.1ZM239,12.7h0Z"/>
          <path id="DejaVuSans-61" d="M246.9,16.1c-.9,0-1.5,0-1.8.3s-.5.5-.5,1,.1.7.4.9c.3.2.6.3,1,.3s1.1-.2,1.4-.6.5-1,.5-1.7v-.2h-1.1.1ZM249.1,15.7v3.7h-1.1v-1c-.2.4-.6.7-.9.9-.4.2-.8.3-1.3.3s-1.2-.2-1.6-.6c-.4-.4-.6-.9-.6-1.5s.2-1.3.7-1.7c.5-.4,1.2-.6,2.2-.6h1.5c0-.6-.2-1-.5-1.3s-.8-.4-1.4-.4-.7,0-1.1.1c-.4,0-.7.2-1,.4v-1c.4-.2.8-.3,1.1-.3s.7-.1,1.1-.1c1,0,1.7.2,2.1.7.5.5.7,1.2.7,2.2v.2Z"/>
          <path id="DejaVuSans-6c1" d="M251.3,10.3h1.1v9.1h-1.1v-9.1Z"/>
          <path id="DejaVuSans-202" d="M253.5,19.4"/>
          <path id="DejaVuSans-53" d="M263.8,11v1.2c-.4-.2-.9-.4-1.3-.5s-.8-.2-1.2-.2c-.6,0-1.1.1-1.5.4-.3.2-.5.6-.5,1.1s.1.7.3.9c.2.2.7.4,1.3.5h.7c.9.3,1.5.6,2,1s.6,1,.6,1.7-.3,1.5-.9,1.9-1.4.7-2.5.7-.9,0-1.3-.1c-.5,0-.9-.2-1.4-.4v-1.2c.5.3,1,.5,1.4.6.5.1.9.2,1.4.2s1.2-.1,1.6-.4.6-.6.6-1.1-.1-.8-.4-1-.7-.4-1.3-.5h-.7c-.9-.3-1.5-.6-1.9-1s-.6-.9-.6-1.6.3-1.4.8-1.8c.5-.4,1.3-.7,2.3-.7s.8,0,1.3.1c.4,0,.9.2,1.3.3h0Z"/>
          <path id="DejaVuSans-752" d="M266,16.9v-4h1.1v3.9c0,.6.1,1.1.4,1.4.2.3.6.5,1.1.5s1-.2,1.4-.6c.3-.4.5-.9.5-1.5v-3.7h1.1v6.6h-1.1v-1c-.3.4-.6.7-.9.9-.3.2-.7.3-1.2.3-.8,0-1.3-.2-1.7-.7-.4-.5-.6-1.2-.6-2.1h0ZM268.7,12.7h0Z"/>
          <path id="DejaVuSans-62" d="M278.4,16.2c0-.8-.2-1.4-.5-1.9s-.8-.7-1.3-.7-1,.2-1.3.7-.5,1.1-.5,1.9.2,1.4.5,1.9.8.7,1.3.7,1-.2,1.3-.7.5-1.1.5-1.9ZM274.7,13.9c.2-.4.5-.7.9-.9.3-.2.8-.3,1.2-.3.8,0,1.4.3,1.9.9.5.6.7,1.5.7,2.5s-.2,1.9-.7,2.5-1.1.9-1.9.9-.9,0-1.2-.3c-.3-.2-.6-.5-.9-.9v1h-1.1v-9.1h1.1v3.6h0Z"/>
          <path id="DejaVuSans-63" d="M286,13.1v1c-.3-.2-.6-.3-.9-.4s-.6-.1-.9-.1c-.7,0-1.2.2-1.6.7-.4.4-.6,1.1-.6,1.9s.2,1.4.6,1.9c.4.4.9.7,1.6.7s.6,0,.9-.1.6-.2.9-.4v1c-.3.1-.6.2-.9.3-.3,0-.7.1-1,.1-1,0-1.8-.3-2.4-.9s-.9-1.5-.9-2.5.3-1.9.9-2.5,1.4-.9,2.4-.9.7,0,1,.1c.3,0,.6.2.9.3v-.2Z"/>
          <path id="DejaVuSans-611" d="M290.9,16.1c-.9,0-1.5,0-1.8.3s-.5.5-.5,1,.1.7.4.9c.3.2.6.3,1,.3s1.1-.2,1.4-.6.5-1,.5-1.7v-.2h-1.1.1ZM293,15.7v3.7h-1.1v-1c-.2.4-.6.7-.9.9-.4.2-.8.3-1.3.3s-1.2-.2-1.6-.6-.6-.9-.6-1.5.2-1.3.7-1.7c.5-.4,1.2-.6,2.2-.6h1.5c0-.6-.2-1-.5-1.3s-.8-.4-1.4-.4-.7,0-1.1.1c-.4,0-.7.2-1,.4v-1c.4-.2.8-.3,1.1-.3s.7-.1,1.1-.1c1,0,1.7.2,2.1.7.5.5.7,1.2.7,2.2v.2Z"/>
          <path id="DejaVuSans-72" d="M299.1,13.9c-.1,0-.3-.1-.4-.2h-.5c-.6,0-1.1.2-1.4.6s-.5,1-.5,1.7v3.5h-1.1v-6.6h1.1v1c.2-.4.5-.7.9-.9s.8-.3,1.3-.3.2,0,.2,0h.3v1.1h.1Z"/>
          <path id="DejaVuSans-721" d="M303.8,13.9c-.1,0-.3-.1-.4-.2h-.5c-.6,0-1.1.2-1.4.6s-.5,1-.5,1.7v3.5h-1.1v-6.6h1.1v1c.2-.4.5-.7.9-.9s.8-.3,1.3-.3.2,0,.2,0h.3v1.1h.1Z"/>
          <path id="DejaVuSans-694" d="M304.9,12.9h1.1v6.6h-1.1v-6.6ZM304.9,10.3h1.1v1.4h-1.1v-1.4Z"/>
          <path id="DejaVuSans-653" d="M313.9,15.9v.5h-5c0,.7.3,1.3.7,1.7.4.4,1,.6,1.7.6s.8,0,1.2-.2.8-.3,1.2-.5v1c-.4.2-.8.3-1.2.4s-.8.1-1.2.1c-1,0-1.9-.3-2.5-.9s-.9-1.4-.9-2.5.3-1.9.9-2.6c.6-.6,1.4-.9,2.3-.9s1.6.3,2.1.9c.5.6.8,1.3.8,2.3h-.1ZM312.8,15.6c0-.6-.2-1.1-.5-1.4-.3-.4-.7-.5-1.3-.5s-1.1.2-1.4.5-.6.8-.6,1.4h3.8Z"/>
          <path id="DejaVuSans-722" d="M319.4,13.9c-.1,0-.3-.1-.4-.2h-.5c-.6,0-1.1.2-1.4.6s-.5,1-.5,1.7v3.5h-1.1v-6.6h1.1v1c.2-.4.5-.7.9-.9s.8-.3,1.3-.3.2,0,.2,0h.3v1.1h.1Z"/>
          <path id="DejaVuSans-732" d="M324.7,13.1v1c-.3-.2-.6-.3-.9-.4-.3,0-.7-.1-1-.1-.5,0-.9,0-1.2.2-.3.2-.4.4-.4.7s0,.4.3.6.6.3,1.2.4h.4c.8.2,1.3.5,1.6.8s.5.7.5,1.3-.2,1.1-.7,1.4c-.5.4-1.1.5-2,.5s-.7,0-1.1-.1c-.4,0-.8-.2-1.2-.3v-1.1c.4.2.8.4,1.2.5.4.1.8.2,1.1.2s.9,0,1.2-.3c.3-.2.4-.4.4-.7s0-.5-.3-.7c-.2-.2-.6-.3-1.3-.5h-.4c-.7-.2-1.1-.4-1.4-.7s-.4-.7-.4-1.2.2-1.1.7-1.4c.4-.3,1.1-.5,1.9-.5h1.1c.4,0,.7.1,1,.3h-.3Z"/>
          <path id="DejaVuSans-203" d="M325.7,19.4"/>
          <path id="DejaVuSans-77" d="M330,12.9h1.1l1.3,5.1,1.3-5.1h1.3l1.3,5.1,1.3-5.1h1.1l-1.7,6.6h-1.3l-1.4-5.4-1.4,5.4h-1.3l-1.7-6.6h.1Z"/>
          <path id="DejaVuSans-695" d="M340.4,12.9h1.1v6.6h-1.1v-6.6ZM340.4,10.3h1.1v1.4h-1.1v-1.4Z"/>
          <path id="DejaVuSans-742" d="M344.8,11v1.9h2.2v.8h-2.2v3.6c0,.5,0,.9.2,1s.4.2.9.2h1.1v.9h-1.1c-.8,0-1.4-.2-1.7-.5-.3-.3-.5-.9-.5-1.7v-3.6h-.8v-.8h.8v-1.9h1.1Z"/>
          <path id="DejaVuSans-68" d="M353.9,15.5v4h-1.1v-3.9c0-.6-.1-1.1-.4-1.4-.2-.3-.6-.5-1.1-.5s-1,.2-1.4.6c-.3.4-.5.9-.5,1.5v3.7h-1.1v-9.1h1.1v3.6c.3-.4.6-.7.9-.9s.8-.3,1.2-.3c.8,0,1.3.2,1.7.7.4.5.6,1.2.6,2.1h0Z"/>
          <path id="DejaVuSans-204" d="M355,19.4"/>
          <path id="DejaVuSans-491" d="M359.9,10.7h1.2v8.7h-1.2v-8.7Z"/>
          <path id="DejaVuSans-2f" d="M365.4,10.7h1l-3,9.9h-1s3-9.9,3-9.9Z"/>
          <path id="DejaVuSans-51" d="M371.1,11.5c-.9,0-1.5.3-2,1-.5.6-.8,1.5-.8,2.6s.3,2,.8,2.6,1.2,1,2,1,1.5-.3,2-1c.5-.6.8-1.5.8-2.6s-.3-2-.8-2.6-1.2-1-2-1ZM372.7,19.3l1.6,1.7h-1.4l-1.3-1.4h-.5c-1.2,0-2.2-.4-3-1.2-.7-.8-1.1-1.9-1.1-3.3s.4-2.5,1.1-3.3,1.7-1.2,3-1.2,2.2.4,2.9,1.2c.7.8,1.1,1.9,1.1,3.3s-.2,1.9-.6,2.6c-.4.7-1,1.3-1.8,1.6h0Z"/>
          <path id="DejaVuSans-205" d="M375.8,19.4"/>
          <path id="DejaVuSans-43" d="M387.3,11.4v1.2c-.4-.4-.8-.6-1.3-.8s-.9-.3-1.4-.3c-1,0-1.8.3-2.3.9s-.8,1.5-.8,2.7.3,2,.8,2.6,1.3.9,2.3.9,1,0,1.4-.3.9-.5,1.3-.8v1.2c-.4.3-.9.5-1.3.6-.5.1-1,.2-1.5.2-1.3,0-2.4-.4-3.1-1.2-.8-.8-1.1-1.9-1.1-3.3s.4-2.5,1.1-3.3c.8-.8,1.8-1.2,3.1-1.2s1,0,1.5.2c.5.1.9.3,1.3.6h0Z"/>
          <path id="DejaVuSans-6f1" d="M391.7,13.6c-.6,0-1,.2-1.4.7s-.5,1.1-.5,1.9.2,1.4.5,1.9.8.7,1.4.7,1-.2,1.4-.7c.3-.5.5-1.1.5-1.9s-.2-1.4-.5-1.8c-.3-.5-.8-.7-1.4-.7h0ZM391.7,12.7c.9,0,1.7.3,2.2.9.5.6.8,1.5.8,2.5s-.3,1.9-.8,2.5-1.3.9-2.2.9-1.7-.3-2.2-.9-.8-1.5-.8-2.5.3-1.9.8-2.5,1.3-.9,2.2-.9Z"/>
          <path id="DejaVuSans-6d2" d="M401.6,14.1c.3-.5.6-.8,1-1.1s.8-.3,1.3-.3,1.2.2,1.6.7.6,1.2.6,2v4h-1.1v-3.9c0-.6-.1-1.1-.3-1.4-.2-.3-.6-.5-1-.5s-1,.2-1.3.6c-.3.4-.5.9-.5,1.5v3.7h-1.1v-3.9c0-.6-.1-1.1-.3-1.4s-.6-.5-1-.5-1,.2-1.3.6c-.3.4-.5.9-.5,1.5v3.7h-1.1v-6.6h1.1v1c.2-.4.5-.7.9-.9s.8-.3,1.2-.3.9.1,1.2.4c.3.2.6.6.7,1.1h-.1Z"/>
          <path id="DejaVuSans-701" d="M409.2,18.5v3.5h-1.1v-9.1h1.1v1c.2-.4.5-.7.9-.9.3-.2.8-.3,1.2-.3.8,0,1.4.3,1.9.9.5.6.7,1.5.7,2.5s-.2,1.9-.7,2.5-1.1.9-1.9.9-.9,0-1.2-.3c-.3-.2-.6-.5-.9-.9v.2ZM412.9,16.2c0-.8-.2-1.4-.5-1.9s-.8-.7-1.3-.7-1,.2-1.3.7-.5,1.1-.5,1.9.2,1.4.5,1.9.8.7,1.3.7,1-.2,1.3-.7.5-1.1.5-1.9Z"/>
          <path id="DejaVuSans-6f2" d="M418.3,13.6c-.6,0-1,.2-1.4.7s-.5,1.1-.5,1.9.2,1.4.5,1.9.8.7,1.4.7,1-.2,1.4-.7c.3-.5.5-1.1.5-1.9s-.2-1.4-.5-1.8c-.3-.5-.8-.7-1.4-.7h0ZM418.3,12.7c.9,0,1.7.3,2.2.9.5.6.8,1.5.8,2.5s-.3,1.9-.8,2.5-1.3.9-2.2.9-1.7-.3-2.2-.9-.8-1.5-.8-2.5.3-1.9.8-2.5,1.3-.9,2.2-.9Z"/>
          <path id="DejaVuSans-6e1" d="M428.6,15.5v4h-1.1v-3.9c0-.6-.1-1.1-.4-1.4-.2-.3-.6-.5-1.1-.5s-1,.2-1.4.6c-.3.4-.5.9-.5,1.5v3.7h-1.1v-6.6h1.1v1c.3-.4.6-.7.9-.9s.8-.3,1.2-.3c.8,0,1.3.2,1.7.7.4.5.6,1.2.6,2.1h0Z"/>
          <path id="DejaVuSans-654" d="M436.3,15.9v.5h-5c0,.7.3,1.3.7,1.7.4.4,1,.6,1.7.6s.8,0,1.2-.2.8-.3,1.2-.5v1c-.4.2-.8.3-1.2.4s-.8.1-1.2.1c-1,0-1.9-.3-2.5-.9s-.9-1.4-.9-2.5.3-1.9.9-2.6c.6-.6,1.4-.9,2.3-.9s1.6.3,2.1.9c.5.6.8,1.3.8,2.3h-.1ZM435.3,15.6c0-.6-.2-1.1-.5-1.4-.3-.4-.7-.5-1.3-.5s-1.1.2-1.4.5-.6.8-.6,1.4h3.8Z"/>
          <path id="DejaVuSans-6e2" d="M443.6,15.5v4h-1.1v-3.9c0-.6-.1-1.1-.4-1.4-.2-.3-.6-.5-1.1-.5s-1,.2-1.4.6c-.3.4-.5.9-.5,1.5v3.7h-1.1v-6.6h1.1v1c.3-.4.6-.7.9-.9s.8-.3,1.2-.3c.8,0,1.3.2,1.7.7.4.5.6,1.2.6,2.1h0Z"/>
          <path id="DejaVuSans-743" d="M446.8,11v1.9h2.2v.8h-2.2v3.6c0,.5,0,.9.2,1s.4.2.9.2h1.1v.9h-1.1c-.8,0-1.4-.2-1.7-.5-.3-.3-.5-.9-.5-1.7v-3.6h-.8v-.8h.8v-1.9h1.1Z"/>
          <path id="DejaVuSans-733" d="M454.6,13.1v1c-.3-.2-.6-.3-.9-.4-.3,0-.7-.1-1-.1-.5,0-.9,0-1.2.2-.3.2-.4.4-.4.7s0,.4.3.6.6.3,1.2.4h.4c.8.2,1.3.5,1.6.8s.5.7.5,1.3-.2,1.1-.7,1.4c-.5.4-1.1.5-2,.5s-.7,0-1.1-.1c-.4,0-.8-.2-1.2-.3v-1.1c.4.2.8.4,1.2.5.4.1.8.2,1.1.2s.9,0,1.2-.3c.3-.2.4-.4.4-.7s0-.5-.3-.7c-.2-.2-.6-.3-1.3-.5h-.4c-.7-.2-1.1-.4-1.4-.7s-.4-.7-.4-1.2.2-1.1.7-1.4c.4-.3,1.1-.5,1.9-.5h1.1c.4,0,.7.1,1,.3h-.3Z"/>
          <path id="DejaVuSans-206" d="M455.5,19.4"/>
          <path id="DejaVuSans-281" d="M463.1,10.3c-.5.9-.9,1.8-1.2,2.7-.3.9-.4,1.8-.4,2.7s.1,1.8.4,2.7.6,1.8,1.2,2.7h-.9c-.6-.9-1-1.8-1.3-2.7-.3-.9-.4-1.8-.4-2.6s.1-1.7.4-2.6c.3-.9.7-1.8,1.3-2.7h.9v-.2Z"/>
          <path id="DejaVuSans-52" d="M469.4,15.3c.3,0,.5.3.7.6s.5.7.7,1.2l1.2,2.4h-1.3l-1.1-2.2c-.3-.6-.6-1-.8-1.2s-.6-.3-1.1-.3h-1.3v3.7h-1.2v-8.7h2.7c1,0,1.7.2,2.2.6.5.4.7,1,.7,1.9s-.1,1-.4,1.4-.6.6-1.1.8v-.2ZM466.4,11.7v3.1h1.5c.6,0,1-.1,1.3-.4s.4-.7.4-1.2-.1-.9-.4-1.2-.7-.4-1.3-.4h-1.5Z"/>
          <path id="DejaVuSans-655" d="M478.6,15.9v.5h-5c0,.7.3,1.3.7,1.7.4.4,1,.6,1.7.6s.8,0,1.2-.2.8-.3,1.2-.5v1c-.4.2-.8.3-1.2.4s-.8.1-1.2.1c-1,0-1.9-.3-2.5-.9s-.9-1.4-.9-2.5.3-1.9.9-2.6c.6-.6,1.4-.9,2.3-.9s1.6.3,2.1.9c.5.6.8,1.3.8,2.3h-.1ZM477.5,15.6c0-.6-.2-1.1-.5-1.4-.3-.4-.7-.5-1.3-.5s-1.1.2-1.4.5-.6.8-.6,1.4h3.8Z"/>
          <path id="DejaVuSans-643" d="M484.7,13.9v-3.6h1.1v9.1h-1.1v-1c-.2.4-.5.7-.9.9-.3.2-.8.3-1.2.3-.8,0-1.4-.3-1.9-.9s-.7-1.5-.7-2.5.2-1.9.7-2.5,1.1-.9,1.9-.9.9,0,1.2.3c.3.2.6.5.9.9h0ZM481,16.2c0,.8.2,1.4.5,1.9s.8.7,1.3.7,1-.2,1.3-.7.5-1.1.5-1.9-.2-1.4-.5-1.9-.8-.7-1.3-.7-1,.2-1.3.7-.5,1.1-.5,1.9Z"/>
          <path id="DejaVuSans-753" d="M487.8,16.9v-4h1.1v3.9c0,.6.1,1.1.4,1.4.2.3.6.5,1.1.5s1-.2,1.4-.6c.3-.4.5-.9.5-1.5v-3.7h1.1v6.6h-1.1v-1c-.3.4-.6.7-.9.9-.3.2-.7.3-1.2.3-.8,0-1.3-.2-1.7-.7-.4-.5-.6-1.2-.6-2.1h0ZM490.6,12.7h0Z"/>
          <path id="DejaVuSans-631" d="M500.3,13.1v1c-.3-.2-.6-.3-.9-.4s-.6-.1-.9-.1c-.7,0-1.2.2-1.6.7-.4.4-.6,1.1-.6,1.9s.2,1.4.6,1.9c.4.4.9.7,1.6.7s.6,0,.9-.1.6-.2.9-.4v1c-.3.1-.6.2-.9.3-.3,0-.7.1-1,.1-1,0-1.8-.3-2.4-.9s-.9-1.5-.9-2.5.3-1.9.9-2.5,1.4-.9,2.4-.9.7,0,1,.1c.3,0,.6.2.9.3v-.2Z"/>
          <path id="DejaVuSans-656" d="M507.8,15.9v.5h-5c0,.7.3,1.3.7,1.7.4.4,1,.6,1.7.6s.8,0,1.2-.2.8-.3,1.2-.5v1c-.4.2-.8.3-1.2.4s-.8.1-1.2.1c-1,0-1.9-.3-2.5-.9s-.9-1.4-.9-2.5.3-1.9.9-2.6c.6-.6,1.4-.9,2.3-.9s1.6.3,2.1.9c.5.6.8,1.3.8,2.3h-.1ZM506.7,15.6c0-.6-.2-1.1-.5-1.4-.3-.4-.7-.5-1.3-.5s-1.1.2-1.4.5-.6.8-.6,1.4h3.8Z"/>
          <path id="DejaVuSans-644" d="M513.9,13.9v-3.6h1.1v9.1h-1.1v-1c-.2.4-.5.7-.9.9-.3.2-.8.3-1.2.3-.8,0-1.4-.3-1.9-.9s-.7-1.5-.7-2.5.2-1.9.7-2.5,1.1-.9,1.9-.9.9,0,1.2.3c.3.2.6.5.9.9h0ZM510.2,16.2c0,.8.2,1.4.5,1.9s.8.7,1.3.7,1-.2,1.3-.7.5-1.1.5-1.9-.2-1.4-.5-1.9-.8-.7-1.3-.7-1,.2-1.3.7-.5,1.1-.5,1.9Z"/>
          <path id="DejaVuSans-207" d="M516,19.4"/>
          <path id="DejaVuSans-4f" d="M524.6,11.5c-.9,0-1.5.3-2,1-.5.6-.8,1.5-.8,2.6s.3,2,.8,2.6,1.2,1,2,1,1.5-.3,2-1c.5-.6.8-1.5.8-2.6s-.3-2-.8-2.6-1.2-1-2-1ZM524.6,10.5c1.2,0,2.2.4,2.9,1.2s1.1,1.9,1.1,3.3-.4,2.5-1.1,3.3c-.7.8-1.7,1.2-2.9,1.2s-2.2-.4-3-1.2c-.7-.8-1.1-1.9-1.1-3.3s.4-2.5,1.1-3.3c.7-.8,1.7-1.2,3-1.2Z"/>
          <path id="DejaVuSans-662" d="M533.7,10.3v.9h-1c-.4,0-.7,0-.8.2s-.2.4-.2.8v.6h1.8v.8h-1.8v5.7h-1.1v-5.7h-1v-.8h1v-.5c0-.7.2-1.3.5-1.6s.9-.5,1.6-.5h1Z"/>
          <path id="DejaVuSans-663" d="M538,10.3v.9h-1c-.4,0-.7,0-.8.2s-.2.4-.2.8v.6h1.8v.8h-1.8v5.7h-1.1v-5.7h-1v-.8h1v-.5c0-.7.2-1.3.5-1.6s.9-.5,1.6-.5h1Z"/>
          <path id="DejaVuSans-734" d="M543.1,13.1v1c-.3-.2-.6-.3-.9-.4-.3,0-.7-.1-1-.1-.5,0-.9,0-1.2.2s-.4.4-.4.7,0,.4.3.6.6.3,1.2.4h.4c.8.2,1.3.5,1.6.8s.5.7.5,1.3-.2,1.1-.7,1.4c-.5.4-1.1.5-2,.5s-.7,0-1.1-.1c-.4,0-.8-.2-1.2-.3v-1.1c.4.2.8.4,1.2.5s.8.2,1.1.2.9,0,1.2-.3c.3-.2.4-.4.4-.7s0-.5-.3-.7c-.2-.2-.6-.3-1.3-.5h-.4c-.7-.2-1.1-.4-1.4-.7-.3-.3-.4-.7-.4-1.2s.2-1.1.7-1.4c.4-.3,1.1-.5,1.9-.5h1.1c.4,0,.7.1,1,.3h-.3Z"/>
          <path id="DejaVuSans-657" d="M550.7,15.9v.5h-5c0,.7.3,1.3.7,1.7.4.4,1,.6,1.7.6s.8,0,1.2-.2.8-.3,1.2-.5v1c-.4.2-.8.3-1.2.4s-.8.1-1.2.1c-1,0-1.9-.3-2.5-.9s-.9-1.4-.9-2.5.3-1.9.9-2.6c.6-.6,1.4-.9,2.3-.9s1.6.3,2.1.9c.5.6.8,1.3.8,2.3h0ZM549.7,15.6c0-.6-.2-1.1-.5-1.4-.3-.4-.7-.5-1.3-.5s-1.1.2-1.4.5-.6.8-.6,1.4h3.8Z"/>
          <path id="DejaVuSans-744" d="M553.6,11v1.9h2.2v.8h-2.2v3.6c0,.5,0,.9.2,1s.4.2.9.2h1.1v.9h-1.1c-.8,0-1.4-.2-1.7-.5s-.5-.9-.5-1.7v-3.6h-.8v-.8h.8v-1.9h1.1Z"/>
          <path id="DejaVuSans-291" d="M557,10.3h.9c.6.9,1,1.8,1.3,2.7s.4,1.8.4,2.6,0,1.8-.4,2.6c-.3.9-.7,1.8-1.3,2.7h-.9c.5-.9.9-1.8,1.2-2.7.3-.9.4-1.8.4-2.7s0-1.8-.4-2.7c-.3-.9-.6-1.8-1.2-2.7v.2Z"/>
        </g>
      </g>
      <g id="legend_1">
        <g id="patch_7">
          <path class="st8" d="M556.9,92.2h145.3c1.3,0,2-.7,2-2v-57.7c0-1.3-.7-2-2-2h-145.3c-1.3,0-2,.7-2,2v57.7c0,1.3.7,2,2,2Z"/>
        </g>
        <g id="line2d_27">
          <path class="st1" d="M558.9,38.5h20"/>
        </g>
        <g id="text_15">
          <g>
            <path id="DejaVuSans-531" d="M592.2,35v1c-.4-.2-.7-.3-1.1-.4-.3,0-.7,0-1,0-.5,0-1,0-1.2.3-.3.2-.4.5-.4.9s0,.6.3.7c.2.2.6.3,1.1.4h.6c.7.3,1.3.5,1.6.9s.5.8.5,1.4-.2,1.2-.7,1.6c-.5.4-1.2.5-2.1.5s-.7,0-1.1,0c-.4,0-.8-.2-1.2-.3v-1c.4.2.8.4,1.2.5s.8.2,1.1.2c.6,0,1,0,1.3-.3s.5-.5.5-.9,0-.6-.3-.8-.6-.4-1.1-.5h-.6c-.7-.3-1.3-.5-1.6-.8s-.5-.7-.5-1.3.2-1.2.7-1.5c.5-.4,1.1-.6,1.9-.6h1c.4,0,.7.2,1.1.3h0Z"/>
            <path id="DejaVuSans-431" d="M599.7,35.3v1c-.3-.3-.7-.5-1.1-.7-.4-.2-.8-.2-1.2-.2-.8,0-1.5.3-1.9.8s-.7,1.2-.7,2.2.2,1.7.7,2.2,1.1.8,1.9.8.8,0,1.2-.2.7-.4,1.1-.7v1c-.3.2-.7.4-1.1.5-.4,0-.8.2-1.2.2-1.1,0-2-.3-2.6-1s-1-1.6-1-2.8.3-2.1,1-2.8c.6-.7,1.5-1,2.6-1s.8,0,1.2.2c.4,0,.7.3,1.1.5Z"/>
            <path id="DejaVuSans-313" d="M601.4,41.2h1.6v-5.6l-1.8.4v-.9l1.7-.4h1v6.5h1.6v.8h-4.2v-.8h.1Z"/>
            <path id="DejaVuSans-208" d="M606.6,42"/>
            <path id="DejaVuSans-492" d="M610.7,34.7h1v7.3h-1v-7.3Z"/>
            <path id="DejaVuSans-209" d="M612.7,42"/>
            <path id="DejaVuSans-282" d="M619,34.5c-.4.7-.8,1.5-1,2.2s-.3,1.5-.3,2.2,0,1.5.3,2.2.5,1.5,1,2.2h-.8c-.5-.8-.9-1.5-1.1-2.3-.2-.7-.4-1.5-.4-2.2s0-1.5.4-2.2c.2-.7.6-1.5,1.1-2.3h.8v.2Z"/>
            <path id="DejaVuSans-632" d="M624.6,36.8v.8c-.3,0-.5-.2-.8-.3s-.5,0-.8,0c-.6,0-1,.2-1.4.6-.3.4-.5.9-.5,1.6s.2,1.2.5,1.6c.3.4.8.6,1.4.6s.5,0,.8,0,.5-.2.8-.3v.8c-.3,0-.5.2-.8.3h-.9c-.8,0-1.5-.3-2-.8s-.7-1.2-.7-2.1.2-1.6.7-2.1,1.2-.8,2-.8h.8c.3,0,.5,0,.8.3h.1Z"/>
            <path id="DejaVuSans-6f3" d="M628.3,37.2c-.5,0-.9.2-1.1.6s-.4.9-.4,1.5,0,1.2.4,1.5c.3.4.7.6,1.1.6s.9-.2,1.1-.6c.3-.4.4-.9.4-1.5s0-1.2-.4-1.5c-.3-.4-.7-.6-1.1-.6ZM628.3,36.4c.8,0,1.4.3,1.8.8.4.5.7,1.2.7,2.1s-.2,1.6-.7,2.1c-.4.5-1.1.8-1.8.8s-1.4-.3-1.8-.8c-.4-.5-.7-1.2-.7-2.1s.2-1.6.7-2.1c.4-.5,1.1-.8,1.8-.8Z"/>
            <path id="DejaVuSans-735" d="M635.8,36.7v.9c-.3,0-.5-.2-.8-.3h-.9c-.4,0-.8,0-1,.2-.2,0-.3.3-.3.6s0,.4.2.5.5.2,1,.3h.3c.6.2,1.1.4,1.4.6s.4.6.4,1-.2.9-.6,1.2c-.4.3-1,.4-1.7.4h-.9c-.3,0-.7,0-1-.3v-.9c.3.2.7.3,1,.4.3,0,.6,0,1,0s.7,0,1-.2c.2,0,.3-.3.3-.6s0-.4-.2-.6c-.2,0-.5-.3-1.1-.4h-.3c-.6-.2-1-.4-1.2-.6-.2-.2-.4-.6-.4-1s.2-.9.5-1.2c.4-.3.9-.4,1.6-.4h.9c.3,0,.6,0,.8.2h0Z"/>
            <path id="DejaVuSans-292" d="M637.4,34.5h.8c.5.8.9,1.5,1.1,2.3.2.7.4,1.5.4,2.2s0,1.5-.4,2.2c-.2.7-.6,1.5-1.1,2.3h-.8c.4-.7.8-1.5,1-2.2s.3-1.5.3-2.2,0-1.5-.3-2.2-.5-1.5-1-2.2v-.2Z"/>
            <path id="DejaVuSans-2010" d="M640.5,42"/>
            <path id="DejaVuSans-532" d="M649,35v1c-.4-.2-.7-.3-1.1-.4-.3,0-.7,0-1,0-.5,0-1,0-1.2.3-.3.2-.4.5-.4.9s0,.6.3.7c.2.2.6.3,1.1.4h.6c.7.3,1.3.5,1.6.9s.5.8.5,1.4-.2,1.2-.7,1.6c-.5.4-1.2.5-2.1.5s-.7,0-1.1,0c-.4,0-.8-.2-1.2-.3v-1c.4.2.8.4,1.2.5s.8.2,1.1.2c.6,0,1,0,1.3-.3s.5-.5.5-.9,0-.6-.3-.8-.6-.4-1.1-.5h-.6c-.7-.3-1.3-.5-1.6-.8s-.5-.7-.5-1.3.2-1.2.7-1.5c.5-.4,1.1-.6,1.9-.6h1c.4,0,.7.2,1.1.3h0Z"/>
            <path id="DejaVuSans-79" d="M653.2,42.5c-.3.7-.5,1.1-.7,1.3s-.6.3-1,.3h-.7v-.8h.5c.2,0,.4,0,.6-.2,0,0,.3-.4.5-.8l.2-.4-2.2-5.4h1l1.7,4.3,1.7-4.3h1l-2.4,6h-.2Z"/>
            <path id="DejaVuSans-6d3" d="M661.1,37.6c.2-.4.5-.7.8-.9s.7-.3,1.1-.3,1,.2,1.3.6c.3.4.5,1,.5,1.7v3.3h-.9v-3.3c0-.5,0-.9-.3-1.2-.2-.3-.5-.4-.8-.4s-.8.2-1.1.5-.4.7-.4,1.3v3.1h-.9v-3.3c0-.5,0-.9-.3-1.2s-.5-.4-.9-.4-.8.2-1.1.5-.4.7-.4,1.3v3.1h-.9v-5.5h.9v.9c.2-.3.5-.6.7-.7s.6-.2,1-.2.7,0,1,.3.5.5.6.9h.1Z"/>
            <path id="DejaVuSans-621" d="M670.5,39.3c0-.7,0-1.2-.4-1.6s-.6-.6-1.1-.6-.9.2-1.1.6-.4.9-.4,1.6,0,1.2.4,1.6c.3.4.6.6,1.1.6s.8-.2,1.1-.6c.3-.4.4-.9.4-1.6ZM667.5,37.4c.2-.3.4-.6.7-.7.3-.2.6-.2,1-.2.7,0,1.2.3,1.6.8.4.5.6,1.2.6,2.1s-.2,1.6-.6,2.1c-.4.5-1,.8-1.6.8s-.7,0-1-.2-.5-.4-.7-.7v.8h-.9v-7.6h.9v3-.2Z"/>
            <path id="DejaVuSans-6f4" d="M675.1,37.2c-.5,0-.9.2-1.1.6s-.4.9-.4,1.5,0,1.2.4,1.5c.3.4.7.6,1.1.6s.9-.2,1.1-.6c.3-.4.4-.9.4-1.5s0-1.2-.4-1.5c-.3-.4-.7-.6-1.1-.6ZM675.1,36.4c.8,0,1.4.3,1.8.8.4.5.7,1.2.7,2.1s-.2,1.6-.7,2.1c-.4.5-1.1.8-1.8.8s-1.4-.3-1.8-.8c-.4-.5-.7-1.2-.7-2.1s.2-1.6.7-2.1c.4-.5,1.1-.8,1.8-.8Z"/>
            <path id="DejaVuSans-6c2" d="M679.1,34.4h.9v7.6h-.9v-7.6Z"/>
            <path id="DejaVuSans-3a" d="M682.1,40.8h1v1.2h-1v-1.2ZM682.1,36.9h1v1.2h-1v-1.2Z"/>
            <path id="DejaVuSans-2011" d="M684.3,42"/>
            <path id="DejaVuSans-308" d="M690.7,35.4c-.5,0-.9.3-1.1.8-.3.5-.4,1.3-.4,2.3s0,1.7.4,2.2c.3.5.6.8,1.1.8s.9-.3,1.2-.8.4-1.2.4-2.2,0-1.8-.4-2.3c-.3-.5-.6-.8-1.2-.8ZM690.7,34.6c.8,0,1.4.3,1.9,1,.4.6.6,1.6.6,2.8s-.2,2.2-.6,2.8c-.4.6-1.1,1-1.9,1s-1.4-.3-1.9-1c-.4-.6-.6-1.6-.6-2.8s.2-2.2.6-2.8c.4-.6,1.1-1,1.9-1Z"/>
            <path id="DejaVuSans-314" d="M695.1,41.2h1.6v-5.6l-1.8.4v-.9l1.7-.4h1v6.5h1.6v.8h-4.2v-.8h.1Z"/>
          </g>
        </g>
        <g id="line2d_28">
          <path class="st5" d="M558.9,53.2h20"/>
        </g>
        <g id="text_16">
          <g>
            <path id="DejaVuSans-533" d="M592.2,49.7v1c-.4-.2-.7-.3-1.1-.4-.3,0-.7,0-1,0-.5,0-1,0-1.2.3-.3.2-.4.5-.4.9s0,.6.3.7c.2.2.6.3,1.1.4h.6c.7.3,1.3.5,1.6.9s.5.8.5,1.4-.2,1.2-.7,1.6c-.5.4-1.2.5-2.1.5s-.7,0-1.1,0c-.4,0-.8-.2-1.2-.3v-1c.4.2.8.4,1.2.5s.8.2,1.1.2c.6,0,1,0,1.3-.3s.5-.5.5-.9,0-.6-.3-.8-.6-.4-1.1-.5h-.6c-.7-.3-1.3-.5-1.6-.8s-.5-.7-.5-1.3.2-1.2.7-1.5c.5-.4,1.1-.6,1.9-.6h1c.4,0,.7.2,1.1.3h0Z"/>
            <path id="DejaVuSans-432" d="M599.7,50v1c-.3-.3-.7-.5-1.1-.7-.4-.2-.8-.2-1.2-.2-.8,0-1.5.3-1.9.8s-.7,1.2-.7,2.2.2,1.7.7,2.2,1.1.8,1.9.8.8,0,1.2-.2.7-.4,1.1-.7v1c-.3.2-.7.4-1.1.5-.4,0-.8.2-1.2.2-1.1,0-2-.3-2.6-1s-1-1.6-1-2.8.3-2.1,1-2.8c.6-.7,1.5-1,2.6-1s.8,0,1.2.2c.4,0,.7.3,1.1.5Z"/>
            <path id="DejaVuSans-315" d="M601.4,55.9h1.6v-5.6l-1.8.4v-.9l1.7-.4h1v6.5h1.6v.8h-4.2v-.8h.1Z"/>
            <path id="DejaVuSans-2012" d="M606.6,56.7"/>
            <path id="DejaVuSans-511" d="M613.7,50.1c-.7,0-1.3.3-1.7.8s-.6,1.3-.6,2.2.2,1.6.6,2.2c.4.5,1,.8,1.7.8s1.3-.3,1.7-.8.6-1.3.6-2.2-.2-1.6-.6-2.2c-.4-.5-1-.8-1.7-.8ZM615.1,56.6l1.3,1.4h-1.2l-1.1-1.2h-.4c-1,0-1.8-.3-2.5-1-.6-.7-.9-1.6-.9-2.8s.3-2.1.9-2.8c.6-.7,1.4-1,2.5-1s1.8.3,2.5,1c.6.7.9,1.6.9,2.8s-.2,1.6-.5,2.2c-.3.6-.8,1-1.5,1.3h0Z"/>
            <path id="DejaVuSans-2013" d="M617.6,56.7"/>
            <path id="DejaVuSans-283" d="M623.9,49.1c-.4.7-.8,1.5-1,2.2s-.3,1.5-.3,2.2,0,1.5.3,2.2.5,1.5,1,2.2h-.8c-.5-.8-.9-1.5-1.1-2.3-.2-.7-.4-1.5-.4-2.2s0-1.5.4-2.2c.2-.7.6-1.5,1.1-2.3h.8v.2Z"/>
            <path id="DejaVuSans-2d" d="M625.2,53.6h2.6v.8h-2.6v-.8Z"/>
            <path id="DejaVuSans-736" d="M632.7,51.4v.9c-.3,0-.5-.2-.8-.3h-.9c-.4,0-.8,0-1,.2-.2,0-.3.3-.3.6s0,.4.2.5.5.2,1,.3h.3c.6.2,1.1.4,1.4.6s.4.6.4,1-.2.9-.6,1.2c-.4.3-1,.4-1.7.4h-.9c-.3,0-.7,0-1-.3v-.9c.3.2.7.3,1,.4.3,0,.6,0,1,0s.7,0,1-.2c.2,0,.3-.3.3-.6s0-.4-.2-.6c-.2,0-.5-.3-1.1-.4h-.3c-.6-.2-1-.4-1.2-.6-.2-.2-.4-.6-.4-1s.2-.9.5-1.2c.4-.3.9-.4,1.6-.4h.9c.3,0,.6,0,.8.2h0Z"/>
            <path id="DejaVuSans-696" d="M634.5,51.2h.9v5.5h-.9v-5.5ZM634.5,49.1h.9v1.1h-.9v-1.1Z"/>
            <path id="DejaVuSans-6e3" d="M641.8,53.4v3.3h-.9v-3.3c0-.5,0-.9-.3-1.2s-.5-.4-.9-.4-.9.2-1.1.5c-.3.3-.4.7-.4,1.3v3.1h-.9v-5.5h.9v.9c.2-.3.5-.6.8-.7.3-.2.6-.2,1-.2.6,0,1.1.2,1.4.6.3.4.5,1,.5,1.7h0Z"/>
            <path id="DejaVuSans-293" d="M643.4,49.1h.8c.5.8.9,1.5,1.1,2.3.2.7.4,1.5.4,2.2s0,1.5-.4,2.2c-.2.7-.6,1.5-1.1,2.3h-.8c.4-.7.8-1.5,1-2.2s.3-1.5.3-2.2,0-1.5-.3-2.2-.5-1.5-1-2.2v-.2Z"/>
          </g>
        </g>
        <g id="line2d_29">
          <path class="st3" d="M558.9,67.9h20"/>
        </g>
        <g id="text_17">
          <g>
            <path id="DejaVuSans-534" d="M592.2,64.3v1c-.4-.2-.7-.3-1.1-.4-.3,0-.7,0-1,0-.5,0-1,0-1.2.3-.3.2-.4.5-.4.9s0,.6.3.7c.2.2.6.3,1.1.4h.6c.7.3,1.3.5,1.6.9s.5.8.5,1.4-.2,1.2-.7,1.6-1.2.5-2.1.5-.7,0-1.1,0c-.4,0-.8-.2-1.2-.3v-1c.4.2.8.4,1.2.5s.8.2,1.1.2c.6,0,1,0,1.3-.3.3-.2.5-.5.5-.9s0-.6-.3-.8-.6-.4-1.1-.5h-.6c-.7-.3-1.3-.5-1.6-.8s-.5-.7-.5-1.3.2-1.2.7-1.5c.5-.4,1.1-.6,1.9-.6h1c.4,0,.7.2,1.1.3h0Z"/>
            <path id="DejaVuSans-433" d="M599.7,64.7v1c-.3-.3-.7-.5-1.1-.7-.4-.2-.8-.2-1.2-.2-.8,0-1.5.3-1.9.8s-.7,1.2-.7,2.2.2,1.7.7,2.2,1.1.8,1.9.8.8,0,1.2-.2.7-.4,1.1-.7v1c-.3.2-.7.4-1.1.5-.4,0-.8.2-1.2.2-1.1,0-2-.3-2.6-1s-1-1.6-1-2.8.3-2.1,1-2.8c.6-.7,1.5-1,2.6-1s.8,0,1.2.2c.4,0,.7.3,1.1.5Z"/>
            <path id="DejaVuSans-323" d="M602.1,70.6h3.4v.8h-4.6v-.8c.4-.4.9-.9,1.5-1.6s1.1-1.1,1.2-1.3c.3-.4.5-.7.7-.9,0-.2.2-.5.2-.7,0-.4,0-.7-.4-.9-.3-.2-.6-.4-1.1-.4s-.6,0-1,.2c-.3,0-.7.3-1.1.5v-1c.4-.2.8-.3,1.1-.4.3,0,.7,0,.9,0,.8,0,1.4.2,1.8.6.4.4.7.9.7,1.5s0,.6-.2.9c0,.3-.3.6-.6.9,0,0-.3.4-.8.8-.4.5-1.1,1.1-1.8,1.9h0Z"/>
            <path id="DejaVuSans-2014" d="M606.6,71.4"/>
            <path id="DejaVuSans-493" d="M610.7,64.1h1v7.3h-1v-7.3Z"/>
            <path id="DejaVuSans-2015" d="M612.7,71.4"/>
            <path id="DejaVuSans-284" d="M619,63.8c-.4.7-.8,1.5-1,2.2s-.3,1.5-.3,2.2,0,1.5.3,2.2.5,1.5,1,2.2h-.8c-.5-.8-.9-1.5-1.1-2.3-.2-.7-.4-1.5-.4-2.2s0-1.5.4-2.2c.2-.7.6-1.5,1.1-2.3h.8v.2Z"/>
            <path id="DejaVuSans-633" d="M624.6,66.1v.8c-.3,0-.5-.2-.8-.3s-.5,0-.8,0c-.6,0-1,.2-1.4.6-.3.4-.5.9-.5,1.6s.2,1.2.5,1.6.8.6,1.4.6.5,0,.8,0,.5-.2.8-.3v.8c-.3,0-.5.2-.8.3h-.9c-.8,0-1.5-.3-2-.8s-.7-1.2-.7-2.1.2-1.6.7-2.1,1.2-.8,2-.8h.8c.3,0,.5,0,.8.3h.1Z"/>
            <path id="DejaVuSans-6f5" d="M628.3,66.6c-.5,0-.9.2-1.1.6s-.4.9-.4,1.5,0,1.2.4,1.5c.3.4.7.6,1.1.6s.9-.2,1.1-.6c.3-.4.4-.9.4-1.5s0-1.2-.4-1.5c-.3-.4-.7-.6-1.1-.6ZM628.3,65.8c.8,0,1.4.3,1.8.8.4.5.7,1.2.7,2.1s-.2,1.6-.7,2.1c-.4.5-1.1.8-1.8.8s-1.4-.3-1.8-.8c-.4-.5-.7-1.2-.7-2.1s.2-1.6.7-2.1c.4-.5,1.1-.8,1.8-.8Z"/>
            <path id="DejaVuSans-737" d="M635.8,66.1v.9c-.3,0-.5-.2-.8-.3h-.9c-.4,0-.8,0-1,.2-.2,0-.3.3-.3.6s0,.4.2.5.5.2,1,.3h.3c.6.2,1.1.4,1.4.6s.4.6.4,1-.2.9-.6,1.2c-.4.3-1,.4-1.7.4h-.9c-.3,0-.7,0-1-.3v-.9c.3.2.7.3,1,.4.3,0,.6,0,1,0s.7,0,1-.2c.2,0,.3-.3.3-.6s0-.4-.2-.6c-.2,0-.5-.3-1.1-.4h-.3c-.6-.2-1-.4-1.2-.6s-.4-.6-.4-1,.2-.9.5-1.2c.4-.3.9-.4,1.6-.4h.9c.3,0,.6,0,.8.2h0Z"/>
            <path id="DejaVuSans-294" d="M637.4,63.8h.8c.5.8.9,1.5,1.1,2.3.2.7.4,1.5.4,2.2s0,1.5-.4,2.2c-.2.7-.6,1.5-1.1,2.3h-.8c.4-.7.8-1.5,1-2.2s.3-1.5.3-2.2,0-1.5-.3-2.2-.5-1.5-1-2.2v-.2Z"/>
            <path id="DejaVuSans-2016" d="M640.5,71.4"/>
            <path id="DejaVuSans-535" d="M649,64.3v1c-.4-.2-.7-.3-1.1-.4-.3,0-.7,0-1,0-.5,0-1,0-1.2.3-.3.2-.4.5-.4.9s0,.6.3.7c.2.2.6.3,1.1.4h.6c.7.3,1.3.5,1.6.9s.5.8.5,1.4-.2,1.2-.7,1.6-1.2.5-2.1.5-.7,0-1.1,0c-.4,0-.8-.2-1.2-.3v-1c.4.2.8.4,1.2.5s.8.2,1.1.2c.6,0,1,0,1.3-.3.3-.2.5-.5.5-.9s0-.6-.3-.8-.6-.4-1.1-.5h-.6c-.7-.3-1.3-.5-1.6-.8s-.5-.7-.5-1.3.2-1.2.7-1.5c.5-.4,1.1-.6,1.9-.6h1c.4,0,.7.2,1.1.3h0Z"/>
            <path id="DejaVuSans-791" d="M653.2,71.9c-.3.7-.5,1.1-.7,1.3-.2.2-.6.3-1,.3h-.7v-.8h.5c.2,0,.4,0,.6-.2s.3-.4.5-.8l.2-.4-2.2-5.4h1l1.7,4.3,1.7-4.3h1l-2.4,6h-.2Z"/>
            <path id="DejaVuSans-6d4" d="M661.1,67c.2-.4.5-.7.8-.9s.7-.3,1.1-.3,1,.2,1.3.6.5,1,.5,1.7v3.3h-.9v-3.3c0-.5,0-.9-.3-1.2-.2-.3-.5-.4-.8-.4s-.8.2-1.1.5-.4.7-.4,1.3v3.1h-.9v-3.3c0-.5,0-.9-.3-1.2s-.5-.4-.9-.4-.8.2-1.1.5-.4.7-.4,1.3v3.1h-.9v-5.5h.9v.9c.2-.3.5-.6.7-.7s.6-.2,1-.2.7,0,1,.3c.3.2.5.5.6.9h.1Z"/>
            <path id="DejaVuSans-622" d="M670.5,68.7c0-.7,0-1.2-.4-1.6s-.6-.6-1.1-.6-.9.2-1.1.6-.4.9-.4,1.6,0,1.2.4,1.6c.3.4.6.6,1.1.6s.8-.2,1.1-.6.4-.9.4-1.6ZM667.5,66.8c.2-.3.4-.6.7-.7.3-.2.6-.2,1-.2.7,0,1.2.3,1.6.8.4.5.6,1.2.6,2.1s-.2,1.6-.6,2.1c-.4.5-1,.8-1.6.8s-.7,0-1-.2-.5-.4-.7-.7v.8h-.9v-7.6h.9v3-.2Z"/>
            <path id="DejaVuSans-6f6" d="M675.1,66.6c-.5,0-.9.2-1.1.6s-.4.9-.4,1.5,0,1.2.4,1.5c.3.4.7.6,1.1.6s.9-.2,1.1-.6c.3-.4.4-.9.4-1.5s0-1.2-.4-1.5c-.3-.4-.7-.6-1.1-.6ZM675.1,65.8c.8,0,1.4.3,1.8.8.4.5.7,1.2.7,2.1s-.2,1.6-.7,2.1c-.4.5-1.1.8-1.8.8s-1.4-.3-1.8-.8c-.4-.5-.7-1.2-.7-2.1s.2-1.6.7-2.1c.4-.5,1.1-.8,1.8-.8Z"/>
            <path id="DejaVuSans-6c3" d="M679.1,63.8h.9v7.6h-.9v-7.6Z"/>
            <path id="DejaVuSans-3a1" d="M682.1,70.2h1v1.2h-1v-1.2ZM682.1,66.2h1v1.2h-1v-1.2Z"/>
            <path id="DejaVuSans-2017" d="M684.3,71.4"/>
            <path id="DejaVuSans-316" d="M688.7,70.6h1.6v-5.6l-1.8.4v-.9l1.7-.4h1v6.5h1.6v.8h-4.2v-.8h.1Z"/>
            <path id="DejaVuSans-309" d="M697,64.8c-.5,0-.9.3-1.1.8-.3.5-.4,1.3-.4,2.3s0,1.7.4,2.2c.3.5.6.8,1.1.8s.9-.3,1.2-.8.4-1.2.4-2.2,0-1.8-.4-2.3c-.3-.5-.6-.8-1.2-.8ZM697,64c.8,0,1.4.3,1.9,1,.4.6.6,1.6.6,2.8s-.2,2.2-.6,2.8c-.4.6-1.1,1-1.9,1s-1.4-.3-1.9-1c-.4-.6-.6-1.6-.6-2.8s.2-2.2.6-2.8c.4-.6,1.1-1,1.9-1Z"/>
          </g>
        </g>
        <g id="line2d_30">
          <path class="st6" d="M558.9,82.6h20"/>
        </g>
        <g id="text_18">
          <g>
            <path id="DejaVuSans-536" d="M592.2,79v1c-.4-.2-.7-.3-1.1-.4-.3,0-.7,0-1,0-.5,0-1,0-1.2.3-.3.2-.4.5-.4.9s0,.6.3.7c.2.2.6.3,1.1.4h.6c.7.3,1.3.5,1.6.9s.5.8.5,1.4-.2,1.2-.7,1.6-1.2.5-2.1.5-.7,0-1.1,0c-.4,0-.8-.2-1.2-.3v-1c.4.2.8.4,1.2.5s.8.2,1.1.2c.6,0,1,0,1.3-.3.3-.2.5-.5.5-.9s0-.6-.3-.8-.6-.4-1.1-.5h-.6c-.7-.3-1.3-.5-1.6-.8s-.5-.7-.5-1.3.2-1.2.7-1.5c.5-.4,1.1-.6,1.9-.6h1c.4,0,.7.2,1.1.3h0Z"/>
            <path id="DejaVuSans-434" d="M599.7,79.3v1c-.3-.3-.7-.5-1.1-.7-.4-.2-.8-.2-1.2-.2-.8,0-1.5.3-1.9.8s-.7,1.2-.7,2.2.2,1.7.7,2.2,1.1.8,1.9.8.8,0,1.2-.2.7-.4,1.1-.7v1c-.3.2-.7.4-1.1.5-.4,0-.8.2-1.2.2-1.1,0-2-.3-2.6-1s-1-1.6-1-2.8.3-2.1,1-2.8c.6-.7,1.5-1,2.6-1s.8,0,1.2.2c.4,0,.7.3,1.1.5Z"/>
            <path id="DejaVuSans-324" d="M602.1,85.2h3.4v.8h-4.6v-.8c.4-.4.9-.9,1.5-1.6s1.1-1.1,1.2-1.3c.3-.4.5-.7.7-.9,0-.2.2-.5.2-.7,0-.4,0-.7-.4-.9-.3-.2-.6-.4-1.1-.4s-.6,0-1,.2c-.3,0-.7.3-1.1.5v-1c.4-.2.8-.3,1.1-.4.3,0,.7,0,.9,0,.8,0,1.4.2,1.8.6.4.4.7.9.7,1.5s0,.6-.2.9c0,.3-.3.6-.6.9,0,0-.3.4-.8.8-.4.5-1.1,1.1-1.8,1.9h0Z"/>
            <path id="DejaVuSans-2018" d="M606.6,86.1"/>
            <path id="DejaVuSans-512" d="M613.7,79.5c-.7,0-1.3.3-1.7.8s-.6,1.3-.6,2.2.2,1.6.6,2.2c.4.5,1,.8,1.7.8s1.3-.3,1.7-.8.6-1.3.6-2.2-.2-1.6-.6-2.2c-.4-.5-1-.8-1.7-.8ZM615.1,85.9l1.3,1.4h-1.2l-1.1-1.2h-.4c-1,0-1.8-.3-2.5-1-.6-.7-.9-1.6-.9-2.8s.3-2.1.9-2.8c.6-.7,1.4-1,2.5-1s1.8.3,2.5,1c.6.7.9,1.6.9,2.8s-.2,1.6-.5,2.2-.8,1-1.5,1.3h0Z"/>
            <path id="DejaVuSans-2019" d="M617.6,86.1"/>
            <path id="DejaVuSans-285" d="M623.9,78.5c-.4.7-.8,1.5-1,2.2s-.3,1.5-.3,2.2,0,1.5.3,2.2.5,1.5,1,2.2h-.8c-.5-.8-.9-1.5-1.1-2.3-.2-.7-.4-1.5-.4-2.2s0-1.5.4-2.2c.2-.7.6-1.5,1.1-2.3h.8v.2Z"/>
            <path id="DejaVuSans-2d1" d="M625.2,82.9h2.6v.8h-2.6v-.8Z"/>
            <path id="DejaVuSans-738" d="M632.7,80.8v.9c-.3,0-.5-.2-.8-.3h-.9c-.4,0-.8,0-1,.2-.2,0-.3.3-.3.6s0,.4.2.5.5.2,1,.3h.3c.6.2,1.1.4,1.4.6s.4.6.4,1-.2.9-.6,1.2c-.4.3-1,.4-1.7.4h-.9c-.3,0-.7,0-1-.3v-.9c.3.2.7.3,1,.4.3,0,.6,0,1,0s.7,0,1-.2c.2,0,.3-.3.3-.6s0-.4-.2-.6c-.2,0-.5-.3-1.1-.4h-.3c-.6-.2-1-.4-1.2-.6s-.4-.6-.4-1,.2-.9.5-1.2c.4-.3.9-.4,1.6-.4h.9c.3,0,.6,0,.8.2h0Z"/>
            <path id="DejaVuSans-697" d="M634.5,80.6h.9v5.5h-.9v-5.5ZM634.5,78.5h.9v1.1h-.9v-1.1Z"/>
            <path id="DejaVuSans-6e4" d="M641.8,82.8v3.3h-.9v-3.3c0-.5,0-.9-.3-1.2-.2-.3-.5-.4-.9-.4s-.9.2-1.1.5c-.3.3-.4.7-.4,1.3v3.1h-.9v-5.5h.9v.9c.2-.3.5-.6.8-.7.3-.2.6-.2,1-.2.6,0,1.1.2,1.4.6.3.4.5,1,.5,1.7h0Z"/>
            <path id="DejaVuSans-295" d="M643.4,78.5h.8c.5.8.9,1.5,1.1,2.3.2.7.4,1.5.4,2.2s0,1.5-.4,2.2c-.2.7-.6,1.5-1.1,2.3h-.8c.4-.7.8-1.5,1-2.2s.3-1.5.3-2.2,0-1.5-.3-2.2-.5-1.5-1-2.2v-.2Z"/>
          </g>
        </g>
      </g>
    </g>
  </g>
</svg>