<?xml version="1.0" encoding="UTF-8"?>
<svg id="Ebene_1" xmlns="http://www.w3.org/2000/svg" xmlns:xlink="http://www.w3.org/1999/xlink" version="1.1" viewBox="0 0 870.4 389.9">
  <!-- Generator: Adobe Illustrator 29.4.0, SVG Export Plug-In . SVG Version: 2.1.0 Build 152)  -->
  <defs>
    <style>
      .st0, .st1, .st2, .st3, .st4 {
        fill: none;
      }

      .st1 {
        stroke: #2d3580;
        stroke-linecap: round;
        stroke-width: 1.5px;
      }

      .st1, .st2, .st5, .st6, .st7, .st4 {
        stroke-linejoin: round;
      }

      .st8 {
        isolation: isolate;
        opacity: .8;
        stroke: #ccc;
      }

      .st8, .st9 {
        fill: #fff;
      }

      .st2 {
        stroke: #b0b0b0;
      }

      .st2, .st7, .st3 {
        stroke-width: .8px;
      }

      .st2, .st3 {
        stroke-linecap: square;
      }

      .st10, .st5 {
        fill: blue;
      }

      .st11 {
        clip-path: url(#clippath-11);
      }

      .st12 {
        clip-path: url(#clippath-16);
      }

      .st13 {
        clip-path: url(#clippath-10);
      }

      .st14 {
        clip-path: url(#clippath-15);
      }

      .st15 {
        clip-path: url(#clippath-13);
      }

      .st16 {
        clip-path: url(#clippath-14);
      }

      .st17 {
        clip-path: url(#clippath-12);
      }

      .st18 {
        clip-path: url(#clippath-1);
      }

      .st19 {
        clip-path: url(#clippath-3);
      }

      .st20 {
        clip-path: url(#clippath-4);
      }

      .st21 {
        clip-path: url(#clippath-2);
      }

      .st22 {
        clip-path: url(#clippath-7);
      }

      .st23 {
        clip-path: url(#clippath-6);
      }

      .st24 {
        clip-path: url(#clippath-9);
      }

      .st25 {
        clip-path: url(#clippath-8);
      }

      .st26 {
        clip-path: url(#clippath-5);
      }

      .st27 {
        fill: #2d3580;
      }

      .st5 {
        stroke: blue;
      }

      .st6 {
        fill: #53becb;
        stroke: #53becb;
      }

      .st7, .st3, .st4 {
        stroke: #000;
      }

      .st4 {
        stroke-dasharray: 3.7 1.6;
      }

      .st28 {
        clip-path: url(#clippath);
      }
    </style>
    <clipPath id="clippath">
      <rect class="st0" x="274.3" y="9.7" width="332.6" height="332.6"/>
    </clipPath>
    <clipPath id="clippath-1">
      <rect class="st0" x="274.3" y="9.7" width="332.6" height="332.6"/>
    </clipPath>
    <clipPath id="clippath-2">
      <rect class="st0" x="274.3" y="9.7" width="332.6" height="332.6"/>
    </clipPath>
    <clipPath id="clippath-3">
      <rect class="st0" x="274.3" y="9.7" width="332.6" height="332.6"/>
    </clipPath>
    <clipPath id="clippath-4">
      <rect class="st0" x="274.3" y="9.7" width="332.6" height="332.6"/>
    </clipPath>
    <clipPath id="clippath-5">
      <rect class="st0" x="274.3" y="9.7" width="332.6" height="332.6"/>
    </clipPath>
    <clipPath id="clippath-6">
      <rect class="st0" x="274.3" y="9.7" width="332.6" height="332.6"/>
    </clipPath>
    <clipPath id="clippath-7">
      <rect class="st0" x="274.3" y="9.7" width="332.6" height="332.6"/>
    </clipPath>
    <clipPath id="clippath-8">
      <rect class="st0" x="274.3" y="9.7" width="332.6" height="332.6"/>
    </clipPath>
    <clipPath id="clippath-9">
      <rect class="st0" x="274.3" y="9.7" width="332.6" height="332.6"/>
    </clipPath>
    <clipPath id="clippath-10">
      <rect class="st0" x="274.3" y="9.7" width="332.6" height="332.6"/>
    </clipPath>
    <clipPath id="clippath-11">
      <rect class="st0" x="274.3" y="9.7" width="332.6" height="332.6"/>
    </clipPath>
    <clipPath id="clippath-12">
      <rect class="st0" x="274.3" y="9.7" width="332.6" height="332.6"/>
    </clipPath>
    <clipPath id="clippath-13">
      <rect class="st0" x="274.3" y="9.7" width="332.6" height="332.6"/>
    </clipPath>
    <clipPath id="clippath-14">
      <rect class="st0" x="274.3" y="9.7" width="332.6" height="332.6"/>
    </clipPath>
    <clipPath id="clippath-15">
      <rect class="st0" x="274.3" y="9.7" width="332.6" height="332.6"/>
    </clipPath>
    <clipPath id="clippath-16">
      <rect class="st0" x="274.3" y="9.7" width="332.6" height="332.6"/>
    </clipPath>
  </defs>
  <g id="figure_1">
    <g id="axes_1">
      <g id="patch_2">
        <path class="st9" d="M274.3,342.4h332.6V9.7h-332.6v332.6Z"/>
      </g>
      <g id="PathCollection_1">
        <g class="st28">
          <g>
            <path id="m1becafbcf3" class="st6" d="M551.5,182.2c1.6,0,3.2-.6,4.3-1.8,1.1-1.1,1.8-2.7,1.8-4.3s-.6-3.2-1.8-4.3c-1.1-1.1-2.7-1.8-4.3-1.8s-3.2.6-4.3,1.8c-1.1,1.1-1.8,2.7-1.8,4.3s.6,3.2,1.8,4.3c1.1,1.1,2.7,1.8,4.3,1.8Z"/>
            <path id="m1becafbcf31" data-name="m1becafbcf3" class="st6" d="M519,103.8c1.6,0,3.2-.6,4.3-1.8,1.1-1.1,1.8-2.7,1.8-4.3s-.6-3.2-1.8-4.3c-1.1-1.1-2.7-1.8-4.3-1.8s-3.2.6-4.3,1.8c-1.1,1.1-1.8,2.7-1.8,4.3s.6,3.2,1.8,4.3c1.1,1.1,2.7,1.8,4.3,1.8Z"/>
            <path id="m1becafbcf32" data-name="m1becafbcf3" class="st6" d="M440.6,71.3c1.6,0,3.2-.6,4.3-1.8,1.1-1.1,1.8-2.7,1.8-4.3s-.6-3.2-1.8-4.3c-1.1-1.1-2.7-1.8-4.3-1.8s-3.2.6-4.3,1.8c-1.1,1.1-1.8,2.7-1.8,4.3s.6,3.2,1.8,4.3c1.1,1.1,2.7,1.8,4.3,1.8Z"/>
            <path id="m1becafbcf33" data-name="m1becafbcf3" class="st6" d="M362.2,103.8c1.6,0,3.2-.6,4.3-1.8,1.1-1.1,1.8-2.7,1.8-4.3s-.6-3.2-1.8-4.3c-1.1-1.1-2.7-1.8-4.3-1.8s-3.2.6-4.3,1.8c-1.1,1.1-1.8,2.7-1.8,4.3s.6,3.2,1.8,4.3c1.1,1.1,2.7,1.8,4.3,1.8Z"/>
            <path id="m1becafbcf34" data-name="m1becafbcf3" class="st6" d="M329.7,182.2c1.6,0,3.2-.6,4.3-1.8,1.1-1.1,1.8-2.7,1.8-4.3s-.6-3.2-1.8-4.3c-1.1-1.1-2.7-1.8-4.3-1.8s-3.2.6-4.3,1.8c-1.1,1.1-1.8,2.7-1.8,4.3s.6,3.2,1.8,4.3c1.1,1.1,2.7,1.8,4.3,1.8Z"/>
            <path id="m1becafbcf35" data-name="m1becafbcf3" class="st6" d="M362.2,260.6c1.6,0,3.2-.6,4.3-1.8,1.1-1.1,1.8-2.7,1.8-4.3s-.6-3.2-1.8-4.3c-1.1-1.1-2.7-1.8-4.3-1.8s-3.2.6-4.3,1.8c-1.1,1.1-1.8,2.7-1.8,4.3s.6,3.2,1.8,4.3c1.1,1.1,2.7,1.8,4.3,1.8Z"/>
            <path id="m1becafbcf36" data-name="m1becafbcf3" class="st6" d="M440.6,293c1.6,0,3.2-.6,4.3-1.8,1.1-1.1,1.8-2.7,1.8-4.3s-.6-3.2-1.8-4.3c-1.1-1.1-2.7-1.8-4.3-1.8s-3.2.6-4.3,1.8c-1.1,1.1-1.8,2.7-1.8,4.3s.6,3.2,1.8,4.3c1.1,1.1,2.7,1.8,4.3,1.8Z"/>
            <path id="m1becafbcf37" data-name="m1becafbcf3" class="st6" d="M519,260.6c1.6,0,3.2-.6,4.3-1.8,1.1-1.1,1.8-2.7,1.8-4.3s-.6-3.2-1.8-4.3c-1.1-1.1-2.7-1.8-4.3-1.8s-3.2.6-4.3,1.8c-1.1,1.1-1.8,2.7-1.8,4.3s.6,3.2,1.8,4.3c1.1,1.1,2.7,1.8,4.3,1.8Z"/>
          </g>
        </g>
      </g>
      <g id="PathCollection_2">
        <g class="st18">
          <path id="m16787d7fa7" class="st5" d="M440.6,179.6c.9,0,1.8-.4,2.5-1s1-1.6,1-2.5-.4-1.8-1-2.5-1.6-1-2.5-1-1.8.4-2.5,1-1,1.6-1,2.5.4,1.8,1,2.5,1.6,1,2.5,1Z"/>
        </g>
      </g>
      <g id="matplotlib.axis_1">
        <g id="xtick_1">
          <g id="line2d_1">
            <g class="st21">
              <path class="st2" d="M274.3,342.4V9.7"/>
            </g>
          </g>
          <g id="line2d_2">
            <path id="m3b9d98e04f" class="st7" d="M274.3,342.4v3.5"/>
          </g>
          <g id="text_1">
            <g>
              <path id="DejaVuSans-2212" d="M263.2,353.4h6.3v.8h-6.3v-.8Z"/>
              <path id="DejaVuSans-31" d="M271.8,356.1h1.6v-5.6l-1.8.4v-.9l1.7-.4h1v6.5h1.6v.8h-4.2v-.8Z"/>
              <path id="DejaVuSans-2e" d="M278,355.7h1v1.2h-1v-1.2Z"/>
              <path id="DejaVuSans-35" d="M281.2,349.7h3.9v.8h-3v1.8c.1,0,.3,0,.4-.1.1,0,.3,0,.4,0,.8,0,1.5.2,1.9.7.5.4.7,1,.7,1.8s-.2,1.4-.7,1.8c-.5.4-1.2.7-2.1.7s-.6,0-.9,0c-.3,0-.6-.1-1-.2v-1c.3.2.6.3.9.4s.6.1,1,.1c.6,0,1-.1,1.3-.4.3-.3.5-.7.5-1.2s-.2-.9-.5-1.2c-.3-.3-.8-.4-1.3-.4s-.5,0-.8,0c-.3,0-.5.1-.8.3v-3.7Z"/>
            </g>
          </g>
        </g>
        <g id="xtick_2">
          <g id="line2d_3">
            <g class="st19">
              <path class="st2" d="M329.7,342.4V9.7"/>
            </g>
          </g>
          <g id="line2d_4">
            <path id="m3b9d98e04f1" data-name="m3b9d98e04f" class="st7" d="M329.7,342.4v3.5"/>
          </g>
          <g id="text_2">
            <g>
              <path id="DejaVuSans-22121" data-name="DejaVuSans-2212" d="M318.7,353.4h6.3v.8h-6.3v-.8Z"/>
              <path id="DejaVuSans-311" data-name="DejaVuSans-31" d="M327.2,356.1h1.6v-5.6l-1.8.4v-.9l1.7-.4h1v6.5h1.6v.8h-4.2v-.8Z"/>
              <path id="DejaVuSans-2e1" data-name="DejaVuSans-2e" d="M333.4,355.7h1v1.2h-1v-1.2Z"/>
              <path id="DejaVuSans-30" d="M338.7,350.3c-.5,0-.9.3-1.1.8-.3.5-.4,1.3-.4,2.3s.1,1.7.4,2.2c.3.5.6.8,1.1.8s.9-.3,1.2-.8c.3-.5.4-1.2.4-2.2s-.1-1.8-.4-2.3c-.3-.5-.6-.8-1.2-.8ZM338.7,349.5c.8,0,1.4.3,1.9,1,.4.6.6,1.6.6,2.8s-.2,2.2-.6,2.8c-.4.6-1.1,1-1.9,1s-1.4-.3-1.9-1c-.4-.6-.6-1.6-.6-2.8s.2-2.2.6-2.8c.4-.6,1.1-1,1.9-1Z"/>
            </g>
          </g>
        </g>
        <g id="xtick_3">
          <g id="line2d_5">
            <g class="st20">
              <path class="st2" d="M385.2,342.4V9.7"/>
            </g>
          </g>
          <g id="line2d_6">
            <path id="m3b9d98e04f2" data-name="m3b9d98e04f" class="st7" d="M385.2,342.4v3.5"/>
          </g>
          <g id="text_3">
            <g>
              <path id="DejaVuSans-22122" data-name="DejaVuSans-2212" d="M374.1,353.4h6.3v.8h-6.3v-.8Z"/>
              <path id="DejaVuSans-301" data-name="DejaVuSans-30" d="M384.6,350.3c-.5,0-.9.3-1.1.8-.3.5-.4,1.3-.4,2.3s.1,1.7.4,2.2c.3.5.6.8,1.1.8s.9-.3,1.2-.8c.3-.5.4-1.2.4-2.2s-.1-1.8-.4-2.3c-.3-.5-.6-.8-1.2-.8ZM384.6,349.5c.8,0,1.4.3,1.9,1,.4.6.6,1.6.6,2.8s-.2,2.2-.6,2.8c-.4.6-1.1,1-1.9,1s-1.4-.3-1.9-1c-.4-.6-.6-1.6-.6-2.8s.2-2.2.6-2.8c.4-.6,1.1-1,1.9-1Z"/>
              <path id="DejaVuSans-2e2" data-name="DejaVuSans-2e" d="M388.8,355.7h1v1.2h-1v-1.2Z"/>
              <path id="DejaVuSans-351" data-name="DejaVuSans-35" d="M392,349.7h3.9v.8h-3v1.8c.1,0,.3,0,.4-.1.1,0,.3,0,.4,0,.8,0,1.5.2,1.9.7.5.4.7,1,.7,1.8s-.2,1.4-.7,1.8c-.5.4-1.2.7-2.1.7s-.6,0-.9,0c-.3,0-.6-.1-1-.2v-1c.3.2.6.3.9.4s.6.1,1,.1c.6,0,1-.1,1.3-.4.3-.3.5-.7.5-1.2s-.2-.9-.5-1.2c-.3-.3-.8-.4-1.3-.4s-.5,0-.8,0c-.3,0-.5.1-.8.3v-3.7Z"/>
            </g>
          </g>
        </g>
        <g id="xtick_4">
          <g id="line2d_7">
            <g class="st26">
              <path class="st2" d="M440.6,342.4V9.7"/>
            </g>
          </g>
          <g id="line2d_8">
            <path id="m3b9d98e04f3" data-name="m3b9d98e04f" class="st7" d="M440.6,342.4v3.5"/>
          </g>
          <g id="text_4">
            <g>
              <path id="DejaVuSans-302" data-name="DejaVuSans-30" d="M435.8,350.3c-.5,0-.9.3-1.1.8-.3.5-.4,1.3-.4,2.3s.1,1.7.4,2.2c.3.5.6.8,1.1.8s.9-.3,1.2-.8c.3-.5.4-1.2.4-2.2s-.1-1.8-.4-2.3c-.3-.5-.6-.8-1.2-.8ZM435.8,349.5c.8,0,1.4.3,1.9,1,.4.6.6,1.6.6,2.8s-.2,2.2-.6,2.8c-.4.6-1.1,1-1.9,1s-1.4-.3-1.9-1c-.4-.6-.6-1.6-.6-2.8s.2-2.2.6-2.8c.4-.6,1.1-1,1.9-1Z"/>
              <path id="DejaVuSans-2e3" data-name="DejaVuSans-2e" d="M440.1,355.7h1v1.2h-1v-1.2Z"/>
              <path id="DejaVuSans-303" data-name="DejaVuSans-30" d="M445.4,350.3c-.5,0-.9.3-1.1.8-.3.5-.4,1.3-.4,2.3s.1,1.7.4,2.2c.3.5.6.8,1.1.8s.9-.3,1.2-.8c.3-.5.4-1.2.4-2.2s-.1-1.8-.4-2.3c-.3-.5-.6-.8-1.2-.8ZM445.4,349.5c.8,0,1.4.3,1.9,1,.4.6.6,1.6.6,2.8s-.2,2.2-.6,2.8c-.4.6-1.1,1-1.9,1s-1.4-.3-1.9-1c-.4-.6-.6-1.6-.6-2.8s.2-2.2.6-2.8c.4-.6,1.1-1,1.9-1Z"/>
            </g>
          </g>
        </g>
        <g id="xtick_5">
          <g id="line2d_9">
            <g class="st23">
              <path class="st2" d="M496.1,342.4V9.7"/>
            </g>
          </g>
          <g id="line2d_10">
            <path id="m3b9d98e04f4" data-name="m3b9d98e04f" class="st7" d="M496.1,342.4v3.5"/>
          </g>
          <g id="text_5">
            <g>
              <path id="DejaVuSans-304" data-name="DejaVuSans-30" d="M491.3,350.3c-.5,0-.9.3-1.1.8-.3.5-.4,1.3-.4,2.3s.1,1.7.4,2.2c.3.5.6.8,1.1.8s.9-.3,1.2-.8c.3-.5.4-1.2.4-2.2s-.1-1.8-.4-2.3c-.3-.5-.6-.8-1.2-.8ZM491.3,349.5c.8,0,1.4.3,1.9,1,.4.6.6,1.6.6,2.8s-.2,2.2-.6,2.8c-.4.6-1.1,1-1.9,1s-1.4-.3-1.9-1c-.4-.6-.6-1.6-.6-2.8s.2-2.2.6-2.8c.4-.6,1.1-1,1.9-1Z"/>
              <path id="DejaVuSans-2e4" data-name="DejaVuSans-2e" d="M495.5,355.7h1v1.2h-1v-1.2Z"/>
              <path id="DejaVuSans-352" data-name="DejaVuSans-35" d="M498.7,349.7h3.9v.8h-3v1.8c.1,0,.3,0,.4-.1.1,0,.3,0,.4,0,.8,0,1.5.2,1.9.7.5.4.7,1,.7,1.8s-.2,1.4-.7,1.8c-.5.4-1.2.7-2.1.7s-.6,0-.9,0c-.3,0-.6-.1-1-.2v-1c.3.2.6.3.9.4s.6.1,1,.1c.6,0,1-.1,1.3-.4.3-.3.5-.7.5-1.2s-.2-.9-.5-1.2c-.3-.3-.8-.4-1.3-.4s-.5,0-.8,0c-.3,0-.5.1-.8.3v-3.7Z"/>
            </g>
          </g>
        </g>
        <g id="xtick_6">
          <g id="line2d_11">
            <g class="st22">
              <path class="st2" d="M551.5,342.4V9.7"/>
            </g>
          </g>
          <g id="line2d_12">
            <path id="m3b9d98e04f5" data-name="m3b9d98e04f" class="st7" d="M551.5,342.4v3.5"/>
          </g>
          <g id="text_6">
            <g>
              <path id="DejaVuSans-312" data-name="DejaVuSans-31" d="M544.8,356.1h1.6v-5.6l-1.8.4v-.9l1.7-.4h1v6.5h1.6v.8h-4.2v-.8Z"/>
              <path id="DejaVuSans-2e5" data-name="DejaVuSans-2e" d="M551,355.7h1v1.2h-1v-1.2Z"/>
              <path id="DejaVuSans-305" data-name="DejaVuSans-30" d="M556.3,350.3c-.5,0-.9.3-1.1.8-.3.5-.4,1.3-.4,2.3s.1,1.7.4,2.2c.3.5.6.8,1.1.8s.9-.3,1.2-.8c.3-.5.4-1.2.4-2.2s-.1-1.8-.4-2.3c-.3-.5-.6-.8-1.2-.8ZM556.3,349.5c.8,0,1.4.3,1.9,1,.4.6.6,1.6.6,2.8s-.2,2.2-.6,2.8c-.4.6-1.1,1-1.9,1s-1.4-.3-1.9-1c-.4-.6-.6-1.6-.6-2.8s.2-2.2.6-2.8c.4-.6,1.1-1,1.9-1Z"/>
            </g>
          </g>
        </g>
        <g id="xtick_7">
          <g id="line2d_13">
            <g class="st25">
              <path class="st2" d="M606.9,342.4V9.7"/>
            </g>
          </g>
          <g id="line2d_14">
            <path id="m3b9d98e04f6" data-name="m3b9d98e04f" class="st7" d="M606.9,342.4v3.5"/>
          </g>
          <g id="text_7">
            <g>
              <path id="DejaVuSans-313" data-name="DejaVuSans-31" d="M600.2,356.1h1.6v-5.6l-1.8.4v-.9l1.7-.4h1v6.5h1.6v.8h-4.2v-.8Z"/>
              <path id="DejaVuSans-2e6" data-name="DejaVuSans-2e" d="M606.4,355.7h1v1.2h-1v-1.2Z"/>
              <path id="DejaVuSans-353" data-name="DejaVuSans-35" d="M609.6,349.7h3.9v.8h-3v1.8c.1,0,.3,0,.4-.1.1,0,.3,0,.4,0,.8,0,1.5.2,1.9.7.5.4.7,1,.7,1.8s-.2,1.4-.7,1.8c-.5.4-1.2.7-2.1.7s-.6,0-.9,0c-.3,0-.6-.1-1-.2v-1c.3.2.6.3.9.4s.6.1,1,.1c.6,0,1-.1,1.3-.4.3-.3.5-.7.5-1.2s-.2-.9-.5-1.2c-.3-.3-.8-.4-1.3-.4s-.5,0-.8,0c-.3,0-.5.1-.8.3v-3.7Z"/>
            </g>
          </g>
        </g>
        <g id="text_8">
          <g>
            <path id="DejaVuSans-49" d="M413.1,363.3h1v7.3h-1v-7.3Z"/>
            <path id="DejaVuSans-6e" d="M420.5,367.3v3.3h-.9v-3.3c0-.5-.1-.9-.3-1.2-.2-.3-.5-.4-.9-.4s-.9.2-1.1.5c-.3.3-.4.7-.4,1.3v3.1h-.9v-5.5h.9v.9c.2-.3.5-.6.8-.7.3-.2.6-.2,1-.2.6,0,1.1.2,1.4.6.3.4.5,1,.5,1.7Z"/>
            <path id="DejaVuSans-2d" d="M421.9,367.5h2.6v.8h-2.6v-.8Z"/>
            <path id="DejaVuSans-70" d="M426.8,369.8v2.9h-.9v-7.5h.9v.8c.2-.3.4-.6.7-.7.3-.2.6-.2,1-.2.7,0,1.2.3,1.6.8.4.5.6,1.2.6,2.1s-.2,1.6-.6,2.1c-.4.5-1,.8-1.6.8s-.7,0-1-.2c-.3-.2-.5-.4-.7-.7ZM429.9,367.9c0-.7-.1-1.2-.4-1.6s-.6-.6-1.1-.6-.9.2-1.1.6-.4.9-.4,1.6.1,1.2.4,1.6c.3.4.6.6,1.1.6s.8-.2,1.1-.6c.3-.4.4-.9.4-1.6Z"/>
            <path id="DejaVuSans-68" d="M436.8,367.3v3.3h-.9v-3.3c0-.5-.1-.9-.3-1.2-.2-.3-.5-.4-.9-.4s-.9.2-1.1.5c-.3.3-.4.7-.4,1.3v3.1h-.9v-7.6h.9v3c.2-.3.5-.6.8-.7.3-.2.6-.2,1-.2.6,0,1.1.2,1.4.6.3.4.5,1,.5,1.7Z"/>
            <path id="DejaVuSans-61" d="M441.1,367.9c-.7,0-1.2,0-1.5.2s-.4.4-.4.9.1.6.3.8c.2.2.5.3.9.3s.9-.2,1.2-.5.5-.8.5-1.4v-.2h-.9ZM442.9,367.5v3.1h-.9v-.8c-.2.3-.5.6-.8.7-.3.2-.7.2-1.1.2s-1-.2-1.3-.5c-.3-.3-.5-.7-.5-1.3s.2-1.1.6-1.4c.4-.3,1-.5,1.8-.5h1.3c0-.5-.1-.8-.4-1s-.7-.3-1.1-.3-.6,0-.9.1c-.3,0-.6.2-.9.3v-.8c.3-.1.6-.2,1-.3.3,0,.6,0,.9,0,.8,0,1.4.2,1.8.6.4.4.6,1,.6,1.9Z"/>
            <path id="DejaVuSans-73" d="M448.2,365.3v.9c-.3-.1-.5-.2-.8-.3-.3,0-.6,0-.9,0-.4,0-.8,0-1,.2-.2.1-.3.3-.3.6s0,.4.2.5.5.2,1,.3h.3c.6.2,1.1.4,1.4.6s.4.6.4,1-.2.9-.6,1.2c-.4.3-1,.4-1.7.4s-.6,0-.9,0c-.3,0-.7-.1-1-.3v-.9c.3.2.7.3,1,.4.3,0,.6.1,1,.1s.7,0,1-.2c.2-.1.3-.3.3-.6s0-.4-.2-.6c-.2-.1-.5-.3-1.1-.4h-.3c-.6-.2-1-.4-1.2-.6-.2-.2-.4-.6-.4-1s.2-.9.5-1.2c.4-.3.9-.4,1.6-.4s.6,0,.9,0c.3,0,.6.1.8.2Z"/>
            <path id="DejaVuSans-65" d="M454.7,367.7v.4h-4.1c0,.6.2,1.1.6,1.4.3.3.8.5,1.4.5s.7,0,1-.1.6-.2,1-.4v.9c-.3.1-.7.2-1,.3s-.7.1-1,.1c-.9,0-1.6-.3-2.1-.8-.5-.5-.8-1.2-.8-2.1s.2-1.6.7-2.1c.5-.5,1.1-.8,2-.8s1.3.2,1.7.7c.4.5.6,1.1.6,1.9ZM453.8,367.4c0-.5-.1-.9-.4-1.2-.3-.3-.6-.4-1.1-.4s-.9.1-1.2.4-.5.7-.5,1.2h3.2Z"/>
            <path id="DejaVuSans-20" d="M455.2,370.6"/>
            <path id="DejaVuSans-28" d="M461.5,363c-.4.7-.8,1.5-1,2.2-.2.7-.3,1.5-.3,2.2s.1,1.5.3,2.2.5,1.5,1,2.2h-.8c-.5-.8-.9-1.5-1.1-2.3-.2-.7-.4-1.5-.4-2.2s.1-1.5.4-2.2c.2-.7.6-1.5,1.1-2.3h.8Z"/>
            <path id="DejaVuSans-491" data-name="DejaVuSans-49" d="M463.2,363.3h1v7.3h-1v-7.3Z"/>
            <path id="DejaVuSans-29" d="M466,363h.8c.5.8.9,1.5,1.1,2.3.2.7.4,1.5.4,2.2s-.1,1.5-.4,2.2c-.2.7-.6,1.5-1.1,2.3h-.8c.4-.7.8-1.5,1-2.2.2-.7.3-1.5.3-2.2s-.1-1.5-.3-2.2c-.2-.7-.5-1.5-1-2.2Z"/>
          </g>
        </g>
      </g>
      <g id="matplotlib.axis_2">
        <g id="ytick_1">
          <g id="line2d_15">
            <g class="st24">
              <path class="st2" d="M274.3,342.4h332.6"/>
            </g>
          </g>
          <g id="line2d_16">
            <path id="mb7e8a65e84" class="st7" d="M274.3,342.4h-3.5"/>
          </g>
          <g id="text_9">
            <g>
              <path id="DejaVuSans-22123" data-name="DejaVuSans-2212" d="M244.1,342.6h6.3v.8h-6.3v-.8Z"/>
              <path id="DejaVuSans-314" data-name="DejaVuSans-31" d="M252.6,345.3h1.6v-5.6l-1.8.4v-.9l1.7-.4h1v6.5h1.6v.8h-4.2v-.8Z"/>
              <path id="DejaVuSans-2e7" data-name="DejaVuSans-2e" d="M258.8,344.9h1v1.2h-1v-1.2Z"/>
              <path id="DejaVuSans-354" data-name="DejaVuSans-35" d="M262,338.9h3.9v.8h-3v1.8c.1,0,.3,0,.4-.1.1,0,.3,0,.4,0,.8,0,1.5.2,1.9.7.5.4.7,1,.7,1.8s-.2,1.4-.7,1.8c-.5.4-1.2.7-2.1.7s-.6,0-.9,0c-.3,0-.6-.1-1-.2v-1c.3.2.6.3.9.4s.6.1,1,.1c.6,0,1-.1,1.3-.4.3-.3.5-.7.5-1.2s-.2-.9-.5-1.2c-.3-.3-.8-.4-1.3-.4s-.5,0-.8,0c-.3,0-.5.1-.8.3v-3.7Z"/>
            </g>
          </g>
        </g>
        <g id="ytick_2">
          <g id="line2d_17">
            <g class="st13">
              <path class="st2" d="M274.3,286.9h332.6"/>
            </g>
          </g>
          <g id="line2d_18">
            <path id="mb7e8a65e841" data-name="mb7e8a65e84" class="st7" d="M274.3,286.9h-3.5"/>
          </g>
          <g id="text_10">
            <g>
              <path id="DejaVuSans-22124" data-name="DejaVuSans-2212" d="M244.1,287.2h6.3v.8h-6.3v-.8Z"/>
              <path id="DejaVuSans-315" data-name="DejaVuSans-31" d="M252.6,289.9h1.6v-5.6l-1.8.4v-.9l1.7-.4h1v6.5h1.6v.8h-4.2v-.8Z"/>
              <path id="DejaVuSans-2e8" data-name="DejaVuSans-2e" d="M258.8,289.5h1v1.2h-1v-1.2Z"/>
              <path id="DejaVuSans-306" data-name="DejaVuSans-30" d="M264.1,284.1c-.5,0-.9.3-1.1.8-.3.5-.4,1.3-.4,2.3s.1,1.7.4,2.2c.3.5.6.8,1.1.8s.9-.3,1.2-.8c.3-.5.4-1.2.4-2.2s-.1-1.8-.4-2.3c-.3-.5-.6-.8-1.2-.8ZM264.1,283.3c.8,0,1.4.3,1.9,1,.4.6.6,1.6.6,2.8s-.2,2.2-.6,2.8c-.4.6-1.1,1-1.9,1s-1.4-.3-1.9-1c-.4-.6-.6-1.6-.6-2.8s.2-2.2.6-2.8c.4-.6,1.1-1,1.9-1Z"/>
            </g>
          </g>
        </g>
        <g id="ytick_3">
          <g id="line2d_19">
            <g class="st11">
              <path class="st2" d="M274.3,231.5h332.6"/>
            </g>
          </g>
          <g id="line2d_20">
            <path id="mb7e8a65e842" data-name="mb7e8a65e84" class="st7" d="M274.3,231.5h-3.5"/>
          </g>
          <g id="text_11">
            <g>
              <path id="DejaVuSans-22125" data-name="DejaVuSans-2212" d="M244.1,231.7h6.3v.8h-6.3v-.8Z"/>
              <path id="DejaVuSans-307" data-name="DejaVuSans-30" d="M254.6,228.6c-.5,0-.9.3-1.1.8-.3.5-.4,1.3-.4,2.3s.1,1.7.4,2.2c.3.5.6.8,1.1.8s.9-.3,1.2-.8c.3-.5.4-1.2.4-2.2s-.1-1.8-.4-2.3c-.3-.5-.6-.8-1.2-.8ZM254.6,227.9c.8,0,1.4.3,1.9,1,.4.6.6,1.6.6,2.8s-.2,2.2-.6,2.8c-.4.6-1.1,1-1.9,1s-1.4-.3-1.9-1c-.4-.6-.6-1.6-.6-2.8s.2-2.2.6-2.8c.4-.6,1.1-1,1.9-1Z"/>
              <path id="DejaVuSans-2e9" data-name="DejaVuSans-2e" d="M258.8,234h1v1.2h-1v-1.2Z"/>
              <path id="DejaVuSans-355" data-name="DejaVuSans-35" d="M262,228h3.9v.8h-3v1.8c.1,0,.3,0,.4-.1.1,0,.3,0,.4,0,.8,0,1.5.2,1.9.7.5.4.7,1,.7,1.8s-.2,1.4-.7,1.8c-.5.4-1.2.7-2.1.7s-.6,0-.9,0c-.3,0-.6-.1-1-.2v-1c.3.2.6.3.9.4s.6.1,1,.1c.6,0,1-.1,1.3-.4.3-.3.5-.7.5-1.2s-.2-.9-.5-1.2c-.3-.3-.8-.4-1.3-.4s-.5,0-.8,0c-.3,0-.5.1-.8.3v-3.7Z"/>
            </g>
          </g>
        </g>
        <g id="ytick_4">
          <g id="line2d_21">
            <g class="st17">
              <path class="st2" d="M274.3,176h332.6"/>
            </g>
          </g>
          <g id="line2d_22">
            <path id="mb7e8a65e843" data-name="mb7e8a65e84" class="st7" d="M274.3,176h-3.5"/>
          </g>
          <g id="text_12">
            <g>
              <path id="DejaVuSans-308" data-name="DejaVuSans-30" d="M254.6,173.2c-.5,0-.9.3-1.1.8-.3.5-.4,1.3-.4,2.3s.1,1.7.4,2.2c.3.5.6.8,1.1.8s.9-.3,1.2-.8c.3-.5.4-1.2.4-2.2s-.1-1.8-.4-2.3c-.3-.5-.6-.8-1.2-.8ZM254.6,172.4c.8,0,1.4.3,1.9,1,.4.6.6,1.6.6,2.8s-.2,2.2-.6,2.8c-.4.6-1.1,1-1.9,1s-1.4-.3-1.9-1c-.4-.6-.6-1.6-.6-2.8s.2-2.2.6-2.8c.4-.6,1.1-1,1.9-1Z"/>
              <path id="DejaVuSans-2e10" data-name="DejaVuSans-2e" d="M258.8,178.6h1v1.2h-1v-1.2Z"/>
              <path id="DejaVuSans-309" data-name="DejaVuSans-30" d="M264.1,173.2c-.5,0-.9.3-1.1.8-.3.5-.4,1.3-.4,2.3s.1,1.7.4,2.2c.3.5.6.8,1.1.8s.9-.3,1.2-.8c.3-.5.4-1.2.4-2.2s-.1-1.8-.4-2.3c-.3-.5-.6-.8-1.2-.8ZM264.1,172.4c.8,0,1.4.3,1.9,1,.4.6.6,1.6.6,2.8s-.2,2.2-.6,2.8c-.4.6-1.1,1-1.9,1s-1.4-.3-1.9-1c-.4-.6-.6-1.6-.6-2.8s.2-2.2.6-2.8c.4-.6,1.1-1,1.9-1Z"/>
            </g>
          </g>
        </g>
        <g id="ytick_5">
          <g id="line2d_23">
            <g class="st15">
              <path class="st2" d="M274.3,120.6h332.6"/>
            </g>
          </g>
          <g id="line2d_24">
            <path id="mb7e8a65e844" data-name="mb7e8a65e84" class="st7" d="M274.3,120.6h-3.5"/>
          </g>
          <g id="text_13">
            <g>
              <path id="DejaVuSans-3010" data-name="DejaVuSans-30" d="M254.6,117.8c-.5,0-.9.3-1.1.8-.3.5-.4,1.3-.4,2.3s.1,1.7.4,2.2c.3.5.6.8,1.1.8s.9-.3,1.2-.8c.3-.5.4-1.2.4-2.2s-.1-1.8-.4-2.3c-.3-.5-.6-.8-1.2-.8ZM254.6,117c.8,0,1.4.3,1.9,1,.4.6.6,1.6.6,2.8s-.2,2.2-.6,2.8c-.4.6-1.1,1-1.9,1s-1.4-.3-1.9-1c-.4-.6-.6-1.6-.6-2.8s.2-2.2.6-2.8c.4-.6,1.1-1,1.9-1Z"/>
              <path id="DejaVuSans-2e11" data-name="DejaVuSans-2e" d="M258.8,123.2h1v1.2h-1v-1.2Z"/>
              <path id="DejaVuSans-356" data-name="DejaVuSans-35" d="M262,117.1h3.9v.8h-3v1.8c.1,0,.3,0,.4-.1.1,0,.3,0,.4,0,.8,0,1.5.2,1.9.7.5.4.7,1,.7,1.8s-.2,1.4-.7,1.8c-.5.4-1.2.7-2.1.7s-.6,0-.9,0c-.3,0-.6-.1-1-.2v-1c.3.2.6.3.9.4s.6.1,1,.1c.6,0,1-.1,1.3-.4.3-.3.5-.7.5-1.2s-.2-.9-.5-1.2c-.3-.3-.8-.4-1.3-.4s-.5,0-.8,0c-.3,0-.5.1-.8.3v-3.7Z"/>
            </g>
          </g>
        </g>
        <g id="ytick_6">
          <g id="line2d_25">
            <g class="st16">
              <path class="st2" d="M274.3,65.2h332.6"/>
            </g>
          </g>
          <g id="line2d_26">
            <path id="mb7e8a65e845" data-name="mb7e8a65e84" class="st7" d="M274.3,65.2h-3.5"/>
          </g>
          <g id="text_14">
            <g>
              <path id="DejaVuSans-316" data-name="DejaVuSans-31" d="M252.6,68.1h1.6v-5.6l-1.8.4v-.9l1.7-.4h1v6.5h1.6v.8h-4.2v-.8Z"/>
              <path id="DejaVuSans-2e12" data-name="DejaVuSans-2e" d="M258.8,67.7h1v1.2h-1v-1.2Z"/>
              <path id="DejaVuSans-3011" data-name="DejaVuSans-30" d="M264.1,62.3c-.5,0-.9.3-1.1.8-.3.5-.4,1.3-.4,2.3s.1,1.7.4,2.2c.3.5.6.8,1.1.8s.9-.3,1.2-.8c.3-.5.4-1.2.4-2.2s-.1-1.8-.4-2.3c-.3-.5-.6-.8-1.2-.8ZM264.1,61.5c.8,0,1.4.3,1.9,1,.4.6.6,1.6.6,2.8s-.2,2.2-.6,2.8c-.4.6-1.1,1-1.9,1s-1.4-.3-1.9-1c-.4-.6-.6-1.6-.6-2.8s.2-2.2.6-2.8c.4-.6,1.1-1,1.9-1Z"/>
            </g>
          </g>
        </g>
        <g id="ytick_7">
          <g id="line2d_27">
            <g class="st14">
              <path class="st2" d="M274.3,9.7h332.6"/>
            </g>
          </g>
          <g id="line2d_28">
            <path id="mb7e8a65e846" data-name="mb7e8a65e84" class="st7" d="M274.3,9.7h-3.5"/>
          </g>
          <g id="text_15">
            <g>
              <path id="DejaVuSans-317" data-name="DejaVuSans-31" d="M252.6,12.7h1.6v-5.6l-1.8.4v-.9l1.7-.4h1v6.5h1.6v.8h-4.2v-.8Z"/>
              <path id="DejaVuSans-2e13" data-name="DejaVuSans-2e" d="M258.8,12.3h1v1.2h-1v-1.2Z"/>
              <path id="DejaVuSans-357" data-name="DejaVuSans-35" d="M262,6.2h3.9v.8h-3v1.8c.1,0,.3,0,.4-.1.1,0,.3,0,.4,0,.8,0,1.5.2,1.9.7.5.4.7,1,.7,1.8s-.2,1.4-.7,1.8c-.5.4-1.2.7-2.1.7s-.6,0-.9,0c-.3,0-.6-.1-1-.2v-1c.3.2.6.3.9.4s.6.1,1,.1c.6,0,1-.1,1.3-.4.3-.3.5-.7.5-1.2s-.2-.9-.5-1.2c-.3-.3-.8-.4-1.3-.4s-.5,0-.8,0c-.3,0-.5.1-.8.3v-3.7Z"/>
            </g>
          </g>
        </g>
        <g id="text_16">
          <g>
            <path id="DejaVuSans-51" d="M230.3,210.1c0,.7.3,1.3.8,1.7.5.4,1.3.6,2.2.6s1.6-.2,2.2-.6c.5-.4.8-1,.8-1.7s-.3-1.3-.8-1.7c-.5-.4-1.3-.6-2.2-.6s-1.6.2-2.2.6c-.5.4-.8,1-.8,1.7ZM236.8,208.8l1.4-1.3v1.2l-1.2,1.1c0,.1,0,.2,0,.2,0,0,0,.1,0,.2,0,1-.3,1.8-1,2.5-.7.6-1.6.9-2.8.9s-2.1-.3-2.8-.9c-.7-.6-1-1.4-1-2.5s.3-1.8,1-2.5c.7-.6,1.6-.9,2.8-.9s1.6.2,2.2.5c.6.3,1,.8,1.3,1.5Z"/>
            <path id="DejaVuSans-75" d="M234.8,205.4h-3.3v-.9h3.3c.5,0,.9-.1,1.2-.3.3-.2.4-.5.4-.9s-.2-.9-.5-1.1c-.3-.3-.7-.4-1.3-.4h-3.1v-.9h5.5v.9h-.8c.3.2.6.5.7.8.2.3.2.6.2,1,0,.6-.2,1.1-.6,1.4-.4.3-1,.5-1.7.5ZM231.3,203.1h0Z"/>
            <path id="DejaVuSans-611" data-name="DejaVuSans-61" d="M234.2,196.4c0,.7,0,1.2.2,1.5s.4.4.9.4.6-.1.8-.3c.2-.2.3-.5.3-.9s-.2-.9-.5-1.2-.8-.5-1.4-.5h-.2v.9ZM233.8,194.6h3.1v.9h-.8c.3.2.6.5.7.8.2.3.2.7.2,1.1s-.2,1-.5,1.3c-.3.3-.7.5-1.3.5s-1.1-.2-1.4-.6c-.3-.4-.5-1-.5-1.8v-1.3h0c-.4,0-.7.1-1,.4s-.3.7-.3,1.1,0,.6.1.9c0,.3.2.6.3.9h-.8c-.1-.3-.2-.6-.3-1,0-.3,0-.6,0-.9,0-.8.2-1.4.6-1.8.4-.4,1-.6,1.9-.6Z"/>
            <path id="DejaVuSans-64" d="M232.3,189.2h-3v-.9h7.6v.9h-.8c.3.2.6.4.7.7.2.3.2.6.2,1,0,.7-.3,1.2-.8,1.6-.5.4-1.2.6-2.1.6s-1.6-.2-2.1-.6c-.5-.4-.8-1-.8-1.6s0-.8.2-1c.2-.3.4-.5.7-.7ZM234.2,192.3c.7,0,1.2-.1,1.6-.4.4-.3.6-.6.6-1.1s-.2-.8-.6-1.1c-.4-.3-.9-.4-1.6-.4s-1.2.1-1.6.4c-.4.3-.6.6-.6,1.1s.2.8.6,1.1.9.4,1.6.4Z"/>
            <path id="DejaVuSans-72" d="M232.3,183.3c0,.1-.1.2-.1.3,0,.1,0,.2,0,.4,0,.5.2.9.5,1.2s.8.4,1.4.4h2.9v.9h-5.5v-.9h.9c-.3-.2-.6-.4-.7-.7-.2-.3-.2-.7-.2-1.1s0-.1,0-.2c0,0,0-.2,0-.2h.9Z"/>
            <path id="DejaVuSans-612" data-name="DejaVuSans-61" d="M234.2,179.9c0,.7,0,1.2.2,1.5s.4.4.9.4.6-.1.8-.3c.2-.2.3-.5.3-.9s-.2-.9-.5-1.2-.8-.5-1.4-.5h-.2v.9ZM233.8,178.1h3.1v.9h-.8c.3.2.6.5.7.8.2.3.2.7.2,1.1s-.2,1-.5,1.3c-.3.3-.7.5-1.3.5s-1.1-.2-1.4-.6c-.3-.4-.5-1-.5-1.8v-1.3h0c-.4,0-.7.1-1,.4s-.3.7-.3,1.1,0,.6.1.9c0,.3.2.6.3.9h-.8c-.1-.3-.2-.6-.3-1,0-.3,0-.6,0-.9,0-.8.2-1.4.6-1.8.4-.4,1-.6,1.9-.6Z"/>
            <path id="DejaVuSans-74" d="M229.9,175.3h1.6v-1.9h.7v1.9h3c.4,0,.7,0,.9-.2s.2-.4.2-.7v-.9h.8v.9c0,.7-.1,1.2-.4,1.4-.3.3-.7.4-1.4.4h-3v.7h-.7v-.7h-1.6v-.9Z"/>
            <path id="DejaVuSans-751" data-name="DejaVuSans-75" d="M234.8,172.4h-3.3v-.9h3.3c.5,0,.9-.1,1.2-.3.3-.2.4-.5.4-.9s-.2-.9-.5-1.1c-.3-.3-.7-.4-1.3-.4h-3.1v-.9h5.5v.9h-.8c.3.2.6.5.7.8.2.3.2.6.2,1,0,.6-.2,1.1-.6,1.4-.4.3-1,.5-1.7.5ZM231.3,170.1h0Z"/>
            <path id="DejaVuSans-721" data-name="DejaVuSans-72" d="M232.3,162.8c0,.1-.1.2-.1.3,0,.1,0,.2,0,.4,0,.5.2.9.5,1.2s.8.4,1.4.4h2.9v.9h-5.5v-.9h.9c-.3-.2-.6-.4-.7-.7-.2-.3-.2-.7-.2-1.1s0-.1,0-.2c0,0,0-.2,0-.2h.9Z"/>
            <path id="DejaVuSans-651" data-name="DejaVuSans-65" d="M234,157.4h.4v4.1c.6,0,1.1-.2,1.4-.6.3-.3.5-.8.5-1.4s0-.7-.1-1-.2-.6-.4-1h.9c.1.3.2.7.3,1s.1.7.1,1c0,.9-.3,1.6-.8,2.1-.5.5-1.2.8-2.1.8s-1.6-.2-2.1-.7c-.5-.5-.8-1.1-.8-2s.2-1.3.7-1.7c.5-.4,1.1-.6,1.9-.6ZM233.7,158.3c-.5,0-.9.1-1.2.4-.3.3-.4.6-.4,1.1s.1.9.4,1.2.7.5,1.2.5v-3.2Z"/>
            <path id="DejaVuSans-201" data-name="DejaVuSans-20" d="M236.9,156.9"/>
            <path id="DejaVuSans-281" data-name="DejaVuSans-28" d="M229.3,150.6c.7.4,1.5.8,2.2,1,.7.2,1.5.3,2.2.3s1.5-.1,2.2-.3,1.5-.5,2.2-1v.8c-.8.5-1.5.9-2.3,1.1-.7.2-1.5.4-2.2.4s-1.5-.1-2.2-.4c-.7-.2-1.5-.6-2.3-1.1v-.8Z"/>
            <path id="DejaVuSans-511" data-name="DejaVuSans-51" d="M230.3,145.8c0,.7.3,1.3.8,1.7.5.4,1.3.6,2.2.6s1.6-.2,2.2-.6c.5-.4.8-1,.8-1.7s-.3-1.3-.8-1.7c-.5-.4-1.3-.6-2.2-.6s-1.6.2-2.2.6c-.5.4-.8,1-.8,1.7ZM236.8,144.5l1.4-1.3v1.2l-1.2,1.1c0,.1,0,.2,0,.2,0,0,0,.1,0,.2,0,1-.3,1.8-1,2.5-.7.6-1.6.9-2.8.9s-2.1-.3-2.8-.9c-.7-.6-1-1.4-1-2.5s.3-1.8,1-2.5c.7-.6,1.6-.9,2.8-.9s1.6.2,2.2.5c.6.3,1,.8,1.3,1.5Z"/>
            <path id="DejaVuSans-291" data-name="DejaVuSans-29" d="M229.3,141.1v-.8c.8-.5,1.5-.9,2.3-1.1.7-.2,1.5-.4,2.2-.4s1.5.1,2.2.4c.7.2,1.5.6,2.3,1.1v.8c-.7-.4-1.5-.8-2.2-1-.7-.2-1.5-.3-2.2-.3s-1.5.1-2.2.3c-.7.2-1.5.5-2.2,1Z"/>
          </g>
        </g>
      </g>
      <g id="line2d_29">
        <g class="st12">
          <path class="st4" d="M551.5,176v-5.2c-.1,0-.5-5.2-.5-5.2l-.6-5.2-.9-5.2-1.1-5.1-1.3-5.1-1.6-5-1.8-4.9-2-4.8-2.3-4.7-2.5-4.6-2.7-4.5-2.9-4.4-3.1-4.2-3.3-4.1-3.5-3.9-3.7-3.7-3.9-3.5-4-3.4-4.2-3.2-4.3-3-4.5-2.8-4.6-2.5-4.7-2.3-4.8-2.1-4.9-1.9-5-1.6-5-1.4-5.1-1.2-5.2-.9-5.2-.7-5.2-.4-5.2-.2h-5.2c0,0-5.2.4-5.2.4l-5.2.6-5.2.8-5.1,1-5.1,1.3-5,1.5-4.9,1.8-4.8,2-4.7,2.2-4.6,2.4-4.5,2.7-4.4,2.9-4.2,3.1-4.1,3.3-3.9,3.5-3.8,3.6-3.6,3.8-3.4,4-3.2,4.1-3,4.3-2.8,4.4-2.6,4.5-2.4,4.7-2.2,4.8-1.9,4.9-1.7,5-1.5,5-1.2,5.1-1,5.1-.7,5.2-.5,5.2-.2,5.2v5.2l.2,5.2.5,5.2.7,5.2,1,5.1,1.2,5.1,1.5,5,1.7,5,1.9,4.9,2.2,4.8,2.4,4.7,2.6,4.5,2.8,4.4,3,4.3,3.2,4.1,3.4,4,3.6,3.8,3.8,3.6,3.9,3.5,4.1,3.3,4.2,3.1,4.4,2.9,4.5,2.7,4.6,2.4,4.7,2.2,4.8,2,4.9,1.8,5,1.5,5.1,1.3,5.1,1,5.2.8,5.2.6,5.2.3h5.2c0,0,5.2-.1,5.2-.1l5.2-.4,5.2-.7,5.2-.9,5.1-1.2,5-1.4,5-1.6,4.9-1.9,4.8-2.1,4.7-2.3,4.6-2.5,4.5-2.8,4.3-3,4.2-3.2,4-3.4,3.9-3.5,3.7-3.7,3.5-3.9,3.3-4.1,3.1-4.2,2.9-4.4,2.7-4.5,2.5-4.6,2.3-4.7,2-4.8,1.8-4.9,1.6-5,1.3-5.1,1.1-5.1.9-5.2.6-5.2.4-5.2v-5.2h.1"/>
        </g>
      </g>
      <g id="patch_3">
        <path class="st3" d="M274.3,342.4V9.7"/>
      </g>
      <g id="patch_4">
        <path class="st3" d="M606.9,342.4V9.7"/>
      </g>
      <g id="patch_5">
        <path class="st3" d="M274.3,342.4h332.6"/>
      </g>
      <g id="patch_6">
        <path class="st3" d="M274.3,9.7h332.6"/>
      </g>
      <g id="text_17">
        <g>
          <path id="DejaVuSans-4f" class="st10" d="M429.4,161.1c-.7,0-1.3.3-1.7.8-.4.5-.6,1.3-.6,2.2s.2,1.6.6,2.2c.4.5,1,.8,1.7.8s1.3-.3,1.7-.8c.4-.5.6-1.3.6-2.2s-.2-1.6-.6-2.2c-.4-.5-1-.8-1.7-.8ZM429.4,160.3c1,0,1.8.3,2.5,1,.6.7.9,1.6.9,2.8s-.3,2.1-.9,2.8c-.6.7-1.4,1-2.5,1s-1.8-.3-2.5-1c-.6-.7-.9-1.6-.9-2.8s.3-2.1.9-2.8c.6-.7,1.4-1,2.5-1Z"/>
          <path id="DejaVuSans-722" data-name="DejaVuSans-72" class="st10" d="M437.5,163.1c-.1,0-.2-.1-.3-.1-.1,0-.2,0-.4,0-.5,0-.9.2-1.2.5s-.4.8-.4,1.4v2.9h-.9v-5.5h.9v.9c.2-.3.4-.6.7-.7.3-.2.7-.2,1.1-.2s.1,0,.2,0c0,0,.2,0,.2,0v.9Z"/>
          <path id="DejaVuSans-69" class="st10" d="M438.4,162.2h.9v5.5h-.9v-5.5ZM438.4,160.1h.9v1.1h-.9v-1.1Z"/>
          <path id="DejaVuSans-67" class="st10" d="M444.8,164.9c0-.7-.1-1.2-.4-1.5-.3-.4-.6-.5-1.1-.5s-.9.2-1.1.5c-.3.4-.4.9-.4,1.5s.1,1.2.4,1.5c.3.4.6.5,1.1.5s.9-.2,1.1-.5c.3-.4.4-.9.4-1.5ZM445.7,167c0,.9-.2,1.6-.6,2.1-.4.5-1,.7-1.9.7s-.6,0-.9,0-.6-.1-.8-.2v-.9c.3.1.5.2.8.3.3,0,.5.1.8.1.6,0,1-.2,1.3-.5.3-.3.4-.8.4-1.4v-.4c-.2.3-.4.6-.7.7s-.6.2-1,.2c-.7,0-1.2-.3-1.6-.8-.4-.5-.6-1.2-.6-2s.2-1.5.6-2c.4-.5,1-.8,1.6-.8s.8,0,1,.2.5.4.7.7v-.8h.9v4.8Z"/>
          <path id="DejaVuSans-691" data-name="DejaVuSans-69" class="st10" d="M447.6,162.2h.9v5.5h-.9v-5.5ZM447.6,160.1h.9v1.1h-.9v-1.1Z"/>
          <path id="DejaVuSans-6e1" data-name="DejaVuSans-6e" class="st10" d="M454.9,164.4v3.3h-.9v-3.3c0-.5-.1-.9-.3-1.2-.2-.3-.5-.4-.9-.4s-.9.2-1.1.5c-.3.3-.4.7-.4,1.3v3.1h-.9v-5.5h.9v.9c.2-.3.5-.6.8-.7.3-.2.6-.2,1-.2.6,0,1.1.2,1.4.6.3.4.5,1,.5,1.7Z"/>
        </g>
      </g>
      <g id="text_18">
        <g>
          <path id="DejaVuSans-3012" data-name="DejaVuSans-30" d="M556.2,166.6c-.5,0-.9.3-1.1.8-.3.5-.4,1.3-.4,2.3s.1,1.7.4,2.2c.3.5.6.8,1.1.8s.9-.3,1.2-.8c.3-.5.4-1.2.4-2.2s-.1-1.8-.4-2.3c-.3-.5-.6-.8-1.2-.8ZM556.2,165.8c.8,0,1.4.3,1.9,1,.4.6.6,1.6.6,2.8s-.2,2.2-.6,2.8c-.4.6-1.1,1-1.9,1s-1.4-.3-1.9-1c-.4-.6-.6-1.6-.6-2.8s.2-2.2.6-2.8c.4-.6,1.1-1,1.9-1Z"/>
          <path id="DejaVuSans-3013" data-name="DejaVuSans-30" d="M562.6,166.6c-.5,0-.9.3-1.1.8-.3.5-.4,1.3-.4,2.3s.1,1.7.4,2.2c.3.5.6.8,1.1.8s.9-.3,1.2-.8c.3-.5.4-1.2.4-2.2s-.1-1.8-.4-2.3c-.3-.5-.6-.8-1.2-.8ZM562.6,165.8c.8,0,1.4.3,1.9,1,.4.6.6,1.6.6,2.8s-.2,2.2-.6,2.8c-.4.6-1.1,1-1.9,1s-1.4-.3-1.9-1c-.4-.6-.6-1.6-.6-2.8s.2-2.2.6-2.8c.4-.6,1.1-1,1.9-1Z"/>
          <path id="DejaVuSans-3014" data-name="DejaVuSans-30" d="M568.9,166.6c-.5,0-.9.3-1.1.8-.3.5-.4,1.3-.4,2.3s.1,1.7.4,2.2c.3.5.6.8,1.1.8s.9-.3,1.2-.8c.3-.5.4-1.2.4-2.2s-.1-1.8-.4-2.3c-.3-.5-.6-.8-1.2-.8ZM568.9,165.8c.8,0,1.4.3,1.9,1,.4.6.6,1.6.6,2.8s-.2,2.2-.6,2.8c-.4.6-1.1,1-1.9,1s-1.4-.3-1.9-1c-.4-.6-.6-1.6-.6-2.8s.2-2.2.6-2.8c.4-.6,1.1-1,1.9-1Z"/>
        </g>
        <g>
          <path id="DejaVuSans-3015" data-name="DejaVuSans-30" d="M560.1,177.8c-.5,0-.9.3-1.1.8-.3.5-.4,1.3-.4,2.3s.1,1.7.4,2.2c.3.5.6.8,1.1.8s.9-.3,1.2-.8c.3-.5.4-1.2.4-2.2s-.1-1.8-.4-2.3c-.3-.5-.6-.8-1.2-.8ZM560.1,177c.8,0,1.4.3,1.9,1,.4.6.6,1.6.6,2.8s-.2,2.2-.6,2.8c-.4.6-1.1,1-1.9,1s-1.4-.3-1.9-1c-.4-.6-.6-1.6-.6-2.8s.2-2.2.6-2.8c.4-.6,1.1-1,1.9-1Z"/>
          <path id="DejaVuSans-b0" d="M565.8,177.6c-.3,0-.5,0-.7.3-.2.2-.3.4-.3.7s0,.5.3.7.4.3.7.3.5,0,.7-.3c.2-.2.3-.4.3-.7s0-.5-.3-.7c-.2-.2-.4-.3-.7-.3ZM565.8,177c.2,0,.4,0,.6.1.2,0,.4.2.5.3.2.1.3.3.3.5,0,.2.1.4.1.6,0,.4-.2.8-.5,1.1s-.7.4-1.1.4-.8-.1-1.1-.4c-.3-.3-.4-.7-.4-1.1s.1-.8.4-1.1c.3-.3.7-.5,1.1-.5Z"/>
        </g>
      </g>
      <g id="text_19">
        <g>
          <path id="DejaVuSans-3016" data-name="DejaVuSans-30" d="M520.5,80.3c-.5,0-.9.3-1.1.8-.3.5-.4,1.3-.4,2.3s.1,1.7.4,2.2c.3.5.6.8,1.1.8s.9-.3,1.2-.8c.3-.5.4-1.2.4-2.2s-.1-1.8-.4-2.3c-.3-.5-.6-.8-1.2-.8ZM520.5,79.5c.8,0,1.4.3,1.9,1,.4.6.6,1.6.6,2.8s-.2,2.2-.6,2.8c-.4.6-1.1,1-1.9,1s-1.4-.3-1.9-1c-.4-.6-.6-1.6-.6-2.8s.2-2.2.6-2.8c.4-.6,1.1-1,1.9-1Z"/>
          <path id="DejaVuSans-3017" data-name="DejaVuSans-30" d="M526.9,80.3c-.5,0-.9.3-1.1.8-.3.5-.4,1.3-.4,2.3s.1,1.7.4,2.2c.3.5.6.8,1.1.8s.9-.3,1.2-.8c.3-.5.4-1.2.4-2.2s-.1-1.8-.4-2.3c-.3-.5-.6-.8-1.2-.8ZM526.9,79.5c.8,0,1.4.3,1.9,1,.4.6.6,1.6.6,2.8s-.2,2.2-.6,2.8c-.4.6-1.1,1-1.9,1s-1.4-.3-1.9-1c-.4-.6-.6-1.6-.6-2.8s.2-2.2.6-2.8c.4-.6,1.1-1,1.9-1Z"/>
          <path id="DejaVuSans-318" data-name="DejaVuSans-31" d="M531.3,86.1h1.6v-5.6l-1.8.4v-.9l1.7-.4h1v6.5h1.6v.8h-4.2v-.8Z"/>
        </g>
        <g>
          <path id="DejaVuSans-34" d="M521.8,91.7l-2.5,3.9h2.5v-3.9ZM521.5,90.9h1.2v4.8h1v.8h-1v1.7h-1v-1.7h-3.3v-1l3-4.6Z"/>
          <path id="DejaVuSans-358" data-name="DejaVuSans-35" d="M525.4,90.9h3.9v.8h-3v1.8c.1,0,.3,0,.4-.1.1,0,.3,0,.4,0,.8,0,1.5.2,1.9.7.5.4.7,1,.7,1.8s-.2,1.4-.7,1.8c-.5.4-1.2.7-2.1.7s-.6,0-.9,0c-.3,0-.6-.1-1-.2v-1c.3.2.6.3.9.4s.6.1,1,.1c.6,0,1-.1,1.3-.4.3-.3.5-.7.5-1.2s-.2-.9-.5-1.2c-.3-.3-.8-.4-1.3-.4s-.5,0-.8,0c-.3,0-.5.1-.8.3v-3.7Z"/>
          <path id="DejaVuSans-b01" data-name="DejaVuSans-b0" d="M533.2,91.4c-.3,0-.5,0-.7.3-.2.2-.3.4-.3.7s0,.5.3.7.4.3.7.3.5,0,.7-.3c.2-.2.3-.4.3-.7s0-.5-.3-.7c-.2-.2-.4-.3-.7-.3ZM533.2,90.7c.2,0,.4,0,.6.1.2,0,.4.2.5.3.2.1.3.3.3.5,0,.2.1.4.1.6,0,.4-.2.8-.5,1.1s-.7.4-1.1.4-.8-.1-1.1-.4c-.3-.3-.4-.7-.4-1.1s.1-.8.4-1.1c.3-.3.7-.5,1.1-.5Z"/>
        </g>
      </g>
      <g id="text_20">
        <g>
          <path id="DejaVuSans-3018" data-name="DejaVuSans-30" d="M434.2,44.6c-.5,0-.9.3-1.1.8-.3.5-.4,1.3-.4,2.3s.1,1.7.4,2.2c.3.5.6.8,1.1.8s.9-.3,1.2-.8c.3-.5.4-1.2.4-2.2s-.1-1.8-.4-2.3c-.3-.5-.6-.8-1.2-.8ZM434.2,43.8c.8,0,1.4.3,1.9,1,.4.6.6,1.6.6,2.8s-.2,2.2-.6,2.8c-.4.6-1.1,1-1.9,1s-1.4-.3-1.9-1c-.4-.6-.6-1.6-.6-2.8s.2-2.2.6-2.8c.4-.6,1.1-1,1.9-1Z"/>
          <path id="DejaVuSans-319" data-name="DejaVuSans-31" d="M438.7,50.4h1.6v-5.6l-1.8.4v-.9l1.7-.4h1v6.5h1.6v.8h-4.2v-.8Z"/>
          <path id="DejaVuSans-3019" data-name="DejaVuSans-30" d="M447,44.6c-.5,0-.9.3-1.1.8-.3.5-.4,1.3-.4,2.3s.1,1.7.4,2.2c.3.5.6.8,1.1.8s.9-.3,1.2-.8c.3-.5.4-1.2.4-2.2s-.1-1.8-.4-2.3c-.3-.5-.6-.8-1.2-.8ZM447,43.8c.8,0,1.4.3,1.9,1,.4.6.6,1.6.6,2.8s-.2,2.2-.6,2.8c-.4.6-1.1,1-1.9,1s-1.4-.3-1.9-1c-.4-.6-.6-1.6-.6-2.8s.2-2.2.6-2.8c.4-.6,1.1-1,1.9-1Z"/>
        </g>
        <g>
          <path id="DejaVuSans-39" d="M432.8,62.3v-.9c.2.1.5.2.8.3.3,0,.5,0,.7,0,.7,0,1.1-.2,1.5-.7.3-.4.5-1.1.6-2-.2.3-.4.5-.7.6-.3.2-.6.2-1,.2-.7,0-1.3-.2-1.7-.7-.4-.4-.6-1-.6-1.8s.2-1.3.7-1.8c.4-.5,1-.7,1.8-.7s1.5.3,1.9,1c.4.6.7,1.6.7,2.8s-.3,2.1-.8,2.8c-.5.7-1.3,1-2.2,1s-.5,0-.8,0c-.3,0-.5-.1-.8-.2ZM434.8,59.2c.4,0,.8-.2,1.1-.5.3-.3.4-.7.4-1.2s-.1-.9-.4-1.2c-.3-.3-.6-.5-1.1-.5s-.8.2-1.1.5c-.3.3-.4.7-.4,1.2s.1.9.4,1.2c.3.3.6.5,1.1.5Z"/>
          <path id="DejaVuSans-3020" data-name="DejaVuSans-30" d="M441.3,55.8c-.5,0-.9.3-1.1.8-.3.5-.4,1.3-.4,2.3s.1,1.7.4,2.2c.3.5.6.8,1.1.8s.9-.3,1.2-.8c.3-.5.4-1.2.4-2.2s-.1-1.8-.4-2.3c-.3-.5-.6-.8-1.2-.8ZM441.3,55c.8,0,1.4.3,1.9,1,.4.6.6,1.6.6,2.8s-.2,2.2-.6,2.8c-.4.6-1.1,1-1.9,1s-1.4-.3-1.9-1c-.4-.6-.6-1.6-.6-2.8s.2-2.2.6-2.8c.4-.6,1.1-1,1.9-1Z"/>
          <path id="DejaVuSans-b02" data-name="DejaVuSans-b0" d="M447,55.6c-.3,0-.5,0-.7.3-.2.2-.3.4-.3.7s0,.5.3.7.4.3.7.3.5,0,.7-.3c.2-.2.3-.4.3-.7s0-.5-.3-.7c-.2-.2-.4-.3-.7-.3ZM447,55c.2,0,.4,0,.6.1.2,0,.4.2.5.3.2.1.3.3.3.5,0,.2.1.4.1.6,0,.4-.2.8-.5,1.1s-.7.4-1.1.4-.8-.1-1.1-.4c-.3-.3-.4-.7-.4-1.1s.1-.8.4-1.1c.3-.3.7-.5,1.1-.5Z"/>
        </g>
      </g>
      <g id="text_21">
        <g>
          <path id="DejaVuSans-3021" data-name="DejaVuSans-30" d="M348,80.3c-.5,0-.9.3-1.1.8-.3.5-.4,1.3-.4,2.3s.1,1.7.4,2.2c.3.5.6.8,1.1.8s.9-.3,1.2-.8c.3-.5.4-1.2.4-2.2s-.1-1.8-.4-2.3c-.3-.5-.6-.8-1.2-.8ZM348,79.5c.8,0,1.4.3,1.9,1,.4.6.6,1.6.6,2.8s-.2,2.2-.6,2.8c-.4.6-1.1,1-1.9,1s-1.4-.3-1.9-1c-.4-.6-.6-1.6-.6-2.8s.2-2.2.6-2.8c.4-.6,1.1-1,1.9-1Z"/>
          <path id="DejaVuSans-3110" data-name="DejaVuSans-31" d="M352.4,86.1h1.6v-5.6l-1.8.4v-.9l1.7-.4h1v6.5h1.6v.8h-4.2v-.8Z"/>
          <path id="DejaVuSans-3111" data-name="DejaVuSans-31" d="M358.8,86.1h1.6v-5.6l-1.8.4v-.9l1.7-.4h1v6.5h1.6v.8h-4.2v-.8Z"/>
        </g>
        <g>
          <path id="DejaVuSans-3112" data-name="DejaVuSans-31" d="M343.6,97.3h1.6v-5.6l-1.8.4v-.9l1.7-.4h1v6.5h1.6v.8h-4.2v-.8Z"/>
          <path id="DejaVuSans-33" d="M352.7,94.2c.5.1.8.3,1.1.6.3.3.4.7.4,1.2,0,.7-.2,1.3-.7,1.7-.5.4-1.2.6-2.1.6s-.6,0-.9,0c-.3,0-.7-.2-1-.3v-1c.3.2.6.3.9.4.3,0,.7.1,1,.1.6,0,1.1-.1,1.4-.4s.5-.6.5-1.1-.2-.8-.5-1c-.3-.2-.7-.4-1.3-.4h-.9v-.8h.9c.5,0,.9,0,1.1-.3s.4-.5.4-.8-.1-.7-.4-.9c-.3-.2-.6-.3-1.1-.3s-.6,0-.9,0c-.3,0-.6.1-1,.3v-.9c.4-.1.7-.2,1.1-.2s.6,0,.9,0c.7,0,1.3.2,1.8.5.4.3.7.8.7,1.4s-.1.7-.3,1-.6.5-1,.6Z"/>
          <path id="DejaVuSans-359" data-name="DejaVuSans-35" d="M356.1,90.9h3.9v.8h-3v1.8c.1,0,.3,0,.4-.1.1,0,.3,0,.4,0,.8,0,1.5.2,1.9.7.5.4.7,1,.7,1.8s-.2,1.4-.7,1.8c-.5.4-1.2.7-2.1.7s-.6,0-.9,0c-.3,0-.6-.1-1-.2v-1c.3.2.6.3.9.4s.6.1,1,.1c.6,0,1-.1,1.3-.4.3-.3.5-.7.5-1.2s-.2-.9-.5-1.2c-.3-.3-.8-.4-1.3-.4s-.5,0-.8,0c-.3,0-.5.1-.8.3v-3.7Z"/>
          <path id="DejaVuSans-b03" data-name="DejaVuSans-b0" d="M363.9,91.4c-.3,0-.5,0-.7.3-.2.2-.3.4-.3.7s0,.5.3.7.4.3.7.3.5,0,.7-.3c.2-.2.3-.4.3-.7s0-.5-.3-.7c-.2-.2-.4-.3-.7-.3ZM363.9,90.7c.2,0,.4,0,.6.1.2,0,.4.2.5.3.2.1.3.3.3.5,0,.2.1.4.1.6,0,.4-.2.8-.5,1.1s-.7.4-1.1.4-.8-.1-1.1-.4c-.3-.3-.4-.7-.4-1.1s.1-.8.4-1.1c.3-.3.7-.5,1.1-.5Z"/>
        </g>
      </g>
      <g id="text_22">
        <g>
          <path id="DejaVuSans-3113" data-name="DejaVuSans-31" d="M310.3,172.4h1.6v-5.6l-1.8.4v-.9l1.7-.4h1v6.5h1.6v.8h-4.2v-.8Z"/>
          <path id="DejaVuSans-3022" data-name="DejaVuSans-30" d="M318.6,166.6c-.5,0-.9.3-1.1.8-.3.5-.4,1.3-.4,2.3s.1,1.7.4,2.2c.3.5.6.8,1.1.8s.9-.3,1.2-.8c.3-.5.4-1.2.4-2.2s-.1-1.8-.4-2.3c-.3-.5-.6-.8-1.2-.8ZM318.6,165.8c.8,0,1.4.3,1.9,1,.4.6.6,1.6.6,2.8s-.2,2.2-.6,2.8c-.4.6-1.1,1-1.9,1s-1.4-.3-1.9-1c-.4-.6-.6-1.6-.6-2.8s.2-2.2.6-2.8c.4-.6,1.1-1,1.9-1Z"/>
          <path id="DejaVuSans-3023" data-name="DejaVuSans-30" d="M325,166.6c-.5,0-.9.3-1.1.8-.3.5-.4,1.3-.4,2.3s.1,1.7.4,2.2c.3.5.6.8,1.1.8s.9-.3,1.2-.8c.3-.5.4-1.2.4-2.2s-.1-1.8-.4-2.3c-.3-.5-.6-.8-1.2-.8ZM325,165.8c.8,0,1.4.3,1.9,1,.4.6.6,1.6.6,2.8s-.2,2.2-.6,2.8c-.4.6-1.1,1-1.9,1s-1.4-.3-1.9-1c-.4-.6-.6-1.6-.6-2.8s.2-2.2.6-2.8c.4-.6,1.1-1,1.9-1Z"/>
        </g>
        <g>
          <path id="DejaVuSans-3114" data-name="DejaVuSans-31" d="M307.8,183.6h1.6v-5.6l-1.8.4v-.9l1.7-.4h1v6.5h1.6v.8h-4.2v-.8Z"/>
          <path id="DejaVuSans-38" d="M316.1,180.9c-.5,0-.8.1-1.1.4-.3.3-.4.6-.4,1s.1.8.4,1c.3.3.6.4,1.1.4s.8-.1,1.1-.4c.3-.3.4-.6.4-1s-.1-.8-.4-1c-.3-.3-.6-.4-1.1-.4ZM315.2,180.5c-.4-.1-.8-.3-1-.6-.2-.3-.4-.6-.4-1.1s.2-1,.6-1.4c.4-.3,1-.5,1.7-.5s1.3.2,1.7.5.6.8.6,1.4-.1.8-.4,1.1c-.2.3-.6.5-1,.6.5.1.8.3,1.1.7.3.3.4.7.4,1.2,0,.7-.2,1.3-.6,1.6-.4.4-1,.6-1.9.6s-1.4-.2-1.9-.6c-.4-.4-.6-.9-.6-1.6s.1-.9.4-1.2c.3-.3.6-.5,1.1-.7ZM314.8,179c0,.4.1.7.4.9.2.2.6.3,1,.3s.8-.1,1-.3c.2-.2.4-.5.4-.9s-.1-.7-.4-.9c-.2-.2-.6-.3-1-.3s-.8.1-1,.3c-.2.2-.4.5-.4.9Z"/>
          <path id="DejaVuSans-3024" data-name="DejaVuSans-30" d="M322.5,177.8c-.5,0-.9.3-1.1.8-.3.5-.4,1.3-.4,2.3s.1,1.7.4,2.2c.3.5.6.8,1.1.8s.9-.3,1.2-.8c.3-.5.4-1.2.4-2.2s-.1-1.8-.4-2.3c-.3-.5-.6-.8-1.2-.8ZM322.5,177c.8,0,1.4.3,1.9,1,.4.6.6,1.6.6,2.8s-.2,2.2-.6,2.8c-.4.6-1.1,1-1.9,1s-1.4-.3-1.9-1c-.4-.6-.6-1.6-.6-2.8s.2-2.2.6-2.8c.4-.6,1.1-1,1.9-1Z"/>
          <path id="DejaVuSans-b04" data-name="DejaVuSans-b0" d="M328.2,177.6c-.3,0-.5,0-.7.3-.2.2-.3.4-.3.7s0,.5.3.7.4.3.7.3.5,0,.7-.3c.2-.2.3-.4.3-.7s0-.5-.3-.7c-.2-.2-.4-.3-.7-.3ZM328.2,177c.2,0,.4,0,.6.1.2,0,.4.2.5.3.2.1.3.3.3.5,0,.2.1.4.1.6,0,.4-.2.8-.5,1.1s-.7.4-1.1.4-.8-.1-1.1-.4c-.3-.3-.4-.7-.4-1.1s.1-.8.4-1.1c.3-.3.7-.5,1.1-.5Z"/>
        </g>
      </g>
      <g id="text_23">
        <g>
          <path id="DejaVuSans-3115" data-name="DejaVuSans-31" d="M346.1,258.6h1.6v-5.6l-1.8.4v-.9l1.7-.4h1v6.5h1.6v.8h-4.2v-.8Z"/>
          <path id="DejaVuSans-3025" data-name="DejaVuSans-30" d="M354.4,252.8c-.5,0-.9.3-1.1.8-.3.5-.4,1.3-.4,2.3s.1,1.7.4,2.2c.3.5.6.8,1.1.8s.9-.3,1.2-.8c.3-.5.4-1.2.4-2.2s-.1-1.8-.4-2.3c-.3-.5-.6-.8-1.2-.8ZM354.4,252c.8,0,1.4.3,1.9,1,.4.6.6,1.6.6,2.8s-.2,2.2-.6,2.8c-.4.6-1.1,1-1.9,1s-1.4-.3-1.9-1c-.4-.6-.6-1.6-.6-2.8s.2-2.2.6-2.8c.4-.6,1.1-1,1.9-1Z"/>
          <path id="DejaVuSans-3116" data-name="DejaVuSans-31" d="M358.8,258.6h1.6v-5.6l-1.8.4v-.9l1.7-.4h1v6.5h1.6v.8h-4.2v-.8Z"/>
        </g>
        <g>
          <path id="DejaVuSans-32" d="M344.2,269.8h3.4v.8h-4.6v-.8c.4-.4.9-.9,1.5-1.6.6-.7,1.1-1.1,1.2-1.3.3-.4.5-.7.7-.9.1-.2.2-.5.2-.7,0-.4-.1-.7-.4-.9-.3-.2-.6-.4-1.1-.4s-.6,0-1,.2c-.3.1-.7.3-1.1.5v-1c.4-.2.8-.3,1.1-.4.3,0,.7-.1.9-.1.8,0,1.4.2,1.8.6.4.4.7.9.7,1.5s0,.6-.2.9c-.1.3-.3.6-.6.9,0,0-.3.4-.8.8-.4.5-1.1,1.1-1.8,1.9Z"/>
          <path id="DejaVuSans-321" data-name="DejaVuSans-32" d="M350.6,269.8h3.4v.8h-4.6v-.8c.4-.4.9-.9,1.5-1.6.6-.7,1.1-1.1,1.2-1.3.3-.4.5-.7.7-.9.1-.2.2-.5.2-.7,0-.4-.1-.7-.4-.9-.3-.2-.6-.4-1.1-.4s-.6,0-1,.2c-.3.1-.7.3-1.1.5v-1c.4-.2.8-.3,1.1-.4.3,0,.7-.1.9-.1.8,0,1.4.2,1.8.6.4.4.7.9.7,1.5s0,.6-.2.9c-.1.3-.3.6-.6.9,0,0-.3.4-.8.8-.4.5-1.1,1.1-1.8,1.9Z"/>
          <path id="DejaVuSans-3510" data-name="DejaVuSans-35" d="M356.1,263.4h3.9v.8h-3v1.8c.1,0,.3,0,.4-.1.1,0,.3,0,.4,0,.8,0,1.5.2,1.9.7.5.4.7,1,.7,1.8s-.2,1.4-.7,1.8c-.5.4-1.2.7-2.1.7s-.6,0-.9,0c-.3,0-.6-.1-1-.2v-1c.3.2.6.3.9.4s.6.1,1,.1c.6,0,1-.1,1.3-.4.3-.3.5-.7.5-1.2s-.2-.9-.5-1.2c-.3-.3-.8-.4-1.3-.4s-.5,0-.8,0c-.3,0-.5.1-.8.3v-3.7Z"/>
          <path id="DejaVuSans-b05" data-name="DejaVuSans-b0" d="M363.9,263.8c-.3,0-.5,0-.7.3-.2.2-.3.4-.3.7s0,.5.3.7.4.3.7.3.5,0,.7-.3c.2-.2.3-.4.3-.7s0-.5-.3-.7c-.2-.2-.4-.3-.7-.3ZM363.9,263.2c.2,0,.4,0,.6.1.2,0,.4.2.5.3.2.1.3.3.3.5,0,.2.1.4.1.6,0,.4-.2.8-.5,1.1s-.7.4-1.1.4-.8-.1-1.1-.4c-.3-.3-.4-.7-.4-1.1s.1-.8.4-1.1c.3-.3.7-.5,1.1-.5Z"/>
        </g>
      </g>
      <g id="text_24">
        <g>
          <path id="DejaVuSans-3117" data-name="DejaVuSans-31" d="M432.3,294.3h1.6v-5.6l-1.8.4v-.9l1.7-.4h1v6.5h1.6v.8h-4.2v-.8Z"/>
          <path id="DejaVuSans-3118" data-name="DejaVuSans-31" d="M438.7,294.3h1.6v-5.6l-1.8.4v-.9l1.7-.4h1v6.5h1.6v.8h-4.2v-.8Z"/>
          <path id="DejaVuSans-3026" data-name="DejaVuSans-30" d="M447,288.5c-.5,0-.9.3-1.1.8-.3.5-.4,1.3-.4,2.3s.1,1.7.4,2.2c.3.5.6.8,1.1.8s.9-.3,1.2-.8c.3-.5.4-1.2.4-2.2s-.1-1.8-.4-2.3c-.3-.5-.6-.8-1.2-.8ZM447,287.7c.8,0,1.4.3,1.9,1,.4.6.6,1.6.6,2.8s-.2,2.2-.6,2.8c-.4.6-1.1,1-1.9,1s-1.4-.3-1.9-1c-.4-.6-.6-1.6-.6-2.8s.2-2.2.6-2.8c.4-.6,1.1-1,1.9-1Z"/>
        </g>
        <g>
          <path id="DejaVuSans-322" data-name="DejaVuSans-32" d="M430.5,305.5h3.4v.8h-4.6v-.8c.4-.4.9-.9,1.5-1.6.6-.7,1.1-1.1,1.2-1.3.3-.4.5-.7.7-.9.1-.2.2-.5.2-.7,0-.4-.1-.7-.4-.9-.3-.2-.6-.4-1.1-.4s-.6,0-1,.2c-.3.1-.7.3-1.1.5v-1c.4-.2.8-.3,1.1-.4.3,0,.7-.1.9-.1.8,0,1.4.2,1.8.6.4.4.7.9.7,1.5s0,.6-.2.9c-.1.3-.3.6-.6.9,0,0-.3.4-.8.8-.4.5-1.1,1.1-1.8,1.9Z"/>
          <path id="DejaVuSans-37" d="M435.8,299.1h4.7v.4l-2.6,6.9h-1l2.5-6.5h-3.5v-.8Z"/>
          <path id="DejaVuSans-3027" data-name="DejaVuSans-30" d="M444.5,299.7c-.5,0-.9.3-1.1.8-.3.5-.4,1.3-.4,2.3s.1,1.7.4,2.2c.3.5.6.8,1.1.8s.9-.3,1.2-.8c.3-.5.4-1.2.4-2.2s-.1-1.8-.4-2.3c-.3-.5-.6-.8-1.2-.8ZM444.5,298.9c.8,0,1.4.3,1.9,1,.4.6.6,1.6.6,2.8s-.2,2.2-.6,2.8c-.4.6-1.1,1-1.9,1s-1.4-.3-1.9-1c-.4-.6-.6-1.6-.6-2.8s.2-2.2.6-2.8c.4-.6,1.1-1,1.9-1Z"/>
          <path id="DejaVuSans-b06" data-name="DejaVuSans-b0" d="M450.2,299.6c-.3,0-.5,0-.7.3-.2.2-.3.4-.3.7s0,.5.3.7.4.3.7.3.5,0,.7-.3c.2-.2.3-.4.3-.7s0-.5-.3-.7c-.2-.2-.4-.3-.7-.3ZM450.2,298.9c.2,0,.4,0,.6.1.2,0,.4.2.5.3.2.1.3.3.3.5,0,.2.1.4.1.6,0,.4-.2.8-.5,1.1s-.7.4-1.1.4-.8-.1-1.1-.4c-.3-.3-.4-.7-.4-1.1s.1-.8.4-1.1c.3-.3.7-.5,1.1-.5Z"/>
        </g>
      </g>
      <g id="text_25">
        <g>
          <path id="DejaVuSans-3119" data-name="DejaVuSans-31" d="M518.6,258.6h1.6v-5.6l-1.8.4v-.9l1.7-.4h1v6.5h1.6v.8h-4.2v-.8Z"/>
          <path id="DejaVuSans-3120" data-name="DejaVuSans-31" d="M524.9,258.6h1.6v-5.6l-1.8.4v-.9l1.7-.4h1v6.5h1.6v.8h-4.2v-.8Z"/>
          <path id="DejaVuSans-3121" data-name="DejaVuSans-31" d="M531.3,258.6h1.6v-5.6l-1.8.4v-.9l1.7-.4h1v6.5h1.6v.8h-4.2v-.8Z"/>
        </g>
        <g>
          <path id="DejaVuSans-331" data-name="DejaVuSans-33" d="M518.9,266.7c.5.1.8.3,1.1.6.3.3.4.7.4,1.2,0,.7-.2,1.3-.7,1.7-.5.4-1.2.6-2.1.6s-.6,0-.9,0c-.3,0-.7-.2-1-.3v-1c.3.2.6.3.9.4.3,0,.7.1,1,.1.6,0,1.1-.1,1.4-.4s.5-.6.5-1.1-.2-.8-.5-1c-.3-.2-.7-.4-1.3-.4h-.9v-.8h.9c.5,0,.9,0,1.1-.3s.4-.5.4-.8-.1-.7-.4-.9c-.3-.2-.6-.3-1.1-.3s-.6,0-.9,0c-.3,0-.6.1-1,.3v-.9c.4-.1.7-.2,1.1-.2s.6,0,.9,0c.7,0,1.3.2,1.8.5.4.3.7.8.7,1.4s-.1.7-.3,1-.6.5-1,.6Z"/>
          <path id="DejaVuSans-3122" data-name="DejaVuSans-31" d="M522.4,269.8h1.6v-5.6l-1.8.4v-.9l1.7-.4h1v6.5h1.6v.8h-4.2v-.8Z"/>
          <path id="DejaVuSans-3511" data-name="DejaVuSans-35" d="M528.6,263.4h3.9v.8h-3v1.8c.1,0,.3,0,.4-.1.1,0,.3,0,.4,0,.8,0,1.5.2,1.9.7.5.4.7,1,.7,1.8s-.2,1.4-.7,1.8c-.5.4-1.2.7-2.1.7s-.6,0-.9,0c-.3,0-.6-.1-1-.2v-1c.3.2.6.3.9.4s.6.1,1,.1c.6,0,1-.1,1.3-.4.3-.3.5-.7.5-1.2s-.2-.9-.5-1.2c-.3-.3-.8-.4-1.3-.4s-.5,0-.8,0c-.3,0-.5.1-.8.3v-3.7Z"/>
          <path id="DejaVuSans-b07" data-name="DejaVuSans-b0" d="M536.4,263.8c-.3,0-.5,0-.7.3-.2.2-.3.4-.3.7s0,.5.3.7.4.3.7.3.5,0,.7-.3c.2-.2.3-.4.3-.7s0-.5-.3-.7c-.2-.2-.4-.3-.7-.3ZM536.4,263.2c.2,0,.4,0,.6.1.2,0,.4.2.5.3.2.1.3.3.3.5,0,.2.1.4.1.6,0,.4-.2.8-.5,1.1s-.7.4-1.1.4-.8-.1-1.1-.4c-.3-.3-.4-.7-.4-1.1s.1-.8.4-1.1c.3-.3.7-.5,1.1-.5Z"/>
        </g>
      </g>
      <g id="patch_7">
        <path class="st1" d="M551.8,174.1c4-31.1-5.9-55.8-29.8-74.2"/>
        <path class="st1" d="M523.9,103.9l-2-4,4.4.9"/>
      </g>
      <g id="text_26">
        <g>
          <path id="DejaVuSans-3028" data-name="DejaVuSans-30" class="st27" d="M545.5,108.1c-.2-.4-.6-.6-1.1-.6-.5,0-1.2.2-2,.6s-1.3.8-1.6,1.3c-.3.4-.3.8-.1,1.2s.6.6,1.1.6c.5,0,1.2-.2,1.9-.6s1.3-.8,1.6-1.3c.3-.4.3-.8.1-1.2ZM546.1,107.8c.3.6.4,1.3,0,1.9-.3.6-1,1.2-2,1.7s-1.8.7-2.5.7c-.7,0-1.2-.4-1.6-1.1s-.4-1.3,0-1.9c.3-.6,1-1.2,2-1.7s1.8-.7,2.5-.7c.7,0,1.2.4,1.6,1.1Z"/>
          <path id="DejaVuSans-3029" data-name="DejaVuSans-30" class="st27" d="M548.2,113.1c-.2-.4-.6-.6-1.1-.6-.5,0-1.2.2-2,.6s-1.3.8-1.6,1.3c-.3.4-.3.8-.1,1.2s.6.6,1.1.6c.5,0,1.2-.2,1.9-.6s1.3-.8,1.6-1.3c.3-.4.3-.8.1-1.2ZM548.8,112.8c.3.6.4,1.3,0,1.9-.3.6-1,1.2-2,1.7s-1.8.7-2.5.7c-.7,0-1.2-.4-1.6-1.1s-.4-1.3,0-1.9c.3-.6,1-1.2,2-1.7s1.8-.7,2.5-.7c.7,0,1.2.4,1.6,1.1Z"/>
          <path id="DejaVuSans-3030" data-name="DejaVuSans-30" class="st27" d="M550.9,118.2c-.2-.4-.6-.6-1.1-.6-.5,0-1.2.2-2,.6s-1.3.8-1.6,1.3c-.3.4-.3.8-.1,1.2s.6.6,1.1.6c.5,0,1.2-.2,1.9-.6s1.3-.8,1.6-1.3c.3-.4.3-.8.1-1.2ZM551.5,117.9c.3.6.4,1.3,0,1.9-.3.6-1,1.2-2,1.7s-1.8.7-2.5.7c-.7,0-1.2-.4-1.6-1.1s-.4-1.3,0-1.9c.3-.6,1-1.2,2-1.7s1.8-.7,2.5-.7c.7,0,1.2.4,1.6,1.1Z"/>
          <path id="DejaVuSans-2192" class="st27" d="M553,128.4l-.3.2-2.3-.7.2-.7,1.4.4-2.5-4.7.7-.4,2.5,4.7.4-1.4.7.2-.7,2.3Z"/>
          <path id="DejaVuSans-3031" data-name="DejaVuSans-30" class="st27" d="M557.1,129.9c-.2-.4-.6-.6-1.1-.6-.5,0-1.2.2-2,.6s-1.3.8-1.6,1.3c-.3.4-.3.8-.1,1.2s.6.6,1.1.6c.5,0,1.2-.2,1.9-.6s1.3-.8,1.6-1.3c.3-.4.3-.8.1-1.2ZM557.8,129.6c.3.6.4,1.3,0,1.9-.3.6-1,1.2-2,1.7s-1.8.7-2.5.7c-.7,0-1.2-.4-1.6-1.1s-.4-1.3,0-1.9c.3-.6,1-1.2,2-1.7s1.8-.7,2.5-.7c.7,0,1.2.4,1.6,1.1Z"/>
          <path id="DejaVuSans-3032" data-name="DejaVuSans-30" class="st27" d="M559.8,135c-.2-.4-.6-.6-1.1-.6-.5,0-1.2.2-2,.6s-1.3.8-1.6,1.3c-.3.4-.3.8-.1,1.2s.6.6,1.1.6c.5,0,1.2-.2,1.9-.6s1.3-.8,1.6-1.3c.3-.4.3-.8.1-1.2ZM560.5,134.6c.3.6.4,1.3,0,1.9-.3.6-1,1.2-2,1.7s-1.8.7-2.5.7c-.7,0-1.2-.4-1.6-1.1s-.4-1.3,0-1.9c.3-.6,1-1.2,2-1.7s1.8-.7,2.5-.7c.7,0,1.2.4,1.6,1.1Z"/>
          <path id="DejaVuSans-3123" data-name="DejaVuSans-31" class="st27" d="M557.1,140.9l.7,1.3,4.4-2.4-1-1.2.7-.4,1,1.2.4.8-5.1,2.7.7,1.3-.7.4-1.8-3.3.7-.4Z"/>
        </g>
      </g>
      <g id="patch_8">
        <path class="st1" d="M517.3,96.6c-51.1-30-101.8-30.3-151.9-.8"/>
        <path class="st1" d="M369.8,95.5l-4.5.3,2.4-3.7"/>
      </g>
      <g id="text_27">
        <g>
          <path id="DejaVuSans-3033" data-name="DejaVuSans-30" class="st27" d="M422.8,80.6c-.5,0-.8.2-1,.7-.2.4-.3,1.1-.3,2s.1,1.6.3,2c.2.5.6.7,1,.7s.8-.2,1-.7c.2-.5.3-1.1.3-2s-.1-1.6-.3-2c-.2-.5-.6-.7-1-.7ZM422.8,79.9c.7,0,1.3.3,1.7.9.4.6.6,1.4.6,2.5s-.2,1.9-.6,2.5c-.4.6-1,.9-1.7.9s-1.3-.3-1.7-.9c-.4-.6-.6-1.4-.6-2.5s.2-2,.6-2.5c.4-.6.9-.9,1.7-.9Z"/>
          <path id="DejaVuSans-3034" data-name="DejaVuSans-30" class="st27" d="M428.6,80.6c-.5,0-.8.2-1,.7-.2.4-.3,1.1-.3,2s.1,1.6.3,2c.2.5.6.7,1,.7s.8-.2,1-.7c.2-.5.3-1.1.3-2s-.1-1.6-.3-2c-.2-.5-.6-.7-1-.7ZM428.6,79.9c.7,0,1.3.3,1.7.9.4.6.6,1.4.6,2.5s-.2,1.9-.6,2.5c-.4.6-1,.9-1.7.9s-1.3-.3-1.7-.9c-.4-.6-.6-1.4-.6-2.5s.2-2,.6-2.5c.4-.6.9-.9,1.7-.9Z"/>
          <path id="DejaVuSans-3124" data-name="DejaVuSans-31" class="st27" d="M432.6,85.8h1.4v-5l-1.6.3v-.8l1.6-.3h.9v5.8h1.4v.7h-3.8v-.7Z"/>
          <path id="DejaVuSans-21921" data-name="DejaVuSans-2192" class="st27" d="M444.3,83.6v.4l-1.7,1.7-.5-.5,1-1h-5.4v-.7h5.4l-1-1,.5-.5,1.7,1.7Z"/>
          <path id="DejaVuSans-3035" data-name="DejaVuSans-30" class="st27" d="M447.6,80.6c-.5,0-.8.2-1,.7-.2.4-.3,1.1-.3,2s.1,1.6.3,2c.2.5.6.7,1,.7s.8-.2,1-.7c.2-.5.3-1.1.3-2s-.1-1.6-.3-2c-.2-.5-.6-.7-1-.7ZM447.6,79.9c.7,0,1.3.3,1.7.9.4.6.6,1.4.6,2.5s-.2,1.9-.6,2.5c-.4.6-1,.9-1.7.9s-1.3-.3-1.7-.9c-.4-.6-.6-1.4-.6-2.5s.2-2,.6-2.5c.4-.6.9-.9,1.7-.9Z"/>
          <path id="DejaVuSans-3125" data-name="DejaVuSans-31" class="st27" d="M451.5,85.8h1.4v-5l-1.6.3v-.8l1.6-.3h.9v5.8h1.4v.7h-3.8v-.7Z"/>
          <path id="DejaVuSans-3126" data-name="DejaVuSans-31" class="st27" d="M457.3,85.8h1.4v-5l-1.6.3v-.8l1.6-.3h.9v5.8h1.4v.7h-3.8v-.7Z"/>
        </g>
      </g>
      <g id="patch_9">
        <path class="st1" d="M362.7,99.6c21.1,81.9,72,133.2,152.8,154"/>
        <path class="st1" d="M512.1,250.6l3.4,2.9-4.4.9"/>
      </g>
      <g id="text_28">
        <g>
          <path id="DejaVuSans-3036" data-name="DejaVuSans-30" class="st27" d="M428.6,197.9c-.4-.3-.8-.3-1.2,0-.4.2-.9.7-1.4,1.5s-.8,1.4-.8,1.9c0,.5.1.9.5,1.1s.8.3,1.2,0c.4-.2.9-.7,1.4-1.5s.8-1.4.8-1.9c0-.5-.1-.9-.5-1.1ZM429,197.3c.6.4.9,1,.9,1.7,0,.7-.3,1.5-.9,2.4s-1.2,1.5-1.9,1.8c-.6.3-1.3.2-1.9-.2s-.9-1-.9-1.7c0-.7.3-1.5.9-2.4s1.2-1.5,1.9-1.8c.6-.3,1.3-.2,1.9.2Z"/>
          <path id="DejaVuSans-3127" data-name="DejaVuSans-31" class="st27" d="M429,204.5l1.2.8,2.8-4.2-1.5-.6.4-.7,1.5.6.7.5-3.2,4.8,1.2.8-.4.6-3.1-2.1.4-.6Z"/>
          <path id="DejaVuSans-3128" data-name="DejaVuSans-31" class="st27" d="M433.8,207.7l1.2.8,2.8-4.2-1.5-.6.4-.7,1.5.6.7.5-3.2,4.8,1.2.8-.4.6-3.1-2.1.4-.6Z"/>
          <path id="DejaVuSans-21922" data-name="DejaVuSans-2192" class="st27" d="M444.8,212.3l-.2.3-2.4.5v-.7c-.1,0,1.3-.3,1.3-.3l-4.5-3,.4-.6,4.5,3-.3-1.4h.7c0-.1.5,2.2.5,2.2Z"/>
          <path id="DejaVuSans-3129" data-name="DejaVuSans-31" class="st27" d="M444.8,215l1.2.8,2.8-4.2-1.5-.6.4-.7,1.5.6.7.5-3.2,4.8,1.2.8-.4.6-3.1-2.1.4-.6Z"/>
          <path id="DejaVuSans-3130" data-name="DejaVuSans-31" class="st27" d="M449.6,218.2l1.2.8,2.8-4.2-1.5-.6.4-.7,1.5.6.7.5-3.2,4.8,1.2.8-.4.6-3.1-2.1.4-.6Z"/>
          <path id="DejaVuSans-3131" data-name="DejaVuSans-31" class="st27" d="M454.3,221.4l1.2.8,2.8-4.2-1.5-.6.4-.7,1.5.6.7.5-3.2,4.8,1.2.8-.4.6-3.1-2.1.4-.6Z"/>
        </g>
      </g>
      <g id="patch_10">
        <path class="st1" d="M520.6,253.2c24.8-19.1,35.3-43.6,31.4-73.6"/>
        <path class="st1" d="M550.5,183.9l1.5-4.2,2.5,3.7"/>
      </g>
      <g id="text_29">
        <g>
          <path id="DejaVuSans-3132" data-name="DejaVuSans-31" class="st27" d="M543.6,246.2l.7-1.3-4.4-2.4-.5,1.5-.7-.4.5-1.5.4-.8,5.1,2.8.7-1.3.7.4-1.8,3.3-.7-.4Z"/>
          <path id="DejaVuSans-3133" data-name="DejaVuSans-31" class="st27" d="M546.4,241.2l.7-1.3-4.4-2.4-.5,1.5-.7-.4.5-1.5.4-.8,5.1,2.8.7-1.3.7.4-1.8,3.3-.7-.4Z"/>
          <path id="DejaVuSans-3134" data-name="DejaVuSans-31" class="st27" d="M549.2,236.2l.7-1.3-4.4-2.4-.5,1.5-.7-.4.5-1.5.4-.8,5.1,2.8.7-1.3.7.4-1.8,3.3-.7-.4Z"/>
          <path id="DejaVuSans-21923" data-name="DejaVuSans-2192" class="st27" d="M552.9,224.9l.3.2.7,2.4-.7.2-.4-1.4-2.6,4.7-.7-.4,2.6-4.7-1.4.4-.2-.7,2.4-.7Z"/>
          <path id="DejaVuSans-3037" data-name="DejaVuSans-30" class="st27" d="M552,220.6c-.2.4-.2.8,0,1.2.3.4.8.9,1.6,1.3s1.4.7,1.9.7c.5,0,.9-.2,1.1-.6s.2-.8,0-1.2c-.3-.4-.8-.9-1.6-1.3s-1.4-.7-1.9-.7c-.5,0-.9.2-1.1.6ZM551.4,220.2c.4-.6.9-1,1.6-1,.7,0,1.5.2,2.5.7s1.6,1.1,1.9,1.7c.3.6.3,1.3,0,1.9s-.9,1-1.6,1c-.7,0-1.5-.2-2.5-.7s-1.6-1.1-1.9-1.7c-.3-.6-.3-1.3,0-1.9Z"/>
          <path id="DejaVuSans-3038" data-name="DejaVuSans-30" class="st27" d="M554.8,215.6c-.2.4-.2.8,0,1.2.3.4.8.9,1.6,1.3s1.4.7,1.9.7c.5,0,.9-.2,1.1-.6s.2-.8,0-1.2c-.3-.4-.8-.9-1.6-1.3s-1.4-.7-1.9-.7c-.5,0-.9.2-1.1.6ZM554.2,215.2c.4-.6.9-1,1.6-1,.7,0,1.5.2,2.5.7s1.6,1.1,1.9,1.7c.3.6.3,1.3,0,1.9s-.9,1-1.6,1c-.7,0-1.5-.2-2.5-.7s-1.6-1.1-1.9-1.7c-.3-.6-.3-1.3,0-1.9Z"/>
          <path id="DejaVuSans-3039" data-name="DejaVuSans-30" class="st27" d="M557.6,210.6c-.2.4-.2.8,0,1.2.3.4.8.9,1.6,1.3s1.4.7,1.9.7c.5,0,.9-.2,1.1-.6s.2-.8,0-1.2c-.3-.4-.8-.9-1.6-1.3s-1.4-.7-1.9-.7c-.5,0-.9.2-1.1.6ZM557,210.2c.4-.6.9-1,1.6-1,.7,0,1.5.2,2.5.7s1.6,1.1,1.9,1.7c.3.6.3,1.3,0,1.9s-.9,1-1.6,1c-.7,0-1.5-.2-2.5-.7s-1.6-1.1-1.9-1.7c-.3-.6-.3-1.3,0-1.9Z"/>
        </g>
      </g>
      <g id="legend_1">
        <g id="patch_11">
          <path class="st8" d="M525.5,47.1h74.5c1.3,0,2-.7,2-2v-28.4c0-1.3-.7-2-2-2h-74.5c-1.3,0-2,.7-2,2v28.4c0,1.3.7,2,2,2Z"/>
        </g>
        <g id="PathCollection_3">
          <path id="m1becafbcf38" data-name="m1becafbcf3" class="st6" d="M537.5,29.8c1.6,0,3.2-.6,4.3-1.8,1.1-1.1,1.8-2.7,1.8-4.3s-.6-3.2-1.8-4.3c-1.1-1.1-2.7-1.8-4.3-1.8s-3.2.6-4.3,1.8c-1.1,1.1-1.8,2.7-1.8,4.3s.6,3.2,1.8,4.3c1.1,1.1,2.7,1.8,4.3,1.8Z"/>
        </g>
        <g id="text_31">
          <g>
            <path id="DejaVuSans-53" d="M560.8,19.3v1c-.4-.2-.7-.3-1.1-.4-.3,0-.7-.1-1-.1-.5,0-1,.1-1.2.3-.3.2-.4.5-.4.9s0,.6.3.7c.2.2.6.3,1.1.4h.6c.7.3,1.3.5,1.6.9s.5.8.5,1.4-.2,1.2-.7,1.6c-.5.4-1.2.5-2.1.5s-.7,0-1.1-.1c-.4,0-.8-.2-1.2-.3v-1c.4.2.8.4,1.2.5.4.1.8.2,1.1.2.6,0,1-.1,1.3-.3.3-.2.5-.5.5-.9s-.1-.6-.3-.8-.6-.4-1.1-.5h-.6c-.7-.3-1.3-.5-1.6-.8-.3-.3-.5-.7-.5-1.3s.2-1.2.7-1.5c.5-.4,1.1-.6,1.9-.6s.7,0,1,0c.4,0,.7.2,1.1.3Z"/>
            <path id="DejaVuSans-79" d="M565,26.8c-.3.7-.5,1.1-.7,1.3-.2.2-.6.3-1,.3h-.7v-.8h.5c.2,0,.4,0,.6-.2.1-.1.3-.4.5-.8l.2-.4-2.2-5.4h1l1.7,4.3,1.7-4.3h1l-2.4,6Z"/>
            <path id="DejaVuSans-6d" d="M572.9,21.9c.2-.4.5-.7.8-.9s.7-.3,1.1-.3,1,.2,1.3.6c.3.4.5,1,.5,1.7v3.3h-.9v-3.3c0-.5,0-.9-.3-1.2-.2-.3-.5-.4-.8-.4s-.8.2-1.1.5c-.3.3-.4.7-.4,1.3v3.1h-.9v-3.3c0-.5,0-.9-.3-1.2s-.5-.4-.9-.4-.8.2-1.1.5c-.3.3-.4.7-.4,1.3v3.1h-.9v-5.5h.9v.9c.2-.3.5-.6.7-.7s.6-.2,1-.2.7.1,1,.3c.3.2.5.5.6.9Z"/>
            <path id="DejaVuSans-62" d="M582.3,23.6c0-.7-.1-1.2-.4-1.6s-.6-.6-1.1-.6-.9.2-1.1.6-.4.9-.4,1.6.1,1.2.4,1.6c.3.4.6.6,1.1.6s.8-.2,1.1-.6c.3-.4.4-.9.4-1.6ZM579.3,21.7c.2-.3.4-.6.7-.7.3-.2.6-.2,1-.2.7,0,1.2.3,1.6.8.4.5.6,1.2.6,2.1s-.2,1.6-.6,2.1c-.4.5-1,.8-1.6.8s-.7,0-1-.2c-.3-.2-.5-.4-.7-.7v.8h-.9v-7.6h.9v3Z"/>
            <path id="DejaVuSans-6f" d="M586.9,21.5c-.5,0-.9.2-1.1.6s-.4.9-.4,1.5.1,1.2.4,1.5c.3.4.7.6,1.1.6s.9-.2,1.1-.6c.3-.4.4-.9.4-1.5s-.1-1.2-.4-1.5c-.3-.4-.7-.6-1.1-.6ZM586.9,20.7c.8,0,1.4.3,1.8.8.4.5.7,1.2.7,2.1s-.2,1.6-.7,2.1c-.4.5-1.1.8-1.8.8s-1.4-.3-1.8-.8c-.4-.5-.7-1.2-.7-2.1s.2-1.6.7-2.1c.4-.5,1.1-.8,1.8-.8Z"/>
            <path id="DejaVuSans-6c" d="M590.9,18.7h.9v7.6h-.9v-7.6Z"/>
            <path id="DejaVuSans-731" data-name="DejaVuSans-73" d="M597.1,21v.9c-.3-.1-.5-.2-.8-.3-.3,0-.6,0-.9,0-.4,0-.8,0-1,.2-.2.1-.3.3-.3.6s0,.4.2.5.5.2,1,.3h.3c.6.2,1.1.4,1.4.6s.4.6.4,1-.2.9-.6,1.2c-.4.3-1,.4-1.7.4s-.6,0-.9,0c-.3,0-.7-.1-1-.3v-.9c.3.2.7.3,1,.4.3,0,.6.1,1,.1s.7,0,1-.2c.2-.1.3-.3.3-.6s0-.4-.2-.6c-.2-.1-.5-.3-1.1-.4h-.3c-.6-.2-1-.4-1.2-.6-.2-.2-.4-.6-.4-1s.2-.9.5-1.2c.4-.3.9-.4,1.6-.4s.6,0,.9,0c.3,0,.6.1.8.2Z"/>
          </g>
        </g>
        <g id="PathCollection_4">
          <path id="m16787d7fa71" data-name="m16787d7fa7" class="st5" d="M537.5,41.9c.9,0,1.8-.4,2.5-1s1-1.6,1-2.5-.4-1.8-1-2.5-1.6-1-2.5-1-1.8.4-2.5,1-1,1.6-1,2.5.4,1.8,1,2.5,1.6,1,2.5,1Z"/>
        </g>
        <g id="text_32">
          <g>
            <path id="DejaVuSans-4f1" data-name="DejaVuSans-4f" d="M559.4,34.4c-.7,0-1.3.3-1.7.8-.4.5-.6,1.3-.6,2.2s.2,1.6.6,2.2c.4.5,1,.8,1.7.8s1.3-.3,1.7-.8c.4-.5.6-1.3.6-2.2s-.2-1.6-.6-2.2c-.4-.5-1-.8-1.7-.8ZM559.4,33.6c1,0,1.8.3,2.5,1,.6.7.9,1.6.9,2.8s-.3,2.1-.9,2.8c-.6.7-1.4,1-2.5,1s-1.8-.3-2.5-1c-.6-.7-.9-1.6-.9-2.8s.3-2.1.9-2.8c.6-.7,1.4-1,2.5-1Z"/>
            <path id="DejaVuSans-723" data-name="DejaVuSans-72" d="M567.5,36.4c-.1,0-.2-.1-.3-.1-.1,0-.2,0-.4,0-.5,0-.9.2-1.2.5s-.4.8-.4,1.4v2.9h-.9v-5.5h.9v.9c.2-.3.4-.6.7-.7.3-.2.7-.2,1.1-.2s.1,0,.2,0c0,0,.2,0,.2,0v.9Z"/>
            <path id="DejaVuSans-692" data-name="DejaVuSans-69" d="M568.4,35.5h.9v5.5h-.9v-5.5ZM568.4,33.4h.9v1.1h-.9v-1.1Z"/>
            <path id="DejaVuSans-671" data-name="DejaVuSans-67" d="M574.8,38.2c0-.7-.1-1.2-.4-1.5-.3-.4-.6-.5-1.1-.5s-.9.2-1.1.5c-.3.4-.4.9-.4,1.5s.1,1.2.4,1.5c.3.4.6.5,1.1.5s.9-.2,1.1-.5c.3-.4.4-.9.4-1.5ZM575.7,40.3c0,.9-.2,1.6-.6,2.1-.4.5-1,.7-1.9.7s-.6,0-.9,0-.6-.1-.8-.2v-.9c.3.1.5.2.8.3.3,0,.5.1.8.1.6,0,1-.2,1.3-.5.3-.3.4-.8.4-1.4v-.4c-.2.3-.4.6-.7.7s-.6.2-1,.2c-.7,0-1.2-.3-1.6-.8-.4-.5-.6-1.2-.6-2s.2-1.5.6-2c.4-.5,1-.8,1.6-.8s.8,0,1,.2.5.4.7.7v-.8h.9v4.8Z"/>
            <path id="DejaVuSans-693" data-name="DejaVuSans-69" d="M577.5,35.5h.9v5.5h-.9v-5.5ZM577.5,33.4h.9v1.1h-.9v-1.1Z"/>
            <path id="DejaVuSans-6e2" data-name="DejaVuSans-6e" d="M584.8,37.7v3.3h-.9v-3.3c0-.5-.1-.9-.3-1.2-.2-.3-.5-.4-.9-.4s-.9.2-1.1.5c-.3.3-.4.7-.4,1.3v3.1h-.9v-5.5h.9v.9c.2-.3.5-.6.8-.7.3-.2.6-.2,1-.2.6,0,1.1.2,1.4.6.3.4.5,1,.5,1.7Z"/>
          </g>
        </g>
      </g>
    </g>
  </g>
</svg>