<?xml version="1.0" encoding="UTF-8"?>
<svg id="Ebene_1" xmlns="http://www.w3.org/2000/svg" xmlns:xlink="http://www.w3.org/1999/xlink" version="1.1" viewBox="0 0 1680.6 603.1">
  <!-- Generator: Adobe Illustrator 29.4.0, SVG Export Plug-In . SVG Version: 2.1.0 Build 152)  -->
  <defs>
    <style>
      .st0, .st1 {
        fill: none;
      }

      .st2 {
        opacity: .4;
      }

      .st2, .st3, .st4, .st5 {
        isolation: isolate;
      }

      .st1 {
        stroke: #000;
        stroke-width: 2px;
      }

      .st4 {
        font-family: HelveticaNeue, 'Helvetica Neue';
      }

      .st4, .st5 {
        font-size: 20px;
      }

      .st6 {
        clip-path: url(#clippath-17);
      }

      .st7 {
        clip-path: url(#clippath-19);
      }

      .st8 {
        clip-path: url(#clippath-11);
      }

      .st9 {
        clip-path: url(#clippath-16);
      }

      .st10 {
        clip-path: url(#clippath-18);
      }

      .st11 {
        clip-path: url(#clippath-10);
      }

      .st12 {
        clip-path: url(#clippath-15);
      }

      .st13 {
        clip-path: url(#clippath-13);
      }

      .st14 {
        clip-path: url(#clippath-14);
      }

      .st15 {
        clip-path: url(#clippath-12);
      }

      .st16 {
        clip-path: url(#clippath-61);
      }

      .st17 {
        clip-path: url(#clippath-67);
      }

      .st18 {
        clip-path: url(#clippath-68);
      }

      .st19 {
        clip-path: url(#clippath-60);
      }

      .st20 {
        clip-path: url(#clippath-65);
      }

      .st21 {
        clip-path: url(#clippath-62);
      }

      .st22 {
        clip-path: url(#clippath-64);
      }

      .st23 {
        clip-path: url(#clippath-66);
      }

      .st24 {
        clip-path: url(#clippath-63);
      }

      .st25 {
        clip-path: url(#clippath-75);
      }

      .st26 {
        clip-path: url(#clippath-50);
      }

      .st27 {
        clip-path: url(#clippath-55);
      }

      .st28 {
        clip-path: url(#clippath-52);
      }

      .st29 {
        clip-path: url(#clippath-57);
      }

      .st30 {
        clip-path: url(#clippath-54);
      }

      .st31 {
        clip-path: url(#clippath-56);
      }

      .st32 {
        clip-path: url(#clippath-53);
      }

      .st33 {
        clip-path: url(#clippath-70);
      }

      .st34 {
        clip-path: url(#clippath-74);
      }

      .st35 {
        clip-path: url(#clippath-71);
      }

      .st36 {
        clip-path: url(#clippath-73);
      }

      .st37 {
        clip-path: url(#clippath-72);
      }

      .st38 {
        clip-path: url(#clippath-51);
      }

      .st39 {
        clip-path: url(#clippath-58);
      }

      .st40 {
        clip-path: url(#clippath-59);
      }

      .st41 {
        clip-path: url(#clippath-31);
      }

      .st42 {
        clip-path: url(#clippath-32);
      }

      .st43 {
        clip-path: url(#clippath-33);
      }

      .st44 {
        clip-path: url(#clippath-34);
      }

      .st45 {
        clip-path: url(#clippath-35);
      }

      .st46 {
        clip-path: url(#clippath-39);
      }

      .st47 {
        clip-path: url(#clippath-30);
      }

      .st48 {
        clip-path: url(#clippath-36);
      }

      .st49 {
        clip-path: url(#clippath-37);
      }

      .st50 {
        clip-path: url(#clippath-38);
      }

      .st51 {
        clip-path: url(#clippath-27);
      }

      .st52 {
        clip-path: url(#clippath-29);
      }

      .st53 {
        clip-path: url(#clippath-26);
      }

      .st54 {
        clip-path: url(#clippath-28);
      }

      .st55 {
        clip-path: url(#clippath-20);
      }

      .st56 {
        clip-path: url(#clippath-21);
      }

      .st57 {
        clip-path: url(#clippath-22);
      }

      .st58 {
        clip-path: url(#clippath-23);
      }

      .st59 {
        clip-path: url(#clippath-24);
      }

      .st60 {
        clip-path: url(#clippath-25);
      }

      .st61 {
        clip-path: url(#clippath-69);
      }

      .st62 {
        clip-path: url(#clippath-41);
      }

      .st63 {
        clip-path: url(#clippath-42);
      }

      .st64 {
        clip-path: url(#clippath-43);
      }

      .st65 {
        clip-path: url(#clippath-44);
      }

      .st66 {
        clip-path: url(#clippath-45);
      }

      .st67 {
        clip-path: url(#clippath-49);
      }

      .st68 {
        clip-path: url(#clippath-40);
      }

      .st69 {
        clip-path: url(#clippath-46);
      }

      .st70 {
        clip-path: url(#clippath-47);
      }

      .st71 {
        clip-path: url(#clippath-48);
      }

      .st72 {
        clip-path: url(#clippath-1);
      }

      .st73 {
        clip-path: url(#clippath-3);
      }

      .st74 {
        clip-path: url(#clippath-4);
      }

      .st75 {
        clip-path: url(#clippath-2);
      }

      .st76 {
        clip-path: url(#clippath-7);
      }

      .st77 {
        clip-path: url(#clippath-6);
      }

      .st78 {
        clip-path: url(#clippath-9);
      }

      .st79 {
        clip-path: url(#clippath-8);
      }

      .st80 {
        clip-path: url(#clippath-5);
      }

      .st5 {
        font-family: HelveticaNeue-Bold, 'Helvetica Neue';
        font-weight: 700;
      }

      .st81 {
        fill: #676767;
      }

      .st82 {
        fill: #d5d5d5;
      }

      .st83 {
        fill: #4cacbc;
      }

      .st84 {
        clip-path: url(#clippath);
      }
    </style>
    <clipPath id="clippath">
      <rect class="st0" x="-152" y="-157.2" width="2200" height="1080"/>
    </clipPath>
    <clipPath id="clippath-1">
      <rect class="st0" x="364.9" y="109.7" width="76.3" height="164.1"/>
    </clipPath>
    <clipPath id="clippath-2">
      <rect class="st0" x="-152" y="-157.2" width="2200" height="1080"/>
    </clipPath>
    <clipPath id="clippath-3">
      <rect class="st0" x="354.4" y="274.5" width="44.6" height="44.6"/>
    </clipPath>
    <clipPath id="clippath-4">
      <rect class="st0" x="364.6" y="284.7" width="24.3" height="24.3"/>
    </clipPath>
    <clipPath id="clippath-5">
      <rect class="st0" x="401.2" y="274.5" width="44.6" height="44.6"/>
    </clipPath>
    <clipPath id="clippath-6">
      <rect class="st0" x="411.3" y="284.7" width="24.3" height="24.3"/>
    </clipPath>
    <clipPath id="clippath-7">
      <rect class="st0" x="-152" y="-157.2" width="2200" height="1080"/>
    </clipPath>
    <clipPath id="clippath-8">
      <rect class="st0" x="621.8" y="16.8" width="32.4" height="260.8"/>
    </clipPath>
    <clipPath id="clippath-9">
      <rect class="st0" x="-152" y="-157.2" width="2200" height="1080"/>
    </clipPath>
    <clipPath id="clippath-10">
      <rect class="st0" x="545.4" y="278.6" width="44.6" height="44.6"/>
    </clipPath>
    <clipPath id="clippath-11">
      <rect class="st0" x="555.6" y="288.8" width="24.3" height="24.3"/>
    </clipPath>
    <clipPath id="clippath-12">
      <rect class="st0" x="592.1" y="278.6" width="44.6" height="44.6"/>
    </clipPath>
    <clipPath id="clippath-13">
      <rect class="st0" x="602.3" y="288.8" width="24.3" height="24.3"/>
    </clipPath>
    <clipPath id="clippath-14">
      <rect class="st0" x="638.8" y="278.6" width="44.6" height="44.6"/>
    </clipPath>
    <clipPath id="clippath-15">
      <rect class="st0" x="649" y="288.8" width="24.3" height="24.3"/>
    </clipPath>
    <clipPath id="clippath-16">
      <rect class="st0" x="685.5" y="278.6" width="44.6" height="44.6"/>
    </clipPath>
    <clipPath id="clippath-17">
      <rect class="st0" x="695.7" y="288.8" width="24.3" height="24.3"/>
    </clipPath>
    <clipPath id="clippath-18">
      <rect class="st0" x="613" y="14.8" width="49.9" height="264.2"/>
    </clipPath>
    <clipPath id="clippath-19">
      <rect class="st0" x="-152" y="-157.2" width="2200" height="1080"/>
    </clipPath>
    <clipPath id="clippath-20">
      <rect class="st0" x="640.6" y="244.4" width="60.1" height="19.9" transform="translate(16.6 548.7) rotate(-45)"/>
    </clipPath>
    <clipPath id="clippath-21">
      <rect class="st0" x="-152" y="-157.2" width="2200" height="1080"/>
    </clipPath>
    <clipPath id="clippath-22">
      <rect class="st0" x="601.8" y="236.2" width="16.1" height="47.5" transform="translate(-5.2 507.4) rotate(-45)"/>
    </clipPath>
    <clipPath id="clippath-23">
      <rect class="st0" x="-152" y="-157.2" width="2200" height="1080"/>
    </clipPath>
    <clipPath id="clippath-24">
      <rect class="st0" x="566.1" y="320.7" width="145.6" height="28.7"/>
    </clipPath>
    <clipPath id="clippath-25">
      <rect class="st0" x="658.2" y="321.5" width="4" height="27.1"/>
    </clipPath>
    <clipPath id="clippath-26">
      <rect class="st0" x="-152" y="-157.2" width="2200" height="1080"/>
    </clipPath>
    <clipPath id="clippath-27">
      <rect class="st0" x="613.2" y="321.5" width="4" height="27.1"/>
    </clipPath>
    <clipPath id="clippath-28">
      <rect class="st0" x="-152" y="-157.2" width="2200" height="1080"/>
    </clipPath>
    <clipPath id="clippath-29">
      <rect class="st0" x="635.8" y="347.1" width="4" height="120.6"/>
    </clipPath>
    <clipPath id="clippath-30">
      <rect class="st0" x="-152" y="-157.2" width="2200" height="1080"/>
    </clipPath>
    <clipPath id="clippath-31">
      <rect class="st0" x="-152" y="-157.2" width="2200" height="1080"/>
    </clipPath>
    <clipPath id="clippath-32">
      <rect class="st0" x="845.3" y="278.6" width="44.6" height="44.6"/>
    </clipPath>
    <clipPath id="clippath-33">
      <rect class="st0" x="855.5" y="288.8" width="24.3" height="24.3"/>
    </clipPath>
    <clipPath id="clippath-34">
      <rect class="st0" x="892" y="278.6" width="44.6" height="44.6"/>
    </clipPath>
    <clipPath id="clippath-35">
      <rect class="st0" x="902.2" y="288.8" width="24.3" height="24.3"/>
    </clipPath>
    <clipPath id="clippath-36">
      <rect class="st0" x="938.7" y="278.6" width="44.6" height="44.6"/>
    </clipPath>
    <clipPath id="clippath-37">
      <rect class="st0" x="948.9" y="288.8" width="24.3" height="24.3"/>
    </clipPath>
    <clipPath id="clippath-38">
      <rect class="st0" x="985.4" y="278.6" width="44.6" height="44.6"/>
    </clipPath>
    <clipPath id="clippath-39">
      <rect class="st0" x="995.6" y="288.8" width="24.3" height="24.3"/>
    </clipPath>
    <clipPath id="clippath-40">
      <rect class="st0" x="865.6" y="141.4" width="264.2" height="49.9" transform="translate(331.9 927.8) rotate(-58.3)"/>
    </clipPath>
    <clipPath id="clippath-41">
      <rect class="st0" x="-152" y="-157.2" width="2200" height="1080"/>
    </clipPath>
    <clipPath id="clippath-42">
      <rect class="st0" x="936.7" y="267.8" width="42.2" height="13.1" transform="translate(-37.4 227.7) rotate(-13.3)"/>
    </clipPath>
    <clipPath id="clippath-43">
      <rect class="st0" x="-152" y="-157.2" width="2200" height="1080"/>
    </clipPath>
    <clipPath id="clippath-44">
      <rect class="st0" x="883.9" y="268.5" width="42.2" height="13.1"/>
    </clipPath>
    <clipPath id="clippath-45">
      <rect class="st0" x="-152" y="-157.2" width="2200" height="1080"/>
    </clipPath>
    <clipPath id="clippath-46">
      <rect class="st0" x="958.1" y="321.5" width="4" height="142.8"/>
    </clipPath>
    <clipPath id="clippath-47">
      <rect class="st0" x="-152" y="-157.2" width="2200" height="1080"/>
    </clipPath>
    <clipPath id="clippath-48">
      <rect class="st0" x="913.2" y="321.5" width="4" height="144.5"/>
    </clipPath>
    <clipPath id="clippath-49">
      <rect class="st0" x="-152" y="-157.2" width="2200" height="1080"/>
    </clipPath>
    <clipPath id="clippath-50">
      <rect class="st0" x="1003" y="321.5" width="4" height="142.8"/>
    </clipPath>
    <clipPath id="clippath-51">
      <rect class="st0" x="-152" y="-157.2" width="2200" height="1080"/>
    </clipPath>
    <clipPath id="clippath-52">
      <rect class="st0" x="868.2" y="322.3" width="4" height="142.8"/>
    </clipPath>
    <clipPath id="clippath-53">
      <rect class="st0" x="-152" y="-157.2" width="2200" height="1080"/>
    </clipPath>
    <clipPath id="clippath-54">
      <rect class="st0" x="-152" y="-157.2" width="2200" height="1080"/>
    </clipPath>
    <clipPath id="clippath-55">
      <rect class="st0" x="-152" y="-157.2" width="2200" height="1080"/>
    </clipPath>
    <clipPath id="clippath-56">
      <rect class="st0" x="838.5" y="376.4" width="196.7" height="42.6"/>
    </clipPath>
    <clipPath id="clippath-57">
      <rect class="st0" x="837" y="374.8" width="1193" height="548"/>
    </clipPath>
    <clipPath id="clippath-58">
      <rect class="st0" x="1374.3" y="278.6" width="44.6" height="44.6"/>
    </clipPath>
    <clipPath id="clippath-59">
      <rect class="st0" x="1384.5" y="288.8" width="24.3" height="24.3"/>
    </clipPath>
    <clipPath id="clippath-60">
      <rect class="st0" x="1421" y="278.6" width="44.6" height="44.6"/>
    </clipPath>
    <clipPath id="clippath-61">
      <rect class="st0" x="1431.2" y="288.8" width="24.3" height="24.3"/>
    </clipPath>
    <clipPath id="clippath-62">
      <rect class="st0" x="1467.7" y="278.6" width="44.6" height="44.6"/>
    </clipPath>
    <clipPath id="clippath-63">
      <rect class="st0" x="1477.9" y="288.8" width="24.3" height="24.3"/>
    </clipPath>
    <clipPath id="clippath-64">
      <rect class="st0" x="1514.4" y="278.6" width="44.6" height="44.6"/>
    </clipPath>
    <clipPath id="clippath-65">
      <rect class="st0" x="1524.6" y="288.8" width="24.3" height="24.3"/>
    </clipPath>
    <clipPath id="clippath-66">
      <rect class="st0" x="1394.3" y="141.3" width="264.2" height="49.9" transform="translate(582.8 1377.6) rotate(-58.3)"/>
    </clipPath>
    <clipPath id="clippath-67">
      <rect class="st0" x="-152" y="-157.2" width="2200" height="1080"/>
    </clipPath>
    <clipPath id="clippath-68">
      <rect class="st0" x="1465.6" y="267.6" width="42.2" height="13.1" transform="translate(-23.2 349.4) rotate(-13.3)"/>
    </clipPath>
    <clipPath id="clippath-69">
      <rect class="st0" x="-152" y="-157.2" width="2200" height="1080"/>
    </clipPath>
    <clipPath id="clippath-70">
      <rect class="st0" x="1407.8" y="242.5" width="13.1" height="42.2" transform="translate(161.5 970.8) rotate(-40)"/>
    </clipPath>
    <clipPath id="clippath-71">
      <rect class="st0" x="-152" y="-157.2" width="2200" height="1080"/>
    </clipPath>
    <clipPath id="clippath-72">
      <rect class="st0" x="-152" y="-157.2" width="2200" height="1080"/>
    </clipPath>
    <clipPath id="clippath-73">
      <rect class="st0" x="-152" y="-157.2" width="2200" height="1080"/>
    </clipPath>
    <clipPath id="clippath-74">
      <rect class="st0" x="1351.6" y="371.3" width="196.7" height="42.6"/>
    </clipPath>
    <clipPath id="clippath-75">
      <rect class="st0" x="1350" y="369.8" width="698" height="553"/>
    </clipPath>
  </defs>
  <g class="st84">
    <g>
      <rect class="st81" x="177.8" y="268.4" width="42.6" height="42.6"/>
      <path class="st83" d="M178.2,267.7h42l85.9-10.8c6-30.9-1.4-62.8-20.3-88-20.5-27.4-52.5-43.9-86.7-44.8-34.7.4-67.2,17.1-87.7,45.1-18.4,25.1-25.3,56.9-18.9,87.4l85.8,11.1h-.1Z"/>
      <path class="st82" d="M207,281.9c4.3,4.3,4.3,11.4,0,15.7-4.3,4.3-11.4,4.3-15.7,0-4.3-4.3-4.3-11.4,0-15.7,4.3-4.3,11.4-4.3,15.7,0Z"/>
    </g>
  </g>
  <g class="st72">
    <g class="st75">
      <path class="st83" d="M376.8,134.5c14.5-31.7,38-31.7,52.6,0,14.5,31.7,14.5,83,0,114.6-14.5,31.7-38,31.7-52.6,0-14.5-31.7-14.5-83,0-114.6Z"/>
    </g>
  </g>
  <g class="st73">
    <rect class="st81" x="355.4" y="275.5" width="42.6" height="42.6"/>
  </g>
  <g class="st74">
    <path class="st82" d="M384.6,289c4.3,4.3,4.3,11.4,0,15.7-4.3,4.3-11.4,4.3-15.7,0s-4.3-11.4,0-15.7c4.3-4.3,11.4-4.3,15.7,0Z"/>
  </g>
  <g class="st80">
    <rect class="st81" x="402.2" y="275.5" width="42.6" height="42.6"/>
  </g>
  <g class="st77">
    <circle class="st82" cx="423.5" cy="296.9" r="11.1"/>
  </g>
  <g class="st76">
    <g>
      <line class="st1" x1="198.9" y1="312.4" x2="198.9" y2="472.8"/>
      <polyline class="st1" points="376.6 320.8 376.6 352 402.4 352 428.2 352 428.2 318.5"/>
      <line class="st1" x1="400.1" y1="353.1" x2="400.1" y2="472.8"/>
      <g class="st3">
        <text class="st4" transform="translate(323.1 486.2)"><tspan x="0" y="0">Multiple radiating</tspan></text>
      </g>
      <g class="st3">
        <text class="st4" transform="translate(326.6 507.9)"><tspan x="0" y="0">elements placed</tspan></text>
      </g>
      <g class="st3">
        <text class="st4" transform="translate(307.9 529.5)"><tspan x="0" y="0">side by side c</tspan></text>
        <text class="st4" transform="translate(431.3 529.5)"><tspan x="0" y="0">r</tspan></text>
        <text class="st4" transform="translate(437.6 529.5)"><tspan x="0" y="0">eate a</tspan></text>
      </g>
      <g class="st3">
        <text class="st4" transform="translate(335.8 551.2)"><tspan x="0" y="0">mo</tspan></text>
        <text class="st4" transform="translate(364.3 551.2)"><tspan x="0" y="0">r</tspan></text>
        <text class="st4" transform="translate(370.6 551.2)"><tspan x="0" y="0">e focused,</tspan></text>
      </g>
      <g class="st3">
        <text class="st4" transform="translate(332 572.8)"><tspan x="0" y="0">di</tspan></text>
        <text class="st4" transform="translate(348.3 572.8)"><tspan x="0" y="0">r</tspan></text>
        <text class="st4" transform="translate(354.6 572.8)"><tspan x="0" y="0">ected signal.</tspan></text>
      </g>
      <polyline class="st1" points="66.6 344.2 163 294.2 163.9 293.7"/>
      <polygon points="165.3 298.4 171.6 289.8 160.8 289.9 165.3 298.4"/>
      <g class="st3">
        <text class="st4" transform="translate(0 390.3)"><tspan x="0" y="0">Radiating Element</tspan></text>
      </g>
      <polyline class="st1" points="499.8 371.1 452.7 307.5 452.1 306.7"/>
      <polygon points="456.5 304.6 447 299.8 448.8 310.3 456.5 304.6"/>
      <g class="st3">
        <text class="st4" transform="translate(445.8 399.9)"><tspan x="0" y="0">T</tspan></text>
        <text class="st4" transform="translate(455.1 399.9)"><tspan x="0" y="0">wice of power</tspan></text>
      </g>
      <g class="st3">
        <text class="st4" transform="translate(437.9 421.6)"><tspan x="0" y="0">forwa</tspan></text>
        <text class="st4" transform="translate(487.9 421.6)"><tspan x="0" y="0">r</tspan></text>
        <text class="st4" transform="translate(494.2 421.6)"><tspan x="0" y="0">ded = 3dB</tspan></text>
      </g>
    </g>
  </g>
  <g class="st79">
    <g class="st78">
      <path class="st83" d="M627.2,55.7c5.9-50.5,15.5-50.5,21.5,0,5.9,50.5,5.9,132.4,0,183-5.9,50.5-15.5,50.5-21.5,0-5.9-50.5-5.9-132.4,0-183Z"/>
    </g>
  </g>
  <g class="st11">
    <rect class="st81" x="546.4" y="279.6" width="42.6" height="42.6"/>
  </g>
  <g class="st8">
    <path class="st82" d="M575.6,293.1c4.3,4.3,4.3,11.4,0,15.7-4.3,4.3-11.4,4.3-15.7,0s-4.3-11.4,0-15.7c4.3-4.3,11.4-4.3,15.7,0Z"/>
  </g>
  <g class="st15">
    <rect class="st81" x="593.1" y="279.6" width="42.6" height="42.6"/>
  </g>
  <g class="st13">
    <path class="st82" d="M622.3,293.1c4.3,4.3,4.3,11.4,0,15.7-4.3,4.3-11.4,4.3-15.7,0s-4.3-11.4,0-15.7c4.3-4.3,11.4-4.3,15.7,0Z"/>
  </g>
  <g class="st14">
    <rect class="st81" x="639.8" y="279.6" width="42.6" height="42.6"/>
  </g>
  <g class="st12">
    <path class="st82" d="M669,293.1c4.3,4.3,4.3,11.4,0,15.7s-11.4,4.3-15.7,0-4.3-11.4,0-15.7,11.4-4.3,15.7,0Z"/>
  </g>
  <g class="st9">
    <rect class="st81" x="686.5" y="279.6" width="42.6" height="42.6"/>
  </g>
  <g class="st6">
    <path class="st82" d="M715.7,293.1c4.3,4.3,4.3,11.4,0,15.7-4.3,4.3-11.4,4.3-15.7,0s-4.3-11.4,0-15.7c4.3-4.3,11.4-4.3,15.7,0Z"/>
  </g>
  <g class="st10">
    <g class="st7">
      <path class="st83" d="M621,54.2c9.4-51.2,24.5-51.2,33.9,0,9.4,51.2,9.4,134.2,0,185.4s-24.5,51.2-33.9,0-9.4-134.2,0-185.4Z"/>
    </g>
  </g>
  <g class="st55">
    <g class="st56">
      <path class="st83" d="M680.7,235.4c10.5-5.5,14.5-1.5,8.9,8.9s-18.6,23.5-29,29c-10.5,5.5-14.5,1.5-8.9-8.9s18.6-23.5,29-29Z"/>
    </g>
  </g>
  <g class="st57">
    <g class="st58">
      <path class="st83" d="M624.7,267.8c4.3,8.2,1.2,11.4-7.1,7.1-8.2-4.3-18.4-14.5-22.7-22.7s-1.2-11.4,7.1-7.1c8.2,4.3,18.4,14.5,22.7,22.7Z"/>
    </g>
  </g>
  <g class="st59">
    <polyline class="st1" points="568.1 324.1 568.1 347.4 709.6 347.4 709.6 321.7"/>
  </g>
  <g class="st60">
    <g class="st53">
      <line class="st1" x1="660.2" y1="347.6" x2="660.2" y2="322.5"/>
    </g>
  </g>
  <g class="st51">
    <g class="st54">
      <line class="st1" x1="615.2" y1="347.6" x2="615.2" y2="322.5"/>
    </g>
  </g>
  <g class="st52">
    <g class="st47">
      <line class="st1" x1="637.8" y1="466.7" x2="637.8" y2="348.1"/>
    </g>
  </g>
  <g class="st41">
    <g>
      <g class="st3">
        <text class="st4" transform="translate(656.3 394.3)"><tspan x="0" y="0">4x ene</tspan></text>
        <text class="st4" transform="translate(715.9 394.3)"><tspan x="0" y="0">r</tspan></text>
        <text class="st4" transform="translate(722.1 394.3)"><tspan x="0" y="0">gy forwa</tspan></text>
        <text class="st4" transform="translate(799.1 394.3)"><tspan x="0" y="0">r</tspan></text>
        <text class="st4" transform="translate(805.4 394.3)"><tspan x="0" y="0">ded</tspan></text>
      </g>
      <g class="st3">
        <text class="st4" transform="translate(718.1 416)"><tspan x="0" y="0">= 6 dB</tspan></text>
      </g>
      <polyline class="st1" points="787.6 376.2 740.5 312.6 739.9 311.8"/>
      <polygon points="744.4 309.7 734.8 304.9 736.6 315.4 744.4 309.7"/>
    </g>
  </g>
  <g class="st42">
    <rect class="st81" x="846.3" y="279.6" width="42.6" height="42.6"/>
  </g>
  <g class="st43">
    <path class="st82" d="M875.5,293.1c4.3,4.3,4.3,11.4,0,15.7-4.3,4.3-11.4,4.3-15.7,0s-4.3-11.4,0-15.7c4.3-4.3,11.4-4.3,15.7,0Z"/>
  </g>
  <g class="st44">
    <rect class="st81" x="893" y="279.6" width="42.6" height="42.6"/>
  </g>
  <g class="st45">
    <path class="st82" d="M922.2,293.1c4.3,4.3,4.3,11.4,0,15.7-4.3,4.3-11.4,4.3-15.7,0-4.3-4.3-4.3-11.4,0-15.7,4.3-4.3,11.4-4.3,15.7,0Z"/>
  </g>
  <g class="st48">
    <rect class="st81" x="939.7" y="279.6" width="42.6" height="42.6"/>
  </g>
  <g class="st49">
    <path class="st82" d="M968.9,293.1c4.3,4.3,4.3,11.4,0,15.7-4.3,4.3-11.4,4.3-15.7,0-4.3-4.3-4.3-11.4,0-15.7,4.3-4.3,11.4-4.3,15.7,0Z"/>
  </g>
  <g class="st50">
    <rect class="st81" x="986.4" y="279.6" width="42.6" height="42.6"/>
  </g>
  <g class="st46">
    <path class="st82" d="M1015.6,293.1c4.3,4.3,4.3,11.4,0,15.7-4.3,4.3-11.4,4.3-15.7,0-4.3-4.3-4.3-11.4,0-15.7,4.3-4.3,11.4-4.3,15.7,0Z"/>
  </g>
  <g class="st68">
    <g class="st62">
      <path class="st83" d="M1032.5,79.1c34.9-38.6,47.8-30.6,28.8,17.8-19,48.5-62.6,119.1-97.5,157.7-34.9,38.6-47.8,30.6-28.8-17.8,19-48.5,62.6-119.1,97.5-157.7Z"/>
    </g>
  </g>
  <g class="st63">
    <g class="st64">
      <path class="st83" d="M970.6,267.9c8.1.3,8.9,3.7,1.8,7.6s-19.5,6.8-27.6,6.5-8.9-3.7-1.8-7.6,19.5-6.8,27.6-6.5Z"/>
    </g>
  </g>
  <g class="st65">
    <g class="st66">
      <path class="st83" d="M919.2,271.1c7.8,2.2,7.8,5.7,0,7.9-7.8,2.2-20.6,2.2-28.4,0s-7.8-5.7,0-7.9c7.8-2.2,20.6-2.2,28.4,0Z"/>
    </g>
  </g>
  <g class="st69">
    <g class="st70">
      <line class="st1" x1="960.1" y1="463.3" x2="960.1" y2="322.5"/>
    </g>
  </g>
  <g class="st71">
    <g class="st67">
      <line class="st1" x1="915.2" y1="465" x2="915.2" y2="322.5"/>
    </g>
  </g>
  <g class="st26">
    <g class="st38">
      <line class="st1" x1="1005" y1="463.3" x2="1005" y2="322.5"/>
    </g>
  </g>
  <g class="st28">
    <g class="st32">
      <line class="st1" x1="870.2" y1="464.2" x2="870.2" y2="323.3"/>
    </g>
  </g>
  <g class="st30">
    <g>
      <g class="st3">
        <text class="st4" transform="translate(845.7 490.9)"><tspan x="0" y="0">Cont</tspan></text>
        <text class="st4" transform="translate(889 490.9)"><tspan x="0" y="0">r</tspan></text>
        <text class="st4" transform="translate(895.3 490.9)"><tspan x="0" y="0">ol the di</tspan></text>
        <text class="st4" transform="translate(966.8 490.9)"><tspan x="0" y="0">r</tspan></text>
        <text class="st4" transform="translate(973.1 490.9)"><tspan x="0" y="0">ection</tspan></text>
      </g>
      <g class="st3">
        <text class="st4" transform="translate(856.5 512.6)"><tspan x="0" y="0">of the beam using</tspan></text>
      </g>
      <g class="st3">
        <text class="st4" transform="translate(875.1 534.3)"><tspan x="0" y="0">di</tspan></text>
      </g>
      <path d="M899,525.4h-3.9v8.8h-1.7v-8.8h-1.7v-1.5h1.7v-1.5c0-.8.2-1.5.7-1.9s1.2-.6,2.1-.6.3,0,.6,0,.4,0,.5,0v1.5c0,0-.3,0-.5,0h-.5c-.4,0-.7,0-1,.2-.2.2-.3.5-.3.9v1.4h3.9v-1.5c0-.8.2-1.5.7-1.9s1.2-.6,2.1-.6.3,0,.6,0,.4,0,.5,0v1.5c0,0-.3,0-.5,0h-.5c-.4,0-.7,0-1,.2-.2.2-.3.5-.3.9v1.4h2v1.5h-2v8.8h-1.7v-8.8h.2Z"/>
      <g class="st3">
        <text class="st4" transform="translate(903 534.3)"><tspan x="0" y="0">e</tspan></text>
        <text class="st4" transform="translate(913.7 534.3)"><tspan x="0" y="0">r</tspan></text>
        <text class="st4" transform="translate(920 534.3)"><tspan x="0" y="0">ent input</tspan></text>
      </g>
      <g class="st3">
        <text class="st4" transform="translate(905.8 555.9)"><tspan x="0" y="0">signals</tspan></text>
      </g>
      <g class="st3">
        <text class="st4" transform="translate(861.1 577.6)"><tspan x="0" y="0">(Di</tspan></text>
      </g>
      <path d="M892.4,568.7h-3.9v8.8h-1.7v-8.8h-1.7v-1.5h1.7v-1.5c0-.8.2-1.5.7-1.9s1.2-.6,2.1-.6.3,0,.6,0,.4,0,.5,0v1.5c0,0-.3,0-.5,0h-.5c-.4,0-.7,0-1,.2-.2.2-.3.5-.3.9v1.4h3.9v-1.5c0-.8.2-1.5.7-1.9s1.2-.6,2.1-.6.3,0,.6,0,.4,0,.5,0v1.5c0,0-.3,0-.5,0h-.5c-.4,0-.7,0-1,.2-.2.2-.3.5-.3.9v1.4h2v1.5h-2v8.8h-1.7v-8.8h.2Z"/>
      <g class="st3">
        <text class="st4" transform="translate(896.3 577.6)"><tspan x="0" y="0">e</tspan></text>
        <text class="st4" transform="translate(907 577.6)"><tspan x="0" y="0">r</tspan></text>
        <text class="st4" transform="translate(913.3 577.6)"><tspan x="0" y="0">ent Phases</tspan></text>
      </g>
      <g class="st3">
        <text class="st4" transform="translate(865.3 599.2)"><tspan x="0" y="0">and amplitudes)</tspan></text>
      </g>
    </g>
  </g>
  <g class="st27">
    <g>
      <g class="st2">
        <g class="st31">
          <g class="st29">
            <path class="st83" d="M1006.4,382.6c38.4,8.3,38.4,21.8,0,30.2-38.4,8.3-100.7,8.3-139.1,0s-38.4-21.8,0-30.2c38.4-8.3,100.7-8.3,139.1,0Z"/>
          </g>
        </g>
      </g>
      <polyline class="st1" points="1576.4 429.4 1553.6 406.7 1552.9 406"/>
      <polygon points="1557 403.3 1546.8 399.9 1550.2 410.1 1557 403.3"/>
      <g class="st3">
        <text class="st4" transform="translate(1151.5 361.8)"><tspan x="0" y="0">An antenna is a</tspan></text>
      </g>
      <g class="st3">
        <text class="st4" transform="translate(1143.1 383.5)"><tspan x="0" y="0">radiating element</tspan></text>
      </g>
      <g class="st3">
        <text class="st4" transform="translate(1129.1 405.1)"><tspan x="0" y="0">with its own input —</tspan></text>
      </g>
      <g class="st3">
        <text class="st4" transform="translate(1129.4 426.8)"><tspan x="0" y="0">he</tspan></text>
        <text class="st4" transform="translate(1151.3 426.8)"><tspan x="0" y="0">r</tspan></text>
        <text class="st4" transform="translate(1157.6 426.8)"><tspan x="0" y="0">e, 4 antennas a</tspan></text>
        <text class="st4" transform="translate(1294.3 426.8)"><tspan x="0" y="0">r</tspan></text>
        <text class="st4" transform="translate(1300.6 426.8)"><tspan x="0" y="0">e</tspan></text>
      </g>
      <g class="st3">
        <text class="st4" transform="translate(1195.7 448.5)"><tspan x="0" y="0">used.</tspan></text>
      </g>
      <polyline class="st1" points="1113.7 229.3 989 265.6 988.1 265.9"/>
      <polygon points="987.7 261 979.8 268.3 990.4 270.2 987.7 261"/>
      <g class="st3">
        <text class="st5" transform="translate(1143 202.8)"><tspan x="0" y="0">Side</tspan></text>
      </g>
      <g class="st3">
        <text class="st5" transform="translate(1190.4 202.8)"><tspan x="0" y="0">lobe:</tspan></text>
      </g>
      <g class="st3">
        <text class="st4" transform="translate(1237 202.8)"><tspan x="0" y="0" xml:space="preserve"> Signal </tspan></text>
      </g>
      <g class="st3">
        <text class="st4" transform="translate(1175.2 224.5)"><tspan x="0" y="0">leakage in</tspan></text>
      </g>
      <g class="st3">
        <text class="st4" transform="translate(1170.2 246.1)"><tspan x="0" y="0">unintended</tspan></text>
      </g>
      <g class="st3">
        <text class="st4" transform="translate(1127.1 267.8)"><tspan x="0" y="0">di</tspan></text>
        <text class="st4" transform="translate(1143.4 267.8)"><tspan x="0" y="0">r</tspan></text>
        <text class="st4" transform="translate(1149.7 267.8)"><tspan x="0" y="0">ections (fewer and</tspan></text>
      </g>
      <g class="st3">
        <text class="st4" transform="translate(1141.3 289.4)"><tspan x="0" y="0">weaker with mo</tspan></text>
        <text class="st4" transform="translate(1282.4 289.4)"><tspan x="0" y="0">r</tspan></text>
        <text class="st4" transform="translate(1288.7 289.4)"><tspan x="0" y="0">e</tspan></text>
      </g>
      <g class="st3">
        <text class="st4" transform="translate(1176.9 311.1)"><tspan x="0" y="0">antennas)</tspan></text>
      </g>
    </g>
  </g>
  <g class="st39">
    <rect class="st81" x="1375.3" y="279.6" width="42.6" height="42.6"/>
  </g>
  <g class="st40">
    <path class="st82" d="M1404.5,293.1c4.3,4.3,4.3,11.4,0,15.7-4.3,4.3-11.4,4.3-15.7,0-4.3-4.3-4.3-11.4,0-15.7,4.3-4.3,11.4-4.3,15.7,0Z"/>
  </g>
  <g class="st19">
    <rect class="st81" x="1422" y="279.6" width="42.6" height="42.6"/>
  </g>
  <g class="st16">
    <path class="st82" d="M1451.2,293.1c4.3,4.3,4.3,11.4,0,15.7-4.3,4.3-11.4,4.3-15.7,0-4.3-4.3-4.3-11.4,0-15.7,4.3-4.3,11.4-4.3,15.7,0Z"/>
  </g>
  <g class="st21">
    <rect class="st81" x="1468.7" y="279.6" width="42.6" height="42.6"/>
  </g>
  <g class="st24">
    <path class="st82" d="M1497.9,293.1c4.3,4.3,4.3,11.4,0,15.7-4.3,4.3-11.4,4.3-15.7,0-4.3-4.3-4.3-11.4,0-15.7,4.3-4.3,11.4-4.3,15.7,0Z"/>
  </g>
  <g class="st22">
    <rect class="st81" x="1515.4" y="279.6" width="42.6" height="42.6"/>
  </g>
  <g class="st20">
    <path class="st82" d="M1544.6,293.1c4.3,4.3,4.3,11.4,0,15.7-4.3,4.3-11.4,4.3-15.7,0-4.3-4.3-4.3-11.4,0-15.7,4.3-4.3,11.4-4.3,15.7,0Z"/>
  </g>
  <g class="st23">
    <g class="st17">
      <path class="st83" d="M1561.4,79.1c34.9-38.6,47.8-30.6,28.8,17.8-19,48.5-62.6,119.1-97.5,157.7-34.9,38.6-47.8,30.6-28.8-17.8,19-48.5,62.6-119.1,97.5-157.7Z"/>
    </g>
  </g>
  <g class="st18">
    <g class="st61">
      <path class="st83" d="M1499.6,267.9c8.1.3,8.9,3.7,1.8,7.6s-19.5,6.8-27.6,6.5-8.9-3.7-1.8-7.6,19.5-6.8,27.6-6.5Z"/>
    </g>
  </g>
  <g class="st33">
    <g class="st35">
      <path class="st83" d="M1402.2,255.2c-3.4-7.4-.7-9.7,6-5.1s14.9,14.4,18.3,21.8.7,9.7-6,5.1-14.9-14.4-18.3-21.8Z"/>
    </g>
  </g>
  <g class="st37">
    <g>
      <polyline class="st1" points="1392.6 322.8 1392.6 354 1418.4 354 1444.2 354 1444.2 320.5"/>
      <line class="st1" x1="1416.1" y1="355.1" x2="1416.1" y2="474.9"/>
      <polyline class="st1" points="1485.9 322.8 1485.9 354 1511.7 354 1537.5 354 1537.5 320.5"/>
      <line class="st1" x1="1509.3" y1="355.1" x2="1509.3" y2="474.9"/>
    </g>
  </g>
  <g class="st36">
    <g>
      <g class="st2">
        <g class="st34">
          <g class="st25">
            <path class="st83" d="M1519.5,377.5c38.4,8.3,38.4,21.8,0,30.2-38.4,8.3-100.7,8.3-139.1,0s-38.4-21.8,0-30.2c38.4-8.3,100.7-8.3,139.1,0Z"/>
          </g>
        </g>
      </g>
      <polyline class="st1" points="1118.7 407.7 1074.7 407.7 1073.7 407.7"/>
      <polygon points="1074.7 402.9 1065.1 407.7 1074.7 412.5 1074.7 402.9"/>
      <g class="st3">
        <text class="st4" transform="translate(1547.5 443.8)"><tspan x="0" y="0">two antennas</tspan></text>
      </g>
      <path class="st83" d="M1449.2,245.2c7.1,38.7-5.3,43.8-27.5,11.3-22.3-32.4-46-90-53.1-128.7-7.1-38.7,5.3-43.8,27.5-11.3,22.3,32.4,46,90,53.1,128.7h0Z"/>
      <g class="st3">
        <text class="st4" transform="translate(1405.6 518.7)"><tspan x="0" y="0">System causes</tspan></text>
      </g>
      <g class="st3">
        <text class="st4" transform="translate(1381.6 540.3)"><tspan x="0" y="0">additional side lobes</tspan></text>
      </g>
    </g>
  </g>
  <g class="st3">
    <text class="st4" transform="translate(46 76.9)"><tspan x="0" y="0">(a)</tspan></text>
  </g>
  <g class="st3">
    <text class="st4" transform="translate(337.1 77.2)"><tspan x="0" y="0">(b)</tspan></text>
    <g class="st3">
      <text class="st4" transform="translate(563.9 69.8)"><tspan x="0" y="0">(c)</tspan></text>
      <g class="st3">
        <text class="st4" transform="translate(855.5 62.6)"><tspan x="0" y="0">(d)</tspan></text>
        <g class="st3">
          <text class="st4" transform="translate(1319.4 55.2)"><tspan x="0" y="0">(e)</tspan></text>
        </g>
      </g>
    </g>
  </g>
</svg>