<?xml version="1.0" encoding="UTF-8"?>
<svg id="Ebene_1" xmlns="http://www.w3.org/2000/svg" xmlns:xlink="http://www.w3.org/1999/xlink" version="1.1" viewBox="0 0 1095.4 847.3">
  <!-- Generator: Adobe Illustrator 29.4.0, SVG Export Plug-In . SVG Version: 2.1.0 Build 152)  -->
  <defs>
    <style>
      .st0, .st1, .st2, .st3, .st4, .st5, .st6, .st7 {
        fill: none;
      }

      .st1 {
        stroke: #b0b0b0;
      }

      .st1, .st2, .st3, .st6, .st7 {
        stroke-linejoin: round;
      }

      .st1, .st3, .st5 {
        stroke-width: 1px;
      }

      .st1, .st5, .st6, .st7 {
        stroke-linecap: square;
      }

      .st2 {
        stroke: gray;
        stroke-dasharray: .6 1;
        stroke-width: .6px;
      }

      .st8 {
        font-family: HelveticaNeue, 'Helvetica Neue';
        font-size: 20px;
      }

      .st3, .st5 {
        stroke: #000;
      }

      .st9 {
        clip-path: url(#clippath-17);
      }

      .st10 {
        clip-path: url(#clippath-19);
      }

      .st11 {
        clip-path: url(#clippath-11);
      }

      .st12 {
        clip-path: url(#clippath-16);
      }

      .st13 {
        clip-path: url(#clippath-18);
      }

      .st14 {
        clip-path: url(#clippath-10);
      }

      .st15 {
        clip-path: url(#clippath-15);
      }

      .st16 {
        clip-path: url(#clippath-13);
      }

      .st17 {
        clip-path: url(#clippath-14);
      }

      .st18 {
        clip-path: url(#clippath-12);
      }

      .st19 {
        clip-path: url(#clippath-61);
      }

      .st20 {
        clip-path: url(#clippath-67);
      }

      .st21 {
        clip-path: url(#clippath-68);
      }

      .st22 {
        clip-path: url(#clippath-60);
      }

      .st23 {
        clip-path: url(#clippath-65);
      }

      .st24 {
        clip-path: url(#clippath-62);
      }

      .st25 {
        clip-path: url(#clippath-64);
      }

      .st26 {
        clip-path: url(#clippath-66);
      }

      .st27 {
        clip-path: url(#clippath-63);
      }

      .st28 {
        clip-path: url(#clippath-76);
      }

      .st29 {
        clip-path: url(#clippath-78);
      }

      .st30 {
        clip-path: url(#clippath-75);
      }

      .st31 {
        clip-path: url(#clippath-79);
      }

      .st32 {
        clip-path: url(#clippath-50);
      }

      .st33 {
        clip-path: url(#clippath-55);
      }

      .st34 {
        clip-path: url(#clippath-52);
      }

      .st35 {
        clip-path: url(#clippath-57);
      }

      .st36 {
        clip-path: url(#clippath-54);
      }

      .st37 {
        clip-path: url(#clippath-56);
      }

      .st38 {
        clip-path: url(#clippath-53);
      }

      .st39 {
        clip-path: url(#clippath-70);
      }

      .st40 {
        clip-path: url(#clippath-77);
      }

      .st41 {
        clip-path: url(#clippath-74);
      }

      .st42 {
        clip-path: url(#clippath-71);
      }

      .st43 {
        clip-path: url(#clippath-73);
      }

      .st44 {
        clip-path: url(#clippath-72);
      }

      .st45 {
        clip-path: url(#clippath-51);
      }

      .st46 {
        clip-path: url(#clippath-58);
      }

      .st47 {
        clip-path: url(#clippath-59);
      }

      .st48 {
        clip-path: url(#clippath-31);
      }

      .st49 {
        clip-path: url(#clippath-32);
      }

      .st50 {
        clip-path: url(#clippath-33);
      }

      .st51 {
        clip-path: url(#clippath-34);
      }

      .st52 {
        clip-path: url(#clippath-35);
      }

      .st53 {
        clip-path: url(#clippath-39);
      }

      .st54 {
        clip-path: url(#clippath-30);
      }

      .st55 {
        clip-path: url(#clippath-36);
      }

      .st56 {
        clip-path: url(#clippath-37);
      }

      .st57 {
        clip-path: url(#clippath-38);
      }

      .st58 {
        clip-path: url(#clippath-27);
      }

      .st59 {
        clip-path: url(#clippath-29);
      }

      .st60 {
        clip-path: url(#clippath-26);
      }

      .st61 {
        clip-path: url(#clippath-28);
      }

      .st62 {
        clip-path: url(#clippath-20);
      }

      .st63 {
        clip-path: url(#clippath-21);
      }

      .st64 {
        clip-path: url(#clippath-22);
      }

      .st65 {
        clip-path: url(#clippath-23);
      }

      .st66 {
        clip-path: url(#clippath-24);
      }

      .st67 {
        clip-path: url(#clippath-25);
      }

      .st68 {
        clip-path: url(#clippath-69);
      }

      .st69 {
        clip-path: url(#clippath-41);
      }

      .st70 {
        clip-path: url(#clippath-42);
      }

      .st71 {
        clip-path: url(#clippath-43);
      }

      .st72 {
        clip-path: url(#clippath-44);
      }

      .st73 {
        clip-path: url(#clippath-45);
      }

      .st74 {
        clip-path: url(#clippath-49);
      }

      .st75 {
        clip-path: url(#clippath-40);
      }

      .st76 {
        clip-path: url(#clippath-46);
      }

      .st77 {
        clip-path: url(#clippath-47);
      }

      .st78 {
        clip-path: url(#clippath-48);
      }

      .st79 {
        clip-path: url(#clippath-85);
      }

      .st80 {
        clip-path: url(#clippath-86);
      }

      .st81 {
        clip-path: url(#clippath-87);
      }

      .st82 {
        clip-path: url(#clippath-80);
      }

      .st83 {
        clip-path: url(#clippath-89);
      }

      .st84 {
        clip-path: url(#clippath-81);
      }

      .st85 {
        clip-path: url(#clippath-82);
      }

      .st86 {
        clip-path: url(#clippath-83);
      }

      .st87 {
        clip-path: url(#clippath-84);
      }

      .st88 {
        clip-path: url(#clippath-88);
      }

      .st89 {
        clip-path: url(#clippath-1);
      }

      .st90 {
        clip-path: url(#clippath-3);
      }

      .st91 {
        clip-path: url(#clippath-4);
      }

      .st92 {
        clip-path: url(#clippath-2);
      }

      .st93 {
        clip-path: url(#clippath-7);
      }

      .st94 {
        clip-path: url(#clippath-6);
      }

      .st95 {
        clip-path: url(#clippath-9);
      }

      .st96 {
        clip-path: url(#clippath-8);
      }

      .st97 {
        clip-path: url(#clippath-5);
      }

      .st98 {
        fill: #fff;
      }

      .st4 {
        stroke: #00ab8e;
        stroke-width: 3px;
      }

      .st6 {
        stroke-width: 1.9px;
      }

      .st6, .st7 {
        stroke: #1f77b4;
      }

      .st99 {
        opacity: 0;
      }

      .st100 {
        clip-path: url(#clippath);
      }

      .st7 {
        stroke-width: 2.5px;
      }
    </style>
    <clipPath id="clippath">
      <rect class="st0" x="-417.4" y="-144.7" width="2200" height="1080"/>
    </clipPath>
    <clipPath id="clippath-1">
      <rect class="st0" y="11.9" width="1095.4" height="806.8"/>
    </clipPath>
    <clipPath id="clippath-2">
      <rect class="st0" y="11.9" width="1095.4" height="806.8"/>
    </clipPath>
    <clipPath id="clippath-3">
      <rect class="st0" x="79.4" y="44.1" width="1002.4" height="343.1"/>
    </clipPath>
    <clipPath id="clippath-4">
      <rect class="st0" y="11.9" width="1095.4" height="806.8"/>
    </clipPath>
    <clipPath id="clippath-5">
      <rect class="st0" x="79.4" y="44.1" width="1002.4" height="343.1"/>
    </clipPath>
    <clipPath id="clippath-6">
      <rect class="st0" y="11.9" width="1095.4" height="806.8"/>
    </clipPath>
    <clipPath id="clippath-7">
      <rect class="st0" x="79.4" y="44.1" width="1002.4" height="343.1"/>
    </clipPath>
    <clipPath id="clippath-8">
      <rect class="st0" y="11.9" width="1095.4" height="806.8"/>
    </clipPath>
    <clipPath id="clippath-9">
      <rect class="st0" x="79.4" y="44.1" width="1002.4" height="343.1"/>
    </clipPath>
    <clipPath id="clippath-10">
      <rect class="st0" y="11.9" width="1095.4" height="806.8"/>
    </clipPath>
    <clipPath id="clippath-11">
      <rect class="st0" x="79.4" y="44.1" width="1002.4" height="343.1"/>
    </clipPath>
    <clipPath id="clippath-12">
      <rect class="st0" y="11.9" width="1095.4" height="806.8"/>
    </clipPath>
    <clipPath id="clippath-13">
      <rect class="st0" x="79.4" y="44.1" width="1002.4" height="343.1"/>
    </clipPath>
    <clipPath id="clippath-14">
      <rect class="st0" y="11.9" width="1095.4" height="806.8"/>
    </clipPath>
    <clipPath id="clippath-15">
      <rect class="st0" x="79.4" y="44.1" width="1002.4" height="343.1"/>
    </clipPath>
    <clipPath id="clippath-16">
      <rect class="st0" y="11.9" width="1095.4" height="806.8"/>
    </clipPath>
    <clipPath id="clippath-17">
      <rect class="st0" x="79.4" y="44.1" width="1002.4" height="343.1"/>
    </clipPath>
    <clipPath id="clippath-18">
      <rect class="st0" y="11.9" width="1095.4" height="806.8"/>
    </clipPath>
    <clipPath id="clippath-19">
      <rect class="st0" x="79.4" y="44.1" width="1002.4" height="343.1"/>
    </clipPath>
    <clipPath id="clippath-20">
      <rect class="st0" y="11.9" width="1095.4" height="806.8"/>
    </clipPath>
    <clipPath id="clippath-21">
      <rect class="st0" x="79.4" y="44.1" width="1002.4" height="343.1"/>
    </clipPath>
    <clipPath id="clippath-22">
      <rect class="st0" y="11.9" width="1095.4" height="806.8"/>
    </clipPath>
    <clipPath id="clippath-23">
      <rect class="st0" x="79.4" y="44.1" width="1002.4" height="343.1"/>
    </clipPath>
    <clipPath id="clippath-24">
      <rect class="st0" y="11.9" width="1095.4" height="806.8"/>
    </clipPath>
    <clipPath id="clippath-25">
      <rect class="st0" x="79.4" y="44.1" width="1002.4" height="343.1"/>
    </clipPath>
    <clipPath id="clippath-26">
      <rect class="st0" y="11.9" width="1095.4" height="806.8"/>
    </clipPath>
    <clipPath id="clippath-27">
      <rect class="st0" x="79.4" y="44.1" width="1002.4" height="343.1"/>
    </clipPath>
    <clipPath id="clippath-28">
      <rect class="st0" y="11.9" width="1095.4" height="806.8"/>
    </clipPath>
    <clipPath id="clippath-29">
      <rect class="st0" x="79.4" y="44.1" width="1002.4" height="343.1"/>
    </clipPath>
    <clipPath id="clippath-30">
      <rect class="st0" y="11.9" width="1095.4" height="806.8"/>
    </clipPath>
    <clipPath id="clippath-31">
      <rect class="st0" x="79.4" y="44.1" width="1002.4" height="343.1"/>
    </clipPath>
    <clipPath id="clippath-32">
      <rect class="st0" y="11.9" width="1095.4" height="806.8"/>
    </clipPath>
    <clipPath id="clippath-33">
      <rect class="st0" x="79.4" y="44.1" width="1002.4" height="343.1"/>
    </clipPath>
    <clipPath id="clippath-34">
      <rect class="st0" y="11.9" width="1095.4" height="806.8"/>
    </clipPath>
    <clipPath id="clippath-35">
      <rect class="st0" x="79.4" y="44.1" width="1002.4" height="343.1"/>
    </clipPath>
    <clipPath id="clippath-36">
      <rect class="st0" x="79.4" y="44.1" width="1002.4" height="343.1"/>
    </clipPath>
    <clipPath id="clippath-37">
      <rect class="st0" x="79.4" y="44.1" width="1002.4" height="343.1"/>
    </clipPath>
    <clipPath id="clippath-38">
      <rect class="st0" x="79.4" y="44.1" width="1002.4" height="343.1"/>
    </clipPath>
    <clipPath id="clippath-39">
      <rect class="st0" x="79.4" y="44.1" width="1002.4" height="343.1"/>
    </clipPath>
    <clipPath id="clippath-40">
      <rect class="st0" x="79.4" y="44.1" width="1002.4" height="343.1"/>
    </clipPath>
    <clipPath id="clippath-41">
      <rect class="st0" x="79.4" y="44.1" width="1002.4" height="343.1"/>
    </clipPath>
    <clipPath id="clippath-42">
      <rect class="st0" x="79.4" y="44.1" width="1002.4" height="343.1"/>
    </clipPath>
    <clipPath id="clippath-43">
      <rect class="st0" x="79.4" y="44.1" width="1002.4" height="343.1"/>
    </clipPath>
    <clipPath id="clippath-44">
      <rect class="st0" x="79.4" y="44.1" width="1002.4" height="343.1"/>
    </clipPath>
    <clipPath id="clippath-45">
      <rect class="st0" y="11.9" width="1095.4" height="806.8"/>
    </clipPath>
    <clipPath id="clippath-46">
      <rect class="st0" x="79.4" y="439.6" width="1002.4" height="343.1"/>
    </clipPath>
    <clipPath id="clippath-47">
      <rect class="st0" y="11.9" width="1095.4" height="806.8"/>
    </clipPath>
    <clipPath id="clippath-48">
      <rect class="st0" x="79.4" y="439.6" width="1002.4" height="343.1"/>
    </clipPath>
    <clipPath id="clippath-49">
      <rect class="st0" y="11.9" width="1095.4" height="806.8"/>
    </clipPath>
    <clipPath id="clippath-50">
      <rect class="st0" x="79.4" y="439.6" width="1002.4" height="343.1"/>
    </clipPath>
    <clipPath id="clippath-51">
      <rect class="st0" y="11.9" width="1095.4" height="806.8"/>
    </clipPath>
    <clipPath id="clippath-52">
      <rect class="st0" x="79.4" y="439.6" width="1002.4" height="343.1"/>
    </clipPath>
    <clipPath id="clippath-53">
      <rect class="st0" y="11.9" width="1095.4" height="806.8"/>
    </clipPath>
    <clipPath id="clippath-54">
      <rect class="st0" x="79.4" y="439.6" width="1002.4" height="343.1"/>
    </clipPath>
    <clipPath id="clippath-55">
      <rect class="st0" y="11.9" width="1095.4" height="806.8"/>
    </clipPath>
    <clipPath id="clippath-56">
      <rect class="st0" x="79.4" y="439.6" width="1002.4" height="343.1"/>
    </clipPath>
    <clipPath id="clippath-57">
      <rect class="st0" y="11.9" width="1095.4" height="806.8"/>
    </clipPath>
    <clipPath id="clippath-58">
      <rect class="st0" x="79.4" y="439.6" width="1002.4" height="343.1"/>
    </clipPath>
    <clipPath id="clippath-59">
      <rect class="st0" y="11.9" width="1095.4" height="806.8"/>
    </clipPath>
    <clipPath id="clippath-60">
      <rect class="st0" x="79.4" y="439.6" width="1002.4" height="343.1"/>
    </clipPath>
    <clipPath id="clippath-61">
      <rect class="st0" y="11.9" width="1095.4" height="806.8"/>
    </clipPath>
    <clipPath id="clippath-62">
      <rect class="st0" x="79.4" y="439.6" width="1002.4" height="343.1"/>
    </clipPath>
    <clipPath id="clippath-63">
      <rect class="st0" y="11.9" width="1095.4" height="806.8"/>
    </clipPath>
    <clipPath id="clippath-64">
      <rect class="st0" x="79.4" y="439.6" width="1002.4" height="343.1"/>
    </clipPath>
    <clipPath id="clippath-65">
      <rect class="st0" y="11.9" width="1095.4" height="806.8"/>
    </clipPath>
    <clipPath id="clippath-66">
      <rect class="st0" x="79.4" y="439.6" width="1002.4" height="343.1"/>
    </clipPath>
    <clipPath id="clippath-67">
      <rect class="st0" y="11.9" width="1095.4" height="806.8"/>
    </clipPath>
    <clipPath id="clippath-68">
      <rect class="st0" x="79.4" y="439.6" width="1002.4" height="343.1"/>
    </clipPath>
    <clipPath id="clippath-69">
      <rect class="st0" y="11.9" width="1095.4" height="806.8"/>
    </clipPath>
    <clipPath id="clippath-70">
      <rect class="st0" x="79.4" y="439.6" width="1002.4" height="343.1"/>
    </clipPath>
    <clipPath id="clippath-71">
      <rect class="st0" y="11.9" width="1095.4" height="806.8"/>
    </clipPath>
    <clipPath id="clippath-72">
      <rect class="st0" x="79.4" y="439.6" width="1002.4" height="343.1"/>
    </clipPath>
    <clipPath id="clippath-73">
      <rect class="st0" y="11.9" width="1095.4" height="806.8"/>
    </clipPath>
    <clipPath id="clippath-74">
      <rect class="st0" x="79.4" y="439.6" width="1002.4" height="343.1"/>
    </clipPath>
    <clipPath id="clippath-75">
      <rect class="st0" y="11.9" width="1095.4" height="806.8"/>
    </clipPath>
    <clipPath id="clippath-76">
      <rect class="st0" x="79.4" y="439.6" width="1002.4" height="343.1"/>
    </clipPath>
    <clipPath id="clippath-77">
      <rect class="st0" y="11.9" width="1095.4" height="806.8"/>
    </clipPath>
    <clipPath id="clippath-78">
      <rect class="st0" x="79.4" y="439.6" width="1002.4" height="343.1"/>
    </clipPath>
    <clipPath id="clippath-79">
      <rect class="st0" x="79.4" y="439.6" width="1002.4" height="343.1"/>
    </clipPath>
    <clipPath id="clippath-80">
      <rect class="st0" x="79.4" y="439.6" width="1002.4" height="343.1"/>
    </clipPath>
    <clipPath id="clippath-81">
      <rect class="st0" x="79.4" y="439.6" width="1002.4" height="343.1"/>
    </clipPath>
    <clipPath id="clippath-82">
      <rect class="st0" x="79.4" y="439.6" width="1002.4" height="343.1"/>
    </clipPath>
    <clipPath id="clippath-83">
      <rect class="st0" x="79.4" y="439.6" width="1002.4" height="343.1"/>
    </clipPath>
    <clipPath id="clippath-84">
      <rect class="st0" x="79.4" y="439.6" width="1002.4" height="343.1"/>
    </clipPath>
    <clipPath id="clippath-85">
      <rect class="st0" x="79.4" y="439.6" width="1002.4" height="343.1"/>
    </clipPath>
    <clipPath id="clippath-86">
      <rect class="st0" x="79.4" y="439.6" width="1002.4" height="343.1"/>
    </clipPath>
    <clipPath id="clippath-87">
      <rect class="st0" x="79.4" y="439.6" width="1002.4" height="343.1"/>
    </clipPath>
    <clipPath id="clippath-88">
      <rect class="st0" y="11.9" width="1095.4" height="806.8"/>
    </clipPath>
    <clipPath id="clippath-89">
      <rect class="st0" x="-417.4" y="-144.7" width="2200" height="1080"/>
    </clipPath>
  </defs>
  <g class="st100">
    <rect class="st98" x="-417.4" y="-144.7" width="2200" height="1080"/>
  </g>
  <g class="st89">
    <rect class="st99" y="11.9" width="1095.4" height="807.6"/>
  </g>
  <g class="st92">
    <rect class="st98" x="79.4" y="44.1" width="1002.4" height="343.1"/>
  </g>
  <g class="st90">
    <line class="st1" x1="124.9" y1="387.1" x2="124.9" y2="44.1"/>
  </g>
  <g class="st91">
    <line x1="124.9" y1="387.1" x2="124.9" y2="391.6"/>
    <line class="st3" x1="124.9" y1="387.1" x2="124.9" y2="391.6"/>
    <path d="M118.8,396.3c1,0,1.8.4,2.4,1.3.5.8.8,2,.8,3.6s-.3,2.8-.8,3.6c-.5.8-1.4,1.3-2.4,1.3s-1.8-.4-2.4-1.3c-.5-.8-.8-2-.8-3.6s.3-2.8.8-3.6c.5-.8,1.4-1.3,2.4-1.3ZM118.8,397.3c-.6,0-1.1.4-1.4,1-.4.6-.5,1.6-.5,2.9s.1,2.2.5,2.8c.4.6.8,1,1.4,1s1.1-.4,1.5-1c.4-.6.5-1.5.5-2.8s-.1-2.3-.5-2.9c-.4-.6-.8-1-1.5-1Z"/>
    <rect x="124.3" y="404.1" width="1.3" height="1.5"/>
    <path d="M131,396.3c1,0,1.8.4,2.4,1.3.5.8.8,2,.8,3.6s-.3,2.8-.8,3.6c-.5.8-1.4,1.3-2.4,1.3s-1.8-.4-2.4-1.3c-.5-.8-.8-2-.8-3.6s.3-2.8.8-3.6c.5-.8,1.4-1.3,2.4-1.3ZM131,397.3c-.6,0-1.1.4-1.4,1-.4.6-.5,1.6-.5,2.9s.1,2.2.5,2.8c.4.6.8,1,1.4,1s1.1-.4,1.5-1c.4-.6.5-1.5.5-2.8s-.1-2.3-.5-2.9c-.4-.6-.8-1-1.5-1Z"/>
  </g>
  <g class="st97">
    <line class="st1" x1="276.8" y1="387.1" x2="276.8" y2="44.1"/>
  </g>
  <g class="st94">
    <line x1="276.8" y1="387.1" x2="276.8" y2="391.6"/>
    <line class="st3" x1="276.8" y1="387.1" x2="276.8" y2="391.6"/>
    <path d="M270.7,396.3c1,0,1.8.4,2.4,1.3.5.8.8,2,.8,3.6s-.3,2.8-.8,3.6c-.5.8-1.4,1.3-2.4,1.3s-1.8-.4-2.4-1.3c-.5-.8-.8-2-.8-3.6s.3-2.8.8-3.6c.5-.8,1.4-1.3,2.4-1.3ZM270.7,397.3c-.6,0-1.1.4-1.4,1-.4.6-.5,1.6-.5,2.9s.1,2.2.5,2.8c.4.6.8,1,1.4,1s1.1-.4,1.5-1c.4-.6.5-1.5.5-2.8s-.1-2.3-.5-2.9c-.4-.6-.8-1-1.5-1Z"/>
    <rect x="276.1" y="404.1" width="1.3" height="1.5"/>
    <path d="M280.2,396.4h4.9v1h-3.8v2.3c.1,0,.4,0,.5-.1h.5c1,0,1.9.3,2.4.9.6.5.9,1.3.9,2.3s-.3,1.8-.9,2.3c-.6.5-1.5.9-2.7.9h-1.1c-.4,0-.8-.1-1.3-.3v-1.3c.4.3.8.4,1.1.5.4.1.8.1,1.3.1.8,0,1.3-.1,1.6-.5.4-.4.6-.9.6-1.5s-.3-1.1-.6-1.5c-.4-.4-1-.5-1.6-.5h-1c-.4,0-.6.1-1,.4v-4.9Z"/>
  </g>
  <g class="st93">
    <line class="st1" x1="428.7" y1="387.1" x2="428.7" y2="44.1"/>
  </g>
  <g class="st96">
    <line x1="428.7" y1="387.1" x2="428.7" y2="391.6"/>
    <line class="st3" x1="428.7" y1="387.1" x2="428.7" y2="391.6"/>
    <polygon points="420.2 404.6 422.2 404.6 422.2 397.5 419.9 398 419.9 396.9 422.1 396.4 423.3 396.4 423.3 404.6 425.4 404.6 425.4 405.7 420 405.7 420 404.6 420.2 404.6"/>
    <rect x="428" y="404.1" width="1.3" height="1.5"/>
    <path d="M434.8,396.3c1,0,1.8.4,2.4,1.3.5.8.8,2,.8,3.6s-.3,2.8-.8,3.6c-.5.8-1.4,1.3-2.4,1.3s-1.8-.4-2.4-1.3c-.5-.8-.8-2-.8-3.6s.3-2.8.8-3.6c.5-.8,1.4-1.3,2.4-1.3ZM434.8,397.3c-.6,0-1.1.4-1.4,1-.4.6-.5,1.6-.5,2.9s.1,2.2.5,2.8c.4.6.8,1,1.4,1s1.1-.4,1.5-1c.4-.6.5-1.5.5-2.8s-.1-2.3-.5-2.9c-.4-.6-.8-1-1.5-1Z"/>
  </g>
  <g class="st95">
    <line class="st1" x1="580.6" y1="387.1" x2="580.6" y2="44.1"/>
  </g>
  <g class="st14">
    <line x1="580.6" y1="387.1" x2="580.6" y2="391.6"/>
    <line class="st3" x1="580.6" y1="387.1" x2="580.6" y2="391.6"/>
    <polygon points="572.1 404.6 574.1 404.6 574.1 397.5 571.8 398 571.8 396.9 574 396.4 575.2 396.4 575.2 404.6 577.3 404.6 577.3 405.7 571.9 405.7 571.9 404.6 572.1 404.6"/>
    <rect x="579.9" y="404.1" width="1.3" height="1.5"/>
    <path d="M584,396.4h4.9v1h-3.8v2.3c.1,0,.4,0,.5-.1h.5c1,0,1.9.3,2.4.9.6.5.9,1.3.9,2.3s-.3,1.8-.9,2.3c-.6.5-1.5.9-2.7.9h-1.1c-.4,0-.8-.1-1.3-.3v-1.3c.4.3.8.4,1.1.5.4.1.8.1,1.3.1.8,0,1.3-.1,1.6-.5.4-.4.6-.9.6-1.5s-.3-1.1-.6-1.5c-.4-.4-1-.5-1.6-.5h-1c-.4,0-.6.1-1,.4v-4.9Z"/>
  </g>
  <g class="st11">
    <line class="st1" x1="732.6" y1="387.1" x2="732.6" y2="44.1"/>
  </g>
  <g class="st18">
    <line x1="732.6" y1="387.1" x2="732.6" y2="391.6"/>
    <line class="st3" x1="732.6" y1="387.1" x2="732.6" y2="391.6"/>
    <path d="M724.8,404.6h4.3v1h-5.8v-1c.5-.5,1.1-1.1,1.9-2,.8-.9,1.4-1.4,1.5-1.6.4-.5.6-.9.9-1.1.1-.3.3-.6.3-.9,0-.5-.1-.9-.5-1.1-.4-.3-.8-.5-1.4-.5s-.8,0-1.3.3c-.4.1-.9.4-1.4.6v-1.3c.5-.3,1-.4,1.4-.5.4,0,.9-.1,1.1-.1,1,0,1.8.3,2.3.8.5.5.9,1.1.9,1.9s0,.8-.3,1.1c-.1.4-.4.8-.8,1.1,0,0-.4.5-1,1-.5.6-1.4,1.4-2.3,2.4h.1Z"/>
    <rect x="731.8" y="404.1" width="1.3" height="1.5"/>
    <path d="M738.5,396.3c1,0,1.8.4,2.4,1.3.5.8.8,2,.8,3.6s-.3,2.8-.8,3.6c-.5.8-1.4,1.3-2.4,1.3s-1.8-.4-2.4-1.3c-.5-.8-.8-2-.8-3.6s.3-2.8.8-3.6c.5-.8,1.4-1.3,2.4-1.3ZM738.5,397.3c-.6,0-1.1.4-1.4,1-.4.6-.5,1.6-.5,2.9s.1,2.2.5,2.8c.4.6.8,1,1.4,1s1.1-.4,1.5-1c.4-.6.5-1.5.5-2.8s-.1-2.3-.5-2.9c-.4-.6-.8-1-1.5-1Z"/>
  </g>
  <g class="st16">
    <line class="st1" x1="884.5" y1="387.1" x2="884.5" y2="44.1"/>
  </g>
  <g class="st17">
    <line x1="884.5" y1="387.1" x2="884.5" y2="391.6"/>
    <line class="st3" x1="884.5" y1="387.1" x2="884.5" y2="391.6"/>
    <path d="M876.7,404.6h4.3v1h-5.8v-1c.5-.5,1.1-1.1,1.9-2,.8-.9,1.4-1.4,1.5-1.6.4-.5.6-.9.9-1.1.1-.3.3-.6.3-.9,0-.5-.1-.9-.5-1.1-.4-.3-.8-.5-1.4-.5s-.8,0-1.3.3c-.4.1-.9.4-1.4.6v-1.3c.5-.3,1-.4,1.4-.5.4,0,.9-.1,1.1-.1,1,0,1.8.3,2.3.8.5.5.9,1.1.9,1.9s0,.8-.3,1.1c-.1.4-.4.8-.8,1.1,0,0-.4.5-1,1-.5.6-1.4,1.4-2.3,2.4h.1Z"/>
    <rect x="883.7" y="404.1" width="1.3" height="1.5"/>
    <path d="M887.8,396.4h4.9v1h-3.8v2.3c.1,0,.4,0,.5-.1h.5c1,0,1.9.3,2.4.9.6.5.9,1.3.9,2.3s-.3,1.8-.9,2.3c-.6.5-1.5.9-2.7.9h-1.1c-.4,0-.8-.1-1.3-.3v-1.3c.4.3.8.4,1.1.5.4.1.8.1,1.3.1.8,0,1.3-.1,1.6-.5.4-.4.6-.9.6-1.5s-.3-1.1-.6-1.5c-.4-.4-1-.5-1.6-.5h-1c-.4,0-.6.1-1,.4v-4.9Z"/>
  </g>
  <g class="st15">
    <line class="st1" x1="1036.4" y1="387.1" x2="1036.4" y2="44.1"/>
  </g>
  <g class="st12">
    <line x1="1036.4" y1="387.1" x2="1036.4" y2="391.6"/>
    <line class="st3" x1="1036.4" y1="387.1" x2="1036.4" y2="391.6"/>
    <path d="M1031.4,400.7c.6.1,1,.4,1.4.8.4.4.5.9.5,1.5s-.3,1.6-.9,2.2c-.6.5-1.5.8-2.7.8h-1.1c-.4,0-.9-.3-1.3-.4v-1.3c.4.3.8.4,1.1.5.4,0,.9.1,1.3.1.8,0,1.4-.1,1.8-.5.4-.4.6-.8.6-1.4s-.3-1-.6-1.3c-.4-.3-.9-.5-1.6-.5h-1.1v-1h1.1c.6,0,1.1,0,1.4-.4.3-.4.5-.6.5-1s-.1-.9-.5-1.1c-.4-.3-.8-.4-1.4-.4h-1.1c-.4,0-.8.1-1.3.4v-1.1c.5-.1.9-.3,1.4-.3h1.1c.9,0,1.6.3,2.3.6.5.4.9,1,.9,1.8s-.1.9-.4,1.3c-.3.4-.8.6-1.3.8h-.1Z"/>
    <rect x="1035.7" y="404.1" width="1.3" height="1.5"/>
    <path d="M1042.3,396.3c1,0,1.8.4,2.4,1.3.5.8.8,2,.8,3.6s-.3,2.8-.8,3.6c-.5.8-1.4,1.3-2.4,1.3s-1.8-.4-2.4-1.3c-.5-.8-.8-2-.8-3.6s.3-2.8.8-3.6c.5-.8,1.4-1.3,2.4-1.3ZM1042.3,397.3c-.6,0-1.1.4-1.4,1-.4.6-.5,1.6-.5,2.9s.1,2.2.5,2.8c.4.6.8,1,1.4,1s1.1-.4,1.5-1c.4-.6.5-1.5.5-2.8s-.1-2.3-.5-2.9c-.4-.6-.8-1-1.5-1Z"/>
  </g>
  <g class="st9">
    <line class="st1" x1="79.4" y1="371.5" x2="1081.8" y2="371.5"/>
  </g>
  <g class="st13">
    <line x1="79.4" y1="371.5" x2="74.9" y2="371.5"/>
    <line class="st3" x1="79.4" y1="371.5" x2="74.9" y2="371.5"/>
    <rect x="33" y="371.9" width="8" height="1"/>
    <polygon points="43.7 375.4 45.8 375.4 45.8 368.3 43.5 368.8 43.5 367.6 45.6 367.1 46.9 367.1 46.9 375.4 48.9 375.4 48.9 376.4 43.6 376.4 43.6 375.4 43.7 375.4"/>
    <rect x="51.6" y="374.8" width="1.3" height="1.5"/>
    <path d="M58.3,367c1,0,1.8.4,2.4,1.3.5.8.8,2,.8,3.6s-.3,2.8-.8,3.6c-.5.8-1.4,1.3-2.4,1.3s-1.8-.4-2.4-1.3c-.5-.8-.8-2-.8-3.6s.3-2.8.8-3.6c.5-.8,1.4-1.3,2.4-1.3ZM58.3,368c-.6,0-1.1.4-1.4,1-.4.6-.5,1.6-.5,2.9s.1,2.2.5,2.8c.4.6.8,1,1.4,1s1.1-.4,1.5-1c.4-.6.5-1.5.5-2.8s-.1-2.3-.5-2.9c-.4-.6-.8-1-1.5-1Z"/>
    <path d="M66.4,367c1,0,1.8.4,2.4,1.3.5.8.8,2,.8,3.6s-.3,2.8-.8,3.6c-.5.8-1.4,1.3-2.4,1.3s-1.8-.4-2.4-1.3c-.5-.8-.8-2-.8-3.6s.3-2.8.8-3.6c.5-.8,1.4-1.3,2.4-1.3ZM66.4,368c-.6,0-1.1.4-1.4,1-.4.6-.5,1.6-.5,2.9s.1,2.2.5,2.8c.4.6.8,1,1.4,1s1.1-.4,1.5-1c.4-.6.5-1.5.5-2.8s-.1-2.3-.5-2.9c-.4-.6-.8-1-1.5-1Z"/>
  </g>
  <g class="st10">
    <line class="st1" x1="79.4" y1="332.6" x2="1081.8" y2="332.6"/>
  </g>
  <g class="st62">
    <line x1="79.4" y1="332.6" x2="74.9" y2="332.6"/>
    <line class="st3" x1="79.4" y1="332.6" x2="74.9" y2="332.6"/>
    <rect x="33" y="332.9" width="8" height="1"/>
    <path d="M46.3,328.1c1,0,1.8.4,2.4,1.3.5.8.8,2,.8,3.6s-.3,2.8-.8,3.6c-.5.8-1.4,1.3-2.4,1.3s-1.8-.4-2.4-1.3c-.5-.8-.8-2-.8-3.6s.3-2.8.8-3.6c.5-.8,1.4-1.3,2.4-1.3ZM46.3,328.9c-.6,0-1.1.4-1.4,1-.4.6-.5,1.6-.5,2.9s.1,2.2.5,2.8c.4.6.8,1,1.4,1s1.1-.4,1.5-1c.4-.6.5-1.5.5-2.8s-.1-2.3-.5-2.9c-.4-.6-.8-1-1.5-1Z"/>
    <rect x="51.6" y="335.8" width="1.3" height="1.5"/>
    <polygon points="55.4 328.2 61.4 328.2 61.4 328.7 58.1 337.4 56.8 337.4 60 329.2 55.5 329.2 55.5 328.2 55.4 328.2"/>
    <path d="M63.8,328.2h4.9v1h-3.8v2.3c.1,0,.4,0,.5-.1h.5c1,0,1.9.3,2.4.9.6.5.9,1.3.9,2.3s-.3,1.8-.9,2.3c-.6.5-1.5.9-2.7.9h-1.1c-.4,0-.8-.1-1.3-.3v-1.3c.4.3.8.4,1.1.5.4.1.8.1,1.3.1.8,0,1.3-.1,1.6-.5.4-.4.6-.9.6-1.5s-.3-1.1-.6-1.5c-.4-.4-1-.5-1.6-.5h-1c-.4,0-.6.1-1,.4v-4.9Z"/>
  </g>
  <g class="st63">
    <line class="st1" x1="79.4" y1="293.6" x2="1081.8" y2="293.6"/>
  </g>
  <g class="st64">
    <line x1="79.4" y1="293.6" x2="74.9" y2="293.6"/>
    <line class="st3" x1="79.4" y1="293.6" x2="74.9" y2="293.6"/>
    <rect x="33" y="294" width="8" height="1"/>
    <path d="M46.3,289c1,0,1.8.4,2.4,1.3.5.8.8,2,.8,3.5s-.3,2.8-.8,3.6c-.5.8-1.4,1.3-2.4,1.3s-1.8-.4-2.4-1.3c-.5-.8-.8-2-.8-3.6s.3-2.8.8-3.5c.5-.8,1.4-1.3,2.4-1.3ZM46.3,290c-.6,0-1.1.4-1.4,1-.4.6-.5,1.6-.5,2.9s.1,2.2.5,2.8c.4.6.8,1,1.4,1s1.1-.4,1.5-1c.4-.6.5-1.5.5-2.8s-.1-2.3-.5-2.9c-.4-.6-.8-1-1.5-1Z"/>
    <rect x="51.6" y="296.9" width="1.3" height="1.5"/>
    <path d="M55.7,289.1h4.9v1h-3.8v2.3c.1,0,.4,0,.5-.1h.5c1,0,1.9.3,2.4.9.6.5.9,1.3.9,2.3s-.3,1.8-.9,2.3c-.6.5-1.5.9-2.7.9h-1.1c-.4,0-.8-.1-1.3-.3v-1.3c.4.3.8.4,1.1.5.4.1.8.1,1.3.1.8,0,1.3-.1,1.6-.5.4-.4.6-.9.6-1.5s-.3-1.1-.6-1.5c-.4-.4-1-.5-1.6-.5h-1c-.4,0-.6.1-1,.4v-4.9Z"/>
    <path d="M66.4,289c1,0,1.8.4,2.4,1.3.5.8.8,2,.8,3.5s-.3,2.8-.8,3.6c-.5.8-1.4,1.3-2.4,1.3s-1.8-.4-2.4-1.3c-.5-.8-.8-2-.8-3.6s.3-2.8.8-3.5c.5-.8,1.4-1.3,2.4-1.3ZM66.4,290c-.6,0-1.1.4-1.4,1-.4.6-.5,1.6-.5,2.9s.1,2.2.5,2.8c.4.6.8,1,1.4,1s1.1-.4,1.5-1c.4-.6.5-1.5.5-2.8s-.1-2.3-.5-2.9c-.4-.6-.8-1-1.5-1Z"/>
  </g>
  <g class="st65">
    <line class="st1" x1="79.4" y1="254.7" x2="1081.8" y2="254.7"/>
  </g>
  <g class="st66">
    <line x1="79.4" y1="254.7" x2="74.9" y2="254.7"/>
    <line class="st3" x1="79.4" y1="254.7" x2="74.9" y2="254.7"/>
    <rect x="33" y="254.9" width="8" height="1"/>
    <path d="M46.3,250.1c1,0,1.8.4,2.4,1.3.5.8.8,2,.8,3.6s-.3,2.8-.8,3.6c-.5.8-1.4,1.3-2.4,1.3s-1.8-.4-2.4-1.3c-.5-.8-.8-2-.8-3.6s.3-2.8.8-3.6c.5-.8,1.4-1.3,2.4-1.3ZM46.3,251c-.6,0-1.1.4-1.4,1-.4.6-.5,1.6-.5,2.9s.1,2.2.5,2.8c.4.6.8,1,1.4,1s1.1-.4,1.5-1c.4-.6.5-1.5.5-2.8s-.1-2.3-.5-2.9c-.4-.6-.8-1-1.5-1Z"/>
    <rect x="51.6" y="257.8" width="1.3" height="1.5"/>
    <path d="M56.8,258.5h4.3v1h-5.8v-1c.5-.5,1.1-1.1,1.9-2,.8-.9,1.4-1.4,1.5-1.6.4-.5.6-.9.9-1.1.1-.3.3-.6.3-.9,0-.5-.1-.9-.5-1.1-.4-.3-.8-.5-1.4-.5s-.8,0-1.3.3c-.4.1-.9.4-1.4.6v-1.3c.5-.3,1-.4,1.4-.5.4,0,.9-.1,1.1-.1,1,0,1.8.3,2.3.8.5.5.9,1.1.9,1.9s0,.8-.3,1.1c-.1.4-.4.8-.8,1.1,0,0-.4.5-1,1-.5.6-1.4,1.4-2.3,2.4h.1Z"/>
    <path d="M63.8,250.2h4.9v1h-3.8v2.3c.1,0,.4,0,.5-.1h.5c1,0,1.9.3,2.4.9.6.5.9,1.3.9,2.3s-.3,1.8-.9,2.3c-.6.5-1.5.9-2.7.9h-1.1c-.4,0-.8-.1-1.3-.3v-1.3c.4.3.8.4,1.1.5.4.1.8.1,1.3.1.8,0,1.3-.1,1.6-.5.4-.4.6-.9.6-1.5s-.3-1.1-.6-1.5c-.4-.4-1-.5-1.6-.5h-1c-.4,0-.6.1-1,.4v-4.9Z"/>
  </g>
  <g class="st67">
    <line class="st1" x1="79.4" y1="215.6" x2="1081.8" y2="215.6"/>
  </g>
  <g class="st60">
    <line x1="79.4" y1="215.6" x2="74.9" y2="215.6"/>
    <line class="st3" x1="79.4" y1="215.6" x2="74.9" y2="215.6"/>
    <path d="M46.3,211c1,0,1.8.4,2.4,1.3.5.8.8,2,.8,3.6s-.3,2.8-.8,3.6c-.5.8-1.4,1.3-2.4,1.3s-1.8-.4-2.4-1.3c-.5-.8-.8-2-.8-3.6s.3-2.8.8-3.6c.5-.8,1.4-1.3,2.4-1.3ZM46.3,212c-.6,0-1.1.4-1.4,1-.4.6-.5,1.6-.5,2.9s.1,2.2.5,2.8c.4.6.8,1,1.4,1s1.1-.4,1.5-1c.4-.6.5-1.5.5-2.8s-.1-2.3-.5-2.9c-.4-.6-.8-1-1.5-1Z"/>
    <rect x="51.6" y="218.9" width="1.3" height="1.5"/>
    <path d="M58.3,211c1,0,1.8.4,2.4,1.3.5.8.8,2,.8,3.6s-.3,2.8-.8,3.6c-.5.8-1.4,1.3-2.4,1.3s-1.8-.4-2.4-1.3c-.5-.8-.8-2-.8-3.6s.3-2.8.8-3.6c.5-.8,1.4-1.3,2.4-1.3ZM58.3,212c-.6,0-1.1.4-1.4,1-.4.6-.5,1.6-.5,2.9s.1,2.2.5,2.8c.4.6.8,1,1.4,1s1.1-.4,1.5-1c.4-.6.5-1.5.5-2.8s-.1-2.3-.5-2.9c-.4-.6-.8-1-1.5-1Z"/>
    <path d="M66.4,211c1,0,1.8.4,2.4,1.3.5.8.8,2,.8,3.6s-.3,2.8-.8,3.6c-.5.8-1.4,1.3-2.4,1.3s-1.8-.4-2.4-1.3c-.5-.8-.8-2-.8-3.6s.3-2.8.8-3.6c.5-.8,1.4-1.3,2.4-1.3ZM66.4,212c-.6,0-1.1.4-1.4,1-.4.6-.5,1.6-.5,2.9s.1,2.2.5,2.8c.4.6.8,1,1.4,1s1.1-.4,1.5-1c.4-.6.5-1.5.5-2.8s-.1-2.3-.5-2.9c-.4-.6-.8-1-1.5-1Z"/>
  </g>
  <g class="st58">
    <line class="st1" x1="79.4" y1="176.7" x2="1081.8" y2="176.7"/>
  </g>
  <g class="st61">
    <line x1="79.4" y1="176.7" x2="74.9" y2="176.7"/>
    <line class="st3" x1="79.4" y1="176.7" x2="74.9" y2="176.7"/>
    <path d="M46.3,172.1c1,0,1.8.4,2.4,1.3.5.8.8,2,.8,3.6s-.3,2.8-.8,3.6c-.5.8-1.4,1.3-2.4,1.3s-1.8-.4-2.4-1.3c-.5-.8-.8-2-.8-3.6s.3-2.8.8-3.6c.5-.8,1.4-1.3,2.4-1.3ZM46.3,173c-.6,0-1.1.4-1.4,1-.4.6-.5,1.6-.5,2.9s.1,2.2.5,2.8c.4.6.8,1,1.4,1s1.1-.4,1.5-1c.4-.6.5-1.5.5-2.8s-.1-2.3-.5-2.9c-.4-.6-.8-1-1.5-1Z"/>
    <rect x="51.6" y="179.8" width="1.3" height="1.5"/>
    <path d="M56.8,180.5h4.3v1h-5.8v-1c.5-.5,1.1-1.1,1.9-2,.8-.9,1.4-1.4,1.5-1.6.4-.5.6-.9.9-1.1.1-.3.3-.6.3-.9,0-.5-.1-.9-.5-1.1-.4-.3-.8-.5-1.4-.5s-.8,0-1.3.3c-.4.1-.9.4-1.4.6v-1.3c.5-.3,1-.4,1.4-.5.4,0,.9-.1,1.1-.1,1,0,1.8.3,2.3.8.5.5.9,1.1.9,1.9s0,.8-.3,1.1c-.1.4-.4.8-.8,1.1,0,0-.4.5-1,1-.5.6-1.4,1.4-2.3,2.4h.1Z"/>
    <path d="M63.8,172.2h4.9v1h-3.8v2.3c.1,0,.4,0,.5-.1h.5c1,0,1.9.3,2.4.9.6.5.9,1.3.9,2.3s-.3,1.8-.9,2.3c-.6.5-1.5.9-2.7.9h-1.1c-.4,0-.8-.1-1.3-.3v-1.3c.4.3.8.4,1.1.5.4.1.8.1,1.3.1.8,0,1.3-.1,1.6-.5.4-.4.6-.9.6-1.5s-.3-1.1-.6-1.5c-.4-.4-1-.5-1.6-.5h-1c-.4,0-.6.1-1,.4v-4.9Z"/>
  </g>
  <g class="st59">
    <line class="st1" x1="79.4" y1="137.6" x2="1081.8" y2="137.6"/>
  </g>
  <g class="st54">
    <line x1="79.4" y1="137.6" x2="74.9" y2="137.6"/>
    <line class="st3" x1="79.4" y1="137.6" x2="74.9" y2="137.6"/>
    <path d="M46.3,133.1c1,0,1.8.4,2.4,1.3.5.8.8,2,.8,3.5s-.3,2.8-.8,3.6c-.5.8-1.4,1.3-2.4,1.3s-1.8-.4-2.4-1.3c-.5-.8-.8-2-.8-3.6s.3-2.8.8-3.5c.5-.8,1.4-1.3,2.4-1.3ZM46.3,134.1c-.6,0-1.1.4-1.4,1-.4.6-.5,1.6-.5,2.9s.1,2.2.5,2.8c.4.6.8,1,1.4,1s1.1-.4,1.5-1c.4-.6.5-1.5.5-2.8s-.1-2.3-.5-2.9c-.4-.6-.8-1-1.5-1Z"/>
    <rect x="51.6" y="140.9" width="1.3" height="1.5"/>
    <path d="M55.7,133.2h4.9v1h-3.8v2.3c.1,0,.4,0,.5-.1h.5c1,0,1.9.3,2.4.9.6.5.9,1.3.9,2.3s-.3,1.8-.9,2.3c-.6.5-1.5.9-2.7.9h-1.1c-.4,0-.8-.1-1.3-.3v-1.3c.4.3.8.4,1.1.5.4.1.8.1,1.3.1.8,0,1.3-.1,1.6-.5.4-.4.6-.9.6-1.5s-.3-1.1-.6-1.5c-.4-.4-1-.5-1.6-.5h-1c-.4,0-.6.1-1,.4v-4.9Z"/>
    <path d="M66.4,133.1c1,0,1.8.4,2.4,1.3.5.8.8,2,.8,3.5s-.3,2.8-.8,3.6c-.5.8-1.4,1.3-2.4,1.3s-1.8-.4-2.4-1.3c-.5-.8-.8-2-.8-3.6s.3-2.8.8-3.5c.5-.8,1.4-1.3,2.4-1.3ZM66.4,134.1c-.6,0-1.1.4-1.4,1-.4.6-.5,1.6-.5,2.9s.1,2.2.5,2.8c.4.6.8,1,1.4,1s1.1-.4,1.5-1c.4-.6.5-1.5.5-2.8s-.1-2.3-.5-2.9c-.4-.6-.8-1-1.5-1Z"/>
  </g>
  <g class="st48">
    <line class="st1" x1="79.4" y1="98.7" x2="1081.8" y2="98.7"/>
  </g>
  <g class="st49">
    <line x1="79.4" y1="98.7" x2="74.9" y2="98.7"/>
    <line class="st3" x1="79.4" y1="98.7" x2="74.9" y2="98.7"/>
    <path d="M46.3,94.1c1,0,1.8.4,2.4,1.3.5.8.8,2,.8,3.6s-.3,2.8-.8,3.6c-.5.8-1.4,1.3-2.4,1.3s-1.8-.4-2.4-1.3c-.5-.8-.8-2-.8-3.6s.3-2.8.8-3.6c.5-.8,1.4-1.3,2.4-1.3ZM46.3,95c-.6,0-1.1.4-1.4,1-.4.6-.5,1.6-.5,2.9s.1,2.2.5,2.8c.4.6.8,1,1.4,1s1.1-.4,1.5-1c.4-.6.5-1.5.5-2.8s-.1-2.3-.5-2.9c-.4-.6-.8-1-1.5-1Z"/>
    <rect x="51.6" y="101.9" width="1.3" height="1.5"/>
    <polygon points="55.4 94.3 61.4 94.3 61.4 94.8 58.1 103.5 56.8 103.5 60 95.3 55.5 95.3 55.5 94.3 55.4 94.3"/>
    <path d="M63.8,94.3h4.9v1h-3.8v2.3c.1,0,.4,0,.5-.1h.5c1,0,1.9.3,2.4.9.6.5.9,1.3.9,2.3s-.3,1.8-.9,2.3c-.6.5-1.5.9-2.7.9h-1.1c-.4,0-.8-.1-1.3-.3v-1.3c.4.3.8.4,1.1.5.4.1.8.1,1.3.1.8,0,1.3-.1,1.6-.5.4-.4.6-.9.6-1.5s-.3-1.1-.6-1.5c-.4-.4-1-.5-1.6-.5h-1c-.4,0-.6.1-1,.4v-4.9Z"/>
  </g>
  <g class="st50">
    <line class="st1" x1="79.4" y1="59.7" x2="1081.8" y2="59.7"/>
  </g>
  <g class="st51">
    <line x1="79.4" y1="59.7" x2="74.9" y2="59.7"/>
    <line class="st3" x1="79.4" y1="59.7" x2="74.9" y2="59.7"/>
    <polygon points="43.7 63.5 45.8 63.5 45.8 56.4 43.5 56.9 43.5 55.7 45.6 55.2 46.9 55.2 46.9 63.5 48.9 63.5 48.9 64.5 43.6 64.5 43.6 63.5 43.7 63.5"/>
    <rect x="51.6" y="62.9" width="1.3" height="1.5"/>
    <path d="M58.3,55.1c1,0,1.8.4,2.4,1.3.5.8.8,2,.8,3.6s-.3,2.8-.8,3.6c-.5.8-1.4,1.3-2.4,1.3s-1.8-.4-2.4-1.3c-.5-.8-.8-2-.8-3.6s.3-2.8.8-3.6c.5-.8,1.4-1.3,2.4-1.3ZM58.3,56.1c-.6,0-1.1.4-1.4,1-.4.6-.5,1.6-.5,2.9s.1,2.2.5,2.8c.4.6.8,1,1.4,1s1.1-.4,1.5-1c.4-.6.5-1.5.5-2.8s-.1-2.3-.5-2.9c-.4-.6-.8-1-1.5-1Z"/>
    <path d="M66.4,55.1c1,0,1.8.4,2.4,1.3.5.8.8,2,.8,3.6s-.3,2.8-.8,3.6c-.5.8-1.4,1.3-2.4,1.3s-1.8-.4-2.4-1.3c-.5-.8-.8-2-.8-3.6s.3-2.8.8-3.6c.5-.8,1.4-1.3,2.4-1.3ZM66.4,56.1c-.6,0-1.1.4-1.4,1-.4.6-.5,1.6-.5,2.9s.1,2.2.5,2.8c.4.6.8,1,1.4,1s1.1-.4,1.5-1c.4-.6.5-1.5.5-2.8s-.1-2.3-.5-2.9c-.4-.6-.8-1-1.5-1Z"/>
    <path d="M14.7,244.5v-1.4l9.3-3.6v1.3l-2.4.9v4.2l2.4.9v1.3l-9.3-3.5ZM15.8,243.7l4.6,1.6v-3.4l-4.6,1.6h0Z"/>
    <path d="M18.3,232.8c-.5-.3-.9-.6-1.1-1-.3-.4-.4-.9-.4-1.4s.3-1.3.8-1.6c.5-.4,1.3-.6,2.2-.6h4.2v1.1h-4.2c-.6,0-1.1,0-1.5.4-.4.3-.5.6-.5,1s.3,1,.6,1.4c.4.4.9.5,1.6.5h3.9v1.1h-4.2c-.6,0-1.1,0-1.5.4-.4.4-.5.6-.5,1.1s.3,1,.6,1.4c.4.4.9.5,1.6.5h3.9v1.1h-7v-1.1h1.1c-.4-.3-.8-.6-.9-.9-.1-.3-.3-.8-.3-1.3s.1-.9.4-1.3c.3-.4.6-.6,1.1-.8h-.1Z"/>
    <path d="M20.4,220.9c-.9,0-1.5.1-2,.5-.5.4-.8.8-.8,1.4s.3,1.1.8,1.4c.5.3,1.1.5,2,.5s1.5-.1,2-.5c.5-.4.8-.8.8-1.4s-.3-1-.8-1.4c-.5-.4-1.1-.5-2-.5ZM22.8,224.9h3.7v1.1h-9.5v-1.1h1c-.4-.3-.8-.5-.9-.9-.3-.4-.3-.8-.3-1.3,0-.9.4-1.5,1-2,.6-.5,1.5-.8,2.7-.8s2,.3,2.7.8c.6.5,1,1.3,1,2s0,.9-.3,1.3c-.3.4-.5.6-.9.9h-.3Z"/>
    <rect x="14.2" y="216.7" width="9.6" height="1.1"/>
    <path d="M14.2,214.3v-1.1h1.4v1.1h-1.4ZM17,214.3v-1.1h7v1.1h-7Z"/>
    <path d="M15,209.6h2v-2.4h.9v2.4h3.8c.5,0,.9,0,1.1-.3.3-.3.3-.5.3-.9v-1.1h1v1.1c0,.9-.1,1.5-.5,1.8-.4.4-.9.5-1.8.5h-3.8v.9h-.9v-.9h-2v-1.1h-.1Z"/>
    <path d="M16.7,203h0ZM21.2,206h-4.2v-1.1h4.2c.6,0,1.1-.1,1.5-.4s.5-.6.5-1.1-.3-1.1-.6-1.4c-.4-.4-.9-.5-1.6-.5h-3.9v-1.1h7v1.1h-1c.4.3.8.6.9,1,.3.4.3.8.3,1.3,0,.8-.3,1.4-.8,1.8-.5.4-1.3.6-2.2.6h0Z"/>
    <path d="M20.4,197.1c.9,0,1.5-.1,2-.5.5-.4.8-.8.8-1.4s-.3-1-.8-1.4c-.5-.4-1.1-.5-2-.5s-1.5.1-2,.5c-.5.4-.8.8-.8,1.4s.3,1,.8,1.4c.5.4,1.1.5,2,.5ZM18,193.3h-3.8v-1.1h9.6v1.1h-1c.4.3.8.5.9.9.3.4.3.8.3,1.3,0,.9-.4,1.5-1,2-.6.5-1.5.8-2.7.8s-2-.3-2.7-.8c-.6-.5-1-1.3-1-2s0-1,.3-1.3c.3-.4.5-.6.9-.9h.3Z"/>
    <path d="M19.8,184.9c-.6,0-1.1.1-1.5.5-.4.4-.5.8-.5,1.4s.1,1.1.5,1.5c.4.4.9.6,1.5.6v-4.1ZM20.2,183.8h.5v5.2c.8,0,1.4-.3,1.8-.8.4-.4.6-1,.6-1.8s0-.9-.1-1.3c-.1-.4-.3-.8-.5-1.3h1.1c.1.4.3.9.4,1.3.1.4.1.9.1,1.3,0,1.1-.4,2-1,2.7-.6.6-1.5,1-2.7,1s-2-.3-2.7-.9c-.6-.6-1-1.4-1-2.5s.3-1.6.9-2.2c.6-.5,1.4-.8,2.4-.8h.1Z"/>
  </g>
  <g class="st52">
    <polyline class="st6" points="124.9 215.6 127.4 136.2 128.8 101.9 129.8 81.3 130.7 68.8 131.5 62.3 132 60.3 132.2 59.7 132.5 59.7 132.7 60.3 133.3 62.3 133.9 67.1 134.6 76.5 135.5 92.2 136.6 116.1 137.9 153.6 140.4 230.2 142.6 299 144 332.5 145 352.2 145.9 363.8 146.6 368.6 147.1 370.7 147.3 371.3 147.6 371.3 147.8 370.7 148.3 368.6 149 363.8 149.7 354.4 150.6 338.7 151.6 314.9 153 277.3 155.4 200.8 157.7 131.9 159.1 98.4 160.1 78.8 161 67.1 161.7 62.3 162.2 60.3 162.4 59.7 162.7 59.7 162.9 60.3 163.4 62.3 164.1 67.1 164.8 76.5 165.7 92.2 166.7 116.1 168.1 153.6 170.5 230.2 172.8 299 174.2 332.5 175.2 352.2 176.1 363.8 176.7 368.6 177.2 370.7 177.5 371.3 177.8 371.3 178 370.7 178.5 368.6 179.2 363.8 179.9 354.4 180.8 338.7 181.8 314.9 183.2 277.3 185.6 200.8 187.9 131.9 189.3 98.4 190.3 78.8 191.2 67.1 191.8 62.3 192.3 60.3 192.6 59.7 192.8 59.7 193.1 60.3 193.6 62.3 194.2 67.1 195 76.5 195.9 92.2 196.9 116.1 198.3 153.6 200.7 230.2 203 299 204.4 332.5 205.4 352.2 206.3 363.8 206.9 368.6 207.4 370.7 207.7 371.3 207.9 371.3 208.2 370.7 208.7 368.6 209.3 363.8 210.1 354.4 211 338.7 212 314.9 213.4 277.3 215.4 215.5 217.9 294.8 219.3 329.2 220.4 349.7 221.2 362.3 222 368.8 222.5 370.8 222.8 371.4 223 371.4 223.3 370.8 223.8 368.8 224.4 363.9 225.2 354.6 226.1 338.8 227.1 315 228.5 277.5 230.9 200.9 233.2 132 234.6 98.6 235.6 78.9 236.5 67.3 237.1 62.4 237.6 60.4 237.9 59.8 238.1 59.8 238.4 60.4 238.9 62.4 239.5 67.3 240.3 76.6 241.2 92.4 242.2 116.2 243.6 153.7"/>
    <polyline class="st6" points="243.6 153.7 246 230.3 248.3 299.2 249.6 332.6 250.7 352.3 251.5 363.9 252.2 368.8 252.7 370.8 252.9 371.4 253.2 371.4 253.4 370.8 254 368.8 254.6 363.9 255.4 354.6 256.2 338.8 257.3 315 258.6 277.5 261.1 200.9 263.3 132 264.7 98.6 265.7 78.9 266.6 67.3 267.3 62.4 267.8 60.4 268 59.8 268.3 59.8 268.5 60.4 269 62.4 269.7 67.3 270.4 76.6 271.3 92.4 272.3 116.2 273.7 153.7 276.1 230.3 278.4 299.2 279.8 332.6 280.8 352.3 281.7 363.9 282.4 368.8 282.9 370.8 283.1 371.4 283.4 371.4 283.6 370.8 284.1 368.8 284.8 363.9 285.5 354.6 286.4 338.8 287.4 315 288.8 277.5 291.2 200.9 293.5 132 294.9 98.6 295.9 78.9 296.8 67.3 297.4 62.4 298 60.4 298.2 59.8 298.5 59.8 298.7 60.4 299.2 62.4 299.9 67.3 300.6 76.6 301.5 92.4 302.5 116.2 303.9 153.7 306.3 230.3 308.6 299.2 310 332.6 311 352.3 311.9 363.9 312.5 368.8 313 370.8 313.3 371.4 313.5 371.4 313.8 370.8 314.3 368.8 314.9 363.9 315.7 354.6 316.6 338.8 317.6 315 319 277.5 321.4 200.9 323.7 132 325.1 98.6 326.1 78.9 327 67.3 327.6 62.4 328.1 60.4 328.4 59.8 328.6 59.8 328.9 60.4 329.4 62.4 330 67.3 330.8 76.6 331.7 92.4 332.7 116.2 334.1 153.7 336.5 230.3 338.8 299.2 340.2 332.6 341.2 352.3 342.1 363.9 342.7 368.8 343.2 370.8 343.5 371.4 343.7 371.4 344 370.8 344.5 368.8 345.1 363.9 345.9 354.6 346.8 338.8 347.8 315 349.2 277.5 351.6 200.9 353.9 132 355.3 98.6 356.3 78.9 357.2 67.3 357.8 62.4 358.3 60.4 358.6 59.8 358.8 59.8 359.1 60.4 359.6 62.4 360.2 67.3 361 76.6 361.9 92.4 362.9 116.2"/>
    <polyline class="st6" points="362.9 116.2 364.3 153.7 366.7 230.3 369 299.2 370.3 332.6 371.4 352.3 372.2 363.9 372.9 368.8 373.4 370.8 373.6 371.4 373.9 371.4 374.2 370.8 374.7 368.8 375.3 363.9 376.1 354.6 376.9 338.8 378 315 379.4 277.5 381.8 200.9 384 132 385.4 98.6 386.5 78.9 387.3 67.3 388 62.4 388.5 60.4 388.7 59.8 389 59.8 389.2 60.4 389.7 62.4 390.4 67.3 391.1 76.6 392 92.4 393 116.2 394.4 153.7 396.5 215.6 399 136.2 400.4 101.9 401.4 81.3 402.3 68.8 403.1 62.3 403.6 60.3 403.8 59.7 404.1 59.7 404.3 60.3 404.8 62.3 405.5 67.1 406.2 76.5 407.1 92.2 408.1 116.1 409.5 153.6 411.9 230.2 414.2 299 415.6 332.5 416.6 352.2 417.5 363.8 418.1 368.6 418.7 370.7 418.9 371.3 419.2 371.3 419.4 370.7 419.9 368.6 420.6 363.8 421.3 354.4 422.2 338.7 423.2 314.9 424.6 277.3 427 200.8 429.3 131.9 430.7 98.4 431.7 78.8 432.6 67.1 433.2 62.3 433.7 60.3 434 59.7 434.2 59.7 434.5 60.3 435 62.3 435.6 67.1 436.4 76.5 437.3 92.2 438.3 116.1 439.7 153.6 442.1 230.2 444.4 299 445.8 332.5 446.8 352.2 447.7 363.8 448.3 368.6 448.8 370.7 449.1 371.3 449.3 371.3 449.6 370.7 450.1 368.6 450.7 363.8 451.5 354.4 452.4 338.7 453.4 314.9 454.8 277.3 457.2 200.8 459.5 131.9 460.9 98.4 461.9 78.8 462.8 67.1 463.4 62.3 463.9 60.3 464.2 59.7 464.4 59.7 464.7 60.3 465.2 62.3 465.8 67.1 466.6 76.5 467.5 92.2 468.5 116.1 469.9 153.6 472.3 230.2 474.6 299 476 332.5 477 352.2 477.9 363.8 478.5 368.6 479 370.7 479.3 371.3 479.5 371.3 479.8 370.7 480.3 368.6 480.9 363.8 481.7 354.4 482.6 338.7"/>
    <polyline class="st6" points="482.6 338.7 483.6 314.9 485 277.3 487 215.5 489.5 294.8 490.9 329.2 491.9 349.7 492.8 362.3 493.6 368.8 494.1 370.8 494.3 371.4 494.6 371.4 494.9 370.8 495.4 368.8 496 363.9 496.8 354.6 497.6 338.8 498.7 315 500.1 277.5 502.5 200.9 504.7 132 506.1 98.6 507.2 78.9 508 67.3 508.7 62.4 509.2 60.4 509.4 59.8 509.7 59.8 509.9 60.4 510.4 62.4 511.1 67.3 511.8 76.6 512.7 92.4 513.7 116.2 515.1 153.7 517.5 230.3 519.8 299.2 521.2 332.6 522.2 352.3 523.1 363.9 523.8 368.8 524.3 370.8 524.5 371.4 524.8 371.4 525 370.8 525.5 368.8 526.2 363.9 526.9 354.6 527.8 338.8 528.8 315 530.2 277.5 532.6 200.9 534.9 132 536.3 98.6 537.3 78.9 538.2 67.3 538.8 62.4 539.4 60.4 539.6 59.8 539.9 59.8 540.1 60.4 540.6 62.4 541.3 67.3 542 76.6 542.9 92.4 543.9 116.2 545.3 153.7 547.7 230.3 550 299.2 551.4 332.6 552.4 352.3 553.3 363.9 553.9 368.8 554.4 370.8 554.7 371.4 555 371.4 555.2 370.8 555.7 368.8 556.3 363.9 557.1 354.6 558 338.8 559 315 560.4 277.5 562.8 200.9 565.1 132 566.5 98.6 567.5 78.9 568.4 67.3 569 62.4 569.5 60.4 569.8 59.8 570 59.8 570.3 60.4 570.8 62.4 571.4 67.3 572.2 76.6 573.1 92.4 574.1 116.2 575.5 153.7 577.5 215.6 580.1 136.2 581.5 101.9 582.5 81.3 583.4 68.8 584.1 62.3 584.6 60.3 584.9 59.7 585.1 59.7 585.4 60.3 585.9 62.3 586.5 67.1 587.3 76.5 588.2 92.2 589.2 116.1 590.6 153.6 593 230.2 595.3 299 596.7 332.5 597.7 352.2 598.6 363.8 599.2 368.6 599.7 370.7 600 371.3 600.2 371.3 600.5 370.7 601 368.6 601.6 363.8 602.4 354.4"/>
    <polyline class="st6" points="602.4 354.4 603.3 338.7 604.3 314.9 605.7 277.3 608.1 200.8 610.4 131.9 611.8 98.4 612.8 78.8 613.7 67.1 614.3 62.3 614.8 60.3 615 59.7 615.3 59.7 615.6 60.3 616.1 62.3 616.7 67.1 617.5 76.5 618.3 92.2 619.4 116.1 620.8 153.6 623.2 230.2 625.4 299 626.8 332.5 627.9 352.2 628.7 363.8 629.4 368.6 629.9 370.7 630.1 371.3 630.4 371.3 630.6 370.7 631.2 368.6 631.8 363.8 632.5 354.4 633.4 338.7 634.4 314.9 635.8 277.3 638.3 200.8 640.5 131.9 641.9 98.4 642.9 78.8 643.8 67.1 644.5 62.3 645 60.3 645.2 59.7 645.5 59.7 645.7 60.3 646.2 62.3 646.9 67.1 647.6 76.5 648.5 92.2 649.5 116.1 650.9 153.6 653.3 230.2 655.6 299 657 332.5 658 352.2 658.9 363.8 659.6 368.6 660.1 370.7 660.3 371.3 660.6 371.3 660.8 370.7 661.3 368.6 662 363.8 662.7 354.4 663.6 338.7 664.6 314.9 666 277.3 668 215.5 670.6 294.8 672 329.2 673 349.7 673.9 362.3 674.6 368.8 675.1 370.8 675.4 371.4 675.7 371.4 675.9 370.8 676.4 368.8 677 363.9 677.8 354.6 678.7 338.8 679.7 315 681.1 277.5 683.5 200.9 685.8 132 687.2 98.6 688.2 78.9 689.1 67.3 689.7 62.4 690.2 60.4 690.5 59.8 690.7 59.8 691 60.4 691.5 62.4 692.1 67.3 692.9 76.6 693.8 92.4 694.8 116.2 696.2 153.7 698.6 230.3 700.9 299.2 702.3 332.6 703.3 352.3 704.2 363.9 704.8 368.8 705.3 370.8 705.6 371.4 705.8 371.4 706.1 370.8 706.6 368.8 707.2 363.9 708 354.6 708.9 338.8 709.9 315 711.3 277.5 713.7 200.9 716 132 717.4 98.6 718.4 78.9 719.3 67.3 719.9 62.4 720.4 60.4 720.7 59.8 720.9 59.8 721.2 60.4 721.7 62.4 722.3 67.3"/>
    <polyline class="st6" points="722.3 67.3 723.1 76.6 724 92.4 725 116.2 726.4 153.7 728.8 230.3 731.1 299.2 732.5 332.6 733.5 352.3 734.4 363.9 735 368.8 735.5 370.8 735.8 371.4 736 371.4 736.3 370.8 736.8 368.8 737.4 363.9 738.2 354.6 739 338.8 740.1 315 741.5 277.5 743.9 200.9 746.1 132 747.5 98.6 748.6 78.9 749.4 67.3 750.1 62.4 750.6 60.4 750.8 59.8 751.1 59.8 751.3 60.4 751.9 62.4 752.5 67.3 753.2 76.6 754.1 92.4 755.2 116.2 756.5 153.7 759 230.3 761.2 299.2 762.6 332.6 763.6 352.3 764.5 363.9 765.2 368.8 765.7 370.8 765.9 371.4 766.2 371.4 766.4 370.8 766.9 368.8 767.6 363.9 768.3 354.6 769.2 338.8 770.2 315 771.6 277.5 774 200.9 776.3 132 777.7 98.6 778.7 78.9 779.6 67.3 780.3 62.4 780.8 60.4 781 59.8 781.3 59.8 781.5 60.4 782 62.4 782.7 67.3 783.4 76.6 784.3 92.4 785.3 116.2 786.7 153.7 789.1 230.3 791.4 299.2 792.8 332.6 793.8 352.3 794.7 363.9 795.3 368.8 795.8 370.8 796.1 371.4 796.4 371.4 796.6 370.8 797.1 368.8 797.8 363.9 798.5 354.6 799.4 338.8 800.4 315 801.8 277.5 804.2 200.9 806.5 132 807.9 98.6 808.9 78.9 809.8 67.3 810.4 62.4 810.9 60.4 811.2 59.8 811.4 59.8 811.7 60.4 812.2 62.4 812.8 67.3 813.6 76.6 814.5 92.4 815.5 116.2 816.9 153.7 819.3 230.3 821.6 299.2 823 332.6 824 352.3 824.9 363.9 825.5 368.8 826 370.8 826.3 371.4 826.5 371.4 826.8 370.8 827.3 368.8 827.9 363.9 828.7 354.6 829.6 338.8 830.6 315 832 277.5 834.4 200.9 836.7 132 838.1 98.6 839.1 78.9 840 67.3 840.6 62.4 841.1 60.4 841.4 59.8 841.6 59.8 841.9 60.4 842.4 62.4"/>
    <polyline class="st6" points="842.4 62.4 843 67.3 843.8 76.6 844.7 92.4 845.7 116.2 847.1 153.7 849.1 215.6 851.6 136.2 853 101.9 854 81.3 854.9 68.8 855.7 62.3 856.2 60.3 856.5 59.7 856.7 59.7 857 60.3 857.5 62.3 858.1 67.1 858.9 76.5 859.8 92.2 860.8 116.1 862.2 153.6 864.6 230.2 866.9 299 868.2 332.5 869.3 352.2 870.1 363.8 870.8 368.6 871.3 370.7 871.5 371.3 871.8 371.3 872 370.7 872.6 368.6 873.2 363.8 874 354.4 874.8 338.7 875.9 314.9 877.2 277.3 879.7 200.8 881.9 131.9 883.3 98.4 884.3 78.8 885.2 67.1 885.9 62.3 886.4 60.3 886.6 59.7 886.9 59.7 887.1 60.3 887.6 62.3 888.3 67.1 889 76.5 889.9 92.2 890.9 116.1 892.3 153.6 894.7 230.2 897 299 898.4 332.5 899.4 352.2 900.3 363.8 901 368.6 901.5 370.7 901.7 371.3 902 371.3 902.2 370.7 902.7 368.6 903.4 363.8 904.1 354.4 905 338.7 906 314.9 907.4 277.3 909.8 200.8 912.1 131.9 913.5 98.4 914.5 78.8 915.4 67.1 916 62.3 916.6 60.3 916.8 59.7 917.1 59.7 917.3 60.3 917.8 62.3 918.5 67.1 919.2 76.5 920.1 92.2 921.1 116.1 922.5 153.6 924.9 230.2 927.2 299 928.6 332.5 929.6 352.2 930.5 363.8 931.1 368.6 931.6 370.7 931.9 371.3 932.1 371.3 932.4 370.7 932.9 368.6 933.5 363.8 934.3 354.4 935.2 338.7 936.2 314.9 937.6 277.3 939.6 215.5 942.2 294.8 943.6 329.2 944.6 349.7 945.5 362.3 946.2 368.8 946.7 370.8 947 371.4 947.2 371.4 947.5 370.8 948 368.8 948.6 363.9 949.4 354.6 950.3 338.8 951.3 315 952.7 277.5 955.1 200.9 957.4 132 958.8 98.6 959.8 78.9 960.7 67.3 961.3 62.4 961.8 60.4 962.1 59.8 962.3 59.8 962.6 60.4"/>
    <polyline class="st6" points="962.6 60.4 963.1 62.4 963.7 67.3 964.5 76.6 965.4 92.4 966.4 116.2 967.8 153.7 970.2 230.3 972.5 299.2 973.9 332.6 974.9 352.3 975.8 363.9 976.4 368.8 976.9 370.8 977.2 371.4 977.4 371.4 977.7 370.8 978.2 368.8 978.8 363.9 979.6 354.6 980.5 338.8 981.5 315 982.9 277.5 985.3 200.9 987.6 132 988.9 98.6 990 78.9 990.9 67.3 991.5 62.4 992 60.4 992.2 59.8 992.5 59.8 992.8 60.4 993.3 62.4 993.9 67.3 994.7 76.6 995.5 92.4 996.6 116.2 998 153.7 1000.4 230.3 1002.6 299.2 1004 332.6 1005.1 352.3 1005.9 363.9 1006.6 368.8 1007.1 370.8 1007.3 371.4 1007.6 371.4 1007.8 370.8 1008.3 368.8 1009 363.9 1009.7 354.6 1010.6 338.8 1011.6 315 1013 277.5 1015.4 200.9 1017.7 132 1019.1 98.6 1020.1 78.9 1021 67.3 1021.7 62.4 1022.2 60.4 1022.4 59.8 1022.7 59.8 1022.9 60.4 1023.4 62.4 1024.1 67.3 1024.8 76.6 1025.7 92.4 1026.7 116.2 1028.1 153.7 1029.9 210.8"/>
  </g>
  <g class="st55">
    <line class="st2" x1="216" y1="387.1" x2="216" y2="44.1"/>
  </g>
  <g class="st56">
    <line class="st2" x1="307.2" y1="387.1" x2="307.2" y2="44.1"/>
  </g>
  <g class="st57">
    <line class="st2" x1="398.4" y1="387.1" x2="398.4" y2="44.1"/>
  </g>
  <g class="st53">
    <line class="st2" x1="489.5" y1="387.1" x2="489.5" y2="44.1"/>
  </g>
  <g class="st75">
    <line class="st2" x1="580.6" y1="387.1" x2="580.6" y2="44.1"/>
  </g>
  <g class="st69">
    <line class="st2" x1="671.7" y1="387.1" x2="671.7" y2="44.1"/>
  </g>
  <g class="st70">
    <line class="st2" x1="762.9" y1="387.1" x2="762.9" y2="44.1"/>
  </g>
  <g class="st71">
    <line class="st2" x1="854" y1="387.1" x2="854" y2="44.1"/>
  </g>
  <g class="st72">
    <line class="st2" x1="945.2" y1="387.1" x2="945.2" y2="44.1"/>
  </g>
  <g class="st73">
    <line class="st5" x1="79.4" y1="387.1" x2="79.4" y2="44.1"/>
    <line class="st5" x1="1081.8" y1="387.1" x2="1081.8" y2="44.1"/>
    <line class="st5" x1="79.4" y1="387.1" x2="1081.8" y2="387.1"/>
    <line class="st5" x1="79.4" y1="44.1" x2="1081.8" y2="44.1"/>
    <path d="M415.9,25.4h3.8c1.1,0,2,.3,2.7.8.6.5.9,1.1.9,2s-.1,1.3-.5,1.6c-.4.4-.8.6-1.4.8.8.1,1.3.5,1.8,1,.4.5.6,1.1.6,1.9s-.4,1.8-1,2.3c-.6.5-1.6.8-2.9.8h-3.9v-11h0ZM417.4,26.7v3.3h2.3c.8,0,1.3-.1,1.6-.4.4-.3.5-.6.5-1.3s-.1-1-.5-1.3c-.4-.3-.9-.4-1.6-.4h-2.3ZM417.4,31.3v4.1h2.4c.8,0,1.4-.1,1.8-.5.4-.4.6-.9.6-1.5s-.3-1.3-.6-1.5c-.4-.4-1-.5-1.8-.5h-2.4Z"/>
    <path d="M426.3,25.4h3.4c1.3,0,2.2.3,2.8.9.6.5,1,1.4,1,2.4s-.4,1.9-1,2.5c-.6.5-1.5.9-2.8.9h-1.9v4.4h-1.5v-11h0ZM427.8,26.7v4.2h1.9c.8,0,1.3-.1,1.6-.5.4-.4.6-.9.6-1.5s-.3-1.1-.6-1.5c-.4-.4-.9-.5-1.6-.5h-1.9Z"/>
    <path d="M442.1,25.8v1.5c-.5-.3-1.1-.5-1.6-.6-.5-.1-1-.3-1.5-.3-.8,0-1.4.1-1.9.5-.4.3-.6.8-.6,1.4s.1.9.4,1.1c.3.3.9.5,1.6.6h.9c1.1.4,1.9.8,2.5,1.3.6.5.8,1.3.8,2.2s-.4,1.9-1.1,2.4c-.8.5-1.8.9-3.2.9s-1.1,0-1.6-.1c-.6,0-1.1-.3-1.8-.5v-1.5c.6.4,1.3.6,1.8.8.6.1,1.1.3,1.8.3s1.5-.1,2-.5c.5-.4.8-.8.8-1.4s-.1-1-.5-1.3c-.4-.3-.9-.5-1.6-.6h-.9c-1.1-.4-1.9-.8-2.4-1.3-.5-.5-.8-1.1-.8-2s.4-1.8,1-2.3c.6-.5,1.6-.9,2.9-.9s1,0,1.6.1c.5,0,1.1.3,1.6.4h-.1Z"/>
    <polygon points="445.2 25.4 446.7 25.4 446.7 30.1 451.6 25.4 453.5 25.4 448.1 30.6 454 36.6 452 36.6 446.7 31.3 446.7 36.6 445.2 36.6 445.2 25.5 445.2 25.4"/>
    <path d="M466.6,25.8v1.5c-.5-.3-1.1-.5-1.6-.6-.5-.1-1-.3-1.5-.3-.8,0-1.4.1-1.9.5-.4.3-.6.8-.6,1.4s.1.9.4,1.1c.3.3.9.5,1.6.6h.9c1.1.4,1.9.8,2.5,1.3.6.5.8,1.3.8,2.2s-.4,1.9-1.1,2.4c-.8.5-1.8.9-3.2.9s-1.1,0-1.6-.1c-.6,0-1.1-.3-1.8-.5v-1.5c.6.4,1.3.6,1.8.8.6.1,1.1.3,1.8.3s1.5-.1,2-.5c.5-.4.8-.8.8-1.4s-.1-1-.5-1.3c-.4-.3-.9-.5-1.6-.6h-.9c-1.1-.4-1.9-.8-2.4-1.3s-.8-1.1-.8-2,.4-1.8,1-2.3c.6-.5,1.6-.9,2.9-.9s1,0,1.6.1c.5,0,1.1.3,1.6.4h-.1Z"/>
    <path d="M469.6,24.9h1.4v1.8h-1.4v-1.8ZM469.6,28.2h1.4v8.4h-1.4v-8.4Z"/>
    <path d="M480.7,35.4c0,1.4-.3,2.4-.9,3.2-.6.6-1.6,1-2.9,1h-1.4c-.5,0-.9-.1-1.3-.4v-1.3c.4.3.8.4,1.1.5.4,0,.8.1,1.1.1.9,0,1.5-.3,2-.8.5-.5.6-1.1.6-2.2v-.6c-.3.5-.6.9-1.1,1.1-.5.3-1,.4-1.5.4-1,0-1.9-.4-2.4-1.1-.6-.8-.9-1.8-.9-3s.3-2.3.9-3c.6-.8,1.4-1.1,2.4-1.1s1.1,0,1.5.4c.4.4.8.6,1.1,1.1v-1.3h1.4v7.2-.3ZM479.3,32.3c0-1-.3-1.8-.6-2.3-.4-.5-1-.8-1.8-.8s-1.3.3-1.6.8c-.4.5-.6,1.3-.6,2.3s.3,1.8.6,2.3c.4.5,1,.8,1.6.8s1.3-.3,1.8-.8c.4-.5.6-1.3.6-2.3Z"/>
    <path d="M490.4,31.5v5.1h-1.4v-4.9c0-.8-.1-1.4-.5-1.8-.3-.4-.8-.6-1.4-.6s-1.3.3-1.8.8c-.4.5-.6,1.1-.6,1.9v4.7h-1.4v-8.4h1.4v1.3c.4-.5.8-.9,1.1-1.1.4-.3,1-.4,1.5-.4,1,0,1.6.3,2.2.9.5.6.8,1.5.8,2.7h.1Z"/>
    <path d="M499.5,31.8v4.7h-1.4v-1.3c-.3.5-.8.9-1.1,1.1-.5.3-1,.4-1.6.4s-1.5-.3-2-.8c-.5-.5-.8-1.1-.8-1.9s.3-1.6.9-2.2c.6-.5,1.5-.8,2.8-.8h1.9c0-.8-.3-1.3-.6-1.6-.4-.4-1-.5-1.8-.5s-.9,0-1.4.1c-.5,0-.9.3-1.3.5v-1.3c.5-.3,1-.4,1.4-.4s.9-.1,1.4-.1c1.3,0,2.2.3,2.7.9.6.6.9,1.5.9,2.8v.3ZM496.9,32.3c-1.1,0-1.9,0-2.3.4-.4.4-.6.6-.6,1.3s.1.9.5,1.1c.4.3.8.4,1.3.4s1.4-.3,1.8-.8c.4-.5.6-1.3.6-2.2v-.3h-1.4.1Z"/>
    <rect x="502.5" y="24.9" width="1.4" height="11.5"/>
    <path d="M514.8,24.9c-.6,1.1-1.1,2.3-1.5,3.4-.4,1.1-.5,2.3-.5,3.4s.1,2.3.5,3.4c.4,1.1.8,2.3,1.5,3.4h-1.1c-.8-1.1-1.3-2.3-1.6-3.4-.4-1.1-.5-2.3-.5-3.3s.1-2.2.5-3.3c.4-1.1.9-2.3,1.6-3.4h1.1v-.3Z"/>
    <path d="M517.4,25.4h3.4c1.3,0,2.2.3,2.8.9.6.5,1,1.4,1,2.4s-.4,1.9-1,2.5c-.6.5-1.5.9-2.8.9h-1.9v4.4h-1.5v-11h0ZM518.9,26.7v4.2h1.9c.8,0,1.3-.1,1.6-.5.4-.4.6-.9.6-1.5s-.3-1.1-.6-1.5c-.4-.4-.9-.5-1.6-.5h-1.9Z"/>
    <path d="M533.5,31.5v5.1h-1.4v-4.9c0-.8-.1-1.4-.5-1.8-.3-.4-.8-.6-1.4-.6s-1.3.3-1.8.8c-.4.5-.6,1.1-.6,1.9v4.7h-1.4v-11.5h1.4v4.6c.4-.5.8-.9,1.1-1.1.4-.3,1-.4,1.5-.4,1,0,1.6.3,2.2.9.5.6.8,1.5.8,2.7h.1Z"/>
    <path d="M542.8,31.8v4.7h-1.4v-1.3c-.3.5-.8.9-1.1,1.1-.5.3-1,.4-1.6.4s-1.5-.3-2-.8c-.5-.5-.8-1.1-.8-1.9s.3-1.6.9-2.2c.6-.5,1.5-.8,2.8-.8h1.9c0-.8-.3-1.3-.6-1.6-.4-.4-1-.5-1.8-.5s-.9,0-1.4.1c-.5,0-.9.3-1.3.5v-1.3c.5-.3,1-.4,1.4-.4s.9-.1,1.4-.1c1.3,0,2.2.3,2.7.9.6.6.9,1.5.9,2.8v.3ZM540,32.3c-1.1,0-1.9,0-2.3.4-.4.4-.6.6-.6,1.3s.1.9.5,1.1c.4.3.8.4,1.3.4s1.4-.3,1.8-.8c.4-.5.6-1.3.6-2.2v-.3h-1.4.1Z"/>
    <path d="M550.9,28.5v1.3c-.4-.3-.8-.4-1.1-.5-.4,0-.9-.1-1.3-.1-.6,0-1.1,0-1.5.3-.4.3-.5.5-.5.9s0,.5.4.8c.4.3.8.4,1.5.5h.5c1,.3,1.6.6,2,1,.4.4.6.9.6,1.6s-.3,1.4-.9,1.8c-.6.5-1.4.6-2.5.6s-.9,0-1.4-.1c-.5,0-1-.3-1.5-.4v-1.4c.5.3,1,.5,1.5.6.5.1,1,.3,1.4.3s1.1,0,1.5-.4c.4-.3.5-.5.5-.9s0-.6-.4-.9c-.3-.3-.8-.4-1.6-.6h-.5c-.9-.3-1.4-.5-1.8-.9-.4-.4-.5-.9-.5-1.5s.3-1.4.9-1.8c.5-.4,1.4-.6,2.4-.6h1.4c.5,0,.9.1,1.3.4h-.4Z"/>
    <path d="M559.3,31.6c0-.8-.3-1.4-.6-1.8-.4-.5-.9-.6-1.6-.6s-1.4.3-1.8.6c-.4.4-.8,1-.8,1.8h4.8ZM560.7,32v.6h-6.3c0,.9.4,1.6.9,2.2s1.3.8,2.2.8,1,0,1.5-.3c.5-.3,1-.4,1.5-.6v1.3c-.5.3-1,.4-1.5.5-.5.1-1,.1-1.5.1-1.3,0-2.4-.4-3.2-1.1-.8-.8-1.1-1.8-1.1-3.2s.4-2.4,1.1-3.3c.8-.8,1.8-1.1,2.9-1.1s2,.4,2.7,1.1c.6.8,1,1.6,1,2.9h-.1Z"/>
    <path d="M576,26.3v1.5c-.5-.5-1-.8-1.6-1-.6-.3-1.1-.4-1.8-.4-1.3,0-2.3.4-2.9,1.1-.6.8-1,1.9-1,3.4s.4,2.5,1,3.3c.6.8,1.6,1.1,2.9,1.1s1.3,0,1.8-.4c.5-.4,1.1-.6,1.6-1v1.5c-.5.4-1.1.6-1.6.8-.6.1-1.3.3-1.9.3-1.6,0-3-.5-3.9-1.5-1-1-1.4-2.4-1.4-4.2s.5-3.2,1.4-4.2c1-1,2.3-1.5,3.9-1.5s1.3,0,1.9.3c.6.1,1.1.4,1.6.8h0Z"/>
    <path d="M585.3,31.5v5.1h-1.4v-4.9c0-.8-.1-1.4-.5-1.8-.3-.4-.8-.6-1.4-.6s-1.3.3-1.8.8c-.4.5-.6,1.1-.6,1.9v4.7h-1.4v-11.5h1.4v4.6c.4-.5.8-.9,1.1-1.1.4-.3,1-.4,1.5-.4,1,0,1.6.3,2.2.9.5.6.8,1.5.8,2.7h.1Z"/>
    <path d="M594.5,31.8v4.7h-1.4v-1.3c-.3.5-.8.9-1.1,1.1-.5.3-1,.4-1.6.4s-1.5-.3-2-.8c-.5-.5-.8-1.1-.8-1.9s.3-1.6.9-2.2c.6-.5,1.5-.8,2.8-.8h1.9c0-.8-.3-1.3-.6-1.6-.4-.4-1-.5-1.8-.5s-.9,0-1.4.1c-.5,0-.9.3-1.3.5v-1.3c.5-.3,1-.4,1.4-.4s.9-.1,1.4-.1c1.3,0,2.2.3,2.7.9.6.6.9,1.5.9,2.8v.3ZM591.7,32.3c-1.1,0-1.9,0-2.3.4-.4.4-.6.6-.6,1.3s.1.9.5,1.1c.4.3.8.4,1.3.4s1.4-.3,1.8-.8c.4-.5.6-1.3.6-2.2v-.3h-1.4.1Z"/>
    <path d="M604.1,31.5v5.1h-1.4v-4.9c0-.8-.1-1.4-.5-1.8-.3-.4-.8-.6-1.4-.6s-1.3.3-1.8.8c-.4.5-.6,1.1-.6,1.9v4.7h-1.4v-8.4h1.4v1.3c.4-.5.8-.9,1.1-1.1s1-.4,1.5-.4c1,0,1.6.3,2.2.9.5.6.8,1.5.8,2.7h.1Z"/>
    <path d="M613.8,35.4c0,1.4-.3,2.4-.9,3.2-.6.6-1.6,1-2.9,1h-1.4c-.5,0-.9-.1-1.3-.4v-1.3c.4.3.8.4,1.1.5.4,0,.8.1,1.1.1.9,0,1.5-.3,2-.8.5-.5.6-1.1.6-2.2v-.6c-.3.5-.6.9-1.1,1.1-.5.3-1,.4-1.5.4-1,0-1.9-.4-2.4-1.1-.6-.8-.9-1.8-.9-3s.3-2.3.9-3c.6-.8,1.4-1.1,2.4-1.1s1.1,0,1.5.4c.4.4.8.6,1.1,1.1v-1.3h1.4v7.2-.3ZM612.4,32.3c0-1-.3-1.8-.6-2.3-.4-.5-1-.8-1.8-.8s-1.3.3-1.6.8c-.4.5-.6,1.3-.6,2.3s.3,1.8.6,2.3c.4.5,1,.8,1.6.8s1.3-.3,1.8-.8c.4-.5.6-1.3.6-2.3Z"/>
    <path d="M622.3,31.6c0-.8-.3-1.4-.6-1.8-.4-.5-.9-.6-1.6-.6s-1.4.3-1.8.6c-.4.4-.8,1-.8,1.8h4.8ZM623.7,32v.6h-6.3c0,.9.4,1.6.9,2.2.5.5,1.3.8,2.2.8s1,0,1.5-.3c.5-.3,1-.4,1.5-.6v1.3c-.5.3-1,.4-1.5.5-.5.1-1,.1-1.5.1-1.3,0-2.4-.4-3.2-1.1-.8-.8-1.1-1.8-1.1-3.2s.4-2.4,1.1-3.3c.8-.8,1.8-1.1,2.9-1.1s2,.4,2.7,1.1c.6.8,1,1.6,1,2.9h-.1Z"/>
    <path d="M631.3,28.5v1.3c-.4-.3-.8-.4-1.1-.5-.4,0-.9-.1-1.3-.1-.6,0-1.1,0-1.5.3-.4.3-.5.5-.5.9s0,.5.4.8c.4.3.8.4,1.5.5h.5c1,.3,1.6.6,2,1,.4.4.6.9.6,1.6s-.3,1.4-.9,1.8c-.6.5-1.4.6-2.5.6s-.9,0-1.4-.1c-.5,0-1-.3-1.5-.4v-1.4c.5.3,1,.5,1.5.6.5.1,1,.3,1.4.3s1.1,0,1.5-.4c.4-.3.5-.5.5-.9s0-.6-.4-.9c-.3-.3-.8-.4-1.6-.6h-.5c-.9-.3-1.4-.5-1.8-.9-.4-.4-.5-.9-.5-1.5s.3-1.4.9-1.8c.5-.4,1.4-.6,2.4-.6h1.4c.5,0,.9.1,1.3.4h-.4Z"/>
    <polygon points="638.8 25.4 645.7 25.4 645.7 26.7 640.3 26.7 640.3 30 645.6 30 645.6 31.3 640.3 31.3 640.3 35.3 646 35.3 646 36.6 638.9 36.6 638.9 25.5 638.8 25.4"/>
    <path d="M655.2,31.5v5.1h-1.4v-4.9c0-.8-.1-1.4-.5-1.8-.3-.4-.8-.6-1.4-.6s-1.3.3-1.8.8c-.4.5-.6,1.1-.6,1.9v4.7h-1.4v-8.4h1.4v1.3c.4-.5.8-.9,1.1-1.1.4-.3,1-.4,1.5-.4,1,0,1.6.3,2.2.9.5.6.8,1.5.8,2.7h.1Z"/>
    <path d="M664,28.5v1.3c-.4-.3-.8-.4-1.1-.5-.4-.1-.8-.1-1.1-.1-.9,0-1.5.3-2,.9-.5.5-.8,1.4-.8,2.4s.3,1.8.8,2.4c.5.5,1.1.9,2,.9s.8,0,1.1-.1c.4-.1.8-.3,1.1-.5v1.3c-.4.1-.8.3-1.1.4-.4,0-.9.1-1.3.1-1.3,0-2.3-.4-3-1.1-.8-.8-1.1-1.9-1.1-3.2s.4-2.4,1.1-3.2c.8-.8,1.8-1.1,3-1.1s.9,0,1.3.1c.4,0,.8.3,1.1.4v-.3Z"/>
    <path d="M669.6,28c1.1,0,2.2.4,2.8,1.1.6.8,1,1.9,1,3.2s-.4,2.4-1,3.2c-.6.8-1.6,1.1-2.8,1.1s-2.2-.4-2.8-1.1c-.6-.8-1-1.9-1-3.2s.4-2.4,1-3.2c.6-.8,1.6-1.1,2.8-1.1ZM669.6,29.1c-.8,0-1.3.3-1.8.9-.5.6-.6,1.4-.6,2.4s.3,1.8.6,2.4c.4.6,1,.9,1.8.9s1.3-.3,1.8-.9c.4-.6.6-1.4.6-2.4s-.3-1.8-.6-2.3c-.4-.6-1-.9-1.8-.9h0Z"/>
    <path d="M676.4,32.4c0,1,.3,1.8.6,2.4.4.6,1,.9,1.6.9s1.3-.3,1.6-.9c.4-.6.6-1.4.6-2.4s-.3-1.8-.6-2.4c-.4-.6-1-.9-1.6-.9s-1.3.3-1.6.9c-.4.6-.6,1.4-.6,2.4ZM681.1,29.5v-4.6h1.4v11.5h-1.4v-1.3c-.3.5-.6.9-1.1,1.1-.4.3-1,.4-1.5.4-1,0-1.8-.4-2.4-1.1-.6-.8-.9-1.9-.9-3.2s.3-2.4.9-3.2c.6-.8,1.4-1.1,2.4-1.1s1.1,0,1.5.4c.4.3.8.6,1.1,1.1h0Z"/>
    <path d="M685.3,24.9h1.4v1.8h-1.4v-1.8ZM685.3,28.2h1.4v8.4h-1.4v-8.4Z"/>
    <path d="M696.4,31.5v5.1h-1.4v-4.9c0-.8-.1-1.4-.5-1.8-.3-.4-.8-.6-1.4-.6s-1.3.3-1.8.8c-.4.5-.6,1.1-.6,1.9v4.7h-1.4v-8.4h1.4v1.3c.4-.5.8-.9,1.1-1.1.4-.3,1-.4,1.5-.4,1,0,1.6.3,2.2.9.5.6.8,1.5.8,2.7h.1Z"/>
    <path d="M706,35.4c0,1.4-.3,2.4-.9,3.2-.6.6-1.6,1-2.9,1h-1.4c-.5,0-.9-.1-1.3-.4v-1.3c.4.3.8.4,1.1.5.4,0,.8.1,1.1.1.9,0,1.5-.3,2-.8.5-.5.6-1.1.6-2.2v-.6c-.3.5-.6.9-1.1,1.1-.5.3-1,.4-1.5.4-1,0-1.9-.4-2.4-1.1-.6-.8-.9-1.8-.9-3s.3-2.3.9-3c.6-.8,1.4-1.1,2.4-1.1s1.1,0,1.5.4c.4.4.8.6,1.1,1.1v-1.3h1.4v7.2-.3ZM704.6,32.3c0-1-.3-1.8-.6-2.3-.4-.5-1-.8-1.8-.8s-1.3.3-1.6.8c-.4.5-.6,1.3-.6,2.3s.3,1.8.6,2.3c.4.5,1,.8,1.6.8s1.3-.3,1.8-.8c.4-.5.6-1.3.6-2.3Z"/>
    <path d="M713.7,25.4h3.8c1.1,0,2,.3,2.7.8.6.5.9,1.1.9,2s-.1,1.3-.5,1.6c-.4.4-.8.6-1.4.8.8.1,1.3.5,1.8,1,.4.5.6,1.1.6,1.9s-.4,1.8-1,2.3-1.6.8-2.9.8h-3.9v-11h0ZM715.2,26.7v3.3h2.3c.8,0,1.3-.1,1.6-.4s.5-.6.5-1.3-.1-1-.5-1.3c-.4-.3-.9-.4-1.6-.4h-2.3ZM715.2,31.3v4.1h2.4c.8,0,1.4-.1,1.8-.5.4-.4.6-.9.6-1.5s-.3-1.3-.6-1.5c-.4-.4-1-.5-1.8-.5h-2.4Z"/>
    <path d="M724.1,24.9h1.4v1.8h-1.4v-1.8ZM724.1,28.2h1.4v8.4h-1.4v-8.4Z"/>
    <path d="M729.7,25.8v2.4h2.8v1h-2.8v4.6c0,.6,0,1.1.3,1.3.3.1.5.3,1.1.3h1.4v1.1h-1.4c-1,0-1.8-.3-2.2-.6-.4-.4-.6-1.1-.6-2.2v-4.6h-1v-1h1v-2.4h1.4Z"/>
    <path d="M739.6,28.5v1.3c-.4-.3-.8-.4-1.1-.5-.4,0-.9-.1-1.3-.1-.6,0-1.1,0-1.5.3-.4.3-.5.5-.5.9s0,.5.4.8c.4.3.8.4,1.5.5h.5c1,.3,1.6.6,2,1,.4.4.6.9.6,1.6s-.3,1.4-.9,1.8c-.6.5-1.4.6-2.5.6s-.9,0-1.4-.1c-.5,0-1-.3-1.5-.4v-1.4c.5.3,1,.5,1.5.6.5.1,1,.3,1.4.3s1.1,0,1.5-.4c.4-.3.5-.5.5-.9s0-.6-.4-.9c-.3-.3-.8-.4-1.6-.6h-.5c-.9-.3-1.4-.5-1.8-.9-.4-.4-.5-.9-.5-1.5s.3-1.4.9-1.8c.5-.4,1.4-.6,2.4-.6h1.4c.5,0,.9.1,1.3.4h-.4Z"/>
    <path d="M742,24.9h1.1c.8,1.1,1.3,2.3,1.6,3.4.4,1.1.5,2.3.5,3.3s-.1,2.3-.5,3.3c-.4,1.1-.9,2.3-1.6,3.4h-1.1c.6-1.1,1.1-2.3,1.5-3.4.4-1.1.5-2.3.5-3.4s-.1-2.3-.5-3.4c-.4-1.1-.8-2.3-1.5-3.4v.3Z"/>
    <rect class="st98" x="79.4" y="439.6" width="1002.4" height="343.1"/>
  </g>
  <g class="st76">
    <line class="st1" x1="124.9" y1="782.7" x2="124.9" y2="439.6"/>
  </g>
  <g class="st77">
    <line x1="124.9" y1="782.7" x2="124.9" y2="787.2"/>
    <line class="st3" x1="124.9" y1="782.7" x2="124.9" y2="787.2"/>
    <path d="M118.8,791.9c1,0,1.8.4,2.4,1.3.5.8.8,2,.8,3.6s-.3,2.8-.8,3.6c-.5.8-1.4,1.3-2.4,1.3s-1.8-.4-2.4-1.3c-.5-.8-.8-2-.8-3.6s.3-2.8.8-3.6c.5-.8,1.4-1.3,2.4-1.3ZM118.8,792.9c-.6,0-1.1.4-1.4,1-.4.6-.5,1.6-.5,2.9s.1,2.2.5,2.8c.4.6.8,1,1.4,1s1.1-.4,1.5-1c.4-.6.5-1.5.5-2.8s-.1-2.3-.5-2.9c-.4-.6-.8-1-1.5-1Z"/>
    <rect x="124.3" y="799.7" width="1.3" height="1.5"/>
    <path d="M131,791.9c1,0,1.8.4,2.4,1.3.5.8.8,2,.8,3.6s-.3,2.8-.8,3.6c-.5.8-1.4,1.3-2.4,1.3s-1.8-.4-2.4-1.3c-.5-.8-.8-2-.8-3.6s.3-2.8.8-3.6c.5-.8,1.4-1.3,2.4-1.3ZM131,792.9c-.6,0-1.1.4-1.4,1-.4.6-.5,1.6-.5,2.9s.1,2.2.5,2.8c.4.6.8,1,1.4,1s1.1-.4,1.5-1c.4-.6.5-1.5.5-2.8s-.1-2.3-.5-2.9c-.4-.6-.8-1-1.5-1Z"/>
  </g>
  <g class="st78">
    <line class="st1" x1="276.8" y1="782.7" x2="276.8" y2="439.6"/>
  </g>
  <g class="st74">
    <line x1="276.8" y1="782.7" x2="276.8" y2="787.2"/>
    <line class="st3" x1="276.8" y1="782.7" x2="276.8" y2="787.2"/>
    <path d="M270.7,791.9c1,0,1.8.4,2.4,1.3.5.8.8,2,.8,3.6s-.3,2.8-.8,3.6c-.5.8-1.4,1.3-2.4,1.3s-1.8-.4-2.4-1.3c-.5-.8-.8-2-.8-3.6s.3-2.8.8-3.6c.5-.8,1.4-1.3,2.4-1.3ZM270.7,792.9c-.6,0-1.1.4-1.4,1-.4.6-.5,1.6-.5,2.9s.1,2.2.5,2.8c.4.6.8,1,1.4,1s1.1-.4,1.5-1c.4-.6.5-1.5.5-2.8s-.1-2.3-.5-2.9c-.4-.6-.8-1-1.5-1Z"/>
    <rect x="276.1" y="799.7" width="1.3" height="1.5"/>
    <path d="M280.2,792h4.9v1h-3.8v2.3c.1,0,.4,0,.5-.1h.5c1,0,1.9.3,2.4.9.6.5.9,1.3.9,2.3s-.3,1.8-.9,2.3c-.6.5-1.5.9-2.7.9h-1.1c-.4,0-.8-.1-1.3-.3v-1.3c.4.3.8.4,1.1.5.4.1.8.1,1.3.1.8,0,1.3-.1,1.6-.5.4-.4.6-.9.6-1.5s-.3-1.1-.6-1.5c-.4-.4-1-.5-1.6-.5h-1c-.4,0-.6.1-1,.4v-4.9Z"/>
  </g>
  <g class="st32">
    <line class="st1" x1="428.7" y1="782.7" x2="428.7" y2="439.6"/>
  </g>
  <g class="st45">
    <line x1="428.7" y1="782.7" x2="428.7" y2="787.2"/>
    <line class="st3" x1="428.7" y1="782.7" x2="428.7" y2="787.2"/>
    <polygon points="420.2 800.2 422.2 800.2 422.2 793.1 419.9 793.6 419.9 792.5 422.1 792 423.3 792 423.3 800.2 425.4 800.2 425.4 801.2 420 801.2 420 800.2 420.2 800.2"/>
    <rect x="428" y="799.7" width="1.3" height="1.5"/>
    <path d="M434.8,791.9c1,0,1.8.4,2.4,1.3.5.8.8,2,.8,3.6s-.3,2.8-.8,3.6c-.5.8-1.4,1.3-2.4,1.3s-1.8-.4-2.4-1.3c-.5-.8-.8-2-.8-3.6s.3-2.8.8-3.6c.5-.8,1.4-1.3,2.4-1.3ZM434.8,792.9c-.6,0-1.1.4-1.4,1-.4.6-.5,1.6-.5,2.9s.1,2.2.5,2.8c.4.6.8,1,1.4,1s1.1-.4,1.5-1c.4-.6.5-1.5.5-2.8s-.1-2.3-.5-2.9c-.4-.6-.8-1-1.5-1Z"/>
  </g>
  <g class="st34">
    <line class="st1" x1="580.6" y1="782.7" x2="580.6" y2="439.6"/>
  </g>
  <g class="st38">
    <line x1="580.6" y1="782.7" x2="580.6" y2="787.2"/>
    <line class="st3" x1="580.6" y1="782.7" x2="580.6" y2="787.2"/>
    <polygon points="572.1 800.2 574.1 800.2 574.1 793.1 571.8 793.6 571.8 792.5 574 792 575.2 792 575.2 800.2 577.3 800.2 577.3 801.2 571.9 801.2 571.9 800.2 572.1 800.2"/>
    <rect x="579.9" y="799.7" width="1.3" height="1.5"/>
    <path d="M584,792h4.9v1h-3.8v2.3c.1,0,.4,0,.5-.1h.5c1,0,1.9.3,2.4.9.6.5.9,1.3.9,2.3s-.3,1.8-.9,2.3c-.6.5-1.5.9-2.7.9h-1.1c-.4,0-.8-.1-1.3-.3v-1.3c.4.3.8.4,1.1.5.4.1.8.1,1.3.1.8,0,1.3-.1,1.6-.5.4-.4.6-.9.6-1.5s-.3-1.1-.6-1.5c-.4-.4-1-.5-1.6-.5h-1c-.4,0-.6.1-1,.4v-4.9Z"/>
  </g>
  <g class="st36">
    <line class="st1" x1="732.6" y1="782.7" x2="732.6" y2="439.6"/>
  </g>
  <g class="st33">
    <line x1="732.6" y1="782.7" x2="732.6" y2="787.2"/>
    <line class="st3" x1="732.6" y1="782.7" x2="732.6" y2="787.2"/>
    <path d="M724.8,800.2h4.3v1h-5.8v-1c.5-.5,1.1-1.1,1.9-2,.8-.9,1.4-1.4,1.5-1.6.4-.5.6-.9.9-1.1.1-.3.3-.6.3-.9,0-.5-.1-.9-.5-1.1-.4-.3-.8-.5-1.4-.5s-.8,0-1.3.3c-.4.1-.9.4-1.4.6v-1.3c.5-.3,1-.4,1.4-.5.4,0,.9-.1,1.1-.1,1,0,1.8.3,2.3.8.5.5.9,1.1.9,1.9s0,.8-.3,1.1c-.1.4-.4.8-.8,1.1,0,0-.4.5-1,1-.5.6-1.4,1.4-2.3,2.4h.1Z"/>
    <rect x="731.8" y="799.7" width="1.3" height="1.5"/>
    <path d="M738.5,791.9c1,0,1.8.4,2.4,1.3.5.8.8,2,.8,3.6s-.3,2.8-.8,3.6c-.5.8-1.4,1.3-2.4,1.3s-1.8-.4-2.4-1.3c-.5-.8-.8-2-.8-3.6s.3-2.8.8-3.6,1.4-1.3,2.4-1.3ZM738.5,792.9c-.6,0-1.1.4-1.4,1-.4.6-.5,1.6-.5,2.9s.1,2.2.5,2.8.8,1,1.4,1,1.1-.4,1.5-1c.4-.6.5-1.5.5-2.8s-.1-2.3-.5-2.9c-.4-.6-.8-1-1.5-1Z"/>
  </g>
  <g class="st37">
    <line class="st1" x1="884.5" y1="782.7" x2="884.5" y2="439.6"/>
  </g>
  <g class="st35">
    <line x1="884.5" y1="782.7" x2="884.5" y2="787.2"/>
    <line class="st3" x1="884.5" y1="782.7" x2="884.5" y2="787.2"/>
    <path d="M876.7,800.2h4.3v1h-5.8v-1c.5-.5,1.1-1.1,1.9-2,.8-.9,1.4-1.4,1.5-1.6.4-.5.6-.9.9-1.1.1-.3.3-.6.3-.9,0-.5-.1-.9-.5-1.1-.4-.3-.8-.5-1.4-.5s-.8,0-1.3.3c-.4.1-.9.4-1.4.6v-1.3c.5-.3,1-.4,1.4-.5.4,0,.9-.1,1.1-.1,1,0,1.8.3,2.3.8.5.5.9,1.1.9,1.9s0,.8-.3,1.1c-.1.4-.4.8-.8,1.1,0,0-.4.5-1,1-.5.6-1.4,1.4-2.3,2.4h.1Z"/>
    <rect x="883.7" y="799.7" width="1.3" height="1.5"/>
    <path d="M887.8,792h4.9v1h-3.8v2.3c.1,0,.4,0,.5-.1h.5c1,0,1.9.3,2.4.9.6.5.9,1.3.9,2.3s-.3,1.8-.9,2.3c-.6.5-1.5.9-2.7.9h-1.1c-.4,0-.8-.1-1.3-.3v-1.3c.4.3.8.4,1.1.5.4.1.8.1,1.3.1.8,0,1.3-.1,1.6-.5.4-.4.6-.9.6-1.5s-.3-1.1-.6-1.5c-.4-.4-1-.5-1.6-.5h-1c-.4,0-.6.1-1,.4v-4.9Z"/>
  </g>
  <g class="st46">
    <line class="st1" x1="1036.4" y1="782.7" x2="1036.4" y2="439.6"/>
  </g>
  <g class="st47">
    <line x1="1036.4" y1="782.7" x2="1036.4" y2="787.2"/>
    <line class="st3" x1="1036.4" y1="782.7" x2="1036.4" y2="787.2"/>
    <path d="M1031.4,796.3c.6.1,1,.4,1.4.8.4.4.5.9.5,1.5s-.3,1.6-.9,2.2c-.6.5-1.5.8-2.7.8h-1.1c-.4,0-.9-.3-1.3-.4v-1.3c.4.3.8.4,1.1.5.4,0,.9.1,1.3.1.8,0,1.4-.1,1.8-.5.4-.4.6-.8.6-1.4s-.3-1-.6-1.3c-.4-.3-.9-.5-1.6-.5h-1.1v-1h1.1c.6,0,1.1,0,1.4-.4.3-.4.5-.6.5-1s-.1-.9-.5-1.1c-.4-.3-.8-.4-1.4-.4h-1.1c-.4,0-.8.1-1.3.4v-1.1c.5-.1.9-.3,1.4-.3h1.1c.9,0,1.6.3,2.3.6.5.4.9,1,.9,1.8s-.1.9-.4,1.3c-.3.4-.8.6-1.3.8h-.1Z"/>
    <rect x="1035.7" y="799.7" width="1.3" height="1.5"/>
    <path d="M1042.3,791.9c1,0,1.8.4,2.4,1.3.5.8.8,2,.8,3.6s-.3,2.8-.8,3.6c-.5.8-1.4,1.3-2.4,1.3s-1.8-.4-2.4-1.3c-.5-.8-.8-2-.8-3.6s.3-2.8.8-3.6c.5-.8,1.4-1.3,2.4-1.3ZM1042.3,792.9c-.6,0-1.1.4-1.4,1-.4.6-.5,1.6-.5,2.9s.1,2.2.5,2.8c.4.6.8,1,1.4,1s1.1-.4,1.5-1c.4-.6.5-1.5.5-2.8s-.1-2.3-.5-2.9c-.4-.6-.8-1-1.5-1Z"/>
    <polygon points="554.7 809.3 562.6 809.3 562.6 810.4 559.3 810.4 559.3 818.6 558 818.6 558 810.4 554.7 810.4 554.7 809.3"/>
    <path d="M563.3,809h1.1v1.4h-1.1v-1.4ZM563.3,811.6h1.1v7h-1.1v-7Z"/>
    <path d="M572.2,813c.3-.5.6-.9,1-1.1.4-.3.9-.4,1.4-.4s1.3.3,1.6.8c.4.5.6,1.3.6,2.2v4.2h-1.1v-4.2c0-.6,0-1.1-.4-1.5-.3-.4-.6-.5-1-.5s-1,.3-1.4.6c-.4.4-.5.9-.5,1.6v3.9h-1.1v-4.2c0-.6,0-1.1-.4-1.5-.4-.4-.6-.5-1.1-.5s-1,.3-1.4.6c-.4.4-.5.9-.5,1.6v3.9h-1.1v-7h1.1v1.1c.3-.4.6-.8.9-.9s.8-.3,1.3-.3.9.1,1.3.4c.4.3.6.6.8,1.1h.1Z"/>
    <path d="M584,814.5c0-.6-.1-1.1-.5-1.5-.4-.4-.8-.5-1.4-.5s-1.1.1-1.5.5c-.4.4-.6.9-.6,1.5h4.1ZM585.1,814.9v.5h-5.2c0,.8.3,1.4.8,1.8.4.4,1,.6,1.8.6s.9,0,1.3-.1c.4-.1.8-.3,1.3-.5v1.1c-.4.1-.9.3-1.3.4-.4.1-.9.1-1.3.1-1.1,0-2-.4-2.7-1-.6-.6-1-1.5-1-2.7s.3-2,.9-2.7c.6-.6,1.4-1,2.5-1s1.6.3,2.2.9c.5.6.8,1.4.8,2.4h0Z"/>
    <polygon points="591 809 593.6 809 593.6 809.9 592.1 809.9 592.1 819.4 593.6 819.4 593.6 820.3 591 820.3 591 809"/>
    <path d="M600.3,811.9v1.1c-.4-.1-.6-.3-1-.4h-1.1c-.5,0-1,0-1.3.3-.3.1-.4.4-.4.8s0,.5.3.6c.3.1.6.3,1.3.4h.4c.8.3,1.4.5,1.8.8.4.3.5.8.5,1.3s-.3,1.1-.8,1.5c-.5.4-1.3.5-2.2.5h-1.1c-.4,0-.9-.1-1.3-.4v-1.1c.4.3.9.4,1.3.5.4,0,.8.1,1.3.1s.9,0,1.3-.3c.3-.1.4-.4.4-.8s0-.5-.3-.8c-.3-.1-.6-.4-1.4-.5h-.4c-.8-.3-1.3-.5-1.5-.8-.3-.3-.5-.8-.5-1.3s.3-1.1.6-1.5c.5-.4,1.1-.5,2-.5h1.1c.4,0,.8.1,1,.3h0Z"/>
    <polygon points="605.3 809 605.3 820.3 602.6 820.3 602.6 819.4 604.1 819.4 604.1 809.9 602.6 809.9 602.6 809 605.3 809"/>
  </g>
  <g class="st22">
    <line class="st1" x1="79.4" y1="782.7" x2="1081.8" y2="782.7"/>
  </g>
  <g class="st19">
    <line x1="79.4" y1="782.7" x2="74.9" y2="782.7"/>
    <line class="st3" x1="79.4" y1="782.7" x2="74.9" y2="782.7"/>
  </g>
  <g class="st24">
    <line class="st1" x1="79.4" y1="739.9" x2="1081.8" y2="739.9"/>
  </g>
  <g class="st27">
    <line x1="79.4" y1="739.9" x2="74.9" y2="739.9"/>
    <line class="st3" x1="79.4" y1="739.9" x2="74.9" y2="739.9"/>
  </g>
  <g class="st25">
    <line class="st1" x1="79.4" y1="697" x2="1081.8" y2="697"/>
  </g>
  <g class="st23">
    <line x1="79.4" y1="697" x2="74.9" y2="697"/>
    <line class="st3" x1="79.4" y1="697" x2="74.9" y2="697"/>
    <path d="M46.3,692.5c1,0,1.8.4,2.4,1.3.5.8.8,2,.8,3.6s-.3,2.8-.8,3.5c-.5.8-1.4,1.3-2.4,1.3s-1.8-.4-2.4-1.3c-.5-.8-.8-2-.8-3.5s.3-2.8.8-3.6c.5-.8,1.4-1.3,2.4-1.3ZM46.3,693.3c-.6,0-1.1.4-1.4,1-.4.6-.5,1.6-.5,2.9s.1,2.2.5,2.8c.4.6.8,1,1.4,1s1.1-.4,1.5-1c.4-.6.5-1.5.5-2.8s-.1-2.3-.5-2.9c-.4-.6-.8-1-1.5-1Z"/>
    <rect x="51.6" y="700.2" width="1.3" height="1.5"/>
    <path d="M58.3,692.5c1,0,1.8.4,2.4,1.3.5.8.8,2,.8,3.6s-.3,2.8-.8,3.5c-.5.8-1.4,1.3-2.4,1.3s-1.8-.4-2.4-1.3c-.5-.8-.8-2-.8-3.5s.3-2.8.8-3.6c.5-.8,1.4-1.3,2.4-1.3ZM58.3,693.3c-.6,0-1.1.4-1.4,1-.4.6-.5,1.6-.5,2.9s.1,2.2.5,2.8c.4.6.8,1,1.4,1s1.1-.4,1.5-1c.4-.6.5-1.5.5-2.8s-.1-2.3-.5-2.9c-.4-.6-.8-1-1.5-1Z"/>
    <path d="M66.4,692.5c1,0,1.8.4,2.4,1.3.5.8.8,2,.8,3.6s-.3,2.8-.8,3.5c-.5.8-1.4,1.3-2.4,1.3s-1.8-.4-2.4-1.3c-.5-.8-.8-2-.8-3.5s.3-2.8.8-3.6c.5-.8,1.4-1.3,2.4-1.3ZM66.4,693.3c-.6,0-1.1.4-1.4,1-.4.6-.5,1.6-.5,2.9s.1,2.2.5,2.8c.4.6.8,1,1.4,1s1.1-.4,1.5-1c.4-.6.5-1.5.5-2.8s-.1-2.3-.5-2.9c-.4-.6-.8-1-1.5-1Z"/>
  </g>
  <g class="st26">
    <line class="st1" x1="79.4" y1="654.2" x2="1081.8" y2="654.2"/>
  </g>
  <g class="st20">
    <line x1="79.4" y1="654.2" x2="74.9" y2="654.2"/>
    <line class="st3" x1="79.4" y1="654.2" x2="74.9" y2="654.2"/>
  </g>
  <g class="st21">
    <line class="st1" x1="79.4" y1="611.2" x2="1081.8" y2="611.2"/>
  </g>
  <g class="st68">
    <line x1="79.4" y1="611.2" x2="74.9" y2="611.2"/>
    <line class="st3" x1="79.4" y1="611.2" x2="74.9" y2="611.2"/>
  </g>
  <g class="st39">
    <line class="st1" x1="79.4" y1="568.3" x2="1081.8" y2="568.3"/>
  </g>
  <g class="st42">
    <line x1="79.4" y1="568.3" x2="74.9" y2="568.3"/>
    <line class="st3" x1="79.4" y1="568.3" x2="74.9" y2="568.3"/>
  </g>
  <g class="st44">
    <line class="st1" x1="79.4" y1="525.5" x2="1081.8" y2="525.5"/>
  </g>
  <g class="st43">
    <line x1="79.4" y1="525.5" x2="74.9" y2="525.5"/>
    <line class="st3" x1="79.4" y1="525.5" x2="74.9" y2="525.5"/>
    <polygon points="43.7 529.3 45.8 529.3 45.8 522.2 43.5 522.7 43.5 521.5 45.6 521 46.9 521 46.9 529.3 48.9 529.3 48.9 530.3 43.6 530.3 43.6 529.3 43.7 529.3"/>
    <rect x="51.6" y="528.6" width="1.3" height="1.5"/>
    <path d="M58.3,520.9c1,0,1.8.4,2.4,1.3.5.8.8,2,.8,3.6s-.3,2.8-.8,3.6c-.5.8-1.4,1.3-2.4,1.3s-1.8-.4-2.4-1.3c-.5-.8-.8-2-.8-3.6s.3-2.8.8-3.6c.5-.8,1.4-1.3,2.4-1.3ZM58.3,521.8c-.6,0-1.1.4-1.4,1-.4.6-.5,1.6-.5,2.9s.1,2.2.5,2.8c.4.6.8,1,1.4,1s1.1-.4,1.5-1c.4-.6.5-1.5.5-2.8s-.1-2.3-.5-2.9c-.4-.6-.8-1-1.5-1Z"/>
    <path d="M66.4,520.9c1,0,1.8.4,2.4,1.3.5.8.8,2,.8,3.6s-.3,2.8-.8,3.6c-.5.8-1.4,1.3-2.4,1.3s-1.8-.4-2.4-1.3c-.5-.8-.8-2-.8-3.6s.3-2.8.8-3.6c.5-.8,1.4-1.3,2.4-1.3ZM66.4,521.8c-.6,0-1.1.4-1.4,1-.4.6-.5,1.6-.5,2.9s.1,2.2.5,2.8c.4.6.8,1,1.4,1s1.1-.4,1.5-1c.4-.6.5-1.5.5-2.8s-.1-2.3-.5-2.9c-.4-.6-.8-1-1.5-1Z"/>
  </g>
  <g class="st41">
    <line class="st1" x1="79.4" y1="482.6" x2="1081.8" y2="482.6"/>
  </g>
  <g class="st30">
    <line x1="79.4" y1="482.6" x2="74.9" y2="482.6"/>
    <line class="st3" x1="79.4" y1="482.6" x2="74.9" y2="482.6"/>
  </g>
  <g class="st28">
    <line class="st1" x1="79.4" y1="439.6" x2="1081.8" y2="439.6"/>
  </g>
  <g class="st40">
    <line x1="79.4" y1="439.6" x2="74.9" y2="439.6"/>
    <line class="st3" x1="79.4" y1="439.6" x2="74.9" y2="439.6"/>
    <path d="M14.7,638.1v-3.2c0-1,.3-1.6.6-2.2.4-.5,1-.8,1.6-.8s1,.1,1.4.4c.4.3.5.6.6,1.1.1-.6.4-1.1.9-1.4.4-.4.9-.5,1.5-.5s1.5.3,1.9.9c.5.5.6,1.4.6,2.4v3.3h-9.3ZM15.7,636.8h2.8v-1.9c0-.6,0-1-.4-1.4s-.6-.5-1-.5-.8.1-1,.5c-.3.3-.4.8-.4,1.4v1.9ZM19.5,636.8h3.4v-2c0-.6-.1-1.1-.4-1.5-.3-.4-.8-.5-1.3-.5s-1,.1-1.3.5c-.3.4-.4.8-.4,1.5v2h-.1Z"/>
    <path d="M14.2,629.3v-1.1h1.4v1.1h-1.4ZM17,629.3v-1.1h7v1.1h-7Z"/>
    <path d="M15,624.7h2v-2.4h.9v2.4h3.8c.5,0,.9,0,1.1-.3s.3-.5.3-.9v-1.1h1v1.1c0,.9-.1,1.5-.5,1.8-.4.4-.9.5-1.8.5h-3.8v.9h-.9v-.9h-2v-1.1h-.1Z"/>
    <polygon points="23.8 614.3 14.6 617.9 14.6 616.6 22.3 613.7 14.6 610.8 14.6 609.5 23.8 613.1 23.8 614.5 23.8 614.3"/>
    <path d="M19.9,603.7h3.9v1.1h-1c.4.3.8.6.9,1,.3.4.3.9.3,1.4s-.3,1.3-.6,1.6c-.4.4-.9.6-1.6.6s-1.4-.3-1.8-.8c-.4-.5-.6-1.3-.6-2.3v-1.6c-.5,0-.9.1-1.3.5s-.4.9-.4,1.4,0,.8.1,1.1c0,.4.3.8.4,1.1h-1c-.1-.4-.3-.8-.4-1.3v-1.1c0-1,.3-1.8.8-2.3.5-.5,1.3-.8,2.4-.8h0ZM20.4,606c0,.9,0,1.5.3,1.9.3.4.5.5,1.1.5s.8-.1,1-.4c.3-.3.4-.6.4-1.1s-.3-1.1-.6-1.5c-.4-.4-1-.6-1.8-.6h-.3v1.1h-.1Z"/>
    <rect x="14.2" y="600.3" width="9.6" height="1.1"/>
    <path d="M16.7,595.1h0ZM21.2,598h-4.2v-1.1h4.2c.6,0,1.1-.1,1.5-.4s.5-.6.5-1.1-.3-1.1-.6-1.4c-.4-.4-.9-.5-1.6-.5h-3.9v-1.1h7v1.1h-1c.4.3.8.6.9,1,.3.4.3.8.3,1.3,0,.8-.3,1.4-.8,1.8-.5.4-1.3.6-2.2.6h0Z"/>
    <path d="M19.8,585.1c-.6,0-1.1.1-1.5.5-.4.4-.5.8-.5,1.4s.1,1.1.5,1.5c.4.4.9.6,1.5.6v-4.1ZM20.2,583.9h.5v5.2c.8,0,1.4-.3,1.8-.8.4-.4.6-1,.6-1.8s0-.9-.1-1.3c-.1-.4-.3-.8-.5-1.3h1.1c.1.4.3.9.4,1.3s.1.9.1,1.3c0,1.1-.4,2-1,2.7-.6.6-1.5,1-2.7,1s-2-.3-2.7-.9c-.6-.6-1-1.4-1-2.5s.3-1.6.9-2.2c.6-.5,1.4-.8,2.4-.8h.1Z"/>
  </g>
  <g class="st29">
    <polyline class="st7" points="124.9 697 216 697 216 525.5 398.4 525.5 398.4 697 489.5 697 489.5 525.5 580.7 525.5 580.7 697 671.9 697 671.9 525.5 854.2 525.5 854.2 697 945.3 697 945.3 525.5 1036.4 525.5"/>
  </g>
  <g class="st31">
    <line class="st2" x1="216" y1="782.7" x2="216" y2="439.6"/>
  </g>
  <g class="st82">
    <line class="st2" x1="307.2" y1="782.7" x2="307.2" y2="439.6"/>
  </g>
  <g class="st84">
    <line class="st2" x1="398.4" y1="782.7" x2="398.4" y2="439.6"/>
  </g>
  <g class="st85">
    <line class="st2" x1="489.5" y1="782.7" x2="489.5" y2="439.6"/>
  </g>
  <g class="st86">
    <line class="st2" x1="580.6" y1="782.7" x2="580.6" y2="439.6"/>
  </g>
  <g class="st87">
    <line class="st2" x1="671.7" y1="782.7" x2="671.7" y2="439.6"/>
  </g>
  <g class="st79">
    <line class="st2" x1="762.9" y1="782.7" x2="762.9" y2="439.6"/>
  </g>
  <g class="st80">
    <line class="st2" x1="854" y1="782.7" x2="854" y2="439.6"/>
  </g>
  <g class="st81">
    <line class="st2" x1="945.2" y1="782.7" x2="945.2" y2="439.6"/>
  </g>
  <g class="st88">
    <line class="st5" x1="79.4" y1="782.7" x2="79.4" y2="439.6"/>
    <line class="st5" x1="1081.8" y1="782.7" x2="1081.8" y2="439.6"/>
    <line class="st5" x1="79.4" y1="782.7" x2="1081.8" y2="782.7"/>
    <line class="st5" x1="79.4" y1="439.6" x2="1081.8" y2="439.6"/>
    <path d="M514.9,421h3.8c1.1,0,2,.3,2.7.8.6.5.9,1.1.9,2s-.1,1.3-.5,1.6c-.4.4-.8.6-1.4.8.8.1,1.3.5,1.8,1,.4.5.6,1.1.6,1.9s-.4,1.8-1,2.3c-.6.5-1.6.8-2.9.8h-3.9v-11h0ZM516.4,422.3v3.3h2.3c.8,0,1.3-.1,1.6-.4.4-.3.5-.6.5-1.3s-.1-1-.5-1.3c-.4-.3-.9-.4-1.6-.4h-2.3ZM516.4,426.8v4.1h2.4c.8,0,1.4-.1,1.8-.5.4-.4.6-.9.6-1.5s-.3-1.3-.6-1.5c-.4-.4-1-.5-1.8-.5h-2.4Z"/>
    <path d="M525.3,420.5h1.4v1.8h-1.4v-1.8ZM525.3,423.8h1.4v8.4h-1.4v-8.4Z"/>
    <path d="M536.4,427.1v5.1h-1.4v-4.9c0-.8-.1-1.4-.5-1.8-.3-.4-.8-.6-1.4-.6s-1.3.3-1.8.8c-.4.5-.6,1.1-.6,1.9v4.7h-1.4v-8.4h1.4v1.3c.4-.5.8-.9,1.1-1.1.4-.3,1-.4,1.5-.4,1,0,1.6.3,2.2.9.5.6.8,1.5.8,2.7h.1Z"/>
    <path d="M545.7,427.3v4.7h-1.4v-1.3c-.3.5-.8.9-1.1,1.1-.5.3-1,.4-1.6.4s-1.5-.3-2-.8c-.5-.5-.8-1.1-.8-1.9s.3-1.6.9-2.2c.6-.5,1.5-.8,2.8-.8h1.9c0-.8-.3-1.3-.6-1.6-.4-.4-1-.5-1.8-.5s-.9,0-1.4.1c-.5,0-.9.3-1.3.5v-1.3c.5-.3,1-.4,1.4-.4s.9-.1,1.4-.1c1.3,0,2.2.3,2.7.9.6.6.9,1.5.9,2.8v.3ZM542.9,427.8c-1.1,0-1.9,0-2.3.4-.4.4-.6.6-.6,1.3s.1.9.5,1.1c.4.3.8.4,1.3.4s1.4-.3,1.8-.8c.4-.5.6-1.3.6-2.2v-.3h-1.4.1Z"/>
    <path d="M553.3,425.1c-.1,0-.4-.1-.5-.3h-.6c-.8,0-1.4.3-1.8.8-.4.5-.6,1.3-.6,2.2v4.4h-1.4v-8.4h1.4v1.3c.3-.5.6-.9,1.1-1.1.5-.3,1-.4,1.6-.4s.3,0,.3,0h.4v1.4h.1Z"/>
    <path d="M558.2,432.8c-.4,1-.8,1.6-1.1,1.9-.4.3-.9.5-1.5.5h-1.1v-1.1h.8c.4,0,.6,0,.9-.3.3-.1.4-.6.6-1.3l.3-.6-3.4-8.2h1.4l2.7,6.5,2.7-6.5h1.4l-3.7,9.1h.3Z"/>
    <path d="M568.6,421h3.8c1.1,0,2,.3,2.7.8.6.5.9,1.1.9,2s-.1,1.3-.5,1.6c-.4.4-.8.6-1.4.8.8.1,1.3.5,1.8,1,.4.5.6,1.1.6,1.9s-.4,1.8-1,2.3c-.6.5-1.6.8-2.9.8h-3.9v-11h0ZM570.2,422.3v3.3h2.3c.8,0,1.3-.1,1.6-.4.4-.3.5-.6.5-1.3s-.1-1-.5-1.3c-.4-.3-.9-.4-1.6-.4h-2.3ZM570.2,426.8v4.1h2.4c.8,0,1.4-.1,1.8-.5.4-.4.6-.9.6-1.5s-.3-1.3-.6-1.5c-.4-.4-1-.5-1.8-.5h-2.4Z"/>
    <path d="M579,420.5h1.4v1.8h-1.4v-1.8ZM579,423.8h1.4v8.4h-1.4v-8.4Z"/>
    <path d="M584.6,421.4v2.4h2.8v1h-2.8v4.6c0,.6,0,1.1.3,1.3.3.1.5.3,1.1.3h1.4v1.1h-1.4c-1,0-1.8-.3-2.2-.6-.4-.4-.6-1.1-.6-2.2v-4.6h-1v-1h1v-2.4h1.4Z"/>
    <path d="M600.7,421.4v1.5c-.5-.3-1.1-.5-1.6-.6-.5-.1-1-.3-1.5-.3-.8,0-1.4.1-1.9.5-.4.3-.6.8-.6,1.4s.1.9.4,1.1c.3.3.9.5,1.6.6h.9c1.1.4,1.9.8,2.5,1.3.6.5.8,1.3.8,2.2s-.4,1.9-1.1,2.4c-.8.5-1.8.9-3.2.9s-1.1,0-1.6-.1c-.6,0-1.1-.3-1.8-.5v-1.5c.6.4,1.3.6,1.8.8.6.1,1.1.3,1.8.3s1.5-.1,2-.5c.5-.4.8-.8.8-1.4s-.1-1-.5-1.3c-.4-.3-.9-.5-1.6-.6h-.9c-1.1-.4-1.9-.8-2.4-1.3-.5-.5-.8-1.1-.8-2s.4-1.8,1-2.3c.6-.5,1.6-.9,2.9-.9s1,0,1.6.1c.5,0,1.1.3,1.6.4h-.1Z"/>
    <path d="M605,421.4v2.4h2.8v1h-2.8v4.6c0,.6,0,1.1.3,1.3.3.1.5.3,1.1.3h1.4v1.1h-1.4c-1,0-1.8-.3-2.2-.6-.4-.4-.6-1.1-.6-2.2v-4.6h-1v-1h1v-2.4h1.4Z"/>
    <path d="M614.5,425.1c-.1,0-.4-.1-.5-.3h-.6c-.8,0-1.4.3-1.8.8-.4.5-.6,1.3-.6,2.2v4.4h-1.4v-8.4h1.4v1.3c.3-.5.6-.9,1.1-1.1.5-.3,1-.4,1.6-.4s.3,0,.3,0h.4v1.4h.1Z"/>
    <path d="M621.4,427.2c0-.8-.3-1.4-.6-1.8-.4-.5-.9-.6-1.6-.6s-1.4.3-1.8.6c-.4.4-.8,1-.8,1.8h4.8ZM622.7,427.6v.6h-6.3c0,.9.4,1.6.9,2.2.5.5,1.3.8,2.2.8s1,0,1.5-.3c.5-.3,1-.4,1.5-.6v1.3c-.5.3-1,.4-1.5.5-.5.1-1,.1-1.5.1-1.3,0-2.4-.4-3.2-1.1-.8-.8-1.1-1.8-1.1-3.2s.4-2.4,1.1-3.3c.8-.8,1.8-1.1,2.9-1.1s2,.4,2.7,1.1c.6.8,1,1.6,1,2.9h-.1Z"/>
    <path d="M631.4,427.3v4.7h-1.4v-1.3c-.3.5-.8.9-1.1,1.1-.5.3-1,.4-1.6.4s-1.5-.3-2-.8c-.5-.5-.8-1.1-.8-1.9s.3-1.6.9-2.2c.6-.5,1.5-.8,2.8-.8h1.9c0-.8-.3-1.3-.6-1.6-.4-.4-1-.5-1.8-.5s-.9,0-1.4.1c-.5,0-.9.3-1.3.5v-1.3c.5-.3,1-.4,1.4-.4s.9-.1,1.4-.1c1.3,0,2.2.3,2.7.9.6.6.9,1.5.9,2.8v.3ZM628.7,427.8c-1.1,0-1.9,0-2.3.4-.4.4-.6.6-.6,1.3s.1.9.5,1.1c.4.3.8.4,1.3.4s1.4-.3,1.8-.8c.4-.5.6-1.3.6-2.2v-.3h-1.4.1Z"/>
    <path d="M640.8,425.3c.4-.6.8-1,1.3-1.4.5-.4,1-.4,1.6-.4s1.5.3,2,.9c.5.6.8,1.5.8,2.5v5.1h-1.4v-4.9c0-.8-.1-1.4-.4-1.8-.3-.4-.8-.6-1.3-.6s-1.3.3-1.6.8c-.4.5-.6,1.1-.6,1.9v4.7h-1.4v-4.9c0-.8-.1-1.4-.4-1.8-.3-.4-.8-.6-1.3-.6s-1.3.3-1.6.8c-.4.5-.6,1.1-.6,1.9v4.7h-1.4v-8.4h1.4v1.3c.3-.5.6-.9,1.1-1.1.5-.3,1-.4,1.5-.4s1.1.1,1.5.5c.4.3.8.8.9,1.4h-.1Z"/>
  </g>
  <g class="st83">
    <path class="st4" d="M222.2,130.6c3.3,134.5,3.3,352.6,0,487.1-3.3,134.5-8.7,134.5-12,0-3.3-134.5-3.3-352.6,0-487.1,3.3-134.5,8.7-134.5,12,0Z"/>
    <text class="st8" transform="translate(154.9 18.4)"><tspan x="0" y="0">Phasechange</tspan></text>
  </g>
</svg>