<?xml version="1.0" encoding="UTF-8"?>
<svg id="Ebene_1" data-name="Ebene 1" xmlns="http://www.w3.org/2000/svg" xmlns:xlink="http://www.w3.org/1999/xlink" viewBox="0 0 2200 1080">
  <defs>
    <style>
      .cls-1, .cls-2, .cls-3, .cls-4, .cls-5, .cls-6, .cls-7, .cls-8 {
        fill: none;
      }

      .cls-9 {
        letter-spacing: 0em;
      }

      .cls-10 {
        fill: #fff;
        font-family: HelveticaNeue-Medium, 'Helvetica Neue';
        font-size: 32px;
        font-weight: 500;
      }

      .cls-11 {
        fill: #4cadbb;
      }

      .cls-12 {
        fill: #2c4c8d;
      }

      .cls-13 {
        clip-path: url(#clippath-17);
      }

      .cls-14 {
        clip-path: url(#clippath-19);
      }

      .cls-15 {
        clip-path: url(#clippath-11);
      }

      .cls-16 {
        clip-path: url(#clippath-16);
      }

      .cls-17 {
        clip-path: url(#clippath-18);
      }

      .cls-18 {
        clip-path: url(#clippath-10);
      }

      .cls-19 {
        clip-path: url(#clippath-15);
      }

      .cls-20 {
        clip-path: url(#clippath-13);
      }

      .cls-21 {
        clip-path: url(#clippath-14);
      }

      .cls-22 {
        clip-path: url(#clippath-12);
      }

      .cls-23 {
        clip-path: url(#clippath-61);
      }

      .cls-24 {
        clip-path: url(#clippath-60);
      }

      .cls-25 {
        clip-path: url(#clippath-62);
      }

      .cls-26 {
        clip-path: url(#clippath-64);
      }

      .cls-27 {
        clip-path: url(#clippath-63);
      }

      .cls-28 {
        clip-path: url(#clippath-50);
      }

      .cls-29 {
        clip-path: url(#clippath-55);
      }

      .cls-30 {
        clip-path: url(#clippath-52);
      }

      .cls-31 {
        clip-path: url(#clippath-57);
      }

      .cls-32 {
        clip-path: url(#clippath-54);
      }

      .cls-33 {
        clip-path: url(#clippath-56);
      }

      .cls-34 {
        clip-path: url(#clippath-53);
      }

      .cls-35 {
        clip-path: url(#clippath-51);
      }

      .cls-36 {
        clip-path: url(#clippath-58);
      }

      .cls-37 {
        clip-path: url(#clippath-59);
      }

      .cls-38 {
        clip-path: url(#clippath-31);
      }

      .cls-39 {
        clip-path: url(#clippath-32);
      }

      .cls-40 {
        clip-path: url(#clippath-33);
      }

      .cls-41 {
        clip-path: url(#clippath-34);
      }

      .cls-42 {
        clip-path: url(#clippath-35);
      }

      .cls-43 {
        clip-path: url(#clippath-39);
      }

      .cls-44 {
        clip-path: url(#clippath-30);
      }

      .cls-45 {
        clip-path: url(#clippath-36);
      }

      .cls-46 {
        clip-path: url(#clippath-37);
      }

      .cls-47 {
        clip-path: url(#clippath-38);
      }

      .cls-48 {
        clip-path: url(#clippath-27);
      }

      .cls-49 {
        clip-path: url(#clippath-29);
      }

      .cls-50 {
        clip-path: url(#clippath-26);
      }

      .cls-51 {
        clip-path: url(#clippath-28);
      }

      .cls-52 {
        clip-path: url(#clippath-20);
      }

      .cls-53 {
        clip-path: url(#clippath-21);
      }

      .cls-54 {
        clip-path: url(#clippath-22);
      }

      .cls-55 {
        clip-path: url(#clippath-23);
      }

      .cls-56 {
        clip-path: url(#clippath-24);
      }

      .cls-57 {
        clip-path: url(#clippath-25);
      }

      .cls-58 {
        clip-path: url(#clippath-41);
      }

      .cls-59 {
        clip-path: url(#clippath-42);
      }

      .cls-60 {
        clip-path: url(#clippath-43);
      }

      .cls-61 {
        clip-path: url(#clippath-44);
      }

      .cls-62 {
        clip-path: url(#clippath-45);
      }

      .cls-63 {
        clip-path: url(#clippath-49);
      }

      .cls-64 {
        clip-path: url(#clippath-40);
      }

      .cls-65 {
        clip-path: url(#clippath-46);
      }

      .cls-66 {
        clip-path: url(#clippath-47);
      }

      .cls-67 {
        clip-path: url(#clippath-48);
      }

      .cls-68 {
        clip-path: url(#clippath-1);
      }

      .cls-69 {
        clip-path: url(#clippath-3);
      }

      .cls-70 {
        clip-path: url(#clippath-4);
      }

      .cls-71 {
        clip-path: url(#clippath-2);
      }

      .cls-72 {
        clip-path: url(#clippath-7);
      }

      .cls-73 {
        clip-path: url(#clippath-6);
      }

      .cls-74 {
        clip-path: url(#clippath-9);
      }

      .cls-75 {
        clip-path: url(#clippath-8);
      }

      .cls-76 {
        clip-path: url(#clippath-5);
      }

      .cls-77 {
        letter-spacing: 0em;
      }

      .cls-2, .cls-4 {
        stroke: #f27200;
      }

      .cls-2, .cls-5, .cls-7 {
        stroke-width: 10px;
      }

      .cls-3 {
        stroke: #00a2ff;
      }

      .cls-3, .cls-4, .cls-6 {
        stroke-width: 5px;
      }

      .cls-5 {
        stroke: #00a1ff;
      }

      .cls-78 {
        font-size: 48px;
      }

      .cls-78, .cls-79 {
        font-family: HelveticaNeue, 'Helvetica Neue';
      }

      .cls-79 {
        font-size: 40px;
      }

      .cls-80 {
        letter-spacing: -.09em;
      }

      .cls-6, .cls-7 {
        stroke: #006c65;
      }

      .cls-81 {
        letter-spacing: -.02em;
      }

      .cls-82 {
        clip-path: url(#clippath);
      }

      .cls-8 {
        stroke: #000;
        stroke-width: 4px;
      }
    </style>
    <clipPath id="clippath">
      <rect class="cls-1" width="2200" height="1080"/>
    </clipPath>
    <clipPath id="clippath-1">
      <rect class="cls-1" x="169.84" y="649.13" width="238.45" height="68.78"/>
    </clipPath>
    <clipPath id="clippath-2">
      <rect class="cls-1" width="2200" height="1080"/>
    </clipPath>
    <clipPath id="clippath-3">
      <rect class="cls-1" x="169.84" y="505.61" width="238.45" height="68.78"/>
    </clipPath>
    <clipPath id="clippath-4">
      <rect class="cls-1" width="2200" height="1080"/>
    </clipPath>
    <clipPath id="clippath-5">
      <rect class="cls-1" x="169.84" y="435.99" width="238.45" height="68.78"/>
    </clipPath>
    <clipPath id="clippath-6">
      <rect class="cls-1" width="2200" height="1080"/>
    </clipPath>
    <clipPath id="clippath-7">
      <rect class="cls-1" x="169.84" y="362.08" width="238.45" height="68.78"/>
    </clipPath>
    <clipPath id="clippath-8">
      <rect class="cls-1" width="2200" height="1080"/>
    </clipPath>
    <clipPath id="clippath-9">
      <rect class="cls-1" x="169.84" y="288.17" width="238.45" height="68.78"/>
    </clipPath>
    <clipPath id="clippath-10">
      <rect class="cls-1" width="2200" height="1080"/>
    </clipPath>
    <clipPath id="clippath-11">
      <rect class="cls-1" x="305.65" y="214.26" width="106.03" height="68.78"/>
    </clipPath>
    <clipPath id="clippath-12">
      <rect class="cls-1" width="2200" height="1080"/>
    </clipPath>
    <clipPath id="clippath-13">
      <rect class="cls-1" x="169.84" y="101.69" width="238.45" height="68.78"/>
    </clipPath>
    <clipPath id="clippath-14">
      <rect class="cls-1" width="2200" height="1080"/>
    </clipPath>
    <clipPath id="clippath-15">
      <rect class="cls-1" x="657.57" y="649.14" width="238.45" height="68.78"/>
    </clipPath>
    <clipPath id="clippath-16">
      <rect class="cls-1" width="2200" height="1080"/>
    </clipPath>
    <clipPath id="clippath-17">
      <rect class="cls-1" x="657.57" y="505.61" width="238.45" height="68.78"/>
    </clipPath>
    <clipPath id="clippath-18">
      <rect class="cls-1" width="2200" height="1080"/>
    </clipPath>
    <clipPath id="clippath-19">
      <rect class="cls-1" x="657.57" y="436" width="238.45" height="68.78"/>
    </clipPath>
    <clipPath id="clippath-20">
      <rect class="cls-1" width="2200" height="1080"/>
    </clipPath>
    <clipPath id="clippath-21">
      <rect class="cls-1" x="657.57" y="362.09" width="238.45" height="68.78"/>
    </clipPath>
    <clipPath id="clippath-22">
      <rect class="cls-1" width="2200" height="1080"/>
    </clipPath>
    <clipPath id="clippath-23">
      <rect class="cls-1" x="657.57" y="288.18" width="238.45" height="68.78"/>
    </clipPath>
    <clipPath id="clippath-24">
      <rect class="cls-1" width="2200" height="1080"/>
    </clipPath>
    <clipPath id="clippath-25">
      <rect class="cls-1" x="793.38" y="214.27" width="106.03" height="68.78"/>
    </clipPath>
    <clipPath id="clippath-26">
      <rect class="cls-1" width="2200" height="1080"/>
    </clipPath>
    <clipPath id="clippath-27">
      <rect class="cls-1" x="657.57" y="101.7" width="238.45" height="68.78"/>
    </clipPath>
    <clipPath id="clippath-28">
      <rect class="cls-1" width="2200" height="1080"/>
    </clipPath>
    <clipPath id="clippath-29">
      <rect class="cls-1" x="667.65" y="210.93" width="123.38" height="68.78"/>
    </clipPath>
    <clipPath id="clippath-30">
      <rect class="cls-1" width="2200" height="1080"/>
    </clipPath>
    <clipPath id="clippath-31">
      <rect class="cls-1" x="1149.28" y="654.69" width="238.45" height="68.78"/>
    </clipPath>
    <clipPath id="clippath-32">
      <rect class="cls-1" width="2200" height="1080"/>
    </clipPath>
    <clipPath id="clippath-33">
      <rect class="cls-1" x="1149.28" y="575.32" width="238.45" height="68.78"/>
    </clipPath>
    <clipPath id="clippath-34">
      <rect class="cls-1" width="2200" height="1080"/>
    </clipPath>
    <clipPath id="clippath-35">
      <rect class="cls-1" x="1149.28" y="505.71" width="238.45" height="68.78"/>
    </clipPath>
    <clipPath id="clippath-36">
      <rect class="cls-1" width="2200" height="1080"/>
    </clipPath>
    <clipPath id="clippath-37">
      <rect class="cls-1" x="1149.28" y="431.8" width="238.45" height="68.78"/>
    </clipPath>
    <clipPath id="clippath-38">
      <rect class="cls-1" width="2200" height="1080"/>
    </clipPath>
    <clipPath id="clippath-39">
      <rect class="cls-1" x="1149.28" y="293.73" width="238.45" height="68.78"/>
    </clipPath>
    <clipPath id="clippath-40">
      <rect class="cls-1" width="2200" height="1080"/>
    </clipPath>
    <clipPath id="clippath-41">
      <rect class="cls-1" x="1285.09" y="219.82" width="106.03" height="68.78"/>
    </clipPath>
    <clipPath id="clippath-42">
      <rect class="cls-1" width="2200" height="1080"/>
    </clipPath>
    <clipPath id="clippath-43">
      <rect class="cls-1" x="1149.28" y="107.25" width="238.45" height="68.78"/>
    </clipPath>
    <clipPath id="clippath-44">
      <rect class="cls-1" width="2200" height="1080"/>
    </clipPath>
    <clipPath id="clippath-45">
      <rect class="cls-1" x="1154.3" y="219.82" width="123.38" height="68.78"/>
    </clipPath>
    <clipPath id="clippath-46">
      <rect class="cls-1" width="2200" height="1080"/>
    </clipPath>
    <clipPath id="clippath-47">
      <rect class="cls-1" x="1762.67" y="796.52" width="238.45" height="68.78"/>
    </clipPath>
    <clipPath id="clippath-48">
      <rect class="cls-1" width="2200" height="1080"/>
    </clipPath>
    <clipPath id="clippath-49">
      <rect class="cls-1" x="1762.67" y="717.15" width="238.45" height="68.78"/>
    </clipPath>
    <clipPath id="clippath-50">
      <rect class="cls-1" width="2200" height="1080"/>
    </clipPath>
    <clipPath id="clippath-51">
      <rect class="cls-1" x="1756.58" y="514.43" width="238.45" height="68.78"/>
    </clipPath>
    <clipPath id="clippath-52">
      <rect class="cls-1" width="2200" height="1080"/>
    </clipPath>
    <clipPath id="clippath-53">
      <rect class="cls-1" x="1756.58" y="440.52" width="238.45" height="68.78"/>
    </clipPath>
    <clipPath id="clippath-54">
      <rect class="cls-1" width="2200" height="1080"/>
    </clipPath>
    <clipPath id="clippath-55">
      <rect class="cls-1" x="1756.58" y="286.96" width="238.45" height="68.78"/>
    </clipPath>
    <clipPath id="clippath-56">
      <rect class="cls-1" width="2200" height="1080"/>
    </clipPath>
    <clipPath id="clippath-57">
      <rect class="cls-1" x="1892.39" y="213.05" width="106.03" height="68.78"/>
    </clipPath>
    <clipPath id="clippath-58">
      <rect class="cls-1" width="2200" height="1080"/>
    </clipPath>
    <clipPath id="clippath-59">
      <rect class="cls-1" x="1756.58" y="100.48" width="238.45" height="68.78"/>
    </clipPath>
    <clipPath id="clippath-60">
      <rect class="cls-1" width="2200" height="1080"/>
    </clipPath>
    <clipPath id="clippath-61">
      <rect class="cls-1" x="1755.19" y="210.93" width="123.38" height="68.78"/>
    </clipPath>
    <clipPath id="clippath-62">
      <rect class="cls-1" width="2200" height="1080"/>
    </clipPath>
    <clipPath id="clippath-63">
      <rect class="cls-1" x="1756.58" y="591.68" width="238.45" height="68.78"/>
    </clipPath>
    <clipPath id="clippath-64">
      <rect class="cls-1" width="2200" height="1080"/>
    </clipPath>
  </defs>
  <g class="cls-82">
    <path class="cls-11" d="M263.87,966.79h50.39v89.37h-50.39v-89.37ZM284.58,958.02h8.99c.78,0,1.41.63,1.41,1.41s-.63,1.42-1.41,1.42h-8.99c-.78,0-1.41-.64-1.41-1.42,0-.78.63-1.41,1.41-1.41ZM265.47,950.5c-3.07,0-5.59,2.52-5.59,5.59v109.03c0,3.1,2.52,5.59,5.59,5.59h47.19c3.07,0,5.59-2.52,5.59-5.59v-109.03c0-3.07-2.49-5.59-5.59-5.59h-47.19Z"/>
    <path class="cls-12" d="M197.88,649.14h182.38c6.73,0,10.77,0,13.46,1.12,3.88,1.41,6.94,4.47,8.35,8.35,1.12,2.69,1.12,6.73,1.12,13.46v22.92c0,6.73,0,10.77-1.12,13.46-1.41,3.88-4.47,6.94-8.35,8.35-2.69,1.12-6.73,1.12-13.46,1.12h-182.38c-6.73,0-10.77,0-13.46-1.12-3.88-1.41-6.94-4.47-8.35-8.35-1.12-2.69-1.12-6.73-1.12-13.46v-22.92c0-6.73,0-10.77,1.12-13.46,1.41-3.88,4.47-6.94,8.35-8.35,2.69-1.12,6.73-1.12,13.46-1.12Z"/>
  </g>
  <g class="cls-68">
    <text class="cls-10" transform="translate(268.32 695.26)"><tspan x="0" y="0">RF</tspan></text>
  </g>
  <g class="cls-71">
    <path class="cls-11" d="M301.48,827.87l3.31,12.88-14.09-7.3,10.79-5.58ZM276.51,827.87l10.8,5.58-14.09,7.3,3.3-12.88ZM277.47,826.6h23.07l-11.53,5.97-11.53-5.97ZM289,816.43l11.04,8.61h-22.07l11.04-8.61ZM296.96,810.22l3.35,13.04-10.04-7.83,6.69-5.22ZM281.03,810.22l6.7,5.22-10.04,7.83,3.34-13.04ZM282.46,809.35h13.07l-6.54,5.1-6.54-5.1ZM289,799.3l6.56,8.49h-13.12l6.56-8.49ZM292.87,794.28l2.87,11.19-5.75-7.45,2.88-3.73ZM285.13,794.28l2.88,3.73-5.75,7.45,2.87-11.19ZM286.23,793.16h5.52l-2.76,3.57-2.77-3.57ZM289,779.18l3.18,12.41h-6.37l3.18-12.41ZM289,764.14c-2.29,0-4.15,1.86-4.15,4.15,0,1.39.68,2.62,1.73,3.37l-18.26,71.16h4.28l16.41-8.5,16.41,8.5h4.28l-18.26-71.16c1.05-.75,1.73-1.98,1.73-3.37,0-2.29-1.86-4.15-4.15-4.15ZM289,752.39c-8.77,0-15.91,7.14-15.91,15.91,0,5.44,2.75,10.26,6.93,13.12l.87-3.42c-2.77-2.32-4.54-5.81-4.54-9.7,0-6.97,5.67-12.64,12.64-12.64s12.64,5.67,12.64,12.64c0,3.89-1.76,7.38-4.54,9.7l.87,3.41c4.18-2.87,6.93-7.68,6.93-13.12,0-8.77-7.14-15.91-15.91-15.91ZM289,740.54c-15.31,0-27.77,12.45-27.77,27.76,0,11,6.43,20.53,15.73,25.02l.83-3.23c-7.89-4.08-13.29-12.32-13.29-21.79,0-13.51,10.99-24.5,24.51-24.5s24.51,10.99,24.51,24.5c0,9.48-5.41,17.72-13.3,21.79l.84,3.23c9.3-4.49,15.73-14.02,15.73-25.02,0-15.31-12.46-27.76-27.77-27.76ZM289.06,728.51c-21.88,0-39.68,17.81-39.68,39.69,0,16.06,9.84,30.43,24.66,36.63l.71-3c-13.61-5.69-22.13-18.88-22.13-33.63,0-20.09,16.35-36.44,36.44-36.44s36.44,16.35,36.44,36.44c0,14.8-8.57,28.01-22.24,33.67l.7,3c14.89-6.17,24.78-20.56,24.78-36.67,0-21.88-17.81-39.69-39.69-39.69Z"/>
    <polyline class="cls-8" points="289.07 916.26 289.07 914.26 289.07 879.08 289.07 877.08"/>
    <polygon points="297.47 879.08 289.07 862.28 280.67 879.08 297.47 879.08"/>
    <polygon points="280.67 914.26 289.07 931.06 297.47 914.26 280.67 914.26"/>
    <path class="cls-12" d="M197.88,505.61h182.38c6.73,0,10.77,0,13.46,1.12,3.88,1.41,6.94,4.47,8.35,8.35,1.12,2.69,1.12,6.73,1.12,13.46v22.92c0,6.73,0,10.77-1.12,13.46-1.41,3.88-4.47,6.94-8.35,8.35-2.69,1.12-6.73,1.12-13.46,1.12h-182.38c-6.73,0-10.77,0-13.46-1.12-3.88-1.41-6.94-4.47-8.35-8.35-1.12-2.69-1.12-6.73-1.12-13.46v-22.92c0-6.73,0-10.77,1.12-13.46,1.41-3.88,4.47-6.94,8.35-8.35,2.69-1.12,6.73-1.12,13.46-1.12Z"/>
  </g>
  <g class="cls-69">
    <text class="cls-10" transform="translate(256.48 551.74)"><tspan x="0" y="0">PHY</tspan></text>
  </g>
  <g class="cls-70">
    <path class="cls-12" d="M197.88,435.99h182.38c6.73,0,10.77,0,13.46,1.12,3.88,1.41,6.94,4.47,8.35,8.35,1.12,2.69,1.12,6.73,1.12,13.46v22.92c0,6.73,0,10.77-1.12,13.46-1.41,3.88-4.47,6.94-8.35,8.35-2.69,1.12-6.73,1.12-13.46,1.12h-182.38c-6.73,0-10.77,0-13.46-1.12-3.88-1.41-6.94-4.47-8.35-8.35-1.12-2.69-1.12-6.73-1.12-13.46v-22.92c0-6.73,0-10.77,1.12-13.46,1.41-3.88,4.47-6.94,8.35-8.35,2.69-1.12,6.73-1.12,13.46-1.12Z"/>
  </g>
  <g class="cls-76">
    <text class="cls-10" transform="translate(252.62 482.12)"><tspan x="0" y="0">MAC</tspan></text>
  </g>
  <g class="cls-73">
    <path class="cls-12" d="M197.88,362.08h182.38c6.73,0,10.77,0,13.46,1.12,3.88,1.41,6.94,4.47,8.35,8.35,1.12,2.69,1.12,6.73,1.12,13.46v22.92c0,6.73,0,10.77-1.12,13.46-1.41,3.88-4.47,6.94-8.35,8.35-2.69,1.12-6.73,1.12-13.46,1.12h-182.38c-6.73,0-10.77,0-13.46-1.12-3.88-1.41-6.94-4.47-8.35-8.35-1.12-2.69-1.12-6.73-1.12-13.46v-22.92c0-6.73,0-10.77,1.12-13.46,1.41-3.88,4.47-6.94,8.35-8.35,2.69-1.12,6.73-1.12,13.46-1.12Z"/>
  </g>
  <g class="cls-72">
    <text class="cls-10" transform="translate(257.07 408.21)"><tspan x="0" y="0">RLC</tspan></text>
  </g>
  <g class="cls-75">
    <path class="cls-12" d="M197.88,288.17h182.38c6.73,0,10.77,0,13.46,1.12,3.88,1.41,6.94,4.47,8.35,8.35,1.12,2.69,1.12,6.73,1.12,13.46v22.92c0,6.73,0,10.77-1.12,13.46-1.41,3.88-4.47,6.94-8.35,8.35-2.69,1.12-6.73,1.12-13.46,1.12h-182.38c-6.73,0-10.77,0-13.46-1.12-3.88-1.41-6.94-4.47-8.35-8.35-1.12-2.69-1.12-6.73-1.12-13.46v-22.92c0-6.73,0-10.77,1.12-13.46,1.41-3.88,4.47-6.94,8.35-8.35,2.69-1.12,6.73-1.12,13.46-1.12Z"/>
  </g>
  <g class="cls-74">
    <text class="cls-10" transform="translate(244.62 334.3)"><tspan x="0" y="0">PDCP</tspan></text>
  </g>
  <g class="cls-18">
    <path class="cls-12" d="M333.54,214.26h50.04c6.73,0,10.77,0,13.46,1.12,3.88,1.41,6.94,4.47,8.35,8.35,1.12,2.69,1.12,6.73,1.12,13.46v22.92c0,6.73,0,10.77-1.12,13.46-1.41,3.88-4.47,6.94-8.35,8.35-2.69,1.12-6.73,1.12-13.46,1.12h-50.04c-6.73,0-10.77,0-13.46-1.12-3.88-1.41-6.94-4.47-8.35-8.35-1.12-2.69-1.12-6.73-1.12-13.46v-22.92c0-6.73,0-10.77,1.12-13.46,1.41-3.88,4.47-6.94,8.35-8.35,2.69-1.12,6.73-1.12,13.46-1.12Z"/>
  </g>
  <g class="cls-15">
    <text class="cls-10" transform="translate(324.59 259.89)"><tspan x="0" y="0">RRC</tspan></text>
  </g>
  <g class="cls-22">
    <path class="cls-12" d="M197.88,101.69h182.38c6.73,0,10.77,0,13.46,1.12,3.88,1.41,6.94,4.47,8.35,8.35,1.12,2.69,1.12,6.73,1.12,13.46v22.92c0,6.73,0,10.77-1.12,13.46-1.41,3.88-4.47,6.94-8.35,8.35-2.69,1.12-6.73,1.12-13.46,1.12h-182.38c-6.73,0-10.77,0-13.46-1.12-3.88-1.41-6.94-4.47-8.35-8.35-1.12-2.69-1.12-6.73-1.12-13.46v-22.92c0-6.73,0-10.77,1.12-13.46,1.41-3.88,4.47-6.94,8.35-8.35,2.69-1.12,6.73-1.12,13.46-1.12Z"/>
  </g>
  <g class="cls-20">
    <text class="cls-10" transform="translate(256.76 147.82)"><tspan x="0" y="0">EPC</tspan></text>
  </g>
  <g class="cls-21">
    <text class="cls-78" transform="translate(118.74 64.27)"><tspan x="0" y="0">4G/</tspan><tspan class="cls-80" x="79.1" y="0">L</tspan><tspan class="cls-77" x="101.38" y="0">TE - Split 8</tspan></text>
    <path class="cls-11" d="M751.6,966.79h50.39v89.37h-50.39v-89.37ZM772.31,958.02h8.99c.78,0,1.41.63,1.41,1.41s-.63,1.42-1.41,1.42h-8.99c-.78,0-1.41-.64-1.41-1.42s.63-1.41,1.41-1.41ZM753.2,950.5c-3.07,0-5.59,2.52-5.59,5.59v109.03c0,3.1,2.52,5.59,5.59,5.59h47.19c3.07,0,5.59-2.52,5.59-5.59v-109.03c0-3.07-2.49-5.59-5.59-5.59h-47.19Z"/>
    <path class="cls-11" d="M685.6,649.14h182.38c6.73,0,10.77,0,13.46,1.12,3.88,1.41,6.94,4.47,8.35,8.35,1.12,2.69,1.12,6.73,1.12,13.46v22.92c0,6.73,0,10.77-1.12,13.46-1.41,3.88-4.47,6.94-8.35,8.35-2.69,1.12-6.73,1.12-13.46,1.12h-182.38c-6.73,0-10.77,0-13.46-1.12-3.88-1.41-6.94-4.47-8.35-8.35-1.12-2.69-1.12-6.73-1.12-13.46v-22.92c0-6.73,0-10.77,1.12-13.46,1.41-3.88,4.47-6.94,8.35-8.35,2.69-1.12,6.73-1.12,13.46-1.12Z"/>
  </g>
  <g class="cls-19">
    <text class="cls-10" transform="translate(756.04 695.27)"><tspan x="0" y="0">RF</tspan></text>
  </g>
  <g class="cls-16">
    <path class="cls-11" d="M789.21,827.87l3.31,12.88-14.09-7.3,10.79-5.58ZM764.23,827.87l10.8,5.58-14.09,7.3,3.3-12.88ZM765.19,826.61h23.07l-11.53,5.97-11.53-5.97ZM776.73,816.43l11.04,8.61h-22.07l11.04-8.61ZM784.68,810.23l3.35,13.04-10.04-7.83,6.69-5.22ZM768.76,810.23l6.7,5.22-10.04,7.83,3.34-13.04ZM770.19,809.35h13.07l-6.54,5.1-6.54-5.1ZM776.73,799.3l6.56,8.49h-13.12l6.56-8.49ZM780.59,794.28l2.87,11.19-5.75-7.45,2.88-3.73ZM772.86,794.28l2.88,3.73-5.75,7.45,2.87-11.19ZM773.96,793.16h5.52l-2.76,3.57-2.77-3.57ZM776.73,779.18l3.18,12.41h-6.37l3.18-12.41ZM776.73,764.15c-2.29,0-4.15,1.86-4.15,4.15,0,1.39.68,2.62,1.73,3.37l-18.26,71.16h4.28l16.41-8.5,16.41,8.5h4.28l-18.26-71.16c1.05-.75,1.73-1.98,1.73-3.37,0-2.29-1.86-4.15-4.15-4.15ZM776.73,752.39c-8.77,0-15.91,7.14-15.91,15.91,0,5.44,2.75,10.26,6.93,13.12l.87-3.42c-2.77-2.32-4.54-5.81-4.54-9.7,0-6.97,5.67-12.64,12.64-12.64s12.64,5.67,12.64,12.64c0,3.89-1.76,7.38-4.54,9.7l.87,3.41c4.18-2.87,6.93-7.68,6.93-13.12,0-8.77-7.14-15.91-15.91-15.91ZM776.73,740.54c-15.31,0-27.77,12.45-27.77,27.76,0,11,6.43,20.53,15.73,25.02l.83-3.23c-7.89-4.08-13.29-12.32-13.29-21.79,0-13.51,10.99-24.5,24.51-24.5s24.51,10.99,24.51,24.5c0,9.48-5.41,17.72-13.3,21.79l.84,3.23c9.3-4.49,15.73-14.02,15.73-25.02,0-15.31-12.46-27.76-27.77-27.76ZM776.79,728.51c-21.88,0-39.68,17.81-39.68,39.69,0,16.06,9.84,30.43,24.66,36.63l.71-3c-13.61-5.69-22.13-18.88-22.13-33.63,0-20.09,16.35-36.44,36.44-36.44s36.44,16.35,36.44,36.44c0,14.8-8.57,28.01-22.24,33.67l.7,3c14.89-6.17,24.78-20.56,24.78-36.67,0-21.88-17.81-39.69-39.69-39.69Z"/>
    <polyline class="cls-8" points="776.79 916.26 776.79 914.26 776.79 879.08 776.79 877.08"/>
    <polygon points="785.19 879.08 776.79 862.28 768.39 879.08 785.19 879.08"/>
    <polygon points="768.39 914.26 776.79 931.06 785.19 914.26 768.39 914.26"/>
    <path class="cls-11" d="M685.6,505.61h182.38c6.73,0,10.77,0,13.46,1.12,3.88,1.41,6.94,4.47,8.35,8.35,1.12,2.69,1.12,6.73,1.12,13.46v22.92c0,6.73,0,10.77-1.12,13.46-1.41,3.88-4.47,6.94-8.35,8.35-2.69,1.12-6.73,1.12-13.46,1.12h-182.38c-6.73,0-10.77,0-13.46-1.12-3.88-1.41-6.94-4.47-8.35-8.35-1.12-2.69-1.12-6.73-1.12-13.46v-22.92c0-6.73,0-10.77,1.12-13.46,1.41-3.88,4.47-6.94,8.35-8.35,2.69-1.12,6.73-1.12,13.46-1.12Z"/>
  </g>
  <g class="cls-13">
    <text class="cls-10" transform="translate(744.2 551.74)"><tspan x="0" y="0">PHY</tspan></text>
  </g>
  <g class="cls-17">
    <path class="cls-11" d="M685.6,436h182.38c6.73,0,10.77,0,13.46,1.12,3.88,1.41,6.94,4.47,8.35,8.35,1.12,2.69,1.12,6.73,1.12,13.46v22.92c0,6.73,0,10.77-1.12,13.46-1.41,3.88-4.47,6.94-8.35,8.35-2.69,1.12-6.73,1.12-13.46,1.12h-182.38c-6.73,0-10.77,0-13.46-1.12-3.88-1.41-6.94-4.47-8.35-8.35-1.12-2.69-1.12-6.73-1.12-13.46v-22.92c0-6.73,0-10.77,1.12-13.46,1.41-3.88,4.47-6.94,8.35-8.35,2.69-1.12,6.73-1.12,13.46-1.12Z"/>
  </g>
  <g class="cls-14">
    <text class="cls-10" transform="translate(740.35 482.12)"><tspan x="0" y="0">MAC</tspan></text>
  </g>
  <g class="cls-52">
    <path class="cls-11" d="M685.6,362.09h182.38c6.73,0,10.77,0,13.46,1.12,3.88,1.41,6.94,4.47,8.35,8.35,1.12,2.69,1.12,6.73,1.12,13.46v22.92c0,6.73,0,10.77-1.12,13.46-1.41,3.88-4.47,6.94-8.35,8.35-2.69,1.12-6.73,1.12-13.46,1.12h-182.38c-6.73,0-10.77,0-13.46-1.12-3.88-1.41-6.94-4.47-8.35-8.35-1.12-2.69-1.12-6.73-1.12-13.46v-22.92c0-6.73,0-10.77,1.12-13.46,1.41-3.88,4.47-6.94,8.35-8.35,2.69-1.12,6.73-1.12,13.46-1.12Z"/>
  </g>
  <g class="cls-53">
    <text class="cls-10" transform="translate(744.8 408.21)"><tspan x="0" y="0">RLC</tspan></text>
  </g>
  <g class="cls-54">
    <path class="cls-11" d="M685.6,288.18h182.38c6.73,0,10.77,0,13.46,1.12,3.88,1.41,6.94,4.47,8.35,8.35,1.12,2.69,1.12,6.73,1.12,13.46v22.92c0,6.73,0,10.77-1.12,13.46-1.41,3.88-4.47,6.94-8.35,8.35-2.69,1.12-6.73,1.12-13.46,1.12h-182.38c-6.73,0-10.77,0-13.46-1.12-3.88-1.41-6.94-4.47-8.35-8.35-1.12-2.69-1.12-6.73-1.12-13.46v-22.92c0-6.73,0-10.77,1.12-13.46,1.41-3.88,4.47-6.94,8.35-8.35,2.69-1.12,6.73-1.12,13.46-1.12Z"/>
  </g>
  <g class="cls-55">
    <text class="cls-10" transform="translate(732.35 334.3)"><tspan x="0" y="0">PDCP</tspan></text>
  </g>
  <g class="cls-56">
    <path class="cls-11" d="M821.27,214.27h50.04c6.73,0,10.77,0,13.46,1.12,3.88,1.41,6.94,4.47,8.35,8.35,1.12,2.69,1.12,6.73,1.12,13.46v22.92c0,6.73,0,10.77-1.12,13.46-1.41,3.88-4.47,6.94-8.35,8.35-2.69,1.12-6.73,1.12-13.46,1.12h-50.04c-6.73,0-10.77,0-13.46-1.12-3.88-1.41-6.94-4.47-8.35-8.35-1.12-2.69-1.12-6.73-1.12-13.46v-22.92c0-6.73,0-10.77,1.12-13.46,1.41-3.88,4.47-6.94,8.35-8.35,2.69-1.12,6.73-1.12,13.46-1.12Z"/>
  </g>
  <g class="cls-57">
    <text class="cls-10" transform="translate(812.31 259.89)"><tspan x="0" y="0">RRC</tspan></text>
  </g>
  <g class="cls-50">
    <path class="cls-11" d="M685.6,101.7h182.38c6.73,0,10.77,0,13.46,1.12,3.88,1.41,6.94,4.47,8.35,8.35,1.12,2.69,1.12,6.73,1.12,13.46v22.92c0,6.73,0,10.77-1.12,13.46-1.41,3.88-4.47,6.94-8.35,8.35-2.69,1.12-6.73,1.12-13.46,1.12h-182.38c-6.73,0-10.77,0-13.46-1.12-3.88-1.41-6.94-4.47-8.35-8.35-1.12-2.69-1.12-6.73-1.12-13.46v-22.92c0-6.73,0-10.77,1.12-13.46,1.41-3.88,4.47-6.94,8.35-8.35,2.69-1.12,6.73-1.12,13.46-1.12Z"/>
  </g>
  <g class="cls-48">
    <text class="cls-10" transform="translate(744.2 147.82)"><tspan x="0" y="0">5GC</tspan></text>
  </g>
  <g class="cls-51">
    <path class="cls-11" d="M695.75,210.93h67.2c6.73,0,10.77,0,13.46,1.12,3.88,1.41,6.94,4.47,8.35,8.35,1.12,2.69,1.12,6.73,1.12,13.46v22.92c0,6.73,0,10.77-1.12,13.46-1.41,3.88-4.47,6.94-8.35,8.35-2.69,1.12-6.73,1.12-13.46,1.12h-67.2c-6.73,0-10.77,0-13.46-1.12-3.88-1.41-6.94-4.47-8.35-8.35-1.12-2.69-1.12-6.73-1.12-13.46v-22.92c0-6.73,0-10.77,1.12-13.46,1.41-3.88,4.47-6.94,8.35-8.35,2.69-1.12,6.73-1.12,13.46-1.12Z"/>
  </g>
  <g class="cls-49">
    <text class="cls-10" transform="translate(686.08 256.56)"><tspan x="0" y="0">SDAP</tspan></text>
  </g>
  <g class="cls-44">
    <text class="cls-78" transform="translate(612.28 58.72)"><tspan x="0" y="0">5G/NR - Split 8</tspan></text>
    <path class="cls-11" d="M1243.31,972.35h50.39v89.37h-50.39v-89.37ZM1264.02,963.58h8.99c.78,0,1.41.63,1.41,1.41s-.63,1.42-1.41,1.42h-8.99c-.78,0-1.41-.64-1.41-1.42s.63-1.41,1.41-1.41ZM1244.91,956.06c-3.07,0-5.59,2.52-5.59,5.59v109.03c0,3.1,2.52,5.59,5.59,5.59h47.19c3.07,0,5.59-2.52,5.59-5.59v-109.03c0-3.07-2.49-5.59-5.59-5.59h-47.19Z"/>
    <path class="cls-11" d="M1177.32,654.69h182.38c6.73,0,10.77,0,13.46,1.12,3.88,1.41,6.94,4.47,8.35,8.35,1.12,2.69,1.12,6.73,1.12,13.46v22.92c0,6.73,0,10.77-1.12,13.46-1.41,3.88-4.47,6.94-8.35,8.35-2.69,1.12-6.73,1.12-13.46,1.12h-182.38c-6.73,0-10.77,0-13.46-1.12-3.88-1.41-6.94-4.47-8.35-8.35-1.12-2.69-1.12-6.73-1.12-13.46v-22.92c0-6.73,0-10.77,1.12-13.46,1.41-3.88,4.47-6.94,8.35-8.35,2.69-1.12,6.73-1.12,13.46-1.12Z"/>
  </g>
  <g class="cls-38">
    <text class="cls-10" transform="translate(1247.76 700.82)"><tspan x="0" y="0">RF</tspan></text>
  </g>
  <g class="cls-39">
    <path class="cls-11" d="M1280.92,833.42l3.31,12.88-14.09-7.3,10.79-5.58ZM1255.94,833.42l10.8,5.58-14.09,7.3,3.3-12.88ZM1256.9,832.16h23.07l-11.53,5.97-11.53-5.97ZM1268.44,821.99l11.04,8.61h-22.07l11.04-8.61ZM1276.4,815.78l3.35,13.04-10.04-7.83,6.69-5.22ZM1260.47,815.78l6.7,5.22-10.04,7.83,3.34-13.04ZM1261.9,814.91h13.07l-6.54,5.1-6.54-5.1ZM1268.44,804.85l6.56,8.49h-13.12l6.56-8.49ZM1272.31,799.84l2.87,11.19-5.75-7.45,2.88-3.73ZM1264.57,799.84l2.88,3.73-5.75,7.45,2.87-11.19ZM1265.67,798.72h5.52l-2.76,3.57-2.77-3.57ZM1268.44,784.74l3.18,12.41h-6.37l3.18-12.41ZM1268.44,769.7c-2.29,0-4.15,1.86-4.15,4.15,0,1.39.68,2.62,1.72,3.37l-18.26,71.16h4.28l16.41-8.5,16.41,8.5h4.28l-18.26-71.16c1.05-.75,1.72-1.98,1.72-3.37,0-2.29-1.86-4.15-4.15-4.15ZM1268.44,757.95c-8.77,0-15.91,7.14-15.91,15.91,0,5.44,2.75,10.26,6.93,13.12l.87-3.42c-2.77-2.32-4.54-5.81-4.54-9.7,0-6.97,5.67-12.64,12.64-12.64s12.65,5.67,12.65,12.64c0,3.89-1.76,7.38-4.54,9.7l.87,3.41c4.18-2.87,6.93-7.68,6.93-13.12,0-8.77-7.14-15.91-15.91-15.91ZM1268.44,746.1c-15.31,0-27.77,12.45-27.77,27.76,0,11,6.43,20.53,15.73,25.02l.83-3.23c-7.89-4.08-13.29-12.32-13.29-21.79,0-13.51,10.99-24.5,24.51-24.5s24.51,10.99,24.51,24.5c0,9.48-5.41,17.72-13.3,21.79l.84,3.23c9.3-4.49,15.73-14.02,15.73-25.02,0-15.31-12.46-27.76-27.77-27.76ZM1268.5,734.06c-21.88,0-39.68,17.81-39.68,39.69,0,16.06,9.84,30.43,24.66,36.63l.71-3c-13.6-5.69-22.13-18.88-22.13-33.63,0-20.09,16.35-36.44,36.44-36.44s36.44,16.35,36.44,36.44c0,14.8-8.57,28.01-22.24,33.67l.7,3c14.89-6.17,24.78-20.56,24.78-36.67,0-21.88-17.81-39.69-39.69-39.69Z"/>
    <polyline class="cls-8" points="1268.5 921.82 1268.5 919.82 1268.5 884.63 1268.5 882.63"/>
    <polygon points="1276.9 884.63 1268.5 867.83 1260.1 884.63 1276.9 884.63"/>
    <polygon points="1260.1 919.82 1268.5 936.62 1276.9 919.82 1260.1 919.82"/>
    <path class="cls-11" d="M1177.32,575.32h182.38c6.73,0,10.77,0,13.46,1.12,3.88,1.41,6.94,4.47,8.35,8.35,1.12,2.69,1.12,6.73,1.12,13.46v22.92c0,6.73,0,10.77-1.12,13.46-1.41,3.88-4.47,6.94-8.35,8.35-2.69,1.12-6.73,1.12-13.46,1.12h-182.38c-6.73,0-10.77,0-13.46-1.12-3.88-1.41-6.94-4.47-8.35-8.35-1.12-2.69-1.12-6.73-1.12-13.46v-22.92c0-6.73,0-10.77,1.12-13.46,1.41-3.88,4.47-6.94,8.35-8.35,2.69-1.12,6.73-1.12,13.46-1.12Z"/>
  </g>
  <g class="cls-40">
    <text class="cls-10" transform="translate(1235.92 621.45)"><tspan x="0" y="0">PHY</tspan></text>
  </g>
  <g class="cls-41">
    <path class="cls-11" d="M1177.32,505.71h182.38c6.73,0,10.77,0,13.46,1.12,3.88,1.41,6.94,4.47,8.35,8.35,1.12,2.69,1.12,6.73,1.12,13.46v22.92c0,6.73,0,10.77-1.12,13.46-1.41,3.88-4.47,6.94-8.35,8.35-2.69,1.12-6.73,1.12-13.46,1.12h-182.38c-6.73,0-10.77,0-13.46-1.12-3.88-1.41-6.94-4.47-8.35-8.35-1.12-2.69-1.12-6.73-1.12-13.46v-22.92c0-6.73,0-10.77,1.12-13.46,1.41-3.88,4.47-6.94,8.35-8.35,2.69-1.12,6.73-1.12,13.46-1.12Z"/>
  </g>
  <g class="cls-42">
    <text class="cls-10" transform="translate(1232.06 551.84)"><tspan x="0" y="0">MAC</tspan></text>
  </g>
  <g class="cls-45">
    <path class="cls-11" d="M1177.32,431.8h182.38c6.73,0,10.77,0,13.46,1.12,3.88,1.41,6.94,4.47,8.35,8.35,1.12,2.69,1.12,6.73,1.12,13.46v22.92c0,6.73,0,10.77-1.12,13.46-1.41,3.88-4.47,6.94-8.35,8.35-2.69,1.12-6.73,1.12-13.46,1.12h-182.38c-6.73,0-10.77,0-13.46-1.12-3.88-1.41-6.94-4.47-8.35-8.35-1.12-2.69-1.12-6.73-1.12-13.46v-22.92c0-6.73,0-10.77,1.12-13.46,1.41-3.88,4.47-6.94,8.35-8.35,2.69-1.12,6.73-1.12,13.46-1.12Z"/>
  </g>
  <g class="cls-46">
    <text class="cls-10" transform="translate(1236.51 477.93)"><tspan x="0" y="0">RLC</tspan></text>
  </g>
  <g class="cls-47">
    <path class="cls-11" d="M1177.32,293.73h182.38c6.73,0,10.77,0,13.46,1.12,3.88,1.41,6.94,4.47,8.35,8.35,1.12,2.69,1.12,6.73,1.12,13.46v22.92c0,6.73,0,10.77-1.12,13.46-1.41,3.88-4.47,6.94-8.35,8.35-2.69,1.12-6.73,1.12-13.46,1.12h-182.38c-6.73,0-10.77,0-13.46-1.12-3.88-1.41-6.94-4.47-8.35-8.35-1.12-2.69-1.12-6.73-1.12-13.46v-22.92c0-6.73,0-10.77,1.12-13.46,1.41-3.88,4.47-6.94,8.35-8.35,2.69-1.12,6.73-1.12,13.46-1.12Z"/>
  </g>
  <g class="cls-43">
    <text class="cls-10" transform="translate(1224.06 339.86)"><tspan x="0" y="0">PDCP</tspan></text>
  </g>
  <g class="cls-64">
    <path class="cls-11" d="M1312.98,219.82h50.04c6.73,0,10.77,0,13.46,1.12,3.88,1.41,6.94,4.47,8.35,8.35,1.12,2.69,1.12,6.73,1.12,13.46v22.92c0,6.73,0,10.77-1.12,13.46-1.41,3.88-4.47,6.94-8.35,8.35-2.69,1.12-6.73,1.12-13.46,1.12h-50.04c-6.73,0-10.77,0-13.46-1.12-3.88-1.41-6.94-4.47-8.35-8.35-1.12-2.69-1.12-6.73-1.12-13.46v-22.92c0-6.73,0-10.77,1.12-13.46,1.41-3.88,4.47-6.94,8.35-8.35,2.69-1.12,6.73-1.12,13.46-1.12Z"/>
  </g>
  <g class="cls-58">
    <text class="cls-10" transform="translate(1304.02 265.45)"><tspan x="0" y="0">RRC</tspan></text>
  </g>
  <g class="cls-59">
    <path class="cls-11" d="M1177.32,107.25h182.38c6.73,0,10.77,0,13.46,1.12,3.88,1.41,6.94,4.47,8.35,8.35,1.12,2.69,1.12,6.73,1.12,13.46v22.92c0,6.73,0,10.77-1.12,13.46-1.41,3.88-4.47,6.94-8.35,8.35-2.69,1.12-6.73,1.12-13.46,1.12h-182.38c-6.73,0-10.77,0-13.46-1.12-3.88-1.41-6.94-4.47-8.35-8.35-1.12-2.69-1.12-6.73-1.12-13.46v-22.92c0-6.73,0-10.77,1.12-13.46,1.41-3.88,4.47-6.94,8.35-8.35,2.69-1.12,6.73-1.12,13.46-1.12Z"/>
  </g>
  <g class="cls-60">
    <text class="cls-10" transform="translate(1235.92 153.38)"><tspan x="0" y="0">5GC</tspan></text>
  </g>
  <g class="cls-61">
    <path class="cls-11" d="M1182.39,219.82h67.2c6.73,0,10.77,0,13.46,1.12,3.88,1.41,6.94,4.47,8.35,8.35,1.12,2.69,1.12,6.73,1.12,13.46v22.92c0,6.73,0,10.77-1.12,13.46-1.41,3.88-4.47,6.94-8.35,8.35-2.69,1.12-6.73,1.12-13.46,1.12h-67.2c-6.73,0-10.77,0-13.46-1.12-3.88-1.41-6.94-4.47-8.35-8.35-1.12-2.69-1.12-6.73-1.12-13.46v-22.92c0-6.73,0-10.77,1.12-13.46,1.41-3.88,4.47-6.94,8.35-8.35,2.69-1.12,6.73-1.12,13.46-1.12Z"/>
  </g>
  <g class="cls-62">
    <text class="cls-10" transform="translate(1172.72 265.45)"><tspan x="0" y="0">SDAP</tspan></text>
  </g>
  <g class="cls-65">
    <text class="cls-78" transform="translate(1103.99 64.27)"><tspan x="0" y="0">5G/NR - Split 2</tspan></text>
    <path class="cls-11" d="M2063.98,548.12h50.39v89.37h-50.39v-89.37ZM2084.7,539.35h8.99c.78,0,1.41.63,1.41,1.41s-.63,1.42-1.41,1.42h-8.99c-.78,0-1.41-.64-1.41-1.42s.63-1.41,1.41-1.41ZM2065.58,531.83c-3.07,0-5.59,2.52-5.59,5.59v109.03c0,3.1,2.52,5.59,5.59,5.59h47.19c3.07,0,5.59-2.52,5.59-5.59v-109.03c0-3.07-2.49-5.59-5.59-5.59h-47.19Z"/>
    <path class="cls-11" d="M1790.7,796.52h182.38c6.73,0,10.77,0,13.46,1.12,3.88,1.41,6.94,4.47,8.35,8.35,1.12,2.69,1.12,6.73,1.12,13.46v22.92c0,6.73,0,10.77-1.12,13.46-1.41,3.88-4.47,6.94-8.35,8.35-2.69,1.12-6.73,1.12-13.46,1.12h-182.38c-6.73,0-10.77,0-13.46-1.12-3.88-1.41-6.94-4.47-8.35-8.35-1.12-2.69-1.12-6.73-1.12-13.46v-22.92c0-6.73,0-10.77,1.12-13.46,1.41-3.88,4.47-6.94,8.35-8.35,2.69-1.12,6.73-1.12,13.46-1.12Z"/>
  </g>
  <g class="cls-66">
    <text class="cls-10" transform="translate(1861.14 842.65)"><tspan x="0" y="0">RF</tspan></text>
  </g>
  <g class="cls-67">
    <path class="cls-11" d="M2101.59,827.87l3.31,12.88-14.09-7.3,10.79-5.58ZM2076.62,827.87l10.79,5.58-14.09,7.3,3.3-12.88ZM2077.58,826.6h23.07l-11.53,5.97-11.53-5.97ZM2089.11,816.43l11.03,8.61h-22.07l11.04-8.61ZM2097.07,810.22l3.35,13.04-10.04-7.83,6.69-5.22ZM2081.14,810.22l6.7,5.22-10.04,7.83,3.34-13.04ZM2082.57,809.35h13.07l-6.53,5.1-6.54-5.1ZM2089.11,799.3l6.56,8.49h-13.12l6.56-8.49ZM2092.98,794.28l2.87,11.19-5.75-7.45,2.88-3.73ZM2085.24,794.28l2.88,3.73-5.75,7.45,2.87-11.19ZM2086.34,793.16h5.52l-2.76,3.57-2.77-3.57ZM2089.11,779.18l3.18,12.41h-6.37l3.18-12.41ZM2089.11,764.14c-2.29,0-4.15,1.86-4.15,4.15,0,1.39.68,2.62,1.72,3.37l-18.25,71.16h4.28l16.41-8.5,16.41,8.5h4.28l-18.26-71.16c1.05-.75,1.72-1.98,1.72-3.37,0-2.29-1.86-4.15-4.15-4.15ZM2089.11,752.39c-8.77,0-15.91,7.14-15.91,15.91,0,5.44,2.75,10.26,6.93,13.12l.87-3.42c-2.77-2.32-4.53-5.81-4.53-9.7,0-6.97,5.67-12.64,12.65-12.64s12.64,5.67,12.64,12.64c0,3.89-1.76,7.38-4.53,9.7l.87,3.41c4.18-2.87,6.93-7.68,6.93-13.12,0-8.77-7.14-15.91-15.91-15.91ZM2089.11,740.54c-15.31,0-27.77,12.45-27.77,27.76,0,11,6.43,20.53,15.73,25.02l.83-3.23c-7.89-4.08-13.29-12.32-13.29-21.79,0-13.51,10.99-24.5,24.51-24.5s24.51,10.99,24.51,24.5c0,9.48-5.41,17.72-13.3,21.79l.84,3.23c9.3-4.49,15.73-14.02,15.73-25.02,0-15.31-12.46-27.76-27.77-27.76ZM2089.17,728.51c-21.88,0-39.68,17.81-39.68,39.69,0,16.06,9.84,30.43,24.66,36.63l.71-3c-13.61-5.69-22.13-18.88-22.13-33.63,0-20.09,16.35-36.44,36.44-36.44s36.44,16.35,36.44,36.44c0,14.8-8.57,28.01-22.24,33.67l.7,3c14.89-6.17,24.78-20.56,24.78-36.67,0-21.88-17.81-39.69-39.69-39.69Z"/>
    <polyline class="cls-8" points="2089.18 709.87 2089.18 707.87 2089.18 672.69 2089.18 670.69"/>
    <polygon points="2097.58 672.69 2089.18 655.89 2080.78 672.69 2097.58 672.69"/>
    <polygon points="2080.78 707.87 2089.18 724.67 2097.58 707.87 2080.78 707.87"/>
    <path class="cls-11" d="M1790.7,717.15h182.38c6.73,0,10.77,0,13.46,1.12,3.88,1.41,6.94,4.47,8.35,8.35,1.12,2.69,1.12,6.73,1.12,13.46v22.92c0,6.73,0,10.77-1.12,13.46-1.41,3.88-4.47,6.94-8.35,8.35-2.69,1.12-6.73,1.12-13.46,1.12h-182.38c-6.73,0-10.77,0-13.46-1.12-3.88-1.41-6.94-4.47-8.35-8.35-1.12-2.69-1.12-6.73-1.12-13.46v-22.92c0-6.73,0-10.77,1.12-13.46,1.41-3.88,4.47-6.94,8.35-8.35,2.69-1.12,6.73-1.12,13.46-1.12Z"/>
  </g>
  <g class="cls-63">
    <text class="cls-10" transform="translate(1809 763.28)"><tspan x="0" y="0">High-PHY</tspan></text>
  </g>
  <g class="cls-28">
    <path class="cls-11" d="M1784.61,514.43h182.38c6.73,0,10.77,0,13.46,1.12,3.88,1.41,6.94,4.47,8.35,8.35,1.12,2.69,1.12,6.73,1.12,13.46v22.92c0,6.73,0,10.77-1.12,13.46-1.41,3.88-4.47,6.94-8.35,8.35-2.69,1.12-6.73,1.12-13.46,1.12h-182.38c-6.73,0-10.77,0-13.46-1.12-3.88-1.41-6.94-4.47-8.35-8.35-1.12-2.69-1.12-6.73-1.12-13.46v-22.92c0-6.73,0-10.77,1.12-13.46,1.41-3.88,4.47-6.94,8.35-8.35,2.69-1.12,6.73-1.12,13.46-1.12Z"/>
  </g>
  <g class="cls-35">
    <text class="cls-10" transform="translate(1839.35 560.56)"><tspan x="0" y="0">MAC</tspan></text>
  </g>
  <g class="cls-30">
    <path class="cls-11" d="M1784.61,440.52h182.38c6.73,0,10.77,0,13.46,1.12,3.88,1.41,6.94,4.47,8.35,8.35,1.12,2.69,1.12,6.73,1.12,13.46v22.92c0,6.73,0,10.77-1.12,13.46-1.41,3.88-4.47,6.94-8.35,8.35-2.69,1.12-6.73,1.12-13.46,1.12h-182.38c-6.73,0-10.77,0-13.46-1.12-3.88-1.41-6.94-4.47-8.35-8.35-1.12-2.69-1.12-6.73-1.12-13.46v-22.92c0-6.73,0-10.77,1.12-13.46,1.41-3.88,4.47-6.94,8.35-8.35,2.69-1.12,6.73-1.12,13.46-1.12Z"/>
  </g>
  <g class="cls-34">
    <text class="cls-10" transform="translate(1843.8 486.65)"><tspan x="0" y="0">RLC</tspan></text>
  </g>
  <g class="cls-32">
    <path class="cls-11" d="M1784.61,286.96h182.38c6.73,0,10.77,0,13.46,1.12,3.88,1.41,6.94,4.47,8.35,8.35,1.12,2.69,1.12,6.73,1.12,13.46v22.92c0,6.73,0,10.77-1.12,13.46-1.41,3.88-4.47,6.94-8.35,8.35-2.69,1.12-6.73,1.12-13.46,1.12h-182.38c-6.73,0-10.77,0-13.46-1.12-3.88-1.41-6.94-4.47-8.35-8.35-1.12-2.69-1.12-6.73-1.12-13.46v-22.92c0-6.73,0-10.77,1.12-13.46,1.41-3.88,4.47-6.94,8.35-8.35,2.69-1.12,6.73-1.12,13.46-1.12Z"/>
  </g>
  <g class="cls-29">
    <text class="cls-10" transform="translate(1831.35 333.09)"><tspan x="0" y="0">PDCP</tspan></text>
  </g>
  <g class="cls-33">
    <path class="cls-11" d="M1920.28,213.05h50.04c6.73,0,10.77,0,13.46,1.12,3.88,1.41,6.94,4.47,8.35,8.35,1.12,2.69,1.12,6.73,1.12,13.46v22.92c0,6.73,0,10.77-1.12,13.46-1.41,3.88-4.47,6.94-8.35,8.35-2.69,1.12-6.73,1.12-13.46,1.12h-50.04c-6.73,0-10.77,0-13.46-1.12-3.88-1.41-6.94-4.47-8.35-8.35-1.12-2.69-1.12-6.73-1.12-13.46v-22.92c0-6.73,0-10.77,1.12-13.46,1.41-3.88,4.47-6.94,8.35-8.35,2.69-1.12,6.73-1.12,13.46-1.12Z"/>
  </g>
  <g class="cls-31">
    <text class="cls-10" transform="translate(1911.32 258.68)"><tspan x="0" y="0">RRC</tspan></text>
  </g>
  <g class="cls-36">
    <path class="cls-11" d="M1784.61,100.48h182.38c6.73,0,10.77,0,13.46,1.12,3.88,1.41,6.94,4.47,8.35,8.35,1.12,2.69,1.12,6.73,1.12,13.46v22.92c0,6.73,0,10.77-1.12,13.46-1.41,3.88-4.47,6.94-8.35,8.35-2.69,1.12-6.73,1.12-13.46,1.12h-182.38c-6.73,0-10.77,0-13.46-1.12-3.88-1.41-6.94-4.47-8.35-8.35-1.12-2.69-1.12-6.73-1.12-13.46v-22.92c0-6.73,0-10.77,1.12-13.46,1.41-3.88,4.47-6.94,8.35-8.35,2.69-1.12,6.73-1.12,13.46-1.12Z"/>
  </g>
  <g class="cls-37">
    <text class="cls-10" transform="translate(1843.21 146.61)"><tspan x="0" y="0">5GC</tspan></text>
  </g>
  <g class="cls-24">
    <path class="cls-11" d="M1783.28,210.93h67.2c6.73,0,10.77,0,13.46,1.12,3.88,1.41,6.94,4.47,8.35,8.35,1.12,2.69,1.12,6.73,1.12,13.46v22.92c0,6.73,0,10.77-1.12,13.46-1.41,3.88-4.47,6.94-8.35,8.35-2.69,1.12-6.73,1.12-13.46,1.12h-67.2c-6.73,0-10.77,0-13.46-1.12-3.88-1.41-6.94-4.47-8.35-8.35-1.12-2.69-1.12-6.73-1.12-13.46v-22.92c0-6.73,0-10.77,1.12-13.46,1.41-3.88,4.47-6.94,8.35-8.35,2.69-1.12,6.73-1.12,13.46-1.12Z"/>
  </g>
  <g class="cls-23">
    <text class="cls-10" transform="translate(1773.61 256.56)"><tspan x="0" y="0">SDAP</tspan></text>
  </g>
  <g class="cls-25">
    <text class="cls-78" transform="translate(1595.7 59.93)"><tspan x="0" y="0">5G/NR - Split 7.x &amp; Split 2</tspan></text>
    <text class="cls-78" transform="translate(1650.1 298.54)"><tspan x="0" y="0">CU</tspan></text>
    <text class="cls-78" transform="translate(1650.1 557.6)"><tspan x="0" y="0">DU</tspan></text>
    <text class="cls-78" transform="translate(1641.75 815.46)"><tspan x="0" y="0">RU</tspan></text>
    <path class="cls-11" d="M1784.61,591.68h182.38c6.73,0,10.77,0,13.46,1.12,3.88,1.41,6.94,4.47,8.35,8.35,1.12,2.69,1.12,6.73,1.12,13.46v22.92c0,6.73,0,10.77-1.12,13.46-1.41,3.88-4.47,6.94-8.35,8.35-2.69,1.12-6.73,1.12-13.46,1.12h-182.38c-6.73,0-10.77,0-13.46-1.12-3.88-1.41-6.94-4.47-8.35-8.35-1.12-2.69-1.12-6.73-1.12-13.46v-22.92c0-6.73,0-10.77,1.12-13.46,1.41-3.88,4.47-6.94,8.35-8.35,2.69-1.12,6.73-1.12,13.46-1.12Z"/>
  </g>
  <g class="cls-27">
    <text class="cls-10" transform="translate(1802.91 637.81)"><tspan x="0" y="0">High-PHY</tspan></text>
  </g>
  <g class="cls-26">
    <text class="cls-78" transform="translate(1047.28 298.54)"><tspan x="0" y="0">CU</tspan></text>
    <text class="cls-78" transform="translate(1117.6 639.86) rotate(-90)"><tspan x="0" y="0">DU/RU</tspan></text>
    <text class="cls-78" transform="translate(638.82 472.96) rotate(-90)"><tspan x="0" y="0">DU/RU</tspan></text>
    <text class="cls-78" transform="translate(142.27 485.18) rotate(-90)"><tspan x="0" y="0">BBU</tspan></text>
    <text class="cls-78" transform="translate(89.51 701.13)"><tspan x="0" y="0">RU</tspan></text>
    <text class="cls-78" transform="translate(559.41 706.69)"><tspan x="0" y="0">RU</tspan></text>
    <line class="cls-4" x1="225.76" y1="281.75" x2="225.76" y2="172.34"/>
    <line class="cls-4" x1="358.57" y1="212.4" x2="358.57" y2="172.34"/>
    <text class="cls-78" transform="translate(259.67 209.97)"><tspan x="0" y="0">S1</tspan></text>
    <line class="cls-4" x1="724.9" y1="212.4" x2="724.9" y2="162.8"/>
    <line class="cls-4" x1="847.29" y1="213.4" x2="847.29" y2="173.34"/>
    <text class="cls-79" transform="translate(755.98 207.29)"><tspan x="0" y="0">NG</tspan></text>
    <line class="cls-4" x1="1213.49" y1="224.2" x2="1213.49" y2="174.6"/>
    <line class="cls-4" x1="1336.02" y1="217.79" x2="1336.02" y2="177.73"/>
    <text class="cls-79" transform="translate(1244.7 211.68)"><tspan x="0" y="0">NG</tspan></text>
    <line class="cls-4" x1="1824.75" y1="213.46" x2="1824.75" y2="163.87"/>
    <line class="cls-4" x1="1947.15" y1="214.46" x2="1947.15" y2="174.4"/>
    <text class="cls-79" transform="translate(1855.83 208.35)"><tspan x="0" y="0">NG</tspan></text>
    <line class="cls-6" x1="289.07" y1="649.33" x2="289.07" y2="580.55"/>
    <line class="cls-6" x1="772.83" y1="646.15" x2="772.83" y2="577.37"/>
    <line class="cls-6" x1="1875.8" y1="718.32" x2="1875.8" y2="662.23"/>
    <line class="cls-3" x1="1875.8" y1="440.69" x2="1875.8" y2="352.42"/>
    <line class="cls-3" x1="1268.5" y1="443.89" x2="1268.5" y2="355.63"/>
    <text class="cls-79" transform="translate(1285.81 410.01)"><tspan x="0" y="0">F1</tspan></text>
    <text class="cls-79" transform="translate(1887.96 411.39)"><tspan x="0" y="0">F1</tspan></text>
    <line class="cls-2" x1="1706.21" y1="930.93" x2="1647.84" y2="930.93"/>
    <text class="cls-78" transform="translate(1727.19 945.83)"><tspan x="0" y="0">F</tspan><tspan class="cls-81" x="27.55" y="0">r</tspan><tspan class="cls-9" x="42.72" y="0">onthaul</tspan></text>
    <line class="cls-5" x1="1709.55" y1="984.61" x2="1651.17" y2="984.61"/>
    <text class="cls-78" transform="translate(1730.52 999.52)"><tspan x="0" y="0">Midhaul</tspan></text>
    <line class="cls-7" x1="1708.44" y1="1040.38" x2="1650.07" y2="1040.38"/>
    <text class="cls-78" transform="translate(1729.41 1055.28)"><tspan x="0" y="0">Midhaul</tspan></text>
  </g>
</svg>