<?xml version="1.0" encoding="UTF-8"?>
<svg id="Ebene_1" xmlns="http://www.w3.org/2000/svg" xmlns:xlink="http://www.w3.org/1999/xlink" version="1.1" viewBox="0 0 976 372.5">
  <!-- Generator: Adobe Illustrator 29.4.0, SVG Export Plug-In . SVG Version: 2.1.0 Build 152)  -->
  <defs>
    <style>
      .st0, .st1, .st2, .st3 {
        fill: none;
      }

      .st1 {
        stroke: #b0b0b0;
      }

      .st1, .st4, .st5, .st3 {
        stroke-linejoin: round;
      }

      .st1, .st5, .st2 {
        stroke-width: .8px;
      }

      .st1, .st2 {
        stroke-linecap: square;
      }

      .st6 {
        clip-path: url(#clippath-11);
      }

      .st7 {
        clip-path: url(#clippath-10);
      }

      .st8 {
        clip-path: url(#clippath-15);
      }

      .st9 {
        clip-path: url(#clippath-13);
      }

      .st10 {
        clip-path: url(#clippath-14);
      }

      .st11 {
        clip-path: url(#clippath-12);
      }

      .st12 {
        clip-path: url(#clippath-1);
      }

      .st13 {
        clip-path: url(#clippath-3);
      }

      .st14 {
        clip-path: url(#clippath-4);
      }

      .st15 {
        clip-path: url(#clippath-2);
      }

      .st16 {
        clip-path: url(#clippath-7);
      }

      .st17 {
        clip-path: url(#clippath-6);
      }

      .st18 {
        clip-path: url(#clippath-9);
      }

      .st19 {
        clip-path: url(#clippath-8);
      }

      .st20 {
        clip-path: url(#clippath-5);
      }

      .st4 {
        fill: #1f77b4;
        stroke: #1f77b4;
      }

      .st21 {
        fill: #fff;
      }

      .st5, .st2, .st3 {
        stroke: #000;
      }

      .st3 {
        stroke-dasharray: 3.7 1.6;
      }

      .st22 {
        clip-path: url(#clippath);
      }
    </style>
    <clipPath id="clippath">
      <rect class="st0" x="343.1" y="3.5" width="332.6" height="332.6"/>
    </clipPath>
    <clipPath id="clippath-1">
      <rect class="st0" x="343.1" y="3.5" width="332.6" height="332.6"/>
    </clipPath>
    <clipPath id="clippath-2">
      <rect class="st0" x="343.1" y="3.5" width="332.6" height="332.6"/>
    </clipPath>
    <clipPath id="clippath-3">
      <rect class="st0" x="343.1" y="3.5" width="332.6" height="332.6"/>
    </clipPath>
    <clipPath id="clippath-4">
      <rect class="st0" x="343.1" y="3.5" width="332.6" height="332.6"/>
    </clipPath>
    <clipPath id="clippath-5">
      <rect class="st0" x="343.1" y="3.5" width="332.6" height="332.6"/>
    </clipPath>
    <clipPath id="clippath-6">
      <rect class="st0" x="343.1" y="3.5" width="332.6" height="332.6"/>
    </clipPath>
    <clipPath id="clippath-7">
      <rect class="st0" x="343.1" y="3.5" width="332.6" height="332.6"/>
    </clipPath>
    <clipPath id="clippath-8">
      <rect class="st0" x="343.1" y="3.5" width="332.6" height="332.6"/>
    </clipPath>
    <clipPath id="clippath-9">
      <rect class="st0" x="343.1" y="3.5" width="332.6" height="332.6"/>
    </clipPath>
    <clipPath id="clippath-10">
      <rect class="st0" x="343.1" y="3.5" width="332.6" height="332.6"/>
    </clipPath>
    <clipPath id="clippath-11">
      <rect class="st0" x="343.1" y="3.5" width="332.6" height="332.6"/>
    </clipPath>
    <clipPath id="clippath-12">
      <rect class="st0" x="343.1" y="3.5" width="332.6" height="332.6"/>
    </clipPath>
    <clipPath id="clippath-13">
      <rect class="st0" x="343.1" y="3.5" width="332.6" height="332.6"/>
    </clipPath>
    <clipPath id="clippath-14">
      <rect class="st0" x="343.1" y="3.5" width="332.6" height="332.6"/>
    </clipPath>
    <clipPath id="clippath-15">
      <rect class="st0" x="343.1" y="3.5" width="332.6" height="332.6"/>
    </clipPath>
  </defs>
  <g id="figure_1">
    <g id="patch_1">
      <path class="st21" d="M288,383.7h432V-48.3h-432v432Z"/>
    </g>
    <g id="axes_1">
      <g id="patch_2">
        <path class="st21" d="M343.1,336.1h332.6V3.5h-332.6v332.6Z"/>
      </g>
      <g id="PathCollection_1">
        <g class="st22">
          <g>
            <path id="md31f041dd0" class="st4" d="M620.3,175.9c1.6,0,3.2-.6,4.3-1.8,1.1-1.1,1.8-2.7,1.8-4.3s-.6-3.2-1.8-4.3c-1.1-1.1-2.7-1.8-4.3-1.8s-3.2.6-4.3,1.8c-1.1,1.1-1.8,2.7-1.8,4.3s.6,3.2,1.8,4.3c1.1,1.1,2.7,1.8,4.3,1.8Z"/>
            <path id="md31f041dd01" data-name="md31f041dd0" class="st4" d="M398.5,175.9c1.6,0,3.2-.6,4.3-1.8,1.1-1.1,1.8-2.7,1.8-4.3s-.6-3.2-1.8-4.3c-1.1-1.1-2.7-1.8-4.3-1.8s-3.2.6-4.3,1.8c-1.1,1.1-1.8,2.7-1.8,4.3s.6,3.2,1.8,4.3c1.1,1.1,2.7,1.8,4.3,1.8Z"/>
          </g>
        </g>
      </g>
      <g id="matplotlib.axis_1">
        <g id="xtick_1">
          <g id="line2d_1">
            <g class="st12">
              <path class="st1" d="M343.1,336.1V3.5"/>
            </g>
          </g>
          <g id="line2d_2">
            <path id="mdad89dec48" class="st5" d="M343.1,336.1v3.5"/>
          </g>
          <g id="text_1">
            <g>
              <path id="DejaVuSans-2212" d="M332,347.2h6.3v.8h-6.3v-.8Z"/>
              <path id="DejaVuSans-31" d="M340.6,349.9h1.6v-5.6l-1.8.4v-.9l1.7-.4h1v6.5h1.6v.8h-4.2v-.8Z"/>
              <path id="DejaVuSans-2e" d="M346.7,349.5h1v1.2h-1v-1.2Z"/>
              <path id="DejaVuSans-35" d="M349.9,343.4h3.9v.8h-3v1.8c.1,0,.3,0,.4-.1.1,0,.3,0,.4,0,.8,0,1.5.2,1.9.7.5.4.7,1,.7,1.8s-.2,1.4-.7,1.8c-.5.4-1.2.7-2.1.7s-.6,0-.9,0c-.3,0-.6-.1-1-.2v-1c.3.2.6.3.9.4s.6.1,1,.1c.6,0,1-.1,1.3-.4.3-.3.5-.7.5-1.2s-.2-.9-.5-1.2c-.3-.3-.8-.4-1.3-.4s-.5,0-.8,0c-.3,0-.5.1-.8.3v-3.7Z"/>
            </g>
          </g>
        </g>
        <g id="xtick_2">
          <g id="line2d_3">
            <g class="st15">
              <path class="st1" d="M398.5,336.1V3.5"/>
            </g>
          </g>
          <g id="line2d_4">
            <path id="mdad89dec481" data-name="mdad89dec48" class="st5" d="M398.5,336.1v3.5"/>
          </g>
          <g id="text_2">
            <g>
              <path id="DejaVuSans-22121" data-name="DejaVuSans-2212" d="M387.4,347.2h6.3v.8h-6.3v-.8Z"/>
              <path id="DejaVuSans-311" data-name="DejaVuSans-31" d="M396,349.9h1.6v-5.6l-1.8.4v-.9l1.7-.4h1v6.5h1.6v.8h-4.2v-.8Z"/>
              <path id="DejaVuSans-2e1" data-name="DejaVuSans-2e" d="M402.2,349.5h1v1.2h-1v-1.2Z"/>
              <path id="DejaVuSans-30" d="M407.5,344.1c-.5,0-.9.3-1.1.8-.3.5-.4,1.3-.4,2.3s.1,1.7.4,2.2c.3.5.6.8,1.1.8s.9-.3,1.2-.8c.3-.5.4-1.2.4-2.2s-.1-1.8-.4-2.3c-.3-.5-.6-.8-1.2-.8ZM407.5,343.3c.8,0,1.4.3,1.9,1,.4.6.6,1.6.6,2.8s-.2,2.2-.6,2.8c-.4.6-1.1,1-1.9,1s-1.4-.3-1.9-1c-.4-.6-.6-1.6-.6-2.8s.2-2.2.6-2.8c.4-.6,1.1-1,1.9-1Z"/>
            </g>
          </g>
        </g>
        <g id="xtick_3">
          <g id="line2d_5">
            <g class="st13">
              <path class="st1" d="M454,336.1V3.5"/>
            </g>
          </g>
          <g id="line2d_6">
            <path id="mdad89dec482" data-name="mdad89dec48" class="st5" d="M454,336.1v3.5"/>
          </g>
          <g id="text_3">
            <g>
              <path id="DejaVuSans-22122" data-name="DejaVuSans-2212" d="M442.9,347.2h6.3v.8h-6.3v-.8Z"/>
              <path id="DejaVuSans-301" data-name="DejaVuSans-30" d="M453.4,344.1c-.5,0-.9.3-1.1.8-.3.5-.4,1.3-.4,2.3s.1,1.7.4,2.2c.3.5.6.8,1.1.8s.9-.3,1.2-.8c.3-.5.4-1.2.4-2.2s-.1-1.8-.4-2.3c-.3-.5-.6-.8-1.2-.8ZM453.4,343.3c.8,0,1.4.3,1.9,1,.4.6.6,1.6.6,2.8s-.2,2.2-.6,2.8c-.4.6-1.1,1-1.9,1s-1.4-.3-1.9-1c-.4-.6-.6-1.6-.6-2.8s.2-2.2.6-2.8c.4-.6,1.1-1,1.9-1Z"/>
              <path id="DejaVuSans-2e2" data-name="DejaVuSans-2e" d="M457.6,349.5h1v1.2h-1v-1.2Z"/>
              <path id="DejaVuSans-351" data-name="DejaVuSans-35" d="M460.8,343.4h3.9v.8h-3v1.8c.1,0,.3,0,.4-.1.1,0,.3,0,.4,0,.8,0,1.5.2,1.9.7.5.4.7,1,.7,1.8s-.2,1.4-.7,1.8c-.5.4-1.2.7-2.1.7s-.6,0-.9,0c-.3,0-.6-.1-1-.2v-1c.3.2.6.3.9.4s.6.1,1,.1c.6,0,1-.1,1.3-.4.3-.3.5-.7.5-1.2s-.2-.9-.5-1.2c-.3-.3-.8-.4-1.3-.4s-.5,0-.8,0c-.3,0-.5.1-.8.3v-3.7Z"/>
            </g>
          </g>
        </g>
        <g id="xtick_4">
          <g id="line2d_7">
            <g class="st14">
              <path class="st1" d="M509.4,336.1V3.5"/>
            </g>
          </g>
          <g id="line2d_8">
            <path id="mdad89dec483" data-name="mdad89dec48" class="st5" d="M509.4,336.1v3.5"/>
          </g>
          <g id="text_4">
            <g>
              <path id="DejaVuSans-302" data-name="DejaVuSans-30" d="M504.6,344.1c-.5,0-.9.3-1.1.8-.3.5-.4,1.3-.4,2.3s.1,1.7.4,2.2c.3.5.6.8,1.1.8s.9-.3,1.2-.8c.3-.5.4-1.2.4-2.2s-.1-1.8-.4-2.3c-.3-.5-.6-.8-1.2-.8ZM504.6,343.3c.8,0,1.4.3,1.9,1,.4.6.6,1.6.6,2.8s-.2,2.2-.6,2.8c-.4.6-1.1,1-1.9,1s-1.4-.3-1.9-1c-.4-.6-.6-1.6-.6-2.8s.2-2.2.6-2.8c.4-.6,1.1-1,1.9-1Z"/>
              <path id="DejaVuSans-2e3" data-name="DejaVuSans-2e" d="M508.9,349.5h1v1.2h-1v-1.2Z"/>
              <path id="DejaVuSans-303" data-name="DejaVuSans-30" d="M514.2,344.1c-.5,0-.9.3-1.1.8-.3.5-.4,1.3-.4,2.3s.1,1.7.4,2.2c.3.5.6.8,1.1.8s.9-.3,1.2-.8c.3-.5.4-1.2.4-2.2s-.1-1.8-.4-2.3c-.3-.5-.6-.8-1.2-.8ZM514.2,343.3c.8,0,1.4.3,1.9,1,.4.6.6,1.6.6,2.8s-.2,2.2-.6,2.8c-.4.6-1.1,1-1.9,1s-1.4-.3-1.9-1c-.4-.6-.6-1.6-.6-2.8s.2-2.2.6-2.8c.4-.6,1.1-1,1.9-1Z"/>
            </g>
          </g>
        </g>
        <g id="xtick_5">
          <g id="line2d_9">
            <g class="st20">
              <path class="st1" d="M564.8,336.1V3.5"/>
            </g>
          </g>
          <g id="line2d_10">
            <path id="mdad89dec484" data-name="mdad89dec48" class="st5" d="M564.8,336.1v3.5"/>
          </g>
          <g id="text_5">
            <g>
              <path id="DejaVuSans-304" data-name="DejaVuSans-30" d="M560.1,344.1c-.5,0-.9.3-1.1.8-.3.5-.4,1.3-.4,2.3s.1,1.7.4,2.2c.3.5.6.8,1.1.8s.9-.3,1.2-.8c.3-.5.4-1.2.4-2.2s-.1-1.8-.4-2.3c-.3-.5-.6-.8-1.2-.8ZM560.1,343.3c.8,0,1.4.3,1.9,1,.4.6.6,1.6.6,2.8s-.2,2.2-.6,2.8c-.4.6-1.1,1-1.9,1s-1.4-.3-1.9-1c-.4-.6-.6-1.6-.6-2.8s.2-2.2.6-2.8c.4-.6,1.1-1,1.9-1Z"/>
              <path id="DejaVuSans-2e4" data-name="DejaVuSans-2e" d="M564.3,349.5h1v1.2h-1v-1.2Z"/>
              <path id="DejaVuSans-352" data-name="DejaVuSans-35" d="M567.5,343.4h3.9v.8h-3v1.8c.1,0,.3,0,.4-.1.1,0,.3,0,.4,0,.8,0,1.5.2,1.9.7.5.4.7,1,.7,1.8s-.2,1.4-.7,1.8c-.5.4-1.2.7-2.1.7s-.6,0-.9,0c-.3,0-.6-.1-1-.2v-1c.3.2.6.3.9.4s.6.1,1,.1c.6,0,1-.1,1.3-.4.3-.3.5-.7.5-1.2s-.2-.9-.5-1.2c-.3-.3-.8-.4-1.3-.4s-.5,0-.8,0c-.3,0-.5.1-.8.3v-3.7Z"/>
            </g>
          </g>
        </g>
        <g id="xtick_6">
          <g id="line2d_11">
            <g class="st17">
              <path class="st1" d="M620.3,336.1V3.5"/>
            </g>
          </g>
          <g id="line2d_12">
            <path id="mdad89dec485" data-name="mdad89dec48" class="st5" d="M620.3,336.1v3.5"/>
          </g>
          <g id="text_6">
            <g>
              <path id="DejaVuSans-312" data-name="DejaVuSans-31" d="M613.6,349.9h1.6v-5.6l-1.8.4v-.9l1.7-.4h1v6.5h1.6v.8h-4.2v-.8Z"/>
              <path id="DejaVuSans-2e5" data-name="DejaVuSans-2e" d="M619.8,349.5h1v1.2h-1v-1.2Z"/>
              <path id="DejaVuSans-305" data-name="DejaVuSans-30" d="M625,344.1c-.5,0-.9.3-1.1.8-.3.5-.4,1.3-.4,2.3s.1,1.7.4,2.2c.3.5.6.8,1.1.8s.9-.3,1.2-.8c.3-.5.4-1.2.4-2.2s-.1-1.8-.4-2.3c-.3-.5-.6-.8-1.2-.8ZM625,343.3c.8,0,1.4.3,1.9,1,.4.6.6,1.6.6,2.8s-.2,2.2-.6,2.8c-.4.6-1.1,1-1.9,1s-1.4-.3-1.9-1c-.4-.6-.6-1.6-.6-2.8s.2-2.2.6-2.8c.4-.6,1.1-1,1.9-1Z"/>
            </g>
          </g>
        </g>
        <g id="xtick_7">
          <g id="line2d_13">
            <g class="st16">
              <path class="st1" d="M675.7,336.1V3.5"/>
            </g>
          </g>
          <g id="line2d_14">
            <path id="mdad89dec486" data-name="mdad89dec48" class="st5" d="M675.7,336.1v3.5"/>
          </g>
          <g id="text_7">
            <g>
              <path id="DejaVuSans-313" data-name="DejaVuSans-31" d="M669,349.9h1.6v-5.6l-1.8.4v-.9l1.7-.4h1v6.5h1.6v.8h-4.2v-.8Z"/>
              <path id="DejaVuSans-2e6" data-name="DejaVuSans-2e" d="M675.2,349.5h1v1.2h-1v-1.2Z"/>
              <path id="DejaVuSans-353" data-name="DejaVuSans-35" d="M678.4,343.4h3.9v.8h-3v1.8c.1,0,.3,0,.4-.1.1,0,.3,0,.4,0,.8,0,1.5.2,1.9.7.5.4.7,1,.7,1.8s-.2,1.4-.7,1.8c-.5.4-1.2.7-2.1.7s-.6,0-.9,0c-.3,0-.6-.1-1-.2v-1c.3.2.6.3.9.4s.6.1,1,.1c.6,0,1-.1,1.3-.4.3-.3.5-.7.5-1.2s-.2-.9-.5-1.2c-.3-.3-.8-.4-1.3-.4s-.5,0-.8,0c-.3,0-.5.1-.8.3v-3.7Z"/>
            </g>
          </g>
        </g>
        <g id="text_8">
          <g>
            <path id="DejaVuSans-49" d="M481.9,357.1h1v7.3h-1v-7.3Z"/>
            <path id="DejaVuSans-6e" d="M489.3,361.1v3.3h-.9v-3.3c0-.5-.1-.9-.3-1.2-.2-.3-.5-.4-.9-.4s-.9.2-1.1.5c-.3.3-.4.7-.4,1.3v3.1h-.9v-5.5h.9v.9c.2-.3.5-.6.8-.7.3-.2.6-.2,1-.2.6,0,1.1.2,1.4.6.3.4.5,1,.5,1.7Z"/>
            <path id="DejaVuSans-2d" d="M490.7,361.3h2.6v.8h-2.6v-.8Z"/>
            <path id="DejaVuSans-70" d="M495.6,363.6v2.9h-.9v-7.5h.9v.8c.2-.3.4-.6.7-.7.3-.2.6-.2,1-.2.7,0,1.2.3,1.6.8.4.5.6,1.2.6,2.1s-.2,1.6-.6,2.1c-.4.5-1,.8-1.6.8s-.7,0-1-.2c-.3-.2-.5-.4-.7-.7ZM498.7,361.7c0-.7-.1-1.2-.4-1.6s-.6-.6-1.1-.6-.9.2-1.1.6-.4.9-.4,1.6.1,1.2.4,1.6c.3.4.6.6,1.1.6s.8-.2,1.1-.6c.3-.4.4-.9.4-1.6Z"/>
            <path id="DejaVuSans-68" d="M505.6,361.1v3.3h-.9v-3.3c0-.5-.1-.9-.3-1.2-.2-.3-.5-.4-.9-.4s-.9.2-1.1.5c-.3.3-.4.7-.4,1.3v3.1h-.9v-7.6h.9v3c.2-.3.5-.6.8-.7.3-.2.6-.2,1-.2.6,0,1.1.2,1.4.6.3.4.5,1,.5,1.7Z"/>
            <path id="DejaVuSans-61" d="M509.9,361.7c-.7,0-1.2,0-1.5.2s-.4.4-.4.9.1.6.3.8c.2.2.5.3.9.3s.9-.2,1.2-.5.5-.8.5-1.4v-.2h-.9ZM511.7,361.3v3.1h-.9v-.8c-.2.3-.5.6-.8.7-.3.2-.7.2-1.1.2s-1-.2-1.3-.5c-.3-.3-.5-.7-.5-1.3s.2-1.1.6-1.4c.4-.3,1-.5,1.8-.5h1.3c0-.5-.1-.8-.4-1s-.7-.3-1.1-.3-.6,0-.9.1c-.3,0-.6.2-.9.3v-.8c.3-.1.6-.2,1-.3.3,0,.6,0,.9,0,.8,0,1.4.2,1.8.6.4.4.6,1,.6,1.9Z"/>
            <path id="DejaVuSans-73" d="M517,359.1v.9c-.3-.1-.5-.2-.8-.3-.3,0-.6,0-.9,0-.4,0-.8,0-1,.2-.2.1-.3.3-.3.6s0,.4.2.5.5.2,1,.3h.3c.6.2,1.1.4,1.4.6s.4.6.4,1-.2.9-.6,1.2c-.4.3-1,.4-1.7.4s-.6,0-.9,0c-.3,0-.7-.1-1-.3v-.9c.3.2.7.3,1,.4.3,0,.6.1,1,.1s.7,0,1-.2c.2-.1.3-.3.3-.6s0-.4-.2-.6c-.2-.1-.5-.3-1.1-.4h-.3c-.6-.2-1-.4-1.2-.6-.2-.2-.4-.6-.4-1s.2-.9.5-1.2c.4-.3.9-.4,1.6-.4s.6,0,.9,0c.3,0,.6.1.8.2Z"/>
            <path id="DejaVuSans-65" d="M523.4,361.4v.4h-4.1c0,.6.2,1.1.6,1.4.3.3.8.5,1.4.5s.7,0,1-.1.6-.2,1-.4v.9c-.3.1-.7.2-1,.3s-.7.1-1,.1c-.9,0-1.6-.3-2.1-.8-.5-.5-.8-1.2-.8-2.1s.2-1.6.7-2.1c.5-.5,1.1-.8,2-.8s1.3.2,1.7.7c.4.5.6,1.1.6,1.9ZM522.5,361.2c0-.5-.1-.9-.4-1.2-.3-.3-.6-.4-1.1-.4s-.9.1-1.2.4-.5.7-.5,1.2h3.2Z"/>
            <path id="DejaVuSans-20" d="M524,364.4"/>
            <path id="DejaVuSans-28" d="M530.2,356.8c-.4.7-.8,1.5-1,2.2-.2.7-.3,1.5-.3,2.2s.1,1.5.3,2.2.5,1.5,1,2.2h-.8c-.5-.8-.9-1.5-1.1-2.3-.2-.7-.4-1.5-.4-2.2s.1-1.5.4-2.2c.2-.7.6-1.5,1.1-2.3h.8Z"/>
            <path id="DejaVuSans-491" data-name="DejaVuSans-49" d="M532,357.1h1v7.3h-1v-7.3Z"/>
            <path id="DejaVuSans-29" d="M534.8,356.8h.8c.5.8.9,1.5,1.1,2.3.2.7.4,1.5.4,2.2s-.1,1.5-.4,2.2c-.2.7-.6,1.5-1.1,2.3h-.8c.4-.7.8-1.5,1-2.2.2-.7.3-1.5.3-2.2s-.1-1.5-.3-2.2c-.2-.7-.5-1.5-1-2.2Z"/>
          </g>
        </g>
      </g>
      <g id="matplotlib.axis_2">
        <g id="ytick_1">
          <g id="line2d_15">
            <g class="st19">
              <path class="st1" d="M343.1,336.1h332.6"/>
            </g>
          </g>
          <g id="line2d_16">
            <path id="m319c22e023" class="st5" d="M343.1,336.1h-3.5"/>
          </g>
          <g id="text_9">
            <g>
              <path id="DejaVuSans-22123" data-name="DejaVuSans-2212" d="M312.9,336.4h6.3v.8h-6.3v-.8Z"/>
              <path id="DejaVuSans-314" data-name="DejaVuSans-31" d="M321.4,339.1h1.6v-5.6l-1.8.4v-.9l1.7-.4h1v6.5h1.6v.8h-4.2v-.8Z"/>
              <path id="DejaVuSans-2e7" data-name="DejaVuSans-2e" d="M327.6,338.7h1v1.2h-1v-1.2Z"/>
              <path id="DejaVuSans-354" data-name="DejaVuSans-35" d="M330.8,332.6h3.9v.8h-3v1.8c.1,0,.3,0,.4-.1.1,0,.3,0,.4,0,.8,0,1.5.2,1.9.7.5.4.7,1,.7,1.8s-.2,1.4-.7,1.8c-.5.4-1.2.7-2.1.7s-.6,0-.9,0c-.3,0-.6-.1-1-.2v-1c.3.2.6.3.9.4s.6.1,1,.1c.6,0,1-.1,1.3-.4.3-.3.5-.7.5-1.2s-.2-.9-.5-1.2c-.3-.3-.8-.4-1.3-.4s-.5,0-.8,0c-.3,0-.5.1-.8.3v-3.7Z"/>
            </g>
          </g>
        </g>
        <g id="ytick_2">
          <g id="line2d_17">
            <g class="st18">
              <path class="st1" d="M343.1,280.7h332.6"/>
            </g>
          </g>
          <g id="line2d_18">
            <path id="m319c22e0231" data-name="m319c22e023" class="st5" d="M343.1,280.7h-3.5"/>
          </g>
          <g id="text_10">
            <g>
              <path id="DejaVuSans-22124" data-name="DejaVuSans-2212" d="M312.9,280.9h6.3v.8h-6.3v-.8Z"/>
              <path id="DejaVuSans-315" data-name="DejaVuSans-31" d="M321.4,283.7h1.6v-5.6l-1.8.4v-.9l1.7-.4h1v6.5h1.6v.8h-4.2v-.8Z"/>
              <path id="DejaVuSans-2e8" data-name="DejaVuSans-2e" d="M327.6,283.3h1v1.2h-1v-1.2Z"/>
              <path id="DejaVuSans-306" data-name="DejaVuSans-30" d="M332.9,277.9c-.5,0-.9.3-1.1.8-.3.5-.4,1.3-.4,2.3s.1,1.7.4,2.2c.3.5.6.8,1.1.8s.9-.3,1.2-.8c.3-.5.4-1.2.4-2.2s-.1-1.8-.4-2.3c-.3-.5-.6-.8-1.2-.8ZM332.9,277.1c.8,0,1.4.3,1.9,1,.4.6.6,1.6.6,2.8s-.2,2.2-.6,2.8c-.4.6-1.1,1-1.9,1s-1.4-.3-1.9-1c-.4-.6-.6-1.6-.6-2.8s.2-2.2.6-2.8c.4-.6,1.1-1,1.9-1Z"/>
            </g>
          </g>
        </g>
        <g id="ytick_3">
          <g id="line2d_19">
            <g class="st7">
              <path class="st1" d="M343.1,225.3h332.6"/>
            </g>
          </g>
          <g id="line2d_20">
            <path id="m319c22e0232" data-name="m319c22e023" class="st5" d="M343.1,225.3h-3.5"/>
          </g>
          <g id="text_11">
            <g>
              <path id="DejaVuSans-22125" data-name="DejaVuSans-2212" d="M312.9,225.5h6.3v.8h-6.3v-.8Z"/>
              <path id="DejaVuSans-307" data-name="DejaVuSans-30" d="M323.4,222.4c-.5,0-.9.3-1.1.8-.3.5-.4,1.3-.4,2.3s.1,1.7.4,2.2c.3.5.6.8,1.1.8s.9-.3,1.2-.8c.3-.5.4-1.2.4-2.2s-.1-1.8-.4-2.3c-.3-.5-.6-.8-1.2-.8ZM323.4,221.6c.8,0,1.4.3,1.9,1,.4.6.6,1.6.6,2.8s-.2,2.2-.6,2.8c-.4.6-1.1,1-1.9,1s-1.4-.3-1.9-1c-.4-.6-.6-1.6-.6-2.8s.2-2.2.6-2.8c.4-.6,1.1-1,1.9-1Z"/>
              <path id="DejaVuSans-2e9" data-name="DejaVuSans-2e" d="M327.6,227.8h1v1.2h-1v-1.2Z"/>
              <path id="DejaVuSans-355" data-name="DejaVuSans-35" d="M330.8,221.8h3.9v.8h-3v1.8c.1,0,.3,0,.4-.1.1,0,.3,0,.4,0,.8,0,1.5.2,1.9.7.5.4.7,1,.7,1.8s-.2,1.4-.7,1.8c-.5.4-1.2.7-2.1.7s-.6,0-.9,0c-.3,0-.6-.1-1-.2v-1c.3.2.6.3.9.4s.6.1,1,.1c.6,0,1-.1,1.3-.4.3-.3.5-.7.5-1.2s-.2-.9-.5-1.2c-.3-.3-.8-.4-1.3-.4s-.5,0-.8,0c-.3,0-.5.1-.8.3v-3.7Z"/>
            </g>
          </g>
        </g>
        <g id="ytick_4">
          <g id="line2d_21">
            <g class="st6">
              <path class="st1" d="M343.1,169.8h332.6"/>
            </g>
          </g>
          <g id="line2d_22">
            <path id="m319c22e0233" data-name="m319c22e023" class="st5" d="M343.1,169.8h-3.5"/>
          </g>
          <g id="text_12">
            <g>
              <path id="DejaVuSans-308" data-name="DejaVuSans-30" d="M323.4,167c-.5,0-.9.3-1.1.8-.3.5-.4,1.3-.4,2.3s.1,1.7.4,2.2c.3.5.6.8,1.1.8s.9-.3,1.2-.8c.3-.5.4-1.2.4-2.2s-.1-1.8-.4-2.3c-.3-.5-.6-.8-1.2-.8ZM323.4,166.2c.8,0,1.4.3,1.9,1,.4.6.6,1.6.6,2.8s-.2,2.2-.6,2.8c-.4.6-1.1,1-1.9,1s-1.4-.3-1.9-1c-.4-.6-.6-1.6-.6-2.8s.2-2.2.6-2.8c.4-.6,1.1-1,1.9-1Z"/>
              <path id="DejaVuSans-2e10" data-name="DejaVuSans-2e" d="M327.6,172.4h1v1.2h-1v-1.2Z"/>
              <path id="DejaVuSans-309" data-name="DejaVuSans-30" d="M332.9,167c-.5,0-.9.3-1.1.8-.3.5-.4,1.3-.4,2.3s.1,1.7.4,2.2c.3.5.6.8,1.1.8s.9-.3,1.2-.8c.3-.5.4-1.2.4-2.2s-.1-1.8-.4-2.3c-.3-.5-.6-.8-1.2-.8ZM332.9,166.2c.8,0,1.4.3,1.9,1,.4.6.6,1.6.6,2.8s-.2,2.2-.6,2.8c-.4.6-1.1,1-1.9,1s-1.4-.3-1.9-1c-.4-.6-.6-1.6-.6-2.8s.2-2.2.6-2.8c.4-.6,1.1-1,1.9-1Z"/>
            </g>
          </g>
        </g>
        <g id="ytick_5">
          <g id="line2d_23">
            <g class="st11">
              <path class="st1" d="M343.1,114.4h332.6"/>
            </g>
          </g>
          <g id="line2d_24">
            <path id="m319c22e0234" data-name="m319c22e023" class="st5" d="M343.1,114.4h-3.5"/>
          </g>
          <g id="text_13">
            <g>
              <path id="DejaVuSans-3010" data-name="DejaVuSans-30" d="M323.4,111.5c-.5,0-.9.3-1.1.8-.3.5-.4,1.3-.4,2.3s.1,1.7.4,2.2c.3.5.6.8,1.1.8s.9-.3,1.2-.8c.3-.5.4-1.2.4-2.2s-.1-1.8-.4-2.3c-.3-.5-.6-.8-1.2-.8ZM323.4,110.7c.8,0,1.4.3,1.9,1,.4.6.6,1.6.6,2.8s-.2,2.2-.6,2.8c-.4.6-1.1,1-1.9,1s-1.4-.3-1.9-1c-.4-.6-.6-1.6-.6-2.8s.2-2.2.6-2.8c.4-.6,1.1-1,1.9-1Z"/>
              <path id="DejaVuSans-2e11" data-name="DejaVuSans-2e" d="M327.6,116.9h1v1.2h-1v-1.2Z"/>
              <path id="DejaVuSans-356" data-name="DejaVuSans-35" d="M330.8,110.9h3.9v.8h-3v1.8c.1,0,.3,0,.4-.1.1,0,.3,0,.4,0,.8,0,1.5.2,1.9.7.5.4.7,1,.7,1.8s-.2,1.4-.7,1.8c-.5.4-1.2.7-2.1.7s-.6,0-.9,0c-.3,0-.6-.1-1-.2v-1c.3.2.6.3.9.4s.6.1,1,.1c.6,0,1-.1,1.3-.4.3-.3.5-.7.5-1.2s-.2-.9-.5-1.2c-.3-.3-.8-.4-1.3-.4s-.5,0-.8,0c-.3,0-.5.1-.8.3v-3.7Z"/>
            </g>
          </g>
        </g>
        <g id="ytick_6">
          <g id="line2d_25">
            <g class="st9">
              <path class="st1" d="M343.1,58.9h332.6"/>
            </g>
          </g>
          <g id="line2d_26">
            <path id="m319c22e0235" data-name="m319c22e023" class="st5" d="M343.1,58.9h-3.5"/>
          </g>
          <g id="text_14">
            <g>
              <path id="DejaVuSans-316" data-name="DejaVuSans-31" d="M321.4,61.9h1.6v-5.6l-1.8.4v-.9l1.7-.4h1v6.5h1.6v.8h-4.2v-.8Z"/>
              <path id="DejaVuSans-2e12" data-name="DejaVuSans-2e" d="M327.6,61.5h1v1.2h-1v-1.2Z"/>
              <path id="DejaVuSans-3011" data-name="DejaVuSans-30" d="M332.9,56.1c-.5,0-.9.3-1.1.8-.3.5-.4,1.3-.4,2.3s.1,1.7.4,2.2c.3.5.6.8,1.1.8s.9-.3,1.2-.8c.3-.5.4-1.2.4-2.2s-.1-1.8-.4-2.3c-.3-.5-.6-.8-1.2-.8ZM332.9,55.3c.8,0,1.4.3,1.9,1,.4.6.6,1.6.6,2.8s-.2,2.2-.6,2.8c-.4.6-1.1,1-1.9,1s-1.4-.3-1.9-1c-.4-.6-.6-1.6-.6-2.8s.2-2.2.6-2.8c.4-.6,1.1-1,1.9-1Z"/>
            </g>
          </g>
        </g>
        <g id="ytick_7">
          <g id="line2d_27">
            <g class="st10">
              <path class="st1" d="M343.1,3.5h332.6"/>
            </g>
          </g>
          <g id="line2d_28">
            <path id="m319c22e0236" data-name="m319c22e023" class="st5" d="M343.1,3.5h-3.5"/>
          </g>
          <g id="text_15">
            <g>
              <path id="DejaVuSans-317" data-name="DejaVuSans-31" d="M321.4,6.5h1.6V.9l-1.8.4V.4L323,0h1v6.5h1.6v.8h-4.2v-.8Z"/>
              <path id="DejaVuSans-2e13" data-name="DejaVuSans-2e" d="M327.6,6.1h1v1.2h-1v-1.2Z"/>
              <path id="DejaVuSans-357" data-name="DejaVuSans-35" d="M330.8,0h3.9v.8h-3v1.8c.1,0,.3,0,.4-.1.1,0,.3,0,.4,0,.8,0,1.5.2,1.9.7.5.4.7,1,.7,1.8s-.2,1.4-.7,1.8c-.5.4-1.2.7-2.1.7s-.6,0-.9,0c-.3,0-.6-.1-1-.2v-1c.3.2.6.3.9.4s.6.1,1,.1c.6,0,1-.1,1.3-.4.3-.3.5-.7.5-1.2s-.2-.9-.5-1.2c-.3-.3-.8-.4-1.3-.4s-.5,0-.8,0c-.3,0-.5.1-.8.3V0Z"/>
            </g>
          </g>
        </g>
        <g id="text_16">
          <g>
            <path id="DejaVuSans-51" d="M299.1,203.9c0,.7.3,1.3.8,1.7.5.4,1.3.6,2.2.6s1.6-.2,2.2-.6c.5-.4.8-1,.8-1.7s-.3-1.3-.8-1.7c-.5-.4-1.3-.6-2.2-.6s-1.6.2-2.2.6c-.5.4-.8,1-.8,1.7ZM305.6,202.5l1.4-1.3v1.2l-1.2,1.1c0,.1,0,.2,0,.2,0,0,0,.1,0,.2,0,1-.3,1.8-1,2.5-.7.6-1.6.9-2.8.9s-2.1-.3-2.8-.9c-.7-.6-1-1.4-1-2.5s.3-1.8,1-2.5c.7-.6,1.6-.9,2.8-.9s1.6.2,2.2.5c.6.3,1,.8,1.3,1.5Z"/>
            <path id="DejaVuSans-75" d="M303.6,199.1h-3.3v-.9h3.3c.5,0,.9-.1,1.2-.3.3-.2.4-.5.4-.9s-.2-.9-.5-1.1c-.3-.3-.7-.4-1.3-.4h-3.1v-.9h5.5v.9h-.8c.3.2.6.5.7.8.2.3.2.6.2,1,0,.6-.2,1.1-.6,1.4-.4.3-1,.5-1.7.5ZM300.1,196.9h0Z"/>
            <path id="DejaVuSans-611" data-name="DejaVuSans-61" d="M303,190.2c0,.7,0,1.2.2,1.5s.4.4.9.4.6-.1.8-.3c.2-.2.3-.5.3-.9s-.2-.9-.5-1.2-.8-.5-1.4-.5h-.2v.9ZM302.6,188.4h3.1v.9h-.8c.3.2.6.5.7.8.2.3.2.7.2,1.1s-.2,1-.5,1.3c-.3.3-.7.5-1.3.5s-1.1-.2-1.4-.6c-.3-.4-.5-1-.5-1.8v-1.3h0c-.4,0-.7.1-1,.4s-.3.7-.3,1.1,0,.6.1.9c0,.3.2.6.3.9h-.8c-.1-.3-.2-.6-.3-1,0-.3,0-.6,0-.9,0-.8.2-1.4.6-1.8.4-.4,1-.6,1.9-.6Z"/>
            <path id="DejaVuSans-64" d="M301.1,183h-3v-.9h7.6v.9h-.8c.3.2.6.4.7.7.2.3.2.6.2,1,0,.7-.3,1.2-.8,1.6-.5.4-1.2.6-2.1.6s-1.6-.2-2.1-.6c-.5-.4-.8-1-.8-1.6s0-.8.2-1c.2-.3.4-.5.7-.7ZM303,186c.7,0,1.2-.1,1.6-.4.4-.3.6-.6.6-1.1s-.2-.8-.6-1.1c-.4-.3-.9-.4-1.6-.4s-1.2.1-1.6.4c-.4.3-.6.6-.6,1.1s.2.8.6,1.1.9.4,1.6.4Z"/>
            <path id="DejaVuSans-72" d="M301.1,177.1c0,.1-.1.2-.1.3,0,.1,0,.2,0,.4,0,.5.2.9.5,1.2s.8.4,1.4.4h2.9v.9h-5.5v-.9h.9c-.3-.2-.6-.4-.7-.7-.2-.3-.2-.7-.2-1.1s0-.1,0-.2c0,0,0-.2,0-.2h.9Z"/>
            <path id="DejaVuSans-612" data-name="DejaVuSans-61" d="M303,173.6c0,.7,0,1.2.2,1.5s.4.4.9.4.6-.1.8-.3c.2-.2.3-.5.3-.9s-.2-.9-.5-1.2-.8-.5-1.4-.5h-.2v.9ZM302.6,171.8h3.1v.9h-.8c.3.2.6.5.7.8.2.3.2.7.2,1.1s-.2,1-.5,1.3c-.3.3-.7.5-1.3.5s-1.1-.2-1.4-.6c-.3-.4-.5-1-.5-1.8v-1.3h0c-.4,0-.7.1-1,.4s-.3.7-.3,1.1,0,.6.1.9c0,.3.2.6.3.9h-.8c-.1-.3-.2-.6-.3-1,0-.3,0-.6,0-.9,0-.8.2-1.4.6-1.8.4-.4,1-.6,1.9-.6Z"/>
            <path id="DejaVuSans-74" d="M298.7,169.1h1.6v-1.9h.7v1.9h3c.4,0,.7,0,.9-.2s.2-.4.2-.7v-.9h.8v.9c0,.7-.1,1.2-.4,1.4-.3.3-.7.4-1.4.4h-3v.7h-.7v-.7h-1.6v-.9Z"/>
            <path id="DejaVuSans-751" data-name="DejaVuSans-75" d="M303.6,166.2h-3.3v-.9h3.3c.5,0,.9-.1,1.2-.3.3-.2.4-.5.4-.9s-.2-.9-.5-1.1c-.3-.3-.7-.4-1.3-.4h-3.1v-.9h5.5v.9h-.8c.3.2.6.5.7.8.2.3.2.6.2,1,0,.6-.2,1.1-.6,1.4-.4.3-1,.5-1.7.5ZM300.1,163.9h0Z"/>
            <path id="DejaVuSans-721" data-name="DejaVuSans-72" d="M301.1,156.6c0,.1-.1.2-.1.3,0,.1,0,.2,0,.4,0,.5.2.9.5,1.2s.8.4,1.4.4h2.9v.9h-5.5v-.9h.9c-.3-.2-.6-.4-.7-.7-.2-.3-.2-.7-.2-1.1s0-.1,0-.2c0,0,0-.2,0-.2h.9Z"/>
            <path id="DejaVuSans-651" data-name="DejaVuSans-65" d="M302.8,151.2h.4v4.1c.6,0,1.1-.2,1.4-.6.3-.3.5-.8.5-1.4s0-.7-.1-1-.2-.6-.4-1h.9c.1.3.2.7.3,1s.1.7.1,1c0,.9-.3,1.6-.8,2.1-.5.5-1.2.8-2.1.8s-1.6-.2-2.1-.7c-.5-.5-.8-1.1-.8-2s.2-1.3.7-1.7c.5-.4,1.1-.6,1.9-.6ZM302.5,152.1c-.5,0-.9.1-1.2.4-.3.3-.4.6-.4,1.1s.1.9.4,1.2.7.5,1.2.5v-3.2Z"/>
            <path id="DejaVuSans-201" data-name="DejaVuSans-20" d="M305.7,150.6"/>
            <path id="DejaVuSans-281" data-name="DejaVuSans-28" d="M298.1,144.3c.7.4,1.5.8,2.2,1,.7.2,1.5.3,2.2.3s1.5-.1,2.2-.3,1.5-.5,2.2-1v.8c-.8.5-1.5.9-2.3,1.1-.7.2-1.5.4-2.2.4s-1.5-.1-2.2-.4c-.7-.2-1.5-.6-2.3-1.1v-.8Z"/>
            <path id="DejaVuSans-511" data-name="DejaVuSans-51" d="M299.1,139.6c0,.7.3,1.3.8,1.7.5.4,1.3.6,2.2.6s1.6-.2,2.2-.6c.5-.4.8-1,.8-1.7s-.3-1.3-.8-1.7c-.5-.4-1.3-.6-2.2-.6s-1.6.2-2.2.6c-.5.4-.8,1-.8,1.7ZM305.6,138.2l1.4-1.3v1.2l-1.2,1.1c0,.1,0,.2,0,.2,0,0,0,.1,0,.2,0,1-.3,1.8-1,2.5-.7.6-1.6.9-2.8.9s-2.1-.3-2.8-.9c-.7-.6-1-1.4-1-2.5s.3-1.8,1-2.5c.7-.6,1.6-.9,2.8-.9s1.6.2,2.2.5c.6.3,1,.8,1.3,1.5Z"/>
            <path id="DejaVuSans-291" data-name="DejaVuSans-29" d="M298.1,134.9v-.8c.8-.5,1.5-.9,2.3-1.1.7-.2,1.5-.4,2.2-.4s1.5.1,2.2.4c.7.2,1.5.6,2.3,1.1v.8c-.7-.4-1.5-.8-2.2-1-.7-.2-1.5-.3-2.2-.3s-1.5.1-2.2.3c-.7.2-1.5.5-2.2,1Z"/>
          </g>
        </g>
      </g>
      <g id="line2d_29">
        <g class="st8">
          <path class="st3" d="M620.3,169.8v-5.2c-.1,0-.5-5.2-.5-5.2l-.6-5.2-.9-5.2-1.1-5.1-1.3-5.1-1.6-5-1.8-4.9-2-4.8-2.3-4.7-2.5-4.6-2.7-4.5-2.9-4.4-3.1-4.2-3.3-4.1-3.5-3.9-3.7-3.7-3.9-3.5-4-3.4-4.2-3.2-4.3-3-4.5-2.8-4.6-2.5-4.7-2.3-4.8-2.1-4.9-1.9-5-1.6-5-1.4-5.1-1.2-5.2-.9-5.2-.7-5.2-.4-5.2-.2h-5.2c0,0-5.2.4-5.2.4l-5.2.6-5.2.8-5.1,1-5.1,1.3-5,1.5-4.9,1.8-4.8,2-4.7,2.2-4.6,2.4-4.5,2.7-4.4,2.9-4.2,3.1-4.1,3.3-3.9,3.5-3.8,3.6-3.6,3.8-3.4,4-3.2,4.1-3,4.3-2.8,4.4-2.6,4.5-2.4,4.7-2.2,4.8-1.9,4.9-1.7,5-1.5,5-1.2,5.1-1,5.1-.7,5.2-.5,5.2-.2,5.2v5.2l.2,5.2.5,5.2.7,5.2,1,5.1,1.2,5.1,1.5,5,1.7,5,1.9,4.9,2.2,4.8,2.4,4.7,2.6,4.5,2.8,4.4,3,4.3,3.2,4.1,3.4,4,3.6,3.8,3.8,3.6,3.9,3.5,4.1,3.3,4.2,3.1,4.4,2.9,4.5,2.7,4.6,2.4,4.7,2.2,4.8,2,4.9,1.8,5,1.5,5.1,1.3,5.1,1,5.2.8,5.2.6,5.2.3h5.2c0,0,5.2-.1,5.2-.1l5.2-.4,5.2-.7,5.2-.9,5.1-1.2,5-1.4,5-1.6,4.9-1.9,4.8-2.1,4.7-2.3,4.6-2.5,4.5-2.8,4.3-3,4.2-3.2,4-3.4,3.9-3.5,3.7-3.7,3.5-3.9,3.3-4.1,3.1-4.2,2.9-4.4,2.7-4.5,2.5-4.6,2.3-4.7,2-4.8,1.8-4.9,1.6-5,1.3-5.1,1.1-5.1.9-5.2.6-5.2.4-5.2v-5.2h.1"/>
        </g>
      </g>
      <g id="patch_3">
        <path class="st2" d="M343.1,336.1V3.5"/>
      </g>
      <g id="patch_4">
        <path class="st2" d="M675.7,336.1V3.5"/>
      </g>
      <g id="patch_5">
        <path class="st2" d="M343.1,336.1h332.6"/>
      </g>
      <g id="patch_6">
        <path class="st2" d="M343.1,3.5h332.6"/>
      </g>
      <g id="text_17">
        <g>
          <path id="DejaVuSans-3012" data-name="DejaVuSans-30" d="M583.2,160c-.6,0-1,.3-1.3.8-.3.5-.4,1.4-.4,2.5s.1,1.9.4,2.5c.3.5.7.8,1.3.8s1-.3,1.3-.8c.3-.5.4-1.4.4-2.5s-.1-1.9-.4-2.5c-.3-.5-.7-.8-1.3-.8ZM583.2,159.2c.9,0,1.6.4,2.1,1.1.5.7.7,1.7.7,3.1s-.2,2.4-.7,3.1c-.5.7-1.2,1.1-2.1,1.1s-1.6-.4-2.1-1.1c-.5-.7-.7-1.7-.7-3.1s.2-2.4.7-3.1c.5-.7,1.2-1.1,2.1-1.1Z"/>
          <path id="DejaVuSans-202" data-name="DejaVuSans-20" d="M586.7,167.3"/>
          <path id="DejaVuSans-282" data-name="DejaVuSans-28" d="M593.7,159c-.5.8-.8,1.6-1.1,2.4-.2.8-.3,1.6-.3,2.4s.1,1.6.4,2.5.6,1.6,1.1,2.4h-.9c-.5-.8-.9-1.7-1.2-2.5-.3-.8-.4-1.6-.4-2.4s.1-1.6.4-2.4c.3-.8.7-1.6,1.2-2.5h.9Z"/>
          <path id="DejaVuSans-3013" data-name="DejaVuSans-30" d="M598,160c-.6,0-1,.3-1.3.8-.3.5-.4,1.4-.4,2.5s.1,1.9.4,2.5c.3.5.7.8,1.3.8s1-.3,1.3-.8c.3-.5.4-1.4.4-2.5s-.1-1.9-.4-2.5c-.3-.5-.7-.8-1.3-.8ZM598,159.2c.9,0,1.6.4,2.1,1.1.5.7.7,1.7.7,3.1s-.2,2.4-.7,3.1c-.5.7-1.2,1.1-2.1,1.1s-1.6-.4-2.1-1.1c-.5-.7-.7-1.7-.7-3.1s.2-2.4.7-3.1c.5-.7,1.2-1.1,2.1-1.1Z"/>
          <path id="DejaVuSans-b0" d="M604.3,159.9c-.3,0-.5,0-.7.3-.2.2-.3.4-.3.7s0,.5.3.7.4.3.7.3.5,0,.7-.3c.2-.2.3-.4.3-.7s0-.5-.3-.7c-.2-.2-.4-.3-.7-.3ZM604.3,159.2c.2,0,.4,0,.7.1.2,0,.4.2.5.4.2.2.3.3.4.5,0,.2.1.4.1.7,0,.5-.2.9-.5,1.2s-.7.5-1.2.5-.9-.2-1.2-.5c-.3-.3-.5-.7-.5-1.2s.2-.9.5-1.2c.3-.3.7-.5,1.2-.5Z"/>
          <path id="DejaVuSans-292" data-name="DejaVuSans-29" d="M607.9,159h.9c.5.8.9,1.7,1.2,2.5.3.8.4,1.6.4,2.4s-.1,1.6-.4,2.4c-.3.8-.7,1.6-1.2,2.5h-.9c.5-.8.8-1.6,1.1-2.4.2-.8.4-1.6.4-2.5s-.1-1.6-.4-2.4c-.2-.8-.6-1.6-1.1-2.4Z"/>
        </g>
      </g>
      <g id="text_18">
        <g>
          <path id="DejaVuSans-318" data-name="DejaVuSans-31" d="M411.6,166.4h1.8v-6.1l-1.9.4v-1l1.9-.4h1.1v7.1h1.8v.9h-4.6v-.9Z"/>
          <path id="DejaVuSans-203" data-name="DejaVuSans-20" d="M417.2,167.3"/>
          <path id="DejaVuSans-283" data-name="DejaVuSans-28" d="M424.1,159c-.5.8-.8,1.6-1.1,2.4-.2.8-.3,1.6-.3,2.4s.1,1.6.4,2.5.6,1.6,1.1,2.4h-.9c-.5-.8-.9-1.7-1.2-2.5-.3-.8-.4-1.6-.4-2.4s.1-1.6.4-2.4c.3-.8.7-1.6,1.2-2.5h.9Z"/>
          <path id="DejaVuSans-319" data-name="DejaVuSans-31" d="M426.4,166.4h1.8v-6.1l-1.9.4v-1l1.9-.4h1.1v7.1h1.8v.9h-4.6v-.9Z"/>
          <path id="DejaVuSans-38" d="M435.5,163.5c-.5,0-.9.1-1.2.4-.3.3-.4.7-.4,1.1s.1.9.4,1.1c.3.3.7.4,1.2.4s.9-.1,1.2-.4c.3-.3.4-.7.4-1.1s-.1-.9-.4-1.1c-.3-.3-.7-.4-1.2-.4ZM434.4,163c-.5-.1-.8-.3-1.1-.6-.3-.3-.4-.7-.4-1.2s.2-1.1.7-1.5c.5-.4,1.1-.6,1.9-.6s1.4.2,1.9.6.7.9.7,1.5-.1.8-.4,1.2c-.3.3-.6.5-1.1.6.5.1.9.4,1.2.7.3.4.4.8.4,1.3,0,.8-.2,1.4-.7,1.8-.5.4-1.2.6-2,.6s-1.6-.2-2-.6c-.5-.4-.7-1-.7-1.8s.1-.9.4-1.3c.3-.4.7-.6,1.2-.7ZM434,161.3c0,.4.1.7.4,1,.3.2.6.3,1.1.3s.8-.1,1.1-.3c.3-.2.4-.6.4-1s-.1-.7-.4-1c-.3-.2-.6-.3-1.1-.3s-.8.1-1.1.3c-.3.2-.4.6-.4,1Z"/>
          <path id="DejaVuSans-3014" data-name="DejaVuSans-30" d="M442.5,160c-.6,0-1,.3-1.3.8-.3.5-.4,1.4-.4,2.5s.1,1.9.4,2.5c.3.5.7.8,1.3.8s1-.3,1.3-.8c.3-.5.4-1.4.4-2.5s-.1-1.9-.4-2.5c-.3-.5-.7-.8-1.3-.8ZM442.5,159.1c.9,0,1.6.4,2.1,1.1.5.7.7,1.7.7,3.1s-.2,2.4-.7,3.1c-.5.7-1.2,1.1-2.1,1.1s-1.6-.4-2.1-1.1c-.5-.7-.7-1.7-.7-3.1s.2-2.4.7-3.1c.5-.7,1.2-1.1,2.1-1.1Z"/>
          <path id="DejaVuSans-b01" data-name="DejaVuSans-b0" d="M448.8,159.8c-.3,0-.5,0-.7.3-.2.2-.3.4-.3.7s0,.5.3.7.4.3.7.3.5,0,.7-.3c.2-.2.3-.4.3-.7s0-.5-.3-.7c-.2-.2-.4-.3-.7-.3ZM448.8,159.1c.2,0,.4,0,.7.1.2,0,.4.2.5.4.2.2.3.3.4.5,0,.2.1.4.1.7,0,.5-.2.9-.5,1.2s-.7.5-1.2.5-.9-.2-1.2-.5c-.3-.3-.5-.7-.5-1.2s.2-.9.5-1.2c.3-.3.7-.5,1.2-.5Z"/>
          <path id="DejaVuSans-293" data-name="DejaVuSans-29" d="M452.4,159h.9c.5.8.9,1.7,1.2,2.5.3.8.4,1.6.4,2.4s-.1,1.6-.4,2.4c-.3.8-.7,1.6-1.2,2.5h-.9c.5-.8.8-1.6,1.1-2.4.2-.8.4-1.6.4-2.5s-.1-1.6-.4-2.4c-.2-.8-.6-1.6-1.1-2.4Z"/>
        </g>
      </g>
      <g id="text_19">
        <g>
          <path id="DejaVuSans-3015" data-name="DejaVuSans-30" d="M629.1,166.3c-.5,0-.8.2-1,.7-.2.4-.3,1.1-.3,2s.1,1.6.3,2c.2.5.6.7,1,.7s.8-.2,1-.7c.2-.5.3-1.1.3-2s-.1-1.6-.3-2c-.2-.5-.6-.7-1-.7ZM629.1,165.6c.7,0,1.3.3,1.7.9.4.6.6,1.4.6,2.5s-.2,1.9-.6,2.5c-.4.6-1,.9-1.7.9s-1.3-.3-1.7-.9c-.4-.6-.6-1.4-.6-2.5s.2-2,.6-2.5c.4-.6.9-.9,1.7-.9Z"/>
          <path id="DejaVuSans-b02" data-name="DejaVuSans-b0" d="M634.2,166.2c-.2,0-.4,0-.6.2-.2.2-.2.4-.2.6s0,.4.2.6.4.2.6.2.4,0,.6-.2c.2-.2.2-.4.2-.6s0-.4-.2-.6c-.2-.2-.4-.2-.6-.2ZM634.2,165.6c.2,0,.4,0,.5.1.2,0,.3.2.4.3.1.1.2.3.3.4,0,.2.1.3.1.5,0,.4-.1.7-.4,1s-.6.4-1,.4-.7-.1-1-.4c-.3-.3-.4-.6-.4-1s.1-.7.4-1c.3-.3.6-.4,1-.4Z"/>
        </g>
      </g>
      <g id="text_20">
        <g>
          <path id="DejaVuSans-34" d="M591.1,80.3l-2.2,3.5h2.2v-3.5ZM590.8,79.5h1.1v4.3h.9v.7h-.9v1.5h-.9v-1.5h-3v-.9l2.7-4.2Z"/>
          <path id="DejaVuSans-358" data-name="DejaVuSans-35" d="M594.4,79.5h3.5v.7h-2.7v1.6c.1,0,.3,0,.4,0,.1,0,.3,0,.4,0,.7,0,1.3.2,1.7.6.4.4.6.9.6,1.6s-.2,1.3-.7,1.6c-.4.4-1.1.6-1.9.6s-.6,0-.8,0c-.3,0-.6-.1-.9-.2v-.9c.3.1.5.3.8.3s.6.1.9.1c.5,0,.9-.1,1.2-.4.3-.3.4-.6.4-1.1s-.1-.8-.4-1.1c-.3-.3-.7-.4-1.2-.4s-.5,0-.7,0c-.2,0-.5.1-.7.2v-3.3Z"/>
          <path id="DejaVuSans-b03" data-name="DejaVuSans-b0" d="M601.4,79.9c-.2,0-.4,0-.6.2-.2.2-.2.4-.2.6s0,.4.2.6.4.2.6.2.4,0,.6-.2c.2-.2.2-.4.2-.6s0-.4-.2-.6c-.2-.2-.4-.2-.6-.2ZM601.4,79.4c.2,0,.4,0,.5.1.2,0,.3.2.4.3.1.1.2.3.3.4,0,.2.1.3.1.5,0,.4-.1.7-.4,1s-.6.4-1,.4-.7-.1-1-.4c-.3-.3-.4-.6-.4-1s.1-.7.4-1c.3-.3.6-.4,1-.4Z"/>
        </g>
      </g>
      <g id="text_21">
        <g>
          <path id="DejaVuSans-39" d="M502.4,50.2v-.8c.2.1.4.2.7.2.2,0,.5,0,.7,0,.6,0,1-.2,1.3-.6.3-.4.5-1,.5-1.8-.2.3-.4.4-.6.6-.3.1-.5.2-.9.2-.7,0-1.2-.2-1.6-.6-.4-.4-.6-.9-.6-1.6s.2-1.2.6-1.6c.4-.4.9-.6,1.6-.6s1.3.3,1.7.9c.4.6.6,1.4.6,2.5s-.2,1.9-.7,2.5c-.5.6-1.1.9-2,.9s-.4,0-.7,0c-.2,0-.5-.1-.7-.2ZM504.2,47.4c.4,0,.7-.1.9-.4.2-.3.4-.6.4-1.1s-.1-.8-.4-1.1c-.2-.3-.5-.4-.9-.4s-.7.1-.9.4c-.2.3-.3.6-.3,1.1s.1.8.3,1.1c.2.3.5.4.9.4Z"/>
          <path id="DejaVuSans-3016" data-name="DejaVuSans-30" d="M510,44.4c-.5,0-.8.2-1,.7-.2.4-.3,1.1-.3,2s.1,1.6.3,2c.2.5.6.7,1,.7s.8-.2,1-.7c.2-.5.3-1.1.3-2s-.1-1.6-.3-2c-.2-.5-.6-.7-1-.7ZM510,43.6c.7,0,1.3.3,1.7.9.4.6.6,1.4.6,2.5s-.2,1.9-.6,2.5c-.4.6-1,.9-1.7.9s-1.3-.3-1.7-.9c-.4-.6-.6-1.4-.6-2.5s.2-2,.6-2.5c.4-.6.9-.9,1.7-.9Z"/>
          <path id="DejaVuSans-b04" data-name="DejaVuSans-b0" d="M515.1,44.2c-.2,0-.4,0-.6.2-.2.2-.2.4-.2.6s0,.4.2.6.4.2.6.2.4,0,.6-.2c.2-.2.2-.4.2-.6s0-.4-.2-.6c-.2-.2-.4-.2-.6-.2ZM515.1,43.6c.2,0,.4,0,.5.1.2,0,.3.2.4.3.1.1.2.3.3.4,0,.2.1.3.1.5,0,.4-.1.7-.4,1s-.6.4-1,.4-.7-.1-1-.4c-.3-.3-.4-.6-.4-1s.1-.7.4-1c.3-.3.6-.4,1-.4Z"/>
        </g>
      </g>
      <g id="text_22">
        <g>
          <path id="DejaVuSans-3110" data-name="DejaVuSans-31" d="M413.4,85.3h1.4v-5l-1.6.3v-.8l1.6-.3h.9v5.8h1.4v.7h-3.8v-.7Z"/>
          <path id="DejaVuSans-33" d="M421.7,82.5c.4,0,.8.3,1,.6.2.3.4.6.4,1.1,0,.6-.2,1.1-.7,1.5-.4.4-1.1.5-1.9.5s-.6,0-.8,0c-.3,0-.6-.1-.9-.2v-.9c.2.1.5.3.8.3.3,0,.6.1.9.1.6,0,1-.1,1.3-.3s.4-.5.4-1-.1-.7-.4-.9c-.3-.2-.6-.3-1.1-.3h-.8v-.7h.8c.4,0,.8,0,1-.3s.3-.4.3-.8-.1-.6-.4-.8c-.2-.2-.6-.3-1-.3s-.5,0-.8,0c-.3,0-.6.1-.9.2v-.8c.3,0,.7-.2.9-.2s.6,0,.8,0c.7,0,1.2.2,1.6.5.4.3.6.7.6,1.2s-.1.7-.3.9-.5.4-.9.5Z"/>
          <path id="DejaVuSans-359" data-name="DejaVuSans-35" d="M424.7,79.5h3.5v.7h-2.7v1.6c.1,0,.3,0,.4,0,.1,0,.3,0,.4,0,.7,0,1.3.2,1.7.6.4.4.6.9.6,1.6s-.2,1.3-.7,1.6c-.4.4-1.1.6-1.9.6s-.6,0-.8,0c-.3,0-.6-.1-.9-.2v-.9c.3.1.5.3.8.3s.6.1.9.1c.5,0,.9-.1,1.2-.4.3-.3.4-.6.4-1.1s-.1-.8-.4-1.1c-.3-.3-.7-.4-1.2-.4s-.5,0-.7,0c-.2,0-.5.1-.7.2v-3.3Z"/>
          <path id="DejaVuSans-b05" data-name="DejaVuSans-b0" d="M431.7,79.9c-.2,0-.4,0-.6.2-.2.2-.2.4-.2.6s0,.4.2.6.4.2.6.2.4,0,.6-.2c.2-.2.2-.4.2-.6s0-.4-.2-.6c-.2-.2-.4-.2-.6-.2ZM431.7,79.4c.2,0,.4,0,.5.1.2,0,.3.2.4.3.1.1.2.3.3.4,0,.2.1.3.1.5,0,.4-.1.7-.4,1s-.6.4-1,.4-.7-.1-1-.4c-.3-.3-.4-.6-.4-1s.1-.7.4-1c.3-.3.6-.4,1-.4Z"/>
        </g>
      </g>
      <g id="text_23">
        <g>
          <path id="DejaVuSans-3111" data-name="DejaVuSans-31" d="M377.7,171.5h1.4v-5l-1.6.3v-.8l1.6-.3h.9v5.8h1.4v.7h-3.8v-.7Z"/>
          <path id="DejaVuSans-381" data-name="DejaVuSans-38" d="M385.2,169.2c-.4,0-.8.1-1,.3-.2.2-.4.5-.4.9s.1.7.4.9c.2.2.6.3,1,.3s.8-.1,1-.3c.2-.2.4-.5.4-.9s-.1-.7-.4-.9c-.2-.2-.6-.3-1-.3ZM384.3,168.8c-.4,0-.7-.3-.9-.5-.2-.3-.3-.6-.3-1s.2-.9.6-1.2c.4-.3.9-.5,1.5-.5s1.2.2,1.5.5.6.7.6,1.2-.1.7-.3,1c-.2.3-.5.4-.9.5.4,0,.8.3,1,.6.2.3.4.6.4,1.1,0,.6-.2,1.1-.6,1.5-.4.3-.9.5-1.7.5s-1.3-.2-1.7-.5c-.4-.3-.6-.8-.6-1.5s.1-.8.4-1.1c.2-.3.6-.5,1-.6ZM384,167.4c0,.3.1.6.3.8.2.2.5.3.9.3s.7,0,.9-.3c.2-.2.3-.5.3-.8s-.1-.6-.3-.8c-.2-.2-.5-.3-.9-.3s-.7,0-.9.3c-.2.2-.3.5-.3.8Z"/>
          <path id="DejaVuSans-3017" data-name="DejaVuSans-30" d="M390.9,166.3c-.5,0-.8.2-1,.7-.2.4-.3,1.1-.3,2s.1,1.6.3,2c.2.5.6.7,1,.7s.8-.2,1-.7c.2-.5.3-1.1.3-2s-.1-1.6-.3-2c-.2-.5-.6-.7-1-.7ZM390.9,165.6c.7,0,1.3.3,1.7.9.4.6.6,1.4.6,2.5s-.2,1.9-.6,2.5c-.4.6-1,.9-1.7.9s-1.3-.3-1.7-.9c-.4-.6-.6-1.4-.6-2.5s.2-2,.6-2.5c.4-.6.9-.9,1.7-.9Z"/>
          <path id="DejaVuSans-b06" data-name="DejaVuSans-b0" d="M396,166.2c-.2,0-.4,0-.6.2-.2.2-.2.4-.2.6s0,.4.2.6.4.2.6.2.4,0,.6-.2c.2-.2.2-.4.2-.6s0-.4-.2-.6c-.2-.2-.4-.2-.6-.2ZM396,165.6c.2,0,.4,0,.5.1.2,0,.3.2.4.3.1.1.2.3.3.4,0,.2.1.3.1.5,0,.4-.1.7-.4,1s-.6.4-1,.4-.7-.1-1-.4c-.3-.3-.4-.6-.4-1s.1-.7.4-1c.3-.3.6-.4,1-.4Z"/>
        </g>
      </g>
      <g id="text_24">
        <g>
          <path id="DejaVuSans-32" d="M414,257.8h3.1v.7h-4.2v-.7c.3-.3.8-.8,1.4-1.4.6-.6.9-1,1.1-1.1.3-.3.5-.6.6-.8.1-.2.2-.4.2-.7,0-.3-.1-.6-.4-.9-.2-.2-.6-.3-1-.3s-.6,0-.9.1c-.3,0-.6.2-1,.4v-.9c.4-.1.7-.3,1-.3.3,0,.6-.1.9-.1.7,0,1.2.2,1.6.5.4.3.6.8.6,1.4s0,.5-.2.8c-.1.2-.3.5-.6.9,0,0-.3.3-.7.7-.4.4-.9,1-1.7,1.7Z"/>
          <path id="DejaVuSans-321" data-name="DejaVuSans-32" d="M419.8,257.8h3.1v.7h-4.2v-.7c.3-.3.8-.8,1.4-1.4.6-.6.9-1,1.1-1.1.3-.3.5-.6.6-.8.1-.2.2-.4.2-.7,0-.3-.1-.6-.4-.9-.2-.2-.6-.3-1-.3s-.6,0-.9.1c-.3,0-.6.2-1,.4v-.9c.4-.1.7-.3,1-.3.3,0,.6-.1.9-.1.7,0,1.2.2,1.6.5.4.3.6.8.6,1.4s0,.5-.2.8c-.1.2-.3.5-.6.9,0,0-.3.3-.7.7-.4.4-.9,1-1.7,1.7Z"/>
          <path id="DejaVuSans-3510" data-name="DejaVuSans-35" d="M424.7,252h3.5v.7h-2.7v1.6c.1,0,.3,0,.4,0,.1,0,.3,0,.4,0,.7,0,1.3.2,1.7.6.4.4.6.9.6,1.6s-.2,1.3-.7,1.6c-.4.4-1.1.6-1.9.6s-.6,0-.8,0c-.3,0-.6-.1-.9-.2v-.9c.3.1.5.3.8.3s.6.1.9.1c.5,0,.9-.1,1.2-.4.3-.3.4-.6.4-1.1s-.1-.8-.4-1.1c-.3-.3-.7-.4-1.2-.4s-.5,0-.7,0c-.2,0-.5.1-.7.2v-3.3Z"/>
          <path id="DejaVuSans-b07" data-name="DejaVuSans-b0" d="M431.7,252.4c-.2,0-.4,0-.6.2-.2.2-.2.4-.2.6s0,.4.2.6.4.2.6.2.4,0,.6-.2c.2-.2.2-.4.2-.6s0-.4-.2-.6c-.2-.2-.4-.2-.6-.2ZM431.7,251.9c.2,0,.4,0,.5.1.2,0,.3.2.4.3.1.1.2.3.3.4,0,.2.1.3.1.5,0,.4-.1.7-.4,1s-.6.4-1,.4-.7-.1-1-.4c-.3-.3-.4-.6-.4-1s.1-.7.4-1c.3-.3.6-.4,1-.4Z"/>
        </g>
      </g>
      <g id="text_25">
        <g>
          <path id="DejaVuSans-322" data-name="DejaVuSans-32" d="M500.3,293.5h3.1v.7h-4.2v-.7c.3-.3.8-.8,1.4-1.4.6-.6.9-1,1.1-1.1.3-.3.5-.6.6-.8.1-.2.2-.4.2-.7,0-.3-.1-.6-.4-.9-.2-.2-.6-.3-1-.3s-.6,0-.9.1c-.3,0-.6.2-1,.4v-.9c.4-.1.7-.3,1-.3.3,0,.6-.1.9-.1.7,0,1.2.2,1.6.5.4.3.6.8.6,1.4s0,.5-.2.8c-.1.2-.3.5-.6.9,0,0-.3.3-.7.7-.4.4-.9,1-1.7,1.7Z"/>
          <path id="DejaVuSans-37" d="M505,287.7h4.2v.4l-2.4,6.2h-.9l2.2-5.8h-3.2v-.7Z"/>
          <path id="DejaVuSans-3018" data-name="DejaVuSans-30" d="M512.9,288.3c-.5,0-.8.2-1,.7-.2.4-.3,1.1-.3,2s.1,1.6.3,2c.2.5.6.7,1,.7s.8-.2,1-.7c.2-.5.3-1.1.3-2s-.1-1.6-.3-2c-.2-.5-.6-.7-1-.7ZM512.9,287.6c.7,0,1.3.3,1.7.9.4.6.6,1.4.6,2.5s-.2,1.9-.6,2.5c-.4.6-1,.9-1.7.9s-1.3-.3-1.7-.9c-.4-.6-.6-1.4-.6-2.5s.2-2,.6-2.5c.4-.6.9-.9,1.7-.9Z"/>
          <path id="DejaVuSans-b08" data-name="DejaVuSans-b0" d="M518,288.1c-.2,0-.4,0-.6.2-.2.2-.2.4-.2.6s0,.4.2.6.4.2.6.2.4,0,.6-.2c.2-.2.2-.4.2-.6s0-.4-.2-.6c-.2-.2-.4-.2-.6-.2ZM518,287.6c.2,0,.4,0,.5.1.2,0,.3.2.4.3.1.1.2.3.3.4,0,.2.1.3.1.5,0,.4-.1.7-.4,1s-.6.4-1,.4-.7-.1-1-.4c-.3-.3-.4-.6-.4-1s.1-.7.4-1c.3-.3.6-.4,1-.4Z"/>
        </g>
      </g>
      <g id="text_26">
        <g>
          <path id="DejaVuSans-331" data-name="DejaVuSans-33" d="M588.5,255c.4,0,.8.3,1,.6.2.3.4.6.4,1.1,0,.6-.2,1.1-.7,1.5-.4.4-1.1.5-1.9.5s-.6,0-.8,0c-.3,0-.6-.1-.9-.2v-.9c.2.1.5.3.8.3.3,0,.6.1.9.1.6,0,1-.1,1.3-.3s.4-.5.4-1-.1-.7-.4-.9c-.3-.2-.6-.3-1.1-.3h-.8v-.7h.8c.4,0,.8,0,1-.3s.3-.4.3-.8-.1-.6-.4-.8c-.2-.2-.6-.3-1-.3s-.5,0-.8,0c-.3,0-.6.1-.9.2v-.8c.3,0,.7-.2.9-.2s.6,0,.8,0c.7,0,1.2.2,1.6.5.4.3.6.7.6,1.2s-.1.7-.3.9-.5.4-.9.5Z"/>
          <path id="DejaVuSans-3112" data-name="DejaVuSans-31" d="M591.6,257.8h1.4v-5l-1.6.3v-.8l1.6-.3h.9v5.8h1.4v.7h-3.8v-.7Z"/>
          <path id="DejaVuSans-3511" data-name="DejaVuSans-35" d="M597.2,252h3.5v.7h-2.7v1.6c.1,0,.3,0,.4,0,.1,0,.3,0,.4,0,.7,0,1.3.2,1.7.6.4.4.6.9.6,1.6s-.2,1.3-.7,1.6c-.4.4-1.1.6-1.9.6s-.6,0-.8,0c-.3,0-.6-.1-.9-.2v-.9c.3.1.5.3.8.3s.6.1.9.1c.5,0,.9-.1,1.2-.4.3-.3.4-.6.4-1.1s-.1-.8-.4-1.1c-.3-.3-.7-.4-1.2-.4s-.5,0-.7,0c-.2,0-.5.1-.7.2v-3.3Z"/>
          <path id="DejaVuSans-b09" data-name="DejaVuSans-b0" d="M604.2,252.4c-.2,0-.4,0-.6.2-.2.2-.2.4-.2.6s0,.4.2.6.4.2.6.2.4,0,.6-.2c.2-.2.2-.4.2-.6s0-.4-.2-.6c-.2-.2-.4-.2-.6-.2ZM604.2,251.9c.2,0,.4,0,.5.1.2,0,.3.2.4.3.1.1.2.3.3.4,0,.2.1.3.1.5,0,.4-.1.7-.4,1s-.6.4-1,.4-.7-.1-1-.4c-.3-.3-.4-.6-.4-1s.1-.7.4-1c.3-.3.6-.4,1-.4Z"/>
        </g>
      </g>
    </g>
  </g>
</svg>