<?xml version="1.0" encoding="UTF-8"?>
<svg id="Ebene_1" xmlns="http://www.w3.org/2000/svg" xmlns:xlink="http://www.w3.org/1999/xlink" version="1.1" viewBox="0 0 2022.9 875.3">
  <!-- Generator: Adobe Illustrator 29.4.0, SVG Export Plug-In . SVG Version: 2.1.0 Build 152)  -->
  <defs>
    <style>
      .st0, .st1, .st2, .st3 {
        fill: none;
      }

      .st1 {
        stroke: #b0b0b0;
      }

      .st1, .st4, .st5, .st3 {
        stroke-linejoin: round;
      }

      .st1, .st5, .st2 {
        stroke-width: .8px;
      }

      .st1, .st2 {
        stroke-linecap: square;
      }

      .st6 {
        clip-path: url(#clippath-11);
      }

      .st7 {
        clip-path: url(#clippath-10);
      }

      .st8 {
        clip-path: url(#clippath-15);
      }

      .st9 {
        clip-path: url(#clippath-13);
      }

      .st10 {
        clip-path: url(#clippath-14);
      }

      .st11 {
        clip-path: url(#clippath-12);
      }

      .st12 {
        clip-path: url(#clippath-1);
      }

      .st13 {
        clip-path: url(#clippath-3);
      }

      .st14 {
        clip-path: url(#clippath-4);
      }

      .st15 {
        clip-path: url(#clippath-2);
      }

      .st16 {
        clip-path: url(#clippath-7);
      }

      .st17 {
        clip-path: url(#clippath-6);
      }

      .st18 {
        clip-path: url(#clippath-9);
      }

      .st19 {
        clip-path: url(#clippath-8);
      }

      .st20 {
        clip-path: url(#clippath-5);
      }

      .st4 {
        fill: #1f77b4;
        stroke: #1f77b4;
      }

      .st21 {
        fill: #fff;
      }

      .st5, .st2, .st3 {
        stroke: #000;
      }

      .st3 {
        stroke-dasharray: 3.7 1.6;
      }

      .st22 {
        clip-path: url(#clippath);
      }
    </style>
    <clipPath id="clippath">
      <rect class="st0" x="655.9" y="49.5" width="739.5" height="739.5"/>
    </clipPath>
    <clipPath id="clippath-1">
      <rect class="st0" x="655.9" y="49.5" width="739.5" height="739.5"/>
    </clipPath>
    <clipPath id="clippath-2">
      <rect class="st0" x="655.9" y="49.5" width="739.5" height="739.5"/>
    </clipPath>
    <clipPath id="clippath-3">
      <rect class="st0" x="655.9" y="49.5" width="739.5" height="739.5"/>
    </clipPath>
    <clipPath id="clippath-4">
      <rect class="st0" x="655.9" y="49.5" width="739.5" height="739.5"/>
    </clipPath>
    <clipPath id="clippath-5">
      <rect class="st0" x="655.9" y="49.5" width="739.5" height="739.5"/>
    </clipPath>
    <clipPath id="clippath-6">
      <rect class="st0" x="655.9" y="49.5" width="739.5" height="739.5"/>
    </clipPath>
    <clipPath id="clippath-7">
      <rect class="st0" x="655.9" y="49.5" width="739.5" height="739.5"/>
    </clipPath>
    <clipPath id="clippath-8">
      <rect class="st0" x="655.9" y="49.5" width="739.5" height="739.5"/>
    </clipPath>
    <clipPath id="clippath-9">
      <rect class="st0" x="655.9" y="49.5" width="739.5" height="739.5"/>
    </clipPath>
    <clipPath id="clippath-10">
      <rect class="st0" x="655.9" y="49.5" width="739.5" height="739.5"/>
    </clipPath>
    <clipPath id="clippath-11">
      <rect class="st0" x="655.9" y="49.5" width="739.5" height="739.5"/>
    </clipPath>
    <clipPath id="clippath-12">
      <rect class="st0" x="655.9" y="49.5" width="739.5" height="739.5"/>
    </clipPath>
    <clipPath id="clippath-13">
      <rect class="st0" x="655.9" y="49.5" width="739.5" height="739.5"/>
    </clipPath>
    <clipPath id="clippath-14">
      <rect class="st0" x="655.9" y="49.5" width="739.5" height="739.5"/>
    </clipPath>
    <clipPath id="clippath-15">
      <rect class="st0" x="655.9" y="49.5" width="739.5" height="739.5"/>
    </clipPath>
  </defs>
  <g id="figure_1">
    <g id="axes_1">
      <g id="patch_2">
        <path class="st21" d="M655.9,789h739.5V49.5h-739.5v739.5Z"/>
      </g>
      <g id="PathCollection_1">
        <g class="st22">
          <g>
            <path id="md31f041dd0" class="st4" d="M1272.1,432.9c3.6,0,7.1-1.4,9.6-4,2.6-2.6,4-6,4-9.6s-1.4-7.1-4-9.6c-2.6-2.6-6-4-9.6-4s-7.1,1.4-9.6,4c-2.6,2.6-4,6-4,9.6s1.4,7.1,4,9.6c2.6,2.6,6,4,9.6,4Z"/>
            <path id="md31f041dd01" data-name="md31f041dd0" class="st4" d="M779.2,432.9c3.6,0,7.1-1.4,9.6-4,2.6-2.6,4-6,4-9.6s-1.4-7.1-4-9.6c-2.6-2.6-6-4-9.6-4s-7.1,1.4-9.6,4c-2.6,2.6-4,6-4,9.6s1.4,7.1,4,9.6c2.6,2.6,6,4,9.6,4Z"/>
          </g>
        </g>
      </g>
      <g id="matplotlib.axis_1">
        <g id="xtick_1">
          <g id="line2d_1">
            <g class="st12">
              <path class="st1" d="M655.9,789V49.5"/>
            </g>
          </g>
          <g id="line2d_2">
            <path id="mdad89dec48" class="st5" d="M655.9,789v7.8"/>
          </g>
          <g id="text_1">
            <g>
              <path id="DejaVuSans-2212" d="M631.3,813.5h13.9v1.8h-13.9v-1.8Z"/>
              <path id="DejaVuSans-31" d="M650.3,819.6h3.6v-12.4l-3.9.8v-2l3.9-.8h2.2v14.4h3.6v1.8h-9.3v-1.8Z"/>
              <path id="DejaVuSans-2e" d="M664.1,818.7h2.3v2.8h-2.3v-2.8Z"/>
              <path id="DejaVuSans-35" d="M671.1,805.2h8.6v1.8h-6.6v4c.3-.1.6-.2,1-.2.3,0,.6,0,1,0,1.8,0,3.2.5,4.3,1.5,1.1,1,1.6,2.3,1.6,4s-.5,3.1-1.6,4.1c-1.1,1-2.6,1.4-4.6,1.4s-1.4,0-2.1-.2c-.7-.1-1.4-.3-2.2-.5v-2.2c.7.4,1.3.6,2,.8s1.4.3,2.2.3c1.3,0,2.2-.3,3-1,.7-.7,1.1-1.6,1.1-2.7s-.4-2-1.1-2.7c-.7-.7-1.7-1-3-1s-1.2,0-1.8.2c-.6.1-1.2.3-1.8.6v-8.1Z"/>
            </g>
          </g>
        </g>
        <g id="xtick_2">
          <g id="line2d_3">
            <g class="st15">
              <path class="st1" d="M779.2,789V49.5"/>
            </g>
          </g>
          <g id="line2d_4">
            <path id="mdad89dec481" data-name="mdad89dec48" class="st5" d="M779.2,789v7.8"/>
          </g>
          <g id="text_2">
            <g>
              <path id="DejaVuSans-22121" data-name="DejaVuSans-2212" d="M754.5,813.5h13.9v1.8h-13.9v-1.8Z"/>
              <path id="DejaVuSans-311" data-name="DejaVuSans-31" d="M773.5,819.6h3.6v-12.4l-3.9.8v-2l3.9-.8h2.2v14.4h3.6v1.8h-9.3v-1.8Z"/>
              <path id="DejaVuSans-2e1" data-name="DejaVuSans-2e" d="M787.3,818.7h2.3v2.8h-2.3v-2.8Z"/>
              <path id="DejaVuSans-30" d="M799.1,806.7c-1.1,0-2,.6-2.5,1.7-.6,1.1-.9,2.8-.9,5s.3,3.9.9,5c.6,1.1,1.4,1.7,2.5,1.7s2-.6,2.6-1.7c.6-1.1.9-2.8.9-5s-.3-3.9-.9-5c-.6-1.1-1.4-1.7-2.6-1.7ZM799.1,804.9c1.8,0,3.2.7,4.2,2.2,1,1.4,1.4,3.5,1.4,6.3s-.5,4.8-1.4,6.2c-1,1.4-2.3,2.2-4.2,2.2s-3.2-.7-4.2-2.2c-1-1.4-1.4-3.5-1.4-6.2s.5-4.8,1.4-6.3c1-1.4,2.3-2.2,4.2-2.2Z"/>
            </g>
          </g>
        </g>
        <g id="xtick_3">
          <g id="line2d_5">
            <g class="st13">
              <path class="st1" d="M902.4,789V49.5"/>
            </g>
          </g>
          <g id="line2d_6">
            <path id="mdad89dec482" data-name="mdad89dec48" class="st5" d="M902.4,789v7.8"/>
          </g>
          <g id="text_3">
            <g>
              <path id="DejaVuSans-22122" data-name="DejaVuSans-2212" d="M877.8,813.5h13.9v1.8h-13.9v-1.8Z"/>
              <path id="DejaVuSans-301" data-name="DejaVuSans-30" d="M901.1,806.7c-1.1,0-2,.6-2.5,1.7-.6,1.1-.9,2.8-.9,5s.3,3.9.9,5c.6,1.1,1.4,1.7,2.5,1.7s2-.6,2.6-1.7c.6-1.1.9-2.8.9-5s-.3-3.9-.9-5c-.6-1.1-1.4-1.7-2.6-1.7ZM901.1,804.9c1.8,0,3.2.7,4.2,2.2,1,1.4,1.4,3.5,1.4,6.3s-.5,4.8-1.4,6.2c-1,1.4-2.3,2.2-4.2,2.2s-3.2-.7-4.2-2.2c-1-1.4-1.4-3.5-1.4-6.2s.5-4.8,1.4-6.3c1-1.4,2.3-2.2,4.2-2.2Z"/>
              <path id="DejaVuSans-2e2" data-name="DejaVuSans-2e" d="M910.6,818.7h2.3v2.8h-2.3v-2.8Z"/>
              <path id="DejaVuSans-351" data-name="DejaVuSans-35" d="M917.6,805.2h8.6v1.8h-6.6v4c.3-.1.6-.2,1-.2.3,0,.6,0,1,0,1.8,0,3.2.5,4.3,1.5,1.1,1,1.6,2.3,1.6,4s-.5,3.1-1.6,4.1c-1.1,1-2.6,1.4-4.6,1.4s-1.4,0-2.1-.2c-.7-.1-1.4-.3-2.2-.5v-2.2c.7.4,1.3.6,2,.8s1.4.3,2.2.3c1.3,0,2.2-.3,3-1,.7-.7,1.1-1.6,1.1-2.7s-.4-2-1.1-2.7c-.7-.7-1.7-1-3-1s-1.2,0-1.8.2c-.6.1-1.2.3-1.8.6v-8.1Z"/>
            </g>
          </g>
        </g>
        <g id="xtick_4">
          <g id="line2d_7">
            <g class="st14">
              <path class="st1" d="M1025.6,789V49.5"/>
            </g>
          </g>
          <g id="line2d_8">
            <path id="mdad89dec483" data-name="mdad89dec48" class="st5" d="M1025.6,789v7.8"/>
          </g>
          <g id="text_4">
            <g>
              <path id="DejaVuSans-302" data-name="DejaVuSans-30" d="M1015,806.7c-1.1,0-2,.6-2.5,1.7-.6,1.1-.9,2.8-.9,5s.3,3.9.9,5c.6,1.1,1.4,1.7,2.5,1.7s2-.6,2.6-1.7c.6-1.1.9-2.8.9-5s-.3-3.9-.9-5c-.6-1.1-1.4-1.7-2.6-1.7ZM1015,804.9c1.8,0,3.2.7,4.2,2.2,1,1.4,1.4,3.5,1.4,6.3s-.5,4.8-1.4,6.2c-1,1.4-2.3,2.2-4.2,2.2s-3.2-.7-4.2-2.2c-1-1.4-1.4-3.5-1.4-6.2s.5-4.8,1.4-6.3c1-1.4,2.3-2.2,4.2-2.2Z"/>
              <path id="DejaVuSans-2e3" data-name="DejaVuSans-2e" d="M1024.5,818.7h2.3v2.8h-2.3v-2.8Z"/>
              <path id="DejaVuSans-303" data-name="DejaVuSans-30" d="M1036.2,806.7c-1.1,0-2,.6-2.5,1.7-.6,1.1-.9,2.8-.9,5s.3,3.9.9,5c.6,1.1,1.4,1.7,2.5,1.7s2-.6,2.6-1.7c.6-1.1.9-2.8.9-5s-.3-3.9-.9-5c-.6-1.1-1.4-1.7-2.6-1.7ZM1036.2,804.9c1.8,0,3.2.7,4.2,2.2,1,1.4,1.4,3.5,1.4,6.3s-.5,4.8-1.4,6.2c-1,1.4-2.3,2.2-4.2,2.2s-3.2-.7-4.2-2.2c-1-1.4-1.4-3.5-1.4-6.2s.5-4.8,1.4-6.3c1-1.4,2.3-2.2,4.2-2.2Z"/>
            </g>
          </g>
        </g>
        <g id="xtick_5">
          <g id="line2d_9">
            <g class="st20">
              <path class="st1" d="M1148.9,789V49.5"/>
            </g>
          </g>
          <g id="line2d_10">
            <path id="mdad89dec484" data-name="mdad89dec48" class="st5" d="M1148.9,789v7.8"/>
          </g>
          <g id="text_5">
            <g>
              <path id="DejaVuSans-304" data-name="DejaVuSans-30" d="M1138.3,806.7c-1.1,0-2,.6-2.5,1.7-.6,1.1-.9,2.8-.9,5s.3,3.9.9,5c.6,1.1,1.4,1.7,2.5,1.7s2-.6,2.6-1.7c.6-1.1.9-2.8.9-5s-.3-3.9-.9-5c-.6-1.1-1.4-1.7-2.6-1.7ZM1138.3,804.9c1.8,0,3.2.7,4.2,2.2,1,1.4,1.4,3.5,1.4,6.3s-.5,4.8-1.4,6.2c-1,1.4-2.3,2.2-4.2,2.2s-3.2-.7-4.2-2.2c-1-1.4-1.4-3.5-1.4-6.2s.5-4.8,1.4-6.3c1-1.4,2.3-2.2,4.2-2.2Z"/>
              <path id="DejaVuSans-2e4" data-name="DejaVuSans-2e" d="M1147.7,818.7h2.3v2.8h-2.3v-2.8Z"/>
              <path id="DejaVuSans-352" data-name="DejaVuSans-35" d="M1154.8,805.2h8.6v1.8h-6.6v4c.3-.1.6-.2,1-.2.3,0,.6,0,1,0,1.8,0,3.2.5,4.3,1.5,1.1,1,1.6,2.3,1.6,4s-.5,3.1-1.6,4.1c-1.1,1-2.6,1.4-4.6,1.4s-1.4,0-2.1-.2c-.7-.1-1.4-.3-2.2-.5v-2.2c.7.4,1.3.6,2,.8s1.4.3,2.2.3c1.3,0,2.2-.3,3-1,.7-.7,1.1-1.6,1.1-2.7s-.4-2-1.1-2.7c-.7-.7-1.7-1-3-1s-1.2,0-1.8.2c-.6.1-1.2.3-1.8.6v-8.1Z"/>
            </g>
          </g>
        </g>
        <g id="xtick_6">
          <g id="line2d_11">
            <g class="st17">
              <path class="st1" d="M1272.1,789V49.5"/>
            </g>
          </g>
          <g id="line2d_12">
            <path id="mdad89dec485" data-name="mdad89dec48" class="st5" d="M1272.1,789v7.8"/>
          </g>
          <g id="text_6">
            <g>
              <path id="DejaVuSans-312" data-name="DejaVuSans-31" d="M1257.2,819.6h3.6v-12.4l-3.9.8v-2l3.9-.8h2.2v14.4h3.6v1.8h-9.3v-1.8Z"/>
              <path id="DejaVuSans-2e5" data-name="DejaVuSans-2e" d="M1271,818.7h2.3v2.8h-2.3v-2.8Z"/>
              <path id="DejaVuSans-305" data-name="DejaVuSans-30" d="M1282.7,806.7c-1.1,0-2,.6-2.5,1.7-.6,1.1-.9,2.8-.9,5s.3,3.9.9,5c.6,1.1,1.4,1.7,2.5,1.7s2-.6,2.6-1.7c.6-1.1.9-2.8.9-5s-.3-3.9-.9-5c-.6-1.1-1.4-1.7-2.6-1.7ZM1282.7,804.9c1.8,0,3.2.7,4.2,2.2,1,1.4,1.4,3.5,1.4,6.3s-.5,4.8-1.4,6.2c-1,1.4-2.3,2.2-4.2,2.2s-3.2-.7-4.2-2.2c-1-1.4-1.4-3.5-1.4-6.2s.5-4.8,1.4-6.3c1-1.4,2.3-2.2,4.2-2.2Z"/>
            </g>
          </g>
        </g>
        <g id="xtick_7">
          <g id="line2d_13">
            <g class="st16">
              <path class="st1" d="M1395.4,789V49.5"/>
            </g>
          </g>
          <g id="line2d_14">
            <path id="mdad89dec486" data-name="mdad89dec48" class="st5" d="M1395.4,789v7.8"/>
          </g>
          <g id="text_7">
            <g>
              <path id="DejaVuSans-313" data-name="DejaVuSans-31" d="M1380.5,819.6h3.6v-12.4l-3.9.8v-2l3.9-.8h2.2v14.4h3.6v1.8h-9.3v-1.8Z"/>
              <path id="DejaVuSans-2e6" data-name="DejaVuSans-2e" d="M1394.2,818.7h2.3v2.8h-2.3v-2.8Z"/>
              <path id="DejaVuSans-353" data-name="DejaVuSans-35" d="M1401.3,805.2h8.6v1.8h-6.6v4c.3-.1.6-.2,1-.2.3,0,.6,0,1,0,1.8,0,3.2.5,4.3,1.5,1.1,1,1.6,2.3,1.6,4s-.5,3.1-1.6,4.1c-1.1,1-2.6,1.4-4.6,1.4s-1.4,0-2.1-.2c-.7-.1-1.4-.3-2.2-.5v-2.2c.7.4,1.3.6,2,.8s1.4.3,2.2.3c1.3,0,2.2-.3,3-1,.7-.7,1.1-1.6,1.1-2.7s-.4-2-1.1-2.7c-.7-.7-1.7-1-3-1s-1.2,0-1.8.2c-.6.1-1.2.3-1.8.6v-8.1Z"/>
            </g>
          </g>
        </g>
        <g id="text_8">
          <g>
            <path id="DejaVuSans-49" d="M964.5,835.6h2.2v16.2h-2.2v-16.2Z"/>
            <path id="DejaVuSans-6e" d="M981,844.5v7.3h-2v-7.3c0-1.2-.2-2-.7-2.6-.4-.6-1.1-.9-2-.9s-1.9.3-2.6,1c-.6.7-.9,1.6-.9,2.8v6.9h-2v-12.2h2v1.9c.5-.7,1-1.3,1.7-1.6.6-.4,1.4-.5,2.2-.5,1.4,0,2.5.4,3.2,1.3.7.9,1.1,2.1,1.1,3.8Z"/>
            <path id="DejaVuSans-2d" d="M984,844.9h5.8v1.8h-5.8v-1.8Z"/>
            <path id="DejaVuSans-70" d="M995,850v6.4h-2v-16.8h2v1.8c.4-.7,1-1.3,1.6-1.6.6-.4,1.4-.5,2.3-.5,1.5,0,2.7.6,3.6,1.8.9,1.2,1.4,2.7,1.4,4.6s-.5,3.5-1.4,4.6c-.9,1.2-2.1,1.8-3.6,1.8s-1.7-.2-2.3-.5c-.6-.4-1.2-.9-1.6-1.6ZM1001.8,845.8c0-1.5-.3-2.6-.9-3.5s-1.4-1.3-2.5-1.3-1.9.4-2.5,1.3-.9,2-.9,3.5.3,2.6.9,3.5c.6.8,1.4,1.3,2.5,1.3s1.9-.4,2.5-1.3c.6-.8.9-2,.9-3.5Z"/>
            <path id="DejaVuSans-68" d="M1017.3,844.5v7.3h-2v-7.3c0-1.2-.2-2-.7-2.6-.4-.6-1.1-.9-2-.9s-1.9.3-2.6,1c-.6.7-.9,1.6-.9,2.8v6.9h-2v-16.9h2v6.6c.5-.7,1-1.3,1.7-1.6.6-.4,1.4-.5,2.2-.5,1.4,0,2.5.4,3.2,1.3.7.9,1.1,2.1,1.1,3.8Z"/>
            <path id="DejaVuSans-61" d="M1026.8,845.7c-1.6,0-2.7.2-3.4.6s-.9,1-.9,1.9.2,1.3.7,1.7c.5.4,1.1.6,1.9.6s2-.4,2.7-1.2,1-1.8,1-3.1v-.4h-2ZM1030.8,844.9v6.9h-2v-1.8c-.5.7-1,1.3-1.7,1.6-.7.4-1.5.5-2.5.5s-2.2-.3-3-1c-.7-.7-1.1-1.6-1.1-2.8s.5-2.4,1.4-3.1c.9-.7,2.3-1,4.1-1h2.8v-.2c0-.9-.3-1.6-.9-2.1s-1.5-.8-2.5-.8-1.4,0-2,.3c-.7.2-1.3.4-1.9.8v-1.8c.7-.3,1.4-.5,2.1-.6.7-.1,1.4-.2,2-.2,1.8,0,3.1.5,3.9,1.4.9.9,1.3,2.3,1.3,4.1Z"/>
            <path id="DejaVuSans-73" d="M1042.6,840v1.9c-.6-.3-1.1-.5-1.8-.6-.6-.1-1.2-.2-1.9-.2-1,0-1.7.2-2.2.5-.5.3-.7.8-.7,1.4s.2.8.5,1.1,1.1.5,2.1.8l.7.2c1.4.3,2.4.7,3,1.3s.9,1.3.9,2.3-.4,2-1.3,2.7c-.9.7-2.1,1-3.7,1s-1.3,0-2-.2c-.7-.1-1.4-.3-2.2-.6v-2.1c.7.4,1.5.7,2.2.9.7.2,1.4.3,2.1.3s1.7-.2,2.2-.5c.5-.3.8-.8.8-1.4s-.2-1-.5-1.2c-.4-.3-1.2-.6-2.4-.8l-.7-.2c-1.2-.3-2.1-.7-2.7-1.2-.5-.5-.8-1.3-.8-2.2s.4-2,1.2-2.6c.8-.6,2-.9,3.5-.9s1.4,0,2.1.2c.7.1,1.3.3,1.8.5Z"/>
            <path id="DejaVuSans-65" d="M1056.9,845.3v1h-9.2c0,1.4.5,2.4,1.2,3.1.7.7,1.8,1.1,3.1,1.1s1.5,0,2.2-.3,1.4-.5,2.1-.8v1.9c-.7.3-1.5.5-2.2.7s-1.5.2-2.3.2c-1.9,0-3.5-.6-4.6-1.7-1.1-1.1-1.7-2.7-1.7-4.6s.5-3.6,1.6-4.7c1.1-1.2,2.5-1.8,4.3-1.8s2.9.5,3.9,1.6c1,1.1,1.4,2.5,1.4,4.3ZM1054.9,844.7c0-1.1-.3-2-.9-2.6-.6-.7-1.4-1-2.4-1s-2,.3-2.7.9-1.1,1.5-1.2,2.7h7.1Z"/>
            <path id="DejaVuSans-20" d="M1058,851.8"/>
            <path id="DejaVuSans-28" d="M1072,835c-1,1.7-1.7,3.3-2.2,4.9-.5,1.6-.7,3.3-.7,4.9s.2,3.3.7,5,1.2,3.3,2.2,4.9h-1.7c-1.1-1.7-1.9-3.4-2.4-5-.5-1.6-.8-3.3-.8-4.9s.3-3.2.8-4.9c.5-1.6,1.4-3.3,2.4-5h1.7Z"/>
            <path id="DejaVuSans-491" data-name="DejaVuSans-49" d="M1076,835.6h2.2v16.2h-2.2v-16.2Z"/>
            <path id="DejaVuSans-29" d="M1082.1,835h1.7c1.1,1.7,1.9,3.4,2.4,5,.5,1.6.8,3.3.8,4.9s-.3,3.3-.8,4.9c-.5,1.6-1.4,3.3-2.4,5h-1.7c1-1.7,1.7-3.3,2.2-4.9.5-1.6.7-3.3.7-5s-.2-3.3-.7-4.9c-.5-1.6-1.2-3.3-2.2-4.9Z"/>
          </g>
        </g>
      </g>
      <g id="matplotlib.axis_2">
        <g id="ytick_1">
          <g id="line2d_15">
            <g class="st19">
              <path class="st1" d="M655.9,789h739.5"/>
            </g>
          </g>
          <g id="line2d_16">
            <path id="m319c22e023" class="st5" d="M655.9,789h-7.8"/>
          </g>
          <g id="text_9">
            <g>
              <path id="DejaVuSans-22123" data-name="DejaVuSans-2212" d="M588.7,789.5h13.9v1.8h-13.9v-1.8Z"/>
              <path id="DejaVuSans-314" data-name="DejaVuSans-31" d="M607.7,795.6h3.6v-12.4l-3.9.8v-2l3.9-.8h2.2v14.4h3.6v1.8h-9.3v-1.8Z"/>
              <path id="DejaVuSans-2e7" data-name="DejaVuSans-2e" d="M621.5,794.7h2.3v2.8h-2.3v-2.8Z"/>
              <path id="DejaVuSans-354" data-name="DejaVuSans-35" d="M628.6,781.2h8.6v1.8h-6.6v4c.3-.1.6-.2,1-.2.3,0,.6,0,1,0,1.8,0,3.2.5,4.3,1.5,1.1,1,1.6,2.3,1.6,4s-.5,3.1-1.6,4.1c-1.1,1-2.6,1.4-4.6,1.4s-1.4,0-2.1-.2c-.7-.1-1.4-.3-2.2-.5v-2.2c.7.4,1.3.6,2,.8s1.4.3,2.2.3c1.3,0,2.2-.3,3-1,.7-.7,1.1-1.6,1.1-2.7s-.4-2-1.1-2.7c-.7-.7-1.7-1-3-1s-1.2,0-1.8.2c-.6.1-1.2.3-1.8.6v-8.1Z"/>
            </g>
          </g>
        </g>
        <g id="ytick_2">
          <g id="line2d_17">
            <g class="st18">
              <path class="st1" d="M655.9,665.7h739.5"/>
            </g>
          </g>
          <g id="line2d_18">
            <path id="m319c22e0231" data-name="m319c22e023" class="st5" d="M655.9,665.7h-7.8"/>
          </g>
          <g id="text_10">
            <g>
              <path id="DejaVuSans-22124" data-name="DejaVuSans-2212" d="M588.7,666.3h13.9v1.8h-13.9v-1.8Z"/>
              <path id="DejaVuSans-315" data-name="DejaVuSans-31" d="M607.7,672.3h3.6v-12.4l-3.9.8v-2l3.9-.8h2.2v14.4h3.6v1.8h-9.3v-1.8Z"/>
              <path id="DejaVuSans-2e8" data-name="DejaVuSans-2e" d="M621.5,671.4h2.3v2.8h-2.3v-2.8Z"/>
              <path id="DejaVuSans-306" data-name="DejaVuSans-30" d="M633.3,659.4c-1.1,0-2,.6-2.5,1.7-.6,1.1-.9,2.8-.9,5s.3,3.9.9,5c.6,1.1,1.4,1.7,2.5,1.7s2-.6,2.6-1.7c.6-1.1.9-2.8.9-5s-.3-3.9-.9-5c-.6-1.1-1.4-1.7-2.6-1.7ZM633.3,657.7c1.8,0,3.2.7,4.2,2.2,1,1.4,1.4,3.5,1.4,6.3s-.5,4.8-1.4,6.2c-1,1.4-2.3,2.2-4.2,2.2s-3.2-.7-4.2-2.2c-1-1.4-1.4-3.5-1.4-6.2s.5-4.8,1.4-6.3c1-1.4,2.3-2.2,4.2-2.2Z"/>
            </g>
          </g>
        </g>
        <g id="ytick_3">
          <g id="line2d_19">
            <g class="st7">
              <path class="st1" d="M655.9,542.5h739.5"/>
            </g>
          </g>
          <g id="line2d_20">
            <path id="m319c22e0232" data-name="m319c22e023" class="st5" d="M655.9,542.5h-7.8"/>
          </g>
          <g id="text_11">
            <g>
              <path id="DejaVuSans-22125" data-name="DejaVuSans-2212" d="M588.7,543h13.9v1.8h-13.9v-1.8Z"/>
              <path id="DejaVuSans-307" data-name="DejaVuSans-30" d="M612,536.2c-1.1,0-2,.6-2.5,1.7-.6,1.1-.9,2.8-.9,5s.3,3.9.9,5c.6,1.1,1.4,1.7,2.5,1.7s2-.6,2.6-1.7c.6-1.1.9-2.8.9-5s-.3-3.9-.9-5c-.6-1.1-1.4-1.7-2.6-1.7ZM612,534.4c1.8,0,3.2.7,4.2,2.2,1,1.4,1.4,3.5,1.4,6.3s-.5,4.8-1.4,6.2c-1,1.4-2.3,2.2-4.2,2.2s-3.2-.7-4.2-2.2c-1-1.4-1.4-3.5-1.4-6.2s.5-4.8,1.4-6.3c1-1.4,2.3-2.2,4.2-2.2Z"/>
              <path id="DejaVuSans-2e9" data-name="DejaVuSans-2e" d="M621.5,548.2h2.3v2.8h-2.3v-2.8Z"/>
              <path id="DejaVuSans-355" data-name="DejaVuSans-35" d="M628.6,534.7h8.6v1.8h-6.6v4c.3-.1.6-.2,1-.2.3,0,.6,0,1,0,1.8,0,3.2.5,4.3,1.5,1.1,1,1.6,2.3,1.6,4s-.5,3.1-1.6,4.1c-1.1,1-2.6,1.4-4.6,1.4s-1.4,0-2.1-.2c-.7-.1-1.4-.3-2.2-.5v-2.2c.7.4,1.3.6,2,.8s1.4.3,2.2.3c1.3,0,2.2-.3,3-1,.7-.7,1.1-1.6,1.1-2.7s-.4-2-1.1-2.7c-.7-.7-1.7-1-3-1s-1.2,0-1.8.2c-.6.1-1.2.3-1.8.6v-8.1Z"/>
            </g>
          </g>
        </g>
        <g id="ytick_4">
          <g id="line2d_21">
            <g class="st6">
              <path class="st1" d="M655.9,419.2h739.5"/>
            </g>
          </g>
          <g id="line2d_22">
            <path id="m319c22e0233" data-name="m319c22e023" class="st5" d="M655.9,419.2h-7.8"/>
          </g>
          <g id="text_12">
            <g>
              <path id="DejaVuSans-308" data-name="DejaVuSans-30" d="M612.1,412.9c-1.1,0-2,.6-2.5,1.7-.6,1.1-.9,2.8-.9,5s.3,3.9.9,5c.6,1.1,1.4,1.7,2.5,1.7s2-.6,2.6-1.7c.6-1.1.9-2.8.9-5s-.3-3.9-.9-5c-.6-1.1-1.4-1.7-2.6-1.7ZM612.1,411.2c1.8,0,3.2.7,4.2,2.2,1,1.4,1.4,3.5,1.4,6.3s-.5,4.8-1.4,6.2c-1,1.4-2.3,2.2-4.2,2.2s-3.2-.7-4.2-2.2c-1-1.4-1.4-3.5-1.4-6.2s.5-4.8,1.4-6.3c1-1.4,2.3-2.2,4.2-2.2Z"/>
              <path id="DejaVuSans-2e10" data-name="DejaVuSans-2e" d="M621.5,424.9h2.3v2.8h-2.3v-2.8Z"/>
              <path id="DejaVuSans-309" data-name="DejaVuSans-30" d="M633.3,412.9c-1.1,0-2,.6-2.5,1.7-.6,1.1-.9,2.8-.9,5s.3,3.9.9,5c.6,1.1,1.4,1.7,2.5,1.7s2-.6,2.6-1.7c.6-1.1.9-2.8.9-5s-.3-3.9-.9-5c-.6-1.1-1.4-1.7-2.6-1.7ZM633.3,411.2c1.8,0,3.2.7,4.2,2.2,1,1.4,1.4,3.5,1.4,6.3s-.5,4.8-1.4,6.2c-1,1.4-2.3,2.2-4.2,2.2s-3.2-.7-4.2-2.2c-1-1.4-1.4-3.5-1.4-6.2s.5-4.8,1.4-6.3c1-1.4,2.3-2.2,4.2-2.2Z"/>
            </g>
          </g>
        </g>
        <g id="ytick_5">
          <g id="line2d_23">
            <g class="st11">
              <path class="st1" d="M655.9,296h739.5"/>
            </g>
          </g>
          <g id="line2d_24">
            <path id="m319c22e0234" data-name="m319c22e023" class="st5" d="M655.9,296h-7.8"/>
          </g>
          <g id="text_13">
            <g>
              <path id="DejaVuSans-3010" data-name="DejaVuSans-30" d="M612.1,289.7c-1.1,0-2,.6-2.5,1.7-.6,1.1-.9,2.8-.9,5s.3,3.9.9,5c.6,1.1,1.4,1.7,2.5,1.7s2-.6,2.6-1.7c.6-1.1.9-2.8.9-5s-.3-3.9-.9-5c-.6-1.1-1.4-1.7-2.6-1.7ZM612.1,287.9c1.8,0,3.2.7,4.2,2.2,1,1.4,1.4,3.5,1.4,6.3s-.5,4.8-1.4,6.2c-1,1.4-2.3,2.2-4.2,2.2s-3.2-.7-4.2-2.2c-1-1.4-1.4-3.5-1.4-6.2s.5-4.8,1.4-6.3c1-1.4,2.3-2.2,4.2-2.2Z"/>
              <path id="DejaVuSans-2e11" data-name="DejaVuSans-2e" d="M621.5,301.7h2.3v2.8h-2.3v-2.8Z"/>
              <path id="DejaVuSans-356" data-name="DejaVuSans-35" d="M628.6,288.2h8.6v1.8h-6.6v4c.3-.1.6-.2,1-.2.3,0,.6,0,1,0,1.8,0,3.2.5,4.3,1.5,1.1,1,1.6,2.3,1.6,4s-.5,3.1-1.6,4.1c-1.1,1-2.6,1.4-4.6,1.4s-1.4,0-2.1-.2c-.7-.1-1.4-.3-2.2-.5v-2.2c.7.4,1.3.6,2,.8s1.4.3,2.2.3c1.3,0,2.2-.3,3-1,.7-.7,1.1-1.6,1.1-2.7s-.4-2-1.1-2.7c-.7-.7-1.7-1-3-1s-1.2,0-1.8.2c-.6.1-1.2.3-1.8.6v-8.1Z"/>
            </g>
          </g>
        </g>
        <g id="ytick_6">
          <g id="line2d_25">
            <g class="st9">
              <path class="st1" d="M655.9,172.7h739.5"/>
            </g>
          </g>
          <g id="line2d_26">
            <path id="m319c22e0235" data-name="m319c22e023" class="st5" d="M655.9,172.7h-7.8"/>
          </g>
          <g id="text_14">
            <g>
              <path id="DejaVuSans-316" data-name="DejaVuSans-31" d="M607.7,179.3h3.6v-12.4l-3.9.8v-2l3.9-.8h2.2v14.4h3.6v1.8h-9.3v-1.8Z"/>
              <path id="DejaVuSans-2e12" data-name="DejaVuSans-2e" d="M621.5,178.4h2.3v2.8h-2.3v-2.8Z"/>
              <path id="DejaVuSans-3011" data-name="DejaVuSans-30" d="M633.3,166.4c-1.1,0-2,.6-2.5,1.7-.6,1.1-.9,2.8-.9,5s.3,3.9.9,5c.6,1.1,1.4,1.7,2.5,1.7s2-.6,2.6-1.7c.6-1.1.9-2.8.9-5s-.3-3.9-.9-5c-.6-1.1-1.4-1.7-2.6-1.7ZM633.3,164.7c1.8,0,3.2.7,4.2,2.2,1,1.4,1.4,3.5,1.4,6.3s-.5,4.8-1.4,6.2c-1,1.4-2.3,2.2-4.2,2.2s-3.2-.7-4.2-2.2c-1-1.4-1.4-3.5-1.4-6.2s.5-4.8,1.4-6.3c1-1.4,2.3-2.2,4.2-2.2Z"/>
            </g>
          </g>
        </g>
        <g id="ytick_7">
          <g id="line2d_27">
            <g class="st10">
              <path class="st1" d="M655.9,49.5h739.5"/>
            </g>
          </g>
          <g id="line2d_28">
            <path id="m319c22e0236" data-name="m319c22e023" class="st5" d="M655.9,49.5h-7.8"/>
          </g>
          <g id="text_15">
            <g>
              <path id="DejaVuSans-317" data-name="DejaVuSans-31" d="M607.7,56.1h3.6v-12.4l-3.9.8v-2l3.9-.8h2.2v14.4h3.6v1.8h-9.3v-1.8Z"/>
              <path id="DejaVuSans-2e13" data-name="DejaVuSans-2e" d="M621.5,55.2h2.3v2.8h-2.3v-2.8Z"/>
              <path id="DejaVuSans-357" data-name="DejaVuSans-35" d="M628.6,41.7h8.6v1.8h-6.6v4c.3-.1.6-.2,1-.2.3,0,.6,0,1,0,1.8,0,3.2.5,4.3,1.5,1.1,1,1.6,2.3,1.6,4s-.5,3.1-1.6,4.1c-1.1,1-2.6,1.4-4.6,1.4s-1.4,0-2.1-.2c-.7-.1-1.4-.3-2.2-.5v-2.2c.7.4,1.3.6,2,.8s1.4.3,2.2.3c1.3,0,2.2-.3,3-1,.7-.7,1.1-1.6,1.1-2.7s-.4-2-1.1-2.7c-.7-.7-1.7-1-3-1s-1.2,0-1.8.2c-.6.1-1.2.3-1.8.6v-8.1Z"/>
            </g>
          </g>
        </g>
        <g id="text_16">
          <g>
            <path id="DejaVuSans-51" d="M558.1,495c0,1.6.6,2.9,1.8,3.8,1.2.9,2.8,1.4,4.9,1.4s3.7-.5,4.8-1.4c1.2-.9,1.8-2.2,1.8-3.8s-.6-2.9-1.8-3.8c-1.2-.9-2.8-1.4-4.8-1.4s-3.7.5-4.9,1.4c-1.2.9-1.8,2.2-1.8,3.8ZM572.5,492l3.2-2.9v2.7l-2.6,2.4c0,.2,0,.4,0,.5,0,.1,0,.2,0,.4,0,2.3-.8,4.1-2.3,5.5-1.5,1.4-3.6,2-6.1,2s-4.6-.7-6.1-2c-1.5-1.4-2.3-3.2-2.3-5.5s.8-4.1,2.3-5.4c1.5-1.4,3.6-2,6.1-2s3.5.4,4.8,1.1c1.3.8,2.3,1.8,3,3.3Z"/>
            <path id="DejaVuSans-75" d="M568,484.4h-7.4v-2h7.3c1.2,0,2-.2,2.6-.7.6-.4.9-1.1.9-2s-.3-1.9-1-2.6c-.7-.6-1.6-.9-2.8-.9h-6.9v-2h12.2v2h-1.9c.7.5,1.3,1,1.6,1.7.4.6.5,1.4.5,2.2,0,1.4-.4,2.5-1.3,3.2-.9.7-2.1,1.1-3.8,1.1ZM560.4,479.4h0Z"/>
            <path id="DejaVuSans-611" data-name="DejaVuSans-61" d="M566.7,464.6c0,1.6.2,2.7.6,3.4s1,.9,1.9.9,1.3-.2,1.7-.7c.4-.5.6-1.1.6-1.9s-.4-2-1.2-2.7-1.8-1-3.1-1h-.4v2ZM565.9,460.6h6.9v2h-1.8c.7.5,1.3,1,1.6,1.7.4.7.5,1.5.5,2.5s-.3,2.2-1,3c-.7.7-1.6,1.1-2.8,1.1s-2.4-.5-3.1-1.4c-.7-.9-1-2.3-1-4.1v-2.8h-.2c-.9,0-1.6.3-2.1.9s-.8,1.5-.8,2.5,0,1.4.3,2c.2.7.4,1.3.8,1.9h-1.8c-.3-.7-.5-1.4-.6-2.1-.1-.7-.2-1.4-.2-2,0-1.8.5-3.1,1.4-3.9.9-.9,2.3-1.3,4.1-1.3Z"/>
            <path id="DejaVuSans-64" d="M562.5,448.5h-6.6v-2h16.9v2h-1.8c.7.4,1.3.9,1.6,1.6.4.6.5,1.4.5,2.3,0,1.5-.6,2.7-1.8,3.6-1.2.9-2.7,1.4-4.6,1.4s-3.5-.5-4.6-1.4c-1.2-.9-1.8-2.1-1.8-3.6s.2-1.7.5-2.3c.3-.6.9-1.2,1.6-1.6ZM566.8,455.3c1.5,0,2.6-.3,3.5-.9.8-.6,1.3-1.4,1.3-2.5s-.4-1.9-1.3-2.5c-.8-.6-2-.9-3.5-.9s-2.6.3-3.5.9c-.8.6-1.3,1.4-1.3,2.5s.4,1.9,1.3,2.5,2,.9,3.5.9Z"/>
            <path id="DejaVuSans-72" d="M562.5,435.3c-.1.2-.2.5-.3.7,0,.3,0,.6,0,.9,0,1.1.4,2,1.1,2.6s1.8.9,3.2.9h6.4v2h-12.2v-2h1.9c-.7-.4-1.3-1-1.6-1.6-.4-.7-.5-1.5-.5-2.5s0-.3,0-.5c0-.2,0-.4,0-.6h2Z"/>
            <path id="DejaVuSans-612" data-name="DejaVuSans-61" d="M566.7,427.7c0,1.6.2,2.7.6,3.4s1,.9,1.9.9,1.3-.2,1.7-.7c.4-.5.6-1.1.6-1.9s-.4-2-1.2-2.7-1.8-1-3.1-1h-.4v2ZM565.9,423.7h6.9v2h-1.8c.7.5,1.3,1,1.6,1.7.4.7.5,1.5.5,2.5s-.3,2.2-1,3c-.7.7-1.6,1.1-2.8,1.1s-2.4-.5-3.1-1.4c-.7-.9-1-2.3-1-4.1v-2.8h-.2c-.9,0-1.6.3-2.1.9s-.8,1.5-.8,2.5,0,1.4.3,2c.2.7.4,1.3.8,1.9h-1.8c-.3-.7-.5-1.4-.6-2.1-.1-.7-.2-1.4-.2-2,0-1.8.5-3.1,1.4-3.9.9-.9,2.3-1.3,4.1-1.3Z"/>
            <path id="DejaVuSans-74" d="M557.2,417.6h3.5v-4.1h1.6v4.1h6.6c1,0,1.6-.1,1.9-.4s.4-.8.4-1.7v-2h1.7v2c0,1.5-.3,2.6-.9,3.2-.6.6-1.6.9-3.1.9h-6.6v1.5h-1.6v-1.5h-3.5v-2Z"/>
            <path id="DejaVuSans-751" data-name="DejaVuSans-75" d="M568,411.1h-7.4v-2h7.3c1.2,0,2-.2,2.6-.7.6-.4.9-1.1.9-2s-.3-1.9-1-2.6c-.7-.6-1.6-.9-2.8-.9h-6.9v-2h12.2v2h-1.9c.7.5,1.3,1,1.6,1.7.4.6.5,1.4.5,2.2,0,1.4-.4,2.5-1.3,3.2-.9.7-2.1,1.1-3.8,1.1ZM560.4,406.1h0Z"/>
            <path id="DejaVuSans-721" data-name="DejaVuSans-72" d="M562.5,389.8c-.1.2-.2.5-.3.7,0,.3,0,.6,0,.9,0,1.1.4,2,1.1,2.6s1.8.9,3.2.9h6.4v2h-12.2v-2h1.9c-.7-.4-1.3-1-1.6-1.6-.4-.7-.5-1.5-.5-2.5s0-.3,0-.5c0-.2,0-.4,0-.6h2Z"/>
            <path id="DejaVuSans-651" data-name="DejaVuSans-65" d="M566.3,377.8h1v9.2c1.4,0,2.4-.5,3.1-1.2.7-.7,1.1-1.8,1.1-3.1s0-1.5-.3-2.2-.5-1.4-.8-2.1h1.9c.3.7.5,1.5.7,2.2s.2,1.5.2,2.3c0,1.9-.6,3.5-1.7,4.6-1.1,1.1-2.7,1.7-4.6,1.7s-3.6-.5-4.7-1.6c-1.2-1.1-1.8-2.5-1.8-4.3s.5-2.9,1.6-3.9c1.1-1,2.5-1.4,4.3-1.4ZM565.7,379.8c-1.1,0-2,.3-2.6.9-.7.6-1,1.4-1,2.4s.3,2,.9,2.7,1.5,1.1,2.7,1.2v-7.1Z"/>
            <path id="DejaVuSans-201" data-name="DejaVuSans-20" d="M572.8,376.6"/>
            <path id="DejaVuSans-281" data-name="DejaVuSans-28" d="M556,362.6c1.7,1,3.3,1.7,4.9,2.2,1.6.5,3.3.7,4.9.7s3.3-.2,5-.7,3.3-1.2,4.9-2.2v1.7c-1.7,1.1-3.4,1.9-5,2.4-1.6.5-3.3.8-4.9.8s-3.2-.3-4.9-.8c-1.6-.5-3.3-1.4-5-2.4v-1.7Z"/>
            <path id="DejaVuSans-511" data-name="DejaVuSans-51" d="M558.1,352.1c0,1.6.6,2.9,1.8,3.8,1.2.9,2.8,1.4,4.9,1.4s3.7-.5,4.8-1.4c1.2-.9,1.8-2.2,1.8-3.8s-.6-2.9-1.8-3.8c-1.2-.9-2.8-1.4-4.8-1.4s-3.7.5-4.9,1.4c-1.2.9-1.8,2.2-1.8,3.8ZM572.5,349l3.2-2.9v2.7l-2.6,2.4c0,.2,0,.4,0,.5,0,.1,0,.2,0,.4,0,2.3-.8,4.1-2.3,5.5-1.5,1.4-3.6,2-6.1,2s-4.6-.7-6.1-2c-1.5-1.4-2.3-3.2-2.3-5.5s.8-4.1,2.3-5.4c1.5-1.4,3.6-2,6.1-2s3.5.4,4.8,1.1c1.3.8,2.3,1.8,3,3.3Z"/>
            <path id="DejaVuSans-291" data-name="DejaVuSans-29" d="M556,341.6v-1.7c1.7-1.1,3.4-1.9,5-2.4,1.6-.5,3.3-.8,4.9-.8s3.3.3,4.9.8c1.6.5,3.3,1.4,5,2.4v1.7c-1.7-1-3.3-1.7-4.9-2.2-1.6-.5-3.3-.7-5-.7s-3.3.2-4.9.7c-1.6.5-3.3,1.2-4.9,2.2Z"/>
          </g>
        </g>
      </g>
      <g id="line2d_29">
        <g class="st8">
          <path class="st3" d="M1272.1,419.2l-.3-11.6-.8-11.6-1.4-11.6-1.9-11.5-2.5-11.4-3-11.3-3.5-11.1-4-10.9-4.6-10.7-5.1-10.5-5.5-10.2-6-10-6.5-9.7-6.9-9.4-7.4-9-7.8-8.7-8.2-8.3-8.6-7.9-8.9-7.5-9.3-7-9.6-6.6-9.9-6.1-10.2-5.7-10.4-5.2-10.7-4.7-10.9-4.2-11.1-3.7-11.2-3.1-11.4-2.6-11.5-2.1-11.5-1.5-11.6-1-11.6-.4h-11.6c0,.1-11.6.8-11.6.8l-11.6,1.2-11.5,1.8-11.4,2.3-11.3,2.9-11.1,3.4-11,3.9-10.8,4.4-10.5,4.9-10.3,5.4-10,5.9-9.7,6.4-9.4,6.8-9.1,7.3-8.8,7.7-8.4,8.1-8,8.5-7.6,8.8-7.2,9.2-6.7,9.5-6.3,9.8-5.8,10.1-5.3,10.4-4.8,10.6-4.3,10.8-3.8,11-3.3,11.2-2.7,11.3-2.2,11.4-1.6,11.5-1.1,11.6-.5,11.6v11.6l.5,11.6,1.1,11.6,1.6,11.5,2.2,11.4,2.7,11.3,3.3,11.2,3.8,11,4.3,10.8,4.8,10.6,5.3,10.4,5.8,10.1,6.3,9.8,6.7,9.5,7.2,9.2,7.6,8.8,8,8.5,8.4,8.1,8.8,7.7,9.1,7.3,9.4,6.8,9.7,6.4,10,5.9,10.3,5.4,10.5,4.9,10.8,4.4,11,3.9,11.1,3.4,11.3,2.9,11.4,2.3,11.5,1.8,11.6,1.2,11.6.7h11.6c0,.1,11.6-.3,11.6-.3l11.6-1,11.5-1.5,11.5-2.1,11.4-2.6,11.2-3.1,11.1-3.7,10.9-4.2,10.7-4.7,10.4-5.2,10.2-5.7,9.9-6.1,9.6-6.6,9.3-7,8.9-7.5,8.6-7.9,8.2-8.3,7.8-8.7,7.4-9,6.9-9.4,6.5-9.7,6-10,5.5-10.2,5.1-10.5,4.6-10.7,4-10.9,3.5-11.1,3-11.3,2.5-11.4,1.9-11.5,1.4-11.6.8-11.6.3-11.6h0"/>
        </g>
      </g>
      <g id="patch_3">
        <path class="st2" d="M655.9,789V49.5"/>
      </g>
      <g id="patch_4">
        <path class="st2" d="M1395.4,789V49.5"/>
      </g>
      <g id="patch_5">
        <path class="st2" d="M655.9,789h739.5"/>
      </g>
      <g id="patch_6">
        <path class="st2" d="M655.9,49.5h739.5"/>
      </g>
      <g id="text_17">
        <g>
          <path id="DejaVuSans-3012" data-name="DejaVuSans-30" d="M1121.6,378.3c-1.2,0-2.2.6-2.8,1.8-.6,1.2-.9,3.1-.9,5.5s.3,4.3.9,5.5c.6,1.2,1.6,1.8,2.8,1.8s2.2-.6,2.8-1.8c.6-1.2.9-3.1.9-5.5s-.3-4.3-.9-5.5c-.6-1.2-1.6-1.8-2.8-1.8ZM1121.6,376.4c2,0,3.5.8,4.6,2.4,1.1,1.6,1.6,3.9,1.6,6.9s-.5,5.3-1.6,6.9c-1.1,1.6-2.6,2.4-4.6,2.4s-3.5-.8-4.6-2.4c-1.1-1.6-1.6-3.9-1.6-6.9s.5-5.3,1.6-6.9c1.1-1.6,2.6-2.4,4.6-2.4Z"/>
          <path id="DejaVuSans-202" data-name="DejaVuSans-20" d="M1129.4,394.6"/>
          <path id="DejaVuSans-282" data-name="DejaVuSans-28" d="M1144.7,376c-1.1,1.8-1.9,3.6-2.4,5.4-.5,1.8-.8,3.6-.8,5.4s.3,3.7.8,5.5,1.3,3.6,2.4,5.4h-1.9c-1.2-1.9-2.1-3.7-2.7-5.5-.6-1.8-.9-3.6-.9-5.4s.3-3.6.9-5.4c.6-1.8,1.5-3.6,2.7-5.5h1.9Z"/>
          <path id="DejaVuSans-3013" data-name="DejaVuSans-30" d="M1154.4,378.3c-1.2,0-2.2.6-2.8,1.8-.6,1.2-.9,3.1-.9,5.5s.3,4.3.9,5.5c.6,1.2,1.6,1.8,2.8,1.8s2.2-.6,2.8-1.8c.6-1.2.9-3.1.9-5.5s-.3-4.3-.9-5.5c-.6-1.2-1.6-1.8-2.8-1.8ZM1154.4,376.4c2,0,3.5.8,4.6,2.4,1.1,1.6,1.6,3.9,1.6,6.9s-.5,5.3-1.6,6.9c-1.1,1.6-2.6,2.4-4.6,2.4s-3.5-.8-4.6-2.4c-1.1-1.6-1.6-3.9-1.6-6.9s.5-5.3,1.6-6.9c1.1-1.6,2.6-2.4,4.6-2.4Z"/>
          <path id="DejaVuSans-b0" d="M1168.3,378c-.6,0-1.2.2-1.6.7-.4.4-.7,1-.7,1.6s.2,1.2.7,1.6,1,.6,1.6.6,1.2-.2,1.6-.6c.4-.4.7-1,.7-1.6s-.2-1.2-.7-1.6c-.4-.4-1-.7-1.6-.7ZM1168.3,376.4c.5,0,1,0,1.5.3.5.2.9.5,1.2.8.4.4.6.8.8,1.2.2.5.3.9.3,1.5,0,1-.4,1.9-1.1,2.7s-1.6,1.1-2.7,1.1-2-.4-2.7-1.1c-.7-.7-1.1-1.6-1.1-2.7s.4-2,1.1-2.7c.7-.7,1.6-1.1,2.7-1.1Z"/>
          <path id="DejaVuSans-292" data-name="DejaVuSans-29" d="M1176.4,376h1.9c1.2,1.9,2.1,3.7,2.7,5.5.6,1.8.9,3.6.9,5.4s-.3,3.6-.9,5.4c-.6,1.8-1.5,3.6-2.7,5.5h-1.9c1.1-1.8,1.8-3.6,2.4-5.4.5-1.8.8-3.6.8-5.5s-.3-3.7-.8-5.4c-.5-1.8-1.3-3.6-2.4-5.4Z"/>
        </g>
      </g>
      <g id="text_18">
        <g>
          <path id="DejaVuSans-318" data-name="DejaVuSans-31" d="M854.8,392.6h3.9v-13.6l-4.3.9v-2.2l4.3-.9h2.4v15.8h3.9v2h-10.3v-2Z"/>
          <path id="DejaVuSans-203" data-name="DejaVuSans-20" d="M867.3,394.6"/>
          <path id="DejaVuSans-283" data-name="DejaVuSans-28" d="M882.7,376c-1.1,1.8-1.9,3.6-2.4,5.4-.5,1.8-.8,3.6-.8,5.4s.3,3.7.8,5.5,1.3,3.6,2.4,5.4h-1.9c-1.2-1.9-2.1-3.7-2.7-5.5-.6-1.8-.9-3.6-.9-5.4s.3-3.6.9-5.4c.6-1.8,1.5-3.6,2.7-5.5h1.9Z"/>
          <path id="DejaVuSans-319" data-name="DejaVuSans-31" d="M887.6,392.6h3.9v-13.6l-4.3.9v-2.2l4.3-.9h2.4v15.8h3.9v2h-10.3v-2Z"/>
          <path id="DejaVuSans-38" d="M907.9,386.1c-1.1,0-2,.3-2.7.9-.7.6-1,1.5-1,2.5s.3,1.9,1,2.5c.7.6,1.6.9,2.7.9s2-.3,2.7-.9c.7-.6,1-1.5,1-2.5s-.3-1.9-1-2.5c-.7-.6-1.6-.9-2.7-.9ZM905.5,385.1c-1-.3-1.8-.7-2.4-1.4-.6-.7-.9-1.6-.9-2.6s.5-2.5,1.5-3.4c1-.8,2.4-1.2,4.2-1.2s3.2.4,4.2,1.2,1.5,2,1.5,3.4-.3,1.9-.9,2.6c-.6.7-1.4,1.2-2.4,1.4,1.2.3,2.1.8,2.7,1.6.6.8,1,1.7,1,2.9,0,1.7-.5,3.1-1.6,4-1.1.9-2.6,1.4-4.5,1.4s-3.5-.5-4.5-1.4c-1.1-.9-1.6-2.3-1.6-4s.3-2.1,1-2.9c.7-.8,1.6-1.3,2.7-1.6ZM904.7,381.3c0,.9.3,1.6.9,2.2.6.5,1.4.8,2.4.8s1.8-.3,2.4-.8c.6-.5.9-1.2.9-2.2s-.3-1.6-.9-2.2c-.6-.5-1.4-.8-2.4-.8s-1.9.3-2.4.8c-.6.5-.9,1.2-.9,2.2Z"/>
          <path id="DejaVuSans-3014" data-name="DejaVuSans-30" d="M923.5,378.3c-1.2,0-2.2.6-2.8,1.8-.6,1.2-.9,3.1-.9,5.5s.3,4.3.9,5.5c.6,1.2,1.6,1.8,2.8,1.8s2.2-.6,2.8-1.8c.6-1.2.9-3.1.9-5.5s-.3-4.3-.9-5.5c-.6-1.2-1.6-1.8-2.8-1.8ZM923.5,376.4c2,0,3.5.8,4.6,2.4,1.1,1.6,1.6,3.9,1.6,6.9s-.5,5.3-1.6,6.9c-1.1,1.6-2.6,2.4-4.6,2.4s-3.5-.8-4.6-2.4c-1.1-1.6-1.6-3.9-1.6-6.9s.5-5.3,1.6-6.9c1.1-1.6,2.6-2.4,4.6-2.4Z"/>
          <path id="DejaVuSans-b01" data-name="DejaVuSans-b0" d="M937.4,378c-.6,0-1.2.2-1.6.7-.4.4-.7,1-.7,1.6s.2,1.2.7,1.6,1,.6,1.6.6,1.2-.2,1.6-.6c.4-.4.7-1,.7-1.6s-.2-1.2-.7-1.6c-.4-.4-1-.7-1.6-.7ZM937.4,376.4c.5,0,1,0,1.5.3.5.2.9.5,1.2.8.4.4.6.8.8,1.2.2.5.3.9.3,1.5,0,1-.4,1.9-1.1,2.7s-1.6,1.1-2.7,1.1-2-.4-2.7-1.1c-.7-.7-1.1-1.6-1.1-2.7s.4-2,1.1-2.7c.7-.7,1.6-1.1,2.7-1.1Z"/>
          <path id="DejaVuSans-293" data-name="DejaVuSans-29" d="M945.5,376h1.9c1.2,1.9,2.1,3.7,2.7,5.5.6,1.8.9,3.6.9,5.4s-.3,3.6-.9,5.4c-.6,1.8-1.5,3.6-2.7,5.5h-1.9c1.1-1.8,1.8-3.6,2.4-5.4.5-1.8.8-3.6.8-5.5s-.3-3.7-.8-5.4c-.5-1.8-1.3-3.6-2.4-5.4Z"/>
        </g>
      </g>
      <g id="text_19">
        <g>
          <path id="DejaVuSans-3015" data-name="DejaVuSans-30" d="M1291.8,411.5c-1,0-1.8.5-2.3,1.5-.5,1-.8,2.5-.8,4.5s.3,3.5.8,4.5c.5,1,1.3,1.5,2.3,1.5s1.8-.5,2.3-1.5c.5-1,.8-2.5.8-4.5s-.3-3.5-.8-4.5c-.5-1-1.3-1.5-2.3-1.5ZM1291.8,409.9c1.6,0,2.9.6,3.7,1.9.9,1.3,1.3,3.2,1.3,5.6s-.4,4.3-1.3,5.6c-.9,1.3-2.1,1.9-3.7,1.9s-2.9-.6-3.7-1.9c-.9-1.3-1.3-3.2-1.3-5.6s.4-4.3,1.3-5.6c.9-1.3,2.1-1.9,3.7-1.9Z"/>
          <path id="DejaVuSans-b02" data-name="DejaVuSans-b0" d="M1303.2,411.2c-.5,0-1,.2-1.3.5-.4.4-.5.8-.5,1.3s.2.9.5,1.3.8.5,1.3.5,1-.2,1.3-.5c.4-.4.5-.8.5-1.3s-.2-1-.5-1.3c-.4-.4-.8-.5-1.3-.5ZM1303.2,409.9c.4,0,.8,0,1.2.2.4.2.7.4,1,.7.3.3.5.6.7,1,.2.4.2.8.2,1.2,0,.9-.3,1.6-.9,2.2s-1.3.9-2.2.9-1.6-.3-2.2-.9c-.6-.6-.9-1.3-.9-2.2s.3-1.6.9-2.2c.6-.6,1.3-.9,2.2-.9Z"/>
        </g>
      </g>
      <g id="text_20">
        <g>
          <path id="DejaVuSans-34" d="M1207.2,220.2l-5,7.8h5v-7.8ZM1206.7,218.4h2.5v9.5h2.1v1.6h-2.1v3.4h-2v-3.4h-6.6v-1.9l6.1-9.2Z"/>
          <path id="DejaVuSans-358" data-name="DejaVuSans-35" d="M1214.5,218.4h7.7v1.7h-5.9v3.6c.3,0,.6-.2.9-.2.3,0,.6,0,.9,0,1.6,0,2.9.4,3.9,1.3,1,.9,1.4,2.1,1.4,3.6s-.5,2.8-1.5,3.7c-1,.9-2.4,1.3-4.1,1.3s-1.2,0-1.9-.2c-.6-.1-1.3-.3-2-.5v-2c.6.3,1.2.6,1.8.7s1.3.2,2,.2c1.1,0,2-.3,2.7-.9.7-.6,1-1.4,1-2.4s-.3-1.8-1-2.4c-.7-.6-1.5-.9-2.7-.9s-1.1,0-1.6.2c-.5.1-1.1.3-1.6.5v-7.3Z"/>
          <path id="DejaVuSans-b03" data-name="DejaVuSans-b0" d="M1230.1,219.4c-.5,0-1,.2-1.3.5-.4.4-.5.8-.5,1.3s.2.9.5,1.3.8.5,1.3.5,1-.2,1.3-.5c.4-.4.5-.8.5-1.3s-.2-1-.5-1.3c-.4-.4-.8-.5-1.3-.5ZM1230.1,218.2c.4,0,.8,0,1.2.2.4.2.7.4,1,.7.3.3.5.6.7,1,.2.4.2.8.2,1.2,0,.9-.3,1.6-.9,2.2s-1.3.9-2.2.9-1.6-.3-2.2-.9c-.6-.6-.9-1.3-.9-2.2s.3-1.6.9-2.2c.6-.6,1.3-.9,2.2-.9Z"/>
        </g>
      </g>
      <g id="text_21">
        <g>
          <path id="DejaVuSans-39" d="M1010.1,153.3v-1.8c.5.2,1,.4,1.5.5.5.1,1,.2,1.5.2,1.3,0,2.3-.4,3-1.3.7-.9,1.1-2.2,1.2-4-.4.6-.9,1-1.4,1.3-.6.3-1.2.5-1.9.5-1.5,0-2.6-.4-3.5-1.3-.9-.9-1.3-2.1-1.3-3.6s.4-2.7,1.3-3.6c.9-.9,2.1-1.4,3.5-1.4s3,.6,3.9,1.9c.9,1.3,1.3,3.2,1.3,5.6s-.5,4.1-1.6,5.5c-1.1,1.4-2.6,2.1-4.4,2.1s-1,0-1.5-.1c-.5,0-1-.2-1.6-.4ZM1014,147.1c.9,0,1.6-.3,2.1-.9.5-.6.8-1.4.8-2.5s-.3-1.9-.8-2.5c-.5-.6-1.2-.9-2.1-.9s-1.6.3-2.1.9c-.5.6-.8,1.4-.8,2.5s.3,1.9.8,2.5c.5.6,1.2.9,2.1.9Z"/>
          <path id="DejaVuSans-3016" data-name="DejaVuSans-30" d="M1027,140.3c-1,0-1.8.5-2.3,1.5-.5,1-.8,2.5-.8,4.5s.3,3.5.8,4.5c.5,1,1.3,1.5,2.3,1.5s1.8-.5,2.3-1.5c.5-1,.8-2.5.8-4.5s-.3-3.5-.8-4.5c-.5-1-1.3-1.5-2.3-1.5ZM1027,138.8c1.6,0,2.9.6,3.7,1.9.9,1.3,1.3,3.2,1.3,5.6s-.4,4.3-1.3,5.6c-.9,1.3-2.1,1.9-3.7,1.9s-2.9-.6-3.7-1.9c-.9-1.3-1.3-3.2-1.3-5.6s.4-4.3,1.3-5.6c.9-1.3,2.1-1.9,3.7-1.9Z"/>
          <path id="DejaVuSans-b04" data-name="DejaVuSans-b0" d="M1038.4,140c-.5,0-1,.2-1.3.5-.4.4-.5.8-.5,1.3s.2.9.5,1.3.8.5,1.3.5,1-.2,1.3-.5c.4-.4.5-.8.5-1.3s-.2-1-.5-1.3c-.4-.4-.8-.5-1.3-.5ZM1038.4,138.8c.4,0,.8,0,1.2.2.4.2.7.4,1,.7.3.3.5.6.7,1,.2.4.2.8.2,1.2,0,.9-.3,1.6-.9,2.2s-1.3.9-2.2.9-1.6-.3-2.2-.9c-.6-.6-.9-1.3-.9-2.2s.3-1.6.9-2.2c.6-.6,1.3-.9,2.2-.9Z"/>
        </g>
      </g>
      <g id="text_22">
        <g>
          <path id="DejaVuSans-3110" data-name="DejaVuSans-31" d="M812.3,231.4h3.2v-11.1l-3.5.7v-1.8l3.5-.7h2v12.9h3.2v1.7h-8.4v-1.7Z"/>
          <path id="DejaVuSans-33" d="M830.7,225.2c.9.2,1.7.6,2.2,1.3.5.6.8,1.4.8,2.4,0,1.4-.5,2.6-1.5,3.3-1,.8-2.4,1.2-4.2,1.2s-1.2,0-1.9-.2c-.6-.1-1.3-.3-2-.5v-1.9c.5.3,1.1.6,1.8.7.7.2,1.3.2,2,.2,1.2,0,2.2-.2,2.8-.7s1-1.2,1-2.1-.3-1.5-.9-2c-.6-.5-1.4-.7-2.5-.7h-1.7v-1.6h1.8c1,0,1.7-.2,2.2-.6s.8-.9.8-1.7-.3-1.3-.8-1.7c-.5-.4-1.3-.6-2.3-.6s-1.1,0-1.7.2c-.6.1-1.3.3-2,.5v-1.8c.8-.2,1.5-.4,2.1-.5s1.3-.2,1.9-.2c1.5,0,2.7.3,3.6,1,.9.7,1.3,1.6,1.3,2.8s-.2,1.5-.7,2-1.1.9-2,1.2Z"/>
          <path id="DejaVuSans-359" data-name="DejaVuSans-35" d="M837.4,218.4h7.7v1.7h-5.9v3.6c.3,0,.6-.2.9-.2.3,0,.6,0,.9,0,1.6,0,2.9.4,3.9,1.3,1,.9,1.4,2.1,1.4,3.6s-.5,2.8-1.5,3.7c-1,.9-2.4,1.3-4.1,1.3s-1.2,0-1.9-.2c-.6-.1-1.3-.3-2-.5v-2c.6.3,1.2.6,1.8.7s1.3.2,2,.2c1.1,0,2-.3,2.7-.9.7-.6,1-1.4,1-2.4s-.3-1.8-1-2.4c-.7-.6-1.5-.9-2.7-.9s-1.1,0-1.6.2c-.5.1-1.1.3-1.6.5v-7.3Z"/>
          <path id="DejaVuSans-b05" data-name="DejaVuSans-b0" d="M853,219.4c-.5,0-1,.2-1.3.5-.4.4-.5.8-.5,1.3s.2.9.5,1.3.8.5,1.3.5,1-.2,1.3-.5c.4-.4.5-.8.5-1.3s-.2-1-.5-1.3c-.4-.4-.8-.5-1.3-.5ZM853,218.2c.4,0,.8,0,1.2.2.4.2.7.4,1,.7.3.3.5.6.7,1,.2.4.2.8.2,1.2,0,.9-.3,1.6-.9,2.2s-1.3.9-2.2.9-1.6-.3-2.2-.9c-.6-.6-.9-1.3-.9-2.2s.3-1.6.9-2.2c.6-.6,1.3-.9,2.2-.9Z"/>
        </g>
      </g>
      <g id="text_23">
        <g>
          <path id="DejaVuSans-3111" data-name="DejaVuSans-31" d="M732.9,423.1h3.2v-11.1l-3.5.7v-1.8l3.5-.7h2v12.9h3.2v1.7h-8.4v-1.7Z"/>
          <path id="DejaVuSans-381" data-name="DejaVuSans-38" d="M749.5,417.8c-.9,0-1.7.3-2.2.8-.5.5-.8,1.2-.8,2.1s.3,1.6.8,2.1c.5.5,1.3.8,2.2.8s1.7-.3,2.2-.8c.5-.5.8-1.2.8-2.1s-.3-1.6-.8-2.1c-.5-.5-1.3-.8-2.2-.8ZM747.5,417c-.8-.2-1.5-.6-2-1.2-.5-.6-.7-1.3-.7-2.1s.4-2.1,1.2-2.8c.8-.7,2-1,3.4-1s2.6.3,3.4,1,1.2,1.6,1.2,2.8-.2,1.5-.7,2.1c-.5.6-1.1,1-2,1.2,1,.2,1.7.7,2.2,1.3.5.6.8,1.4.8,2.4,0,1.4-.4,2.5-1.3,3.3-.9.8-2.1,1.1-3.7,1.1s-2.8-.4-3.7-1.1c-.9-.8-1.3-1.8-1.3-3.3s.3-1.7.8-2.4c.5-.6,1.3-1.1,2.2-1.3ZM746.8,413.9c0,.8.2,1.3.7,1.8.5.4,1.1.6,2,.6s1.5-.2,2-.6c.5-.4.7-1,.7-1.8s-.2-1.3-.7-1.8c-.5-.4-1.1-.6-2-.6s-1.5.2-2,.6c-.5.4-.7,1-.7,1.8Z"/>
          <path id="DejaVuSans-3017" data-name="DejaVuSans-30" d="M762.2,411.5c-1,0-1.8.5-2.3,1.5-.5,1-.8,2.5-.8,4.5s.3,3.5.8,4.5c.5,1,1.3,1.5,2.3,1.5s1.8-.5,2.3-1.5c.5-1,.8-2.5.8-4.5s-.3-3.5-.8-4.5c-.5-1-1.3-1.5-2.3-1.5ZM762.2,409.9c1.6,0,2.9.6,3.7,1.9.9,1.3,1.3,3.2,1.3,5.6s-.4,4.3-1.3,5.6c-.9,1.3-2.1,1.9-3.7,1.9s-2.9-.6-3.7-1.9c-.9-1.3-1.3-3.2-1.3-5.6s.4-4.3,1.3-5.6c.9-1.3,2.1-1.9,3.7-1.9Z"/>
          <path id="DejaVuSans-b06" data-name="DejaVuSans-b0" d="M773.6,411.2c-.5,0-1,.2-1.3.5-.4.4-.5.8-.5,1.3s.2.9.5,1.3.8.5,1.3.5,1-.2,1.3-.5c.4-.4.5-.8.5-1.3s-.2-1-.5-1.3c-.4-.4-.8-.5-1.3-.5ZM773.6,409.9c.4,0,.8,0,1.2.2.4.2.7.4,1,.7.3.3.5.6.7,1,.2.4.2.8.2,1.2,0,.9-.3,1.6-.9,2.2s-1.3.9-2.2.9-1.6-.3-2.2-.9c-.6-.6-.9-1.3-.9-2.2s.3-1.6.9-2.2c.6-.6,1.3-.9,2.2-.9Z"/>
        </g>
      </g>
      <g id="text_24">
        <g>
          <path id="DejaVuSans-32" d="M813.7,614.8h6.9v1.7h-9.3v-1.7c.7-.8,1.8-1.8,3.1-3.1,1.3-1.3,2.1-2.1,2.4-2.5.6-.7,1.1-1.3,1.3-1.8.3-.5.4-1,.4-1.5,0-.8-.3-1.4-.8-1.9-.5-.5-1.3-.7-2.1-.7s-1.3.1-2,.3c-.7.2-1.4.5-2.2,1v-2c.8-.3,1.5-.6,2.2-.7.7-.2,1.3-.2,1.9-.2,1.5,0,2.7.4,3.6,1.1.9.8,1.3,1.8,1.3,3s-.1,1.2-.3,1.7c-.2.5-.6,1.2-1.2,1.9-.2.2-.7.7-1.6,1.6-.9.9-2.1,2.2-3.7,3.8Z"/>
          <path id="DejaVuSans-321" data-name="DejaVuSans-32" d="M826.4,614.8h6.9v1.7h-9.3v-1.7c.7-.8,1.8-1.8,3.1-3.1,1.3-1.3,2.1-2.1,2.4-2.5.6-.7,1.1-1.3,1.3-1.8.3-.5.4-1,.4-1.5,0-.8-.3-1.4-.8-1.9-.5-.5-1.3-.7-2.1-.7s-1.3.1-2,.3c-.7.2-1.4.5-2.2,1v-2c.8-.3,1.5-.6,2.2-.7.7-.2,1.3-.2,1.9-.2,1.5,0,2.7.4,3.6,1.1.9.8,1.3,1.8,1.3,3s-.1,1.2-.3,1.7c-.2.5-.6,1.2-1.2,1.9-.2.2-.7.7-1.6,1.6-.9.9-2.1,2.2-3.7,3.8Z"/>
          <path id="DejaVuSans-3510" data-name="DejaVuSans-35" d="M837.4,601.9h7.7v1.7h-5.9v3.6c.3,0,.6-.2.9-.2.3,0,.6,0,.9,0,1.6,0,2.9.4,3.9,1.3,1,.9,1.4,2.1,1.4,3.6s-.5,2.8-1.5,3.7c-1,.9-2.4,1.3-4.1,1.3s-1.2,0-1.9-.2c-.6-.1-1.3-.3-2-.5v-2c.6.3,1.2.6,1.8.7s1.3.2,2,.2c1.1,0,2-.3,2.7-.9.7-.6,1-1.4,1-2.4s-.3-1.8-1-2.4c-.7-.6-1.5-.9-2.7-.9s-1.1,0-1.6.2c-.5.1-1.1.3-1.6.5v-7.3Z"/>
          <path id="DejaVuSans-b07" data-name="DejaVuSans-b0" d="M853,602.9c-.5,0-1,.2-1.3.5-.4.4-.5.8-.5,1.3s.2.9.5,1.3.8.5,1.3.5,1-.2,1.3-.5c.4-.4.5-.8.5-1.3s-.2-1-.5-1.3c-.4-.4-.8-.5-1.3-.5ZM853,601.6c.4,0,.8,0,1.2.2.4.2.7.4,1,.7.3.3.5.6.7,1,.2.4.2.8.2,1.2,0,.9-.3,1.6-.9,2.2s-1.3.9-2.2.9-1.6-.3-2.2-.9c-.6-.6-.9-1.3-.9-2.2s.3-1.6.9-2.2c.6-.6,1.3-.9,2.2-.9Z"/>
        </g>
      </g>
      <g id="text_25">
        <g>
          <path id="DejaVuSans-322" data-name="DejaVuSans-32" d="M1005.4,694.2h6.9v1.7h-9.3v-1.7c.7-.8,1.8-1.8,3.1-3.1,1.3-1.3,2.1-2.1,2.4-2.5.6-.7,1.1-1.3,1.3-1.8.3-.5.4-1,.4-1.5,0-.8-.3-1.4-.8-1.9-.5-.5-1.3-.7-2.1-.7s-1.3.1-2,.3c-.7.2-1.4.5-2.2,1v-2c.8-.3,1.5-.6,2.2-.7.7-.2,1.3-.2,1.9-.2,1.5,0,2.7.4,3.6,1.1.9.8,1.3,1.8,1.3,3s-.1,1.2-.3,1.7c-.2.5-.6,1.2-1.2,1.9-.2.2-.7.7-1.6,1.6-.9.9-2.1,2.2-3.7,3.8Z"/>
          <path id="DejaVuSans-37" d="M1015.9,681.3h9.4v.8l-5.3,13.7h-2.1l5-12.9h-7v-1.7Z"/>
          <path id="DejaVuSans-3018" data-name="DejaVuSans-30" d="M1033.4,682.6c-1,0-1.8.5-2.3,1.5-.5,1-.8,2.5-.8,4.5s.3,3.5.8,4.5c.5,1,1.3,1.5,2.3,1.5s1.8-.5,2.3-1.5c.5-1,.8-2.5.8-4.5s-.3-3.5-.8-4.5c-.5-1-1.3-1.5-2.3-1.5ZM1033.4,681.1c1.6,0,2.9.6,3.7,1.9.9,1.3,1.3,3.2,1.3,5.6s-.4,4.3-1.3,5.6c-.9,1.3-2.1,1.9-3.7,1.9s-2.9-.6-3.7-1.9c-.9-1.3-1.3-3.2-1.3-5.6s.4-4.3,1.3-5.6c.9-1.3,2.1-1.9,3.7-1.9Z"/>
          <path id="DejaVuSans-b08" data-name="DejaVuSans-b0" d="M1044.7,682.3c-.5,0-1,.2-1.3.5-.4.4-.5.8-.5,1.3s.2.9.5,1.3.8.5,1.3.5,1-.2,1.3-.5c.4-.4.5-.8.5-1.3s-.2-1-.5-1.3c-.4-.4-.8-.5-1.3-.5ZM1044.7,681.1c.4,0,.8,0,1.2.2.4.2.7.4,1,.7.3.3.5.6.7,1,.2.4.2.8.2,1.2,0,.9-.3,1.6-.9,2.2s-1.3.9-2.2.9-1.6-.3-2.2-.9c-.6-.6-.9-1.3-.9-2.2s.3-1.6.9-2.2c.6-.6,1.3-.9,2.2-.9Z"/>
        </g>
      </g>
      <g id="text_26">
        <g>
          <path id="DejaVuSans-331" data-name="DejaVuSans-33" d="M1201.4,608.6c.9.2,1.7.6,2.2,1.3.5.6.8,1.4.8,2.4,0,1.4-.5,2.6-1.5,3.3-1,.8-2.4,1.2-4.2,1.2s-1.2,0-1.9-.2c-.6-.1-1.3-.3-2-.5v-1.9c.5.3,1.1.6,1.8.7.7.2,1.3.2,2,.2,1.2,0,2.2-.2,2.8-.7s1-1.2,1-2.1-.3-1.5-.9-2c-.6-.5-1.4-.7-2.5-.7h-1.7v-1.6h1.8c1,0,1.7-.2,2.2-.6s.8-.9.8-1.7-.3-1.3-.8-1.7c-.5-.4-1.3-.6-2.3-.6s-1.1,0-1.7.2c-.6.1-1.3.3-2,.5v-1.8c.8-.2,1.5-.4,2.1-.5s1.3-.2,1.9-.2c1.5,0,2.7.3,3.6,1,.9.7,1.3,1.6,1.3,2.8s-.2,1.5-.7,2-1.1.9-2,1.2Z"/>
          <path id="DejaVuSans-3112" data-name="DejaVuSans-31" d="M1208.5,614.8h3.2v-11.1l-3.5.7v-1.8l3.5-.7h2v12.9h3.2v1.7h-8.4v-1.7Z"/>
          <path id="DejaVuSans-3511" data-name="DejaVuSans-35" d="M1220.9,601.9h7.7v1.7h-5.9v3.6c.3,0,.6-.2.9-.2.3,0,.6,0,.9,0,1.6,0,2.9.4,3.9,1.3,1,.9,1.4,2.1,1.4,3.6s-.5,2.8-1.5,3.7c-1,.9-2.4,1.3-4.1,1.3s-1.2,0-1.9-.2c-.6-.1-1.3-.3-2-.5v-2c.6.3,1.2.6,1.8.7s1.3.2,2,.2c1.1,0,2-.3,2.7-.9.7-.6,1-1.4,1-2.4s-.3-1.8-1-2.4c-.7-.6-1.5-.9-2.7-.9s-1.1,0-1.6.2c-.5.1-1.1.3-1.6.5v-7.3Z"/>
          <path id="DejaVuSans-b09" data-name="DejaVuSans-b0" d="M1236.5,602.9c-.5,0-1,.2-1.3.5-.4.4-.5.8-.5,1.3s.2.9.5,1.3.8.5,1.3.5,1-.2,1.3-.5c.4-.4.5-.8.5-1.3s-.2-1-.5-1.3c-.4-.4-.8-.5-1.3-.5ZM1236.5,601.6c.4,0,.8,0,1.2.2.4.2.7.4,1,.7.3.3.5.6.7,1,.2.4.2.8.2,1.2,0,.9-.3,1.6-.9,2.2s-1.3.9-2.2.9-1.6-.3-2.2-.9c-.6-.6-.9-1.3-.9-2.2s.3-1.6.9-2.2c.6-.6,1.3-.9,2.2-.9Z"/>
        </g>
      </g>
    </g>
  </g>
</svg>