<?xml version="1.0" encoding="UTF-8"?>
<svg id="Ebene_1" xmlns="http://www.w3.org/2000/svg" version="1.1" viewBox="0 0 1237.7 201.3">
  <!-- Generator: Adobe Illustrator 29.4.0, SVG Export Plug-In . SVG Version: 2.1.0 Build 152)  -->
  <defs>
    <style>
      .st0 {
        fill: #88847e;
      }

      .st1 {
        stroke-width: .7px;
      }

      .st1, .st2, .st3 {
        fill: none;
        stroke: #020203;
      }

      .st4 {
        fill: #4493c3;
      }

      .st5 {
        fill: #fff;
      }

      .st2 {
        stroke-width: 3px;
      }

      .st2, .st3 {
        stroke-dasharray: 3.7 2.9 1.5 3.7 2.9 1.5;
      }

      .st3 {
        stroke-width: 4px;
      }
    </style>
  </defs>
  <rect class="st4" x="307.1" y="15.3" width="300" height="168"/>
  <rect class="st3" x="307.1" y="15.3" width="300" height="168"/>
  <rect class="st0" x="343.1" y="69.3" width="222" height="42"/>
  <rect class="st1" x="343.1" y="69.3" width="222" height="42"/>
  <rect class="st0" x="343.1" y="111.3" width="222" height="42"/>
  <rect class="st1" x="343.1" y="111.3" width="222" height="42"/>
  <path class="st5" d="M513.2,39l2.1-8.6c.3-1.1.5-1.1,1.5-1.1h2.7c2.2,0,3.8.8,3.8,2.8s-.5,3.7-1.7,5.1c-1.1,1.2-2.7,1.8-4.6,1.8h-4ZM505.2,49.4c0,.4.3.4.4.4,1.2,0,2.5,0,3.7,0s2.6,0,3.8,0,.6,0,.6-.6-.2-.4-.9-.4c-1.8,0-1.8-.3-1.8-.5s0-.2.1-.6l1.9-7.8h4.9c4,0,8.2-3.2,8.2-6.9s-2.1-4.7-5.6-4.7h-9.4c-.5,0-.9,0-.9.6s.3.4.9.4c1,0,1.8,0,1.8.5s0,.2-.1.6l-4.3,17.1c-.3,1.1-.4,1.3-2.6,1.3s-.9,0-.9.6ZM485.4,42.1c0,5.2,3.4,8.4,7.7,8.4s9.6-6.7,9.6-8.3-.3-.3-.5-.3-.4,0-.5.3c-1.6,5.3-5.5,7.3-8.2,7.3s-5.4-1.8-5.4-6.2.8-6.9,3.3-10.4c2.1-2.9,5-4.3,7.5-4.3s4.5,3,4.5,5.8-.2,1.8-.2,1.9c0,.3.3.3.5.3.3,0,.4,0,.6-.6l1.9-7.7c0-.1,0-.3,0-.4s0-.3-.3-.3-.2,0-.5.3l-2,2.3c-1.4-2.2-3.2-2.7-4.8-2.7-6.5,0-13.3,7.1-13.3,14.5ZM472.1,43.5c0,.4.3.4.7.4h6.3c.2,0,.3,0,.5,0,.3-.2.4-1.2.4-1.2,0-.4-.3-.4-.7-.4h-6.3c-.2,0-.3,0-.4,0-.4.2-.5,1.3-.5,1.3ZM452.4,44.6c0,3.8,2.6,5.9,5.6,5.9s7.5-4.1,8.3-7.6l2.9-11.5c.5-2,2.3-2.1,3.2-2.1,0,0,.5,0,.5-.6s-.1-.4-.4-.4c-.9,0-2,0-3,0s-2,0-3,0-.6,0-.6.6.3.4.6.4c1.6,0,1.9.7,1.9,1.4s0,.5-.1.8l-2.8,11.2c-1,4.1-4.3,6.9-7.3,6.9s-3.4-1.1-3.4-3.9.2-1.7.3-2.4l3.1-12.7c.3-1,.5-1.3,2.5-1.3s.9,0,.9-.6-.2-.4-.4-.4c-1.2,0-2.5,0-3.7,0s-2.6,0-3.8,0-.6,0-.6.6.3.4.9.4c1,0,1.8,0,1.8.5s0,.2-.1.6l-3,12.2c-.3,1-.3,1.7-.3,2ZM428.2,42.1c0,5.2,3.4,8.4,7.7,8.4s9.6-6.7,9.6-8.3-.3-.3-.5-.3-.4,0-.5.3c-1.6,5.3-5.5,7.3-8.2,7.3s-5.4-1.8-5.4-6.2.8-6.9,3.3-10.4c2.1-2.9,5-4.3,7.5-4.3s4.5,3,4.5,5.8-.2,1.8-.2,1.9c0,.3.3.3.5.3.3,0,.4,0,.6-.6l1.9-7.7c0-.1,0-.3,0-.4s0-.3-.3-.3-.2,0-.5.3l-2,2.3c-1.4-2.2-3.2-2.7-4.8-2.7-6.5,0-13.3,7.1-13.3,14.5ZM414.9,43.5c0,.4.3.4.7.4h6.3c.2,0,.3,0,.5,0,.3-.2.4-1.2.4-1.2,0-.4-.3-.4-.7-.4h-6.3c-.2,0-.3,0-.4,0-.4.2-.5,1.3-.5,1.3ZM395.6,43.3c0-1.4.4-5.9,2.6-9.7,1.7-3,4.5-5.3,7.3-5.3s4.7,1.9,4.7,6.1-1.1,7-2.8,9.8c-2,3.5-4.9,5.4-7.2,5.4s-4.6-2.6-4.6-6.3ZM392.8,42.4c0,4.8,3,8.1,7.2,8.1,6.3,0,12.9-7.1,12.9-14.7s-3.2-8.2-7.2-8.2c-6.5,0-13,7.5-13,14.8Z"/>
  <path class="st5" d="M468.3,90c0,6.5,5.1,11.5,11,11.5s8.2-4.4,8.2-8,0-.5-.4-.5-.3.2-.4.5c-.3,4.5-3.6,7.1-7.1,7.1s-8.1-1.1-8.1-10.5,6.1-10.5,8.1-10.5c3.4,0,6.2,2.9,6.9,7.5,0,.4,0,.5.5.5s.5,0,.5-.8v-7.5c0-.5,0-.8-.3-.8s-.3,0-.5.4l-1.6,2.3c-1.2-1.1-2.8-2.7-5.8-2.7-5.9,0-11,5-11,11.4ZM451.3,89.7v-8.2c0-.7,0-1.1.7-1.2.3,0,1.2,0,1.9,0,2.8,0,6.4.1,6.4,4.7s-.8,4.7-5.4,4.7h-3.5ZM445.4,100.8c1.1,0,3.4,0,4.6,0s3.5,0,4.6,0v-1h-.8c-2.4,0-2.5-.3-2.5-1.5v-8h3.6c.5,0,1.8,0,2.9,1.1,1.2,1.1,1.2,2.1,1.2,4.2s0,3.3,1.3,4.5c1.3,1.1,3,1.3,4,1.3,2.5,0,3-2.6,3-3.5s0-.5-.4-.5-.3.3-.4.5c-.2,2.2-1.3,2.8-2.1,2.8-1.5,0-1.8-1.6-2.2-4.5l-.4-2.5c-.6-2-2.1-3.1-3.8-3.7,3.1-.8,5.5-2.7,5.5-5.1s-3.6-5.7-8.2-5.7h-9.9v1h.8c2.4,0,2.5.3,2.5,1.5v16.6c0,1.1,0,1.5-2.5,1.5h-.8v1ZM428.2,89.7v-8.2c0-.7,0-1.1.7-1.2.3,0,1.2,0,1.9,0,2.8,0,6.4.1,6.4,4.7s-.8,4.7-5.4,4.7h-3.5ZM422.2,100.8c1.1,0,3.4,0,4.6,0s3.5,0,4.6,0v-1h-.8c-2.4,0-2.5-.3-2.5-1.5v-8h3.6c.5,0,1.8,0,2.9,1.1,1.2,1.1,1.2,2.1,1.2,4.2s0,3.3,1.3,4.5c1.3,1.1,3,1.3,4,1.3,2.5,0,3-2.6,3-3.5s0-.5-.4-.5-.3.3-.4.5c-.2,2.2-1.3,2.8-2.1,2.8-1.5,0-1.8-1.6-2.2-4.5l-.4-2.5c-.6-2-2.1-3.1-3.8-3.7,3.1-.8,5.5-2.7,5.5-5.1s-3.6-5.7-8.2-5.7h-9.9v1h.8c2.4,0,2.5.3,2.5,1.5v16.6c0,1.1,0,1.5-2.5,1.5h-.8v1Z"/>
  <path class="st5" d="M490.3,132v-8.5c0-1,0-1.3,1.5-1.3h2.8c5,0,5,3.3,5,4.9s0,4.9-5,4.9h-4.3ZM484.4,142.8c1.1,0,3.4,0,4.6,0s3.6,0,4.7,0v-1h-.8c-2.4,0-2.5-.3-2.5-1.5v-7.5h5.3c3.8,0,7.2-2.6,7.2-5.7s-3.1-5.9-7.4-5.9h-11.1v1h.8c2.4,0,2.5.3,2.5,1.5v16.6c0,1.1,0,1.5-2.5,1.5h-.8v1ZM462.3,132c0,6.5,5.1,11.5,11,11.5s8.2-4.4,8.2-8,0-.5-.4-.5-.3.2-.4.5c-.3,4.5-3.6,7.1-7.1,7.1s-8.1-1.1-8.1-10.5,6.1-10.5,8.1-10.5c3.4,0,6.2,2.9,6.9,7.5,0,.4,0,.5.5.5s.5,0,.5-.8v-7.5c0-.5,0-.8-.3-.8s-.3,0-.5.4l-1.6,2.3c-1.2-1.1-2.8-2.7-5.8-2.7-5.9,0-11,5-11,11.4ZM443.6,140.5v-17c0-1,0-1.3,1.5-1.3h3.1c2,0,4.1.7,5.7,2.9,1.4,1.9,1.6,4.6,1.6,7,0,3.5-.6,5.4-1.7,6.9-.6.9-2.4,2.7-5.6,2.7h-3.2c-1.5,0-1.5-.2-1.5-1.3ZM437.6,142.8h11.5c5.3,0,9.6-4.7,9.6-10.6s-4.3-10.9-9.6-10.9h-11.5v1h.8c2.4,0,2.5.3,2.5,1.5v16.6c0,1.1,0,1.5-2.5,1.5h-.8v1ZM422.1,132v-8.5c0-1,0-1.3,1.5-1.3h2.8c5,0,5,3.3,5,4.9s0,4.9-5,4.9h-4.3ZM416.2,142.8c1.1,0,3.4,0,4.6,0s3.6,0,4.7,0v-1h-.8c-2.4,0-2.5-.3-2.5-1.5v-7.5h5.3c3.8,0,7.2-2.6,7.2-5.7s-3.1-5.9-7.4-5.9h-11.1v1h.8c2.4,0,2.5.3,2.5,1.5v16.6c0,1.1,0,1.5-2.5,1.5h-.8v1Z"/>
  <rect class="st4" x="659.4" y="16.7" width="297.5" height="166.6"/>
  <rect class="st2" x="659.4" y="16.7" width="297.5" height="166.6"/>
  <rect class="st0" x="695.1" y="70.3" width="220.2" height="41.7"/>
  <rect class="st1" x="695.1" y="70.3" width="220.2" height="41.7"/>
  <rect class="st0" x="695.1" y="111.9" width="220.2" height="41.7"/>
  <rect class="st1" x="695.1" y="111.9" width="220.2" height="41.7"/>
  <path class="st5" d="M864.6,40.3l2.1-8.6c.3-1.1.5-1.1,1.5-1.1h2.7c2.2,0,3.8.8,3.8,2.8s-.5,3.7-1.7,5.1c-1.1,1.2-2.7,1.8-4.5,1.8h-3.9ZM856.7,50.6c0,.4.3.4.4.4,1.2,0,2.5,0,3.7,0s2.5,0,3.7,0,.6,0,.6-.6-.2-.4-.8-.4c-1.8,0-1.8-.2-1.8-.5s0-.2.1-.6l1.9-7.7h4.8c3.9,0,8.2-3.2,8.2-6.8s-2.1-4.6-5.5-4.6h-9.4c-.5,0-.8,0-.8.6s.2.4.8.4c1,0,1.8,0,1.8.5s0,.2-.1.6l-4.2,17c-.2,1.1-.4,1.3-2.6,1.3s-.8,0-.8.6ZM837.8,45.8c0,3.7,2.6,5.9,5.6,5.9s7.4-4.1,8.3-7.5l2.8-11.4c.5-2,2.2-2.1,3.2-2.1,0,0,.5,0,.5-.6s-.1-.4-.4-.4c-.9,0-2,0-2.9,0s-2,0-3,0-.6,0-.6.6.3.4.6.4c1.6,0,1.9.7,1.9,1.3s0,.5-.1.7l-2.8,11.1c-1,4-4.3,6.9-7.2,6.9s-3.3-1.1-3.3-3.9.2-1.7.3-2.4l3.1-12.6c.3-1,.5-1.2,2.5-1.2s.9,0,.9-.6-.2-.4-.4-.4c-1.2,0-2.5,0-3.7,0s-2.5,0-3.7,0-.6,0-.6.6.2.4.8.4c1,0,1.8,0,1.8.5s0,.2-.1.6l-3,12.1c-.3,1-.3,1.7-.3,2ZM823,44.7c0,.4.3.4.7.4h6.2c.2,0,.3,0,.5,0,.3-.2.4-1.2.4-1.2,0-.4-.3-.4-.7-.4h-6.2c-.2,0-.3,0-.4,0-.4.2-.5,1.2-.5,1.2ZM803.4,45.8c0,3.7,2.6,5.9,5.6,5.9s7.4-4.1,8.3-7.5l2.8-11.4c.5-2,2.2-2.1,3.2-2.1,0,0,.5,0,.5-.6s-.1-.4-.4-.4c-.9,0-2,0-2.9,0s-2,0-3,0-.6,0-.6.6.3.4.6.4c1.6,0,1.9.7,1.9,1.3s0,.5-.1.7l-2.8,11.1c-1,4-4.3,6.9-7.2,6.9s-3.3-1.1-3.3-3.9.2-1.7.3-2.4l3.1-12.6c.2-1,.5-1.2,2.5-1.2s.9,0,.9-.6-.2-.4-.4-.4c-1.2,0-2.5,0-3.7,0s-2.5,0-3.7,0-.6,0-.6.6.3.4.8.4c1,0,1.8,0,1.8.5s0,.2-.1.6l-3,12.1c-.2,1-.2,1.7-.2,2ZM779.4,43.3c0,5.1,3.3,8.3,7.7,8.3s9.5-6.7,9.5-8.2-.3-.3-.5-.3-.4,0-.5.2c-1.6,5.3-5.5,7.3-8.1,7.3s-5.4-1.7-5.4-6.2.8-6.8,3.3-10.3c2.1-2.9,5-4.3,7.4-4.3s4.4,3,4.4,5.7-.2,1.8-.2,1.9c0,.3.3.3.5.3.3,0,.4,0,.6-.6l1.9-7.6c0-.1,0-.3,0-.4s0-.3-.3-.3-.2,0-.5.3l-2,2.3c-1.3-2.2-3.2-2.7-4.7-2.7-6.4,0-13.2,7-13.2,14.4ZM766.3,44.7c0,.4.3.4.7.4h6.2c.2,0,.3,0,.5,0,.3-.2.4-1.2.4-1.2,0-.4-.3-.4-.7-.4h-6.2c-.2,0-.3,0-.4,0-.4.2-.5,1.2-.5,1.2ZM747.1,44.6c0-1.4.4-5.8,2.6-9.6,1.7-2.9,4.5-5.2,7.2-5.2s4.7,1.9,4.7,6.1-1.1,6.9-2.8,9.7c-2,3.5-4.8,5.3-7.2,5.3s-4.6-2.6-4.6-6.3ZM744.3,43.6c0,4.7,2.9,8.1,7.2,8.1,6.2,0,12.8-7,12.8-14.6s-3.2-8.2-7.1-8.2c-6.4,0-12.9,7.4-12.9,14.7Z"/>
  <path class="st5" d="M837.1,90.9v-8.4c0-1,0-1.2,1.5-1.2h2.8c5,0,5,3.3,5,4.8s0,4.8-5,4.8h-4.3ZM831.2,101.5c1.1,0,3.4,0,4.6,0s3.5,0,4.6,0v-1h-.7c-2.4,0-2.5-.3-2.5-1.5v-7.4h5.3c3.7,0,7.1-2.5,7.1-5.7s-3.1-5.8-7.4-5.8h-11v1h.7c2.4,0,2.5.3,2.5,1.5v16.5c0,1.1,0,1.5-2.5,1.5h-.7v1ZM814,93.4l3.5-10.2,3.5,10.2h-7ZM807.7,101.5c.7,0,2.1,0,3.2,0s2.6,0,3.6,0v-1c-1.6,0-2.3-.8-2.3-1.6s0-.4,0-.5l1.4-4.1h7.7l1.7,4.8c0,.1,0,.3,0,.4,0,.9-1.7.9-2.6.9v1c1.1,0,3.3,0,4.5,0s2.8,0,4.1,0v-1h-.6c-1.9,0-2.3-.2-2.7-1.2l-6.7-19.5c-.2-.4-.2-.6-.7-.6s-.6.2-.7.6l-6.5,18.7c-.6,1.6-1.8,2.1-3.5,2.1v1ZM790.8,99.3v-16.9c0-1,0-1.2,1.5-1.2h3.1c1.9,0,4.1.7,5.7,2.9,1.3,1.8,1.6,4.5,1.6,7,0,3.5-.6,5.3-1.7,6.9-.6.8-2.4,2.7-5.6,2.7h-3.2c-1.5,0-1.5-.2-1.5-1.2ZM784.8,101.5h11.4c5.2,0,9.6-4.6,9.6-10.5s-4.2-10.8-9.6-10.8h-11.4v1h.7c2.4,0,2.5.3,2.5,1.5v16.5c0,1.1,0,1.5-2.5,1.5h-.7v1ZM768.2,101.5c0,.5,0,.7.3.7s.3,0,.5-.4c0,0,0-.1,1.1-1.8,1,1.1,3,2.2,5.7,2.2s6.2-3.1,6.2-6.5-2.1-5.7-4.7-6.3l-4-1c-1.9-.5-3.2-2.2-3.2-4s1.7-4.1,4.1-4.1c5.2,0,5.9,5.1,6.1,6.5,0,.2,0,.4.4.4s.4-.2.4-.7v-6.3c0-.5,0-.7-.3-.7s-.2,0-.5.4l-1.1,1.8c-.9-.9-2.2-2.2-5-2.2s-6.1,2.7-6.1,6.1,1.7,4.9,4.1,5.7c.3.1,1.9.5,4.1,1,.8.2,1.8.4,2.7,1.6.7.8,1,1.8,1,2.9,0,2.2-1.6,4.5-4.2,4.5s-3.3-.2-4.9-1.7c-1.8-1.7-1.9-3.7-1.9-4.8,0-.3-.3-.3-.4-.3-.4,0-.4.2-.4.8v6.2Z"/>
  <path class="st5" d="M841,132.5v-8.4c0-1,0-1.2,1.5-1.2h2.8c5,0,5,3.3,5,4.8s0,4.8-5,4.8h-4.3ZM835.1,143.2c1.1,0,3.4,0,4.6,0s3.5,0,4.6,0v-1h-.7c-2.4,0-2.5-.3-2.5-1.5v-7.4h5.3c3.7,0,7.1-2.5,7.1-5.7s-3.1-5.8-7.4-5.8h-11v1h.7c2.4,0,2.5.3,2.5,1.5v16.5c0,1.1,0,1.5-2.5,1.5h-.7v1ZM813.2,132.5c0,6.5,5.1,11.4,10.9,11.4s8.2-4.3,8.2-8,0-.5-.4-.5-.3.2-.4.5c-.3,4.5-3.6,7-7,7s-8-1.1-8-10.4,6.1-10.4,8-10.4c3.4,0,6.2,2.8,6.8,7.4,0,.4,0,.5.5.5s.5,0,.5-.7v-7.4c0-.5,0-.7-.3-.7s-.3,0-.5.4l-1.6,2.3c-1.2-1.1-2.7-2.7-5.7-2.7-5.8,0-10.9,5-10.9,11.3ZM794.7,141v-16.9c0-1,0-1.2,1.5-1.2h3.1c1.9,0,4.1.7,5.7,2.9,1.3,1.8,1.6,4.5,1.6,7,0,3.5-.6,5.3-1.7,6.9-.6.8-2.4,2.7-5.6,2.7h-3.2c-1.5,0-1.5-.2-1.5-1.2ZM788.8,143.2h11.4c5.2,0,9.6-4.6,9.6-10.5s-4.2-10.8-9.6-10.8h-11.4v1h.7c2.4,0,2.5.3,2.5,1.5v16.5c0,1.1,0,1.5-2.5,1.5h-.7v1ZM773.4,132.5v-8.4c0-1,0-1.2,1.5-1.2h2.8c5,0,5,3.3,5,4.8s0,4.8-5,4.8h-4.3ZM767.5,143.2c1.1,0,3.4,0,4.6,0s3.5,0,4.6,0v-1h-.7c-2.4,0-2.5-.3-2.5-1.5v-7.4h5.3c3.7,0,7.1-2.5,7.1-5.7s-3.1-5.8-7.4-5.8h-11v1h.7c2.4,0,2.5.3,2.5,1.5v16.5c0,1.1,0,1.5-2.5,1.5h-.7v1Z"/>
</svg>