<?xml version="1.0" encoding="UTF-8"?>
<svg id="Ebene_1" xmlns="http://www.w3.org/2000/svg" version="1.1" viewBox="0 0 2039.6 571.6">
  <!-- Generator: Adobe Illustrator 29.4.0, SVG Export Plug-In . SVG Version: 2.1.0 Build 152)  -->
  <defs>
    <style>
      .st0 {
        fill: #88847e;
      }

      .st1 {
        stroke-width: .7px;
      }

      .st1, .st2, .st3 {
        fill: none;
        stroke: #020203;
      }

      .st4 {
        fill: #4493c3;
      }

      .st5 {
        fill: #fff;
      }

      .st2 {
        stroke-width: 3px;
      }

      .st2, .st3 {
        stroke-dasharray: 3.7 2.9 1.5 3.7 2.9 1.5;
      }

      .st3 {
        stroke-width: 4px;
      }
    </style>
  </defs>
  <rect class="st4" x="3.5" y="20.8" width="934.8" height="523.5"/>
  <rect class="st3" x="3.5" y="20.8" width="934.8" height="523.5"/>
  <rect class="st0" x="115.6" y="189" width="691.7" height="130.9"/>
  <rect class="st1" x="115.6" y="189" width="691.7" height="130.9"/>
  <rect class="st0" x="115.6" y="319.9" width="691.7" height="130.9"/>
  <rect class="st1" x="115.6" y="319.9" width="691.7" height="130.9"/>
  <path class="st5" d="M645.8,94.7l6.7-26.9c.9-3.5,1.6-3.5,4.8-3.5h8.4c6.9,0,11.9,2.6,11.9,8.8s-1.5,11.6-5.2,15.9c-3.4,3.8-8.3,5.7-14.2,5.7h-12.4ZM620.8,127.1c0,1.2,1.1,1.2,1.4,1.2,3.7,0,7.8-.3,11.6-.3s8,.3,11.8.3,1.9,0,1.9-1.8-.7-1.3-2.6-1.3c-5.7,0-5.7-.8-5.7-1.7s0-.6.4-2l6-24.3h15.2c12.4,0,25.6-10,25.6-21.5s-6.7-14.5-17.4-14.5h-29.4c-1.6,0-2.7,0-2.7,1.9s.8,1.2,2.7,1.2c3,0,5.7,0,5.7,1.7s0,.5-.4,1.9l-13.3,53.3c-.8,3.3-1.4,4.1-8,4.1s-2.7,0-2.7,1.9ZM559.2,104.2c0,16.1,10.5,26.2,24,26.2s29.8-21,29.8-25.7-1-1-1.5-1-1.3,0-1.6.8c-5,16.6-17.3,22.9-25.4,22.9s-16.9-5.5-16.9-19.4,2.5-21.5,10.3-32.3c6.7-9,15.7-13.5,23.3-13.5s13.9,9.4,13.9,18-.5,5.7-.5,6c0,1,1,1,1.5,1,1.1,0,1.4,0,1.8-1.8l6-23.9c0-.4.2-1,.2-1.4s0-1-1.1-1-.7,0-1.6,1.1l-6.2,7.3c-4.2-6.8-9.9-8.3-14.8-8.3-20.2,0-41.3,22.1-41.3,45.1ZM517.7,108.6c0,1.3,1,1.4,2.2,1.4h19.6c.5,0,1.1,0,1.5-.3,1.1-.6,1.4-3.7,1.4-3.8,0-1.3-1.1-1.4-2.2-1.4h-19.5c-.5,0-.9,0-1.3.2-1.3.5-1.7,3.9-1.7,3.9ZM456.2,112c0,11.8,8.2,18.5,17.5,18.5s23.4-12.8,26-23.6l8.9-35.9c1.6-6.3,7.1-6.6,9.9-6.7.3,0,1.5,0,1.5-1.8s-.4-1.3-1.3-1.3c-2.9,0-6.2.3-9.2.3s-6.4-.3-9.4-.3-1.8,0-1.8,1.9.9,1.2,1.8,1.2c5.1.2,5.9,2.2,5.9,4.2s-.2,1.6-.4,2.4l-8.7,34.9c-3.1,12.7-13.5,21.6-22.8,21.6s-10.5-3.3-10.5-12.3.5-5.3,1-7.5l9.8-39.5c.8-3.1,1.6-3.9,7.8-3.9s2.9,0,2.9-1.8-.7-1.3-1.4-1.3c-3.7,0-7.8.3-11.6.3s-8-.3-11.8-.3-1.9,0-1.9,1.9.8,1.2,2.7,1.2c3,0,5.7,0,5.7,1.7s0,.5-.4,1.9l-9.4,37.9c-.8,3.1-.8,5.3-.8,6.3ZM380.9,104.2c0,16.1,10.5,26.2,24,26.2s29.8-21,29.8-25.7-1-1-1.5-1-1.3,0-1.6.8c-5,16.6-17.3,22.9-25.4,22.9s-16.9-5.5-16.9-19.4,2.5-21.5,10.3-32.3c6.7-9,15.7-13.5,23.3-13.5s13.9,9.4,13.9,18-.5,5.7-.5,6c0,1,1,1,1.5,1,1.1,0,1.4,0,1.8-1.8l6-23.9c0-.4.2-1,.2-1.4s0-1-1.1-1-.7,0-1.6,1.1l-6.2,7.3c-4.2-6.8-9.9-8.3-14.8-8.3-20.2,0-41.3,22.1-41.3,45.1ZM339.5,108.6c0,1.3,1,1.4,2.2,1.4h19.6c.5,0,1.1,0,1.5-.3,1.1-.6,1.4-3.7,1.4-3.8,0-1.3-1.1-1.4-2.2-1.4h-19.5c-.5,0-.9,0-1.3.2-1.3.5-1.7,3.9-1.7,3.9ZM279.2,108.2c0-4.5,1.4-18.3,8.2-30.2,5.2-9.2,14.1-16.4,22.7-16.4s14.7,5.9,14.7,19-3.5,21.7-8.7,30.6c-6.4,10.9-15.1,16.7-22.5,16.7s-14.4-8-14.4-19.7ZM270.4,105.1c0,14.8,9.2,25.3,22.6,25.3,19.6,0,40.2-22.1,40.2-45.7s-10-25.6-22.4-25.6c-20.1,0-40.4,23.3-40.4,46Z"/>
  <path class="st5" d="M505.9,253.6c0,20.3,15.9,35.7,34.2,35.7s25.6-13.6,25.6-25,0-1.7-1.3-1.7-1.1.6-1.2,1.6c-.8,14-11.3,22.1-22,22.1s-25.2-3.3-25.2-32.6,19.1-32.7,25.1-32.7c10.7,0,19.4,8.9,21.4,23.3.2,1.4.2,1.7,1.6,1.7s1.6-.3,1.6-2.4v-23.3c0-1.7,0-2.4-1.1-2.4s-.8,0-1.6,1.2l-4.9,7.3c-3.6-3.5-8.6-8.4-18.1-8.4-18.4,0-34.2,15.6-34.2,35.6ZM452.9,252.6v-25.4c0-2.3,0-3.4,2.2-3.7,1-.2,3.8-.2,5.8-.2,8.8,0,19.8.4,19.8,14.6s-2.4,14.7-16.9,14.7h-10.9ZM434.4,287.2c3.5-.3,10.5-.3,14.3-.3s10.8,0,14.3.3v-3h-2.4c-7.6,0-7.8-1.1-7.8-4.6v-24.8h11.3c1.6,0,5.7,0,9.1,3.3,3.7,3.5,3.7,6.6,3.7,13.2s0,10.3,4,14c4,3.5,9.4,4.1,12.4,4.1,7.7,0,9.3-8,9.3-10.8s0-1.7-1.3-1.7-1.1.9-1.2,1.6c-.6,7-4,8.7-6.5,8.7-4.8,0-5.6-5-7-14.1l-1.3-7.9c-1.8-6.3-6.6-9.5-12-11.4,9.5-2.4,17.2-8.3,17.2-16s-11.2-17.7-25.6-17.7h-30.8v3h2.4c7.6,0,7.8,1.1,7.8,4.6v51.7c0,3.5-.2,4.6-7.8,4.6h-2.4v3ZM380.7,252.6v-25.4c0-2.3,0-3.4,2.2-3.7,1-.2,3.8-.2,5.8-.2,8.8,0,19.8.4,19.8,14.6s-2.4,14.7-16.9,14.7h-10.9ZM362.1,287.2c3.5-.3,10.5-.3,14.3-.3s10.8,0,14.3.3v-3h-2.4c-7.6,0-7.8-1.1-7.8-4.6v-24.8h11.3c1.6,0,5.7,0,9.1,3.3,3.7,3.5,3.7,6.6,3.7,13.2s0,10.3,4,14c4,3.5,9.4,4.1,12.4,4.1,7.7,0,9.3-8,9.3-10.8s0-1.7-1.3-1.7-1.1.9-1.2,1.6c-.6,7-4,8.7-6.5,8.7-4.8,0-5.6-5-7-14.1l-1.3-7.9c-1.8-6.3-6.6-9.5-12-11.4,9.5-2.4,17.2-8.3,17.2-16s-11.2-17.7-25.6-17.7h-30.8v3h2.4c7.6,0,7.8,1.1,7.8,4.6v51.7c0,3.5-.2,4.6-7.8,4.6h-2.4v3Z"/>
  <path class="st5" d="M574.5,384.5v-26.5c0-3.2.2-3.9,4.8-3.9h8.7c15.6,0,15.6,10.4,15.6,15.2s0,15.2-15.6,15.2h-13.5ZM555.9,418.1c3.4-.3,10.7-.3,14.4-.3s11.1,0,14.5.3v-3h-2.4c-7.6,0-7.8-1.1-7.8-4.6v-23.4h16.6c11.8,0,22.4-7.9,22.4-17.8s-9.7-18.3-23.2-18.3h-34.6v3h2.4c7.6,0,7.8,1.1,7.8,4.6v51.7c0,3.5-.2,4.6-7.8,4.6h-2.4v3ZM487.1,384.5c0,20.3,15.9,35.7,34.2,35.7s25.6-13.6,25.6-25,0-1.7-1.3-1.7-1.1.6-1.2,1.6c-.8,14-11.3,22.1-22,22.1s-25.2-3.3-25.2-32.6,19.1-32.7,25.1-32.7c10.7,0,19.4,8.9,21.4,23.3.2,1.4.2,1.7,1.6,1.7s1.6-.3,1.6-2.4v-23.3c0-1.7,0-2.4-1.1-2.4s-.8,0-1.6,1.2l-4.9,7.3c-3.6-3.5-8.6-8.4-18.1-8.4-18.4,0-34.2,15.6-34.2,35.6ZM428.7,411.1v-53.1c0-3.2.2-3.9,4.8-3.9h9.8c6.1,0,12.9,2.2,17.9,9.1,4.2,5.8,5.1,14.2,5.1,21.9,0,10.9-1.9,16.8-5.4,21.6-2,2.6-7.6,8.3-17.5,8.3h-9.9c-4.6,0-4.8-.7-4.8-3.9ZM410.2,418.1h35.9c16.5,0,30-14.5,30-33s-13.3-34.1-30-34.1h-35.9v3h2.4c7.6,0,7.8,1.1,7.8,4.6v51.7c0,3.5-.2,4.6-7.8,4.6h-2.4v3ZM362,384.5v-26.5c0-3.2.2-3.9,4.8-3.9h8.7c15.6,0,15.6,10.4,15.6,15.2s0,15.2-15.6,15.2h-13.5ZM343.4,418.1c3.4-.3,10.7-.3,14.4-.3s11.1,0,14.5.3v-3h-2.4c-7.6,0-7.8-1.1-7.8-4.6v-23.4h16.6c11.8,0,22.4-7.9,22.4-17.8s-9.7-18.3-23.2-18.3h-34.6v3h2.4c7.6,0,7.8,1.1,7.8,4.6v51.7c0,3.5-.2,4.6-7.8,4.6h-2.4v3Z"/>
  <rect class="st4" x="1101.1" y="31.9" width="927" height="519.1"/>
  <rect class="st2" x="1101.1" y="31.9" width="927" height="519.1"/>
  <rect class="st0" x="1212.4" y="198.8" width="686" height="129.8"/>
  <rect class="st1" x="1212.4" y="198.8" width="686" height="129.8"/>
  <rect class="st0" x="1212.4" y="328.6" width="686" height="129.8"/>
  <rect class="st1" x="1212.4" y="328.6" width="686" height="129.8"/>
  <path class="st5" d="M1740.8,105.3l6.6-26.7c.9-3.5,1.6-3.5,4.8-3.5h8.4c6.8,0,11.8,2.5,11.8,8.8s-1.5,11.5-5.2,15.8c-3.4,3.8-8.3,5.6-14.1,5.6h-12.3ZM1716,137.4c0,1.2,1.1,1.2,1.4,1.2,3.7,0,7.7-.3,11.5-.3s7.9.3,11.7.3,1.8,0,1.8-1.8-.7-1.3-2.6-1.3c-5.6,0-5.6-.8-5.6-1.7s0-.6.4-1.9l5.9-24.1h15.1c12.3,0,25.4-9.9,25.4-21.3s-6.6-14.4-17.2-14.4h-29.2c-1.6,0-2.6,0-2.6,1.8s.8,1.2,2.6,1.2c3,0,5.6,0,5.6,1.7s0,.5-.4,1.8l-13.1,52.9c-.8,3.3-1.4,4.1-8,4.1s-2.6,0-2.6,1.8ZM1657.2,122.4c0,11.7,8.2,18.3,17.3,18.3s23.2-12.7,25.8-23.4l8.9-35.6c1.6-6.2,7-6.5,9.8-6.6.3,0,1.5,0,1.5-1.8s-.4-1.3-1.3-1.3c-2.9,0-6.1.3-9.1.3s-6.3-.3-9.3-.3-1.8,0-1.8,1.8.9,1.2,1.8,1.2c5.1.2,5.8,2.1,5.8,4.2s-.2,1.6-.4,2.3l-8.7,34.7c-3.1,12.6-13.4,21.4-22.6,21.4s-10.4-3.3-10.4-12.2.5-5.3,1-7.4l9.7-39.1c.8-3.1,1.6-3.9,7.7-3.9s2.9,0,2.9-1.8-.7-1.3-1.4-1.3c-3.7,0-7.7.3-11.5.3s-7.9-.3-11.7-.3-1.8,0-1.8,1.8.8,1.2,2.6,1.2c3,0,5.6,0,5.6,1.7s0,.5-.4,1.8l-9.3,37.6c-.8,3.1-.8,5.3-.8,6.2ZM1611,119c0,1.3,1,1.4,2.1,1.4h19.5c.5,0,1.1,0,1.5-.3,1.1-.6,1.4-3.7,1.4-3.8,0-1.3-1.1-1.4-2.1-1.4h-19.4c-.5,0-.9,0-1.3.2-1.3.5-1.7,3.9-1.7,3.9ZM1550,122.4c0,11.7,8.2,18.3,17.3,18.3s23.2-12.7,25.8-23.4l8.9-35.6c1.6-6.2,7-6.5,9.8-6.6.3,0,1.5,0,1.5-1.8s-.4-1.3-1.3-1.3c-2.9,0-6.1.3-9.1.3s-6.3-.3-9.3-.3-1.8,0-1.8,1.8.9,1.2,1.8,1.2c5.1.2,5.8,2.1,5.8,4.2s-.2,1.6-.4,2.3l-8.7,34.7c-3.1,12.6-13.4,21.4-22.6,21.4s-10.4-3.3-10.4-12.2.5-5.3,1-7.4l9.7-39.1c.8-3.1,1.6-3.9,7.7-3.9s2.9,0,2.9-1.8-.7-1.3-1.4-1.3c-3.7,0-7.7.3-11.5.3s-7.9-.3-11.7-.3-1.8,0-1.8,1.8.8,1.2,2.6,1.2c3,0,5.6,0,5.6,1.7s0,.5-.4,1.8l-9.3,37.6c-.8,3.1-.8,5.3-.8,6.2ZM1475.3,114.7c0,16,10.4,26,23.8,26s29.6-20.8,29.6-25.5-1-1-1.5-1-1.3,0-1.6.8c-5,16.4-17.1,22.7-25.2,22.7s-16.7-5.5-16.7-19.3,2.4-21.3,10.2-32c6.6-9,15.6-13.4,23.1-13.4s13.8,9.3,13.8,17.8-.5,5.6-.5,5.9c0,1,1,1,1.5,1,1.1,0,1.4,0,1.8-1.8l5.9-23.7c0-.4.2-1,.2-1.4s0-1-1.1-1-.7,0-1.6,1.1l-6.1,7.2c-4.2-6.7-9.8-8.3-14.7-8.3-20.1,0-41,21.9-41,44.8ZM1434.3,119c0,1.3,1,1.4,2.1,1.4h19.5c.5,0,1.1,0,1.5-.3,1.1-.6,1.4-3.7,1.4-3.8,0-1.3-1.1-1.4-2.1-1.4h-19.4c-.5,0-.9,0-1.3.2-1.3.5-1.7,3.9-1.7,3.9ZM1374.5,118.6c0-4.5,1.4-18.1,8.2-30,5.2-9.1,14-16.3,22.5-16.3s14.6,5.8,14.6,18.9-3.5,21.5-8.7,30.4c-6.3,10.8-15,16.5-22.3,16.5s-14.3-8-14.3-19.6ZM1365.7,115.6c0,14.7,9.2,25.1,22.4,25.1,19.5,0,39.9-21.9,39.9-45.4s-9.9-25.4-22.2-25.4c-20,0-40.1,23.1-40.1,45.7Z"/>
  <path class="st5" d="M1655.1,262.9v-26.3c0-3.2.2-3.9,4.8-3.9h8.7c15.5,0,15.5,10.3,15.5,15.1s0,15.1-15.5,15.1h-13.4ZM1636.7,296.2c3.4-.3,10.6-.3,14.3-.3s11,0,14.4.3v-3h-2.3c-7.5,0-7.7-1.1-7.7-4.6v-23.2h16.5c11.7,0,22.2-7.9,22.2-17.6s-9.6-18.1-23-18.1h-34.4v3h2.3c7.5,0,7.7,1.1,7.7,4.6v51.3c0,3.5-.2,4.6-7.7,4.6h-2.3v3ZM1583,270.9l10.9-31.6,11,31.6h-21.9ZM1563.4,296.2c2.2,0,6.4-.3,9.9-.3s8.1.2,11.2.3v-3c-4.9,0-7.3-2.4-7.3-5s0-1.3.2-1.5l4.5-12.8h24l5.2,14.9c0,.4.3,1,.3,1.4,0,2.9-5.5,2.9-8.1,2.9v3c3.5-.3,10.3-.3,14-.3s8.7,0,12.8.3v-3h-1.8c-5.8,0-7.2-.7-8.3-3.9l-21-60.8c-.5-1.3-.7-1.9-2.2-1.9s-1.8.6-2.3,1.9l-20.2,58.2c-1.8,5-5.6,6.4-10.9,6.5v3ZM1510.6,289.2v-52.7c0-3.2.2-3.9,4.8-3.9h9.7c6,0,12.8,2.1,17.7,9.1,4.2,5.7,5.1,14.1,5.1,21.7,0,10.8-1.8,16.6-5.4,21.4-1.9,2.6-7.5,8.3-17.3,8.3h-9.8c-4.6,0-4.8-.7-4.8-3.9ZM1492.2,296.2h35.6c16.4,0,29.8-14.4,29.8-32.7s-13.1-33.8-29.8-33.8h-35.6v3h2.3c7.5,0,7.7,1.1,7.7,4.6v51.3c0,3.5-.2,4.6-7.7,4.6h-2.3v3ZM1440.2,296c0,1.7,0,2.3,1.1,2.3s.8-.2,1.5-1.3c0,0,.3-.4,3.5-5.5,3,3.3,9.2,6.8,17.9,6.8s19.2-9.5,19.2-20.2-6.4-17.7-14.6-19.7l-12.5-3c-6-1.5-9.8-6.7-9.8-12.4s5.3-12.8,12.8-12.8c16.3,0,18.4,16,19,20.3,0,.6,0,1.2,1.2,1.2s1.3-.5,1.3-2.3v-19.6c0-1.7,0-2.3-1.1-2.3s-.8,0-1.5,1.3l-3.4,5.5c-2.9-2.8-6.9-6.8-15.6-6.8s-19,8.6-19,18.9,5.2,15.2,12.8,17.8c1.1.4,6,1.6,12.8,3.2,2.6.7,5.5,1.4,8.3,5,2,2.5,3,5.7,3,9,0,6.9-4.9,13.9-13,13.9s-10.2-.5-15.4-5.3c-5.6-5.3-5.9-11.5-6-15,0-1-.9-1-1.2-1-1.3,0-1.3.7-1.3,2.4v19.5Z"/>
  <path class="st5" d="M1667.3,392.7v-26.3c0-3.2.2-3.9,4.8-3.9h8.7c15.5,0,15.5,10.3,15.5,15.1s0,15.1-15.5,15.1h-13.4ZM1648.9,425.9c3.4-.3,10.6-.3,14.3-.3s11,0,14.4.3v-3h-2.3c-7.5,0-7.7-1.1-7.7-4.6v-23.2h16.5c11.7,0,22.2-7.9,22.2-17.6s-9.6-18.1-23-18.1h-34.4v3h2.3c7.5,0,7.7,1.1,7.7,4.6v51.3c0,3.5-.2,4.6-7.7,4.6h-2.3v3ZM1580.7,392.7c0,20.1,15.8,35.4,33.9,35.4s25.4-13.5,25.4-24.8,0-1.7-1.3-1.7-1.1.6-1.2,1.6c-.8,13.9-11.2,21.9-21.8,21.9s-25-3.3-25-32.3,19-32.4,24.9-32.4c10.6,0,19.3,8.9,21.2,23.1.2,1.4.2,1.7,1.6,1.7s1.6-.3,1.6-2.3v-23.1c0-1.7,0-2.3-1.1-2.3s-.8,0-1.6,1.2l-4.9,7.2c-3.6-3.5-8.6-8.4-17.9-8.4-18.2,0-33.9,15.5-33.9,35.3ZM1522.7,419v-52.7c0-3.2.2-3.9,4.8-3.9h9.7c6,0,12.8,2.1,17.7,9.1,4.2,5.7,5.1,14.1,5.1,21.7,0,10.8-1.8,16.6-5.4,21.4-1.9,2.6-7.5,8.3-17.3,8.3h-9.8c-4.6,0-4.8-.7-4.8-3.9ZM1504.3,425.9h35.6c16.4,0,29.8-14.4,29.8-32.7s-13.1-33.8-29.8-33.8h-35.6v3h2.3c7.5,0,7.7,1.1,7.7,4.6v51.3c0,3.5-.2,4.6-7.7,4.6h-2.3v3ZM1456.6,392.7v-26.3c0-3.2.2-3.9,4.8-3.9h8.7c15.5,0,15.5,10.3,15.5,15.1s0,15.1-15.5,15.1h-13.4ZM1438.2,425.9c3.4-.3,10.6-.3,14.3-.3s11,0,14.4.3v-3h-2.3c-7.5,0-7.7-1.1-7.7-4.6v-23.2h16.4c11.7,0,22.2-7.9,22.2-17.6s-9.6-18.1-23-18.1h-34.4v3h2.3c7.5,0,7.7,1.1,7.7,4.6v51.3c0,3.5-.2,4.6-7.7,4.6h-2.3v3Z"/>
</svg>