<?xml version="1.0" encoding="UTF-8"?>
<svg id="Ebene_1" xmlns="http://www.w3.org/2000/svg" xmlns:xlink="http://www.w3.org/1999/xlink" version="1.1" viewBox="0 0 1070 391.1">
  <!-- Generator: Adobe Illustrator 29.4.0, SVG Export Plug-In . SVG Version: 2.1.0 Build 152)  -->
  <defs>
    <style>
      .st0, .st1, .st2, .st3, .st4 {
        fill: none;
      }

      .st5 {
        isolation: isolate;
        opacity: .8;
        stroke: #ccc;
      }

      .st5, .st6 {
        fill: #fff;
      }

      .st1 {
        stroke: #b0b0b0;
      }

      .st1, .st2, .st7, .st8, .st9, .st10, .st4 {
        stroke-linejoin: round;
      }

      .st1, .st8, .st3 {
        stroke-width: .8px;
      }

      .st1, .st3 {
        stroke-linecap: square;
      }

      .st11 {
        clip-path: url(#clippath-17);
      }

      .st12 {
        clip-path: url(#clippath-11);
      }

      .st13 {
        clip-path: url(#clippath-16);
      }

      .st14 {
        clip-path: url(#clippath-10);
      }

      .st15 {
        clip-path: url(#clippath-15);
      }

      .st16 {
        clip-path: url(#clippath-13);
      }

      .st17 {
        clip-path: url(#clippath-14);
      }

      .st18 {
        clip-path: url(#clippath-12);
      }

      .st19 {
        clip-path: url(#clippath-1);
      }

      .st20 {
        clip-path: url(#clippath-3);
      }

      .st21 {
        clip-path: url(#clippath-4);
      }

      .st22 {
        clip-path: url(#clippath-2);
      }

      .st23 {
        clip-path: url(#clippath-7);
      }

      .st24 {
        clip-path: url(#clippath-6);
      }

      .st25 {
        clip-path: url(#clippath-9);
      }

      .st26 {
        clip-path: url(#clippath-8);
      }

      .st27 {
        clip-path: url(#clippath-5);
      }

      .st28, .st9 {
        fill: #2d3580;
      }

      .st2 {
        stroke-linecap: round;
        stroke-width: 1.5px;
      }

      .st2, .st8, .st10, .st3, .st4 {
        stroke: #000;
      }

      .st7, .st9 {
        stroke: #fff;
      }

      .st7, .st29 {
        fill: #54beca;
      }

      .st4 {
        stroke-dasharray: 3.7 1.6;
      }

      .st30 {
        clip-path: url(#clippath);
      }
    </style>
    <clipPath id="clippath">
      <rect class="st0" x="374.1" y="11" width="332.6" height="332.6"/>
    </clipPath>
    <clipPath id="clippath-1">
      <rect class="st0" x="374.1" y="11" width="332.6" height="332.6"/>
    </clipPath>
    <clipPath id="clippath-2">
      <rect class="st0" x="374.1" y="11" width="332.6" height="332.6"/>
    </clipPath>
    <clipPath id="clippath-3">
      <rect class="st0" x="374.1" y="11" width="332.6" height="332.6"/>
    </clipPath>
    <clipPath id="clippath-4">
      <rect class="st0" x="374.1" y="11" width="332.6" height="332.6"/>
    </clipPath>
    <clipPath id="clippath-5">
      <rect class="st0" x="374.1" y="11" width="332.6" height="332.6"/>
    </clipPath>
    <clipPath id="clippath-6">
      <rect class="st0" x="374.1" y="11" width="332.6" height="332.6"/>
    </clipPath>
    <clipPath id="clippath-7">
      <rect class="st0" x="374.1" y="11" width="332.6" height="332.6"/>
    </clipPath>
    <clipPath id="clippath-8">
      <rect class="st0" x="374.1" y="11" width="332.6" height="332.6"/>
    </clipPath>
    <clipPath id="clippath-9">
      <rect class="st0" x="374.1" y="11" width="332.6" height="332.6"/>
    </clipPath>
    <clipPath id="clippath-10">
      <rect class="st0" x="374.1" y="11" width="332.6" height="332.6"/>
    </clipPath>
    <clipPath id="clippath-11">
      <rect class="st0" x="374.1" y="11" width="332.6" height="332.6"/>
    </clipPath>
    <clipPath id="clippath-12">
      <rect class="st0" x="374.1" y="11" width="332.6" height="332.6"/>
    </clipPath>
    <clipPath id="clippath-13">
      <rect class="st0" x="374.1" y="11" width="332.6" height="332.6"/>
    </clipPath>
    <clipPath id="clippath-14">
      <rect class="st0" x="374.1" y="11" width="332.6" height="332.6"/>
    </clipPath>
    <clipPath id="clippath-15">
      <rect class="st0" x="374.1" y="11" width="332.6" height="332.6"/>
    </clipPath>
    <clipPath id="clippath-16">
      <rect class="st0" x="374.1" y="11" width="332.6" height="332.6"/>
    </clipPath>
    <clipPath id="clippath-17">
      <rect class="st0" x="374.1" y="11" width="332.6" height="332.6"/>
    </clipPath>
  </defs>
  <g id="figure_1">
    <g id="patch_1">
      <path class="st6" d="M319,391.1h432V-40.9h-432v432Z"/>
    </g>
    <g id="axes_1">
      <g id="patch_2">
        <path class="st6" d="M374.1,343.6h332.6V11h-332.6v332.6Z"/>
      </g>
      <g id="PathCollection_1">
        <g class="st30">
          <g>
            <path id="m307052e6e4" class="st7" d="M651.3,183.4c1.6,0,3.2-.6,4.3-1.8,1.1-1.1,1.8-2.7,1.8-4.3s-.6-3.2-1.8-4.3c-1.1-1.1-2.7-1.8-4.3-1.8s-3.2.6-4.3,1.8c-1.1,1.1-1.8,2.7-1.8,4.3s.6,3.2,1.8,4.3c1.1,1.1,2.7,1.8,4.3,1.8Z"/>
            <path id="m307052e6e41" data-name="m307052e6e4" class="st7" d="M540.4,72.5c1.6,0,3.2-.6,4.3-1.8,1.1-1.1,1.8-2.7,1.8-4.3s-.6-3.2-1.8-4.3c-1.1-1.1-2.7-1.8-4.3-1.8s-3.2.6-4.3,1.8c-1.1,1.1-1.8,2.7-1.8,4.3s.6,3.2,1.8,4.3c1.1,1.1,2.7,1.8,4.3,1.8Z"/>
            <path id="m307052e6e42" data-name="m307052e6e4" class="st7" d="M429.5,183.4c1.6,0,3.2-.6,4.3-1.8,1.1-1.1,1.8-2.7,1.8-4.3s-.6-3.2-1.8-4.3c-1.1-1.1-2.7-1.8-4.3-1.8s-3.2.6-4.3,1.8c-1.1,1.1-1.8,2.7-1.8,4.3s.6,3.2,1.8,4.3c1.1,1.1,2.7,1.8,4.3,1.8Z"/>
            <path id="m307052e6e43" data-name="m307052e6e4" class="st7" d="M540.4,294.3c1.6,0,3.2-.6,4.3-1.8,1.1-1.1,1.8-2.7,1.8-4.3s-.6-3.2-1.8-4.3c-1.1-1.1-2.7-1.8-4.3-1.8s-3.2.6-4.3,1.8c-1.1,1.1-1.8,2.7-1.8,4.3s.6,3.2,1.8,4.3c1.1,1.1,2.7,1.8,4.3,1.8Z"/>
          </g>
        </g>
      </g>
      <g id="PathCollection_2">
        <g class="st19">
          <g>
            <path id="m6d8f49b614" class="st9" d="M618.8,105c1.6,0,3.2-.6,4.3-1.8,1.1-1.1,1.8-2.7,1.8-4.3s-.6-3.2-1.8-4.3c-1.1-1.1-2.7-1.8-4.3-1.8s-3.2.6-4.3,1.8c-1.1,1.1-1.8,2.7-1.8,4.3s.6,3.2,1.8,4.3c1.1,1.1,2.7,1.8,4.3,1.8Z"/>
            <path id="m6d8f49b6141" data-name="m6d8f49b614" class="st9" d="M462,105c1.6,0,3.2-.6,4.3-1.8,1.1-1.1,1.8-2.7,1.8-4.3s-.6-3.2-1.8-4.3c-1.1-1.1-2.7-1.8-4.3-1.8s-3.2.6-4.3,1.8c-1.1,1.1-1.8,2.7-1.8,4.3s.6,3.2,1.8,4.3c1.1,1.1,2.7,1.8,4.3,1.8Z"/>
            <path id="m6d8f49b6142" data-name="m6d8f49b614" class="st9" d="M462,261.8c1.6,0,3.2-.6,4.3-1.8,1.1-1.1,1.8-2.7,1.8-4.3s-.6-3.2-1.8-4.3c-1.1-1.1-2.7-1.8-4.3-1.8s-3.2.6-4.3,1.8c-1.1,1.1-1.8,2.7-1.8,4.3s.6,3.2,1.8,4.3c1.1,1.1,2.7,1.8,4.3,1.8Z"/>
            <path id="m6d8f49b6143" data-name="m6d8f49b614" class="st9" d="M618.8,261.8c1.6,0,3.2-.6,4.3-1.8,1.1-1.1,1.8-2.7,1.8-4.3s-.6-3.2-1.8-4.3c-1.1-1.1-2.7-1.8-4.3-1.8s-3.2.6-4.3,1.8c-1.1,1.1-1.8,2.7-1.8,4.3s.6,3.2,1.8,4.3c1.1,1.1,2.7,1.8,4.3,1.8Z"/>
          </g>
        </g>
      </g>
      <g id="PathCollection_3">
        <g class="st22">
          <path id="m5b8e601d81" class="st10" d="M540.4,180.8c.9,0,1.8-.4,2.5-1s1-1.6,1-2.5-.4-1.8-1-2.5-1.6-1-2.5-1-1.8.4-2.5,1-1,1.6-1,2.5.4,1.8,1,2.5,1.6,1,2.5,1Z"/>
        </g>
      </g>
      <g id="matplotlib.axis_1">
        <g id="xtick_1">
          <g id="line2d_1">
            <g class="st20">
              <path class="st1" d="M374.1,343.6V11"/>
            </g>
          </g>
          <g id="line2d_2">
            <path id="m5d7e6e007f" class="st8" d="M374.1,343.6v3.5"/>
          </g>
          <g id="text_1">
            <g>
              <path id="DejaVuSans-2212" d="M363,354.6h6.3v.8h-6.3v-.8Z"/>
              <path id="DejaVuSans-31" d="M371.6,357.4h1.6v-5.6l-1.8.4v-.9l1.7-.4h1v6.5h1.6v.8h-4.2v-.8Z"/>
              <path id="DejaVuSans-2e" d="M377.7,356.9h1v1.2h-1v-1.2Z"/>
              <path id="DejaVuSans-35" d="M380.9,350.9h3.9v.8h-3v1.8c.1,0,.3,0,.4-.1.1,0,.3,0,.4,0,.8,0,1.5.2,1.9.7.5.4.7,1,.7,1.8s-.2,1.4-.7,1.8c-.5.4-1.2.7-2.1.7s-.6,0-.9,0c-.3,0-.6-.1-1-.2v-1c.3.2.6.3.9.4s.6.1,1,.1c.6,0,1-.1,1.3-.4.3-.3.5-.7.5-1.2s-.2-.9-.5-1.2c-.3-.3-.8-.4-1.3-.4s-.5,0-.8,0c-.3,0-.5.1-.8.3v-3.7Z"/>
            </g>
          </g>
        </g>
        <g id="xtick_2">
          <g id="line2d_3">
            <g class="st21">
              <path class="st1" d="M429.5,343.6V11"/>
            </g>
          </g>
          <g id="line2d_4">
            <path id="m5d7e6e007f1" data-name="m5d7e6e007f" class="st8" d="M429.5,343.6v3.5"/>
          </g>
          <g id="text_2">
            <g>
              <path id="DejaVuSans-22121" data-name="DejaVuSans-2212" d="M418.4,354.6h6.3v.8h-6.3v-.8Z"/>
              <path id="DejaVuSans-311" data-name="DejaVuSans-31" d="M427,357.4h1.6v-5.6l-1.8.4v-.9l1.7-.4h1v6.5h1.6v.8h-4.2v-.8Z"/>
              <path id="DejaVuSans-2e1" data-name="DejaVuSans-2e" d="M433.2,356.9h1v1.2h-1v-1.2Z"/>
              <path id="DejaVuSans-30" d="M438.5,351.5c-.5,0-.9.3-1.1.8-.3.5-.4,1.3-.4,2.3s.1,1.7.4,2.2c.3.5.6.8,1.1.8s.9-.3,1.2-.8c.3-.5.4-1.2.4-2.2s-.1-1.8-.4-2.3c-.3-.5-.6-.8-1.2-.8ZM438.5,350.8c.8,0,1.4.3,1.9,1,.4.6.6,1.6.6,2.8s-.2,2.2-.6,2.8c-.4.6-1.1,1-1.9,1s-1.4-.3-1.9-1c-.4-.6-.6-1.6-.6-2.8s.2-2.2.6-2.8c.4-.6,1.1-1,1.9-1Z"/>
            </g>
          </g>
        </g>
        <g id="xtick_3">
          <g id="line2d_5">
            <g class="st27">
              <path class="st1" d="M485,343.6V11"/>
            </g>
          </g>
          <g id="line2d_6">
            <path id="m5d7e6e007f2" data-name="m5d7e6e007f" class="st8" d="M485,343.6v3.5"/>
          </g>
          <g id="text_3">
            <g>
              <path id="DejaVuSans-22122" data-name="DejaVuSans-2212" d="M473.9,354.6h6.3v.8h-6.3v-.8Z"/>
              <path id="DejaVuSans-301" data-name="DejaVuSans-30" d="M484.4,351.5c-.5,0-.9.3-1.1.8-.3.5-.4,1.3-.4,2.3s.1,1.7.4,2.2c.3.5.6.8,1.1.8s.9-.3,1.2-.8c.3-.5.4-1.2.4-2.2s-.1-1.8-.4-2.3c-.3-.5-.6-.8-1.2-.8ZM484.4,350.8c.8,0,1.4.3,1.9,1,.4.6.6,1.6.6,2.8s-.2,2.2-.6,2.8c-.4.6-1.1,1-1.9,1s-1.4-.3-1.9-1c-.4-.6-.6-1.6-.6-2.8s.2-2.2.6-2.8c.4-.6,1.1-1,1.9-1Z"/>
              <path id="DejaVuSans-2e2" data-name="DejaVuSans-2e" d="M488.6,356.9h1v1.2h-1v-1.2Z"/>
              <path id="DejaVuSans-351" data-name="DejaVuSans-35" d="M491.8,350.9h3.9v.8h-3v1.8c.1,0,.3,0,.4-.1.1,0,.3,0,.4,0,.8,0,1.5.2,1.9.7.5.4.7,1,.7,1.8s-.2,1.4-.7,1.8c-.5.4-1.2.7-2.1.7s-.6,0-.9,0c-.3,0-.6-.1-1-.2v-1c.3.2.6.3.9.4s.6.1,1,.1c.6,0,1-.1,1.3-.4.3-.3.5-.7.5-1.2s-.2-.9-.5-1.2c-.3-.3-.8-.4-1.3-.4s-.5,0-.8,0c-.3,0-.5.1-.8.3v-3.7Z"/>
            </g>
          </g>
        </g>
        <g id="xtick_4">
          <g id="line2d_7">
            <g class="st24">
              <path class="st1" d="M540.4,343.6V11"/>
            </g>
          </g>
          <g id="line2d_8">
            <path id="m5d7e6e007f3" data-name="m5d7e6e007f" class="st8" d="M540.4,343.6v3.5"/>
          </g>
          <g id="text_4">
            <g>
              <path id="DejaVuSans-302" data-name="DejaVuSans-30" d="M535.6,351.5c-.5,0-.9.3-1.1.8-.3.5-.4,1.3-.4,2.3s.1,1.7.4,2.2c.3.5.6.8,1.1.8s.9-.3,1.2-.8c.3-.5.4-1.2.4-2.2s-.1-1.8-.4-2.3c-.3-.5-.6-.8-1.2-.8ZM535.6,350.8c.8,0,1.4.3,1.9,1,.4.6.6,1.6.6,2.8s-.2,2.2-.6,2.8c-.4.6-1.1,1-1.9,1s-1.4-.3-1.9-1c-.4-.6-.6-1.6-.6-2.8s.2-2.2.6-2.8c.4-.6,1.1-1,1.9-1Z"/>
              <path id="DejaVuSans-2e3" data-name="DejaVuSans-2e" d="M539.9,356.9h1v1.2h-1v-1.2Z"/>
              <path id="DejaVuSans-303" data-name="DejaVuSans-30" d="M545.2,351.5c-.5,0-.9.3-1.1.8-.3.5-.4,1.3-.4,2.3s.1,1.7.4,2.2c.3.5.6.8,1.1.8s.9-.3,1.2-.8c.3-.5.4-1.2.4-2.2s-.1-1.8-.4-2.3c-.3-.5-.6-.8-1.2-.8ZM545.2,350.8c.8,0,1.4.3,1.9,1,.4.6.6,1.6.6,2.8s-.2,2.2-.6,2.8c-.4.6-1.1,1-1.9,1s-1.4-.3-1.9-1c-.4-.6-.6-1.6-.6-2.8s.2-2.2.6-2.8c.4-.6,1.1-1,1.9-1Z"/>
            </g>
          </g>
        </g>
        <g id="xtick_5">
          <g id="line2d_9">
            <g class="st23">
              <path class="st1" d="M595.8,343.6V11"/>
            </g>
          </g>
          <g id="line2d_10">
            <path id="m5d7e6e007f4" data-name="m5d7e6e007f" class="st8" d="M595.8,343.6v3.5"/>
          </g>
          <g id="text_5">
            <g>
              <path id="DejaVuSans-304" data-name="DejaVuSans-30" d="M591.1,351.5c-.5,0-.9.3-1.1.8-.3.5-.4,1.3-.4,2.3s.1,1.7.4,2.2c.3.5.6.8,1.1.8s.9-.3,1.2-.8c.3-.5.4-1.2.4-2.2s-.1-1.8-.4-2.3c-.3-.5-.6-.8-1.2-.8ZM591.1,350.8c.8,0,1.4.3,1.9,1,.4.6.6,1.6.6,2.8s-.2,2.2-.6,2.8c-.4.6-1.1,1-1.9,1s-1.4-.3-1.9-1c-.4-.6-.6-1.6-.6-2.8s.2-2.2.6-2.8c.4-.6,1.1-1,1.9-1Z"/>
              <path id="DejaVuSans-2e4" data-name="DejaVuSans-2e" d="M595.3,356.9h1v1.2h-1v-1.2Z"/>
              <path id="DejaVuSans-352" data-name="DejaVuSans-35" d="M598.5,350.9h3.9v.8h-3v1.8c.1,0,.3,0,.4-.1.1,0,.3,0,.4,0,.8,0,1.5.2,1.9.7.5.4.7,1,.7,1.8s-.2,1.4-.7,1.8c-.5.4-1.2.7-2.1.7s-.6,0-.9,0c-.3,0-.6-.1-1-.2v-1c.3.2.6.3.9.4s.6.1,1,.1c.6,0,1-.1,1.3-.4.3-.3.5-.7.5-1.2s-.2-.9-.5-1.2c-.3-.3-.8-.4-1.3-.4s-.5,0-.8,0c-.3,0-.5.1-.8.3v-3.7Z"/>
            </g>
          </g>
        </g>
        <g id="xtick_6">
          <g id="line2d_11">
            <g class="st26">
              <path class="st1" d="M651.3,343.6V11"/>
            </g>
          </g>
          <g id="line2d_12">
            <path id="m5d7e6e007f5" data-name="m5d7e6e007f" class="st8" d="M651.3,343.6v3.5"/>
          </g>
          <g id="text_6">
            <g>
              <path id="DejaVuSans-312" data-name="DejaVuSans-31" d="M644.6,357.4h1.6v-5.6l-1.8.4v-.9l1.7-.4h1v6.5h1.6v.8h-4.2v-.8Z"/>
              <path id="DejaVuSans-2e5" data-name="DejaVuSans-2e" d="M650.8,356.9h1v1.2h-1v-1.2Z"/>
              <path id="DejaVuSans-305" data-name="DejaVuSans-30" d="M656,351.5c-.5,0-.9.3-1.1.8-.3.5-.4,1.3-.4,2.3s.1,1.7.4,2.2c.3.5.6.8,1.1.8s.9-.3,1.2-.8c.3-.5.4-1.2.4-2.2s-.1-1.8-.4-2.3c-.3-.5-.6-.8-1.2-.8ZM656,350.8c.8,0,1.4.3,1.9,1,.4.6.6,1.6.6,2.8s-.2,2.2-.6,2.8c-.4.6-1.1,1-1.9,1s-1.4-.3-1.9-1c-.4-.6-.6-1.6-.6-2.8s.2-2.2.6-2.8c.4-.6,1.1-1,1.9-1Z"/>
            </g>
          </g>
        </g>
        <g id="xtick_7">
          <g id="line2d_13">
            <g class="st25">
              <path class="st1" d="M706.7,343.6V11"/>
            </g>
          </g>
          <g id="line2d_14">
            <path id="m5d7e6e007f6" data-name="m5d7e6e007f" class="st8" d="M706.7,343.6v3.5"/>
          </g>
          <g id="text_7">
            <g>
              <path id="DejaVuSans-313" data-name="DejaVuSans-31" d="M700,357.4h1.6v-5.6l-1.8.4v-.9l1.7-.4h1v6.5h1.6v.8h-4.2v-.8Z"/>
              <path id="DejaVuSans-2e6" data-name="DejaVuSans-2e" d="M706.2,356.9h1v1.2h-1v-1.2Z"/>
              <path id="DejaVuSans-353" data-name="DejaVuSans-35" d="M709.4,350.9h3.9v.8h-3v1.8c.1,0,.3,0,.4-.1.1,0,.3,0,.4,0,.8,0,1.5.2,1.9.7.5.4.7,1,.7,1.8s-.2,1.4-.7,1.8c-.5.4-1.2.7-2.1.7s-.6,0-.9,0c-.3,0-.6-.1-1-.2v-1c.3.2.6.3.9.4s.6.1,1,.1c.6,0,1-.1,1.3-.4.3-.3.5-.7.5-1.2s-.2-.9-.5-1.2c-.3-.3-.8-.4-1.3-.4s-.5,0-.8,0c-.3,0-.5.1-.8.3v-3.7Z"/>
            </g>
          </g>
        </g>
        <g id="text_8">
          <g>
            <path id="DejaVuSans-49" d="M512.9,364.6h1v7.3h-1v-7.3Z"/>
            <path id="DejaVuSans-6e" d="M520.3,368.6v3.3h-.9v-3.3c0-.5-.1-.9-.3-1.2-.2-.3-.5-.4-.9-.4s-.9.2-1.1.5c-.3.3-.4.7-.4,1.3v3.1h-.9v-5.5h.9v.9c.2-.3.5-.6.8-.7.3-.2.6-.2,1-.2.6,0,1.1.2,1.4.6.3.4.5,1,.5,1.7Z"/>
            <path id="DejaVuSans-2d" d="M521.7,368.7h2.6v.8h-2.6v-.8Z"/>
            <path id="DejaVuSans-70" d="M526.6,371v2.9h-.9v-7.5h.9v.8c.2-.3.4-.6.7-.7.3-.2.6-.2,1-.2.7,0,1.2.3,1.6.8.4.5.6,1.2.6,2.1s-.2,1.6-.6,2.1c-.4.5-1,.8-1.6.8s-.7,0-1-.2c-.3-.2-.5-.4-.7-.7ZM529.7,369.1c0-.7-.1-1.2-.4-1.6s-.6-.6-1.1-.6-.9.2-1.1.6-.4.9-.4,1.6.1,1.2.4,1.6c.3.4.6.6,1.1.6s.8-.2,1.1-.6c.3-.4.4-.9.4-1.6Z"/>
            <path id="DejaVuSans-68" d="M536.6,368.6v3.3h-.9v-3.3c0-.5-.1-.9-.3-1.2-.2-.3-.5-.4-.9-.4s-.9.2-1.1.5c-.3.3-.4.7-.4,1.3v3.1h-.9v-7.6h.9v3c.2-.3.5-.6.8-.7.3-.2.6-.2,1-.2.6,0,1.1.2,1.4.6.3.4.5,1,.5,1.7Z"/>
            <path id="DejaVuSans-61" d="M540.9,369.1c-.7,0-1.2,0-1.5.2s-.4.4-.4.9.1.6.3.8c.2.2.5.3.9.3s.9-.2,1.2-.5.5-.8.5-1.4v-.2h-.9ZM542.7,368.7v3.1h-.9v-.8c-.2.3-.5.6-.8.7-.3.2-.7.2-1.1.2s-1-.2-1.3-.5c-.3-.3-.5-.7-.5-1.3s.2-1.1.6-1.4c.4-.3,1-.5,1.8-.5h1.3c0-.5-.1-.8-.4-1s-.7-.3-1.1-.3-.6,0-.9.1c-.3,0-.6.2-.9.3v-.8c.3-.1.6-.2,1-.3.3,0,.6,0,.9,0,.8,0,1.4.2,1.8.6.4.4.6,1,.6,1.9Z"/>
            <path id="DejaVuSans-73" d="M548,366.6v.9c-.3-.1-.5-.2-.8-.3-.3,0-.6,0-.9,0-.4,0-.8,0-1,.2-.2.1-.3.3-.3.6s0,.4.2.5.5.2,1,.3h.3c.6.2,1.1.4,1.4.6s.4.6.4,1-.2.9-.6,1.2c-.4.3-1,.4-1.7.4s-.6,0-.9,0c-.3,0-.7-.1-1-.3v-.9c.3.2.7.3,1,.4.3,0,.6.1,1,.1s.7,0,1-.2c.2-.1.3-.3.3-.6s0-.4-.2-.6c-.2-.1-.5-.3-1.1-.4h-.3c-.6-.2-1-.4-1.2-.6-.2-.2-.4-.6-.4-1s.2-.9.5-1.2c.4-.3.9-.4,1.6-.4s.6,0,.9,0c.3,0,.6.1.8.2Z"/>
            <path id="DejaVuSans-65" d="M554.4,368.9v.4h-4.1c0,.6.2,1.1.6,1.4.3.3.8.5,1.4.5s.7,0,1-.1.6-.2,1-.4v.9c-.3.1-.7.2-1,.3s-.7.1-1,.1c-.9,0-1.6-.3-2.1-.8-.5-.5-.8-1.2-.8-2.1s.2-1.6.7-2.1c.5-.5,1.1-.8,2-.8s1.3.2,1.7.7c.4.5.6,1.1.6,1.9ZM553.5,368.6c0-.5-.1-.9-.4-1.2-.3-.3-.6-.4-1.1-.4s-.9.1-1.2.4-.5.7-.5,1.2h3.2Z"/>
            <path id="DejaVuSans-20" d="M555,371.9"/>
            <path id="DejaVuSans-28" d="M561.2,364.3c-.4.7-.8,1.5-1,2.2-.2.7-.3,1.5-.3,2.2s.1,1.5.3,2.2.5,1.5,1,2.2h-.8c-.5-.8-.9-1.5-1.1-2.3-.2-.7-.4-1.5-.4-2.2s.1-1.5.4-2.2c.2-.7.6-1.5,1.1-2.3h.8Z"/>
            <path id="DejaVuSans-491" data-name="DejaVuSans-49" d="M563,364.6h1v7.3h-1v-7.3Z"/>
            <path id="DejaVuSans-29" d="M565.8,364.3h.8c.5.8.9,1.5,1.1,2.3.2.7.4,1.5.4,2.2s-.1,1.5-.4,2.2c-.2.7-.6,1.5-1.1,2.3h-.8c.4-.7.8-1.5,1-2.2.2-.7.3-1.5.3-2.2s-.1-1.5-.3-2.2c-.2-.7-.5-1.5-1-2.2Z"/>
          </g>
        </g>
      </g>
      <g id="matplotlib.axis_2">
        <g id="ytick_1">
          <g id="line2d_15">
            <g class="st14">
              <path class="st1" d="M374.1,343.6h332.6"/>
            </g>
          </g>
          <g id="line2d_16">
            <path id="mbd9a60af62" class="st8" d="M374.1,343.6h-3.5"/>
          </g>
          <g id="text_9">
            <g>
              <path id="DejaVuSans-22123" data-name="DejaVuSans-2212" d="M343.9,343.8h6.3v.8h-6.3v-.8Z"/>
              <path id="DejaVuSans-314" data-name="DejaVuSans-31" d="M352.4,346.6h1.6v-5.6l-1.8.4v-.9l1.7-.4h1v6.5h1.6v.8h-4.2v-.8Z"/>
              <path id="DejaVuSans-2e7" data-name="DejaVuSans-2e" d="M358.6,346.1h1v1.2h-1v-1.2Z"/>
              <path id="DejaVuSans-354" data-name="DejaVuSans-35" d="M361.8,340.1h3.9v.8h-3v1.8c.1,0,.3,0,.4-.1.1,0,.3,0,.4,0,.8,0,1.5.2,1.9.7.5.4.7,1,.7,1.8s-.2,1.4-.7,1.8c-.5.4-1.2.7-2.1.7s-.6,0-.9,0c-.3,0-.6-.1-1-.2v-1c.3.2.6.3.9.4s.6.1,1,.1c.6,0,1-.1,1.3-.4.3-.3.5-.7.5-1.2s-.2-.9-.5-1.2c-.3-.3-.8-.4-1.3-.4s-.5,0-.8,0c-.3,0-.5.1-.8.3v-3.7Z"/>
            </g>
          </g>
        </g>
        <g id="ytick_2">
          <g id="line2d_17">
            <g class="st12">
              <path class="st1" d="M374.1,288.2h332.6"/>
            </g>
          </g>
          <g id="line2d_18">
            <path id="mbd9a60af621" data-name="mbd9a60af62" class="st8" d="M374.1,288.2h-3.5"/>
          </g>
          <g id="text_10">
            <g>
              <path id="DejaVuSans-22124" data-name="DejaVuSans-2212" d="M343.9,288.4h6.3v.8h-6.3v-.8Z"/>
              <path id="DejaVuSans-315" data-name="DejaVuSans-31" d="M352.4,291.1h1.6v-5.6l-1.8.4v-.9l1.7-.4h1v6.5h1.6v.8h-4.2v-.8Z"/>
              <path id="DejaVuSans-2e8" data-name="DejaVuSans-2e" d="M358.6,290.7h1v1.2h-1v-1.2Z"/>
              <path id="DejaVuSans-306" data-name="DejaVuSans-30" d="M363.9,285.3c-.5,0-.9.3-1.1.8-.3.5-.4,1.3-.4,2.3s.1,1.7.4,2.2c.3.5.6.8,1.1.8s.9-.3,1.2-.8c.3-.5.4-1.2.4-2.2s-.1-1.8-.4-2.3c-.3-.5-.6-.8-1.2-.8ZM363.9,284.5c.8,0,1.4.3,1.9,1,.4.6.6,1.6.6,2.8s-.2,2.2-.6,2.8c-.4.6-1.1,1-1.9,1s-1.4-.3-1.9-1c-.4-.6-.6-1.6-.6-2.8s.2-2.2.6-2.8c.4-.6,1.1-1,1.9-1Z"/>
            </g>
          </g>
        </g>
        <g id="ytick_3">
          <g id="line2d_19">
            <g class="st18">
              <path class="st1" d="M374.1,232.7h332.6"/>
            </g>
          </g>
          <g id="line2d_20">
            <path id="mbd9a60af622" data-name="mbd9a60af62" class="st8" d="M374.1,232.7h-3.5"/>
          </g>
          <g id="text_11">
            <g>
              <path id="DejaVuSans-22125" data-name="DejaVuSans-2212" d="M343.9,233h6.3v.8h-6.3v-.8Z"/>
              <path id="DejaVuSans-307" data-name="DejaVuSans-30" d="M354.4,229.9c-.5,0-.9.3-1.1.8-.3.5-.4,1.3-.4,2.3s.1,1.7.4,2.2c.3.5.6.8,1.1.8s.9-.3,1.2-.8c.3-.5.4-1.2.4-2.2s-.1-1.8-.4-2.3c-.3-.5-.6-.8-1.2-.8ZM354.4,229.1c.8,0,1.4.3,1.9,1,.4.6.6,1.6.6,2.8s-.2,2.2-.6,2.8c-.4.6-1.1,1-1.9,1s-1.4-.3-1.9-1c-.4-.6-.6-1.6-.6-2.8s.2-2.2.6-2.8c.4-.6,1.1-1,1.9-1Z"/>
              <path id="DejaVuSans-2e9" data-name="DejaVuSans-2e" d="M358.6,235.3h1v1.2h-1v-1.2Z"/>
              <path id="DejaVuSans-355" data-name="DejaVuSans-35" d="M361.8,229.2h3.9v.8h-3v1.8c.1,0,.3,0,.4-.1.1,0,.3,0,.4,0,.8,0,1.5.2,1.9.7.5.4.7,1,.7,1.8s-.2,1.4-.7,1.8c-.5.4-1.2.7-2.1.7s-.6,0-.9,0c-.3,0-.6-.1-1-.2v-1c.3.2.6.3.9.4s.6.1,1,.1c.6,0,1-.1,1.3-.4.3-.3.5-.7.5-1.2s-.2-.9-.5-1.2c-.3-.3-.8-.4-1.3-.4s-.5,0-.8,0c-.3,0-.5.1-.8.3v-3.7Z"/>
            </g>
          </g>
        </g>
        <g id="ytick_4">
          <g id="line2d_21">
            <g class="st16">
              <path class="st1" d="M374.1,177.3h332.6"/>
            </g>
          </g>
          <g id="line2d_22">
            <path id="mbd9a60af623" data-name="mbd9a60af62" class="st8" d="M374.1,177.3h-3.5"/>
          </g>
          <g id="text_12">
            <g>
              <path id="DejaVuSans-308" data-name="DejaVuSans-30" d="M354.4,174.4c-.5,0-.9.3-1.1.8-.3.5-.4,1.3-.4,2.3s.1,1.7.4,2.2c.3.5.6.8,1.1.8s.9-.3,1.2-.8c.3-.5.4-1.2.4-2.2s-.1-1.8-.4-2.3c-.3-.5-.6-.8-1.2-.8ZM354.4,173.6c.8,0,1.4.3,1.9,1,.4.6.6,1.6.6,2.8s-.2,2.2-.6,2.8c-.4.6-1.1,1-1.9,1s-1.4-.3-1.9-1c-.4-.6-.6-1.6-.6-2.8s.2-2.2.6-2.8c.4-.6,1.1-1,1.9-1Z"/>
              <path id="DejaVuSans-2e10" data-name="DejaVuSans-2e" d="M358.6,179.8h1v1.2h-1v-1.2Z"/>
              <path id="DejaVuSans-309" data-name="DejaVuSans-30" d="M363.9,174.4c-.5,0-.9.3-1.1.8-.3.5-.4,1.3-.4,2.3s.1,1.7.4,2.2c.3.5.6.8,1.1.8s.9-.3,1.2-.8c.3-.5.4-1.2.4-2.2s-.1-1.8-.4-2.3c-.3-.5-.6-.8-1.2-.8ZM363.9,173.6c.8,0,1.4.3,1.9,1,.4.6.6,1.6.6,2.8s-.2,2.2-.6,2.8c-.4.6-1.1,1-1.9,1s-1.4-.3-1.9-1c-.4-.6-.6-1.6-.6-2.8s.2-2.2.6-2.8c.4-.6,1.1-1,1.9-1Z"/>
            </g>
          </g>
        </g>
        <g id="ytick_5">
          <g id="line2d_23">
            <g class="st17">
              <path class="st1" d="M374.1,121.8h332.6"/>
            </g>
          </g>
          <g id="line2d_24">
            <path id="mbd9a60af624" data-name="mbd9a60af62" class="st8" d="M374.1,121.8h-3.5"/>
          </g>
          <g id="text_13">
            <g>
              <path id="DejaVuSans-3010" data-name="DejaVuSans-30" d="M354.4,119c-.5,0-.9.3-1.1.8-.3.5-.4,1.3-.4,2.3s.1,1.7.4,2.2c.3.5.6.8,1.1.8s.9-.3,1.2-.8c.3-.5.4-1.2.4-2.2s-.1-1.8-.4-2.3c-.3-.5-.6-.8-1.2-.8ZM354.4,118.2c.8,0,1.4.3,1.9,1,.4.6.6,1.6.6,2.8s-.2,2.2-.6,2.8c-.4.6-1.1,1-1.9,1s-1.4-.3-1.9-1c-.4-.6-.6-1.6-.6-2.8s.2-2.2.6-2.8c.4-.6,1.1-1,1.9-1Z"/>
              <path id="DejaVuSans-2e11" data-name="DejaVuSans-2e" d="M358.6,124.4h1v1.2h-1v-1.2Z"/>
              <path id="DejaVuSans-356" data-name="DejaVuSans-35" d="M361.8,118.3h3.9v.8h-3v1.8c.1,0,.3,0,.4-.1.1,0,.3,0,.4,0,.8,0,1.5.2,1.9.7.5.4.7,1,.7,1.8s-.2,1.4-.7,1.8c-.5.4-1.2.7-2.1.7s-.6,0-.9,0c-.3,0-.6-.1-1-.2v-1c.3.2.6.3.9.4s.6.1,1,.1c.6,0,1-.1,1.3-.4.3-.3.5-.7.5-1.2s-.2-.9-.5-1.2c-.3-.3-.8-.4-1.3-.4s-.5,0-.8,0c-.3,0-.5.1-.8.3v-3.7Z"/>
            </g>
          </g>
        </g>
        <g id="ytick_6">
          <g id="line2d_25">
            <g class="st15">
              <path class="st1" d="M374.1,66.4h332.6"/>
            </g>
          </g>
          <g id="line2d_26">
            <path id="mbd9a60af625" data-name="mbd9a60af62" class="st8" d="M374.1,66.4h-3.5"/>
          </g>
          <g id="text_14">
            <g>
              <path id="DejaVuSans-316" data-name="DejaVuSans-31" d="M352.4,69.4h1.6v-5.6l-1.8.4v-.9l1.7-.4h1v6.5h1.6v.8h-4.2v-.8Z"/>
              <path id="DejaVuSans-2e12" data-name="DejaVuSans-2e" d="M358.6,68.9h1v1.2h-1v-1.2Z"/>
              <path id="DejaVuSans-3011" data-name="DejaVuSans-30" d="M363.9,63.5c-.5,0-.9.3-1.1.8-.3.5-.4,1.3-.4,2.3s.1,1.7.4,2.2c.3.5.6.8,1.1.8s.9-.3,1.2-.8c.3-.5.4-1.2.4-2.2s-.1-1.8-.4-2.3c-.3-.5-.6-.8-1.2-.8ZM363.9,62.8c.8,0,1.4.3,1.9,1,.4.6.6,1.6.6,2.8s-.2,2.2-.6,2.8c-.4.6-1.1,1-1.9,1s-1.4-.3-1.9-1c-.4-.6-.6-1.6-.6-2.8s.2-2.2.6-2.8c.4-.6,1.1-1,1.9-1Z"/>
            </g>
          </g>
        </g>
        <g id="ytick_7">
          <g id="line2d_27">
            <g class="st13">
              <path class="st1" d="M374.1,11h332.6"/>
            </g>
          </g>
          <g id="line2d_28">
            <path id="mbd9a60af626" data-name="mbd9a60af62" class="st8" d="M374.1,11h-3.5"/>
          </g>
          <g id="text_15">
            <g>
              <path id="DejaVuSans-317" data-name="DejaVuSans-31" d="M352.4,13.9h1.6v-5.6l-1.8.4v-.9l1.7-.4h1v6.5h1.6v.8h-4.2v-.8Z"/>
              <path id="DejaVuSans-2e13" data-name="DejaVuSans-2e" d="M358.6,13.5h1v1.2h-1v-1.2Z"/>
              <path id="DejaVuSans-357" data-name="DejaVuSans-35" d="M361.8,7.5h3.9v.8h-3v1.8c.1,0,.3,0,.4-.1.1,0,.3,0,.4,0,.8,0,1.5.2,1.9.7.5.4.7,1,.7,1.8s-.2,1.4-.7,1.8c-.5.4-1.2.7-2.1.7s-.6,0-.9,0c-.3,0-.6-.1-1-.2v-1c.3.2.6.3.9.4s.6.1,1,.1c.6,0,1-.1,1.3-.4.3-.3.5-.7.5-1.2s-.2-.9-.5-1.2c-.3-.3-.8-.4-1.3-.4s-.5,0-.8,0c-.3,0-.5.1-.8.3v-3.7Z"/>
            </g>
          </g>
        </g>
        <g id="text_16">
          <g>
            <path id="DejaVuSans-51" d="M330.1,211.4c0,.7.3,1.3.8,1.7.5.4,1.3.6,2.2.6s1.6-.2,2.2-.6c.5-.4.8-1,.8-1.7s-.3-1.3-.8-1.7c-.5-.4-1.3-.6-2.2-.6s-1.6.2-2.2.6c-.5.4-.8,1-.8,1.7ZM336.6,210l1.4-1.3v1.2l-1.2,1.1c0,.1,0,.2,0,.2,0,0,0,.1,0,.2,0,1-.3,1.8-1,2.5-.7.6-1.6.9-2.8.9s-2.1-.3-2.8-.9c-.7-.6-1-1.4-1-2.5s.3-1.8,1-2.5c.7-.6,1.6-.9,2.8-.9s1.6.2,2.2.5c.6.3,1,.8,1.3,1.5Z"/>
            <path id="DejaVuSans-75" d="M334.6,206.6h-3.3v-.9h3.3c.5,0,.9-.1,1.2-.3.3-.2.4-.5.4-.9s-.2-.9-.5-1.1c-.3-.3-.7-.4-1.3-.4h-3.1v-.9h5.5v.9h-.8c.3.2.6.5.7.8.2.3.2.6.2,1,0,.6-.2,1.1-.6,1.4-.4.3-1,.5-1.7.5ZM331.1,204.3h0Z"/>
            <path id="DejaVuSans-611" data-name="DejaVuSans-61" d="M334,197.7c0,.7,0,1.2.2,1.5s.4.4.9.4.6-.1.8-.3c.2-.2.3-.5.3-.9s-.2-.9-.5-1.2-.8-.5-1.4-.5h-.2v.9ZM333.6,195.9h3.1v.9h-.8c.3.2.6.5.7.8.2.3.2.7.2,1.1s-.2,1-.5,1.3c-.3.3-.7.5-1.3.5s-1.1-.2-1.4-.6c-.3-.4-.5-1-.5-1.8v-1.3h0c-.4,0-.7.1-1,.4s-.3.7-.3,1.1,0,.6.1.9c0,.3.2.6.3.9h-.8c-.1-.3-.2-.6-.3-1,0-.3,0-.6,0-.9,0-.8.2-1.4.6-1.8.4-.4,1-.6,1.9-.6Z"/>
            <path id="DejaVuSans-64" d="M332.1,190.4h-3v-.9h7.6v.9h-.8c.3.2.6.4.7.7.2.3.2.6.2,1,0,.7-.3,1.2-.8,1.6-.5.4-1.2.6-2.1.6s-1.6-.2-2.1-.6c-.5-.4-.8-1-.8-1.6s0-.8.2-1c.2-.3.4-.5.7-.7ZM334,193.5c.7,0,1.2-.1,1.6-.4.4-.3.6-.6.6-1.1s-.2-.8-.6-1.1c-.4-.3-.9-.4-1.6-.4s-1.2.1-1.6.4c-.4.3-.6.6-.6,1.1s.2.8.6,1.1.9.4,1.6.4Z"/>
            <path id="DejaVuSans-72" d="M332.1,184.5c0,.1-.1.2-.1.3,0,.1,0,.2,0,.4,0,.5.2.9.5,1.2s.8.4,1.4.4h2.9v.9h-5.5v-.9h.9c-.3-.2-.6-.4-.7-.7-.2-.3-.2-.7-.2-1.1s0-.1,0-.2c0,0,0-.2,0-.2h.9Z"/>
            <path id="DejaVuSans-612" data-name="DejaVuSans-61" d="M334,181.1c0,.7,0,1.2.2,1.5s.4.4.9.4.6-.1.8-.3c.2-.2.3-.5.3-.9s-.2-.9-.5-1.2-.8-.5-1.4-.5h-.2v.9ZM333.6,179.3h3.1v.9h-.8c.3.2.6.5.7.8.2.3.2.7.2,1.1s-.2,1-.5,1.3c-.3.3-.7.5-1.3.5s-1.1-.2-1.4-.6c-.3-.4-.5-1-.5-1.8v-1.3h0c-.4,0-.7.1-1,.4s-.3.7-.3,1.1,0,.6.1.9c0,.3.2.6.3.9h-.8c-.1-.3-.2-.6-.3-1,0-.3,0-.6,0-.9,0-.8.2-1.4.6-1.8.4-.4,1-.6,1.9-.6Z"/>
            <path id="DejaVuSans-74" d="M329.7,176.6h1.6v-1.9h.7v1.9h3c.4,0,.7,0,.9-.2s.2-.4.2-.7v-.9h.8v.9c0,.7-.1,1.2-.4,1.4-.3.3-.7.4-1.4.4h-3v.7h-.7v-.7h-1.6v-.9Z"/>
            <path id="DejaVuSans-751" data-name="DejaVuSans-75" d="M334.6,173.6h-3.3v-.9h3.3c.5,0,.9-.1,1.2-.3.3-.2.4-.5.4-.9s-.2-.9-.5-1.1c-.3-.3-.7-.4-1.3-.4h-3.1v-.9h5.5v.9h-.8c.3.2.6.5.7.8.2.3.2.6.2,1,0,.6-.2,1.1-.6,1.4-.4.3-1,.5-1.7.5ZM331.1,171.4h0Z"/>
            <path id="DejaVuSans-721" data-name="DejaVuSans-72" d="M332.1,164c0,.1-.1.2-.1.3,0,.1,0,.2,0,.4,0,.5.2.9.5,1.2s.8.4,1.4.4h2.9v.9h-5.5v-.9h.9c-.3-.2-.6-.4-.7-.7-.2-.3-.2-.7-.2-1.1s0-.1,0-.2c0,0,0-.2,0-.2h.9Z"/>
            <path id="DejaVuSans-651" data-name="DejaVuSans-65" d="M333.8,158.6h.4v4.1c.6,0,1.1-.2,1.4-.6.3-.3.5-.8.5-1.4s0-.7-.1-1-.2-.6-.4-1h.9c.1.3.2.7.3,1s.1.7.1,1c0,.9-.3,1.6-.8,2.1-.5.5-1.2.8-2.1.8s-1.6-.2-2.1-.7c-.5-.5-.8-1.1-.8-2s.2-1.3.7-1.7c.5-.4,1.1-.6,1.9-.6ZM333.5,159.5c-.5,0-.9.1-1.2.4-.3.3-.4.6-.4,1.1s.1.9.4,1.2.7.5,1.2.5v-3.2Z"/>
            <path id="DejaVuSans-201" data-name="DejaVuSans-20" d="M336.7,158.1"/>
            <path id="DejaVuSans-281" data-name="DejaVuSans-28" d="M329.1,151.8c.7.4,1.5.8,2.2,1,.7.2,1.5.3,2.2.3s1.5-.1,2.2-.3,1.5-.5,2.2-1v.8c-.8.5-1.5.9-2.3,1.1-.7.2-1.5.4-2.2.4s-1.5-.1-2.2-.4c-.7-.2-1.5-.6-2.3-1.1v-.8Z"/>
            <path id="DejaVuSans-511" data-name="DejaVuSans-51" d="M330.1,147.1c0,.7.3,1.3.8,1.7.5.4,1.3.6,2.2.6s1.6-.2,2.2-.6c.5-.4.8-1,.8-1.7s-.3-1.3-.8-1.7c-.5-.4-1.3-.6-2.2-.6s-1.6.2-2.2.6c-.5.4-.8,1-.8,1.7ZM336.6,145.7l1.4-1.3v1.2l-1.2,1.1c0,.1,0,.2,0,.2,0,0,0,.1,0,.2,0,1-.3,1.8-1,2.5-.7.6-1.6.9-2.8.9s-2.1-.3-2.8-.9c-.7-.6-1-1.4-1-2.5s.3-1.8,1-2.5c.7-.6,1.6-.9,2.8-.9s1.6.2,2.2.5c.6.3,1,.8,1.3,1.5Z"/>
            <path id="DejaVuSans-291" data-name="DejaVuSans-29" d="M329.1,142.3v-.8c.8-.5,1.5-.9,2.3-1.1.7-.2,1.5-.4,2.2-.4s1.5.1,2.2.4c.7.2,1.5.6,2.3,1.1v.8c-.7-.4-1.5-.8-2.2-1-.7-.2-1.5-.3-2.2-.3s-1.5.1-2.2.3c-.7.2-1.5.5-2.2,1Z"/>
          </g>
        </g>
      </g>
      <g id="line2d_29">
        <g class="st11">
          <path class="st4" d="M651.3,177.3v-5.2c-.1,0-.5-5.2-.5-5.2l-.6-5.2-.9-5.2-1.1-5.1-1.3-5.1-1.6-5-1.8-4.9-2-4.8-2.3-4.7-2.5-4.6-2.7-4.5-2.9-4.4-3.1-4.2-3.3-4.1-3.5-3.9-3.7-3.7-3.9-3.5-4-3.4-4.2-3.2-4.3-3-4.5-2.8-4.6-2.5-4.7-2.3-4.8-2.1-4.9-1.9-5-1.6-5-1.4-5.1-1.2-5.2-.9-5.2-.7-5.2-.4-5.2-.2h-5.2c0,0-5.2.4-5.2.4l-5.2.6-5.2.8-5.1,1-5.1,1.3-5,1.5-4.9,1.8-4.8,2-4.7,2.2-4.6,2.4-4.5,2.7-4.4,2.9-4.2,3.1-4.1,3.3-3.9,3.5-3.8,3.6-3.6,3.8-3.4,4-3.2,4.1-3,4.3-2.8,4.4-2.6,4.5-2.4,4.7-2.2,4.8-1.9,4.9-1.7,5-1.5,5-1.2,5.1-1,5.1-.7,5.2-.5,5.2-.2,5.2v5.2l.2,5.2.5,5.2.7,5.2,1,5.1,1.2,5.1,1.5,5,1.7,5,1.9,4.9,2.2,4.8,2.4,4.7,2.6,4.5,2.8,4.4,3,4.3,3.2,4.1,3.4,4,3.6,3.8,3.8,3.6,3.9,3.5,4.1,3.3,4.2,3.1,4.4,2.9,4.5,2.7,4.6,2.4,4.7,2.2,4.8,2,4.9,1.8,5,1.5,5.1,1.3,5.1,1,5.2.8,5.2.6,5.2.3h5.2c0,0,5.2-.1,5.2-.1l5.2-.4,5.2-.7,5.2-.9,5.1-1.2,5-1.4,5-1.6,4.9-1.9,4.8-2.1,4.7-2.3,4.6-2.5,4.5-2.8,4.3-3,4.2-3.2,4-3.4,3.9-3.5,3.7-3.7,3.5-3.9,3.3-4.1,3.1-4.2,2.9-4.4,2.7-4.5,2.5-4.6,2.3-4.7,2-4.8,1.8-4.9,1.6-5,1.3-5.1,1.1-5.1.9-5.2.6-5.2.4-5.2v-5.2h.1"/>
        </g>
      </g>
      <g id="patch_3">
        <path class="st3" d="M374.1,343.6V11"/>
      </g>
      <g id="patch_4">
        <path class="st3" d="M706.7,343.6V11"/>
      </g>
      <g id="patch_5">
        <path class="st3" d="M374.1,343.6h332.6"/>
      </g>
      <g id="patch_6">
        <path class="st3" d="M374.1,11h332.6"/>
      </g>
      <g id="text_17">
        <g>
          <path id="DejaVuSans-3012" data-name="DejaVuSans-30" class="st29" d="M664.4,173c-.6,0-1,.3-1.3.8-.3.5-.4,1.4-.4,2.5s.1,1.9.4,2.5c.3.5.7.8,1.3.8s1-.3,1.3-.8c.3-.5.4-1.4.4-2.5s-.1-1.9-.4-2.5c-.3-.5-.7-.8-1.3-.8ZM664.4,172.1c.9,0,1.6.4,2.1,1.1.5.7.7,1.7.7,3.1s-.2,2.4-.7,3.1c-.5.7-1.2,1.1-2.1,1.1s-1.6-.4-2.1-1.1c-.5-.7-.7-1.7-.7-3.1s.2-2.4.7-3.1c.5-.7,1.2-1.1,2.1-1.1Z"/>
          <path id="DejaVuSans-3013" data-name="DejaVuSans-30" class="st29" d="M671.4,173c-.6,0-1,.3-1.3.8-.3.5-.4,1.4-.4,2.5s.1,1.9.4,2.5c.3.5.7.8,1.3.8s1-.3,1.3-.8c.3-.5.4-1.4.4-2.5s-.1-1.9-.4-2.5c-.3-.5-.7-.8-1.3-.8ZM671.4,172.1c.9,0,1.6.4,2.1,1.1.5.7.7,1.7.7,3.1s-.2,2.4-.7,3.1c-.5.7-1.2,1.1-2.1,1.1s-1.6-.4-2.1-1.1c-.5-.7-.7-1.7-.7-3.1s.2-2.4.7-3.1c.5-.7,1.2-1.1,2.1-1.1Z"/>
        </g>
      </g>
      <g id="text_18">
        <g>
          <path id="DejaVuSans-3014" data-name="DejaVuSans-30" class="st28" d="M627.1,82.8c-.6,0-1,.3-1.3.8-.3.5-.4,1.4-.4,2.5s.1,1.9.4,2.5c.3.5.7.8,1.3.8s1-.3,1.3-.8c.3-.5.4-1.4.4-2.5s-.1-1.9-.4-2.5c-.3-.5-.7-.8-1.3-.8ZM627.1,82c.9,0,1.6.4,2.1,1.1.5.7.7,1.7.7,3.1s-.2,2.4-.7,3.1c-.5.7-1.2,1.1-2.1,1.1s-1.6-.4-2.1-1.1c-.5-.7-.7-1.7-.7-3.1s.2-2.4.7-3.1c.5-.7,1.2-1.1,2.1-1.1Z"/>
          <path id="DejaVuSans-3015" data-name="DejaVuSans-30" class="st28" d="M634.1,82.8c-.6,0-1,.3-1.3.8-.3.5-.4,1.4-.4,2.5s.1,1.9.4,2.5c.3.5.7.8,1.3.8s1-.3,1.3-.8c.3-.5.4-1.4.4-2.5s-.1-1.9-.4-2.5c-.3-.5-.7-.8-1.3-.8ZM634.1,82c.9,0,1.6.4,2.1,1.1.5.7.7,1.7.7,3.1s-.2,2.4-.7,3.1c-.5.7-1.2,1.1-2.1,1.1s-1.6-.4-2.1-1.1c-.5-.7-.7-1.7-.7-3.1s.2-2.4.7-3.1c.5-.7,1.2-1.1,2.1-1.1Z"/>
        </g>
      </g>
      <g id="text_19">
        <g>
          <path id="DejaVuSans-3016" data-name="DejaVuSans-30" class="st29" d="M536.9,45.5c-.6,0-1,.3-1.3.8-.3.5-.4,1.4-.4,2.5s.1,1.9.4,2.5c.3.5.7.8,1.3.8s1-.3,1.3-.8c.3-.5.4-1.4.4-2.5s-.1-1.9-.4-2.5c-.3-.5-.7-.8-1.3-.8ZM536.9,44.6c.9,0,1.6.4,2.1,1.1.5.7.7,1.7.7,3.1s-.2,2.4-.7,3.1c-.5.7-1.2,1.1-2.1,1.1s-1.6-.4-2.1-1.1c-.5-.7-.7-1.7-.7-3.1s.2-2.4.7-3.1c.5-.7,1.2-1.1,2.1-1.1Z"/>
          <path id="DejaVuSans-318" data-name="DejaVuSans-31" class="st29" d="M541.8,51.9h1.8v-6.1l-1.9.4v-1l1.9-.4h1.1v7.1h1.8v.9h-4.6v-.9Z"/>
        </g>
      </g>
      <g id="text_20">
        <g>
          <path id="DejaVuSans-3017" data-name="DejaVuSans-30" class="st28" d="M446.7,82.8c-.6,0-1,.3-1.3.8-.3.5-.4,1.4-.4,2.5s.1,1.9.4,2.5c.3.5.7.8,1.3.8s1-.3,1.3-.8c.3-.5.4-1.4.4-2.5s-.1-1.9-.4-2.5c-.3-.5-.7-.8-1.3-.8ZM446.7,82c.9,0,1.6.4,2.1,1.1.5.7.7,1.7.7,3.1s-.2,2.4-.7,3.1c-.5.7-1.2,1.1-2.1,1.1s-1.6-.4-2.1-1.1c-.5-.7-.7-1.7-.7-3.1s.2-2.4.7-3.1c.5-.7,1.2-1.1,2.1-1.1Z"/>
          <path id="DejaVuSans-319" data-name="DejaVuSans-31" class="st28" d="M451.6,89.2h1.8v-6.1l-1.9.4v-1l1.9-.4h1.1v7.1h1.8v.9h-4.6v-.9Z"/>
        </g>
      </g>
      <g id="text_21">
        <g>
          <path id="DejaVuSans-3110" data-name="DejaVuSans-31" class="st29" d="M407.3,179.4h1.8v-6.1l-1.9.4v-1l1.9-.4h1.1v7.1h1.8v.9h-4.6v-.9Z"/>
          <path id="DejaVuSans-3111" data-name="DejaVuSans-31" class="st29" d="M414.3,179.4h1.8v-6.1l-1.9.4v-1l1.9-.4h1.1v7.1h1.8v.9h-4.6v-.9Z"/>
        </g>
      </g>
      <g id="text_22">
        <g>
          <path id="DejaVuSans-3112" data-name="DejaVuSans-31" class="st28" d="M444.6,269.6h1.8v-6.1l-1.9.4v-1l1.9-.4h1.1v7.1h1.8v.9h-4.6v-.9Z"/>
          <path id="DejaVuSans-3113" data-name="DejaVuSans-31" class="st28" d="M451.6,269.6h1.8v-6.1l-1.9.4v-1l1.9-.4h1.1v7.1h1.8v.9h-4.6v-.9Z"/>
        </g>
      </g>
      <g id="text_23">
        <g>
          <path id="DejaVuSans-3114" data-name="DejaVuSans-31" class="st29" d="M534.8,306.9h1.8v-6.1l-1.9.4v-1l1.9-.4h1.1v7.1h1.8v.9h-4.6v-.9Z"/>
          <path id="DejaVuSans-3018" data-name="DejaVuSans-30" class="st29" d="M543.9,300.5c-.6,0-1,.3-1.3.8-.3.5-.4,1.4-.4,2.5s.1,1.9.4,2.5c.3.5.7.8,1.3.8s1-.3,1.3-.8c.3-.5.4-1.4.4-2.5s-.1-1.9-.4-2.5c-.3-.5-.7-.8-1.3-.8ZM543.9,299.7c.9,0,1.6.4,2.1,1.1.5.7.7,1.7.7,3.1s-.2,2.4-.7,3.1c-.5.7-1.2,1.1-2.1,1.1s-1.6-.4-2.1-1.1c-.5-.7-.7-1.7-.7-3.1s.2-2.4.7-3.1c.5-.7,1.2-1.1,2.1-1.1Z"/>
        </g>
      </g>
      <g id="text_24">
        <g>
          <path id="DejaVuSans-3115" data-name="DejaVuSans-31" class="st28" d="M624.9,269.6h1.8v-6.1l-1.9.4v-1l1.9-.4h1.1v7.1h1.8v.9h-4.6v-.9Z"/>
          <path id="DejaVuSans-3019" data-name="DejaVuSans-30" class="st28" d="M634.1,263.2c-.6,0-1,.3-1.3.8-.3.5-.4,1.4-.4,2.5s.1,1.9.4,2.5c.3.5.7.8,1.3.8s1-.3,1.3-.8c.3-.5.4-1.4.4-2.5s-.1-1.9-.4-2.5c-.3-.5-.7-.8-1.3-.8ZM634.1,262.3c.9,0,1.6.4,2.1,1.1.5.7.7,1.7.7,3.1s-.2,2.4-.7,3.1c-.5.7-1.2,1.1-2.1,1.1s-1.6-.4-2.1-1.1c-.5-.7-.7-1.7-.7-3.1s.2-2.4.7-3.1c.5-.7,1.2-1.1,2.1-1.1Z"/>
        </g>
      </g>
      <g id="patch_7">
        <path class="st2" d="M649.8,175.9c-51.9-50-113.3-75.6-184.2-76.9"/>
        <path class="st2" d="M469.6,101l-4-2.1,4-1.9"/>
      </g>
      <g id="patch_8">
        <path class="st2" d="M539,67.8c-50,51.9-75.6,113.3-76.9,184.2"/>
        <path class="st2" d="M464.1,248l-2.1,4-1.9-4"/>
      </g>
      <g id="patch_9">
        <path class="st2" d="M431,178.7c51.9,50,113.3,75.6,184.2,76.9"/>
        <path class="st2" d="M611.2,253.5l4,2.1-4,1.9"/>
      </g>
      <g id="patch_10">
        <path class="st2" d="M541.8,286.7c50-51.9,75.6-113.3,76.9-184.2"/>
        <path class="st2" d="M616.7,106.5l2.1-4,1.9,4"/>
      </g>
      <g id="text_25">
        <g>
          <path id="DejaVuSans-4f" d="M529.2,162.3c-.7,0-1.3.3-1.7.8-.4.5-.6,1.3-.6,2.2s.2,1.6.6,2.2c.4.5,1,.8,1.7.8s1.3-.3,1.7-.8c.4-.5.6-1.3.6-2.2s-.2-1.6-.6-2.2c-.4-.5-1-.8-1.7-.8ZM529.2,161.5c1,0,1.8.3,2.5,1,.6.7.9,1.6.9,2.8s-.3,2.1-.9,2.8c-.6.7-1.4,1-2.5,1s-1.8-.3-2.5-1c-.6-.7-.9-1.6-.9-2.8s.3-2.1.9-2.8c.6-.7,1.4-1,2.5-1Z"/>
          <path id="DejaVuSans-722" data-name="DejaVuSans-72" d="M537.3,164.3c-.1,0-.2-.1-.3-.1-.1,0-.2,0-.4,0-.5,0-.9.2-1.2.5s-.4.8-.4,1.4v2.9h-.9v-5.5h.9v.9c.2-.3.4-.6.7-.7.3-.2.7-.2,1.1-.2s.1,0,.2,0c0,0,.2,0,.2,0v.9Z"/>
          <path id="DejaVuSans-69" d="M538.2,163.5h.9v5.5h-.9v-5.5ZM538.2,161.3h.9v1.1h-.9v-1.1Z"/>
          <path id="DejaVuSans-67" d="M544.6,166.1c0-.7-.1-1.2-.4-1.5-.3-.4-.6-.5-1.1-.5s-.9.2-1.1.5c-.3.4-.4.9-.4,1.5s.1,1.2.4,1.5c.3.4.6.5,1.1.5s.9-.2,1.1-.5c.3-.4.4-.9.4-1.5ZM545.5,168.3c0,.9-.2,1.6-.6,2.1-.4.5-1,.7-1.9.7s-.6,0-.9,0-.6-.1-.8-.2v-.9c.3.1.5.2.8.3.3,0,.5.1.8.1.6,0,1-.2,1.3-.5.3-.3.4-.8.4-1.4v-.4c-.2.3-.4.6-.7.7s-.6.2-1,.2c-.7,0-1.2-.3-1.6-.8-.4-.5-.6-1.2-.6-2s.2-1.5.6-2c.4-.5,1-.8,1.6-.8s.8,0,1,.2.5.4.7.7v-.8h.9v4.8Z"/>
          <path id="DejaVuSans-691" data-name="DejaVuSans-69" d="M547.3,163.5h.9v5.5h-.9v-5.5ZM547.3,161.3h.9v1.1h-.9v-1.1Z"/>
          <path id="DejaVuSans-6e1" data-name="DejaVuSans-6e" d="M554.7,165.6v3.3h-.9v-3.3c0-.5-.1-.9-.3-1.2-.2-.3-.5-.4-.9-.4s-.9.2-1.1.5c-.3.3-.4.7-.4,1.3v3.1h-.9v-5.5h.9v.9c.2-.3.5-.6.8-.7.3-.2.6-.2,1-.2.6,0,1.1.2,1.4.6.3.4.5,1,.5,1.7Z"/>
        </g>
      </g>
      <g id="legend_1">
        <g id="patch_11">
          <path class="st5" d="M563.1,48.3h136.7c1.3,0,2-.7,2-2v-28.4c0-1.3-.7-2-2-2h-136.7c-1.3,0-2,.7-2,2v28.4c0,1.3.7,2,2,2Z"/>
        </g>
        <g id="PathCollection_4">
          <path id="m307052e6e44" data-name="m307052e6e4" class="st7" d="M575.1,31c1.6,0,3.2-.6,4.3-1.8,1.1-1.1,1.8-2.7,1.8-4.3s-.6-3.2-1.8-4.3c-1.1-1.1-2.7-1.8-4.3-1.8s-3.2.6-4.3,1.8c-1.1,1.1-1.8,2.7-1.8,4.3s.6,3.2,1.8,4.3c1.1,1.1,2.7,1.8,4.3,1.8Z"/>
        </g>
        <g id="text_27">
          <g>
            <path id="DejaVuSans-52" d="M597.5,24.1c.2,0,.4.2.6.5s.4.6.6,1l1,2h-1.1l-.9-1.9c-.2-.5-.5-.8-.7-1s-.5-.2-.9-.2h-1.1v3.1h-1v-7.3h2.2c.8,0,1.5.2,1.9.5.4.3.6.9.6,1.6s-.1.8-.3,1.1c-.2.3-.5.5-.9.6ZM595,21.1v2.6h1.2c.5,0,.8-.1,1.1-.3s.4-.5.4-1-.1-.7-.4-1-.6-.3-1.1-.3h-1.2Z"/>
            <path id="DejaVuSans-652" data-name="DejaVuSans-65" d="M605.2,24.6v.4h-4.1c0,.6.2,1.1.6,1.4.3.3.8.5,1.4.5s.7,0,1-.1.6-.2,1-.4v.9c-.3.1-.7.2-1,.3s-.7.1-1,.1c-.9,0-1.6-.3-2.1-.8-.5-.5-.8-1.2-.8-2.1s.2-1.6.7-2.1c.5-.5,1.1-.8,2-.8s1.3.2,1.7.7c.4.5.6,1.1.6,1.9ZM604.3,24.3c0-.5-.1-.9-.4-1.2-.3-.3-.6-.4-1.1-.4s-.9.1-1.2.4-.5.7-.5,1.2h3.2Z"/>
            <path id="DejaVuSans-66" d="M609.4,20v.7h-.9c-.3,0-.5,0-.7.2-.1.1-.2.4-.2.7v.5h1.5v.7h-1.5v4.8h-.9v-4.8h-.9v-.7h.9v-.4c0-.6.1-1.1.4-1.3.3-.3.7-.4,1.3-.4h.9Z"/>
            <path id="DejaVuSans-653" data-name="DejaVuSans-65" d="M614.8,24.6v.4h-4.1c0,.6.2,1.1.6,1.4.3.3.8.5,1.4.5s.7,0,1-.1.6-.2,1-.4v.9c-.3.1-.7.2-1,.3s-.7.1-1,.1c-.9,0-1.6-.3-2.1-.8-.5-.5-.8-1.2-.8-2.1s.2-1.6.7-2.1c.5-.5,1.1-.8,2-.8s1.3.2,1.7.7c.4.5.6,1.1.6,1.9ZM613.9,24.3c0-.5-.1-.9-.4-1.2-.3-.3-.6-.4-1.1-.4s-.9.1-1.2.4-.5.7-.5,1.2h3.2Z"/>
            <path id="DejaVuSans-723" data-name="DejaVuSans-72" d="M619.5,22.9c-.1,0-.2-.1-.3-.1-.1,0-.2,0-.4,0-.5,0-.9.2-1.2.5s-.4.8-.4,1.4v2.9h-.9v-5.5h.9v.9c.2-.3.4-.6.7-.7.3-.2.7-.2,1.1-.2s.1,0,.2,0c0,0,.2,0,.2,0v.9Z"/>
            <path id="DejaVuSans-654" data-name="DejaVuSans-65" d="M624.9,24.6v.4h-4.1c0,.6.2,1.1.6,1.4.3.3.8.5,1.4.5s.7,0,1-.1.6-.2,1-.4v.9c-.3.1-.7.2-1,.3s-.7.1-1,.1c-.9,0-1.6-.3-2.1-.8-.5-.5-.8-1.2-.8-2.1s.2-1.6.7-2.1c.5-.5,1.1-.8,2-.8s1.3.2,1.7.7c.4.5.6,1.1.6,1.9ZM624,24.3c0-.5-.1-.9-.4-1.2-.3-.3-.6-.4-1.1-.4s-.9.1-1.2.4-.5.7-.5,1.2h3.2Z"/>
            <path id="DejaVuSans-6e2" data-name="DejaVuSans-6e" d="M630.9,24.2v3.3h-.9v-3.3c0-.5-.1-.9-.3-1.2-.2-.3-.5-.4-.9-.4s-.9.2-1.1.5c-.3.3-.4.7-.4,1.3v3.1h-.9v-5.5h.9v.9c.2-.3.5-.6.8-.7.3-.2.6-.2,1-.2.6,0,1.1.2,1.4.6.3.4.5,1,.5,1.7Z"/>
            <path id="DejaVuSans-63" d="M636.6,22.3v.8c-.3-.1-.5-.2-.8-.3s-.5-.1-.8-.1c-.6,0-1,.2-1.4.6-.3.4-.5.9-.5,1.6s.2,1.2.5,1.6c.3.4.8.6,1.4.6s.5,0,.8-.1.5-.2.8-.3v.8c-.3.1-.5.2-.8.3-.3,0-.6,0-.9,0-.8,0-1.5-.3-2-.8-.5-.5-.7-1.2-.7-2.1s.2-1.6.7-2.1c.5-.5,1.2-.8,2-.8s.5,0,.8,0c.3,0,.5.1.8.3Z"/>
            <path id="DejaVuSans-655" data-name="DejaVuSans-65" d="M642.9,24.6v.4h-4.1c0,.6.2,1.1.6,1.4.3.3.8.5,1.4.5s.7,0,1-.1.6-.2,1-.4v.9c-.3.1-.7.2-1,.3s-.7.1-1,.1c-.9,0-1.6-.3-2.1-.8-.5-.5-.8-1.2-.8-2.1s.2-1.6.7-2.1c.5-.5,1.1-.8,2-.8s1.3.2,1.7.7c.4.5.6,1.1.6,1.9ZM642,24.3c0-.5-.1-.9-.4-1.2-.3-.3-.6-.4-1.1-.4s-.9.1-1.2.4-.5.7-.5,1.2h3.2Z"/>
            <path id="DejaVuSans-202" data-name="DejaVuSans-20" d="M643.4,27.5"/>
            <path id="DejaVuSans-282" data-name="DejaVuSans-28" d="M649.7,20c-.4.7-.8,1.5-1,2.2-.2.7-.3,1.5-.3,2.2s.1,1.5.3,2.2.5,1.5,1,2.2h-.8c-.5-.8-.9-1.5-1.1-2.3-.2-.7-.4-1.5-.4-2.2s.1-1.5.4-2.2c.2-.7.6-1.5,1.1-2.3h.8Z"/>
            <path id="DejaVuSans-50" d="M652.4,21.1v2.7h1.2c.5,0,.8-.1,1.1-.4.3-.2.4-.6.4-1s-.1-.8-.4-1c-.3-.2-.6-.4-1.1-.4h-1.2ZM651.5,20.3h2.2c.8,0,1.4.2,1.9.6.4.4.6.9.6,1.6s-.2,1.3-.6,1.6c-.4.4-1,.6-1.9.6h-1.2v2.9h-1v-7.3Z"/>
            <path id="DejaVuSans-724" data-name="DejaVuSans-72" d="M660.4,22.9c-.1,0-.2-.1-.3-.1-.1,0-.2,0-.4,0-.5,0-.9.2-1.2.5s-.4.8-.4,1.4v2.9h-.9v-5.5h.9v.9c.2-.3.4-.6.7-.7.3-.2.7-.2,1.1-.2s.1,0,.2,0c0,0,.2,0,.2,0v.9Z"/>
            <path id="DejaVuSans-656" data-name="DejaVuSans-65" d="M665.8,24.6v.4h-4.1c0,.6.2,1.1.6,1.4.3.3.8.5,1.4.5s.7,0,1-.1.6-.2,1-.4v.9c-.3.1-.7.2-1,.3s-.7.1-1,.1c-.9,0-1.6-.3-2.1-.8-.5-.5-.8-1.2-.8-2.1s.2-1.6.7-2.1c.5-.5,1.1-.8,2-.8s1.3.2,1.7.7c.4.5.6,1.1.6,1.9ZM664.9,24.3c0-.5-.1-.9-.4-1.2-.3-.3-.6-.4-1.1-.4s-.9.1-1.2.4-.5.7-.5,1.2h3.2Z"/>
            <path id="DejaVuSans-76" d="M666.7,22.1h1l1.7,4.6,1.7-4.6h1l-2.1,5.5h-1.2l-2.1-5.5Z"/>
            <path id="DejaVuSans-692" data-name="DejaVuSans-69" d="M673.2,22.1h.9v5.5h-.9v-5.5ZM673.2,20h.9v1.1h-.9v-1.1Z"/>
            <path id="DejaVuSans-6f" d="M678.1,22.7c-.5,0-.9.2-1.1.6s-.4.9-.4,1.5.1,1.2.4,1.5c.3.4.7.6,1.1.6s.9-.2,1.1-.6c.3-.4.4-.9.4-1.5s-.1-1.2-.4-1.5c-.3-.4-.7-.6-1.1-.6ZM678.1,21.9c.8,0,1.4.3,1.8.8.4.5.7,1.2.7,2.1s-.2,1.6-.7,2.1c-.4.5-1.1.8-1.8.8s-1.4-.3-1.8-.8c-.4-.5-.7-1.2-.7-2.1s.2-1.6.7-2.1c.4-.5,1.1-.8,1.8-.8Z"/>
            <path id="DejaVuSans-752" data-name="DejaVuSans-75" d="M682,25.4v-3.3h.9v3.3c0,.5.1.9.3,1.2.2.3.5.4.9.4s.9-.2,1.1-.5c.3-.3.4-.7.4-1.3v-3.1h.9v5.5h-.9v-.8c-.2.3-.5.6-.8.7-.3.2-.6.2-1,.2-.6,0-1.1-.2-1.4-.6-.3-.4-.5-1-.5-1.7ZM684.3,21.9h0Z"/>
            <path id="DejaVuSans-731" data-name="DejaVuSans-73" d="M692,22.2v.9c-.3-.1-.5-.2-.8-.3-.3,0-.6,0-.9,0-.4,0-.8,0-1,.2-.2.1-.3.3-.3.6s0,.4.2.5.5.2,1,.3h.3c.6.2,1.1.4,1.4.6s.4.6.4,1-.2.9-.6,1.2c-.4.3-1,.4-1.7.4s-.6,0-.9,0c-.3,0-.7-.1-1-.3v-.9c.3.2.7.3,1,.4.3,0,.6.1,1,.1s.7,0,1-.2c.2-.1.3-.3.3-.6s0-.4-.2-.6c-.2-.1-.5-.3-1.1-.4h-.3c-.6-.2-1-.4-1.2-.6-.2-.2-.4-.6-.4-1s.2-.9.5-1.2c.4-.3.9-.4,1.6-.4s.6,0,.9,0c.3,0,.6.1.8.2Z"/>
            <path id="DejaVuSans-292" data-name="DejaVuSans-29" d="M693.5,20h.8c.5.8.9,1.5,1.1,2.3.2.7.4,1.5.4,2.2s-.1,1.5-.4,2.2c-.2.7-.6,1.5-1.1,2.3h-.8c.4-.7.8-1.5,1-2.2.2-.7.3-1.5.3-2.2s-.1-1.5-.3-2.2c-.2-.7-.5-1.5-1-2.2Z"/>
          </g>
        </g>
        <g id="PathCollection_5">
          <path id="m6d8f49b6144" data-name="m6d8f49b614" class="st9" d="M575.1,45.7c1.6,0,3.2-.6,4.3-1.8,1.1-1.1,1.8-2.7,1.8-4.3s-.6-3.2-1.8-4.3c-1.1-1.1-2.7-1.8-4.3-1.8s-3.2.6-4.3,1.8c-1.1,1.1-1.8,2.7-1.8,4.3s.6,3.2,1.8,4.3c1.1,1.1,2.7,1.8,4.3,1.8Z"/>
        </g>
        <g id="text_28">
          <g>
            <path id="DejaVuSans-43" d="M599.5,35.5v1c-.3-.3-.7-.5-1.1-.7-.4-.2-.8-.2-1.2-.2-.8,0-1.5.3-1.9.8s-.7,1.2-.7,2.2.2,1.7.7,2.2,1.1.8,1.9.8.8,0,1.2-.2.7-.4,1.1-.7v1c-.3.2-.7.4-1.1.5-.4.1-.8.2-1.2.2-1.1,0-2-.3-2.6-1-.6-.7-1-1.6-1-2.8s.3-2.1,1-2.8c.6-.7,1.5-1,2.6-1s.8,0,1.2.2c.4.1.7.3,1.1.5Z"/>
            <path id="DejaVuSans-753" data-name="DejaVuSans-75" d="M600.9,40.1v-3.3h.9v3.3c0,.5.1.9.3,1.2.2.3.5.4.9.4s.9-.2,1.1-.5c.3-.3.4-.7.4-1.3v-3.1h.9v5.5h-.9v-.8c-.2.3-.5.6-.8.7-.3.2-.6.2-1,.2-.6,0-1.1-.2-1.4-.6-.3-.4-.5-1-.5-1.7ZM603.1,36.6h0Z"/>
            <path id="DejaVuSans-725" data-name="DejaVuSans-72" d="M610.5,37.6c-.1,0-.2-.1-.3-.1-.1,0-.2,0-.4,0-.5,0-.9.2-1.2.5s-.4.8-.4,1.4v2.9h-.9v-5.5h.9v.9c.2-.3.4-.6.7-.7.3-.2.7-.2,1.1-.2s.1,0,.2,0c0,0,.2,0,.2,0v.9Z"/>
            <path id="DejaVuSans-726" data-name="DejaVuSans-72" d="M614.4,37.6c-.1,0-.2-.1-.3-.1-.1,0-.2,0-.4,0-.5,0-.9.2-1.2.5s-.4.8-.4,1.4v2.9h-.9v-5.5h.9v.9c.2-.3.4-.6.7-.7.3-.2.7-.2,1.1-.2s.1,0,.2,0c0,0,.2,0,.2,0v.9Z"/>
            <path id="DejaVuSans-657" data-name="DejaVuSans-65" d="M619.8,39.3v.4h-4.1c0,.6.2,1.1.6,1.4.3.3.8.5,1.4.5s.7,0,1-.1.6-.2,1-.4v.9c-.3.1-.7.2-1,.3s-.7.1-1,.1c-.9,0-1.6-.3-2.1-.8-.5-.5-.8-1.2-.8-2.1s.2-1.6.7-2.1c.5-.5,1.1-.8,2-.8s1.3.2,1.7.7c.4.5.6,1.1.6,1.9ZM618.9,39c0-.5-.1-.9-.4-1.2-.3-.3-.6-.4-1.1-.4s-.9.1-1.2.4-.5.7-.5,1.2h3.2Z"/>
            <path id="DejaVuSans-6e3" data-name="DejaVuSans-6e" d="M625.8,38.9v3.3h-.9v-3.3c0-.5-.1-.9-.3-1.2-.2-.3-.5-.4-.9-.4s-.9.2-1.1.5c-.3.3-.4.7-.4,1.3v3.1h-.9v-5.5h.9v.9c.2-.3.5-.6.8-.7.3-.2.6-.2,1-.2.6,0,1.1.2,1.4.6.3.4.5,1,.5,1.7Z"/>
            <path id="DejaVuSans-741" data-name="DejaVuSans-74" d="M628.5,35.2v1.6h1.9v.7h-1.9v3c0,.4,0,.7.2.9s.4.2.7.2h.9v.8h-.9c-.7,0-1.2-.1-1.4-.4-.3-.3-.4-.7-.4-1.4v-3h-.7v-.7h.7v-1.6h.9Z"/>
            <path id="DejaVuSans-203" data-name="DejaVuSans-20" d="M630.6,42.2"/>
            <path id="DejaVuSans-283" data-name="DejaVuSans-28" d="M636.9,34.6c-.4.7-.8,1.5-1,2.2-.2.7-.3,1.5-.3,2.2s.1,1.5.3,2.2.5,1.5,1,2.2h-.8c-.5-.8-.9-1.5-1.1-2.3-.2-.7-.4-1.5-.4-2.2s.1-1.5.4-2.2c.2-.7.6-1.5,1.1-2.3h.8Z"/>
            <path id="DejaVuSans-53" d="M643,35.2v1c-.4-.2-.7-.3-1.1-.4-.3,0-.7-.1-1-.1-.5,0-1,.1-1.2.3-.3.2-.4.5-.4.9s0,.6.3.7c.2.2.6.3,1.1.4h.6c.7.3,1.3.5,1.6.9s.5.8.5,1.4-.2,1.2-.7,1.6c-.5.4-1.2.5-2.1.5s-.7,0-1.1-.1c-.4,0-.8-.2-1.2-.3v-1c.4.2.8.4,1.2.5.4.1.8.2,1.1.2.6,0,1-.1,1.3-.3.3-.2.5-.5.5-.9s-.1-.6-.3-.8-.6-.4-1.1-.5h-.6c-.7-.3-1.3-.5-1.6-.8-.3-.3-.5-.7-.5-1.3s.2-1.2.7-1.5c.5-.4,1.1-.6,1.9-.6s.7,0,1,0c.4,0,.7.2,1.1.3Z"/>
            <path id="DejaVuSans-681" data-name="DejaVuSans-68" d="M649.5,38.9v3.3h-.9v-3.3c0-.5-.1-.9-.3-1.2-.2-.3-.5-.4-.9-.4s-.9.2-1.1.5c-.3.3-.4.7-.4,1.3v3.1h-.9v-7.6h.9v3c.2-.3.5-.6.8-.7.3-.2.6-.2,1-.2.6,0,1.1.2,1.4.6.3.4.5,1,.5,1.7Z"/>
            <path id="DejaVuSans-693" data-name="DejaVuSans-69" d="M651.3,36.8h.9v5.5h-.9v-5.5ZM651.3,34.6h.9v1.1h-.9v-1.1Z"/>
            <path id="DejaVuSans-661" data-name="DejaVuSans-66" d="M656.9,34.6v.7h-.9c-.3,0-.5,0-.7.2-.1.1-.2.4-.2.7v.5h1.5v.7h-1.5v4.8h-.9v-4.8h-.9v-.7h.9v-.4c0-.6.1-1.1.4-1.3.3-.3.7-.4,1.3-.4h.9Z"/>
            <path id="DejaVuSans-742" data-name="DejaVuSans-74" d="M658.3,35.2v1.6h1.9v.7h-1.9v3c0,.4,0,.7.2.9s.4.2.7.2h.9v.8h-.9c-.7,0-1.2-.1-1.4-.4-.3-.3-.4-.7-.4-1.4v-3h-.7v-.7h.7v-1.6h.9Z"/>
            <path id="DejaVuSans-658" data-name="DejaVuSans-65" d="M666,39.3v.4h-4.1c0,.6.2,1.1.6,1.4.3.3.8.5,1.4.5s.7,0,1-.1.6-.2,1-.4v.9c-.3.1-.7.2-1,.3s-.7.1-1,.1c-.9,0-1.6-.3-2.1-.8-.5-.5-.8-1.2-.8-2.1s.2-1.6.7-2.1c.5-.5,1.1-.8,2-.8s1.3.2,1.7.7c.4.5.6,1.1.6,1.9ZM665.1,39c0-.5-.1-.9-.4-1.2-.3-.3-.6-.4-1.1-.4s-.9.1-1.2.4-.5.7-.5,1.2h3.2Z"/>
            <path id="DejaVuSans-641" data-name="DejaVuSans-64" d="M671.1,37.6v-3h.9v7.6h-.9v-.8c-.2.3-.4.6-.7.7-.3.2-.6.2-1,.2-.7,0-1.2-.3-1.6-.8-.4-.5-.6-1.2-.6-2.1s.2-1.6.6-2.1c.4-.5,1-.8,1.6-.8s.8,0,1,.2c.3.2.5.4.7.7ZM668,39.5c0,.7.1,1.2.4,1.6.3.4.6.6,1.1.6s.8-.2,1.1-.6c.3-.4.4-.9.4-1.6s-.1-1.2-.4-1.6c-.3-.4-.6-.6-1.1-.6s-.8.2-1.1.6-.4.9-.4,1.6Z"/>
            <path id="DejaVuSans-204" data-name="DejaVuSans-20" d="M672.9,42.2"/>
            <path id="DejaVuSans-34" d="M679.9,35.8l-2.5,3.9h2.5v-3.9ZM679.6,34.9h1.2v4.8h1v.8h-1v1.7h-1v-1.7h-3.3v-1l3-4.6Z"/>
            <path id="DejaVuSans-358" data-name="DejaVuSans-35" d="M683.5,34.9h3.9v.8h-3v1.8c.1,0,.3,0,.4-.1.1,0,.3,0,.4,0,.8,0,1.5.2,1.9.7.5.4.7,1,.7,1.8s-.2,1.4-.7,1.8c-.5.4-1.2.7-2.1.7s-.6,0-.9,0c-.3,0-.6-.1-1-.2v-1c.3.2.6.3.9.4s.6.1,1,.1c.6,0,1-.1,1.3-.4.3-.3.5-.7.5-1.2s-.2-.9-.5-1.2c-.3-.3-.8-.4-1.3-.4s-.5,0-.8,0c-.3,0-.5.1-.8.3v-3.7Z"/>
            <path id="DejaVuSans-b0" d="M691.3,35.4c-.3,0-.5,0-.7.3-.2.2-.3.4-.3.7s0,.5.3.7.4.3.7.3.5,0,.7-.3c.2-.2.3-.4.3-.7s0-.5-.3-.7c-.2-.2-.4-.3-.7-.3ZM691.3,34.8c.2,0,.4,0,.6.1.2,0,.4.2.5.3.2.1.3.3.3.5,0,.2.1.4.1.6,0,.4-.2.8-.5,1.1s-.7.4-1.1.4-.8-.1-1.1-.4c-.3-.3-.4-.7-.4-1.1s.1-.8.4-1.1c.3-.3.7-.5,1.1-.5Z"/>
            <path id="DejaVuSans-293" data-name="DejaVuSans-29" d="M694.6,34.6h.8c.5.8.9,1.5,1.1,2.3.2.7.4,1.5.4,2.2s-.1,1.5-.4,2.2c-.2.7-.6,1.5-1.1,2.3h-.8c.4-.7.8-1.5,1-2.2.2-.7.3-1.5.3-2.2s-.1-1.5-.3-2.2c-.2-.7-.5-1.5-1-2.2Z"/>
          </g>
        </g>
      </g>
    </g>
  </g>
</svg>