<?xml version="1.0" encoding="UTF-8"?>
<svg id="Ebene_1" xmlns="http://www.w3.org/2000/svg" version="1.1" viewBox="0 0 228.4 218.2">
  <!-- Generator: Adobe Illustrator 29.4.0, SVG Export Plug-In . SVG Version: 2.1.0 Build 152)  -->
  <defs>
    <style>
      .st0 {
        fill: #fff;
      }

      .st1 {
        fill: #52b8c8;
      }
    </style>
  </defs>
  <g>
    <path class="st0" d="M65.8,186.7c15.5,4.9,34.9,3.8,48.3-1.4,15.2-6,23.5-12.5,30.8-23.4,4.8-6.9,8.4-18.4,7.7-30-.9-11.5-4.9-20-9.5-26.4-.8,5.2-2.1,10.3-4,15.3-3.2,8.2-8,15.1-13.9,20.9-.7.8-1.4,1.6-2.1,2.3-6.2,5.4-12.9,10.3-24.7,13.4-.4.2-8.9,2-.8.5-9.9,2-22.3,2.4-31.2-1.1-.6-.2-1.3-.5-1.7-.7-13.5-5.9-20.1-11.8-27.5-21.7-6.6-9.4-12.3-23-13.5-38-.6-10.6-.3-20.7,2.2-29.2.5-1.5.8-2.5.8-3.8,3.8-11.8,9.7-21.9,14.7-29.1,5.9-7.7,10.7-14.4,18.8-20.6-10.1,6.1-17.8,12-25.6,19.3-7.5,7.4-14.4,15-21,25.2-4.3,7.1-7.3,12.4-10.6,22.2-1.4,5.2-2.9,11.1-3,16.8v2.3c-.3,11.2,1.1,22.3,4.8,32.9,3.6,10.4,8.3,18.1,13.3,24.8,10,11.3,19.3,18.1,37.1,25.9"/>
    <path class="st0" d="M60.8,185.5"/>
    <path class="st0" d="M177.5,190.4c12.3-10.4,22.9-21.7,30.8-37.1,9.5-16.7,12.6-41.7,5.1-61.6-4.6-14.2-9.8-23-17.4-31.6-9.7-10.1-20.7-18.1-37-24.3-1.9-.5-3.5-1.7-5.7-1.9-2.3-.8-4.2-1.1-6.9-1.9-5.3-.8-10.2-1.8-15.7-1.3-13.2-.5-24.2,2.4-34,6.9-10.7,5.4-17.8,11.5-23.7,20.5-7.1,10-10.7,29.4-4.5,44.1,0,.3,0,.7,0,1.1,2.7,6.3,5.8,10.8,9.4,14.8-2.4-6.8-3.5-13.9-3.7-21.2-.1-5.3,0-10.6,0-15.9,0-1.8.4-2.5,2.4-2.2,5,.7,10.1,1.2,15.2.1,5.8-6.3,12.2-10.9,23-14.7,17.3-6.5,39.9-1.5,50.8,7.6,11.2,8.4,19.1,19.1,24.3,36.3,3.8,12.7,4.8,31.2.3,45.6.8-2.6.5-1.3-.6,1.2-3.2,11.5-9.3,22-15.1,30.2-2.9,4.2-6.2,8.1-9.4,11.8-1.6,1.7-3.3,3.3-5.1,5.1"/>
    <path class="st0" d="M188.1,145.4c4.7-24.8-3.9-49.7-15.6-61.8-1.4-2.2-3.4-3.5-5-5.2-7-6.2-21.3-13.3-36.8-11.7-1.4.3-5.7,1-7.8,1.6-.9.2-18.4,5.5-5.9,2.2-3.9,1-1.4,0-4.5,1.1,6.7,6.8,15.5,9,25.2,7.8,1-.1,1.9-.3,2.8-.4,3.4-.5,3.4-.5,3.4,3s0,9.7,0,14c8.1,8.5,16,24.9,14.2,43.8-1.1,12.1-6.7,22-12.1,28.9-7.6,9.1-17.9,16.6-31.4,21.1-13.2,4.4-29,5.5-43.4,2.5-15.1-3.2-24.4-9.2-34.8-15.4-5.8-4.1-9.8-6.9-8.9-6.3-9.1-6.3-8.4-6.6-15.4-15.7-.7-.5-1.5-.9-1.2-.3,7.5,11.3,13.1,19.3,20.9,27.8,7.5,7.8,15.5,15.7,25.1,21.5,6.8,4.1,14,8.6,23.6,11.3,1.7.5,0,0,1.9.5,1.7.6.6.2,3,.9,12.1,2.5,27.9,2.1,39-1.3.6-.3,4.9-1.1,9.7-3,8.6-3.8,7.1-3.1,14-7.1,6.3-3.9,11.3-8,15.8-13,9.9-11.3,16-20.6,22.1-39.1"/>
    <path class="st0" d="M157.1,11.9c-3.9-2.1-7.4-4-12.3-6-2.1-.7-.3-.2-6-2-14.9-5.7-34.5-4.9-49.9.8-8.5,2.9-14.7,6.3-20.7,9.9-5.6,3.6-10.6,8-15,13.1-4.5,4.4-9.2,11.6-12.8,18.3-6.2,11.2-12,29-10.8,45.8.1,12.7,4.5,25.8,9.7,34.5,3.9,6.5,8.1,11.3,13.7,15.9,7.3,6.3,21.8,12.6,36.7,10.7,4.9-.5,9.3-1.6,13.3-3.2-7.4-5.3-13.8-11.4-18.7-19-9.4-6.2-15.4-13.7-20.6-26.1-4.6-11.3-4.7-27.3,0-39.6,3.7-9.3,8-14.7,13.4-20.3,3.8-3.8,8.9-7.5,13.7-10.3,9.4-5.1,18.9-8.3,31-9.8,11.9-.7,23.3-.6,34.1,3.3,5.4,1.1,10.7,3.9,15.8,6.3,7.1,3.5,12.5,7.2,18.5,11.7,3,2.2,5,4.5,7.9,7,4,3.6,5.1,4.9,8.6,8.1-8.6-12.6-16.9-22.5-26.9-31.9-3.6-3.2-7-6.6-11.4-9.5"/>
  </g>
  <path class="st1" d="M164.1,63.6c-1.6.9-5.1,2.9-6.6,3.8-2.5,1.4-6.2,3.9-8.7,5.4-2,1.3-5.4,3.7-7.4,5-2.2,1.7-5,3.6-7.2,5.4-9.6,7.5-18.9,15.8-26.8,25.3-4.1-4.9-8.6-9.4-13.9-13.1-2.4-1.6-5,1.2-3.5,3.7,4.1,6.6,5.6,10.1,8.6,18.1.8,2.2,1.8,5.3,3.7,7s2,1.6,2.9,1.9c4.4,1.5,7.5-.3,9.6-4,.9-1.7,1.9-3.5,2.8-5.1,1.2-2,2.6-4.2,3.9-6.1,5.5-8,12-15.6,18.7-22.7,1.6-1.6,3.7-3.7,5.3-5.3,1.7-1.6,4.7-4.4,6.4-5.9,1.3-1.1,4.4-3.8,5.7-4.9,2.3-1.9,5.5-4.4,7.9-6.3,1.2-1-.1-2.9-1.4-2.1Z"/>
</svg>