<?xml version="1.0" encoding="UTF-8"?>
<svg id="Ebene_1" xmlns="http://www.w3.org/2000/svg" xmlns:xlink="http://www.w3.org/1999/xlink" version="1.1" viewBox="0 0 1734.4 1002.6">
  <!-- Generator: Adobe Illustrator 29.4.0, SVG Export Plug-In . SVG Version: 2.1.0 Build 152)  -->
  <defs>
    <style>
      .st0, .st1, .st2, .st3 {
        fill: none;
      }

      .st4 {
        fill: #4cabbb;
      }

      .st5 {
        fill: #fff;
        font-family: HelveticaNeue-Medium, 'Helvetica Neue';
        font-size: 32px;
        font-weight: 500;
      }

      .st6, .st7 {
        font-family: HelveticaNeue, 'Helvetica Neue';
      }

      .st6, .st8 {
        font-size: 20px;
      }

      .st7 {
        font-size: 30px;
      }

      .st1 {
        stroke: #4cacbc;
      }

      .st1, .st2 {
        stroke-width: 5px;
      }

      .st9 {
        clip-path: url(#clippath-11);
      }

      .st10 {
        clip-path: url(#clippath-16);
      }

      .st11 {
        clip-path: url(#clippath-10);
      }

      .st12 {
        clip-path: url(#clippath-15);
      }

      .st13 {
        clip-path: url(#clippath-13);
      }

      .st14 {
        clip-path: url(#clippath-14);
      }

      .st15 {
        clip-path: url(#clippath-12);
      }

      .st16 {
        clip-path: url(#clippath-1);
      }

      .st17 {
        clip-path: url(#clippath-3);
      }

      .st18 {
        clip-path: url(#clippath-4);
      }

      .st19 {
        clip-path: url(#clippath-2);
      }

      .st20 {
        clip-path: url(#clippath-7);
      }

      .st21 {
        clip-path: url(#clippath-6);
      }

      .st22 {
        clip-path: url(#clippath-9);
      }

      .st23 {
        clip-path: url(#clippath-8);
      }

      .st24 {
        clip-path: url(#clippath-5);
      }

      .st25 {
        letter-spacing: 0em;
      }

      .st26 {
        letter-spacing: 0em;
      }

      .st27 {
        letter-spacing: 0em;
      }

      .st28 {
        letter-spacing: 0em;
      }

      .st29 {
        letter-spacing: 0em;
      }

      .st30 {
        letter-spacing: 0em;
      }

      .st31 {
        letter-spacing: 0em;
      }

      .st32 {
        letter-spacing: 0em;
      }

      .st33 {
        letter-spacing: 0em;
      }

      .st34 {
        letter-spacing: 0em;
      }

      .st35 {
        letter-spacing: 0em;
      }

      .st2 {
        stroke-dasharray: 0 15;
        stroke-dashoffset: .5px;
        stroke-linecap: round;
      }

      .st2, .st3 {
        stroke: #000;
      }

      .st36 {
        fill: #4cacbc;
      }

      .st37 {
        clip-path: url(#clippath);
      }

      .st38 {
        letter-spacing: 0em;
      }

      .st8 {
        font-family: HelveticaNeue-Bold, 'Helvetica Neue';
        font-weight: 700;
      }

      .st3 {
        stroke-width: 4px;
      }
    </style>
    <clipPath id="clippath">
      <rect class="st0" width="1920" height="1080"/>
    </clipPath>
    <clipPath id="clippath-1">
      <rect class="st0" x="799.7" y="877.2" width="215" height="100"/>
    </clipPath>
    <clipPath id="clippath-2">
      <rect class="st0" width="1920" height="1080"/>
    </clipPath>
    <clipPath id="clippath-3">
      <rect class="st0" x="799.7" y="721" width="215" height="100"/>
    </clipPath>
    <clipPath id="clippath-4">
      <rect class="st0" width="1920" height="1080"/>
    </clipPath>
    <clipPath id="clippath-5">
      <rect class="st0" x="799.7" y="564.7" width="215" height="100"/>
    </clipPath>
    <clipPath id="clippath-6">
      <rect class="st0" width="1920" height="1080"/>
    </clipPath>
    <clipPath id="clippath-7">
      <rect class="st0" x="799.7" y="405" width="215" height="100"/>
    </clipPath>
    <clipPath id="clippath-8">
      <rect class="st0" width="1920" height="1080"/>
    </clipPath>
    <clipPath id="clippath-9">
      <rect class="st0" x="486.6" y="243.8" width="215" height="100"/>
    </clipPath>
    <clipPath id="clippath-10">
      <rect class="st0" width="1920" height="1080"/>
    </clipPath>
    <clipPath id="clippath-11">
      <rect class="st0" x="486.6" y="87.6" width="215" height="100"/>
    </clipPath>
    <clipPath id="clippath-12">
      <rect class="st0" width="1920" height="1080"/>
    </clipPath>
    <clipPath id="clippath-13">
      <rect class="st0" x="1112.7" y="89" width="215" height="100"/>
    </clipPath>
    <clipPath id="clippath-14">
      <rect class="st0" width="1920" height="1080"/>
    </clipPath>
    <clipPath id="clippath-15">
      <rect class="st0" x="1112.7" y="245.2" width="215" height="100"/>
    </clipPath>
    <clipPath id="clippath-16">
      <rect class="st0" width="1920" height="1080"/>
    </clipPath>
  </defs>
  <g class="st37">
    <polyline class="st3" points="917.9 459.9 600.8 459.9 600.8 128.5"/>
    <polyline class="st3" points="907.7 459.9 1224.8 459.9 1224.8 307"/>
    <line class="st3" x1="917.2" y1="925.8" x2="1186.3" y2="925.8"/>
    <line class="st3" x1="1220.2" y1="305.9" x2="1220.2" y2="131.2"/>
    <line class="st3" x1="907.2" y1="915.8" x2="907.2" y2="458.2"/>
    <path class="st36" d="M828,877.2h158.4c6.7,0,10.8,0,13.5,1.1,3.9,1.4,6.9,4.5,8.3,8.3,1.1,2.7,1.1,6.7,1.1,13.5v54.1c0,6.7,0,10.8-1.1,13.5-1.4,3.9-4.5,6.9-8.3,8.3-2.7,1.1-6.7,1.1-13.5,1.1h-158.4c-6.7,0-10.8,0-13.5-1.1-3.9-1.4-6.9-4.5-8.3-8.3-1.1-2.7-1.1-6.7-1.1-13.5v-54.1c0-6.7,0-10.8,1.1-13.5,1.4-3.9,4.5-6.9,8.3-8.3,2.7-1.1,6.7-1.1,13.5-1.1Z"/>
  </g>
  <g class="st16">
    <text class="st5" transform="translate(829.2 938.8)"><tspan x="0" y="0">D/A &amp; RFE</tspan></text>
  </g>
  <g class="st19">
    <path class="st36" d="M828,721h158.4c6.7,0,10.8,0,13.5,1.1,3.9,1.4,6.9,4.5,8.3,8.3,1.1,2.7,1.1,6.7,1.1,13.5v54.1c0,6.7,0,10.8-1.1,13.5-1.4,3.9-4.5,6.9-8.3,8.3-2.7,1.1-6.7,1.1-13.5,1.1h-158.4c-6.7,0-10.8,0-13.5-1.1-3.9-1.4-6.9-4.5-8.3-8.3-1.1-2.7-1.1-6.7-1.1-13.5v-54.1c0-6.7,0-10.8,1.1-13.5,1.4-3.9,4.5-6.9,8.3-8.3,2.7-1.1,6.7-1.1,13.5-1.1Z"/>
  </g>
  <g class="st17">
    <text class="st5" transform="translate(874.6 782.6)"><tspan x="0" y="0">PHY</tspan></text>
  </g>
  <g class="st18">
    <path class="st36" d="M828,564.7h158.4c6.7,0,10.8,0,13.5,1.1,3.9,1.4,6.9,4.5,8.3,8.3,1.1,2.7,1.1,6.7,1.1,13.5v54.1c0,6.7,0,10.8-1.1,13.5-1.4,3.9-4.5,6.9-8.3,8.3-2.7,1.1-6.7,1.1-13.5,1.1h-158.4c-6.7,0-10.8,0-13.5-1.1-3.9-1.4-6.9-4.5-8.3-8.3-1.1-2.7-1.1-6.7-1.1-13.5v-54.1c0-6.7,0-10.8,1.1-13.5,1.4-3.9,4.5-6.9,8.3-8.3,2.7-1.1,6.7-1.1,13.5-1.1Z"/>
  </g>
  <g class="st24">
    <text class="st5" transform="translate(870.7 626.4)"><tspan x="0" y="0">MAC</tspan></text>
  </g>
  <g class="st21">
    <path class="st36" d="M828,405h158.4c6.7,0,10.8,0,13.5,1.1,3.9,1.4,6.9,4.5,8.3,8.3,1.1,2.7,1.1,6.7,1.1,13.5v54.1c0,6.7,0,10.8-1.1,13.5-1.4,3.9-4.5,6.9-8.3,8.3-2.7,1.1-6.7,1.1-13.5,1.1h-158.4c-6.7,0-10.8,0-13.5-1.1-3.9-1.4-6.9-4.5-8.3-8.3-1.1-2.7-1.1-6.7-1.1-13.5v-54.1c0-6.7,0-10.8,1.1-13.5,1.4-3.9,4.5-6.9,8.3-8.3,2.7-1.1,6.7-1.1,13.5-1.1Z"/>
  </g>
  <g class="st20">
    <text class="st5" transform="translate(875.2 466.6)"><tspan x="0" y="0">RLC</tspan></text>
  </g>
  <g class="st23">
    <path class="st36" d="M515,243.8h158.4c6.7,0,10.8,0,13.5,1.1,3.9,1.4,6.9,4.5,8.3,8.3,1.1,2.7,1.1,6.7,1.1,13.5v54.1c0,6.7,0,10.8-1.1,13.5-1.4,3.9-4.5,6.9-8.3,8.3-2.7,1.1-6.7,1.1-13.5,1.1h-158.4c-6.7,0-10.8,0-13.5-1.1-3.9-1.4-6.9-4.5-8.3-8.3-1.1-2.7-1.1-6.7-1.1-13.5v-54.1c0-6.7,0-10.8,1.1-13.5,1.4-3.9,4.5-6.9,8.3-8.3,2.7-1.1,6.7-1.1,13.5-1.1Z"/>
  </g>
  <g class="st22">
    <text class="st5" transform="translate(531.9 305.5)"><tspan x="0" y="0">PDCP-U</tspan></text>
  </g>
  <g class="st11">
    <path class="st36" d="M515,87.6h158.4c6.7,0,10.8,0,13.5,1.1,3.9,1.4,6.9,4.5,8.3,8.3,1.1,2.7,1.1,6.7,1.1,13.5v54.1c0,6.7,0,10.8-1.1,13.5-1.4,3.9-4.5,6.9-8.3,8.3-2.7,1.1-6.7,1.1-13.5,1.1h-158.4c-6.7,0-10.8,0-13.5-1.1-3.9-1.4-6.9-4.5-8.3-8.3-1.1-2.7-1.1-6.7-1.1-13.5v-54.1c0-6.7,0-10.8,1.1-13.5,1.4-3.9,4.5-6.9,8.3-8.3,2.7-1.1,6.7-1.1,13.5-1.1Z"/>
  </g>
  <g class="st9">
    <text class="st5" transform="translate(550.9 149.2)"><tspan x="0" y="0">SDAP</tspan></text>
  </g>
  <g class="st15">
    <path class="st36" d="M1141,89h158.4c6.7,0,10.8,0,13.5,1.1,3.9,1.4,6.9,4.5,8.3,8.3,1.1,2.7,1.1,6.7,1.1,13.5v54.1c0,6.7,0,10.8-1.1,13.5-1.4,3.9-4.5,6.9-8.3,8.3-2.7,1.1-6.7,1.1-13.5,1.1h-158.4c-6.7,0-10.8,0-13.5-1.1-3.9-1.4-6.9-4.5-8.3-8.3-1.1-2.7-1.1-6.7-1.1-13.5v-54.1c0-6.7,0-10.8,1.1-13.5,1.4-3.9,4.5-6.9,8.3-8.3,2.7-1.1,6.7-1.1,13.5-1.1Z"/>
  </g>
  <g class="st13">
    <text class="st5" transform="translate(1186.1 150.6)"><tspan x="0" y="0">RRC</tspan></text>
  </g>
  <g class="st14">
    <path class="st36" d="M1141,245.2h158.4c6.7,0,10.8,0,13.5,1.1,3.9,1.4,6.9,4.5,8.3,8.3,1.1,2.7,1.1,6.7,1.1,13.5v54.1c0,6.7,0,10.8-1.1,13.5-1.4,3.9-4.5,6.9-8.3,8.3-2.7,1.1-6.7,1.1-13.5,1.1h-158.4c-6.7,0-10.8,0-13.5-1.1-3.9-1.4-6.9-4.5-8.3-8.3-1.1-2.7-1.1-6.7-1.1-13.5v-54.1c0-6.7,0-10.8,1.1-13.5,1.4-3.9,4.5-6.9,8.3-8.3,2.7-1.1,6.7-1.1,13.5-1.1Z"/>
  </g>
  <g class="st12">
    <text class="st5" transform="translate(1158 306.8)"><tspan x="0" y="0">PDCP-C</tspan></text>
  </g>
  <g class="st10">
    <path class="st4" d="M1241.6,966.6l5.7,22.2-24.3-12.6,18.6-9.6ZM1198.5,966.6l18.6,9.6-24.3,12.6,5.7-22.2ZM1200.2,964.4h39.8l-19.9,10.3-19.9-10.3ZM1220.1,946.8l19.1,14.9h-38.1l19.1-14.9ZM1233.8,936.1l5.8,22.5-17.3-13.5,11.5-9ZM1206.3,936.1l11.6,9-17.3,13.5,5.8-22.5ZM1208.8,934.6h22.6l-11.3,8.8-11.3-8.8ZM1220.1,917.2l11.3,14.7h-22.7l11.3-14.7ZM1226.8,908.6l5,19.3-9.9-12.9,5-6.4ZM1213.4,908.6l5,6.4-9.9,12.9,5-19.3ZM1215.3,906.6h9.5l-4.8,6.2-4.8-6.2ZM1220.1,882.5l5.5,21.4h-11l5.5-21.4ZM1220.1,856.6c-4,0-7.2,3.2-7.2,7.2s1.2,4.5,3,5.8l-31.5,122.9h7.4l28.3-14.7,28.3,14.7h7.4l-31.5-122.9c1.8-1.3,3-3.4,3-5.8,0-4-3.2-7.2-7.2-7.2ZM1220.1,836.3c-15.1,0-27.5,12.3-27.5,27.5s4.7,17.7,12,22.7l1.5-5.9c-4.8-4-7.8-10-7.8-16.7,0-12,9.8-21.8,21.8-21.8s21.8,9.8,21.8,21.8-3,12.7-7.8,16.7l1.5,5.9c7.2-5,12-13.3,12-22.6,0-15.1-12.3-27.5-27.5-27.5ZM1220.1,815.8c-26.4,0-47.9,21.5-47.9,47.9s11.1,35.4,27.2,43.2l1.4-5.6c-13.6-7-22.9-21.3-22.9-37.6,0-23.3,19-42.3,42.3-42.3s42.3,19,42.3,42.3-9.3,30.6-23,37.6l1.4,5.6c16.1-7.8,27.2-24.2,27.2-43.2s-21.5-47.9-47.9-47.9ZM1220.2,795c-37.8,0-68.5,30.7-68.5,68.5s17,52.5,42.6,63.2l1.2-5.2c-23.5-9.8-38.2-32.6-38.2-58.1s28.2-62.9,62.9-62.9,62.9,28.2,62.9,62.9-14.8,48.4-38.4,58.1l1.2,5.2c25.7-10.6,42.8-35.5,42.8-63.3s-30.7-68.5-68.5-68.5Z"/>
    <path class="st36" d="M1483.8,821.8h82.7v146.7h-82.7v-146.7ZM1517.8,807.4h14.8c1.3,0,2.3,1,2.3,2.3s-1,2.3-2.3,2.3h-14.8c-1.3,0-2.3-1-2.3-2.3s1-2.3,2.3-2.3ZM1486.4,795c-5,0-9.2,4.1-9.2,9.2v179c0,5.1,4.1,9.2,9.2,9.2h77.5c5,0,9.2-4.1,9.2-9.2v-179c0-5-4.1-9.2-9.2-9.2h-77.5Z"/>
    <polyline class="st1" points="1297.6 916 1300.1 916 1435.2 916 1437.7 916"/>
    <polygon class="st36" points="1435.2 926.2 1455.6 916 1435.2 905.8 1435.2 926.2"/>
    <polygon class="st36" points="1300.1 905.8 1279.7 916 1300.1 926.2 1300.1 905.8"/>
    <text class="st8" transform="translate(237.1 900.8)"><tspan x="0" y="0">Digital-to</tspan></text>
    <text class="st8" transform="translate(325.6 900.8)"><tspan x="0" y="0"> </tspan></text>
    <text class="st8" transform="translate(331.1 900.8)"><tspan x="0" y="0">Analog</tspan></text>
    <text class="st8" transform="translate(397.8 900.8)"><tspan x="0" y="0"> </tspan></text>
    <text class="st8" transform="translate(403.3 900.8)"><tspan x="0" y="0">conversion</tspan></text>
    <text class="st8" transform="translate(508.5 900.8)"><tspan x="0" y="0"> </tspan></text>
    <text class="st8" transform="translate(514.1 900.8)"><tspan x="0" y="0">(DA)</tspan></text>
    <text class="st8" transform="translate(554.4 900.8)"><tspan x="0" y="0"> </tspan></text>
    <text class="st8" transform="translate(560 900.8)"><tspan x="0" y="0">&amp;</tspan></text>
    <text class="st8" transform="translate(573.7 900.8)"><tspan x="0" y="0"> </tspan></text>
    <text class="st8" transform="translate(579.3 900.8)"><tspan x="0" y="0">Radio</tspan></text>
    <text class="st8" transform="translate(634.8 900.8)"><tspan x="0" y="0"> </tspan></text>
    <text class="st8" transform="translate(237.1 923.4)"><tspan x="0" y="0">F</tspan><tspan class="st34" x="11.9" y="0">r</tspan><tspan class="st25" x="19.3" y="0">equency</tspan></text>
    <text class="st8" transform="translate(337.2 923.4)"><tspan x="0" y="0"> </tspan></text>
    <text class="st8" transform="translate(342.7 923.4)"><tspan x="0" y="0">Equipment</tspan></text>
    <text class="st6" transform="translate(237.1 945)"><tspan x="0" y="0">Converts digital baseband signals into analog </tspan></text>
    <text class="st6" transform="translate(237.1 966.7)"><tspan x="0" y="0">RF signals</tspan></text>
    <text class="st8" transform="translate(237.1 735.1)"><tspan x="0" y="0">Physical</tspan></text>
    <text class="st8" transform="translate(316.7 735.1)"><tspan x="0" y="0"> </tspan></text>
    <text class="st8" transform="translate(322.3 735.1)"><tspan x="0" y="0">Layer</tspan></text>
    <text class="st6" transform="translate(237.1 756.8)"><tspan x="0" y="0">- Implements the physical radio interface as </tspan></text>
    <text class="st6" transform="translate(237.1 779.3)"><tspan x="0" y="0">de</tspan></text>
    <text class="st6" transform="translate(259.7 779.3)"><tspan x="0" y="0">ﬁ</tspan></text>
    <text class="st6" transform="translate(270.1 779.3)"><tspan x="0" y="0">ned by 3GPP (e.g., </tspan><tspan class="st28" x="174.1" y="0">L</tspan><tspan x="183.4" y="0">TE or 5G NR).</tspan></text>
    <text class="st6" transform="translate(237.1 801)"><tspan x="0" y="0">- Handles modulation, channel coding and </tspan></text>
    <text class="st6" transform="translate(237.1 822.6)"><tspan x="0" y="0">decoding, HARQ, MIMO or </tspan><tspan class="st34" x="246.7" y="0">r</tspan><tspan x="253.1" y="0">esou</tspan><tspan class="st34" x="296.4" y="0">r</tspan><tspan x="302.7" y="0">ce mapping</tspan></text>
    <text class="st8" transform="translate(237.1 590.2)"><tspan x="0" y="0">Medium</tspan></text>
    <text class="st8" transform="translate(314.1 590.2)"><tspan x="0" y="0"> </tspan></text>
    <text class="st8" transform="translate(319.7 590.2)"><tspan x="0" y="0">Access</tspan></text>
    <text class="st8" transform="translate(389.3 590.2)"><tspan x="0" y="0"> </tspan></text>
    <text class="st8" transform="translate(394.8 590.2)"><tspan x="0" y="0">Cont</tspan><tspan class="st34" x="45.9" y="0">r</tspan><tspan x="53.4" y="0">ol</tspan></text>
    <text class="st6" transform="translate(237.1 611.8)"><tspan x="0" y="0">Schedules </tspan><tspan class="st32" x="99.3" y="0">r</tspan><tspan x="105.6" y="0">esou</tspan><tspan class="st31" x="148.9" y="0">r</tspan><tspan x="155.2" y="0">ces, manages HARQ, and </tspan></text>
    <text class="st6" transform="translate(237.1 633.5)"><tspan x="0" y="0">maps logical to transport channels; located in </tspan></text>
    <text class="st6" transform="translate(237.1 655.1)"><tspan x="0" y="0">the O-DU in O-RAN.</tspan></text>
    <text class="st8" transform="translate(234.8 419.6)"><tspan x="0" y="0">Radio</tspan></text>
    <text class="st8" transform="translate(290.3 419.6)"><tspan x="0" y="0"> </tspan></text>
    <text class="st8" transform="translate(295.9 419.6)"><tspan x="0" y="0">Link</tspan></text>
    <text class="st8" transform="translate(336.2 419.6)"><tspan x="0" y="0"> </tspan></text>
    <text class="st8" transform="translate(341.8 419.6)"><tspan x="0" y="0">Cont</tspan><tspan class="st34" x="45.9" y="0">r</tspan><tspan x="53.4" y="0">ol</tspan></text>
    <text class="st6" transform="translate(234.8 441.2)"><tspan x="0" y="0">Ensu</tspan><tspan class="st31" x="44.5" y="0">r</tspan><tspan x="50.8" y="0">es </tspan><tspan class="st31" x="77.1" y="0">r</tspan><tspan x="83.4" y="0">eliable and o</tspan><tspan class="st31" x="197.1" y="0">r</tspan><tspan x="203.4" y="0">de</tspan><tspan class="st34" x="226" y="0">r</tspan><tspan x="232.3" y="0">ed data </tspan></text>
    <text class="st6" transform="translate(234.8 462.9)"><tspan x="0" y="0">delivery by handling segmentation, </tspan></text>
    <text class="st6" transform="translate(234.8 484.5)"><tspan class="st31" x="0" y="0">r</tspan><tspan x="6.3" y="0">eassembl</tspan><tspan class="st29" x="91.9" y="0">y</tspan><tspan x="100.4" y="0">, and </tspan><tspan class="st31" x="150.8" y="0">r</tspan><tspan x="157.1" y="0">etransmissions </tspan></text>
    <text class="st6" transform="translate(234.8 506.2)"><tspan x="0" y="0">between PDCP and MAC.</tspan></text>
    <text class="st8" transform="translate(60.2 237.7)"><tspan x="0" y="0">Package</tspan></text>
    <text class="st8" transform="translate(143.2 237.7)"><tspan x="0" y="0"> </tspan></text>
    <text class="st8" transform="translate(148.7 237.7)"><tspan x="0" y="0">Data</tspan></text>
    <text class="st8" transform="translate(193.5 237.7)"><tspan x="0" y="0"> </tspan></text>
    <text class="st8" transform="translate(199.1 237.7)"><tspan x="0" y="0">Conve</tspan><tspan class="st30" x="60.8" y="0">r</tspan><tspan x="68" y="0">gence</tspan></text>
    <text class="st8" transform="translate(325.6 237.7)"><tspan x="0" y="0"> </tspan></text>
    <text class="st8" transform="translate(60.2 260.2)"><tspan x="0" y="0">(User</tspan></text>
    <text class="st8" transform="translate(110.9 260.2)"><tspan x="0" y="0"> </tspan></text>
    <text class="st8" transform="translate(116.5 260.2)"><tspan x="0" y="0">Plane)</tspan></text>
    <text class="st6" transform="translate(60.2 281.9)"><tspan x="0" y="0">- Handles user data tra</tspan></text>
    <path d="M273,273h-3.9v8.8h-1.7v-8.8h-1.7v-1.5h1.7v-1.5c0-.8.2-1.5.7-1.9.5-.4,1.2-.7,2.1-.7s.3,0,.6,0c.2,0,.4,0,.5.1v1.5c-.1,0-.3,0-.5-.1-.2,0-.3,0-.5,0-.4,0-.7,0-1,.2-.2.2-.3.5-.3.9v1.4h3.9v-1.5c0-.8.2-1.5.7-1.9.5-.4,1.2-.7,2.1-.7s.3,0,.5,0c.2,0,.4,0,.5.1v1.5c-.1,0-.3,0-.5-.1-.2,0-.3,0-.5,0-.4,0-.7,0-1,.2-.2.2-.3.5-.3.9v1.4h2v1.5h-2v8.8h-1.7v-8.8ZM280,269.7h-1.7v-2.1h1.7v2.1ZM278.3,271.5h1.7v10.3h-1.7v-10.3Z"/>
    <text class="st6" transform="translate(281.4 281.9)"><tspan x="0" y="0">c (e.g., Inte</tspan><tspan class="st38" x="99.3" y="0">r</tspan><tspan class="st25" x="106.3" y="0">net, apps, </tspan></text>
    <text class="st6" transform="translate(60.2 303.5)"><tspan x="0" y="0">media) </tspan></text>
    <text class="st6" transform="translate(60.2 325.2)"><tspan x="0" y="0">- performs tasks such as header comp</tspan><tspan class="st33" x="345.7" y="0">r</tspan><tspan x="352" y="0">ession, </tspan></text>
    <text class="st6" transform="translate(60.2 346.9)"><tspan x="0" y="0">ciphering, sequence numbering and </tspan><tspan class="st34" x="326.8" y="0">r</tspan><tspan x="333.1" y="0">eo</tspan><tspan class="st34" x="355.3" y="0">r</tspan><tspan x="361.6" y="0">dering, </tspan></text>
    <text class="st6" transform="translate(60.2 368.5)"><tspan x="0" y="0">and duplicate detection.</tspan></text>
    <text class="st8" transform="translate(1357.5 246.7)"><tspan x="0" y="0">Package</tspan></text>
    <text class="st8" transform="translate(1440.5 246.7)"><tspan x="0" y="0"> </tspan></text>
    <text class="st8" transform="translate(1446.1 246.7)"><tspan x="0" y="0">Data</tspan></text>
    <text class="st8" transform="translate(1490.9 246.7)"><tspan x="0" y="0"> </tspan></text>
    <text class="st8" transform="translate(1496.4 246.7)"><tspan x="0" y="0">Conve</tspan><tspan class="st30" x="60.8" y="0">r</tspan><tspan x="68" y="0">gence</tspan></text>
    <text class="st8" transform="translate(1623 246.7)"><tspan x="0" y="0"> </tspan></text>
    <text class="st8" transform="translate(1357.5 269.3)"><tspan x="0" y="0">(Cont</tspan><tspan class="st35" x="51.9" y="0">r</tspan><tspan class="st26" x="59.3" y="0">ol</tspan></text>
    <text class="st8" transform="translate(1434.2 269.3)"><tspan x="0" y="0"> </tspan></text>
    <text class="st8" transform="translate(1439.8 269.3)"><tspan x="0" y="0">Plane)</tspan></text>
    <text class="st6" transform="translate(1357.5 291.8)"><tspan x="0" y="0">- Handles signaling/cont</tspan><tspan class="st34" x="217.8" y="0">r</tspan><tspan x="224.1" y="0">olling messages</tspan></text>
    <text class="st6" transform="translate(1357.5 313.5)"><tspan x="0" y="0">- Responsible for ciphering and integrity </tspan></text>
    <text class="st6" transform="translate(1357.5 335.1)"><tspan x="0" y="0">p</tspan><tspan class="st31" x="11.9" y="0">r</tspan><tspan class="st25" x="18.2" y="0">otection, sequence numbering and </tspan></text>
    <text class="st6" transform="translate(1357.5 356.8)"><tspan x="0" y="0">o</tspan><tspan class="st31" x="11.5" y="0">r</tspan><tspan class="st25" x="17.8" y="0">dering and duplicate detection </tspan></text>
    <text class="st8" transform="translate(1357.5 90.9)"><tspan x="0" y="0">Package</tspan></text>
    <text class="st8" transform="translate(1440.5 90.9)"><tspan x="0" y="0"> </tspan></text>
    <text class="st8" transform="translate(1446.1 90.9)"><tspan x="0" y="0">Data</tspan></text>
    <text class="st8" transform="translate(1490.9 90.9)"><tspan x="0" y="0"> </tspan></text>
    <text class="st8" transform="translate(1496.4 90.9)"><tspan x="0" y="0">Conve</tspan><tspan class="st30" x="60.8" y="0">r</tspan><tspan x="68" y="0">gence</tspan></text>
    <text class="st8" transform="translate(1623 90.9)"><tspan x="0" y="0"> </tspan></text>
    <text class="st8" transform="translate(1357.5 113.5)"><tspan x="0" y="0">(Cont</tspan><tspan class="st35" x="51.9" y="0">r</tspan><tspan class="st26" x="59.3" y="0">ol</tspan></text>
    <text class="st8" transform="translate(1434.2 113.5)"><tspan x="0" y="0"> </tspan></text>
    <text class="st8" transform="translate(1439.8 113.5)"><tspan x="0" y="0">Plane)</tspan></text>
    <text class="st6" transform="translate(1357.5 135.1)"><tspan x="0" y="0">Manages the UE</tspan><tspan class="st29" x="148.2" y="0">’</tspan><tspan x="152.3" y="0">s radio connection, </tspan></text>
    <text class="st6" transform="translate(1357.5 156.8)"><tspan x="0" y="0">including setup, </tspan><tspan class="st31" x="147.5" y="0">r</tspan><tspan x="153.8" y="0">elease, mobilit</tspan><tspan class="st27" x="282.3" y="0">y</tspan><tspan x="290.8" y="0">, and </tspan></text>
    <text class="st6" transform="translate(1357.5 178.5)"><tspan x="0" y="0">con</tspan></text>
    <text class="st6" transform="translate(1390.9 178.5)"><tspan x="0" y="0">ﬁ</tspan></text>
    <text class="st6" transform="translate(1401.2 178.5)"><tspan x="0" y="0">guration of radio </tspan><tspan class="st31" x="152.6" y="0">r</tspan><tspan x="158.9" y="0">esou</tspan><tspan class="st31" x="202.2" y="0">r</tspan><tspan x="208.5" y="0">ces between </tspan></text>
    <text class="st6" transform="translate(1357.5 200.1)"><tspan x="0" y="0">the UE and the base station.</tspan></text>
    <text class="st8" transform="translate(61.4 113)"><tspan x="0" y="0">Service</tspan></text>
    <text class="st8" transform="translate(132.1 113)"><tspan x="0" y="0"> </tspan></text>
    <text class="st8" transform="translate(137.7 113)"><tspan x="0" y="0">Data</tspan></text>
    <text class="st8" transform="translate(182.5 113)"><tspan x="0" y="0"> </tspan></text>
    <text class="st8" transform="translate(188.1 113)"><tspan x="0" y="0">Adaptation</tspan></text>
    <text class="st8" transform="translate(292.5 113)"><tspan x="0" y="0"> </tspan></text>
    <text class="st8" transform="translate(298.1 113)"><tspan x="0" y="0">P</tspan><tspan class="st34" x="13.3" y="0">r</tspan><tspan x="20.8" y="0">otocol</tspan></text>
    <text class="st6" transform="translate(61.4 134.7)"><tspan x="0" y="0">Handles 5G user data by assigning it to the </tspan></text>
    <text class="st6" transform="translate(61.4 156.3)"><tspan x="0" y="0">right radio bea</tspan><tspan class="st31" x="129.6" y="0">r</tspan><tspan x="135.9" y="0">er based on its priority and </tspan></text>
    <text class="st6" transform="translate(61.4 178)"><tspan x="0" y="0">service </tspan><tspan class="st31" x="68.9" y="0">r</tspan><tspan x="75.2" y="0">equi</tspan><tspan class="st31" x="113.3" y="0">r</tspan><tspan x="119.6" y="0">ements.</tspan></text>
    <text class="st7" transform="translate(67.4 737.8)"><tspan x="0" y="0">O-RU</tspan></text>
    <polyline class="st2" points="51.4 688 719.4 688 719.4 765.2 804.2 765.2"/>
    <line class="st2" x1="1737.3" y1="385.8" x2="71" y2="385.8"/>
    <text class="st7" transform="translate(67.1 435.5)"><tspan x="0" y="0">O-DU</tspan></text>
    <line class="st2" x1="904.2" y1="399.4" x2="904.2" y2="83.8"/>
    <text class="st7" transform="translate(1574.6 42.2)"><tspan x="0" y="0">O-CU-CP</tspan></text>
    <text class="st7" transform="translate(61 43.6)"><tspan x="0" y="0">O-CU-UP</tspan></text>
  </g>
</svg>